/* XPM */
static char *result[] = {
/* columns rows colors chars-per-pixel */
"64 64 240 2 ",
"   c #010101",
".  c #0C0B0C",
"X  c #090709",
"o  c #16090C",
"O  c #0E0D11",
"+  c #110E12",
"@  c #1C0E13",
"#  c #131214",
"$  c #17151A",
"%  c #1C1A1D",
"&  c #1B1415",
"*  c #18110F",
"=  c #231C1C",
"-  c #291719",
";  c #31111A",
":  c #36231C",
">  c #29221F",
",  c #1E1C21",
"<  c #271B21",
"1  c #331F21",
"2  c #242224",
"3  c #2C2525",
"4  c #25232B",
"5  c #2C2B2D",
"6  c #2A272B",
"7  c #382729",
"8  c #2D2B34",
"9  c #2D2734",
"0  c #322E34",
"q  c #312E39",
"w  c #392233",
"e  c #343234",
"r  c #34323C",
"t  c #3A3738",
"y  c #2F3134",
"u  c #540616",
"i  c #480A15",
"p  c #6C0318",
"a  c #720017",
"s  c #581727",
"d  c #5C0B24",
"f  c #791529",
"g  c #73122A",
"h  c #452C2B",
"j  c #4B2B33",
"k  c #453839",
"l  c #563838",
"z  c #552629",
"x  c #73343E",
"c  c #654438",
"v  c #5C453C",
"b  c #3A3643",
"n  c #3D3945",
"m  c #393743",
"M  c #413C4B",
"N  c #473E48",
"B  c #563E41",
"V  c #6B3D58",
"C  c #6B3A46",
"Z  c #3E4445",
"A  c #4C4242",
"S  c #47464A",
"D  c #584748",
"F  c #454152",
"G  c #4A4454",
"H  c #4E495A",
"J  c #4E4956",
"K  c #524B5D",
"L  c #524C57",
"P  c #565758",
"I  c #4D5455",
"U  c #674549",
"Y  c #794951",
"T  c #655959",
"R  c #775358",
"E  c #714D4C",
"W  c #544D60",
"Q  c #5E4C66",
"!  c #595364",
"~  c #595668",
"^  c #5B5B74",
"/  c #615C6B",
"(  c #635E74",
")  c #764B6A",
"_  c #5D6566",
"`  c #676669",
"'  c #776764",
"]  c #69657A",
"[  c #736C7D",
"{  c #747878",
"}  c #89001C",
"|  c #92001D",
" . c #9A0423",
".. c #980B33",
"X. c #8A1532",
"o. c #A70223",
"O. c #B40025",
"+. c #B60A2D",
"@. c #A41639",
"#. c #B51037",
"$. c #852738",
"%. c #853335",
"&. c #C6042C",
"*. c #D7012F",
"=. c #C60B34",
"-. c #DA0936",
";. c #C9163B",
":. c #D0113A",
">. c #981E4A",
",. c #AD1846",
"<. c #AE1241",
"1. c #94304E",
"2. c #B32B4E",
"3. c #9E3A6C",
"4. c #AC3E7C",
"5. c #DC1944",
"6. c #D70C59",
"7. c #D01948",
"8. c #D5264C",
"9. c #D92B52",
"0. c #C93351",
"q. c #E12D58",
"w. c #DD3370",
"e. c #E23D6C",
"r. c #8B555D",
"t. c #834C55",
"y. c #B05554",
"u. c #976554",
"i. c #965A64",
"p. c #8C5E7C",
"a. c #AA4F6F",
"s. c #9A636B",
"d. c #986674",
"f. c #887171",
"g. c #A3646E",
"h. c #A96A74",
"j. c #B56D79",
"k. c #AD737B",
"l. c #B9747C",
"z. c #A67361",
"x. c #A16F5E",
"c. c #CD496D",
"v. c #E45374",
"b. c #CC697C",
"n. c #C6435F",
"m. c #AE897A",
"M. c #D48F74",
"N. c #D08F75",
"B. c #736E83",
"V. c #7C7484",
"C. c #7B758B",
"Z. c #787484",
"A. c #6C6980",
"S. c #B95898",
"D. c #B5508C",
"F. c #827A8D",
"G. c #807789",
"H. c #867E91",
"J. c #AF628A",
"K. c #AC7C82",
"L. c #B37C83",
"P. c #B56F89",
"I. c #BC5BA4",
"U. c #E35585",
"Y. c #E14F88",
"T. c #C97885",
"R. c #D57C8B",
"E. c #C06F88",
"W. c #E46F8D",
"Q. c #E169B7",
"!. c #E468AB",
"~. c #C160AE",
"^. c #D872CC",
"/. c #E073C8",
"(. c #898789",
"). c #8B8395",
"_. c #8E8699",
"`. c #878E91",
"'. c #948B9D",
"]. c #998F90",
"[. c #969092",
"{. c #B8898C",
"}. c #B79999",
"|. c #AE908D",
" X c #A1A8A9",
".X c #BCA2A4",
"XX c #AEB6B7",
"oX c #9BABAC",
"OX c #DA818E",
"+X c #D98894",
"@X c #C6979B",
"#X c #D8949D",
"$X c #CC8F8A",
"%X c #EA8A99",
"&X c #E38998",
"*X c #E2939E",
"=X c #CDA69B",
"-X c #D39CA2",
";X c #EB94A1",
":X c #EC9CA7",
">X c #F091B9",
",X c #DAB6B6",
"<X c #D0AFB0",
"1X c #E9A5AC",
"2X c #EDA9B1",
"3X c #F0AEB5",
"4X c #E8B8BA",
"5X c #F1B0B6",
"6X c #F1B6BB",
"7X c #F0CBB6",
"8X c #D78CDB",
"9X c #D1BEC1",
"0X c #F5BDCD",
"qX c #D891EA",
"wX c #E29AED",
"eX c #E7ADED",
"rX c #E7A7FB",
"tX c #EEB5FA",
"yX c #F1B9F3",
"uX c #E6B7E5",
"iX c #EA8BC9",
"pX c #CACCCC",
"aX c #D3D5D5",
"sX c #E9C6C5",
"dX c #F4C4C6",
"fX c #F4CBCB",
"gX c #F4C7C8",
"hX c #FEDBC5",
"jX c #F6D3CA",
"kX c #F6D3D1",
"lX c #F0DED6",
"zX c #FAC0DF",
"xX c #F5C7FA",
"cX c #FAD4FB",
"vX c #FDDCFB",
"bX c #F9D6F1",
"nX c #F7D1EF",
"mX c #FFE0FB",
"MX c #E9E9E9",
"NX c None",
/* pixels */
"NXNXNXNXNXNXNXNXNXNXNXNXNXNXNXNXNXNXNXNXNXNXNXNXNXNXNXNXNXNXNXNXNXNXNXNXNXNXNXNXNXNXNXNXNXNXNXNXNXNXNXNXNXNXNXNXNXNXNXNXNXNXNXNX",
"NXNXNXNXNXNXNXNXNXNXNXNXNXNXNXNX3 NXNXNXNXNXNXNX# = k NXNXNXNXNXNXNXNXNXNXNXNXNXNXNXNXNXNXNXNXNXNXNXNXNXNXNXNXNXNXNXNXNXNXNXNXNX",
"NXNXNXNXNXNXNXNXNXNXNXNXNXNXNX3 O 3 NXNXNXNXNXNX= T |.t , NXNXNXNXNXNXNXNX- NXNXNXNXNXNXNXNXNXNXNXNXNXNXNXNXNXNXNXNXNXNXNXNXNXNX",
"NXNXNXNXNXNXNXNXNXNXNXNXNXNXNX5 7 ].A 4 NXNXNXNX5 ` sX.X}.U T NXNXNXNXNXNX% NXNXNXNXNXNXNXNXNXNXNXNXNXNXNXNXNXNXNXNXNXNXNXNXNXNX",
"NXNXNXNXNXNXNXNXNXNXNXNXNXNXNXt A ,Xm.R U D S A 3 E 6XkXkX|./ T NXNXNXNXD R k NXNXNXNXNXNXNXNXNXNXNXNXNXNXNXNXNXNXNXNXNXNXNXNXNX",
"NXNXNXNXNXNXNXNXNXNXNXNXNXNXNXk A sXfX4Xs.j A A 7 Y $X<XfXkX|.l NXNXNXD C b.- NXNXNXNXNXNXNXNXNXNXNXNXNXNXNXNXNXNXNXNXNXNXNXNXNX",
"NXNXNXNXNXNXNXNXNXNXNXNXNXNXNXZ A fXkXkX2X#X6XsX{.h.h.k.,XgX4Xj.- T D Y &XR.1 7 NXNXNXNXNXNXNXNXNXNXNXNXNXNXNXNXNXNXNXNXNXNXNXNX",
"NXNXNXNXNXNXNXNXNXNXNXNXNXNXNXk A sXkXkX3X;X:XdXfXsX4X+XL.,XfX}.- 2 r.T.&XT.- k NXNXNXNXNXNXNXNXNXNXNXNXNXNXNXNXNXNXNXNXNXNXNXNX",
"NXNXNXNXNXNXNXNXNXNXNXNXNXk NXS k 1XgXkX5X;X6X2XdXkXkX6X,X1X6X,XE U i.h.i.j o y e 5 NXNXNXNXNXNXNXNXNXNXNXNXNXNXNXNXNXNXNXNXNXNX",
"NXNXNXNXNXNXNXNXNXNXNXNXNX# k t j %XgXkX5X:XfX5X3XdXkXkXfX1X:X*Xg.j.$X@X|.' ' 7 y S NXNXNXNXNXNXNXNXNXNXNXNXNXNXNXNXNXNXNXNXNXNX",
"NXNXNXNXNXNXNXNXNXNXNXNXNX# 5 = j *XfXkX5X:XjXkX3X3XdXkXkX5X;XOXg.#X0XkXkXfX@X' (.9X].k NXNXNXNXNXNXNXNXNXNXNXNXNXNXNXNXNXNXNXNX",
"NXNXNXNXNXNXNXNXNXNXNXNXNX, |.f.l +X0XfX2X:XdXkXfX3X:XdXkXkX5XOXL.4XkXfXsX<XA ].4Xk.D NXNXNXNXNXNXNXNXNXNXNXNXNXNXNXNXNXNXNXNXNX",
"NXNXNXNXNXNXNXNXNXNXNXNXNX> }.sX}.l.#X%X%X%X:XfXkX5X%X:XgXkX5X;X0XfXkX6XP.k i.+Xd.l NXNXNXNXNXNXNXNXNXNXNXNXNXNXNXNXNXNXNXNXNXNX",
"NXNXNXNXNXNXNXNXNXNXNXNXNX2 }.jX4XT.j.j.T.%X;XgXkX5X%X%X:X:X;X:XfXjX6X+Xr.@ h j U NXNXNXNXNXNXNXNXNXNXNXNXNXNXNXNXNXNXNXNXNXNXNX",
"NXNXNXNXNXNXNXNXNXNXNXNXNX# |.0XgX1X@Xh.h.T.T.2XgX1XOX2X2X;X%X*X@X=X$Xj.r.C C 1 e NXNXNXNXNXNXNXNXNXNXNXNXNXNXNXNXNXNXNXNXNXNXNX",
"NXNXNXNXNXNXNXNXNXNXNXNXNX: r.@XgXjXfX@Xk.g.s.+X1X@X}.fXkX3X*XT.{.k.K.d.h.&X%Xt.l NXNXNXNXNXNXNXNXNXNXNXNXNXNXNXNXNXNXNXNXNXNXNX",
"NXNXNXNXNXNXNXNXNXNXNXNXNXNXe Y #XdXkXfX1XT.k.+XP.@XsX,X,X,X{.d.<X2X3X$Xg.W.W.T.Y - NXNXNXNXNXNXNXNXNXNXNXNXNXNXNXNXNXNXNXNXNXNX",
"NXNXNXNXNXNXNXNXNXNXNXo # = o o U ;XgXkX@X{.4X0XL.$X.Xe 3 3 = = 7 2.8.5.-.:.5.g - . o NXNXNXNXNXNXNXNXNXNXNXNXNXNXNXNXNXNXNXNXNX",
"NXNXNXNXNXNXNXNXNXNXNX& & t.i.i.i.l.{.{.d.{.,XT e k A 2 e r r 8 - i u a o.o.o.| } } } NXNXNXNXNXNXNXNXNXNXNXNXNXNXNXNXNXNXNXNXNX",
"NXNXNXNXNXNXNXNXNXNXNXNX1 r.T.%XOXb.j.j.g.s.f.e 4 4 6 n H W W G 8 < 3 1 u 3.4.,.O.O.=.0.n.NXNXNXNXNXNXNXNXNXNXNXNXNXNXNXNXNXNXNX",
"NXNXNXNXNXNXNXNXNXNXNXNXNX7 i.T.R.R.&X&Xh.l * F K K K F M M M k 4 b M 4 w qXrXS.1.>.>.=.&.7.NXNXNXNXNXNXNXNXNXNXNXNXNXNXNXNXNXNX",
"NXNXNXNXNXNXNXNXNXNXNXNXNXNXh D i.g.R.R.Y * . N K K n % # & = > % O o o j uXxXnXeX8X^.1...@.=.*.NXNXNXNXNXNXNXNXNXNXNXNXNXNXNXNX",
"NXNXNXNXNXNXNXNXNXNXNXNXNXNXNXB j i.s.l c E # F K r y Z.R x.m.=X|.> a O.2.qXcXmXvXcXxXqX^.D. .| =.NXNXNXNXNXNXNXNXNXNXNXNXNXNXNX",
"NXNXNXNXNXNXNXNXNXNXNXNXNXNXk R i.T.b.: : h 4 G 8 7 ` pX,X{.m.@X7X|.0.*.5.w.U.iXtXvXvXxXxX8XI.S.<.,.9.NXNXNXNXNXNXNXNXNXNXNXNXNX",
"NXNXNXNXNXNXNXNXNXNXNXNXNXNX3 U r.r.t.;   O m H , h m.sXMX.X|.=X7XhXy.@.q.v.-.w.!.>XyXvXvXcXtXrXS.,.7.NXNXNXNXNXNXNXNXNXNXNXNXNX",
"NXNXNXNXNXNXNXNXNXNXNXNXNXNXNXNX@ @ & * X , H K $ c M.$XlXpX<XhXhX7XD v NXNX5.5.5.5./.tXvXvXvXvXtXS.@.=.NXNXNXNXNXNXNXNXNXNXNXNX",
"NXNXNXNXNXNXNXNXNXNXNXNXNXNXNXNXNXNXNX% # r H K 2 c M.M.7XhXhXhX7XN.v h NXNXNXNXw.-.q./.tXvXvXmXcXeX~.@.:.NXNXNXNXNXNXNXNXNXNXNX",
"NXNXNXNXNXNXNXNXNXNXNXNXNXNXNXNXNXNX2 * # m K K 2 c M.M.7XhXhXhX7XD E NXNXNXNXNXNXNXNXv.Q.tXvXmXmXcXeXI.@.=.NXNXNXNXNXNXNXNXNXNX",
"NXNXNXNXNXNXNXNXNXNXNXNXNXNXNXNXNX5 P 8 2 m K K P D l c 7XhX7XN.' ' NXNXNXNXNXNXNXNXNXNXY.Q.tXvXmXmXcXeX~.,.2.NXNXNXNXNXNXNXNXNX",
"NXNXNXNXNXNXNXNXNXNXNXNXNXNXNXNXNX+ [ J 8 r K W F.` 0 0 f.m.f.c % A NXNXNXNXNXNXNXNXNXNXNXY.Q.yXcXmXmXcXwX>.2.NXNXNXNXNXNXNXNXNX",
"NXNXNXNXNXNXNXNXNXNXNXNXNXNXNXNXNX# V.! r r G H C.'.F.H % . . $ % %   + NXNXNXNXNXNXNXNXNXNXe.^.yXvXmXcXrX4.@.;.NXNXNXNXNXNXNXNX",
"NXNXNXNXNXNXNXNXNXNXNXNXNXNXNXNXNX# V.).~ r m n [ '.F.! G r r K { G.y * # NXNXNXNXNXNXNXNXNXNXw.^.tXvXmXxXwXa.,.NXNXNXNXNXNXNXNX",
"NXNXNXNXNXNXNXNXNXNXNXNXNXNXNXNXNX. C._.).Z.V.C.).'.F.~ W H n M ` H.r O 6 , % . NXNXNXNXNXNXNXNXv.Q.tXcXvXrXD.1.NXNXNXNXNXNXNXNX",
"NXNXNXNXNXNXNXNXNXNXNXNXNXNXNXNXNXy L ] B.C.'.'.'.'.).[ ~ W M r Q H.t # 4 , $ . O 5 e 5 7 NXNXNXY.W.Q.tXbXxXD.1.NXNXNXNXNXNXNXNX",
"NXNXNXNXNXNXNXNXNXNXNXNXNXNXNXNXNXNX, G ] ] _.'.'.'.'.).K F m q H H.t # 8 8 8 $ . O * 7 : h NXNXNXU.6.Q.nXmXb.2.NXNXNXNXNXNXNXNX",
"NXNXNXNXNXNXNXNXNXNXNXNXNXNXNXNXNXNXO ` ] A._._.).'.'.).n 8 8 0 F ] 0 . 4 4 4 4 4 4 e x.M.u.i o.c.b.5.q.zXmX{.1.NXNXNXNXNXNXNXNX",
"NXNXNXNXNXNXNXNXNXNXNXNXNXNXNXNXNXNXNX8 K H.H.] ( C._.H.N q q F ] 6 #           . . 0 x.M.M.y.;.z ].%Xq.0XbXP.1.NXNXNXNXNXNXNXNX",
"NXNXNXNXNXNXNXNXNXNXNXNXNXNXNXNXNXNXNXNXr 4 r [ ] ( B._.G.B.B.[ ^ O # NXNXNXNXNXX   . : u.u.z =.y.E x 8.0XE.;.,.NXNXNXNXNXNXNXNX",
"NXNXNXNXNXNXNXNXNXNXNXNXNXNXNXNXNXNXNXNXNX< $ 3.) ^ A._.'.G./ M 8 4 NXNXNXNXNXNXNXNX.   : c x ;.%.: i -.c.2.0.NXNXNXNXNXNXNXNXNX",
"NXNXNXNXNXNXNXNXNXNXNXNXNXNXNXNXNXNXNXNXNX9 @ <.1.V ) p.p.) w O # NXNXNXNXNXNXNXNXNXNXNX  NXNX:.g - u &.o.7.NXNXNXNXNXNXNXNXNXNX",
"NXNXNXNXNXNXNXNXNXNXNXNXNXNXNXNXNXNXNXNXt # - g >.........>.d , NXNXNXNXNXNXNXNXNXNXNXNXNXNXNX5.NXNXNX-.-.NXNXNXNXNXNXNXNXNXNXNX",
"NXNXNXNXNXNXNXNXNXNXNXNXNXNXNXNXNXNXNXr J ] W Q B.a.6.6.6.6.3.M # NXNXNXNXNXNXNXNXNXNXNXNXNXNX5.NXNXNX-.NXNXNXNXNXNXNXNXNXNXNXNX",
"NXNXNXNXNXNXNXNXNXNXNXNXNXNXNXNXNX, 5 $ G _.C.( H.K.J.J.D.J.G.M + NXNXNXNXNXNXNXNXNXNXNXNXNX5.*.NXNXNXNXNXNXNXNXNXNXNXNXNXNXNXNX",
"NXNXNXNXNXNXNXNXNXNXNXNXNXNXNXNXe , 4 6 J B.B.B.C.H.'.'._.'.B.W L M NXNXNXNXNXNXNXNXNXNXNXNX-.-.NXNXNXNXNXNXNXNXNXNXNXNXNXNXNXNX",
"NXNXNXNXNXNXNXNXNXNXNXNXNXNXNX8 O 8 H W W W ~ [ ] C.'.'.'.).V.B.C.% t NXNXNXNXNXNXNXNXNXNXv.8.NXNXNXNXNXNXNXNXNXNXNXNXNXNXNXNXNX",
"NXNXNXNXNXNXNXNXNXNXNXNXNXNX5 O # q H W W W H t ] ).'.'.).B.C._.G.2 # X . NXNXNXNXNXNXNX9.8.NXNXNXNXNXNXNXNXNXNXNXNXNXNXNXNXNXNX",
"NXNXNXNXNXNXNXNXNXNXNXNXNX$ n m q H W W W W H q r ` '._.A.C.).H./ G q $ . . NXNXNXNXNX8.O.o.NXNXNXNXNXNXNXNXNXNXNXNXNXNXNXNXNXNX",
"NXNXNXNXNXNXNXNXNXNXNXNXNXO n n m K W W W H n M r ~ '.'.F.J G ( W W J M m m 6 NXNXNX8.o.o.NXNXNXNXNXNXNXNXNXNXNXNXNXNXNXNXNXNXNX",
"NXNXNXNXNXNXNXNXNXNXNXNXNX# n M m H W W G n n 8 , r J L J % 4 K W W W W W H 8 8 C n.+.o.NXNXNXNXNXNXNXNXNXNXNXNXNXNXNXNXNXNXNXNX",
"NXNXNXNXNXNXNXNXNXNXNXNXNX8 n n m F G G m m n O O O # % . X 4 G G K W W W Q U s p O.o.NXNXNXNXNXNXNXNXNXNXNXNXNXNXNXNXNXNXNXNXNX",
"NXNXNXNXNXNXNXNXNXNXNXNX$ n m q q q 8 8 8 4 4   NXNXNXNX. , 8 8 q G W W Q V +.&.+.} NXNXNXNXNXNXNXNXNXNXNXNXNXNXNXNXNXNXNXNXNXNX",
"NXNXNXNXNXNXNXNXNXNXNXM # 8 F G n 8 8 8 ,     NXNXNXNXNXX 0 M 8 9 q M 1.=.+.o.| @.NXNXNXNXNXNXNXNXNXNXNXNXNXNXNXNXNXNXNXNXNXNXNX",
"NXNXNXNXNXNXNXNXNXNXNXP (.t m m 8 # #   # NXNXNXNXNXNXNX* r C @.....@.@.o. .s ; i NXNXNXNXNXNXNXNXNXNXNXNXNXNXNXNXNXNXNXNXNXNXNX",
"NXNXNXNXNXNXNXNXNXNXZ D aX`.V.S 5 , . NXNXNXNXNXNX$.%.t.s s X.O.O.O.o.f u i - @ NXNXNXNXNXNXNXNXNXNXNXNXNXNXNXNXNXNXNXNXNXNXNXNX",
"NXNXNXNXNXNXNXNXNXNXZ I MXMXpX` t NXNXNXNXNXNXNXf X.X.p $.$.f p f f j 8 4 o   NXNXNXNXNXNXNXNXNXNXNXNXNXNXNXNXNXNXNXNXNXNXNXNXNX",
"NXNXNXNXNXNXNXNXNXNXI _ MXpXP { NXNXNXNXNXNXNXNXNXNXY t (.[./ - N N G 9 + NXNXNXNXNXNXNXNXNXNXNXNXNXNXNXNXNXNXNXNXNXNXNXNXNXNXNX",
"NXNXNXNXNXNXNXNXNXt _ XXpXI { NXNXNXNXNXNXNXNXNXNXNXZ `.oXP P NXX     + NXNXNXNXNXNXNXNXNXNXNXNXNXNXNXNXNXNXNXNXNXNXNXNXNXNXNXNX",
"NXNXNXNXNXNXNXNXNX6 _ XXoX5 NXNXNXNXNXNXNXNXNXNXNXZ 5 `._ P NXNXNXNXNXNXNXNXNXNXNXNXNXNXNXNXNXNXNXNXNXNXNXNXNXNXNXNXNXNXNXNXNXNX",
"NXNXNXNXNXNXNXNXP ` [. X` S NXNXNXNXNXNXNXNXNXNXNXP I _ S NXNXNXNXNXNXNXNXNXNXNXNXNXNXNXNXNXNXNXNXNXNXNXNXNXNXNXNXNXNXNXNXNXNXNX",
"NXNXNXNXNXNXNXNX2 XXaX`.I NXNXNXNXNXNXNXNXNXNXNX2 Z { e NXNXNXNXNXNXNXNXNXNXNXNXNXNXNXNXNXNXNXNXNXNXNXNXNXNXNXNXNXNXNXNXNXNXNXNX",
"NXNXNXNXNXNXNXNX=  X{ ` NXNXNXNXNXNXNXNXNXNXNXNX    2 NXNXNXNXNXNXNXNXNXNXNXNXNXNXNXNXNXNXNXNXNXNXNXNXNXNXNXNXNXNXNXNXNXNXNXNXNX",
"NXNXNXNXNXNXNXNX  # S NXNXNXNXNXNXNXNXNXNXNXNXNXNXNXNXNXNXNXNXNXNXNXNXNXNXNXNXNXNXNXNXNXNXNXNXNXNXNXNXNXNXNXNXNXNXNXNXNXNXNXNXNX",
"NXNXNXNXNXNXNXNXNXNXNXNXNXNXNXNXNXNXNXNXNXNXNXNXNXNXNXNXNXNXNXNXNXNXNXNXNXNXNXNXNXNXNXNXNXNXNXNXNXNXNXNXNXNXNXNXNXNXNXNXNXNXNXNX",
"NXNXNXNXNXNXNXNXNXNXNXNXNXNXNXNXNXNXNXNXNXNXNXNXNXNXNXNXNXNXNXNXNXNXNXNXNXNXNXNXNXNXNXNXNXNXNXNXNXNXNXNXNXNXNXNXNXNXNXNXNXNXNXNX"
};
