/* XPM */
static char *result[] = {
/* columns rows colors chars-per-pixel */
"64 64 237 2 ",
"   c #020102",
".  c #0B0A0C",
"X  c #0C0708",
"o  c #15090B",
"O  c #0E0B13",
"+  c #130D14",
"@  c #141214",
"#  c #16151A",
"$  c #1B1B1D",
"%  c #1B1517",
"&  c #280A15",
"*  c #231D1E",
"=  c #2B1A1D",
"-  c #251417",
";  c #350A13",
":  c #28211E",
">  c #1D1C22",
",  c #251E22",
"<  c #331E22",
"1  c #1E2121",
"2  c #242225",
"3  c #24232B",
"4  c #2C292C",
"5  c #292628",
"6  c #362A2B",
"7  c #2C2A33",
"8  c #292730",
"9  c #312F39",
"0  c #322D35",
"q  c #333234",
"w  c #34313C",
"e  c #3C3B3D",
"r  c #3D3535",
"t  c #6E1328",
"y  c #45373A",
"u  c #59383C",
"i  c #4C2C30",
"p  c #6F373A",
"a  c #4D1F3E",
"s  c #6A473B",
"d  c #4B403F",
"f  c #3A3643",
"g  c #3B3944",
"h  c #423D4C",
"j  c #473A43",
"k  c #573E42",
"l  c #663B42",
"z  c #3D4343",
"x  c #454649",
"c  c #564747",
"v  c #4A4455",
"b  c #4D4758",
"n  c #4D495A",
"m  c #494452",
"M  c #524C5D",
"N  c #575559",
"B  c #68464A",
"V  c #73474A",
"C  c #794B52",
"Z  c #675855",
"A  c #795558",
"S  c #6C504F",
"D  c #544D60",
"F  c #5C5666",
"G  c #5C5B74",
"H  c #4F4D60",
"J  c #6A5C6C",
"K  c #5A6164",
"L  c #676A6D",
"P  c #796765",
"I  c #6B6573",
"U  c #686576",
"Y  c #726A7B",
"T  c #687272",
"R  c #77757F",
"E  c #70605F",
"W  c #90021D",
"Q  c #940626",
"!  c #8C183C",
"~  c #951436",
"^  c #910C2E",
"/  c #A20424",
"(  c #B70329",
")  c #A80E33",
"_  c #BB0933",
"`  c #A81537",
"'  c #B71437",
"]  c #AA102F",
"[  c #B1213D",
"{  c #C1001C",
"}  c #C10028",
"|  c #CB012B",
" . c #D90837",
".. c #C7153C",
"X. c #D5133D",
"o. c #D10531",
"O. c #961D46",
"+. c #AA1346",
"@. c #992944",
"#. c #9D2959",
"$. c #A82657",
"%. c #B4304B",
"&. c #AB346C",
"*. c #853D75",
"=. c #DA1845",
"-. c #CD0E49",
";. c #C9284C",
":. c #D7264D",
">. c #D62A53",
",. c #D33356",
"<. c #E12C56",
"1. c #E1325B",
"2. c #D63975",
"3. c #E33962",
"4. c #88565C",
"5. c #885753",
"6. c #896051",
"7. c #865B63",
"8. c #9B5E67",
"9. c #915872",
"0. c #B14A6C",
"q. c #9A636A",
"w. c #91716D",
"e. c #A7656E",
"r. c #B67A67",
"t. c #A96A74",
"y. c #B56C78",
"u. c #AB747A",
"i. c #B5747D",
"p. c #AC7466",
"a. c #E24977",
"s. c #E34369",
"d. c #C1727E",
"f. c #C34B64",
"g. c #9A8477",
"h. c #B88376",
"j. c #A1887A",
"k. c #C78573",
"l. c #D18C78",
"z. c #736D82",
"x. c #767187",
"c. c #7B7588",
"v. c #6F6B80",
"b. c #DB3E8A",
"n. c #B4488B",
"m. c #B74E94",
"M. c #857B8C",
"N. c #867F92",
"B. c #90768C",
"V. c #B47C83",
"C. c #AC6A87",
"Z. c #BB57A5",
"A. c #A56097",
"S. c #DC4898",
"D. c #E45B8C",
"F. c #CA7985",
"G. c #D47C8A",
"H. c #D87493",
"J. c #E86790",
"K. c #C269AA",
"L. c #E369AE",
"P. c #CE77D6",
"I. c #D06EC3",
"U. c #E172C5",
"Y. c #DC7AE0",
"T. c #758081",
"R. c #8A8294",
"E. c #8E8699",
"W. c #948B9D",
"Q. c #998E9B",
"!. c #8B9899",
"~. c #8E8D90",
"^. c #BB8687",
"/. c #B6998A",
"(. c #BD8C91",
"). c #AF9494",
"_. c #9BAAAB",
"`. c #AAADAE",
"'. c #A89DAA",
"]. c #DA838E",
"[. c #CA8992",
"{. c #DA8895",
"}. c #C7969A",
"|. c #C59288",
" X c #EA8999",
".X c #E68998",
"XX c #E7939D",
"oX c #E38A8D",
"OX c #D1AA95",
"+X c #E4AB96",
"@X c #CD9EA1",
"#X c #D898AC",
"$X c #EB95A2",
"%X c #ED9EA8",
"&X c #EA9AA4",
"*X c #E496B6",
"=X c #C9AAA9",
"-X c #D6A9AA",
";X c #D7B5B4",
":X c #D4B3A8",
">X c #EAA4AB",
",X c #E8AAB1",
"<X c #F0ADB4",
"1X c #E5B9BA",
"2X c #F2BABE",
"3X c #F2B7BA",
"4X c #E3BAAB",
"5X c #EAC7B6",
"6X c #F2CAB4",
"7X c #D586DB",
"8X c #D994D4",
"9X c #EB91CB",
"0X c #F3BEC1",
"qX c #F3AFD0",
"wX c #DA90E5",
"eX c #E39AED",
"rX c #E8AAFD",
"tX c #EEB7F9",
"yX c #EAAFE7",
"uX c #D2D1D4",
"iX c #ECC7C5",
"pX c #F3C4C6",
"aX c #F4CCCB",
"sX c #F4C9C7",
"dX c #FDDBC5",
"fX c #F7D3CA",
"gX c #F7D3D1",
"hX c #E6D3D0",
"jX c #FCE6D7",
"kX c #F2C2FC",
"lX c #F6CBFA",
"zX c #FDDCFB",
"xX c #F9D4FA",
"cX c #F5C2E7",
"vX c #FFE0FB",
"bX c #EEECEC",
"nX c None",
/* pixels */
"nXnXnXnXnXnXnXnXnXnXnXnXnXnXnXnXnXnXnXnXnXnXnXnXnXnXnXnXnXnXnXnXnXnXnXnXnXnXnXnXnXnXnXnXnXnXnXnXnXnXnXnXnXnXnXnXnXnXnXnXnXnXnXnX",
"nXnXnXnXnXnXnXnXnXnXnXnXnXnXnXnXnXnXnXnXnXnXnXnXnXnXnXnXnXnXnXnXnXnXnXnXnXnXZ c % X nXnXnXnXnXnXnX: : nXnXnXnXnXnXnXnXnXnXnXnXnX",
"nXnXnXnXnXnXnXnXnXnXnXnXnXnXnXnXnXnXnXnXnXnXnXnXnXnXnXy 5 nXnXnXnXnXnXnXN q x =XS 4 nXnXnXnXnXnXr + $ nXnXnXnXnXnXnXnXnXnXnXnXnX",
"nXnXnXnXnXnXnXnXnXnXnXnXnXnXnXnXnXnXnXnXnXnXnXnXnXnXnXx 0 nXnXnXnXnXnXc w.;X;XsXN y nXnXnXc 2 d ).c 4 nXnXnXnXnXnXnXnXnXnXnXnXnX",
"nXnXnXnXnXnXnXnXnXnXnXnXnXnXnXnXnXnXnXnXnXnXnXnXnXnXy A 7.y nXnXnXnXd ~.;XgXiX,Xk > 0 q q A t.}.iXZ r nXnXnXnXnXnXnXnXnXnXnXnXnX",
"nXnXnXnXnXnXnXnXnXnXnXnXnXnXnXnXnXnXnXnXnXnXnXnXnXnX= V F.C k nXnXB A -XgXiX}.F.V c P P C C.0XgXfXN r nXnXnXnXnXnXnXnXnXnXnXnXnX",
"nXnXnXnXnXnXnXnXnXnXnXnXnXnXnXnXnXnXnXnXnXnXnXnXnXnX* V  XG.p B c < {.pXiX@Xu.V.V.@XaXpX&X<XgXgXfXN r nXnXnXnXnXnXnXnXnXnXnXnXnX",
"nXnXnXnXnXnXnXnXnXnXnXnXnXnXnXnXnXnXnXnXnXnXnXnXnXnX5 l G.G.F.l % 6 ;XaX@XV.&X1XaXsXpX%X X<XgXgXaXS r nXnXnXnXnXnXnXnXnXnXnXnXnX",
"nXnXnXnXnXnXnXnXnXnXnXnXnXnXnXnXnXnXnXnXnXnXnXnX+ > O # i q.e.7.C w.1X,X,X0XaXgXgX0X%X0X%X<XgXaX>Xu y nX6 nXnXnXnXnXnXnXnXnXnXnX",
"nXnXnXnXnXnXnXnXnXnXnXnXnXnXnXnXnXnXnXnXnXnXnXnX4 , Z w.).@X@X[.y.t.&X$X<XgXgXgX3X<X3XaX%X<XgXaXXXu 5 r @ nXnXnXnXnXnXnXnXnXnXnX",
"nXnXnXnXnXnXnXnXnXnXnXnXnXnXnXnXnXnXnXnXnXnXnXnXr 1 E =XgXgXgX3X[.e.].%X0XgXgX0X>X0XgXaX%X<XgXaXXXu * d $ nXnXnXnXnXnXnXnXnXnXnX",
"nXnXnXnXnXnXnXnXnXnXnXnXnXnXnXnXnXnXnXnXnXnXnXy = - < P ;XpXgXgX-XV. X0XgXgX0X$X0XgXgXpX%X>XaX0X.XV P =X4 y nXnXnXnXnXnXnXnXnXnX",
"nXnXnXnXnXnXnXnXnXnXnXnXnXnXnXnXnXnXnXnXnXnX6 i e.F.d.V u {.sXgXaX1X$X0XaX0X$X X<XgXaX$X X X X{.u.}.iX=X= t ^ ^ Q W @.nXnXnXnXnX",
"nXnXnXnXnXnXnXnXnXnXnXnXnXnXnXnXnXnXnXnXnX< 6 nXnX{.A % < t.XXiXgXpX$X$X%X$X X X0XgXpX$X XF.t.t.F.1XgX=X= W { } ( ( [ ^ nXnXnXnX",
"nXnXnXnXnXnXnXnXnXnXnXnXnXnXnXnXnXnXnXnXnXnXnXnXnXP A V C 8.y.[.@X}. X X&X<X>XF.,XpX>XF.F.e.t.@X,XpXpX}.5 p ,.1.,.,.f.] nXnXnXnX",
"nXnXnXnXnXnXnXnXnXnXnXnXnXnXnXnXnXnXnXnXnXnXnXnXnXi y. X].q.u.V.V.V.G.$X0XgXiX(.@X#X].e.e.u.(.gXgXsX@X8.i nXnXnXnXnXnXnXnXnXnXnX",
"nXnXnXnXnXnXnXnXnXnXnXnXnXnXnXnXnXnXnXnXnXnXnXy - e.F.F.d.y.1XsXaX;Xi.-XsXaXgXiX(.V.{.u.F.>XaXgXsX&X4.5 nXnXnXnXnXnXnXnXnXnXnXnX",
"nXnXnXnXnXnXnXnXnXnXnXnXnXnXnXnXnXnXnXnXnXnXnX    & = = u ].pXgXgX0Xt.{.$X,XaXgX(.(.0X1XV.@XgXaX%XC % X % % o nXnXnXnXnXnXnXnXnX",
"nXnXnXnXnXnXnXnXnXnXnXnXnXnXnXnXnXnXnXnXnXnXnXnXnXnX6 6 y ,XaXfXpX#Xk.l.oX%XgXgX(.(.hXaXV.u.(.(.d.8.4.4.5.& % nXnXnXnXnXnXnXnXnX",
"nXnXnXnXnXnXnXnXnXnXnXnXnXnXnXnXnXnXnXnXnXnXnXnXnXnXnXc 7.iXgX`./.>X+X+XXX%XsX;XF.[.0XiXV.e.y.y.y.G. XH.8.i nXnXnXnXnXnXnXnXnXnX",
"nXnXnXnXnXnXnXnXnXnXnXnXnXnXnXnXnXnXnXnXnXnXnXnXnXnX= C ,XiX:XE w.6XdXdX3X>X4Xr.F.oX$XiXt.t. X XG.G.F.e.i nXnXnXnXnXnXnXnXnXnXnX",
"nXnXnXnXnXnXnXnXnXnXnXnXnXnXnXnXnXnXnXnXnXnXnXnXnXnX5 P sX:Xc g.5XdXdXdXfX-Xu.d.l.].$X;Xk 5.G.].y.e.V i nXnXnXnXnXnXnXnXnXnXnXnX",
"nXnXnXnXnXnXnXnXnXnXnXnXnXnXnXnXnXnXnXnXnXnXnXnXnX[ < P =Xc 6.OXdXdXdXdX:Xu.8.p.d.OX-XS 6.s u e.8.u u nXnXnXnXnXnXnXnXnXnXnXnXnX",
"nXnXnXnXnXnXnXnXnXnXnXnXnXnXnXnXnXnXnXnXnXnXnXnX:.] ; r C t s |.dXdXdX6Xk.q.B.6.r.h.P V r.s < y.y.4.C k nXnXnXnXnXnXnXnXnXnXnXnX",
"nXnXnXnXnXnXnXnXnXnXnXnXnXnXnXnXnXnXnXnXnXnXnX,._ O.& & t %.& g.dX6X5Xl.h.'.Q.7.p.6.i k.l.s = 8.e.e.B . o nXnXnXnXnXnXnXnXnXnXnX",
"nXnXnXnXnXnXnXnXnXnXnXnXnXnXnXnXnXnXnXnXnXnX>.' @.K.a t ` nX- g.dX6Xh.u.=XuXQ.7.r.p.s r.k.s @ % = * o @ nXnXnXnXnXnXnXnXnXnXnXnX",
"nXnXnXnXnXnXnXnXnXnXnXnXnXnXnXnXnXnXnXnXnX:.' 0.*X1._ ` nXnXo 6.4X6X6XhXbXhXQ.h.k.p.B < - c L H Y R m . # +   . nXnXnXnXnXnXnXnX",
"nXnXnXnXnXnXnXnXnXnXnXnXnXnXnXnXnXnXnXnX,.' f.H.a.=.>.nXnXnXnXi w.dXjXjXjXhX|.l.r.C y 2 d K z.c.Y b 2 X 7 0 3 > 7 q 2 nXnXnXnXnX",
"nXnXnXnXnXnXnXnXnXnXnXnXnXnXnXnXnXnXnX,.' 0.*XL. .<.nXnXnXnXnXnXZ /.6XdXdX6XOXh.C y w M z.c.c.R.F , * c e v m w > , > . nXnXnXnX",
"nXnXnXnXnXnXnXnXnXnXnXnXnXnXnXnXnXnX..( ~ 0XeXS.<.nXnXnXnXnXnXnXc 4 /.:X4X5X:X6.j w x M.v.c.W.R.M $ N OX1 q h h h H H O nXnXnXnX",
"nXnXnXnXnXnXnXnXnXnXnXnXnXnXnXnXnXnX%.W @.qXJ.X.=.nXnXnXnXnXnX< . . 2 * k 4.A e h M F R.E.W.~.c.q @ Z OX: @ O + f n M O nXnXnXnX",
"nXnXnXnXnXnXnXnXnXnXnXnXnXnXnXnXnX>.[ @.#XeXS.,.nXnXnXnXnXnXnX2 5 L L q 4 y y x b U N.W.W.W.R d g./.|.OX/.p.i O f h 9 O nXnXnXnX",
"nXnXnXnXnXnXnXnXnXnXnXnXnXnXnXnXnX..$.K.yXL.<.<.nXnXnXnXnXnXe 4 4 N R.U n f 9 v D I N.W.W.N.F , :X).w.p.h.l.s . # 4 2 nXnXnXnXnX",
"nXnXnXnXnXnXnXnXnXnXnXnXnXnXnXnX| / n.rXyX<.=.nXnXnXnXnXnXnX# > $ $ x.c.x.N w v D I W.B.N.c.h , w.P d k s h.S @ .   nXnXnXnXnXnX",
"nXnXnXnXnXnXnXnXnXnXnXnXnXnXnXnXo.) Z.rXyX<.s.nXnXnXnXnXnX@ 3 7 > # n G x.Y h D G v.B.v.v.x.v.# @ Z nXX % j.Z * nXnXnXnXnXnXnXnX",
"nXnXnXnXnXnXnXnXnXnXnXnXnXnXnX| ) Z.yXtX9X<.s.nXnXnXnXy # 3 8 8 3 > > U x.Y c.R.N.N.N.G G v.N.U   nXnXnX  o o   nXnXnXnXnXnXnXnX",
"nXnXnXnXnXnXnXnXnXnXnXnXnXnXnX| ^ I.tXqXa.=.<.nXnXnXy 4 > 8 7 > + . 8 9 7 f v.E.E.A.2.&.&.&.&.j y nXnXnXnXnXnXnXnXnXnXnXnXnXnXnX",
"nXnXnXnXnXnXnXnXnXnXnXnXnXnX>._ &.8XlX9X . .<.nXnXnX> 1 7 8 > > . nXnXnX> q h J 9.&.+.-.-.-.^ & nXnXnXnXnXnXnXnXnXnXnXnXnXnXnXnX",
"nXnXnXnXnXnXnXnXnXnXnXnXnXX.( O.7XlXxX9X . .3.nXnX@ 3 7 8 3   nXnXnXnXnXnXf & ^ +.^ ^ ! O.! t & nXnXnXnXnXnXnXnXnXnXnXnXnXnXnXnX",
"nXnXnXnXnXnXnXnXnXnXnXnXnX:.( @.wXlXkXL. . .=.~ > 3 8 8 3   nXnXnXnXnX, + + & +.-.$.G B.B.B.c.H + nXnXnXnXnXnXnXnXnXnXnXnXnXnXnX",
"nXnXnXnXnXnXnXnXnXnXnXnX=.' $.P.tXxXtXI.-. .b.*.. 3 # . . nXnXnXnXnX5 F I I I C.C.A.G R.W.W.W.x.@ nXnXnXnXnXnXnXnXnXnXnXnXnXnXnX",
"nXnXnXnXnXnXnXnXnXnXnXnXo./ &.eXxXvXtXY.S.S.9XB.  # ; ; nXnXnXnXnX4 % I M.z.Y z.N.N.x.x.E.W.W.c.$ nXnXnXnXnXnXnXnXnXnXnXnXnXnXnX",
"nXnXnXnXnXnXnXnXnXnXnXnX ./ &.rXzXvXkXrXrXrXtX'.g 9 t t nXnXnXnXq . $ I U D D D U M.R.v.R.W.W.R.g e nXnXnXnXnXnXnXnXnXnXnXnXnXnX",
"nXnXnXnXnXnXnXnXnXnXnXnXX.) C.zXvXvXzXxXxXzXzXxXyXI.O.@.nXnX% O 3 9 m M D D D D g N R.E.W.E.R.M.x.4 2 nXnXnXnXnXnXnXnXnXnXnXnXnX",
"nXnXnXnXnXnXnXnXnXnXnXX.) n.8XvXvXvXvXvXzXvXvXkX7X$._ ,.nX- g h m b D D D D D D g w b R.W.c.H , @     nXnXnXnXnXnXnXnXnXnXnXnXnX",
"nXnXnXnXnXnXnXnXnXnXnXo.W Z.tXvXvXvXvXvXzXzXvXkXP.~ ( ,.nX+ h D D D D D D b g f 9 7 w n N g 7 nXnXnXnXnXnXnXnXnXnXnXnXnXnXnXnXnX",
"nXnXnXnXnXnXnXnXnXnXnX .W K.kXzXvXvXvXvXvXvXlXwXn.` ;.&.S , v D D D D D b h f f 8 > > > > # nXnXnXnXnXnXnXnXnXnXnXnXnXnXnXnXnXnX",
"nXnXnXnXnXnXnXnXnXnXnXX.O.#XvXvXvXvXvXvXvXxXeXm.] ;.f.B > f n D D D M b g w v h >   X     nXnXnXnXnXnXnXnXnXnXnXnXnXnXnXnXnXnXnX",
"nXnXnXnXnXnXnXnXnXnXa.>.U.tXzXvXvXvXvXzXxXeX0.+.-.nXi w g w n D H H n f 7 7 3 # > $   nXnXnXnXnXnXnXnXnXnXnXnXnXnXnXnXnXnXnXnXnX",
"nXnXnXnXnXnXnXnXnXJ.a.U.tXxXvXvXvXvXvXxXeX&.' ;.nXnX- 8 v w v D H n f 8 f f # > 3 $   nXnXnXnXnXnXnXnXnXnXnXnXnXnXnXnXnXnXnXnXnX",
"nXnXnXnXnXnXnXnXJ.D.L.tXxXvXvXvXvXvXxX8Xn.` ;.nXnXnXo 8 n h x g g g f f g 9 . > 7 >   nXnXnXnXnXnXnXnXnXnXnXnXnXnXnXnXnXnXnXnXnX",
"nXnXnXnXnXnXnXJ.a.L.rXzXvXvXvXzXlXxXwXm.~ -.nXnXnXnXnX, h v 9 7 7 9 f z f > . 3 7 > @ nXnXnXnXnXnXnXnXnXnXnXnXnXnXnXnXnXnXnXnXnX",
"nXnXnXnX=.1.1.3.U.tXzXvXvXxXzXlXwX7Xn.] ..nXnXnXnXnXnX0 > h w w 9 f h f 7 > . 3 7 7 w # nXnXnXnXnXnXnXnXnXnXnXnXnXnXnXnXnXnXnXnX",
"nXnXnXnXqXqXqXqXcXzXvXzXzXtXeX7X#.! ) -.nXnXnXnXnXnXnXnX  9 x b b n n f 7 > . 3 7 N !.T.z @ 1 nXnXnXnXnXnXnXnXnXnXnXnXnXnXnXnXnX",
"nXnXnXnXrXlXzXvXvXvXxXtXrXK.&.&._ ( ' nXnXnXnXnXnXnXnXnX# # f R.`.!.9 # # # > 8 7 K `._.T.K K x e 1 nXnXnXnXnXnXnXnXnXnXnXnXnXnX",
"nXnXnXnXZ.7XtXkXkXkXeXZ.Z.$./ ` ;.o.nXnXnXnXnXnXnXnXnXnXnX# 8 Q.bX;X> . O # 8 7 1 z T T.T !.!.x z # . nXnXnXnXnXnXnXnXnXnXnXnXnX",
"nXnXnXnXW &.P.P.P.P.Z.Q Q ;.o.} nXnXnXnXnXnXnXnXnXnXnXnXnXnX1 ~.uX`.e 3 2 2 3 3 $ . # 1 1 K !._._.z 1 nXnXnXnXnXnXnXnXnXnXnXnXnX",
"nXnXnXnX{ ' ~ ~ ~ ~ ) ..{ ..nXnXnXnXnXnXnXnXnXnXnXnXnXnXnXnX# T T.z T >         nXnXnXnXnXz z _.`.x 4 nXnXnXnXnXnXnXnXnXnXnXnXnX",
"nXnXnXnXnX:.( } ( } ..nXnXnXnXnXnXnXnXnXnXnXnXnXnXnXnXnXnXnX# T T 2 nXnXnXnXnXnXnXnXnXnXnXnXx x !.z 4 nXnXnXnXnXnXnXnXnXnXnXnXnX",
"nXnXnXnXnXnXX.=.=.X.nXnXnXnXnXnXnXnXnXnXnXnXnXnXnXnXnXnXnXq q N G $ nXnXnXnXnXnXnXnXnXnXnXnXnXz K 3 1 nXnXnXnXnXnXnXnXnXnXnXnXnX",
"nXnXnXnXnXnXnXnXnXnXnXnXnXnXnXnXnXnXnXnXnXnXnXnXnXnXnXnXnX@ nXnXx . nXnXnXnXnXnXnXnXnXnXnXnXnXnX3 @ nXnXnXnXnXnXnXnXnXnXnXnXnXnX",
"nXnXnXnXnXnXnXnXnXnXnXnXnXnXnXnXnXnXnXnXnXnXnXnXnXnXnXnXnX  nXnXnX  nXnXnXnXnXnXnXnXnXnXnXnXnXnXnXnXnXnXnXnXnXnXnXnXnXnXnXnXnXnX",
"nXnXnXnXnXnXnXnXnXnXnXnXnXnXnXnXnXnXnXnXnXnXnXnXnXnXnXnXnXnXnXnXnXnXnXnXnXnXnXnXnXnXnXnXnXnXnXnXnXnXnXnXnXnXnXnXnXnXnXnXnXnXnXnX",
"nXnXnXnXnXnXnXnXnXnXnXnXnXnXnXnXnXnXnXnXnXnXnXnXnXnXnXnXnXnXnXnXnXnXnXnXnXnXnXnXnXnXnXnXnXnXnXnXnXnXnXnXnXnXnXnXnXnXnXnXnXnXnXnX"
};
