/* XPM */
static char *_[] = {
/* columns rows colors chars-per-pixel */
"41 53 194 2 ",
"   c #000000",
".  c #0C0101",
"X  c #0D0A0A",
"o  c #150001",
"O  c #1C0001",
"+  c #190609",
"@  c #161213",
"#  c #250104",
"$  c #2A0004",
"%  c #220408",
"&  c #2A040A",
"*  c #330004",
"=  c #3A0005",
"-  c #35030A",
";  c #3B020A",
":  c #221D1D",
">  c #2F1515",
",  c #3C1716",
"<  c #292526",
"1  c #342A28",
"2  c #373131",
"3  c #450103",
"4  c #4B0004",
"5  c #540002",
"6  c #5B0002",
"7  c #58050C",
"8  c #490A12",
"9  c #471C1D",
"0  c #5B131B",
"q  c #531D1C",
"w  c #581619",
"e  c #630002",
"r  c #6C0002",
"t  c #64040A",
"y  c #6A0009",
"u  c #620A0A",
"i  c #740103",
"p  c #7B0004",
"a  c #75020A",
"s  c #7C010B",
"d  c #7A080D",
"f  c #610612",
"g  c #680B10",
"h  c #6E0917",
"j  c #7D0211",
"k  c #7C0D1E",
"l  c #7B0E16",
"z  c #631113",
"x  c #6C1719",
"c  c #6D1719",
"v  c #76131A",
"b  c #7B141B",
"n  c #7A171A",
"m  c #7F0E22",
"M  c #671221",
"N  c #6E1523",
"B  c #7D1225",
"V  c #741F21",
"C  c #7B1D23",
"Z  c #4F2F34",
"A  c #573F3F",
"S  c #742021",
"D  c #7D2324",
"F  c #752529",
"G  c #7A292C",
"H  c #653738",
"J  c #633532",
"K  c #7E3334",
"L  c #793738",
"P  c #59463E",
"I  c #4B4342",
"U  c #524543",
"Y  c #525B4D",
"T  c #5D5553",
"R  c #5E5D54",
"E  c #664744",
"W  c #714640",
"Q  c #744E56",
"!  c #6C5D54",
"~  c #645F56",
"^  c #7E5157",
"/  c #785C51",
"(  c #606054",
")  c #766158",
"_  c #79615A",
"`  c #6F6766",
"'  c #796F6E",
"]  c #7D6E66",
"[  c #830004",
"{  c #83010C",
"}  c #8A020D",
"|  c #850213",
" . c #8A0615",
".. c #820B14",
"X. c #8A0917",
"o. c #860519",
"O. c #8C071B",
"+. c #850A1C",
"@. c #8D091E",
"#. c #8A0A1A",
"$. c #90041A",
"%. c #84111D",
"&. c #800F22",
"*. c #820E22",
"=. c #850F23",
"-. c #880A21",
";. c #8F1621",
":. c #8C1D26",
">. c #8C2F2F",
",. c #882A2F",
"<. c #92292F",
"1. c #872F32",
"2. c #882F30",
"3. c #912F34",
"4. c #982D37",
"5. c #8C3237",
"6. c #8A3239",
"7. c #863638",
"8. c #903239",
"9. c #893C41",
"0. c #9C3F49",
"q. c #983A44",
"w. c #8B4244",
"e. c #984C53",
"r. c #8A5354",
"t. c #94595C",
"y. c #9B595D",
"u. c #945457",
"i. c #A2535C",
"p. c #9F5960",
"a. c #A05960",
"s. c #956164",
"d. c #97686A",
"f. c #99666B",
"g. c #9C7275",
"h. c #A9606A",
"j. c #AC6F78",
"k. c #A66A71",
"l. c #A17174",
"z. c #A67E81",
"x. c #8E8987",
"c. c #8F8C8A",
"v. c #938E8A",
"b. c #9D8E85",
"n. c #9E9693",
"m. c #AB8B8F",
"M. c #A68689",
"N. c #B2868D",
"B. c #AC8F93",
"V. c #B48E93",
"C. c #B3959A",
"Z. c #B5999C",
"A. c #B8989E",
"S. c #BA949B",
"D. c #BE9EA4",
"F. c #ABA2A0",
"G. c #BBA5A9",
"H. c #BDAFA8",
"J. c #AEB0A9",
"K. c #B5B1A9",
"L. c #BEACB0",
"P. c #B3B7B0",
"I. c #BFB0B5",
"U. c #B5BEB2",
"Y. c #C2AFB4",
"T. c #C2B0B5",
"R. c #C3B4BA",
"E. c #C7BCBA",
"W. c #CCC1BC",
"Q. c #C8BDC2",
"!. c #CBC3C6",
"~. c #CDC9CE",
"^. c #CCC7CC",
"/. c #D2CFCF",
"(. c #CECBD0",
"). c #CFCED3",
"_. c #CECCD2",
"`. c #CFCFD4",
"'. c #CFCDD2",
"]. c #D0CFD4",
"[. c #D1D2D6",
"{. c #D1D1D6",
"}. c #DED8D7",
"|. c #D2D4D9",
" X c #D3DADF",
".X c #D4D9DE",
"XX c #DED3D5",
"oX c #E0DCD7",
"OX c #D6DCE1",
"+X c #EAEEEA",
"@X c #E8E3E0",
"#X c #F0EBE8",
"$X c #F2F6EE",
"%X c #FFFFFB",
/* pixels */
"    + w N B *.*.*.*.*.*.*.*.*.*.*.m m *.*.*.*.*.*.*.*.*.*.*.*.*.=.*.*.B M &       ",
"  o 0 +.-.@.@.@.@.@.@.O.O.O.O.O.O.O.O.O.O.O.O.O.O.O.O.O.O.O.O.O.O.O.@.+.=.h o     ",
"  % k @.@.@.@.#.#.#.#.#.#.#.#.#.#.#.#.#.#.#.#.#.#.#.#.#.#.#.#.#.#.#.@.o.+.+.&     ",
"  % k @.o.@.#.#.#.#.#.X.#.#.X.X.X.X.X.X.X.X.X.X.X.X.X.X.X.X.X.X.#.#.#.#.o.+.-     ",
"  # o.$.o.o.X.X.X.X.X.X.X. . . . . . . . . . . . . . . . . . . .#.#.#.o.o.@.-     ",
"  $ o.$.o. . . . . . . . . . . . . . .o.o.o. . . . . . . . . . . . . .o.o.o.-     ",
"  # |  .o.X.X. . . . . .X.X.X.X. .| { { { } }  . . . . . . . . .o. . . .o.@.-     ",
"  # |  . . . . . .| |  . .| [ { #.<.q.0.q.4.;.} [ }  .| o.o. . . . . .| | | *     ",
"  # j  . . .| | | | { | [ { 0.N.R.~._.{.`.(.!.D.h.;.[ | | |  . . . .| | | | *     ",
"  $ | |  . . .| | { { p :.S.|..X{.`._._._.].{..X.XQ.i.{ { {  .o. . .| | | | *     ",
"  $ | | { {  .| { { p ,.Q. X_._._._._._._._._._.(.{. Xj.{ { { | | | | | | | =     ",
"  $ | { { { { s s p ..T..X~._._._._._.{.`._._._._._._. Xi.p | { | | | | | | =     ",
"  $ j { { { { s s p k.OX~._._._._._.{.Q.(.{._._._._._.|.Q.%.s s s | | | | | =     ",
"  # s { { { { s s ..R.{._._._._._..XN.d q.~.]._._._._.(. Xp.i d s { | { { | =     ",
"  # s { { { { s p 8.{._._._._._._.{.9.i a A..X_._._._.(. XV.i s s s s { { | =     ",
"  # s { { { { j i e..X_._._._._.`._.6.a a V. X(._._._._.|.G.s s s s s s { | =     ",
"  # a { { { { d i a. X(.`.`.`._.`._.6.a a V. X_._._._._.|.T.d p s s s s s | =     ",
"  # a s s s s d i a. X(.`.`.`.`.`._.6.a a V. X_._._._._.|.T.d p p s s s s { =     ",
"  $ s s s s s d i a. X(._._._._.`._.6.a s V. X_._._._._.|.T.d p s s s s s s =     ",
"  $ s s s s s s i p. X(._._._._.`._.5.a a V. X_._._._._.|.T.d p p s s s s s =     ",
"  $ a s s s s s i p. X(._._._._.`._.5.i p V. X_._._._._.|.T.d i p p s s s s ;     ",
"  % y s a a s s i y. X(._._._._.`._.3.p p V..X(._._._._.|.T.d a p p s a a j ;     ",
"  + 8 f t a s s i y. X(._._.`.`._._.3.p [ V. X(._._._._.|.T.d a p p s y 7 7 &     ",
": U A E w e s s i p. X~.`._.`._._._.3.p p V. X(._._._._.|.T.d a p s a 6 J E U 2 X ",
"T W.J.K.H 6 a a r y. X(._._._._.`._.1.r r V. X~._._.`._.|.T.a a a s a 7 b.U.P.F.: ",
"' %X+X#X^ f b v a f. X(._._._._.`._.9.g g C. X_._._.`._.|.R.b l l n v q E.$X+X}.< ",
"` @X/.XXQ 0 F F x d. X_._._._._.`._.e.C D A..X_._._._._.|.R.G C n D S q H.oX{.!.< ",
"I n.c.v.Z 3 t t 6 t. X(._._._._.`._.L 5 5 B. X_._._._._.|.I.t e e e t 3 ] v.v.x.: ",
"1 ~ Y ( 9 6 a a r y. X(._._._._._._.1.r r V. X(._._._._.|.T.a i a a r 3 P R R T @ ",
"1 ) ! / q e a a r y.OX(._._._._._._.>.p p V..X(._._._._.|.T.a i a a r 5 W _ ! U X ",
"X , w z u r i a r y.OX_._._._._.`._.3.p p V..X_._._._._.|.T.a r a r r 6 z 0 > X   ",
"  $ t e e r i a r y.OX_._._._._.`._.>.i p V. X_._._._._.|.T.a r r r r r r r $     ",
"  # t r r r r a r y. X~._.]._._.`._.>.i i V. X~._._._._.|.T.a r r r r r r r *     ",
"  O e r r r r a e y. X~._._._._.`._.2.i i V. X~._._._._.|.T.a r r r r r r r *     ",
"  O r i r r r r e t. X~._._._._.`._.1.i i V. X(._._._._.|.T.y r r r r r r r *     ",
"  O e r r r r r e u. X_._._._._.`._.1.r r V. X(._._._._.|.L.y r r r r r r r *     ",
"  O e r e r r r e w.|._._._._._._.|.7.e r Z. X_._._.`._. XA.r r r r r r r r *     ",
"  O e r e e r r e n ^.{._._.`.`.(. Xz.e D !.{._._._.`._.OXl.e r r r r r r r *     ",
"  O 6 r e e r r r e C. X_._.`.`._.`.`.G.E.|._._._._._._.{.K e r r r r r r r *     ",
"  O 6 e e e r r e 6 K |._._._.`._._._.|.{._._._._._.~.OXm.e e e e e e e e e $     ",
"  o 6 e e e e e e t 6 d.OX`.(._._._._._._._._._._.~.OXT.x 6 e e e e e e e t $     ",
"  o 5 e 6 e e t 6 6 6 6 s.]. X]._.(._._._.(.(._.|.OXG.c 6 t e e e e e e e t $     ",
"  o 5 e 6 6 6 6 6 6 6 6 6 G B.^..XOX X X XOXOX{.R.s.u 6 e 6 6 6 6 e e e e 6 #     ",
"  o 5 6 6 6 6 6 6 6 6 6 e 6 6 V r.g.M.B.m.z.d.L u 5 6 6 6 6 6 6 6 6 6 6 6 6 O     ",
"  O 5 6 6 6 6 6 6 6 6 6 6 6 6 6 5 5 6 6 6 5 5 5 6 6 6 6 6 6 6 6 6 6 6 6 6 5 o     ",
"  O 5 6 5 5 5 6 6 6 6 6 6 6 6 6 6 6 6 6 6 6 6 6 6 6 6 6 6 6 6 6 6 5 5 5 6 4 .     ",
"  O 4 5 5 5 5 5 5 5 5 5 5 5 5 5 5 5 5 5 5 5 5 5 5 5 5 5 5 5 5 5 5 5 5 5 5 4 .     ",
"  O 4 5 5 5 5 5 5 5 5 5 5 5 5 5 5 5 5 5 5 5 5 5 5 5 5 5 5 5 5 5 5 5 5 5 5 3 .     ",
"  o 3 4 4 4 4 4 4 5 5 5 5 5 5 4 5 5 5 5 4 5 5 5 5 5 5 5 5 5 5 4 5 4 4 4 4 = .     ",
"  . = 4 4 4 4 4 4 4 4 4 4 4 4 4 4 4 4 4 4 4 4 4 4 4 4 4 4 4 4 4 4 4 4 4 4 * .     ",
"    $ 4 4 4 4 4 4 4 4 4 4 4 4 4 4 4 4 4 4 4 4 4 4 4 4 4 4 4 4 4 4 4 4 4 4 $ .     ",
"    o = 4 4 4 4 4 4 4 4 4 4 4 4 4 4 4 4 4 4 4 4 4 4 4 4 4 4 4 4 4 3 3 3 = o       ",
"      . O O O O O O O O O O O O O O O O O O O O O O O O O O # O O O o o .         "
};
