/* XPM */
static char *result[] = {
/* columns rows colors chars-per-pixel */
"64 64 230 2 ",
"   c #02070B",
".  c #150D15",
"X  c #150A1C",
"o  c #1D0E1D",
"O  c #180E17",
"+  c #1E121C",
"@  c #0F0914",
"#  c #210F1D",
"$  c #27151D",
"%  c #331D1A",
"&  c #3B201E",
"*  c #1D0E20",
"=  c #07172A",
"-  c #1B1225",
";  c #0B1C3A",
":  c #091B33",
">  c #171936",
",  c #200F20",
"<  c #211021",
"1  c #2B1523",
"2  c #291926",
"3  c #351A24",
"4  c #3B1D24",
"5  c #271B37",
"6  c #3A232B",
"7  c #392536",
"8  c #2C2834",
"9  c #4E2C1A",
"0  c #6B3817",
"q  c #733A1D",
"w  c #793E17",
"e  c #7C3A0E",
"r  c #401A23",
"t  c #462427",
"y  c #532B2A",
"u  c #572B27",
"i  c #593529",
"p  c #482C3B",
"a  c #543936",
"s  c #5E3B34",
"d  c #583737",
"f  c #4F3432",
"g  c #64332B",
"h  c #6B3629",
"j  c #7C3A25",
"k  c #7C3C2A",
"l  c #743823",
"z  c #683B34",
"x  c #743C32",
"c  c #793A3C",
"v  c #662A20",
"b  c #5E4137",
"n  c #764529",
"m  c #6B463B",
"M  c #764637",
"N  c #7D592C",
"B  c #091E41",
"V  c #141B42",
"C  c #1C1D4C",
"Z  c #171A46",
"A  c #161C53",
"S  c #162249",
"D  c #072956",
"F  c #162758",
"G  c #072940",
"H  c #282247",
"J  c #382444",
"K  c #272957",
"L  c #372F57",
"P  c #181F63",
"I  c #162668",
"U  c #073764",
"Y  c #0E2A70",
"T  c #152B76",
"R  c #0B3679",
"E  c #0F2F69",
"W  c #282562",
"Q  c #2D3062",
"!  c #3C3362",
"~  c #273371",
"^  c #482E48",
"/  c #473849",
"(  c #553641",
")  c #493A5A",
"_  c #402B53",
"`  c #5D3856",
"'  c #2B415C",
"]  c #0A427B",
"[  c #3E4170",
"{  c #4D404B",
"}  c #58454A",
"|  c #4D4659",
" . c #684946",
".. c #744D43",
"X. c #6C524A",
"o. c #494A6B",
"O. c #893A19",
"+. c #823D2A",
"@. c #863926",
"#. c #9F3D28",
"$. c #81441D",
"%. c #994719",
"&. c #84410D",
"*. c #B14D1C",
"=. c #A8531C",
"-. c #AD501A",
";. c #BC631B",
":. c #84422C",
">. c #8C442C",
",. c #894728",
"<. c #984729",
"1. c #845B2C",
"2. c #875A2C",
"3. c #864938",
"4. c #944A31",
"5. c #9A4B31",
"6. c #8B523C",
"7. c #875635",
"8. c #925B35",
"9. c #995939",
"0. c #AC4C23",
"q. c #A74729",
"w. c #B54B27",
"e. c #AB5623",
"r. c #B85628",
"t. c #A44D31",
"y. c #A65B3A",
"u. c #B65131",
"i. c #B04A31",
"p. c #86612E",
"a. c #856134",
"s. c #936636",
"d. c #BD6424",
"f. c #A6683A",
"g. c #B26339",
"h. c #C65A1B",
"j. c #D25F19",
"k. c #C96C1C",
"l. c #E7721B",
"z. c #C54F2B",
"x. c #CA532C",
"c. c #C5542A",
"v. c #DD592D",
"b. c #D65A29",
"n. c #D85630",
"m. c #C85430",
"M. c #EB5C2E",
"N. c #E35D29",
"B. c #E75A30",
"V. c #F15E2D",
"C. c #C86526",
"Z. c #D36624",
"A. c #DA762A",
"S. c #E76927",
"D. c #F2692C",
"F. c #EA7725",
"G. c #F87B26",
"H. c #895D45",
"J. c #945D4A",
"K. c #A45B41",
"L. c #846A5B",
"P. c #966750",
"I. c #966A4C",
"U. c #A86A48",
"Y. c #A77648",
"T. c #B67749",
"R. c #B77D55",
"E. c #B07150",
"W. c #91786C",
"Q. c #C57B4C",
"!. c #C07750",
"~. c #708D67",
"^. c #ED8325",
"/. c #FD8329",
"(. c #FE8B29",
"). c #F98728",
"_. c #FF9429",
"`. c #BB8454",
"'. c #B08A57",
"]. c #9D856C",
"[. c #B38F69",
"{. c #C8804F",
"}. c #C88955",
"|. c #CA9058",
" X c #D28A56",
".X c #D89763",
"XX c #CB9666",
"oX c #E49B62",
"OX c #DAAA78",
"+X c #CFA77E",
"@X c #E8A86C",
"#X c #E9B37C",
"$X c #162E88",
"%X c #0C3B87",
"&X c #163589",
"*X c #0F328B",
"=X c #292F82",
"-X c #0B4689",
";X c #18499E",
":X c #175392",
">X c #2C5388",
",X c #154BA9",
"<X c #174EB4",
"1X c #1355B5",
"2X c #0A6AB4",
"3X c #2765B3",
"4X c #135EC6",
"5X c #1969D9",
"6X c #1771D0",
"7X c #2171F0",
"8X c #9E9D9A",
"9X c #BBA687",
"0X c #AEABAF",
"qX c #96A092",
"wX c #D0B185",
"eX c #E8BA85",
"rX c #F4BD83",
"tX c #DED19A",
"yX c #E8C496",
"uX c #F9D49B",
"iX c #F8C991",
"pX c #F9DDAA",
"aX c #E4D5A1",
"sX c #FCE3AF",
"dX c #FBE6B3",
"fX c #BBBBC2",
"gX c #D5CFD1",
"hX c #D7DAE2",
"jX c #E5E2E5",
"kX c None",
/* pixels */
"kXkXkXkXkXkXkXkXkXkXkXkXkXkXkXkXkXkXkXkXkXkXkXkXkXkXkXkXkXkXkXkXkXkXkXkXkXkXkXkXkXkXkXkXkXkXkXkXkXkXkXkXkXkXkXkXkXkXkXkXkXkXkXkX",
"kXkXkXkXkXkXkXkXkXkXkXkXkXkXkXkXkXkXkXkXkXkXkXkXkXkXkXkXkXkXkXkXkXkXkXkXkXkXkXkXkXkXkXkXkXkXkXkXkXkXkXkXkXkXkXkXkXkXkXkXkXkXkXkX",
"kXkXkXkXkXkXkXkXkXkXkXkXkXkXkXkXkXkXkXkXkXkXkXkXkXkXkXkXkXkXkXkXkXkXkXkXkXkXkXkXkXkXkXkXkXkXkXkXkXkXkXkXkXkXkXkXkXkXkXkXkXkXkXkX",
"kXkXkXkXkXkXkXkXkXkXkXkXkXkXkXkXkXkXkXkXkXkXkXkXkXkXkXkXkXkXkXkXkXkXkXkXkXkXkXkXkXkXkXkXkXkXkXkXkXkXkXkXkXkXkXkXkXkXkXkXkXkXkXkX",
"kXkXkXkXkXkXkXkXkXkXkXkXkXkXkXkXkXkXkXkXkXkXkXkXkXkXkXkXkXkXkXkXkXkXkXkXkXkXkXkXkXkXkXkXkXkXkXkXkXkXkXkXkXkXkXkXkXkXkXkXkXkXkXkX",
"kXkXkXkXkXkXkXkXkXkXkXkXkXkXkXkXkXkXkXkXkXkXkXkXkXkXkXkXkXkXkXkXkXkXkXkXkXkXkXkXkXkXkXkXkXkXkXkXkXkXkXkXkXkXkXkXkXkXkXkXkXkXkXkX",
"kXkXkXkXkXkXkXkXkXkXkXkXkXkXkXkXkXkXkXkXkXkXkXkXkXkXkXkXkXkXkXkXkXkXkXkXkXkXkXkXkXkXkXkXkXkXkXkXkXkXkXkXkXkXkXkXkXkXkXkXkXkXkXkX",
"kXkXkXkXkXkXkXkXkXkXkXkXkXkXkXkXkXkXkXkXkXkXkXkXkXkXkXkXkXkXkXkXkXkXkXkXkXkXkXkXkXkXkXkXkXkXkXkXkXkXkXkXkXkXkXkXkXkXkXkXkXkXkXkX",
"kXkXkXkXkXkXkXkXkXkXkXkXkXkXkXkXkXkXkXkXkXkXkXkXkXkXkXkXkXkXkXkXkXkXkXkXkXkXkXkXkXkXkXkXkXkXkXkXkXkXkXkXkXkXkXkXkXkXkXkXkXkXkXkX",
"kXkXkXkXkXkXkXkXkXkXkXkXkXkXkXkXkXkXkXkXkXkXkXkXkXkXkXkXkXkXkXkXkXkXkXkXkXkXkXkXkXkXkXkXkXkXkXkXkXkXkXkXkXkXkXkXkXkXkXkXkXkXkXkX",
"kXkXkXkXkXkXkXkXkXkXkXkXkXkXkXkXkXkXkXkXkXkXkXkXkXkXkXkXkXkXkXkXkXkXkXkXkXkXkXkXkXkXkXkXkXkXkXkXkXkXkXkXkXkXkXkXkXkXkXkXkXkXkXkX",
"kXkXkXkXkXkXkXkXkXkXkXkXkXkXkXkXkXkXkXkXkXkXkXkXkXkXkXkXkXkXkXkXkXkXkXkXkXkXkXkXkXkXkXkXkXkXkXkXkXkXkXkXkXkXkXkXkXkXkXkXkXkXkXkX",
"kXkXkXkXkXkXkXkXkXkXkXkXkXkXkXkXkXkXkXkXkXkXkXkXkXkXkXkXkXkXkXkXkXkXkXkXkXkXkXkXkXkXkXkXkXkXkXkXkXkXkXo kXkXkXkXkXkXkXkXkXkXkXkX",
"kXkXkXkXkXkXkXkXkXkXkXkXkXkXkXkXkXkXkXkXkXkXkXkXkXkXkXkXkXkXkXkXkXkXkXkXkXkXkXkXkXkXkXkXkXkXkXkXkXo + o kXkXkXkXkXkXkXkXkXkXkXkX",
"kXkXkXkXkXkXkXkXkXkXkXkXkXkXkXkXkXkXkXkXkXkXkXkXkXkXkXkXkXkXkXkXkXkXkXkX< o kXkXkXkX* o kXkXkXo o # o kXkXkXkXkXkXkXkXkXkXkXkXkX",
"kXs.Y.kXkXkXkXkXkXkXkXkXkXkXkXkXkXkXkXkXkXkXq w q kXkX0 q 0 kXkX+ + + o kXkXkX< o + # kXo < o o < o o kXkXkXkXkXkXkXkXkXkXkXkXkX",
"p.f.E.p.p.9.$ Z I Z u 1.N kXkXkXkXZ E F 7 $.4.5.:.l ,.4.4.4.n 9 o # + o kX< * # o o O O o < , < < o kXkX# kXkXkXkXkXkXkXkXkXkXkX",
"p.8.Y..Xf.^ I &XT d y.9.8.2.8.n H R &X! M 5.4.k k 4.>.:.>.g 4 < - < o o O # < , o o O o o , , < o kXkXo kXkXkXkXkXkXkXkXkXkXkXkX",
"kXp.s.|.H.$X<XY .. XR.f.K.T.t.J $X&X! +.4.+.k >.>.5.+.4 3 * * # # < < o * o < , < o o < < < , < o . O + kXkXkXkXkXkXkXkXkXkXkXkX",
"kXkXf.5.o.5X5XQ wXiXQ.9.9.y.p *X&X! +.u.,.q.>.4.4.5.k , o < - # # < , < < < , # < < < , , < , < # o o o kXkXkXkXkXkXkXkXkXkXkXkX",
"kXkXkXn I 7X,XJ.sXyXg.T.!.3.-X4X~ q c.q.e.n.t.4.4.4.4 * < < < , < , < < < , < - < # < < < * < , < < # kXkXkXkXkXkXkXkXkXkXkXkXkX",
"kXkXkXkXC <XY J.rX@X#XuX#X{ 4X6X| %.Z.>.0.V.x.>.4.4.4 * < , , < < , - , < < # < # - < # < < , , < o o kXkXkXkXkXkXkXkXkXkXkXkXkX",
"kXkXkXkX- T E 3.{.[.sXdXwX{ 4X3Xm l.Z.<.n.B.u.4.5.g < , < < < < < < # < < < < < < < < < < < , < < o kXkXkXkXkXkXkXkXkXkXkXkXkXkX",
"kXkXkXkXkXF Z z 9.[.dXdXL.E 6X| ;.^.-.w.M.c.4.t.t.y * < < < < < , < < < < # - < < < < < , < , < < o kXkXkXkXkXkXkXkXkXkXkXkXkXkX",
"kXkXkXkXkXkXkXi 1.'.pXdXL.Y >Xn ^.l.%.b.M.5.q.B.>.1 * , < < < < < < < < < , < < < < < < < , , , X kXkXkXkXkXkXkXkXkXkXkXkXkXkXkX",
"kXkXkXkXkXkXkXkXkXa.'..XM Y K ;._.-.C.G.n.q.v.M.j * < , , < < , < < < < < < < < < < , < , < * , t 3 o kXkXkXkXkXkXkXkXkXkXkXkXkX",
"kXkXkXkXkXkXkXkXkXkXkXN y Y ~ k.F.e.).F.#.z.V.i.J * < , , , < , , < < , < < < < < < < < < , < y u 1 o kXkXkXkXkXkXkXkXkXkXkXkXkX",
"kXkXkXkXkXkXkXkXkXkXkXkX% V L k.c.e._.A.q x.c._ ) 3 * < , o , < < < , , < , < < < , < < < * < 3 o < g kXkXkXkXkXkXkXkXkXkXkXkXkX",
"kXkXkXkXkXkXkXkXkXkXkXkXkXkX% 0.r.e._.A.,.N.w.% ].U., * , t < < * * , , , < < < < < , < , < , * < < +.q kXkXkXkXkXkXkXkXkXkXkXkX",
"kXkXkXkXkXkXkXkXkXkXkXkXkXkXkX,.w.r._.C.C./.w.% ..6.t * 1 x < , , g 3 * < , < , < < < < < , , , o y 5.>.0 kXkXkXkXkXkXkXkXkXkXkX",
"kXkXkXkXkXkXkXkXkXkXkXkXkXkXkXkXw e.(.u.d.(.0.9 I.4 < * * 1 < X d !.y , < < < < , < < , < , , , < k 4.5.l 0 kXkXkXkXkXkXkXkXkXkX",
"kXkXkXkXkXkXkXkXkXkXkXkXkXkXkXkXkX0 Z.z.d.(.*.H P.M * * y 1 - X d oX9., < < * * < , < < , < , X y 4.4.4.j >.n kXkXkXkXkXkXkXkXkX",
"kXkXkXkXkXkXkXkXkXkXkXkXkXkXkXkXkXkXz.w.r./.*.K } H.y y U.i . s L.rXz * - * < 1 * , , < < < , Z L @.5.4.k >.5.n kXkXkXkXkXkXkXkX",
"kXkXkXkXkXkXkXkXkXkXkXkXkXkXkXkXkXkXe +.0.G.-.F ) 3.i y Q.I.8 6 eX+X3 * o , 3.t * < < * - < , A ` +.5.5.k 4.4.>.l kXkXkXkXkXkXkX",
"kXkXkXkXkXkXkXkXkXkXkXkXkXkXkXkXkXkXkX0 0./.S.m I z 3.y 3.0X8X6 9X8 o <  .K.3.1 * < < , , , # 1 l 5.m.B.@.>.4.4.+.kXkXkXkXkXkXkX",
"kXkXkXkXkXkXkXkXkXkXkXkXkXkXkXkXkXkXkX9 w./.G.q.Q L g m z jXjX} a f R.m 6 t g y * < < * < # 5 J +.m.M.n.5.4.4.4.+.kXkXkXkXkXkXkX",
"kXkXkXkXkXkXkXkXkXkXkXkXkXkXkXkXkXkXkXkX%.F./.N.s R = b 7.8XqX$ }.R.M , X @ z K., , , * < C T ( w.N.M.q.+.4.>.4.:.kXkXkXkXkXkXkX",
"kXkXkXkXkXkXkXkXkXkXkXkXkXkXkXkXkXkXkXkXkXh.(.F.0.L D & |.'.~.I.U.^ | gX0Xd 4.u 4 , 3.H.5 =X) %.x.S.B.q.:.u.n.5.g kXkXkXkXkXkXkX",
"kXkXkXkXkXkXkXkXkXkXkXkXkXkXkXkXkXkXkXkXkX&.j.(.^.=.8 b uXtXX.XXOXgXfXfXW.g 2 t x z OXeX[ c b.S.l.S.x.j x.B.v.3.E 2 kXkXkXkXkXkX",
"kXkXkXkXkXkXkXkXkXkXkXkXkXkXkXkXkXkXkXkXkXkXe Z.(.^.%.& wXaX .R.iXyXJ.h u 4 x E.I.wXW.| _ i.l.(.(.D.#.q.B.B.w.z ] : kXkXkXkXkXkX",
"kXkXkXkXkXkXkXkXkXkXkXkXkXkXkXkXkXkXkXkXkXkXkXe Z.).D.O.W.pX9XW.yX@Xg.3.5 5 p / | o.W I K.G.).(.(.b.k m.M.b.4.( D & kXkXkXkXkXkX",
"kXkXkXkXkXkXkXkXkXkXkXkXkXkXkXkXkXkXkXkXkXkXkXkXO.q.r.D.j ].uXuXOXH.J P &X$X*XY W K ) #.F._.(.(.S.<.u.D.M.u.j ~ D N s.kXkXkXkXkX",
"kXkXkXkXkXkXkXkXkXkXkXkXkXkXkXkXkXkXkXkXkXkXkXkXkXkX% @.x.@.z z s g p ( f a f s w.h.h.D.^.^.^.e.#.v.G.(.d.+.o.:X .g.1.kXkXkXkXkX",
"kXkXkXkXkXkXkXkXkXkXkXkXkXkXkXkXkXkXkXkXkXkXkXkXkXkXkX- r @.u @.0.e.=.j.j.;.h.l.F.).).G.b.<.<.z.S./.).Z.>.| 2X>X`.Q.1.kXkXkXkXkX",
"kXkXkXkXkXkXkXkXkXkXkXkXkXkXkXkXkXkXkXkXkXkXkXkXkXkXkXkXX H > v @.>.r.e.d.e.<.d.(._.(.G.F.F.D.G./.D.b.%.o.2X2X8 7.}.f.i kXkXkXkX",
"kXkXkXkXkXkXkXkXkXkXkXkXkXkXkXkXkXkXkXkXkXkXkXkXkXkXkXkXkXF E ;   $ % % i n k l e ;.F.(.G.D.S.b.:.c x L -XU ' '.f.|.g./ > kXkXkX",
"kXkXkXkXkXkXkXkXkXkXkXkXkXkXkXkXkXkXkXkXkXkXkXkXkXkXkXkXkXkX; T ; kXkX. o 1 # 5 V > t q.q.@.u 9 7 P I P F } 9XuX`.}.oXd @ kXkXkX",
"kXkXkXkXkXkXkXkXkXkXkXkXkXkXkXkXkXkXkXkXkXkXkXkXkXkXkXkXkXkXkX; Y :   kXkXkXkXC S I I D > o kXkXz M 6.U.[.sXdXuX`.|.oXz Z kXkXkX",
"kXkXkXkXkXkXkXkXkXkXkXkXkXkXkXkXkXkXkXkXkXkXkXkXkXkXkXkXkXkXkXkXB -XR D = : kXkXkX- S -XR F > kXkXn K.}.@XeXuXOX`.@X Xy P - kXkX",
"kXkXkXkXkXkXkXkXkXkXkXkXkXkXkXkXkXkXkXkXkXkXkXkXkXkXkXkXkXkXkXkX= U ] %X;X%XS . kXkXkXG -X,X,XD B A 5 i kXR..X.XoXQ. .F I 2 kXkX",
"kXkXkXkXkXkXkXkXkXkXkXkXkXkXkXkXkXkXkXkXkXkXkXkXkXkXkXkXkXkXkXkXkXkXkX: R R = kXkXkXkXkX: %X4X5X<X$XW A kXkXI.E.3.7 ;X5XR i kXkX",
"kXkXkXkXkXkXkXkXkXkXkXkXkXkXkXkXkXkXkXkXkXkXkXkXkXkXkXkXkXkXkXkXkXkXkXkXkXV kXkXkXkXkXkXkX= R <XE V - C 5 kXkX6 W $X,X,X/ Y.kXkX",
"kXkXkXkXkXkXkXkXkXkXkXkXkXkXkXkXkXkXkXkXkXkXkXkXkXkXkXkXkXkXkXkXkXkXkXkXkXkXkXkXkXkXkXkXkXkX> V kXkXkXkXkXkXkXkXS H Z f {.`.a.kX",
"kXkXkXkXkXkXkXkXkXkXkXkXkXkXkXkXkXkXkXkXkXkXkXkXkXkXkXkXkXkXkXkXkXkXkXkXkXkXkXkXkXkXkXkXkXkXkXkXkXkXkXkXkXkXkXkXkXi ,.9.!. X7.kX",
"kXkXkXkXkXkXkXkXkXkXkXkXkXkXkXkXkXkXkXkXkXkXkXkXkXkXkXkXkXkXkXkXkXkXkXkXkXkXkXkXkXkXkXkXkXkXkXkXkXkXkXkXkXkXkXkXkXkXkX8.9.U.U.kX",
"kXkXkXkXkXkXkXkXkXkXkXkXkXkXkXkXkXkXkXkXkXkXkXkXkXkXkXkXkXkXkXkXkXkXkXkXkXkXkXkXkXkXkXkXkXkXkXkXkXkXkXkXkXkXkXkXkXkXkXkX7.7.f.8.",
"kXkXkXkXkXkXkXkXkXkXkXkXkXkXkXkXkXkXkXkXkXkXkXkXkXkXkXkXkXkXkXkXkXkXkXkXkXkXkXkXkXkXkXkXkXkXkXkXkXkXkXkXkXkXkXkXkXkXkXkXkXkX7.kX",
"kXkXkXkXkXkXkXkXkXkXkXkXkXkXkXkXkXkXkXkXkXkXkXkXkXkXkXkXkXkXkXkXkXkXkXkXkXkXkXkXkXkXkXkXkXkXkXkXkXkXkXkXkXkXkXkXkXkXkXkXkXkXkXkX",
"kXkXkXkXkXkXkXkXkXkXkXkXkXkXkXkXkXkXkXkXkXkXkXkXkXkXkXkXkXkXkXkXkXkXkXkXkXkXkXkXkXkXkXkXkXkXkXkXkXkXkXkXkXkXkXkXkXkXkXkXkXkXkXkX",
"kXkXkXkXkXkXkXkXkXkXkXkXkXkXkXkXkXkXkXkXkXkXkXkXkXkXkXkXkXkXkXkXkXkXkXkXkXkXkXkXkXkXkXkXkXkXkXkXkXkXkXkXkXkXkXkXkXkXkXkXkXkXkXkX",
"kXkXkXkXkXkXkXkXkXkXkXkXkXkXkXkXkXkXkXkXkXkXkXkXkXkXkXkXkXkXkXkXkXkXkXkXkXkXkXkXkXkXkXkXkXkXkXkXkXkXkXkXkXkXkXkXkXkXkXkXkXkXkXkX",
"kXkXkXkXkXkXkXkXkXkXkXkXkXkXkXkXkXkXkXkXkXkXkXkXkXkXkXkXkXkXkXkXkXkXkXkXkXkXkXkXkXkXkXkXkXkXkXkXkXkXkXkXkXkXkXkXkXkXkXkXkXkXkXkX",
"kXkXkXkXkXkXkXkXkXkXkXkXkXkXkXkXkXkXkXkXkXkXkXkXkXkXkXkXkXkXkXkXkXkXkXkXkXkXkXkXkXkXkXkXkXkXkXkXkXkXkXkXkXkXkXkXkXkXkXkXkXkXkXkX",
"kXkXkXkXkXkXkXkXkXkXkXkXkXkXkXkXkXkXkXkXkXkXkXkXkXkXkXkXkXkXkXkXkXkXkXkXkXkXkXkXkXkXkXkXkXkXkXkXkXkXkXkXkXkXkXkXkXkXkXkXkXkXkXkX"
};
