/* XPM */
static char *result[] = {
/* columns rows colors chars-per-pixel */
"64 64 242 2 ",
"   c #1D0D1D",
".  c #150E17",
"X  c #1A1317",
"o  c #11100C",
"O  c #23141D",
"+  c #261917",
"@  c #3C321A",
"#  c #2C231C",
"$  c #241321",
"%  c #2C1B23",
"&  c #2A1823",
"*  c #331E24",
"=  c #200E20",
"-  c #362224",
";  c #3B2425",
":  c #33222A",
">  c #3A292A",
",  c #3C362E",
"<  c #3C3736",
"1  c #2D2425",
"2  c #5C3013",
"3  c #5F2F15",
"4  c #6C351D",
"5  c #683717",
"6  c #733C1B",
"7  c #77391F",
"8  c #6F2611",
"9  c #780E33",
"0  c #43312F",
"q  c #4C3B32",
"w  c #463433",
"e  c #513D37",
"r  c #432C27",
"t  c #6A3727",
"y  c #763A24",
"u  c #7D3B25",
"i  c #713A29",
"p  c #7D3E2A",
"a  c #723624",
"s  c #5B0F2E",
"d  c #4D4538",
"f  c #534536",
"g  c #4F543D",
"h  c #7C4334",
"j  c #7F4638",
"k  c #78472E",
"l  c #7E4D15",
"z  c #3A3752",
"x  c #0A3E7F",
"c  c #183E7C",
"v  c #31326C",
"b  c #571A49",
"n  c #6C194C",
"m  c #4F374D",
"M  c #6D2651",
"N  c #6E3F4A",
"B  c #443076",
"V  c #722F6D",
"C  c #1D4575",
"Z  c #344773",
"A  c #564B43",
"S  c #575445",
"D  c #7A4B51",
"F  c #584565",
"G  c #5C546A",
"H  c #504D70",
"J  c #734E64",
"K  c #7A5467",
"L  c #6A5676",
"P  c #6E4F6A",
"I  c #49607D",
"U  c #881D0E",
"Y  c #891B14",
"T  c #8A080D",
"R  c #8B2312",
"E  c #84341F",
"W  c #89102F",
"Q  c #843E2A",
"!  c #863D25",
"~  c #913D29",
"^  c #8B2134",
"/  c #A03B2A",
"(  c #A30F26",
")  c #88471C",
"_  c #AA5718",
"`  c #BC5C12",
"'  c #8B432B",
"]  c #894527",
"[  c #93442B",
"{  c #9C4B2C",
"}  c #994629",
"|  c #874934",
" . c #974A32",
".. c #9B583B",
"X. c #8C563A",
"o. c #A1472C",
"O. c #A44B2C",
"+. c #AC4B2E",
"@. c #A74A25",
"#. c #B44E2C",
"$. c #AC522B",
"%. c #B4532D",
"&. c #BC522D",
"*. c #B95929",
"=. c #AA4D31",
"-. c #B84E30",
";. c #BC5231",
":. c #B25F3E",
">. c #B65732",
",. c #A25130",
"<. c #9C6E25",
"1. c #A66A2A",
"2. c #BB6224",
"3. c #A57228",
"4. c #B76939",
"5. c #B77637",
"6. c #A56333",
"7. c #D86C07",
"8. c #C46517",
"9. c #E77417",
"0. c #E16C1E",
"q. c #C4542C",
"w. c #CB542C",
"e. c #CC5C2D",
"r. c #C55A28",
"t. c #D4562E",
"y. c #D25A2E",
"u. c #DC5B2B",
"i. c #D55927",
"p. c #C55330",
"a. c #CB5431",
"s. c #CA5930",
"d. c #D45530",
"f. c #DB5831",
"g. c #D04E2B",
"h. c #E55C2C",
"j. c #E95E28",
"k. c #E65B30",
"l. c #C5632A",
"z. c #D6682B",
"x. c #CF6C2F",
"c. c #EC652B",
"v. c #EC6C2B",
"b. c #E66828",
"n. c #F36E2C",
"m. c #F3672B",
"M. c #E77328",
"N. c #F27524",
"B. c #F4752A",
"V. c #F77B28",
"C. c #E56B30",
"Z. c #891C51",
"A. c #8D3053",
"S. c #915348",
"D. c #AE4F52",
"F. c #966657",
"G. c #94734A",
"H. c #A76848",
"J. c #B86745",
"K. c #BB794A",
"L. c #A6764F",
"P. c #835F68",
"I. c #8C7470",
"U. c #AF7261",
"Y. c #C04D43",
"T. c #C4754B",
"R. c #D07C48",
"E. c #B78739",
"W. c #AE8030",
"Q. c #C0843D",
"!. c #FA8326",
"~. c #FC8428",
"^. c #FF8C29",
"/. c #F78527",
"(. c #FF9429",
"). c #BA8C49",
"_. c #BF9070",
"`. c #CA8854",
"'. c #D38D5B",
"]. c #CB9457",
"[. c #DA955B",
"{. c #CD984F",
"}. c #E0965C",
"|. c #C7B05F",
" X c #C8926D",
".X c #DA9864",
"XX c #CD9874",
"oX c #D7A96D",
"OX c #D8A477",
"+X c #D3B371",
"@X c #D3B36B",
"#X c #E4A46A",
"$X c #E7A56A",
"%X c #E7AB73",
"&X c #E8B27A",
"*X c #DCC579",
"=X c #E5C87D",
"-X c #183695",
";X c #0F3392",
":X c #253886",
">X c #243591",
",X c #313B84",
"<X c #0D3FAA",
"1X c #483D91",
"2X c #4F3489",
"3X c #074698",
"4X c #1A4D93",
"5X c #2D4A92",
"6X c #28538D",
"7X c #0347A3",
"8X c #1A45A6",
"9X c #005CA5",
"0X c #154FB8",
"qX c #314EB1",
"wX c #1268B5",
"eX c #0B6CB6",
"rX c #0B6394",
"tX c #465289",
"yX c #46469E",
"uX c #614991",
"iX c #5D6193",
"pX c #5162A1",
"aX c #776689",
"sX c #1C54C5",
"dX c #1960D9",
"fX c #1A5DE2",
"gX c #2A4EC1",
"hX c #887491",
"jX c #A08E97",
"kX c #B7A7A4",
"lX c #DDAD81",
"zX c #ECBB83",
"xX c #EDBD89",
"cX c #E8BE91",
"vX c #ECC188",
"bX c #F4C78C",
"nX c #E8C792",
"mX c #F4CE99",
"MX c #F8D19A",
"NX c #F8D8A4",
"BX c #FBE3AC",
"VX c None",
/* pixels */
"VXVXVXVXVXVXVXVXVXVXVXVXVXVXVXVXVXVXVXVXVXVXVXVXVXVXVXVXVXVXVXVXVXVXVXVXVXVXVXVXVXVXVXVXVXVXVXVXVXVXVXVXVXVXVXVXVXVXVXVXVXVXVXVX",
"VXVXVXVXVXVXVXVXVXVXVXVXVXVXVXVXVXVXVXVXVXVXVXVXVXVXVXVXVXVXVXVXVXVXg VXVXVXVXVXVXVXVXVXVXVXVXVXVXVXVXVXVXVXVXVXVXVXVXVXVXVXVXVX",
"VXVXVXVXVXVXVXVXVXVXVXVXVXVXVXVXVXVXVXVXVXVXVXVXVXVXVXVXVXVXVXVXVXg d VXVXVXVXVXVXVXVXVXVXVXVXVXVXVXVXVXVXVXVXVXVXVXVXVXVXVXVXVX",
"VXVXVXVXVXVXVXVXVXVXVXVXVXVXVXVXVXVXVXVXVXVXVXVXVXVXVXVXVXVXVXVXS d @ VXVXVXVXVXVXVXVXVXVXVXVXVXVXVXVXVXVXVXVXVXVXVXVXVXVXVXVXVX",
"VXVXVXVXVXVXVXVXVXVXVXVXVXVXVXVXVXVXVXVXVXVXVXVXVXVXVXVXVXVXVXVXf r + VXd f q d VXVXVXVXVXVXVXVXVXVXVXVXVXVXVXVXVXVXVXVXVXVXVXVX",
"VXVXVXVXVXVXVXVXVXVXVXVXVXVXVXVXVXVXVXVXVXVXVXVXVXVXVXVXVXVXVXf r $ & d e > O + VXVXVXVXVXVXVXVXVXVXVXVXVXVXVXVXVXVXVXVXVXVXVXVX",
"VXVXVXVXVXVXVXVXVXVXVXVXVXVXVXVXVXVXVXVXVXVXVXVXVXVXVXVXVXVXd 0 $ = r e ; = . X o o VXVXVXVXVXVXVXVXVXVXVXVXVXVXVXVXVXVXVXVXVXVX",
"VXVXVXVXVXVXVXVXVXVXVXVXVXVXVXVXVXVXVXVXVXVXVXVXVXVXVXVXVXd %   = * ; ; O * * , , X VXVXVXVXVXVXVXVXVXVXVXVXVXVXVXVXVXVXVXVXVXVX",
"VXVXVXVXVXVXVXVXVXVXVXVXVXVXVXVXVXVXVXVXVXVXVXVXVXVXVXVXA >   : ; * w d : % > w A d VXVXVXVXVXVXVXVXVXVXVXVXVXVXVXVXVXVXVXVXVXVX",
"VXVXVXVXVXVXVXVXVXVXVXVXVXVXVXVXVXVXVXVXVXVXVXVXVXVXf A q - : A ; * e S w q : % * : d VXVXVXVXVXVXVXVXVXVXVXVXVXVXVXVXVXVXVXVXVX",
"VXVXVXVXVXVXVXVXVXVXVXVXVXVXVXVXVXVXVXVXVXVXVXVXVX@ - * - $ : w O . & w % 0 < * d VXVXVXVXVXVXVXVXVXVXVXVXVXVXVXVXVXVXVXVXVXVXVX",
"VXVXVXVXVXVXVXVXVXVXVXVXVXVXVXVXVXVXVXVXVXVXVXVXVXVXo 1 0 O & * $ t O * + % >   # VXVXVXVXVXVXVX@X|.VXVXVXVXVXVXVXVXVXVXVXVXVXVX",
"VXVXVXVXVXVXVXVXVXVXVXVXVXVXVXVXVXVXVXVXVXVXVXVXVXVX< w > $ 1 . > 6.j X k &   X VXVXVXVXVXVXVXVX=X*X*XVXVXVXVXVXVXVXVXVXVXVXVXVX",
"VXVXVXVXVXVXVXVXVXVXVXVXVXVXVXVXVXVXVXVXVXVXVXVXVXf k | t | 5.2 G._.H.G.L.# X VXVXVXVXVXVXVXVX).bX].3.VXVXVXVXVXVXVXVXVXVXVXVXVX",
"VXVXVXVXVXVXVXVXVXVXVXVXVXVXVXVXVXVXVXVXVXVXVXVXVX8././.J.K hXL U._.S..X).VXVXVXVXVXVXVXVXVXVX@XmXE.VXVXVXVXVXVXVXVXVXVXVXVXVXVX",
"VXVXVXVXVXVXVXVXVXVXVXVXVXVXVXVXVXVXVXVXVXVXVX_ /.^./.H.6X7XpXkX_.`.cXOXU.4.1.].oXnX+XG.6XeXtX_.bXE.W.VXVXVXVXVXVXVXVXVXVXVXVXVX",
"VXVXVXVXVXVXVXVXVXVXVXVXVXVXVXVXVXVXVXVXVXVX_ M.V.N.s.5X9XC OXBXNX%XzXMXvX'.T.lXMXMXMX X4X9XqXXX[.3.VXVXVXVXVXVXVXVXVXVXVXVXVXVX",
"VXVXVXVXVXVXVXVXVXVXVXVXVXVXVXVXVXVXVXVXVX_ b.n.w.u.D.5XwXL zXBXmX%XzX%X%X&X$X%XzXzX&X X4XeX5X XQ.<.VXVXVXVXVXVXVXVXVXVXVXVXVXVX",
"VXVXVXVXVXVXVXVXVXVXVXVXVXVXVXVXVXVXVXVXVXr.*.p.>.t.D.8X8XH.$X&X#X#XzX%X'.%X$X$X&XzX].F.4X;X,XL.3.VXVXVXVXVXVXVXVXVXVXVXVXVXVXVX",
"VXVXVXVXVXVXVXVXVXVXVXVXVXVXVXVXVXVXVXVX2.>.~ z.r.q.h.D -XJ R.}.T.T.[..X`.T.J.J.J.4.5.6.B P S.<.VXVXVXVXVXVXVXVXVXVXVXVXVXVXVXVX",
"VXVXVXVXVXVXVXVXVXVXVXVXVXVXVXVXVXVXVXVXO.;.d.c.e.,.k.M.S.P K S.J.J.J.D.J.:.:.J.T.H.P.P.S.T.].E.VXVXVXVXVXVXVXVXVXVXVXVXVXVXVXVX",
"VXVXVXVXVXVXVXVXVXVXVXVXVXVXVXVXVXVXVXa ' a.a.k.c.O.O.e.k.>.m S.-.J.`.OX&X`.:.T.bXjX3XwXc P.&XvXE.VXVXVXVXVXVXVXVXVXVXVXVXVXVXVX",
"VXVXVXVXVXVXVXVXVXVXVXVXVXVXVXVXVXVXVXt +.f.=.k.d.+.y u =.o.i.#.] 6.`.$XMXvX.XvXMX XI rXC F W.vX+XE.VXVXVXVXVXVXVXVXVXVXVXVXVXVX",
"VXVXVXVXVXVXVXVXVXVXVXVXVXVXVXVXVXVXVXv  .@.[ a.a.;.*.{ o.a.l.7 VXVX1.3.`.oX#X.X`.5.H C VXVXVX&XoX3.VXVXVXVXVXVXVXVXVXVXVXVXVXVX",
"VXVXVXVXVXVXVXVXVXVXVXVXVXVXVXVXVXVXw ;XC < t ! ~ %.z.*.] 4 2 VXVXVXVXVX1.5.5.1.VXVXVXVXVXVXVX{.+X).VXVXVXVXVXVXVXVXVXVXVXVXVXVX",
"VXVXVXVXVXVXVXVXVXVXVXVXVXVXVXVXVX6 ) f c 3Xc v v z v Z 5XB VXVXVXVXVXVXVXVXVXVXVXVXVXVXVXVXVXVX`.+XVXVXVXVXVXVXVXVXVXVXVXVXVXVX",
"VXVXVXVXVXVXVXVXVXVXVXVXVXVXVXVXVX) e.#.| F :X7X3X9X9X3Xc m VXVXVXVXVXVXVXVXVXVXVXVXVXVXVXVXVXVXVXVXVXVXVXVXVXVXVXVXVXVXVXVXVXVX",
"VXVXVXVXVXVXVXVXVXVXVXVXVXVXVXVX5 &.y.+.r.y.X.J F G F D 7 6 ) VXVXVXVXVXVXVXVXVXVXVXVXVXVXVXVXVXVXVXVXVXVXVXVXVXVXVXVXVXVXVXVXVX",
"VXVXVXVXVXVXVXVXVXVXVXVXVXVXVXVX5 *.d.B.B.s.r.m.*.r.w.#. .;.r.8.VXVXVXVXVXVXVXVXVXVXVXVXVXVXVXVXVXVXVXVXVXVXVXVXVXVXVXVXVXVXVXVX",
"VXVXVXVXVXVXVXVXVXVXVXVXVXVXVX4 ] q.j.v.s.p.V.d.%.i.+.p.y.c.V.9.7.7.VXVXVXVXVXVXVXVXVXVXVXVXVXVXVXVXVXVXVXVXVXVXVXVXVXVXVXVXVXVX",
"VXVXVXVXVXVXVXVXVXVXVXVXVXVXVX4 o.d.u.p.p.B.M.>.+.p.z.z.V.V.N./.^.9.7.VXVXVXVXVXVXVXVXVXVXVXVXVXVXVXVXVXVXVXVXVXVXVXVXVXVXVXVXVX",
"VXVXVXVXVXVXVXVXVXVXVXVXVXVXVX5 O.t.d.d.M.y.=.| } ;.z.B.B.c.v.^.^.^.9.7.VXVXVXVXVXVXVXVXVXVXVXVXVXVXVXVXVXVXVXVXVXVXVXVXVXVXVXVX",
"VXVXVXVXVXVXVXVXVXVXVXVXVXVXVX4 O.k.n.n./.>.Q p O.p.a.a.d.V.M.b.!./.N.9.7.VXVXVXVXVXVXVXVXVXVXVXVXVXVXVXVXVXVXVXVXVXVXVXVXVXVXVX",
"VXVXVXVXVXVXVXVXVXVXVXVXVXVX5 ] ,.&.c.!.^.c.! ' a.a.-.-.a.d.%.a.j.c.N.^.0.VXVXVXVXVXVXVXVXVXVXVXVXVXVXVXVXVXVXVXVXVXVXVXVXVXVXVX",
"VXVXVXVXVXVXVXVXVXVXVXVXVXVX2 } d.#.u./.^.B.o.a Q p Q +. . .k.d.q.u.c.~.0.8.VXVXVXVXVXVXVXVXVXVXVXVXVXVXVXVXVXVXVXVXVXVXVXVXVXVX",
"VXVXVXVXVXVXVXVXVXVXVXVXVXVX2 [ c.C.C.^.^.n.{ i j j p a y Q +.o.-.h.h.m.u.) VXVXVXVXVXVXVXVXVXVXVXVXVXVXVXVXVXVXVXVXVXVXVXVXVXVX",
"VXVXVXVXVXVXVXVXVXVXVXVXVXVX3 [ b.N.~.^./.j.o.y G ^ E | j i i t O.y.&.u.@.VXVXVXVXVXVXVXVXVXVXVXVXVXVXVXVXVXVXVXVXVXVXVXVXVXVXVX",
"VXVXVXVXVXVXVXVXVXVXVXVXVXVX5 [ u.N.^.^.n.t.[ i 6XM U u p p S.~ ' ;.' ] 5 VXVXVXVXVXVXVXVXVXVXVXVXVXVXVXVXVXVXVXVXVXVXVXVXVXVXVX",
"VXVXVXVXVXVXVXVXVXVXVXVXVXVX] u &.b./.^.B.%.t X.H 0XM Y y 4 [ O.6 y 6 VXVXVXVXVXVXVXVXVXVXVXVXVXVXVXVXVXVXVXVXVXVXVXVXVXVXVXVXVX",
"VXVXVXVXVXVXVXVXVXVXVXVXVXVXu  .q.h.!.^.z.{ ] J hXA.9 VXa 5 5 7 VXVXVXVXVXVXVXVXVXVXVXVXVXVXVXVXVXVXVXVXVXVXVXVXVXVXVXVXVXVXVXVX",
"VXVXVXVXVXVXVXVXVXVXVXVXVXVXy { q.h.M.x.$.p.%.H V n VXVXVXVXVXVXVXVXVXVXVXVXVXVXVXVXVXVXVXVXVXVXVXVXVXVXVXVXVXVXVXVXVXVXVXVXVXVX",
"VXVXVXVXVXVXVXVXVXVXVXVXVXVX} [ q.c.l.2./.d.[ D n B VXVXVXVXVXVXVXVXVXVXVXVXVXVXVXVXVXVXVXVXVXVXVXVXVXVXVXVXVXVXVXVXVXVXVXVXVXVX",
"VXVXVXVXVXVXVXVXVXVXVXVXVX6 w.p.w.c.!.^.z.! } / T VXVXVXVXVXVXVXVXVXVXVXVXVXVXVXVXVXVXVXVXVXVXVXVXVXVXVXVXVXVXVXVXVXVXVXVXVXVXVX",
"VXVXVXVXVXVXVXVXVXVXVXVXVXy { u.j.i.i.*.~ l.C.~ VXVXVXVXVXVXVXVXVXVXVXVXVXVXVXVXVXVXVXVXVXVXVXVXVXVXVXVXVXVXVXVXVXVXVXVXVXVXVXVX",
"VXVXVXVXVXVXVXVXVXVXVXVXVX4 ] &.j.w.=.-.j.B.z.VXVXVXVXVXVXVXVXVXVXVXVXVXVXVXVXVXVXVXVXVXVXVXVXVXVXVXVXVXVXVXVXVXVXVXVXVXVXVXVXVX",
"VXVXVXVXVXVXVXVXVXVXVXVXVXa u @.r.v.m.a.r.B.@.VXVXVXVXVXVXVXVXVXVXVXVXVXVXVXVXVXVXVXVXVXVXVXVXVXVXVXVXVXVXVXVXVXVXVXVXVXVXVXVXVX",
"VXVXVXVXVXVXVXVXVXVXVXVXVX6 #.b.M.b.M.2.z.j.$.VXVXVXVXVXVXVXVXVXVXVXVXVXVXVXVXVXVXVXVXVXVXVXVXVXVXVXVXVXVXVXVXVXVXVXVXVXVXVXVXVX",
"VXVXVXVXVXVXVXVXVXVXVXVXVX5 #.j.~.9.l./.C.#.} VXVXVXVXVXVXVXVXVXVXVXVXVXVXVXVXVXVXVXVXVXVXVXVXVXVXVXVXVXVXVXVXVXVXVXVXVXVXVXVXVX",
"VXVXVXVXVXVXVXVXVXVXVXVXVXVXk &.c.B.B.v.;.,.6 VXVXVXVXVXVXVXVXVXVXVXVXVXVXVXVXVXVXVXVXVXVXVXVXVXVXVXVXVXVXVXVXVXVXVXVXVXVXVXVXVX",
"VXVXVXVXVXVXVXVXVXVXVXVXVXVX4 ' ;.f.=.@.;.] VXVXVXVXVXVXVXVXVXVXVXVXVXVXVXVXVXVXVXVXVXVXVXVXVXVXVXVXVXVXVXVXVXVXVXVXVXVXVXVXVXVX",
"VXVXVXVXVXVXVXVXVXVXVXVXVXVX8 R ' ' i  .~ VXVXVXVXVXVXVXVXVXVXVXVXVXVXVXVXVXVXVXVXVXVXVXVXVXVXVXVXVXVXVXVXVXVXVXVXVXVXVXVXVXVXVX",
"VXVXVXVXVXVXVXVXVXVXVXVXVXVXW W Y R Y Y Y VXVXVXVXVXVXVXVXVXVXVXVXVXVXVXVXVXVXVXVXVXVXVXVXVXVXVXVXVXVXVXVXVXVXVXVXVXVXVXVXVXVXVX",
"VXVXVXVXVXVXVXVXVXVXVXVXVXVX-X>Xb n n ( 2XVXVXVXVXVXVXVXVXVXVXVXVXVXVXVXVXVXVXVXVXVXVXVXVXVXVXVXVXVXVXVXVXVXVXVXVXVXVXVXVXVXVXVX",
"VXVXVXVXVXVXVXVXVXVXVXVXVXVX>X;X7XdXV 1X8XVXVXVXVXVXVXVXVXVXVXVXVXVXVXVXVXVXVXVXVXVXVXVXVXVXVXVXVXVXVXVXVXVXVXVXVXVXVXVXVXVXVXVX",
"VXVXVXVXVXVXVXVXVXVXVXVXVXVXVXH tXfXZ.yXZ VXVXVXVXVXVXVXVXVXVXVXVXVXVXVXVXVXVXVXVXVXVXVXVXVXVXVXVXVXVXVXVXVXVXVXVXVXVXVXVXVXVXVX",
"VXVXVXVXVXVXVXVXVXVXVXVXVXVXVXK hXaXD.K G VXVXVXVXVXVXVXVXVXVXVXVXVXVXVXVXVXVXVXVXVXVXVXVXVXVXVXVXVXVXVXVXVXVXVXVXVXVXVXVXVXVXVX",
"VXVXVXVXVXVXVXVXVXVXVXVXVXVXVX-X>XuXD.uX;XVXVXVXVXVXVXVXVXVXVXVXVXVXVXVXVXVXVXVXVXVXVXVXVXVXVXVXVXVXVXVXVXVXVXVXVXVXVXVXVXVXVXVX",
"VXVXVXVXVXVXVXVXVXVXVXVXVXVXVXVXv sXZ.gXsXVXVXVXVXVXVXVXVXVXVXVXVXVXVXVXVXVXVXVXVXVXVXVXVXVXVXVXVXVXVXVXVXVXVXVXVXVXVXVXVXVXVXVX",
"VXVXVXVXVXVXVXVXVXVXVXVXVXVXVXVXs <XV uXsXVXVXVXVXVXVXVXVXVXVXVXVXVXVXVXVXVXVXVXVXVXVXVXVXVXVXVXVXVXVXVXVXVXVXVXVXVXVXVXVXVXVXVX",
"VXVXVXVXVXVXVXVXVXVXVXVXVXVXVXVXVXB gXZ.qXVXVXVXVXVXVXVXVXVXVXVXVXVXVXVXVXVXVXVXVXVXVXVXVXVXVXVXVXVXVXVXVXVXVXVXVXVXVXVXVXVXVXVX",
"VXVXVXVXVXVXVXVXVXVXVXVXVXVXVXVXVXb qXV 1XVXVXVXVXVXVXVXVXVXVXVXVXVXVXVXVXVXVXVXVXVXVXVXVXVXVXVXVXVXVXVXVXVXVXVXVXVXVXVXVXVXVXVX",
"VXVXVXVXVXVXVXVXVXVXVXVXVXVXVXVXVXVXb 9 b VXVXVXVXVXVXVXVXVXVXVXVXVXVXVXVXVXVXVXVXVXVXVXVXVXVXVXVXVXVXVXVXVXVXVXVXVXVXVXVXVXVXVX",
"VXVXVXVXVXVXVXVXVXVXVXVXVXVXVXVXVXVXVXT VXVXVXVXVXVXVXVXVXVXVXVXVXVXVXVXVXVXVXVXVXVXVXVXVXVXVXVXVXVXVXVXVXVXVXVXVXVXVXVXVXVXVXVX",
"VXVXVXVXVXVXVXVXVXVXVXVXVXVXVXVXVXVXVXVXVXVXVXVXVXVXVXVXVXVXVXVXVXVXVXVXVXVXVXVXVXVXVXVXVXVXVXVXVXVXVXVXVXVXVXVXVXVXVXVXVXVXVXVX"
};
