/* XPM */
static char *_[] = {
/* columns rows colors chars-per-pixel */
"41 53 187 2 ",
"   c #000000",
".  c #0C0101",
"X  c #0D0A0A",
"o  c #150001",
"O  c #1C0001",
"+  c #190609",
"@  c #161213",
"#  c #250104",
"$  c #2A0004",
"%  c #220408",
"&  c #2A040A",
"*  c #330004",
"=  c #3A0005",
"-  c #35030A",
";  c #3B020A",
":  c #221D1D",
">  c #2F1515",
",  c #3C1716",
"<  c #2A2627",
"1  c #272425",
"2  c #322927",
"3  c #362A28",
"4  c #373131",
"5  c #450103",
"6  c #4B0004",
"7  c #540002",
"8  c #5B0002",
"9  c #5B0109",
"0  c #57070E",
"q  c #490A12",
"w  c #471C1D",
"e  c #591112",
"r  c #5B131B",
"t  c #531D1C",
"y  c #57181B",
"u  c #630002",
"i  c #6C0002",
"p  c #630209",
"a  c #6D030B",
"s  c #650C0E",
"d  c #6C0D0E",
"f  c #730003",
"g  c #7A0105",
"h  c #76010A",
"j  c #7B010A",
"k  c #740D0E",
"l  c #7A0D0F",
"z  c #610612",
"x  c #6D0310",
"c  c #6A0E17",
"v  c #7D0112",
"b  c #770D14",
"n  c #7C0E14",
"m  c #750E18",
"M  c #7B0E1B",
"N  c #631113",
"B  c #721017",
"V  c #7A1116",
"C  c #761018",
"Z  c #7B121A",
"A  c #7F0E22",
"S  c #671221",
"D  c #6E1523",
"F  c #7D1225",
"G  c #751E21",
"H  c #791E23",
"J  c #4F2F34",
"K  c #573F3F",
"L  c #732225",
"P  c #7B2224",
"I  c #7C252C",
"U  c #762429",
"Y  c #653738",
"T  c #633532",
"R  c #59463E",
"E  c #4B4342",
"W  c #524543",
"Q  c #525B4D",
"!  c #5D5553",
"~  c #5E5D54",
"^  c #664744",
"/  c #714640",
"(  c #7F4749",
")  c #744E56",
"_  c #6C5D54",
"`  c #645F56",
"'  c #7E5157",
"]  c #785C51",
"[  c #606054",
"{  c #766158",
"}  c #79615A",
"|  c #6F6766",
" . c #796F6E",
".. c #7D6E66",
"X. c #840004",
"o. c #83020D",
"O. c #88030E",
"+. c #850213",
"@. c #8A0515",
"#. c #860815",
"$. c #8A0916",
"%. c #860519",
"&. c #8D071D",
"*. c #8C071B",
"=. c #860919",
"-. c #86091E",
";. c #820E1B",
":. c #8B0918",
">. c #8A0A19",
",. c #8A0A18",
"<. c #8B0A1A",
"1. c #8A091A",
"2. c #8A0A1C",
"3. c #8D091E",
"4. c #880E1D",
"5. c #90041A",
"6. c #83131C",
"7. c #8A111C",
"8. c #800F22",
"9. c #820F23",
"0. c #810D22",
"q. c #850F23",
"w. c #880A21",
"e. c #881924",
"r. c #821823",
"t. c #8B212B",
"y. c #8B2A31",
"u. c #8C4547",
"i. c #874648",
"p. c #8F4648",
"a. c #844143",
"s. c #934547",
"d. c #994547",
"f. c #9A454B",
"g. c #9B484E",
"h. c #91444A",
"j. c #944C53",
"k. c #9A4C53",
"l. c #995058",
"z. c #9E5B61",
"x. c #A25F65",
"c. c #A4636B",
"v. c #AC6B74",
"b. c #AF737B",
"n. c #AC797F",
"m. c #B0747D",
"M. c #AF7E85",
"N. c #B07B83",
"B. c #8E8987",
"V. c #8F8C8A",
"C. c #938E8A",
"Z. c #9D8E85",
"A. c #9E9693",
"S. c #B28088",
"D. c #B48F95",
"F. c #B89198",
"G. c #B7989D",
"H. c #ABA2A0",
"J. c #BDAFA8",
"K. c #AEB0A9",
"L. c #B5B1A9",
"P. c #B3B7B0",
"I. c #B5BEB2",
"U. c #C6BAB8",
"Y. c #CCC1BC",
"T. c #C9BEC4",
"R. c #C7C0C5",
"E. c #C9C2C6",
"W. c #CAC4C9",
"Q. c #CEC9CF",
"!. c #D2CFCF",
"~. c #CECBD0",
"^. c #CFCED3",
"/. c #D0D1D6",
"(. c #DED8D7",
"). c #D2D4D9",
"_. c #D3D9DD",
"`. c #DED3D5",
"'. c #E0DCD7",
"]. c #D4DBE0",
"[. c #D6E2E6",
"{. c #D7E1E6",
"}. c #E8E3E0",
"|. c #EAEEEA",
" X c #F0EBE8",
".X c #F2F6EE",
"XX c #FFFFFB",
/* pixels */
"    + y D F 9.9.9.9.9.9.9.9.9.9.9.A A 9.9.9.9.9.9.9.9.9.9.9.9.9.q.0.9.F S &       ",
"  o r ;.w.3.&.&.&.&.&.*.*.*.*.*.*.*.*.*.*.*.*.*.*.*.*.*.*.*.*.*.*.*.&.-.q.c o     ",
"  % M &.&.3.2.<.<.<.<.<.<.<.<.<.<.<.<.<.<.<.<.<.<.<.<.<.<.<.<.<.<.<.3.=.-.;.&     ",
"  % M 3.1.2.<.<.<.<.<.$.<.<.$.$.$.$.$.$.$.$.$.$.$.$.$.$.$.$.$.$.<.<.<.<.=.4.-     ",
"  # =.5.=.=.$.$.$.$.$.$.$.@.@.@.@.@.@.@.@.@.@.@.@.@.@.@.@.@.@.@.1.1.1.=.=.2.-     ",
"  $ %.5.#.#.@.@.@.@.@.@.@.@.@.@.@.@.@.@.@.@.@.@.@.@.@.@.@.@.@.@.@.@.1.=.#.=.-     ",
"  # +.@.#.$.$.@.@.@.@.@.$.$.@.@.@.@.@.@.@.@.$.$.$.$.$.@.@.@.@.@.1.@.@.@.=.&.-     ",
"  # +.@.@.@.@.@.@.+.+.@.@.+.@.@.+.O.O.@.@.O.X.X.X.X.X.+.#.#.@.@.@.@.@.+.+.+.*     ",
"  # v @.@.@.+.+.+.+.o.o.o.o.o.o.o.o.O.@.o.,.v.b.b.m.v.$.o.+.@.@.@.@.+.+.+.+.*     ",
"  $ +.+.@.@.@.+.+.o.o.o.o.o.o.o.o.o.+.o.X.S.{.].].{./.7.o.o.@.1.@.@.+.+.+.+.*     ",
"  $ +.+.O.O.@.+.o.X.j j j o.o.o.o.+.j j N._.~.~.Q.^.E.4.o.o.o.+.+.+.+.+.+.+.=     ",
"  $ +.o.o.o.o.j j g j j j j o.o.j g e.F._.^.^.^.^./.W.;.j o.o.o.+.+.+.+.+.+.=     ",
"  $ v o.o.o.o.j j j j j j j g g r.c.T._.^.^.^.^.^./.W.;.j j j j j +.+.+.+.+.=     ",
"  # j o.o.o.o.j j j j j j 7.f.M.T._./.^.^.^.^.^.^./.W.6.j j j j j o.+.o.o.+.=     ",
"  # j o.o.o.o.j j j j g x.Q./._./.^.^.^.^.^.^.^.^./.W.Z j j j j j j j o.o.+.=     ",
"  # j o.o.o.o.j j j j f N.{.Q.~.^.^.^.^.^.^.^.^.^./.W.;.j j j j j j j j o.+.=     ",
"  # h o.o.j o.j j j j f n.].Q.^.^.^.^.^.^.^.^.^.^./.W.n g j j g j j j j j +.=     ",
"  # h j j j j j j j j f M.{./.)._._.^.^.^.^.^.^.^./.W.n f h j g f j j j j o.=     ",
"  $ h j j j j j j j j f y.k.g.k.l.D./.^.^.^.^.^.^./.W.n f h h g g j j j j j =     ",
"  $ j j j j j j j j j j f f f f f f G._.^.^.^.^.^./.W.V f h h g g j j j j j =     ",
"  $ h j j j j j j j j j j j j j b f l._.Q.^.^.^.^./.W.V f h g f g g j j j j ;     ",
"  % x j h h j j j j j j g j j j j g g.).^.^.^.^.^./.W.n f j j f g g j h h v ;     ",
"  + q z p f j g g j j j g g g g j g f.).^.^.^.^.^./.W.n f j f f g g j a 9 0 &     ",
": W K ^ e u j j j j j j j j g g j g f.).^.^.^.^.^./.W.n f j f f g j h 8 T ^ W 4 X ",
"! Y.K.L.Y 8 h h f f f f f f f i h i h.).^.^.^.^.^./.W.n f f f f f j h 0 Z.I.P.H.: ",
" .XX|. X' z Z C C C C C C C B m C a j.).^.^.^.^.^./.W.r.b C m M V Z C t U..X|.(.< ",
"| }.!.`.) r U L L L L L L L I t.t.6.z.).^.^.^.^.^./.W.I G U P H G P L t J.'./.W.1 ",
"E A.V.C.J 5 u u u u 8 8 u 8 9 7 9 7 ( ).^.^.^.^.^./.W.s 8 p p u u u u 5 ..C.C.B.: ",
"2 ` Q [ w 8 f f f f f f f f i i a i p.).^.^.^.^.^./.W.b i f f f f f i 5 R ~ ~ ! @ ",
"3 { _ ] y u f f f f f i f f f f g f d.).^.^.^.^.^./.W.l f f f f f f i 7 / } _ W X ",
"X , e N p i f f f f f i f f g g g g d.).^.^.^.^.^./.W.l i f f f f i i 8 N r > X   ",
"  $ p u u i f f f f f f f f f f f f s.).^.^.^.^.^./.W.k i f i i i i i i i i $     ",
"  # u i i i i i i i f f f f f f f i s.).^.^.^.^.^./.W.k i i i i i i i i i i *     ",
"  O u i i i i i i i f f f f f f f i s.).^.^.^.^.^./.W.k i i i i i i i i i i *     ",
"  O i f i i i i i i i f f f f f f i s.).^.^.^.^.^./.W.k i i i i i i i i i i *     ",
"  O u i i i i i i i i f f i i i a i u.).^.^.^.^.^./.W.k i i i i i i i i i i *     ",
"  O u i u i i i i i i i i i i i a i u.).^.^.^.^.^./.W.k i i i i i i i i i i *     ",
"  O u i u u i i i i i i i i i i i i u.).^.^.^.^.^./.W.d u i i i i i i i i i *     ",
"  O 8 i u u i i i i u u i i i i i u i.).^.^.^.^.^./.W.d u u u u i i i i i i *     ",
"  O 8 u u u i i u u u u u u i u u u i.).^.^.^.^.^./.W.d u u u u u u u u u u $     ",
"  o 8 u u u u u u u u u u u u u u u i.).^.^.^.^.^./.W.d u u u u u u u u u u $     ",
"  o 7 u 8 u u u 8 8 8 8 u u u u p 8 i._./././././.).W.s 8 u u u u u u u u u $     ",
"  o 7 u 8 8 8 8 8 8 8 8 u u u u p 8 a.W.R.E.E.E.E.W.U.s 8 8 8 8 8 u u u u 8 #     ",
"  o 7 8 8 8 8 8 8 8 8 8 8 8 u u 8 8 9 s s s s s s s s 8 8 8 8 8 8 8 8 8 8 8 O     ",
"  O 7 8 8 8 8 8 8 8 8 8 8 8 8 8 8 8 8 8 8 8 8 8 8 8 8 8 8 8 8 8 8 8 8 8 8 7 o     ",
"  O 7 8 7 7 7 8 8 8 8 8 8 8 8 8 8 8 8 8 8 8 8 8 8 8 8 8 8 8 8 8 8 7 7 7 8 6 .     ",
"  O 6 7 7 7 7 7 7 7 7 7 7 7 7 7 7 7 7 7 7 7 7 7 7 7 7 7 7 7 7 7 7 7 7 7 7 6 .     ",
"  O 6 7 7 7 7 7 7 7 7 7 7 7 7 7 7 7 7 7 7 7 7 7 7 7 7 7 7 7 7 7 7 7 7 7 7 5 .     ",
"  o 5 6 6 6 6 6 6 7 7 7 7 7 7 6 7 7 7 7 6 7 7 7 7 7 7 7 7 7 7 6 7 6 6 6 6 = .     ",
"  . = 6 6 6 6 6 6 6 6 6 6 6 6 6 6 6 6 6 6 6 6 6 6 6 6 6 6 6 6 6 6 6 6 6 6 * .     ",
"    $ 6 6 6 6 6 6 6 6 6 6 6 6 6 6 6 6 6 6 6 6 6 6 6 6 6 6 6 6 6 6 6 6 6 6 $ .     ",
"    o = 6 6 6 6 6 6 6 6 6 6 6 6 6 6 6 6 6 6 6 6 6 6 6 6 6 6 6 6 6 5 5 5 = o       ",
"      . O O O O O O O O O O O O O O O O O O O O O O O O O O # O O O o o .         "
};
