/* XPM */
static char *_[] = {
/* columns rows colors chars-per-pixel */
"41 53 192 2 ",
"   c #000000",
".  c #0C0101",
"X  c #0D0A0A",
"o  c #150001",
"O  c #1C0001",
"+  c #190609",
"@  c #161213",
"#  c #250104",
"$  c #2A0004",
"%  c #220408",
"&  c #2A040A",
"*  c #330004",
"=  c #3A0005",
"-  c #35030A",
";  c #3B020A",
":  c #221D1D",
">  c #2F1515",
",  c #3C1716",
"<  c #292526",
"1  c #342A28",
"2  c #373131",
"3  c #450103",
"4  c #4B0004",
"5  c #540002",
"6  c #5B0001",
"7  c #58050C",
"8  c #490A12",
"9  c #471C1D",
"0  c #5B131B",
"q  c #531D1C",
"w  c #581619",
"e  c #630102",
"r  c #6C0002",
"t  c #620309",
"y  c #6A0009",
"u  c #650D0E",
"i  c #730003",
"p  c #7A0105",
"a  c #75010A",
"s  c #7B010B",
"d  c #7A0A0A",
"f  c #610612",
"g  c #6A0A14",
"h  c #7D0112",
"j  c #790B13",
"k  c #7B0E1B",
"l  c #750913",
"z  c #631113",
"x  c #7D1316",
"c  c #761018",
"v  c #7A131B",
"b  c #791B1C",
"n  c #731117",
"m  c #7F0E22",
"M  c #6B1422",
"N  c #7D1225",
"B  c #771B20",
"V  c #7C1C22",
"C  c #4F2F34",
"Z  c #573F3F",
"A  c #732225",
"S  c #7C2223",
"D  c #7A252B",
"F  c #653738",
"G  c #633532",
"H  c #692627",
"J  c #59463E",
"K  c #4B4342",
"L  c #524543",
"P  c #525B4D",
"I  c #5D5553",
"U  c #5E5D54",
"Y  c #664744",
"T  c #714640",
"R  c #744E56",
"E  c #6C5D54",
"W  c #645F56",
"Q  c #7E5157",
"!  c #785C51",
"~  c #606054",
"^  c #766158",
"/  c #79615A",
"(  c #6F6766",
")  c #796F6E",
"_  c #7D6E66",
"`  c #840005",
"'  c #83010D",
"]  c #8A020C",
"[  c #850213",
"{  c #8A0515",
"}  c #8A0917",
"|  c #860519",
" . c #8C071B",
".. c #850A1C",
"X. c #8A0A1A",
"o. c #860815",
"O. c #90041A",
"+. c #83181E",
"@. c #8A151F",
"#. c #800F22",
"$. c #820E22",
"%. c #850F23",
"&. c #880A21",
"*. c #841C24",
"=. c #8E1B26",
"-. c #861722",
";. c #892027",
":. c #85232B",
">. c #8D2B2D",
",. c #83292D",
"<. c #962A34",
"1. c #8E3037",
"2. c #873739",
"3. c #93373E",
"4. c #8C3E40",
"5. c #9C3A44",
"6. c #973F47",
"7. c #884B4D",
"8. c #96454A",
"9. c #8B4E51",
"0. c #9A4C53",
"q. c #8C5153",
"w. c #9B5155",
"e. c #9C5159",
"r. c #925254",
"t. c #9F5B63",
"y. c #A55A63",
"u. c #9C6266",
"i. c #A1686D",
"p. c #A7626A",
"a. c #A46C73",
"s. c #AB7579",
"d. c #A77B7E",
"f. c #AB7B82",
"g. c #B17B84",
"h. c #8E8987",
"j. c #8F8C8A",
"k. c #938E8A",
"l. c #9D8E85",
"z. c #9E9693",
"x. c #AE8187",
"c. c #AF8C8F",
"v. c #B1888E",
"b. c #B0868D",
"n. c #B58C93",
"m. c #B6959A",
"M. c #B6999D",
"N. c #BA999F",
"B. c #B59296",
"V. c #B79EA2",
"C. c #BA9EA3",
"Z. c #ABA2A0",
"A. c #BBA0A7",
"S. c #BDA5AA",
"D. c #BEADAC",
"F. c #AEB0A9",
"G. c #B5B1A9",
"H. c #BFABB1",
"J. c #B3B7B0",
"K. c #B5BEB2",
"L. c #C3AEB2",
"P. c #C1B5BA",
"I. c #C6B9BE",
"U. c #C9BCB4",
"Y. c #CCC1BC",
"T. c #C7BEC3",
"R. c #C9BEC4",
"E. c #C8C1C6",
"W. c #CBC6CB",
"Q. c #CDCACF",
"!. c #D2CFCF",
"~. c #CFCED3",
"^. c #CECCD1",
"/. c #CFCFD4",
"(. c #CFCDD2",
"). c #D0CFD4",
"_. c #CFD0D4",
"`. c #D0D1D6",
"'. c #D1D1D6",
"]. c #DED8D7",
"[. c #D2D6DB",
"{. c #D3DADF",
"}. c #D4D9DE",
"|. c #DED3D5",
" X c #E0DCD7",
".X c #D5DCE1",
"XX c #D7E1E6",
"oX c #EAEEEA",
"OX c #E8E3E0",
"+X c #F0EBE8",
"@X c #F2F6EE",
"#X c #FFFFFB",
/* pixels */
"    + w M N $.$.$.$.$.$.$.$.$.$.$.m m $.$.$.$.$.$.$.$.$.$.$.$.$.%.$.$.N M &       ",
"  o 0 ..&.&. . . . . . . . . . . . . . . . . . . . . . . . . . . . . ...%.n o     ",
"  % k  . . . .X.X.X.X.X.X.X.X.X.X.X.X.X.X.X.X.X.X.X.X.X.X.X.X.X.X.X. .| ....&     ",
"  % k  .|  .X.X.X.X.X.} X.X.} } } } } } } } } } } } } } } } } } X.X.X.X.| ..-     ",
"  # | O.| | X.} } } } } } { { { { { { { { { { { { { { { { { { { X.X.X.| |  .-     ",
"  $ | O.o.o.{ { { { { { { { { { { { | | | | { { { { { { { { { { { | | | o.| -     ",
"  # [ { o.} } { { { { { } } } } { ' ' ' ' ] ] { { { { { { { { { | { { { |  .-     ",
"  # [ { { { { { { [ [ { { [ ` ' X.<.5.6.5.<.@.] ` ] { [ o.o.{ { { { { [ [ [ *     ",
"  # h { { { [ [ [ [ ' [ ` ' 8.n.I.Q.~.'./.^.E.C.p.=.` [ [ [ { { { { [ [ [ [ *     ",
"  $ [ [ { { { [ [ ' ' p =.N.[.{.'./.~.~.~.).'.[.{.R.y.' ' [ { | { { [ [ [ [ *     ",
"  $ [ [ ' ' { [ ' ' p ;.I.}.~.~.~.~.~.~.~.~.~.~.^.'..Xg.' ' ' [ [ [ [ [ [ [ =     ",
"  $ [ ' ' ' ' s s p s A.}.^.~.~.~.~.~.^.~.~.~.~.~.~.~..Xp.p [ ' [ [ [ [ [ [ =     ",
"  $ h ' ' ' ' s s i e.}.^.).~.~.~.~.[..X[.~.~.~.~.~.~.'.E.-.s s s [ [ [ [ [ =     ",
"  # s ' ' ' ' s s p C.[.~.~.~.~.~.[.H.a.N.`.~.~.~.~.~.^..Xt.i s s ' [ ' ' [ =     ",
"  # s ' ' ' ' s p +.W.'.~.~.~.~.'.I.V i d A.[.~.~.~.~.^.}.v.i d s s s ' ' [ =     ",
"  # s ' ' ' ' s i 3.'.~.~.~.~.^.}.b.i j i i..XQ.~.~.~.~.[.C.s s s s s s ' [ =     ",
"  # a ' ' ' ' d i 0.[.~.~.~.~.^..Xf.i j i a..XQ.~.~.~.~.[.S.d p s s s s s [ =     ",
"  # a s s s s s i e.{.~.~.~.~.^..Xf.i j i n.}.^.~.~.~.~.[.C.s p p s s s s ' =     ",
"  $ a s s s s s i e.[.^.~.~.~.Q.}.f.i s *.E.'.~.~.~.~.^.}.v.i p p s s s s s =     ",
"  $ s s s s s s i e.XX`.[.[.[.'.XXx.i i i.}.^.~.~.~.~.^..Xu.i d p s s s s s =     ",
"  $ a s s s s s p *.e.0.0.0.0.0.e.1.i +.R.'.~.~.).).~./.^.:.i p p p s s s s ;     ",
"  % y s a a s p s p i i i i i p p p p s.}.Q.~.~.).~.~.}.m.i s i p p s a a h ;     ",
"  + 8 f t a s s s s s s s s p p s p >.Q.'.).~.~.~.).~.[.4.i s i p p s y 7 7 &     ",
": L Z Y w e s s s s s s s s p p p p m.}.Q.~.~.~.~.^.}.m.i s i i p s a 6 G Y L 2 X ",
"I Y.F.G.F 6 a a i i i i i i i a r 8.[.~.~.~.~.~.~._.Q.,.r a i i i s a 7 l.K.J.Z.: ",
") #XoX+XQ f v c c c c c c c n c v P.[.~.~.~.~.~.^.}.f.l v v k k v v n q U.@XoX].< ",
"( OX!.|.R 0 D A A A A A A A D -.g.}.^.~.~.~.~.~.[.P.:.B A A V V B S A q D. X'.E.< ",
"K z.j.k.C 3 e e e e 6 6 e e 6 H W.'.~.~.~.~.~.~.}.9.6 t e e e e e e e 3 _ k.k.h.: ",
"1 W P ~ 9 6 i i i i i i i i r B.}.^.~.~.~.~.^.}.M.i i i i i i i i i r 3 J U U I @ ",
"1 ^ E ! q e i i i i i r i i 8.[.~.~.~.~.~.~.).~.>.i p i i i i i i i r 5 T / E L X ",
"X , w z t r i i i i i r r d L.[.~.~.~.~.~.^..Xs.i p i i i i i i i r r 6 z 0 > X   ",
"  $ t e r r i i i i i i r i..X^.~.~.~.~.~.[.I.x i i i i r i r r r r r r r r $     ",
"  # e r r r r r r r i r S W.'.~.~.~.~.~.~.}.w.r i i i i r r r r r r r r r r *     ",
"  O e r r r r r r r i r c.}.^.~.~.~.~.~.{.C.i i i i i r r r r r r r r r r r *     ",
"  O r i r r r r r r r 4.[.~.~.~.~.~.~.~.).2.r i r r r r r r r r r r r r r r *     ",
"  O e r r r r r r r a D.[.~.~.~.~.~.^..Xd.r i r r r r r r r r r r r r r r r *     ",
"  O e r e r r r r e u..X^.~.~.~.~.~.'.I.b r r r r r r r r r r r r r r r r r *     ",
"  O e r e e r r e b E.'.~.~.~.~.~.~.'.T.M.C.V.C.V.V.V.V.S.2.e r r r r r r r *     ",
"  O 6 r e e r r e r.}.^.~.~.~.~.~.~.~.'.[.[.[.[.[.[.[.[.XXq.e r r r r r r r *     ",
"  O 6 e e e r r 6 q.}.~.~.~.~.~.~.~.~.~.~.~.~.~.~.~.~.^.[.9.6 e e e e e e e $     ",
"  o 6 e e e e e 6 q.}.~.~.~.~.~.~.~.~.~.~.~.~.~.~.~.~.~.}.9.6 e e e e e e e $     ",
"  o 6 e 6 e e e 6 q..X).'.'.'.'.'.'.'.'.'.'.'.'.'.'.'.)..Xq.6 e e e e e e e $     ",
"  o 6 e 6 6 6 6 6 7.Q.T.E.E.E.E.E.E.E.E.E.E.E.E.E.E.E.T.Q.7.6 6 6 e e e e 6 #     ",
"  o 6 6 6 6 6 6 6 t u u u u u u u u u u u u u u u u u u u t 6 6 6 6 6 6 6 6 O     ",
"  O 5 6 6 6 6 6 6 6 6 6 6 6 6 6 6 6 6 6 6 6 6 6 6 6 6 6 6 6 6 6 6 6 6 6 6 5 o     ",
"  O 5 6 5 5 6 6 6 6 6 6 6 6 6 6 6 6 6 6 6 6 6 6 6 6 6 6 6 6 6 6 6 6 6 6 6 4 .     ",
"  O 4 5 5 5 5 6 6 6 6 6 6 6 6 6 6 6 6 6 6 6 6 6 6 6 6 6 6 6 6 6 6 6 5 6 6 4 .     ",
"  O 4 5 5 5 5 5 5 5 5 5 6 6 6 6 5 5 5 5 5 5 5 5 5 6 6 6 6 6 6 6 5 5 5 5 5 3 .     ",
"  o 3 4 4 4 4 4 4 5 5 5 5 5 5 4 5 5 5 5 4 5 5 5 5 5 5 5 5 5 5 4 4 4 4 4 4 = .     ",
"  . = 4 4 4 4 4 4 4 4 4 4 4 4 4 4 4 4 4 4 4 4 4 4 4 4 4 4 4 4 4 4 4 4 4 4 * .     ",
"    $ 4 4 4 4 4 4 4 4 4 4 4 4 4 4 4 4 4 4 4 4 4 4 4 4 4 4 4 4 4 4 4 3 3 4 $ .     ",
"    o = 4 4 4 4 4 4 4 4 4 4 4 4 4 4 4 4 4 4 4 4 4 4 4 4 4 4 4 4 4 3 3 3 = o       ",
"      . O O O O O O O O O O O O O O O O O O O O O O O O O O # O O O o o .         "
};
