/* XPM */
static char *result[] = {
/* columns rows colors chars-per-pixel */
"64 64 59 1 ",
"  c #3E0D14",
". c #3F1114",
"X c #451314",
"o c #4C1615",
"O c #4E1815",
"+ c #501716",
"@ c #541915",
"# c #5B1C16",
"$ c #611F17",
"% c #681F18",
"& c #5D2016",
"* c #642017",
"= c #682117",
"- c #6A2218",
"; c #732518",
": c #7A2719",
"> c #772819",
", c #7B2919",
"< c #812B1A",
"1 c #8B2F1B",
"2 c #922F1C",
"3 c #8D311B",
"4 c #92321B",
"5 c #99341C",
"6 c #953D1B",
"7 c #9F381C",
"8 c #994B1A",
"9 c #BE441F",
"0 c #C1451F",
"q c #E37C1F",
"w c #C44620",
"e c #C84520",
"r c #C74820",
"t c #CB4920",
"y c #D54D22",
"u c #D94E22",
"i c #DC5122",
"p c #DD5A22",
"a c #E34F23",
"s c #E35423",
"d c #EB5624",
"f c #E25C22",
"g c #F15824",
"h c #DD6421",
"j c #DE6821",
"k c #E46522",
"l c #E86222",
"z c #E26C21",
"x c #EC6E22",
"c c #F16C23",
"v c #E37321",
"b c #E57E20",
"n c #E7871F",
"m c #E78220",
"M c #E88420",
"N c #E78820",
"B c #E98920",
"V c #F58B21",
"C c #F69021",
/* pixels */
"oooooooooooooooooooooXooooooooooooooooooooooooooooooXooooooooooo",
"ooXXXXXXXXXXXXXXXXXXXoXXXXXXXXXXXXXXXXXXXoXXXXXXXXXXXXXXXXXXXXoo",
"oX$>;;;;;;;;;-;;;;;>;o$:;;;;;;;;;;;;;;;;-o$:;;;;;;-;;;;;;;;:;+oo",
"oX4supipppiippppppiu0X5suiiiiipsiiiiipiirX5sippippppppfsppuuy@Xo",
"oX4sqMMMbMbMnnbMbMbkeX4lnqbMbbMbMbbMnqqswX4svMMbnqMMbMMbMnnft@Xo",
"oX2lmMbMMMMMqnbMMMMxeX2xnnMMMMMMMMMMnnnfwX5lmMMMMMMMMMMMMqnzy@oo",
"o.2lmMMMMMMMMbMMbMNzeX2xnbMMMMMMMMMMbMqfeX5lmNMMMbMMMMMMbMnkt@X+",
"oX3fmNNMVMMMMnVMNMNxeX2xnnNMMBMMMMMBMnnpeX5fMNNmMNMMMMMMVMnky@oo",
"o.4shjvzzzzvzzvzzvjitX4djkzzkzkzxkzzzzhs0X5djzzvzzqzzzqzzzziy+oo",
"oX4suuuuuuuyuyuuuuuutX5syyyyyyyyyyyyyyyu0X5syyuuuyyuuyyuuuyuy+oo",
"oX3suuiuuuuiiyiyuuuitX4syuiuuiiiiuuuiuus0X5suiuuuuuuiuuuuuuiy@Xo",
"o.3syuuuuuiyyiyiiuuirX4syuiyiyuyuuuuuuui0X5syyiuuuuuuuuuuuuiy+oo",
"o.4disisissssssisisstX5dissisississasiisyX7dipsisssisissssisu+oo",
"oo=<,,,,,,:,<,,,,,,,:X$<,,,,,,,,<<,,,,,,;X*<,,,,,,,,<<:,,,,,>ooo",
"oo#-=%-%---$Xo----%--;-----%%%--Xo-%%%%%%>--%-==%---X+--%%---ooo",
"o.6lpkffius9X>sipkpkpphpfpkfkfia$;spfkfkfpfpffpkfpsu#,sihffhp#Xo",
"o 8VbmMNjui9X>uzNMMMMMMbMMMbMMzu#>svMMMMMMMMbMMMnMky#>sqmMMMb*Xo",
"o 8VmmbNvuiwX;pbMMMMMMMMMMMMMMbi#;fnMnbMbMMMMMMMnnxy@:fnMMMMb&oo",
"+ 8VMMMMvyi9X;ibMNMMMMMbMMMbMMbi#;fnbMbMMMMMMMbMqnzy@:fqMMbMb&Xo",
"oX8CMBMMzys9X;ivMMMMMMBMMMNNMBvu$;sbnVNNMMBMMMNNBnky#:fnNMNMm&Xo",
"o.6xkkzjiyi9X>upkkzzxkzkzzzkzkpu#:ufzzkzxkkzzkzkxjiy#,spzkzzh#Xo",
"oX3ayyyyuus9X>iuyyyyyyyyyyyyyyuu#;ayyyyyyyyyyyyyyyiy@>iuyuyut#oo",
"oX4suiuuuui9X;uuiuiuiiuiuiuiuuuu#;iuiuyiiiuuiuiuuuuu#,iuuuuiy#Xo",
"oX4syuuuuui9X;iyiyyiyuuuuuuuuuuy#;iuuyiiyuuuiyuuuuuu#;iuuuuit#oo",
"oX4disssiidwX:sssississsisississ*,ssssissississisisi#,ssssssu#oo",
"oX%,::>:,,,-X+,,>,>::<,:,,,:,::,o+,:::,:,<,,,,,::,,,o@,,,>>,>ooo",
"oX$,::::::::<<::>,:,;X#<::>::::,<,::;::,-X*<>:::::::,<::>::::ooo",
"oX4dsfffffffsfffffssyX5diffffffdffffffsstX7difffffffsffdffssu+Xo",
"+X4sbmbMbMMMbMMbqnqk0X4lbmMbMbbMMbbMnMvswX4svMbMbmbMbMbMbmbpy@oo",
"o.4lmmMMMMMMMMbMMMnzeX2xnMMMMMMMMMMMqnnkwX5lNMMMMMMMMMMMMNmzt@oo",
"oX3lmMMbbMMMbMMMbMNxeX2xmbMMMMMMMbMMMMnfeX5kMMMMMMMbMMbMMMNxt@Xo",
"oX3fmNMNMMMMMMMVMMMxeX2xNNMMMMMMMMMMMnnf0X5dMNMMMMMNBMMMNMNky@oo",
"o 4sjzvzzzvzzzvzqzzs0X4djzzvzzvzvzzvzvhieo5sjzzvzzvzzvzzvzziy+oo",
"oX4syuyyuuuyuuuyyuyi0X5syuuyuuyuuuuuuuyi0X5syuuuyuuuuuuyuuyuy+oo",
"+X3syuuiiuyiiyuiyuuiyX4suiiuiuuiuuuuiuus0X5suuuuyiuiuiuuiiyiy@Xo",
"o.4suuuiuuiyiiuuuuus0X5syyyiyiuuiuiuuuuu0X5syuuiiuiyuuiuuuuiy@oo",
"o.4suiiiiiiiuuiiaius0o5diiiiiuiiuusiiiis0X7dusuiiuuiuuiiiiisy+Xo",
"oo#---------;;------%X@---------;;------%X#---------;>------=ooo",
"oX%,,,:,,,,;X@,,:,:::<<,:,,,::,,o+,:::,::<:>,:::,:,,o@<:::,,,+oo",
"+X6cklkksid0X,sskkkkkkkkkkkkxlsa#:sfkxklkkkxlkkkkkss@,sfzklkh#Xo",
"oX8VnmmNzyi9X;uvnnMNNMMMMNMMMNvu#;pqBnnMMMMMNMMMnnky#>sbnnMMM#oo",
"o 8VqmNNvys9X;ibnnMMMMMMMMMMMMbi$;fnMMbMMMMMMMMMMnzy@>fbqnMMb#oo",
"o 8VMMbMvui9X;inqbMMMMMbMMqnMMbu#;fqqMnqMbMbMMbnbNzy#>fnMbMMb&Xo",
"oX8VMBMBzys9X;ivVnMMMMBMMBMnNMvu$;snBBBnMNnVMBMnMBxy@:snVnNMm&Xo",
"o.6xjkzkiii9o;upkkzzxkzkkzzkzkpu#;ipzzkzxkkzkjkzxkuy@,upjkjzh#Xo",
"o.4ayyyyuyi9X;uuyyyyyyyyyuyyyyuu$;ayyyyyyyyyyyyyyyuy#>syyuuut#oo",
"+X4suiuuiui9X;iuiuuuiiuuiyiiuuiu#:uuiuuuuiuiuiiiiiiu#:iiuuiiy#Xo",
"o.4suuuuuys0X;iyiuiuyuiuiuuuuuuu#;suyiiuuuuiuuuuyuiy@>suuuiit#oo",
"o.4dyiiiuus0X;siiiuiiuiiiiuiiuiu#;siuiuiiuuuiuiiiiiu#,suiuisy#Xo",
"oo@-====---$.o======-;-===--%---oo=--=-=->--*----==-Xo----%-%ooo",
"oX-43313111344113311<X=41111111143311113<X-333111111431311111ooo",
"o.5gsdsdsfdssdfsdssdyX5gsdfsfdsdfssdfssdtX7gsfsssdfsdfsdsfdsi+oo",
"oX1sqqbbMbqbqqbMbbbpeX4fbbbbbbbbqbbbbbviwX5svmbmnqbbbbbbqqqf0@X+",
"oX2lqnMMMMMMnnMMMMBxeo2xmmMMMNMMMNMMMMNkwX5lMMmmMMMMMNMMnnnzy#oo",
"o.3lnbMMMMMMMMMMMbNzeX2xmMMMMMMMMMMMMMmkeX4lMMMMMMMMMMMMnqnzt@X+",
"oX2knMMMNMMMMMNMBBNkrX2xNNNMMNMMMMMMNmmfwX5lMMMNMNMMMMMMMBnky@oo",
"o.4sjvvvvvvvvvvvvvvprX4dvvvvvvvvvvvvvvziwX5sjvvvvvvvvvbvxqqiy@X+",
"oX3syiiuuuuuiiiiuuuitX4syyiiiuiuiiuuiiuirX5syiuuiiiyiuyuuuuuy+Xo",
"oX4puuuuuuiiiuuuuuiitX4syuuuiyuiiuiiuuiirX5suuuuyiuiuiuuuuuuy@oo",
"oX4suuuiuuuuuuiuuiuirX4dyiiuuiuiuuuuuuusrX5suiiuiuuiuuiuauiiy@oo",
"o.3iyyyyyyyyyyyuyyyuwX4pyyyyyyyyyyyuyyyu0X5ityyuyyyyyyyyyyyu0@Xo",
"oo#-********=*******#o#*&***********=***&o#**********%**=$=-%+oo",
"ooXXXoXoXXXooXXXXoXXoooXXooXXooXXXoXXoXXooXooXXooXXXoXXoXXXXXooo",
"oooooooooooooooooo+ooooooooooooooooooooooooooooooooooooooooooooo"
};
