/* XPM */
static char *_[] = {
/* columns rows colors chars-per-pixel */
"41 53 193 2 ",
"   c #000000",
".  c #0C0101",
"X  c #0D0A0A",
"o  c #150001",
"O  c #1C0001",
"+  c #190609",
"@  c #161213",
"#  c #250104",
"$  c #2A0004",
"%  c #220408",
"&  c #2A040A",
"*  c #330004",
"=  c #3A0005",
"-  c #35030A",
";  c #3B020A",
":  c #221D1D",
">  c #2F1515",
",  c #3C1716",
"<  c #292526",
"1  c #362A28",
"2  c #322927",
"3  c #373131",
"4  c #450103",
"5  c #4B0004",
"6  c #540002",
"7  c #5C0001",
"8  c #58050C",
"9  c #490A12",
"0  c #471C1D",
"q  c #5B131B",
"w  c #531D1C",
"e  c #581619",
"r  c #630002",
"t  c #6C0002",
"y  c #620409",
"u  c #6A0009",
"i  c #650D0E",
"p  c #6E090A",
"a  c #730103",
"s  c #7A0105",
"d  c #75020A",
"f  c #7B010A",
"g  c #7B080F",
"h  c #610612",
"j  c #6E0917",
"k  c #7C0411",
"l  c #770A14",
"z  c #760E18",
"x  c #7B0E1B",
"c  c #631113",
"v  c #681213",
"b  c #721017",
"n  c #7C1115",
"m  c #761018",
"M  c #7A121A",
"N  c #7C191A",
"B  c #7F0E22",
"V  c #671221",
"C  c #6E1523",
"Z  c #7D1225",
"A  c #771B20",
"S  c #791E23",
"D  c #4F2F34",
"F  c #573F3F",
"G  c #732225",
"H  c #7B2324",
"J  c #76272B",
"K  c #653738",
"L  c #633532",
"P  c #7C3436",
"I  c #59463E",
"U  c #4B4342",
"Y  c #524543",
"T  c #525B4D",
"R  c #5D5553",
"E  c #5E5D54",
"W  c #664744",
"Q  c #714640",
"!  c #744E56",
"~  c #6C5D54",
"^  c #645F56",
"/  c #7E5157",
"(  c #785C51",
")  c #606054",
"_  c #766158",
"`  c #79615A",
"'  c #6F6766",
"]  c #796F6E",
"[  c #7D6E66",
"{  c #840003",
"}  c #82010D",
"|  c #850213",
" . c #8A0515",
".. c #860915",
"X. c #8A0916",
"o. c #860519",
"O. c #8C071B",
"+. c #850A1C",
"@. c #8A0A19",
"#. c #8B0A1A",
"$. c #8A0919",
"%. c #8A0A1C",
"&. c #8D091E",
"*. c #880E1F",
"=. c #90041A",
"-. c #800F22",
";. c #820E22",
":. c #850F23",
">. c #880A21",
",. c #811D25",
"<. c #8B2127",
"1. c #85222C",
"2. c #902731",
"3. c #8E383A",
"4. c #91363E",
"5. c #8C3741",
"6. c #983842",
"7. c #8E4245",
"8. c #8E484A",
"9. c #864547",
"0. c #97464C",
"q. c #914E55",
"w. c #8F5659",
"e. c #9D5C5F",
"r. c #955457",
"t. c #9D6769",
"y. c #A36269",
"u. c #A1696D",
"i. c #A8616A",
"p. c #A56C73",
"a. c #A96D73",
"s. c #A77075",
"d. c #AA7177",
"f. c #A77278",
"g. c #AF727A",
"h. c #AF7179",
"j. c #A8727A",
"k. c #AC797E",
"l. c #A2787B",
"z. c #B0737B",
"x. c #AB7D82",
"c. c #B17A81",
"v. c #8E8987",
"b. c #8F8C8A",
"n. c #938E8A",
"m. c #9D8E85",
"M. c #9E9693",
"N. c #AE8488",
"B. c #B18B8F",
"V. c #AE8E91",
"C. c #B48D92",
"Z. c #B5969A",
"A. c #B89DA3",
"S. c #ABA2A0",
"D. c #BEADAC",
"F. c #BBA2A6",
"G. c #AEB0A9",
"H. c #B5B1A9",
"J. c #BFACB2",
"K. c #B3B7B0",
"L. c #B5BEB2",
"P. c #C2AEB3",
"I. c #C3B4B9",
"U. c #C4BABE",
"Y. c #C9BCB4",
"T. c #CCC1BC",
"R. c #C7BFC5",
"E. c #C9BDC2",
"W. c #C9C1C6",
"Q. c #CBC6CB",
"!. c #CDC9CE",
"~. c #D2CFCF",
"^. c #CECBD0",
"/. c #CFCED3",
"(. c #CECDD2",
"). c #CFCDD2",
"_. c #D1D1D6",
"`. c #DED8D7",
"'. c #D2D5DA",
"]. c #D4DADF",
"[. c #DED3D5",
"{. c #E0DCD7",
"}. c #D4DDE1",
"|. c #D4DCE1",
" X c #D5DEE2",
".X c #D5DCE1",
"XX c #DCEEF2",
"oX c #D6E3E7",
"OX c #EAEEEA",
"+X c #E8E3E0",
"@X c #F0EBE8",
"#X c #F2F6EE",
"$X c #FFFFFB",
/* pixels */
"    + e C Z ;.;.;.;.;.;.;.;.;.;.;.B B ;.;.;.;.;.;.;.;.;.;.;.;.;.:.;.;.Z V &       ",
"  o q +.>.&.&.&.&.&.&.O.O.O.O.O.O.O.O.O.O.O.O.O.O.O.O.O.O.O.O.O.O.O.&.%.:.b o     ",
"  % x %.%.&.&.#.#.#.#.#.#.#.#.#.#.#.#.#.#.#.#.#.#.#.#.#.#.#.#.#.#.#.&.o.%.+.&     ",
"  % x &.o.&.#.#.#.#.#.X.#.#.X.X.X.X.X.X.X.X.X.X.X.X.X.X.X.X.X.X.#.#.#.#.o.*.-     ",
"  # o.=.o.o.X.X.X.X.X.X.X. . . . . . . . . . . . . . . . . . . .o.o.o.o.o.&.-     ",
"  $ o.=..... . . . . . . . . . . . . . . . . . . . . . . . . . . . .o.o...o.-     ",
"  # |  ...X.X. . . . .X.#.X.X.#.#.#.#.#. . .X.X.X.X.X.X. . . . .o. . . ...%.-     ",
"  # |  . . . . . .| | } { { { { { { { { { { { { { { { { |  . . . . . .| | | *     ",
"  # k  . . .| | | ..{ 6.c.h.h.h.h.h.h.z.z.h.h.h.h.h.z.i.| |  . . . .| | | | *     ",
"  $ | |  . . .| | | s a.XX].}.}.}.}.}.}.}.}.}.}.}.|.oXE...}  .o. . .| | | | *     ",
"  $ | | } }  .| } } a y.].!.^.^.^.^.^.^.^.^.^.^.^.!._.P.| } } | | | | | | | =     ",
"  $ | } } } } f f f a y.}.!././././././././././././.'.P.| f } } | | | | | | =     ",
"  $ k } } } } f f g a y.].!.^.^.^.^.^./././././././.'.P.| f f f f | | | | | =     ",
"  # f } } } } f f g a a.XX].}.}.}.}.}.'././././././.'.P.k f f f f } | } } | =     ",
"  # f } } } } f f f s 4.k.a.d.d.f.j.p.A.'./././././.'.P.g f f f f f f } } | =     ",
"  # f } } } } f f f f s s s s a a a t x.}.^././././.'.P.k f f f f f f f } | =     ",
"  # d } } } } f f f f f f d g d k k l J.'./././././.'.F.f d f s f f f f f | =     ",
"  # d f f f f f f f f f f f f f d d ,.Q._././././.^.|.N.a d f s s f f f f } =     ",
"  $ d f f f f f f f f f f f f f d a 0.'./././././.^.}.y.a d d s s f f f f f =     ",
"  $ f f f f f f f f f f d f f f d a u.}.^./././././.'.7.t d d s s f f f f f =     ",
"  $ d f f f f f f f f f f f f f f s C.].^././././._.!.,.a d s d s s f f f f ;     ",
"  % u f d d f f f f f f s f f f s } I.'./././././._.I.d d f f d s s f d d k ;     ",
"  + 9 h y d f s s s f f s s s s s <.!././././././.].C.a s f d d s s f u 8 8 &     ",
": Y F W e r f f f f f f f f s f s 0.'./././././.^.}.s.a f f d d s f d 7 L W Y 3 X ",
"R T.G.H.K 7 d d d d d d d d a d t p.}.^./././././.].q.t d a a d d f d 8 m.L.K.S.: ",
"] $XOX@X/ h M m m m m m m m b z l A.]./././././././.5.l M M z x M N m w Y.#XOX`.< ",
"' +X~.[.! q J G G G G G G G H <.2.R._./././././._.W.1.A G G H S A H G w D.{._.W.< ",
"U M.b.n.D 4 r r r r 7 7 r 7 8 6 J /././././././.'.F.7 7 r r r r r r r 4 [ n.n.v.: ",
"2 ^ T ) 0 7 d d d a a a a d a r r.]./././././.^.}.x.t d a a a a a a t 4 I E E R @ ",
"1 _ ~ ( w r d a a a a t a a d a k.}.^././././.^.|.e.a d a a a a a a t 6 Q ` ~ Y X ",
"X , e c y t a a a a a t a a s s F.'././././././._.3.a d a a a a a t t 7 c q > X   ",
"  $ y r r t a a a a a a a a a n W._./././././._.Q.N a a a a t t t t t t t t $     ",
"  # r t t t t t t t a a a a a 3._././././././.'.P.d a a t t t t t t a t t t *     ",
"  O r t t t t t t t a a a a t e.}.^././././.^.].B.t a t t t t t t t t t t t *     ",
"  O t a t t t t t t t a a a t N.|.^././././.^.}.u.t a t t t t t t t t t t t *     ",
"  O r t t t t t t t t a a t a D.'././././././.'.8.r t t t t t t t t t t t t *     ",
"  O r t r t t t t t t t t t N Q._././././././.^.H t t t t t t t t t t t t t *     ",
"  O r t r r t t t t t t t t 7.'././././././.'.U.p t t t t t t t t t t t t t *     ",
"  O 7 t r r t t t t r r t r t.}.^./././././.'.Z.r r r r r r r r t t t t t t *     ",
"  O 7 r r r t t r r r r r r V.].^././././.^.}.l.7 r r r r r r r r r r r r r $     ",
"  o 7 r r r r r r r r r r t I.'./././././.^.].w.7 r r r r r r r r r r r r r $     ",
"  o 6 r 7 r r r 7 7 7 7 7 G /._._._._._._._._.P 7 r r r r r r r r r r r r r $     ",
"  o 6 r 7 7 7 7 7 7 7 7 7 9.!.R.W.W.W.W.W.W.U.v 7 r 7 7 7 7 7 7 7 r r r r 7 #     ",
"  o 6 7 7 7 7 7 7 7 7 7 7 y i i i i i i i i i 7 7 7 7 7 7 7 7 7 7 7 7 7 7 7 O     ",
"  O 6 7 7 7 7 7 7 7 7 7 7 7 7 7 7 7 7 7 7 7 7 7 7 7 7 7 7 7 7 7 7 7 7 7 7 6 o     ",
"  O 6 7 6 6 6 7 7 7 7 7 7 7 7 7 7 7 7 7 7 7 7 7 7 7 7 7 7 7 7 7 7 6 6 6 7 5 .     ",
"  O 5 6 6 6 6 6 6 6 6 6 6 6 6 6 6 6 6 6 6 6 6 6 6 6 6 6 6 6 6 6 6 6 6 6 6 5 .     ",
"  O 5 6 6 6 6 6 6 6 6 6 6 6 6 6 6 6 6 6 6 6 6 6 6 6 6 6 6 6 6 6 6 6 6 6 6 4 .     ",
"  o 4 5 5 5 5 5 5 6 6 6 6 6 6 5 6 6 6 6 5 6 6 6 6 6 6 6 6 6 6 5 6 5 5 5 5 = .     ",
"  . = 5 5 5 5 5 5 5 5 5 5 5 5 5 5 5 5 5 5 5 5 5 5 5 5 5 5 5 5 5 5 5 5 5 5 * .     ",
"    $ 5 5 5 5 5 5 5 5 5 5 5 5 5 5 5 5 5 5 5 5 5 5 5 5 5 5 5 5 5 5 5 5 5 5 $ .     ",
"    o = 5 5 5 5 5 5 5 5 5 5 5 5 5 5 5 5 5 5 5 5 5 5 5 5 5 5 5 5 5 4 4 4 = o       ",
"      . O O O O O O O O O O O O O O O O O O O O O O O O O O # O O O o o .         "
};
