/* XPM */
static char *_[] = {
/* columns rows colors chars-per-pixel */
"41 53 192 2 ",
"   c #000000",
".  c #0C0101",
"X  c #0D0A0A",
"o  c #150001",
"O  c #1C0001",
"+  c #190609",
"@  c #161213",
"#  c #250104",
"$  c #2A0004",
"%  c #220408",
"&  c #2A040A",
"*  c #330004",
"=  c #3A0005",
"-  c #35030A",
";  c #3B020A",
":  c #221D1D",
">  c #2F1515",
",  c #3C1716",
"<  c #292526",
"1  c #342A28",
"2  c #373131",
"3  c #450103",
"4  c #4B0004",
"5  c #540002",
"6  c #5B0001",
"7  c #58050C",
"8  c #490A12",
"9  c #471C1D",
"0  c #5B131B",
"q  c #531D1C",
"w  c #581619",
"e  c #630002",
"r  c #6B0002",
"t  c #630309",
"y  c #6A0009",
"u  c #620B0C",
"i  c #6D090A",
"p  c #730103",
"a  c #7A0004",
"s  c #75010A",
"d  c #7C010B",
"f  c #7A0B0E",
"g  c #610612",
"h  c #6B0B15",
"j  c #7D0112",
"k  c #730911",
"l  c #7C0D1C",
"z  c #7F0E15",
"x  c #631113",
"c  c #6B1819",
"v  c #761219",
"b  c #7A131A",
"n  c #731A1E",
"m  c #7B181B",
"M  c #7F0E22",
"N  c #6B1422",
"B  c #7D1225",
"V  c #771E20",
"C  c #7A1F25",
"Z  c #4F2F34",
"A  c #573F3F",
"S  c #732224",
"D  c #792425",
"F  c #653738",
"G  c #633532",
"H  c #7B3234",
"J  c #753234",
"K  c #59463E",
"L  c #4B4342",
"P  c #524543",
"I  c #525B4D",
"U  c #5D5553",
"Y  c #5E5D54",
"T  c #664744",
"R  c #714640",
"E  c #744E56",
"W  c #6C5D54",
"Q  c #645F56",
"!  c #7B5754",
"~  c #606054",
"^  c #766158",
"/  c #79615A",
"(  c #6F6766",
")  c #7B6F6A",
"_  c #840005",
"`  c #880007",
"'  c #83010D",
"]  c #850213",
"[  c #8A0615",
"{  c #830A13",
"}  c #8A0916",
"|  c #860519",
" . c #8C071B",
".. c #850A1C",
"X. c #8D091E",
"o. c #8A0A1A",
"O. c #90041A",
"+. c #82151F",
"@. c #800F22",
"#. c #820E22",
"$. c #850F23",
"%. c #880A21",
"&. c #831B22",
"*. c #911C27",
"=. c #832F2F",
"-. c #8B2D2F",
";. c #912E2F",
":. c #872E30",
">. c #8C2E31",
",. c #942B35",
"<. c #8A3239",
"1. c #89363A",
"2. c #95343D",
"3. c #9C3B45",
"4. c #9E3F49",
"5. c #884547",
"6. c #954047",
"7. c #95454C",
"8. c #934C4F",
"9. c #8C4D50",
"0. c #8C5557",
"q. c #945A5D",
"w. c #99595C",
"e. c #975558",
"r. c #A15059",
"t. c #9F5C63",
"y. c #A15860",
"u. c #9B6B6D",
"i. c #956468",
"p. c #9F787B",
"a. c #A06068",
"s. c #A3686E",
"d. c #A9757A",
"f. c #A8797D",
"g. c #AE7E85",
"h. c #B17982",
"j. c #8E8987",
"k. c #8F8C8A",
"l. c #938E8A",
"z. c #9D8E85",
"x. c #9E9693",
"c. c #A78589",
"v. c #B0868B",
"b. c #AD8E92",
"n. c #B38D92",
"m. c #AE9093",
"M. c #B4969B",
"N. c #B7969A",
"B. c #ABA2A0",
"V. c #BBA3A7",
"C. c #BEA3A8",
"Z. c #BDABAD",
"A. c #B7A2A6",
"S. c #AEB0A9",
"D. c #B5B1A9",
"F. c #BFACB1",
"G. c #B4BBB1",
"H. c #C1A9AE",
"J. c #C2ADB3",
"K. c #C1B0B5",
"L. c #C5B5BB",
"P. c #C5B8BD",
"I. c #C9BCB4",
"U. c #CCC1BC",
"Y. c #C6BDC1",
"T. c #C9BDC3",
"R. c #CBC5CA",
"E. c #CDC9CE",
"W. c #CBC5C5",
"Q. c #D2CFCF",
"!. c #CFCED3",
"~. c #CFCED2",
"^. c #CECCD1",
"/. c #CFCDD2",
"(. c #D0CFD4",
"). c #CFD0D5",
"_. c #D0D1D6",
"`. c #D1D1D6",
"'. c #DED8D7",
"]. c #D2D5DA",
"[. c #D3D9DE",
"{. c #D4D9DE",
"}. c #DED3D5",
"|. c #E0DCD7",
" X c #D6DCE1",
".X c #D8DEE4",
"XX c #D7E0E5",
"oX c #EAEEEA",
"OX c #E8E3E0",
"+X c #F0EBE8",
"@X c #F2F6EE",
"#X c #FFFFFB",
/* pixels */
"    + w N B #.#.#.#.#.#.#.#.#.#.#.M M #.#.#.#.#.#.#.#.#.#.#.#.#.$.#.#.B N &       ",
"  o 0 ..%.X.X.X.X.X.X. . . . . . . . . . . . . . . . . . . . . . . .X...$.h o     ",
"  % l X.X.X.X.o.o.o.o.o.o.o.o.o.o.o.o.o.o.o.o.o.o.o.o.o.o.o.o.o.o.o.X.| ....&     ",
"  % l X.| X.o.o.o.o.o.} o.o.} } } } } } } } } } } } } } } } } } o.o.o.o.| ..-     ",
"  # | O.| | } } } } } } } [ [ [ [ [ [ [ [ [ [ [ } [ [ [ [ [ [ [ o.o.o.| | X.-     ",
"  $ | O.| { [ [ [ [ [ [ [ [ [ [ [ [ | |  . .[ [ [ [ [ [ [ [ [ [ [ [ [ | | | -     ",
"  # ] [ | } } [ [ [ [ [ } } } [ ] ] ' ' ' ` ' [ [ [ [ [ [ [ [ [ | [ [ [ | X.-     ",
"  # ] [ [ [ [ [ [ ] ] [ [ ' _ ' o.,.3.4.3.2.*.} ` ` [ ] ] [ [ [ [ [ [ ] ] ] *     ",
"  # j [ [ [ ] ] ] ] ' ] _ { r.N.T.E.^.`.`.^.R.J.h.2.' ' ] ] [ [ [ [ ] ] ] ] *     ",
"  $ ] ] [ [ [ ] ] ' ' a ,.H.{.{.`.).^.^.^.!.`.].{.).h.{ ' ] [ | [ [ ] ] ] ] *     ",
"  $ ] ] ' ' [ ] ' ' a -.R.{.^.^.^.^.^.^.^.^.^.^.^.^. Xn.' ' ' ] ] ] ] ] ] ] =     ",
"  $ ] ' ' ' ' d d a d C.{.E.^.^.^.^.`.{.].^.^.^.^.^.^. Xy.a ] ' ] ] ] ] ] ] =     ",
"  $ j ' ' ' ' d d a 7.].^.^.^.^.^.`.R.n.H.].^.^.^.^.^.].L.] d d d ] ] ] ] ] =     ",
"  # d ' ' ' ' d d a g. X^.^.^.^.^.[.a.p +.P.`.^.^.^.^.^.`.2.a d d ' ] ' ' ] =     ",
"  # d ' ' ' ' d d d C.].^.^.^.^.^.^.<.s s M.{.^.^.^.^.^. Xt.p f d d d ' ' ] =     ",
"  # d ' ' ' ' d d { P.`.^.^.^.^.!.^.<.s s n.{.^.^.^.^.^. Xd.p d d d d d ' ] =     ",
"  # s ' ' d ' d d { W.`.^.^.^.^.!.^.<.s s n.{.^.^.^.^.^. Xh.p d d d d d d ] =     ",
"  # s d d d d d d { Y.`.^.^.^.^.!.^.<.s s n.{.^.^.^.^.^. Xf.p d s d d d d ' =     ",
"  $ s d d d d d d d J.].^.^.!.^.!.^.<.s s n.{.^.^.^.^.^. Xs.p d d d d d d d =     ",
"  $ d d d d d d d p n.{.^.^.!.!.^.`.1.p s N.{.^.^.^.^.^.].8.p d a d d d d d =     ",
"  $ s d d d d d d p t. X^.!.!.!.^.[.n.z 6.E.(.^.^.^.^.`.R.+.p a a a d d d d ;     ",
"  % y d s s d a d a { L. X^.!.!.^.^.`.R.^.`.^.^.^.^.^.XXd.p d s a a d s s j ;     ",
"  + 8 g t s d d d d p >.J.^.^.^.^.^.^.`.!.^.^.^.^.^.E.v.f a a s a a d y 7 7 &     ",
": P A T w e d d d d d p &.n.!.^.^.^.^.^.^.^.^.^.(.R.s.s s d s s a d s 6 G T P 2 X ",
"U U.S.D.F 6 s s s s p 7.P.E.^.^.^.^.^.^.^.^.(.(.^.^.E.N.b p s s s d s 7 z.G.G.B.: ",
") #XoX+X! g b v v k 1.^.].^.^.^.^.^.^.^.^.^.^.(.^.!.^.XXn.k b l b b v q I.@XoX'.< ",
"( OXQ.}.E 0 D S S n M.{.^.^.^.^.^.^.].).].`.^.^.^.^.^.^.`.5.n C n D S q Z.|.`.W.< ",
"L x.k.l.Z 3 e e 6 x Y.`.^.^.^.^.^.].A.J 0.E.(.^.^.^.^.^. Xi.6 t e e e 3 ) l.l.j.: ",
"1 Q I ~ 9 6 s s p <.`.^.^.(.(.(.^.].5.e r N.{.^.^.^.^.E.{.n.r s s s r 3 K Y Y U @ ",
"1 ^ W ! w e s s r 8.[.^.^.(.(.(.!.^.>.a a n.{.^.^.^.^.^.].C.s p p s r 5 R / W P X ",
"X , w x u r s s r w.{.^.^.^.^.(.!.^.;.a a n.{.^.^.^.^.^.].J.s r s r r 6 x 0 > X   ",
"  $ t e e r p s r w. X^.^.^.^.^.!.^.-.p a n.{.^.^.^.^.^.].K.s r r r r r r r $     ",
"  # e r r r r s r w.{.E.^.^.^.^.!.^.-.p p n.{.E.^.^.^.^.].K.s r r r r r r r *     ",
"  O e r r r r s e w.{.E.^.^.^.^.!.^.:.p p n.{.E.^.^.^.^.].K.p r r r r r r r *     ",
"  O r p r r r r e w.{.E.^.^.^.^.!.^.:.p p n.{.^.^.^.^.^.].K.i r r r r r r r *     ",
"  O e r r r r r e e.{.^.!.^.^.^.!.^.=.r r n.{.^.^.^.^.^.].Z.r r r r r r r r *     ",
"  O e r e r r r e 5.`.^.!.!.!.!.!.^.=.r r n.{.^.^.^.!.^.{.M.r r r r r r r r *     ",
"  O e r e e r r e m E.(.^.!.!.!.^.].8.6 i F.].^.^.^.!.^. Xf.e r r r r r r r *     ",
"  O 6 r e e r r r r V.[.^.^.!.!.^.`.P.u.b.`.^.^.^.!.!.^.].5.e r r r r r r r *     ",
"  O 6 e e e r r e 6 9. X^.^.!.!.^.^.`..X{.^.^.^.^.^.^.{.Z.e e e e e e e e e $     ",
"  o 6 e e e e e e e 6 b..XE.^.^.^.^.^.^.^.^.^.^.(.^.`.`.H 6 e e e e e e e e $     ",
"  o 5 e 6 e e e 6 6 6 u m. X].(.^.^.^.^.^.^.^.^.`. XR.5.6 e e e e e e e e e $     ",
"  o 5 e 6 6 6 6 6 6 6 6 t 0.Z.^.{. X{.{.{.{. X].R.c.S 6 6 6 6 6 6 e e e e 6 #     ",
"  o 5 6 6 6 6 6 6 6 6 6 6 6 t H q.p.c.b.b.c.u.9.c 6 6 6 6 6 6 6 6 6 6 6 6 6 O     ",
"  O 5 6 6 6 6 6 6 6 6 6 6 6 6 6 5 5 6 6 6 6 5 5 6 6 6 6 6 6 6 6 6 6 6 6 6 5 o     ",
"  O 5 6 5 5 5 6 6 6 6 6 6 6 6 6 6 6 6 6 6 6 6 6 6 6 6 6 6 6 6 6 6 5 5 5 6 4 .     ",
"  O 4 5 5 5 5 5 5 5 5 5 5 5 5 5 5 5 5 5 5 5 5 5 5 5 5 5 5 5 5 5 5 5 5 5 5 4 .     ",
"  O 4 5 5 5 5 5 5 5 5 5 5 5 5 5 5 5 5 5 5 5 5 5 5 5 5 5 5 5 5 5 5 5 5 5 5 3 .     ",
"  o 3 4 4 4 4 4 4 5 5 5 5 5 5 4 5 5 5 5 4 5 5 5 5 5 5 5 5 5 5 4 5 4 4 4 4 = .     ",
"  . = 4 4 4 4 4 4 4 4 4 4 4 4 4 4 4 4 4 4 4 4 4 4 4 4 4 4 4 4 4 4 4 4 4 4 * .     ",
"    $ 4 4 4 4 4 4 4 4 4 4 4 4 4 4 4 4 4 4 4 4 4 4 4 4 4 4 4 4 4 4 4 4 4 4 $ .     ",
"    o = 4 4 4 4 4 4 4 4 4 4 4 4 4 4 4 4 4 4 4 4 4 4 4 4 4 4 4 4 4 3 3 3 = o       ",
"      . O O O O O O O O O O O O O O O O O O O O O O O O O O # O O O o o .         "
};
