/* XPM */
static char *_af6a6b57b124a6c9cf96d391638cbbb[] = {
/* columns rows colors chars-per-pixel */
"38 61 213 2 ",
"   c None",
".  c #1E1D1D",
"X  c #181818",
"o  c #232424",
"O  c #2D2D2D",
"+  c #24272D",
"@  c #302E2D",
"#  c #36342D",
"$  c #2E2F31",
"%  c #222D3F",
"&  c #2E3134",
"*  c #2E343C",
"=  c #333333",
"-  c #393632",
";  c #3A3934",
":  c #30363D",
">  c #3C3C3A",
",  c #453D2E",
"<  c #4A3F2D",
"1  c #4E3E23",
"2  c #423F3B",
"3  c #413B33",
"4  c #734E15",
"5  c #79551D",
"6  c #6A4917",
"7  c #4C412C",
"8  c #54442A",
"9  c #5A4828",
"0  c #42423D",
"q  c #4B4336",
"w  c #554934",
"e  c #5B5029",
"r  c #664D27",
"t  c #695426",
"y  c #775922",
"u  c #6C5532",
"i  c #786522",
"p  c #1F324D",
"a  c #1D355A",
"s  c #29364A",
"d  c #383D45",
"f  c #263A59",
"g  c #202E45",
"h  c #1A3E74",
"j  c #1D3B6A",
"k  c #403F41",
"l  c #3F4245",
"z  c #3B4759",
"x  c #24416D",
"c  c #38527C",
"v  c #334B6F",
"b  c #454340",
"n  c #4A4643",
"m  c #4C4A44",
"M  c #4E4D49",
"N  c #534E48",
"B  c #524C45",
"V  c #55534A",
"C  c #5B544C",
"Z  c #5A594D",
"A  c #515046",
"S  c #484C55",
"D  c #5E5D51",
"F  c #575553",
"G  c #665A4E",
"H  c #645C52",
"J  c #695E53",
"K  c #665E58",
"L  c #646354",
"P  c #6C6156",
"I  c #6D6359",
"U  c #6D6B5A",
"Y  c #6B6957",
"T  c #746C5D",
"R  c #76695C",
"E  c #74735E",
"W  c #575C66",
"Q  c #5B667A",
"!  c #7B6E61",
"~  c #756E68",
"^  c #7B7562",
"/  c #7C7A64",
"(  c #797465",
")  c #63666B",
"_  c #825B1E",
"`  c #895F1C",
"'  c #8A651D",
"]  c #96661A",
"[  c #9B6A1A",
"{  c #996717",
"}  c #8E741C",
"|  c #BB780E",
" . c #A36C15",
".. c #A26E1B",
"X. c #AE7214",
"o. c #B67611",
"O. c #805D24",
"+. c #9E6E21",
"@. c #C67E0B",
"#. c #8B7C6C",
"$. c #837767",
"%. c #877D75",
"&. c #907E6D",
"*. c #BD9611",
"=. c #AC8A15",
"-. c #CC810B",
";. c #CD8005",
":. c #DE8B07",
">. c #D38509",
",. c #D98808",
"<. c #E48E05",
"1. c #EC9203",
"2. c #F39502",
"3. c #FB9A00",
"4. c #F79801",
"5. c #D5A80B",
"6. c #85836A",
"7. c #88866C",
"8. c #8C8A6E",
"9. c #8E8C71",
"0. c #8A827B",
"q. c #958473",
"w. c #928E72",
"e. c #9C8C79",
"r. c #9A8875",
"t. c #959375",
"y. c #999577",
"u. c #9D9B7A",
"i. c #999778",
"p. c #90806F",
"a. c #A28F7B",
"s. c #A19E7C",
"d. c #A5917D",
"f. c #A3A17E",
"g. c #0D3D86",
"h. c #164388",
"j. c #0B459B",
"k. c #0F4596",
"l. c #124592",
"z. c #174892",
"x. c #244980",
"c. c #0947A6",
"v. c #064DB9",
"b. c #0051CC",
"n. c #0050CA",
"m. c #62A185",
"M. c #949493",
"N. c #AC9681",
"B. c #AE9883",
"V. c #AE9C8A",
"C. c #B49C85",
"Z. c #B69F88",
"A. c #91B69C",
"S. c #AEAB85",
"D. c #A7A481",
"F. c #BCA48C",
"G. c #B1AD88",
"H. c #B9B68D",
"J. c #B5B28B",
"K. c #BEBB90",
"L. c #AAABAA",
"P. c #C1A88F",
"I. c #C5AB92",
"U. c #CAAF95",
"Y. c #C2BE93",
"T. c #CCB297",
"R. c #D5B99C",
"E. c #D8BB9E",
"W. c #D2B69A",
"Q. c #CCBBA7",
"!. c #C6C295",
"~. c #CAC799",
"^. c #CCCA9B",
"/. c #C9C697",
"(. c #D2CE9E",
"). c #D4D09F",
"_. c #DDC0A2",
"`. c #D4C3A5",
"'. c #D6D3A1",
"]. c #DDD9A6",
"[. c #DBD7A4",
"{. c #E3C4A6",
"}. c #ECCCAC",
"|. c #E7C8A8",
" X c #F0CFAE",
".X c #E1DEA9",
"XX c #EFD0AF",
"oX c #E8D3B1",
"OX c #F4D3B1",
"+X c #F9D7B4",
"@X c #FBD9B6",
"#X c #FBDCB8",
"$X c #EECFB0",
"%X c #E6E3AC",
"&X c #E9E5AE",
"*X c #E9E7B1",
"=X c #EDEAB2",
"-X c #F1EEB5",
";X c #F4F1B7",
":X c #F5F3B9",
">X c #F8F5B9",
",X c #F9F7BD",
"<X c #FDFABD",
"1X c #FFFDBF",
"2X c #FBFABD",
"3X c #B8F2C5",
"4X c #CEEFC7",
"5X c #FFFFC1",
"6X c #FFFFC3",
"7X c #F2ECDD",
"8X c #DAE6E1",
"9X c #FBFAFB",
"0X c #C9CACA",
/* pixels */
"                        0 ; =         0 = =     ; =                         ",
"                      A 8.E ;     = D t.L =   ; = =                         ",
"                    Z 7.).f.> ; U ^ i.[.7.= n T V =                         ",
"                  Z 6.].:Xf.0 Z H.*X-X-X6.; T !.7.=                         ",
"                M 9.[.<X,Xu.H H.-X1X6X=X6.U ^.=Xw.; ; > > > = O             ",
"              V 9.(.<X1X,Xu.U .X6X1X%Xf.t.!.<X;X8.Z t.f.D.6.0 O             ",
"              M Y.1X1X2X(.t.7.J.&X%XS.7.!.,X6X;X8.^ %X1X.Xs.m               ",
"            M Y ^.6X>X'.8.f.H.T H.K.7.^.>X;X&X*X8.^ &X*Xs.Z                 ",
"      =     U Y.-X<X(.7.D.%X~.H S.%X(.:X1X!.9.(.9.^ (.t.Z                   ",
"      = = $ E *X<X~.t.s..X6X~.D S.1X1X1X1XS.D Y.t.A / n O                   ",
"      > Z n E *X<Xt.U ].<X1X[.9.!.<X1X>X].f.6.S.y.T U U Y L M               ",
"      V J.w./ '.%Xt./ %X6X<X>X*X:X<X1X-Xw./ S.T 9.'.%X%X&XY.L n N           ",
"      Z (..XD./ E y.^.:X,X,X<X1X,X,X1X-X6.m L b V f.=X,X,X*X!.H.7.b         ",
"      Z (.6X.X7.n y.,X>XK.!.>X>XY.!.>X>XK.w.9.w.w.t.i.s.s.u.f.s.U ; =       ",
"      V S.&X<X'.Y t.=X~.8.S.:X-X/ 7.;X6X,X;X;X:X:X^.E 0 ; > > > ; = O       ",
"        Z S.1X%X/ y.K.E S.=X,X%X/ 6..X=X=X=X-X<X1X:X^.Y ;                   ",
"        ; u.,X;X~.y.L M K.6X].w.e.e./ ^ / ^ 9.].,X,X:X~.$.                  ",
"        > f..XK.%X/.U M K.6X~.D N.U.#.$.$.$.#.u.D.D.J.%Xu.;                 ",
"        > t.G.6.J.&X^./ D.=X^.L B.OX}.}.}. XE.$.m ; V S.6.;                 ",
"          A / S.7.S.&X!.7.D.H.H a.XX+X+X+X@XOXW.R =   V 0 =                 ",
"      = = = n 6.f.t.6.7.e.r.U 0 H C. X+XOXOX+XOX&.-     O O                 ",
"      = = D $.7.f.y.H m C.I.$.! n C C.}.@X@X}.F.R                           ",
"        > 9.].'.^ q.F.R F.OX{.I.( F ~ F.E.{.R.I 2                           ",
"          D i.~.U q.|.R.|.@XW.( M.0XL.~ H e.T.H $                           ",
"            H E A q.OX@XOX@XP.F L.9X8XA.m.A.T.H $                           ",
"              O O I I.OX@X@XR.q.Q.7X7X4X3X4XE.J                             ",
"                . O P I._.|.OX|.OX$X_.`.oXoXI.J                             ",
"                  o ; C J d.}.OXOXF.I I F.F.I N                             ",
"                  O 1 _ 8 V #.r.R.R.e.q.q.I = O                   O O       ",
"                a a M ..` 8 * z 0.F.F.C.P = * p p               H I J Z     ",
"              s k.v.z.w X.{ l h.v S S S d * s l.h +           N #.U.T.R =   ",
"            @ s j.b.c.l | <.+.z h.j.j.j.j.h f j.h =         N r.r.q.T.! =   ",
"          O B ~ c c.c.d | 3.<.[ z c.n.b.b.l.s x Q ! 2     C q.E.r.m ! V = = ",
"          $ I U.&.c x.u -.3.3.1.] z c.n.v.v 8 q e.I.R B C ^ F.|.Z.C 2 N B = ",
"          b $.{.{.%.w | 1.2.1.4.1.[ z j.h u o.r e.XXT.P #.B.R F.XXC.C r.q.> ",
"        b $.I.OXOXq.< 5 >.| [ <.3.<.[ z s _ -.u e.+X{.I q.F.H C.#XU.J B.N.2 ",
"      s x Q F.|.F.J = - y t 7 ] :.3.1. .` | >.t K F.E.P J ! C F.E.#.n R $.b ",
"      s h.c #.B.J @ O = - - = , { -.-.@.@.-.o.9 S 0.V.W f s k r.#.n V n >   ",
"    b > z %.a.C @ o = = * * * : 2 8 8 8 8 8 < 2 M.L.W h.c.g.% 2 > C a.P O   ",
"    P d.N.q.H @ o     : h l.l.l.k.j * & & & & = K ) d f h j g     N R J     ",
"n I N.{.F.p.H =       : h l.l.k.k.z y 5 7 = = = 9 _ _ _ _ y 3               ",
"> a.OX_.#.N.F.J b     = : * ; q w O.@.:.] < = - _ >.1.1.1.@.4               ",
"> a.OX}.R.{.}.P.J     = = = 9 | >. .' ,.<.] ; = < ' <.3.3.2.@.6             ",
"2 I B.}.@X+X@X_.P     o O & r :.3.,.o.<.3.o.3 & & < ' ,.3.3.<.5 O           ",
"    P C.|.@X|.C.G     o O = 8  .<.3.3.3.3.-.y , = & < @.3.3.<.5 O           ",
"      J F._.C.G         @ = = <  .1.4.3.3.4.-.9 & & , X.:.:.;.4             ",
"        G J G           o O = = 8  .2.3.3.3.:.r = = - 8 r 6 6               ",
"                          o o = & _ 1.3.3.3.1.X.r = = O o .                 ",
"                            o $ = r | 1.3.3.3.1.' @ + o X                   ",
"                              = = = r ,.3.3.3.<._ O X                       ",
"                              = = & 8 -.3.4.<.` < O                         ",
"                              O O = , _ [ [ _ < & O                         ",
"                              o O = = = = = = = = O o                       ",
"                                O = = = = = = = ; - O                       ",
"                                o o O = = = = - ' } ,                       ",
"                                  . o O O = = ; =.*.7 +                     ",
"                                      . o O = - } =.t #                     ",
"                                        . o = = , ' *.t $                   ",
"                                          . o O & i 5.y O                   ",
"                                            . O = e } 9 O O                 ",
"                                              = = = - = = =                 "
};
