/* XPM */
static char *black3[] = {
/* columns rows colors chars-per-pixel */
"64 64 223 2 ",
"   c None",
".  c #020102",
"X  c #0B0A0D",
"o  c #080709",
"O  c #120C0B",
"+  c #0F0E12",
"@  c #0D0118",
"#  c #130E16",
"$  c #131214",
"%  c #15141A",
"&  c #19151D",
"*  c #1B1A1D",
"=  c #1B1315",
"-  c #14100E",
";  c #241D1E",
":  c #2B1C1B",
">  c #221616",
",  c #2D221C",
"<  c #1F1D23",
"1  c #1C1423",
"2  c #190F21",
"3  c #231A27",
"4  c #271733",
"5  c #301220",
"6  c #252224",
"7  c #25242B",
"8  c #29252D",
"9  c #2C2B2C",
"0  c #2D2424",
"q  c #332D2B",
"w  c #362626",
"e  c #2C2A34",
"r  c #2E2D38",
"t  c #2B2532",
"y  c #312E39",
"u  c #312936",
"i  c #343233",
"p  c #3B3536",
"a  c #34313C",
"s  c #3B383D",
"d  c #6F1034",
"f  c #412B2A",
"g  c #492C31",
"h  c #463738",
"j  c #563839",
"k  c #48332D",
"l  c #584237",
"z  c #3A2B46",
"x  c #3A3643",
"c  c #3C3945",
"v  c #3E3A49",
"b  c #383442",
"n  c #3D2250",
"m  c #331E44",
"M  c #433E4D",
"N  c #443B45",
"B  c #573D41",
"V  c #442458",
"C  c #503351",
"Z  c #683E44",
"A  c #7C3B54",
"S  c #672845",
"D  c #4D2667",
"F  c #5C2D7B",
"G  c #562C71",
"H  c #511978",
"J  c #45424D",
"K  c #4C484C",
"L  c #5A4D4C",
"P  c #564446",
"I  c #464151",
"U  c #4A4554",
"Y  c #4E495B",
"T  c #4D4856",
"R  c #524B5D",
"E  c #554B53",
"W  c #5C5B5B",
"Q  c #575657",
"!  c #665A58",
"~  c #744E50",
"^  c #74635C",
"/  c #544D60",
"(  c #574565",
")  c #5A5465",
"_  c #5B5B74",
"`  c #645E6B",
"'  c #625374",
"]  c #686666",
"[  c #786864",
"{  c #6D697C",
"}  c #696578",
"|  c #716977",
" . c #6E7979",
".. c #75787C",
"X. c #9F043A",
"o. c #95194A",
"O. c #953F6F",
"+. c #D5266D",
"@. c #CF2168",
"#. c #88545C",
"$. c #834C55",
"%. c #A2705C",
"&. c #955B64",
"*. c #8D546C",
"=. c #987575",
"-. c #8D6E6E",
";. c #A5646E",
":. c #A86973",
">. c #B86B77",
",. c #B56B78",
"<. c #A6777B",
"1. c #B27670",
"2. c #AA5A6D",
"3. c #98837C",
"4. c #B78877",
"5. c #AE8372",
"6. c #C48E77",
"7. c #663488",
"8. c #723898",
"9. c #7B3BA6",
"0. c #722DA1",
"q. c #705285",
"w. c #6D6A81",
"e. c #736E82",
"r. c #786E83",
"t. c #757187",
"y. c #7B7384",
"u. c #7A778A",
"i. c #817A8C",
"p. c #847B92",
"a. c #816C87",
"s. c #BC7A83",
"d. c #8642B4",
"f. c #8C45BB",
"g. c #8F4ABD",
"h. c #894CB1",
"j. c #C77985",
"k. c #D67D8C",
"l. c #9E3CDE",
"z. c #974ACA",
"x. c #9D4BD3",
"c. c #A247DF",
"v. c #A452DB",
"b. c #A558D7",
"n. c #A871CF",
"m. c #A54DE0",
"M. c #A751E1",
"N. c #A953E2",
"B. c #AD5BE3",
"V. c #B05FE4",
"C. c #AF61E3",
"Z. c #B164E4",
"A. c #B56BE5",
"S. c #B86EE6",
"D. c #B973E7",
"F. c #BC7AE7",
"G. c #BA75E8",
"H. c #BD7CE8",
"J. c #B772E6",
"K. c #9E6BC0",
"L. c #788285",
"P. c #828789",
"I. c #998482",
"U. c #898294",
"Y. c #8B8596",
"T. c #948B9D",
"R. c #97849A",
"E. c #929494",
"W. c #A48C8B",
"Q. c #B9858B",
"!. c #B89898",
"~. c #B09688",
"^. c #BDA292",
"/. c #989DA2",
"(. c #9CAAAB",
"). c #B3B5B5",
"_. c #A5B5B6",
"`. c #D78893",
"'. c #C8989C",
"]. c #D8929B",
"[. c #CD948C",
"{. c #E78B9A",
"}. c #EB909E",
"|. c #D6AD98",
" X c #E9B69E",
".X c #ED98A4",
"XX c #EC99A5",
"oX c #C6A9A7",
"OX c #D6ACAE",
"+X c #D9A8AA",
"@X c #CDB0AF",
"#X c #D9BCA9",
"$X c #D9B3B3",
"%X c #DCAFB2",
"&X c #E7A6AD",
"*X c #EABBA4",
"=X c #EDAAB1",
"-X c #F0AEB5",
";X c #EABABB",
":X c #F2BABF",
">X c #F1B3B9",
",X c #E9C6B5",
"<X c #F4CCB6",
"1X c #F3CBB4",
"2X c #DFC1AE",
"3X c #AA82CA",
"4X c #B493D5",
"5X c #CAB1DC",
"6X c #F2BDC0",
"7X c #C184E9",
"8X c #C58BEB",
"9X c #CE9DEE",
"0X c #C993EC",
"qX c #D3A9F0",
"wX c #D5AEEE",
"eX c #C6C7C9",
"rX c #ECC4C3",
"tX c #EBC8C6",
"yX c #F4C5C6",
"uX c #F4CCCC",
"iX c #F8D4CB",
"pX c #F6D3D1",
"aX c #E9DDF3",
/* pixels */
"                                                                                                                                ",
"                                                                                                                                ",
"                                                                                                                                ",
"                                          = 6 i i i i s           q                                                             ",
"                                          p 6 -.!.!.!.W.Q p       = 9                                                           ",
"                                E Q W W W E * =.+X6XpXtXI.-.] ]   ; Z P                                                         ",
"                        W ! ] ] B L L L L L ! <.`.XX:X:XuXpXI.] Q 3 >.g N                                                       ",
"                      9 $ = q P ].yXpXpXpXpXpXpX-X.X.XXX6XyXuXW.: w >.g h                                                       ",
"                        q [ @XrXuXtXuXuXuXuXuXuXuXuXuXyXXX}.-X=Xj.&.j.j 6 i 9 * %                                               ",
"                          ! [ pXtXQ.`..XXXXXXX.X:XpXpXpXyXXX}.}.`.;.:.'.oXoXW.6                                                 ",
"                          K L pXuX%XQ.].:X:X:X:X=X&X-XpXpXyXXX{.}.+XOXtXpXoX! ]                                                 ",
"                            L 3.tXpXOX'.OXpXpXpX6X-X-X>XuXpX=X.X>XpXpXpXyX<.* W E                                               ",
"                              w +XuXpXOX!.OX%X;XuXpXyX=X>X!.<.[.uX%XOX!.<.Z O f g P                                             ",
"                              w s.rXpXpX$X<.;.j.&X;XrX>Xj.B q [ OX#.~ h q w k ;.>.g h                                           ",
"                                h oXuXuXuX%X:.;.:.:.,.s.j ~.#X X5.w = -.#X2X^.f > = $ 6                                         ",
"                    6 6 9 9 9 9 $ &.`.XXXX.X`.k.,.,.:.j ~.|.,X<X,X~.; ; 3.iX1X%.> 0                                             ",
"                      ; ! I.I.=.&.&.:.,.,.s.&Xj.j.].Q.0 6.*X<X1X X,XE 6 p ^ 4.5.:                                               ",
"                      p [ oXpXuX=X'.s.:.:.'.rX<.[.:X!.: &.*X1X X*X,X| x < ; j %.:                                               ",
"                        K [ @XpXpXpX-X,.=.uXtX<.+XpXoXk j 3.4.4.^.~.E y y t 0 ~ >                                               ",
"                          L ! @X$XrXyX-.P rXrX=.'.uX,X1.w - f k $ $ $ < x R M & .                                               ",
"                              0 h s.{.~ g ].;XB &.&X;X6.%., X * 7 t v * t R R M %                                               ",
"                                  B #.#.Z P $Xs.Z #.s.f w 6 y M M a U * X t R R M 8 i                                           ",
"                                  3 Z :.,.$.^ k.j : j * * a T / U e 8 ! h X e Y R e 9                                           ",
"                                  L &.j.{.k.~ $.f $ % t e I / I e 6 L |.[ . X c M a % 3                                         ",
"                                ; &.>.>.>.>.;.w 7 a a a e M I s q l #X<X^ . o 7 t t % *                                         ",
"                              O X = : : ; - > M R R R U e 8 * ! ,X,X<X[.l . X 7 t 7 6 $                                         ",
"                                          $ c R R R R I $ o w =.iX<X[.l O X 7 t t % <                                           ",
"                                          + U / / I y & . % u L <.-.k O + 6 t t t + +                                           ",
"                                          X U / I a e r r e e p B h 3 s I v t t * &                                             ",
"                                          % c M a x / } _ R M x x b y ` e.) e 7 o                                               ",
"                                            = y c ` T.U.} p.r.) R Y x J } { x 7 @                                               ",
"                                            $ ` i.U.T.Y.} p.Y.r./ R Y x J } | 3 H                                               ",
"                                              i U } e.Y.U.w.u.y./ / R x v } y.3 0.                                              ",
"                                              < T w.} T.T.p.t.e.{ v x r a ) ..3 9.                                              ",
"                                              G C _ t.t.u.Y.p.p.U.) a t J | y.3 d.b.                                            ",
"                                            x.N.V N U.} _ t.Y.T.T.Y.R U } y.` z f.N.B.                                          ",
"                        Z.S.                V.N.D b u.r._ _ u.T.T.T.T.U.t.I 8   z.N.Z.                B.                        ",
"                        A.F.              c.N.N.  V % 8 Y ) a.R.T.T.T.e.e.) <   v.N.B.C.              Z.                        ",
"                        A.A.G.            N.N.N.        8 o.@.2.T.T.T.{ v N     v.N.N.B.            C.B.                        ",
"                        A.N.Z.A.          B.N.N.        = d X.o.A A A S 5 8     N.N.N.C.          Z.B.B.                        ",
"                        Z.N.N.N.          B.N.N.      U K S S d X.X.X.X.d u     B.N.N.Z.          N.N.B.                        ",
"                        Z.N.N.B.          B.N.N.    ) y i.} _ *.+.+.+.+.O.v &   C.N.N.C.          N.N.B.                        ",
"          N.            Z.N.N.B.          B.N.N.  q.3 i.U.{ u.R.R.R.R.R.r.I e   Z.N.N.Z.          N.N.B.            B.A.        ",
"          B.            A.N.N.Z.          B.N.N.  ' 7 i.w.i.T.T.T.T.T.T.t.} } b g.N.N.A.        A.N.N.B.            Z.A.        ",
"          m.B.          A.N.N.B.Z.      B.N.N.N.q.9 7 U.U.T.T.T.T.T.T.T.t.w.y.3 d.N.N.Z.Z.      Z.N.N.B.          Z.M.B.        ",
"            B.Z.        A.N.N.N.N.    Z.N.N.N.N.V % c | Y.T.T.T.T.T.T.u.t.{ T 2 d.N.N.N.B.    A.N.N.N.B.        A.N.B.          ",
"            Z.N.Z.      A.N.N.N.B.    D.N.N.v.9.m e / ) r.u.u.| ` | y._ } ` 8 1 F z.N.N.B.    D.N.N.N.B.      Z.N.N.A.          ",
"            B.N.N.N.    Z.N.N.N.B.    G.N.v.d.4 6 M / / / / R r X e I R / I e 7 X 7.N.N.Z.    D.N.N.N.B.      c.N.m.            ",
"            c.B.N.Z.    C.B.N.N.V.    F.N.g.4 3 v R / / R R v < o e a I R I e 7 + 7.x.N.Z.    D.N.N.N.m.    G.N.N.l.            ",
"              Z.N.B.Z.    D.N.N.Z.    7XM.f.2 6 M / / R R c M e + M U x M I e e v t F N.A.    F.N.N.Z.    H.B.N.B.              ",
"              B.N.N.B.C.  G.N.N.B.Z.  8Xd.n b e M / / R c M Y y X a x r a a t e U < D N.A.  7XA.N.N.m.  H.Z.N.N.c.              ",
"G.D.            B.N.N.N.    A.N.N.N.H.9X8.$ I a M U M c r x a * X b e t t t t e U < D N.A.  Z.N.N.Z.B.  Z.N.N.Z.B.            G.",
"B.N.A.            N.N.B.A.  7XN.N.N.qXwX8.$ I a c x t e a x * . + v x e t t e b M * D N.Z.  A.N.N.B.    A.N.N.B.          D.B.B.",
"    N.B.N.        m.N.N.N.A.  N.N.N.wXqXh.4 v a a a a a I I i X % t J x a a a J e 1 F B.B.  G.N.B.N.  B.N.N.B.M.      A.m.M.c.  ",
"      c.N.Z.N.A.    A.N.N.D.    Z.N.Z.qXwXd.4 c R ) / J r * e     % t U / R M e & 7.x.J.  C.B.N.A.    Z.N.B.Z.    C.B.B.N.c.    ",
"        m.N.N.A.A.D.9XA.N.Z.F.  N.N.N.qXaXb.9.4 P.eX/.* % K         9 } /.} $ % 8.x.N.H.  A.N.N.C.  A.B.N.8X8XZ.A.B.N.N.m.      ",
"          N.N.N.N.Z.8XB.N.N.A.F.H.Z.N.D.7XN.x.4 E.aX).1 F h.        *  ._. .# 7.x.N.N.Z.H.B.N.A.F.G.B.N.N.G.H.N.N.N.N.N.        ",
"            Z.N.N.N.N.N.N.N.N.Z.7XG.A.F.N.N.x.4 E.eXP.y.K.n.        s ] P. .4 z.N.N.N.N.B.Z.B.G.7XN.N.N.N.N.N.N.N.N.B.          ",
"            N.Z.N.N.N.N.N.N.N.N.C.H.    D.v.9.x E...s 5X5X            K W  .4 z.N.N.N.B.Z.    J.N.N.N.N.N.N.N.N.N.N.            ",
"    C.        B.Z.N.N.N.N.N.N.N.N.B.G.  0Xg.4 P.(.] C b.Z.0X          K W L.u d.v.N.N.F.    A.N.N.N.N.N.N.N.N.N.N.          B.  ",
"      N.B.      A.B.B.N.N.N.N.N.N.N.Z.A.Z.f.4 ).] ] p.b.B.A.A.A.Z.Z.b.z W (.L.z d.v.N.B.A.A.B.N.N.N.N.N.N.B.B.B.        m.M.    ",
"          A.D.D.7X9X9XZ.N.N.N.N.N.N.N.N.N.f.4 ).W ]                   N W _.(.u.z 9.N.N.N.N.N.N.N.N.N.N.N.7X8X8XG.D.Z.A.        ",
"            G.F.D.9X9X8X7XH.N.N.N.N.N.N.f.G ( Y.W (                     | _.3Xn.8.g.N.N.N.N.N.N.N.N.B.F.F.7X0X0XZ.F.S.          ",
"                0X9X9X      7X9X9X9X9X9X3Xq.     .q.K.                      0X9X9X9X9X9X9X9X9X9X9X9X8X      0X9X8X              "
};
