/* XPM */
static char *result[] = {
/* columns rows colors chars-per-pixel */
"64 64 235 2 ",
"   c #010101",
".  c #0C0B0C",
"X  c #080508",
"o  c #150D0D",
"O  c #0E0E11",
"+  c #140E12",
"@  c #1A0B10",
"#  c #141315",
"$  c #1A1213",
"%  c #16151A",
"&  c #1C1A1C",
"*  c #19161B",
"=  c #1C120E",
"-  c #231E1D",
";  c #291719",
":  c #39050F",
">  c #2A211C",
",  c #1E1D23",
"<  c #261E22",
"1  c #321B24",
"2  c #242224",
"3  c #25232B",
"4  c #29262C",
"5  c #2D2B2C",
"6  c #2B2224",
"7  c #342A2C",
"8  c #3B2626",
"9  c #2C2A34",
"0  c #2C2933",
"q  c #322C34",
"w  c #322E39",
"e  c #3F2F30",
"r  c #343334",
"t  c #34313B",
"y  c #3B3A3B",
"u  c #3A3438",
"i  c #4B0613",
"p  c #68071A",
"a  c #75021A",
"s  c #571625",
"d  c #6E0F29",
"f  c #48292E",
"g  c #472C31",
"h  c #463839",
"j  c #59373C",
"k  c #4E2A2D",
"l  c #7E2434",
"z  c #683536",
"x  c #6A473B",
"c  c #393541",
"v  c #3D3A44",
"b  c #3E3B49",
"n  c #423D4B",
"m  c #473C48",
"M  c #563F43",
"N  c #633B42",
"B  c #723B55",
"V  c #46414C",
"C  c #474546",
"Z  c #564B4C",
"A  c #464151",
"S  c #4A4455",
"D  c #4D4758",
"F  c #4F4958",
"G  c #514A5D",
"H  c #554C59",
"J  c #555659",
"K  c #5E534E",
"L  c #694746",
"P  c #794A51",
"I  c #6A5658",
"U  c #725153",
"Y  c #706158",
"T  c #544D60",
"R  c #584660",
"E  c #5A5466",
"W  c #54536A",
"Q  c #615C69",
"!  c #625E74",
"~  c #71546A",
"^  c #666868",
"/  c #786765",
"(  c #6A6473",
")  c #686577",
"_  c #726A7B",
"`  c #697272",
"'  c #94011D",
"]  c #990726",
"[  c #960C36",
"{  c #891739",
"}  c #961633",
"|  c #A70425",
" . c #B60327",
".. c #B90C35",
"X. c #AB1538",
"o. c #B41438",
"O. c #AE0A32",
"+. c #952238",
"@. c #C5002A",
"#. c #D80836",
"$. c #C71338",
"%. c #DB133E",
"&. c #CD0931",
"*. c #A7194C",
"=. c #962F4E",
"-. c #AE3053",
";. c #A9366E",
":. c #951C44",
">. c #D81843",
",. c #D60955",
"<. c #CF1943",
"1. c #CC284C",
"2. c #DB224A",
"3. c #D43155",
"4. c #E22F5A",
"5. c #DE3573",
"6. c #E13767",
"7. c #86555D",
"8. c #8C4D4B",
"9. c #A7465C",
"0. c #B25B53",
"q. c #916758",
"w. c #965B64",
"e. c #90577D",
"r. c #B1546C",
"t. c #A94D72",
"y. c #866969",
"u. c #9B636C",
"i. c #8A7777",
"p. c #926E6C",
"a. c #A3636D",
"s. c #AD6A75",
"d. c #A56771",
"f. c #B76C78",
"g. c #AD7477",
"h. c #A36E59",
"j. c #DA536E",
"k. c #E24C7A",
"l. c #E2496B",
"z. c #C2717F",
"x. c #CF6673",
"c. c #D6556F",
"v. c #BE816A",
"b. c #978377",
"n. c #CE8C71",
"m. c #726E84",
"M. c #797486",
"N. c #6E6A81",
"B. c #B33F81",
"V. c #B55A86",
"C. c #B24C92",
"Z. c #827B8E",
"A. c #847D91",
"S. c #947289",
"D. c #B97B84",
"F. c #E04D87",
"G. c #E15898",
"H. c #E15284",
"J. c #C87785",
"K. c #D67D8C",
"L. c #C96B87",
"P. c #CF5BAD",
"I. c #C367B5",
"U. c #E45F91",
"Y. c #B96FC2",
"T. c #CF7ECB",
"R. c #7C8889",
"E. c #88898A",
"W. c #8A8295",
"Q. c #8E8698",
"!. c #948B9D",
"~. c #908799",
"^. c #929494",
"/. c #B28C8D",
"(. c #98A7A7",
"). c #A8AAAB",
"_. c #B7AFB1",
"`. c #B69FA3",
"'. c #C8888B",
"]. c #DD8291",
"[. c #D98794",
"{. c #C7959A",
"}. c #D29092",
"|. c #EA8B9B",
" X c #E38796",
".X c #EA919F",
"XX c #D59DA3",
"oX c #CE96AF",
"OX c #EA99A4",
"+X c #ED87B6",
"@X c #C8ACAB",
"#X c #DAA3A8",
"$X c #DAB5B5",
"%X c #D3B1AC",
"&X c #E7A5AC",
"*X c #EEABB2",
"=X c #F0ACB3",
"-X c #E7BABC",
";X c #F2B7BC",
":X c #E3B9A3",
">X c #D6AA93",
",X c #EACABC",
"<X c #F3CDB8",
"1X c #D78DDB",
"2X c #E583CE",
"3X c #E388DD",
"4X c #E790DA",
"5X c #D4B0D5",
"6X c #F3BDC1",
"7X c #F2B7DB",
"8X c #D88CE5",
"9X c #E19BF9",
"0X c #EDB5FA",
"qX c #E8AAFD",
"wX c #BAC1C1",
"eX c #D0CFCF",
"rX c #E9C4C3",
"tX c #F3C2C4",
"yX c #F5CACA",
"uX c #F5C7C8",
"iX c #FDDBC5",
"pX c #F8D7C1",
"aX c #F7D4D2",
"sX c #EFD8CD",
"dX c #F4C5FB",
"fX c #F6CBFA",
"gX c #F2C5F6",
"hX c #FAD4FB",
"jX c #FEDDFA",
"kX c #FBD3F7",
"lX c #FBCCE9",
"zX c #FFE0FB",
"xX c #F0EEEE",
"cX c #DEE0E0",
"vX c None",
/* pixels */
"vXvXvXvXvXvXvXvXvXvXvXvXvXvXvXvXvXvXvXvXvXvXvXvXvXvXvXvXvXvXvXvXvXvXvXvXvXvXvXvXvXvXvXvXvXvXvXvXvXvXvXvXvXvXvXvXvXvXvXvXvXvXvXvX",
"vXvXvXvXvXvXvXvXvXvXvXvXvXvXvXvXvXvXvXvXvXvXvXvXvXvXvXvXvXvXvXvXvXvXvXvXvXvXvXvXvXvXvXvXvXvXvXvXvXvXvXvXvXvXvXvXvXvXvXvXvXvXvXvX",
"vXvXvXvXvXvXvXvXvXvXvXvXvXvXvXvXO e vXvXvXvXvXvXo . h K C vXvXvXvXvXvXvXvXvXvXvXvXvXvXvXvXvXvXvXvXvXvXvXvXvXvXvXvXvXvXvXvXvXvXvX",
"vXvXvXvXvXvXvXvXvXvXvXvXvXvXvXvX# e Z vXvXvXvXvX5 C %XZ 8 C vXvXvXvXvXvXvX; vXvXvXvXvXvXvXvXvXvXvXvXvXvXvXvXvXvXvXvXvXvXvXvXvXvX",
"vXvXvXvXvXvXvXvXvXvXvXvXvXvXvXvX- `.Y 6 7 vXvXvXh h -XrXrXi.Z vXvXvXvXvXvX< vXvXvXvXvXvXvXvXvXvXvXvXvXvXvXvXvXvXvXvXvXvXvXvXvXvX",
"vXvXvXvXvXvXvXvXvXvXvXvXvXvXvXvX6 @X$X{.u.7 - & & g .XuXsXrXE.h vXvXvXvXe a.f vXvXvXvXvXvXvXvXvXvXvXvXvXvXvXvXvXvXvXvXvXvXvXvXvX",
"vXvXvXvXvXvXvXvXvXvXvXvXvXvXvXvX2 @XaXyXXXa././.y.P s./.$XaX$Xw.h vXI j a.K.8 8 vXvXvXvXvXvXvXvXvXvXvXvXvXvXvXvXvXvXvXvXvXvXvXvX",
"vXvXvXvXvXvXvXvXvXvXvXvXvXvXvXvX6 %XaXaXtX.X=XuX$X{./.J.{.$XuX{.6 h P w. XK.1 h vXvXvXvXvXvXvXvXvXvXvXvXvXvXvXvXvXvXvXvXvXvXvXvX",
"vXvXvXvXvXvXvXvXvXvXvXvXvXvXvXvX- {.aXaXtX.XOX;XuXaXyX*X/.#XuX$Xh ; 7.K.J.a.; y vXvXvXvXvXvXvXvXvXvXvXvXvXvXvXvXvXvXvXvXvXvXvXvX",
"vXvXvXvXvXvXvXvXvXvXvXvXvX7 7 Z 6 J.;XaX6XOX6X=X=XyXaXyXyX=XOX-Xu.w.u.d.p.e - $ # - vXvXvXvXvXvXvXvXvXvXvXvXvXvXvXvXvXvXvXvXvXvX",
"vXvXvXvXvXvXvXvXvXvXvXvXvX2 % 6 $ z.;XaXtXOXuXyX;X*XyXaXaX=X|.[.a.J.&XrX-X%X@XK Z E.vXu vXvXvXvXvXvXvXvXvXvXvXvXvXvXvXvXvXvXvXvX",
"vXvXvXvXvXvXvXvXvXvXvXvXvX7 C / - L.6XaX6XOXuXaXyX=X=XyXaXuX*X].d.#XyXaXaXuX/ Z.@XXXI vXvXvXvXvXvXvXvXvXvXvXvXvXvXvXvXvXvXvXvXvX",
"vXvXvXvXvXvXvXvXvXvXvXvXvXr Y $Xi.f.XX=X&X.X*XtXaX6XOX=XuXaX6X|.{.rXaXyX#Xi.P /.{.~ U vXvXvXvXvXvXvXvXvXvXvXvXvXvXvXvXvXvXvXvXvX",
"vXvXvXvXvXvXvXvXvXvXvXvXvXr Y aXuXD.J.K.K. X|.6XaX6X|.|.=X6X=XOXyXaXyX&Xs.; P a.7.L vXvXvXvXvXvXvXvXvXvXvXvXvXvXvXvXvXvXvXvXvXvX",
"vXvXvXvXvXvXvXvXvXvXvXvXvX7 I yXyXOXD.a.f.K.].;XyX6X X|.OX.X X.X-XrX#XJ.7.1 ; @ h vXvXvXvXvXvXvXvXvXvXvXvXvXvXvXvXvXvXvXvXvXvXvX",
"vXvXvXvXvXvXvXvXvXvXvXvXvX< Z OXyXyXrX{.a.a.a.[.=X$XD.-XuX*X|.].D.g.s.a.u.z.z.z 7 vXvXvXvXvXvXvXvXvXvXvXvXvXvXvXvXvXvXvXvXvXvXvX",
"vXvXvXvXvXvXvXvXvXvXvXvXvXvXI L OXyXaXrX#XJ.a.K.K./.-XyXaXuX#XD.#X-X%X{.d.].|.z.7.h vXvXvXvXvXvXvXvXvXvXvXvXvXvXvXvXvXvXvXvXvXvX",
"vXvXvXvXvXvXvXvXvXvXvXvXg C u @ P XXtXaX-XJ.{.&X'./.$Xi./ / I j / x.x.c.1.6.6.9.k & 6 vXvXvXvXvXvXvXvXvXvXvXvXvXvXvXvXvXvXvXvXvX",
"vXvXvXvXvXvXvXvXvXvXvX@ O ; k f j f.XX$X{.g.-X_.y.~ i.2 % , * % @ a ' |  .@. .a i i : vXvXvXvXvXvXvXvXvXvXvXvXvXvXvXvXvXvXvXvXvX",
"vXvXvXvXvXvXvXvXvXvXvXvX$ 7.J. XK.f.a.d.u.a.`.Z # + , 0 A G F D 0 % = : p } :.O.@. .$.-.vXvXvXvXvXvXvXvXvXvXvXvXvXvXvXvXvXvXvXvX",
"vXvXvXvXvXvXvXvXvXvXvXvXvXk P ].].].].].J.7.8 y S A S A D F D S 0 b n 0 1 Y.8X;.] ] ] <.#.>.vXvXvXvXvXvXvXvXvXvXvXvXvXvXvXvXvXvX",
"vXvXvXvXvXvXvXvXvXvXvXvXvXvXj j a.s.K.|.f.> X c T T S < % % % # O % % + 0 5XdX7XoXT.P.:.' o.2.%.vXvXvXvXvXvXvXvXvXvXvXvXvXvXvXvX",
"vXvXvXvXvXvXvXvXvXvXvXvXvXvXvXM j 7.s.w.N x o c T A r J M j U p./ - : a { 4XhXzXhX0XqXI.C.;.|  .<.vXvXvXvXvXvXvXvXvXvXvXvXvXvXvX",
"vXvXvXvXvXvXvXvXvXvXvXvXvXvXvXI N a.f.z ; L - v n q h ).`./.n.:X<Xy.X.#.>.P.+X7XfXjXkX0XqXI.;.;...1.vXvXvXvXvXvXvXvXvXvXvXvXvXvX",
"vXvXvXvXvXvXvXvXvXvXvXvXvXvX@ g s.x.f.N   . 0 A 0 ; y.rXxX@Xp./.<XpXx.$.%.2.%.F.4X7XhXjXjXdX9X8X;...1.vXvXvXvXvXvXvXvXvXvXvXvXvX",
"vXvXvXvXvXvXvXvXvXvXvXvXvXvXvXvX; ; ; $   O b T 0 8 g.>XsXeX`.,XiXpXq.z vXvX>.>.2.6.3XfXjXjXhXfX8X;.o.>.vXvXvXvXvXvXvXvXvXvXvXvX",
"vXvXvXvXvXvXvXvXvXvXvXvXvXvXvXvXvXvXvX7 X 3 S T 7 8 n.n.,X,X,XiXiX:Xx 8 vXvXvXvX6.#.6.3XdXjXjXjXhX1Xt.O.>.vXvXvXvXvXvXvXvXvXvXvX",
"vXvXvXvXvXvXvXvXvXvXvXvXvXvXvXvXvXvXvX- O 9 D T 7 8 n.n.<XiXiXiX<Xq.K vXvXvXvXvXvXvX5.G.T.dXzXzXzXfX1XB.o.>.vXvXvXvXvXvXvXvXvXvX",
"vXvXvXvXvXvXvXvXvXvXvXvXvXvXvXvXvXvXq 3 % 9 D T C h 8.q.>XiX<X:X/.Y vXvXvXvXvXvXvXvXvXk.G.2XdXjXzXzXfX1XB.*.vXvXvXvXvXvXvXvXvXvX",
"vXvXvXvXvXvXvXvXvXvXvXvXvXvXvXvXvX. Q Q 0 w D T _ ` - ; b.%X>Xq.- K vXvXvXvXvXvXvXvXvXvXF.F.3XdXjXzXjXhXT.:.-.vXvXvXvXvXvXvXvXvX",
"vXvXvXvXvXvXvXvXvXvXvXvXvXvXvXvXvX# Q ^ t w S D _ !.Z.F 5 , & $ O & . $ vXvXvXvXvXvXvXvXvXH.k.3XfXjXzXhX8X=.o.vXvXvXvXvXvXvXvXvX",
"vXvXvXvXvXvXvXvXvXvXvXvXvXvXvXvXvX# Q W.^ w w c Q !.W.Q V r 5 A ( ` t O + vXvXvXvXvXvXvXvXvXH.5.3XdXjXjXdXT.-.-.vXvXvXvXvXvXvXvX",
"vXvXvXvXvXvXvXvXvXvXvXvXvXvXvXvXvX. E !.W._ ( ( Z.!.Q.E T D n n ( W.V X 2 r r & vXvXvXvXvXvXvXH.F.2XfXzXjX9X;.;.vXvXvXvXvXvXvXvX",
"vXvXvXvXvXvXvXvXvXvXvXvXvXvXvXvXvX4 J ( M.M.~.!.!.!.~._ E T A w H Z.V O 3 # O X O 5 vXvXvXvXvXvXk.G.2XfXkX0X9.9.vXvXvXvXvXvXvXvX",
"vXvXvXvXvXvXvXvXvXvXvXvXvXvXvXvXvXvXt w ! ) W.!.!.!.!.~.! S n w F Z.C O 9 9 0 % X . O = o > vXvXvXk.5.3XkXjXr.9.vXvXvXvXvXvXvXvX",
"vXvXvXvXvXvXvXvXvXvXvXvXvXvXvXvXvXvX, w N.N.Q.~.~.~.!.Q.D w w 0 v _ v . 3 3 3 3 3 2 r h.n.8.i } vXj.>.5.lXjXr.9.vXvXvXvXvXvXvXvX",
"vXvXvXvXvXvXvXvXvXvXvXvXvXvXvXvXvXvXvXr 0 A.!.m.) N.Q.Q.m w q c ( y O           . # q h.n.n.0.$.k /.U.4.lXzXr.9.vXvXvXvXvXvXvXvX",
"vXvXvXvXvXvXvXvXvXvXvXvXvXvXvXvXvXvXvXvXw c b ! N.! m.Q.M.N.! _ ) , % vXvXvXvXvX    $ f h.h.z &.8.U 8.4.yXJ.-.-.vXvXvXvXvXvXvXvX",
"vXvXvXvXvXvXvXvXvXvXvXvXvXvXvXvXvXvXvXvXvX< O B S.! ! Q.A.A.N.R b 3 vXvXvXvXvXvXvXvX  . k x z $.+.> p >.L.X.1.vXvXvXvXvXvXvXvXvX",
"vXvXvXvXvXvXvXvXvXvXvXvXvXvXvXvXvXvXvXvXvXvX+ [ *.R R S.S.~ m O . vXvXvXvXvXvXvXvXvXvX    vXvX$.s = p @.| <.vXvXvXvXvXvXvXvXvXvX",
"vXvXvXvXvXvXvXvXvXvXvXvXvXvXvXvXvXvXvXvXvX% + p :.{ [ [ [ [ d * vXvXvXvXvXvXvXvXvXvXvXvXvXvXvX%.vXvX+.#.#.vXvXvXvXvXvXvXvXvXvXvX",
"vXvXvXvXvXvXvXvXvXvXvXvXvXvXvXvXvXvXvXV q ) T T ~ t.,.,.,.,.*.n % vXvXvXvXvXvXvXvXvXvXvXvXvXvX>.vXvXvX#.vXvXvXvXvXvXvXvXvXvXvXvX",
"vXvXvXvXvXvXvXvXvXvXvXvXvXvXvXvXvX3 r 5 4 A.M.N.m.!.V.V.V.V.S.R O vXvXvXvXvXvXvXvXvXvXvXvXvX2.#.vXvXvXvXvXvXvXvXvXvXvXvXvXvXvXvX",
"vXvXvXvXvXvXvXvXvXvXvXvXvXvXvXvXu , , 2 y m.m.m.m.A.!.!.!.!.Z.W V v vXvXvXvXvXvXvXvXvXvXvXvX#.%.vXvXvXvXvXvXvXvXvXvXvXvXvXvXvXvX",
"vXvXvXvXvXvXvXvXvXvXvXvXvXvXvXv + 3 n T T T T _ m.m.!.!.!.Q.M.N.W.3 u vXvXvXvXvXvXvXvXvXvXl.>.vXvXvXvXvXvXvXvXvXvXvXvXvXvXvXvXvX",
"vXvXvXvXvXvXvXvXvXvXvXvXvXvXv # O 0 S T T T G b E A.!.!.!.M.m.Q.Z.9 # . . vXvXvXvXvXvXvX3.3.vXvXvXvXvXvXvXvXvXvXvXvXvXvXvXvXvXvX",
"vXvXvXvXvXvXvXvXvXvXvXvXvX2 4 b 0 n G T T T G c t J Q.!.m.m.W.W.^ D w * . . vXvXvXvXvX2. .| vXvXvXvXvXvXvXvXvXvXvXvXvXvXvXvXvXvX",
"vXvXvXvXvXvXvXvXvXvXvXvXvX2 3 S t D T T T D b n c S Q.!.W.E V ! T T D n t c 4 vXvXvX1. .| vXvXvXvXvXvXvXvXvXvXvXvXvXvXvXvXvXvXvX",
"vXvXvXvXvXvXvXvXvXvXvXvXvXr 2 S t D T T D n b t 3 3 F F H 4 & F T T T T T G 9 w M 3...| vXvXvXvXvXvXvXvXvXvXvXvXvXvXvXvXvXvXvXvX",
"vXvXvXvXvXvXvXvXvXvXvXvXvXC 0 b t A S S n w n % O . O , #   , V S R T T T G P s p  .] vXvXvXvXvXvXvXvXvXvXvXvXvXvXvXvXvXvXvXvXvX",
"vXvXvXvXvXvXvXvXvXvXvXvX& w b t w 9 w 9 9 3 3 . vXvXvXvX% % 0 0 w A T R B B X.@. .' vXvXvXvXvXvXvXvXvXvXvXvXvXvXvXvXvXvXvXvXvXvX",
"vXvXvXvXvXvXvXvXvXvXvXvX3 3 b D A 9 9 9 3 X   vXvXvXvXvX& 4 n 5 0 w n B ..X.] ' } vXvXvXvXvXvXvXvXvXvXvXvXvXvXvXvXvXvXvXvXvXvXvX",
"vXvXvXvXvXvXvXvXvXvXvXC ^.J t c t % O   . vXvXvXvXvXvXvX> 9 B [ [ ] X.X.' ' d : i vXvXvXvXvXvXvXvXvXvXvXvXvXvXvXvXvXvXvXvXvXvXvX",
"vXvXvXvXvXvXvXvXvXvXvX2 wX).E.` 5 4 vXvXvXvXvXvXvXl =.8.s s l  . . .| d s i ; @ vXvXvXvXvXvXvXvXvXvXvXvXvXvXvXvXvXvXvXvXvXvXvXvX",
"vXvXvXvXvXvXvXvXvXvXvXr eXxXeX^.C vXvXvXvXvXvXvXvX{ +.p l =.l p d l k w 3 @   vXvXvXvXvXvXvXvXvXvXvXvXvXvXvXvXvXvXvXvXvXvXvXvXvX",
"vXvXvXvXvXvXvXvXvXvXQ C _.cXE.J vXvXvXvXvXvXvXvXvXvXvXy R.^.^ > m m n w $ vXvXvXvXvXvXvXvXvXvXvXvXvXvXvXvXvXvXvXvXvXvXvXvXvXvXvX",
"vXvXvXvXvXvXvXvXvXvXr ^.cX` ^ vXvXvXvXvXvXvXvXvXvXvXr R.(.^ Z vX. X   O vXvXvXvXvXvXvXvXvXvXvXvXvXvXvXvXvXvXvXvXvXvXvXvXvXvXvXvX",
"vXvXvXvXvXvXvXvXvXJ 3 (.wXC C vXvXvXvXvXvXvXvXvXvXvX3 ^.J J vXvXvXvXvXvXvXvXvXvXvXvXvXvXvXvXvXvXvXvXvXvXvXvXvXvXvXvXvXvXvXvXvXvX",
"vXvXvXvXvXvXvXvXvX^ E._.` J vXvXvXvXvXvXvXvXvXvXvXJ J J J vXvXvXvXvXvXvXvXvXvXvXvXvXvXvXvXvXvXvXvXvXvXvXvXvXvXvXvXvXvXvXvXvXvXvX",
"vXvXvXvXvXvXvXvXy ^ cX).J vXvXvXvXvXvXvXvXvXvXvXvX# ` v vXvXvXvXvXvXvXvXvXvXvXvXvXvXvXvXvXvXvXvXvXvXvXvXvXvXvXvXvXvXvXvXvXvXvXvX",
"vXvXvXvXvXvXvXvX5 J ).J vXvXvXvXvXvXvXvXvXvXvXvXvX  % vXvXvXvXvXvXvXvXvXvXvXvXvXvXvXvXvXvXvXvXvXvXvXvXvXvXvXvXvXvXvXvXvXvXvXvXvX",
"vXvXvXvXvXvXvXvXvXO y vXvXvXvXvXvXvXvXvXvXvXvXvXvXvXvXvXvXvXvXvXvXvXvXvXvXvXvXvXvXvXvXvXvXvXvXvXvXvXvXvXvXvXvXvXvXvXvXvXvXvXvXvX",
"vXvXvXvXvXvXvXvXvXvXvXvXvXvXvXvXvXvXvXvXvXvXvXvXvXvXvXvXvXvXvXvXvXvXvXvXvXvXvXvXvXvXvXvXvXvXvXvXvXvXvXvXvXvXvXvXvXvXvXvXvXvXvXvX",
"vXvXvXvXvXvXvXvXvXvXvXvXvXvXvXvXvXvXvXvXvXvXvXvXvXvXvXvXvXvXvXvXvXvXvXvXvXvXvXvXvXvXvXvXvXvXvXvXvXvXvXvXvXvXvXvXvXvXvXvXvXvXvXvX"
};
