/* XPM */
static char *black4[] = {
/* columns rows colors chars-per-pixel */
"64 64 248 2 ",
"   c None",
".  c #090408",
"X  c #180A15",
"o  c #1A1419",
"O  c #1A0407",
"+  c #24151B",
"@  c #320D12",
"#  c #271925",
"$  c #341B29",
"%  c #391636",
"&  c #2D0D2A",
"*  c #2D262B",
"=  c #29272A",
"-  c #34242B",
";  c #382936",
":  c #393337",
">  c #283C1D",
",  c #7E0113",
"<  c #7C000E",
"1  c #411C3D",
"2  c #44273A",
"3  c #4F3335",
"4  c #673E38",
"5  c #61413D",
"6  c #431F40",
"7  c #4D2A4A",
"8  c #472644",
"9  c #542B49",
"0  c #463744",
"q  c #56344B",
"w  c #593856",
"e  c #663B5A",
"r  c #703652",
"t  c #6B3F67",
"y  c #4B444A",
"u  c #584A56",
"i  c #544C4F",
"p  c #62425D",
"a  c #684A5C",
"s  c #675959",
"d  c #774F52",
"f  c #694864",
"g  c #674663",
"h  c #675765",
"j  c #78566E",
"k  c #795672",
"l  c #784C6C",
"z  c #6A626B",
"x  c #796877",
"c  c #7B7278",
"v  c #786A6D",
"b  c #4F674A",
"n  c #22501A",
"m  c #820017",
"M  c #85031A",
"N  c #8B001A",
"B  c #86091F",
"V  c #94001C",
"C  c #9C001E",
"Z  c #A1001F",
"A  c #BB0D1F",
"S  c #870A20",
"D  c #890D23",
"F  c #8B0624",
"G  c #990522",
"H  c #8B1126",
"J  c #8C152A",
"K  c #8E1A2E",
"L  c #91162C",
"P  c #8F1C31",
"I  c #911D32",
"U  c #981F35",
"Y  c #A40021",
"T  c #AC0022",
"R  c #A6042A",
"E  c #B40024",
"W  c #BD0027",
"Q  c #B8042D",
"!  c #B40835",
"~  c #922236",
"^  c #95263A",
"/  c #8F2034",
"(  c #C30028",
")  c #CB002B",
"_  c #C50727",
"`  c #D3002D",
"'  c #DB002F",
"]  c #C80434",
"[  c #D60436",
"{  c #DC103D",
"}  c #E40D24",
"|  c #D7051C",
" . c #B9114D",
".. c #9A3345",
"X. c #8C366E",
"o. c #B32E77",
"O. c #CD0C48",
"+. c #D50942",
"@. c #D30D4C",
"#. c #CA1458",
"$. c #D01153",
"%. c #CF104E",
"&. c #CA1A68",
"*. c #C81E70",
"=. c #C62379",
"-. c #D93368",
";. c #E02752",
":. c #905258",
">. c #834768",
",. c #975764",
"<. c #875773",
"1. c #85797C",
"2. c #8B686F",
"3. c #B46F6C",
"4. c #9C605B",
"5. c #CC7A75",
"6. c #DE5178",
"7. c #875E0F",
"8. c #67B234",
"9. c #979666",
"0. c #DA8C70",
"q. c #E1B432",
"w. c #7D6980",
"e. c #BC329A",
"r. c #B82C8B",
"t. c #B937A7",
"y. c #B53DB4",
"u. c #C12A89",
"i. c #C23090",
"p. c #95568C",
"a. c #B1568B",
"s. c #897886",
"d. c #897687",
"f. c #92708B",
"g. c #B26D97",
"h. c #B341BB",
"j. c #B842B6",
"k. c #A96BA2",
"l. c #B279AB",
"z. c #AC74A5",
"x. c #9B7EA2",
"c. c #D3559B",
"v. c #D04B92",
"b. c #CB6695",
"n. c #D357A6",
"m. c #D868A8",
"M. c #DB74AF",
"N. c #E868B4",
"B. c #EA77BA",
"V. c #E268AC",
"C. c #E15FAA",
"Z. c #AF49CD",
"A. c #AF47C8",
"S. c #B144C3",
"D. c #AC4DD5",
"F. c #AA51DD",
"G. c #AF51D5",
"H. c #B055D9",
"J. c #A953E2",
"K. c #AE59E4",
"L. c #B15DE6",
"P. c #BC69EC",
"I. c #B765E8",
"U. c #BD74E4",
"Y. c #BA63DA",
"T. c #F27AC3",
"R. c #C16EEF",
"E. c #C275ED",
"W. c #CC7CF5",
"Q. c #C574F2",
"!. c #9E8B9C",
"~. c #998498",
"^. c #8E8F91",
"/. c #A58A9C",
"(. c #B5928B",
"). c #9E82A3",
"_. c #A886A5",
"`. c #B389A9",
"'. c #AB95A9",
"]. c #B789B3",
"[. c #B895B4",
"{. c #B395AD",
"}. c #BAA3B7",
"|. c #B0A8AA",
" X c #D29889",
".X c #E99092",
"XX c #C494BC",
"oX c #DA8AAE",
"OX c #E58AB3",
"+X c #C2A9BD",
"@X c #C6BAB2",
"#X c #EDB2AB",
"$X c #EFA998",
"%X c #F1CCB6",
"&X c #DAC6B1",
"*X c #BE88D7",
"=X c #C99CC4",
"-X c #CC91D4",
";X c #F885CB",
":X c #E697C7",
">X c #F89AD2",
",X c #F191CA",
"<X c #C8A7C6",
"1X c #D0A3C7",
"2X c #DCAAC6",
"3X c #CAB1C7",
"4X c #CDA6D5",
"5X c #D2A9DB",
"6X c #D8BAD6",
"7X c #D8B5CE",
"8X c #FAA9D9",
"9X c #F8B5DB",
"0X c #EDACCC",
"qX c #D197EC",
"wX c #D384F9",
"eX c #DD8FFF",
"rX c #D589F9",
"tX c #DE93FE",
"yX c #DD9EF6",
"uX c #C98AE9",
"iX c #E29BFE",
"pX c #E097FE",
"aX c #DAA7E9",
"sX c #DDA4F3",
"dX c #DEB3E6",
"fX c #E5A3FE",
"gX c #E6ABFA",
"hX c #ECB3FD",
"jX c #EEB9FD",
"kX c #E9BBF4",
"lX c #F1BFFC",
"zX c #EAB6E8",
"xX c #D6CDCF",
"cX c #EFD3D4",
"vX c #FFE5C8",
"bX c #E8C6E9",
"nX c #FBC9E4",
"mX c #FADAE8",
"MX c #EDC2F4",
"NX c #F4C7FB",
"BX c #F7D6F7",
"VX c #FCE3ED",
"CX c #FEECF1",
"ZX c #FEE7F0",
"AX c #FFF3F5",
"SX c #F4F4F4",
"DX c #EAE0E1",
"FX c #B3C0C1",
/* pixels */
"                                    D m m B K     H m C W N V ( ` T m H     K B m m B                                           ",
"                                    I m m m B D   ~ m Y ` ) ) [ ' T m ~   H B m m m J                                           ",
"                            ^     K I m V W E N K K m Y ' +.e.t.$.) Y J I B m E C m J /     I                                   ",
"                          ~ I     H m C ( ' ` W E V m Y ' @.Z.J.t.#.) E E E E ` ( C m H     K ~                                 ",
"                        I m ^     K m T ' [ =.=.=. .V Y ' @.Z.J.J.=.' +.=.=.=.+.' T m J     I m P                               ",
"                      H m m I     ^ m T +.=.D.J.J.i.! E ' @.Z.J.J.e.&.u.F.J.F.u.+.T m P     ~ m m H                             ",
"                      H m M V S   ^ m T &.Y.J.J.J.F.u.{ ;.-.Y.K.J.F.F.F.J.J.J.F.*.T m I   D M m m J                             ",
"                      J M C ( N H N N ! 6.5XI.J.J.J.i.6.2X7X5XU.I.K.J.J.J.J.J.Z.=.! N N J M m m m I                             ",
"                      L Z ` ) N N Q ] 6.`.i 4XI.K.J.-X/.; * 0 <XzXuXK.J.J.J.F.=.M.b.] Q N m m m m I                             ",
"                ~     L Y ' ) V Q r.y.-X'.X i 5XkXU.I.*Xs.= !.u : _.sXQ.J.J.K.:X<.f.:Xe.Q V E C m I     P                       ",
"              I ~     U Y ' ` Q r.Z.J.qX'.= ^.h s ].sXkX+X: xX|.!.c _.sXJ.J.K.kXs c gXD.r.Q ` Z m I     J K                     ",
"              H S ~   ^ Y ' ' +.S.J.J.qX'.: xX^.l <.d.d.h * 2XZXAX|.c x.uXE.uXx.k k ).uXG.u.+.Z m ~   ^ D S                     ",
"            J S m M   ..C ( ' +.S.J.J.qX'.: DXCX9X<.i u i 9 m.0XVXAX{.f {.aX'.a g.>.u MXL.D.$.Z m ~   S m B H                   ",
"            m m m M K ..m V ) +.S.J.I.sX'.: DXAXAX8X8XVXnXm.m.c.0XVXnXg.* /.q b.;X>.u MXU.j.@.Z m ~   B m m m                   ",
"            m m m m S B m m V O.S.I.-XbX'.: cXAXAX8X;X9XVXVXmX>XV.0XZX}.+ 2 b.B.N.r y 6X1X-.[ C m B D N N m m                   ",
"            m m m m m m m N V ] j.aXx c !.- :XVXAX8X9XnX8XZXAXZXmX9X9X0Xr.a.c.c.r # o = y oX;.Y N N C ) ( N m                   ",
"  ^         m m m m M M G ) W Y #.0Xh o = $ :XVXAX8X9XZXnX8XZXAXAX9X;XB.c.B.nXnXxXxX1.= {.-.{ ) ) ) ) ' ` V m         L         ",
"  ..      J m m M E W W  .t.r.] [ 0Xh i v $ :XVXAX8X9XAXZXnX9XVXAXmX8XN.n.nXCXAXAX|.: X a oXn.t.&.' ' ' ` V m H       ~         ",
"~ K ^   J m m m N ) ' &.y.J.D.i.@.0Xh v xXf.M.8X9X>X>XnXAXVX>X8XVXAXnX,X0XCXAXnX/.j >.>.>.x -XI.y.&.' ` T N m m K   P K I       ",
"J m m   ~ m m m M T ) i.J.J.J.D.i.8Xh v AXmXV.N.N.T.T.8XAXVX;X;X9XnX8X8XAXCXnXB.9 2 g.8X:Xx s.*XI.e.` T M m m m P   M m B       ",
"J m m I ..m m m m m W i.J.J.J.J.K.kXh v mXVX>XM.v.C.B.,XmXmX;X>X>X;X;X>XnX9XB.c.r 2 f 3XBXbXh +XqXe.( M m m m m ~ ^ M m H       ",
"J m m B B m m m m m E o.Z.J.J.J.I.MX1.l OXVXCXVXM.c.v.C.>X9XM.mXCX9X;XB.m.m.m.v.V.T.a.u <XgXMXMXuXe.E m m m m m M B m m S       ",
"J m m m m M N N N N N Q u.J.J.I.5XbX7Xx q :XVXAXVX>Xm.V.T.m.nXAXZXVX:XM.mXVXmXm.m.M.m.p.0 <XgXE.H.r.N N N N m m M N N m B       ",
"J m m m M C ) ] ] ] G E =.J.I.5Xu * ; # X q :XmXCXOXOXmX9Xm.mXAX8X>XN.M.ZXAXCX>Xt $ $ # X 0 4XE.e.! C ) ] ] V M Y ) W M B       ",
"J m m T ( ) @.t.y.y. .` =.J.I.yX[.; r a.a.a.c.m.M.c.:XAXnXm.mXAX8XOX.X.X8XCXAXmXu u }.}.}.}.*XL.u.` ) +.t.t. .( ) ' ) N ,       ",
"  K m W ' $.t.F.J.J.y.e.y.J.K.R.sX{.j a.T.T.N.N.N.X./.mX>Xm.1.cX8X#X%X#X#X1.DXAX`.k !.BXhXgXI.J.h.e.e.t.D.F.y.#.' ' ) L         ",
"  H m Z ( *.J.J.J.J.J.I.R.R.R.Q.rXhX_.k a.C.N.T.;X9 1.nXB.a.q 1.2XcXvXvX&Xd s.cXnX<.u NXtXQ.K.J.J.J.J.J.J.J.J.=.' ) T F         ",
"  S m m T *.J.J.J.J.I.rXiXeXeXeXtXeXlX'.e X.v.C.a.r v +XOX,.:.2 s.&XvXvX%X X3 ^.cX1.u NXrXL.I.I.I.L.J.J.J.J.J.=.) T m B         ",
"  m D m Y #.S.F.J.J.W.hXhXeXeXeXtXiX5X3Xf.9 v.v.& 4.:.s |.,.,.a.9 3.%XvXvX%X,.+ 1.z u NXeXP.tXtXeXW.L.J.J.J.S.&.E m S m         ",
"    D m M R &.D.J.J.W.tXtXeXeXeXtXlXd.: p b.m.b.# :.0.4.; :.,.'.g.b.$XvXvX%X,.- * o u NXtXtXlXfXeXeXW.J.J.D.&.` T m S           ",
"    , B m C $.Z.J.J.W.eXeXeXeXeXeXpXaX6X/.- - - . 7.q.0.d :.,.xXDXoXc.oXvX&X3 '.6Xx h NXtXtXpXtXeXeXW.J.J.Z.#.T N B ,           ",
"      H m N R &.Z.J.L.W.eXeXeXeXeXeXpXfXaX3X3X}.= 8.8.9.:.,.5.$XDX6XoX$X%X X- +XjXaX5XiXtXeXeXeXeXeXW.J.D.*.R N m D       J     ",
"S     H m m V O.A.J.J.Q.eXeXeXeXeXeXeXeXpXgXhXBX}.b n > 2 ,.0..X%XcX%X#X Xd ~.aXpXiXfXeXeXeXeXeXeXeXW.J.Z.%.C m m J     K H     ",
"D J   I m m N ! r.Z.J.I.W.eXeXeXeXeXeXfXjXjXdXf.c = . X 2 >.3.0.%XvX%X Xd s.bXNXjXfXeXeXeXeXeXeXeXwXP.D.r.! N m m I   ~ H m     ",
"m B H I m N Y T [ u.Z.J.I.W.eXtXfXpXfX4X!.!.s.o : ; 2 u f f >.3. X(.2.4 # s.!.!.!.=XfXeXeXeXeXeXwXP.Z.i.[ T Y N m K ^ D m m     ",
"m m m N V ! #.$.[ ' t.J.J.L.W.rXjXiXlXs.. o o # f.k.z.z.k w w r d $ . . X * * X . c NXtXiXtXeXrXP.J.y.[ ' ' ' E V V m m m m     ",
"m m N W [ =.D.S.#.@.y.J.J.J.K.I.rXtXlXs.o p p p 8 f.l.k.k.8 % 1 % % & % q _.[.q X c NXiXNXpXeXP.J.J.h.$.@.@.@.[ ` ( V N m m     ",
"m M W ` =.D.J.F.Z.Z.D.J.K.K.I.wXtXpXNXs.# g g p % f.=Xl.p.f p e 8 % % 8 g k [.w X c NXpXiXtXtXR.K.K.F.Z.Z.Z.Z.=.[ ` ) W N m     ",
"m M ( ' u.J.J.J.J.J.J.R.wXwXrXtXMXNXBXs.# g p 1 X d.1X=XXX`.j f p 8 8 p f k ].w X c BXNXMXiXkXMXsXwXQ.K.J.J.J.Z.=.' ) V M ,     ",
"H m V ( u.J.J.J.K.Q.W.rXeXiXNXdXh y }.s.X 8 % X . d.1X1X1X=X_.k f 7 7 f k _.XX; x 6X}.y h 5Xj y _.hXrXQ.K.J.J.J.i.( V m ,       ",
"  J m C  .t.J.J.K.wXeXeXfX4Xx h o s v 0 $ q 8 . . ; <.k.l.=X=X_.g % % g _.[.h X !.}.j 4 * 3X; 3 d _.hXrXK.J.J.t. .C m H B       ",
"  H m m T *.J.J.J.R.rXfX4Xc i s 3 9.s ; 7 w w o u z u t k.l.l.XXf.k k p.k.j # X h y 3 3.+ x 3 3.4 h NXrXK.J.J.=.E m m B         ",
"  D m m Z  .y.F.J.J.W.jX~.: @X%X(.3.2.<.w 1 w # 3XBX).h f.p.p.l.=X1XXXl.<.X & % X X 4 3.- 3 :.5.4 h NXQ.K.J.h. .Y m m B         ",
"  m S m m G O.h.F.J.Q.hX~.3 %X$X%X$X#X(.8 % 0 0 4XfXhX!.- g.X.X.b.oXa.o.a.X & & & r 3.5.,.5.0.4.3 x sXK.F.S.#.G m m S m         ",
"    H m m M G #.A.J.K.qX~.i &X&XvX$X#X1.= # 0 <XiXpXdXs.O H G F _ } } } A O o . X d 5.5.,.4.5.3 1.qXK.J.Z.#.G M m m S           ",
"    D m m m V O.A.J.J.L.uX'.: y @X%X2.c 6X6X6XyXtXjXf.o @ | | G G G G V , $ !.: X + 3 :.:.3.,.- f.sXJ.J.Z.%.C m m m S       P   ",
"    D m m m V O.A.J.J.J.E.aX+X{.i : s.5XfXfXfXtXtXNXx ; f.o.o.g.l.l.a.X.X.f.i /.+X+Xd.+ + $ + s.*XI.J.J.Z.%.C m m m D     ~ J ~ ",
"D D J m m V  .t.D.J.J.I.wXtXhXgX'.!.4XiXeXeXeXtXhXf.j f.k.l.].=X1X1XXXk.p.`.* +XlXhX5X/./././.5XtXP.J.J.D.t. .C m m H P ^ J m P ",
"m m m m V  .e.F.J.J.I.wXeXeXeXtXhXjXiXeXeXeXtXgX~.; t z.l.=X1X1X1X1X1X].p.`.; h =XfXiXjXjXjXhXiXeXwXP.J.J.F.e. .T C m m m m m D ",
"M C Z Z W *.J.J.J.J.P.rXeXpXfXtXeXeXeXeXeXtXhXbX: $ e k.1X1X1X1X1X1XXXl.z.[.7 . !.jXeXeXeXeXeXeXeXeXW.J.J.J.J.=.' ) C m m m B   ",
"N W ` ' ' &.h.S.F.J.J.P.wXtXNXtXeXeXeXeXtXsX3X}.; 0 f d.[.1X1X1X1XXXz.k.=X_.q + d.5XpXeXeXeXeXeXeXrXQ.J.F.S.h.&.' ` W M m m     ",
"M N W ) ) ` [ %.y.F.J.J.K.I.tXeXeXeXeXtXsX{.* o % w f f <.[.`.`.`.p.p.].`.k g p * d.NXeXeXeXeXrXrXQ.J.F.h.%.] ] ) E M m M <     ",
"H M N N N T ' ' %.S.J.J.J.I.rXeXeXeXtXgX_.; q % w g f f f g # * * % 1 q l f f f # x kXtXeXeXrXP.L.K.J.S.#.Y V N N N m M m       ",
"  K m m m Z ' ' +.h.J.J.I.rXeXeXeXeXhX~.- % w 1 w f f g w % o '.3Xu X % 8 p f f # o x jXtXrXP.K.J.J.J.S.+.) V m m m m B         ",
"  K m m m Z @.t.t.D.J.P.wXeXeXeXeXeXlXs.o w w 1 w f f w % $ ~.aXNXj # w q 7 p f ; % 0 x kXtXW.W.W.W.R.D.y.t. .C m m m S         ",
"J H m Z E  .t.F.J.J.P.wXeXeXeXtXhXpXlXs.# g p 1 w f w 7 ; * 6XfXNXj # 7 8 % 8 p 8 7 8 : bXpXeXeXeXeXrXR.J.F.t. .C m m D I ~ ~ ~ ",
"m m C ( ' *.J.J.J.J.W.eXeXeXeXtXhXiXlXs.# g q % w f 7 1 ; * 6XfXNXz + 7 8 % % 7 1 7 8 ; bXiXgXpXeXeXeXrXK.J.J.=.( Y C m m m S   ",
"B M E ( ) #.h.F.J.J.R.W.rXeXeXeXeXeXlXs.# w % % q w 7 % $ h dXiXNXz * f p 8 8 8 6 8 0 h kXpXlXfXeXeXeXrXK.J.h.&.' ` E M M m     ",
"K B m M Y ` $.h.F.J.J.J.P.rXrXeXeXeXlXs.o w % % 1 1 q ; : bXpXtXlXd.: w u g g w w 0 x kXtXeXtXtXeXeXeXW.K.S.#.) ) E m B m       ",
"  M M S M Y ` #.Z.J.J.J.J.L.P.rXeXeXlXs.o 7 7 w w w w 0 i MXpXeXtXdXs.# ; f h 8 $ d.dXtXeXeXeXeXeXeXW.K.Z.#.` Y N F M ,         ",
"      ~ m M Z O.S.J.J.J.J.I.wXeXeXeXlXs.y xX}.q # o o h 5XiXtXeXeXpXaX~.; ^.^.= d.aXtXeXeXeXeXeXeXW.K.J.A.O.Y N m I             ",
"  J ~ K m m V [ &.S.J.J.I.wXeXeXeXeXlXs.i SXxX: ~.}.}.4XiXtXeXeXeXeXpXaX_.y ^.= !.jXeXeXeXeXeXeXeXQ.J.A.&.R N m m J ^ ~         ",
"    H m m V W ' [ h.J.J.L.Q.tXhXpXhX).z ^.xXc ~.aXhXhXfXeXeXtXhXiXeXeXfX3X* ^.= !.BXhXeXeXeXeXeXW.I.J.S.+.V m m m m D           ",
"      J m V E E Q o.i.h.J.L.W.hXpXNXh i FX|.: 6XfXeXeXeXeXeXtXhXpXeXeXfX3X* ^.z x s.'.gXtXeXeXW.I.S.i.o.R N m m m J             "
};
