/* XPM */
static char *black_goku4[] = {
/* columns rows colors chars-per-pixel */
"64 64 246 2 ",
"   c None",
".  c #090608",
"X  c #170916",
"o  c #1A1317",
"O  c #0C120B",
"+  c #27141B",
"@  c #280C26",
"#  c #281825",
"$  c #34162C",
"%  c #391736",
"&  c #2A2629",
"*  c #342D33",
"=  c #392837",
"-  c #383337",
";  c #30212A",
":  c #1D2C14",
">  c #431C3C",
",  c #43273C",
"<  c #41363E",
"1  c #513132",
"2  c #653D36",
"3  c #701234",
"4  c #52442B",
"5  c #492746",
"6  c #532C4A",
"7  c #483846",
"8  c #553352",
"9  c #5B3B57",
"0  c #59314C",
"q  c #673551",
"w  c #73386B",
"e  c #501F4C",
"r  c #3E4246",
"t  c #4A424A",
"y  c #594856",
"u  c #59555A",
"i  c #584C4C",
"p  c #62425E",
"a  c #705054",
"s  c #684864",
"d  c #674863",
"f  c #744A68",
"g  c #675965",
"h  c #765771",
"j  c #794A72",
"k  c #69666C",
"l  c #796777",
"z  c #747274",
"x  c #655B5E",
"c  c #38492E",
"v  c #820017",
"b  c #85031A",
"n  c #8B0019",
"m  c #87061C",
"M  c #92001B",
"N  c #9B001E",
"B  c #9A0012",
"V  c #80000F",
"C  c #A2001D",
"Z  c #890D23",
"A  c #870A20",
"S  c #980625",
"D  c #8D152B",
"F  c #8E192E",
"G  c #8A1026",
"H  c #91182D",
"J  c #911D32",
"K  c #9C193A",
"L  c #8E1631",
"P  c #A50021",
"I  c #AC0023",
"U  c #A80329",
"Y  c #B40024",
"T  c #BC0026",
"R  c #B7032B",
"E  c #B50635",
"W  c #A30E35",
"Q  c #932135",
"!  c #96283B",
"~  c #C40029",
"^  c #CB002B",
"/  c #D4002D",
"(  c #DA002F",
")  c #C90537",
"_  c #D90234",
"`  c #D50438",
"'  c #CC1C31",
"]  c #ED1F36",
"[  c #B6134B",
"{  c #9C3547",
"}  c #982D40",
"|  c #BB247A",
" . c #AB2C65",
".. c #CB0B46",
"X. c #D30B47",
"o. c #CB1459",
"O. c #D21653",
"+. c #C31246",
"@. c #D22855",
"#. c #C71A68",
"$. c #C81E70",
"%. c #C6257A",
"&. c #8F5654",
"*. c #8E4F73",
"=. c #B05478",
"-. c #8B7074",
";. c #B1716D",
":. c #A3615C",
">. c #DB4A77",
",. c #C87472",
"<. c #E14C7D",
"1. c #67BE3C",
"2. c #A58176",
"3. c #D98576",
"4. c #E58C78",
"5. c #D2BC48",
"6. c #D2AB24",
"7. c #707380",
"8. c #BB2A89",
"9. c #BE2E91",
"0. c #BC329B",
"q. c #B73B80",
"w. c #B938A8",
"e. c #B53EB4",
"r. c #AA3CAE",
"t. c #863D81",
"y. c #C12B8B",
"u. c #C32784",
"i. c #C93E98",
"p. c #9A5994",
"a. c #93538A",
"s. c #AF588B",
"d. c #8B7889",
"f. c #977995",
"g. c #916C8C",
"h. c #AA6897",
"j. c #B342BD",
"k. c #AD78A6",
"l. c #D05098",
"z. c #CE6C9B",
"x. c #E77795",
"c. c #DA59A3",
"v. c #C457BA",
"b. c #CC69A5",
"n. c #D765A4",
"m. c #D975AE",
"M. c #E776B6",
"N. c #EC71BA",
"B. c #E35D96",
"V. c #AE49CC",
"C. c #AE47C8",
"Z. c #B145C4",
"A. c #B047C9",
"S. c #AD4CD4",
"D. c #AB4FD9",
"F. c #AC51DC",
"G. c #BA54C7",
"H. c #A953E2",
"J. c #AE5AE5",
"K. c #B15DE6",
"L. c #B45FE8",
"P. c #B561E9",
"I. c #BA66EB",
"U. c #B768E7",
"Y. c #BC76E8",
"T. c #BD75E7",
"R. c #F27EC3",
"E. c #C16EEF",
"W. c #CB7BF5",
"Q. c #C674F2",
"!. c #C176EC",
"~. c #CA6CCE",
"^. c #9A8597",
"/. c #929396",
"(. c #AB9294",
"). c #BB89B3",
"_. c #B896B6",
"`. c #AC8EA9",
"'. c #BBA7B7",
"]. c #AFADAE",
"[. c #CA9288",
"{. c #E88D81",
"}. c #EA8E91",
"|. c #D1AA9B",
" X c #C595BC",
".X c #CF91B3",
"XX c #E58DB9",
"oX c #CCB3B2",
"OX c #F0B7AE",
"+X c #E9B699",
"@X c #EFCDB8",
"#X c #DBC0B1",
"$X c #BE84DB",
"%X c #BC97C6",
"&X c #C79BC4",
"*X c #C994D6",
"=X c #F886CA",
"-X c #F998D2",
";X c #EE93C6",
":X c #C8A8C4",
">X c #D0A3C7",
",X c #CCB2C9",
"<X c #D2B4CB",
"1X c #D2AAD9",
"2X c #D7B9D7",
"3X c #CDA4D5",
"4X c #FBA7D8",
"5X c #EBB8D6",
"6X c #F6BADA",
"7X c #EEA6C8",
"8X c #D384F9",
"9X c #DD8FFF",
"0X c #D488F8",
"qX c #DE92FE",
"wX c #DF9BFA",
"eX c #CF91ED",
"rX c #E096FE",
"tX c #E29CFE",
"yX c #D8A9E5",
"uX c #DEAFEA",
"iX c #E2BBE7",
"pX c #E5A4FD",
"aX c #E9ACFD",
"sX c #E4A8F9",
"dX c #EBB3FC",
"fX c #ECB8FA",
"gX c #F0BEFD",
"hX c #FBBDE2",
"jX c #D2C9CD",
"kX c #F3C8DD",
"lX c #EDD6D3",
"zX c #FDE4C8",
"xX c #E2C1E3",
"cX c #E8C8E6",
"vX c #FCC6E3",
"bX c #FCD7E9",
"nX c #F3C8F9",
"mX c #F3D1F3",
"MX c #FAE5EC",
"NX c #FEEDF2",
"BX c #FEE7F0",
"VX c #FFF3F5",
"CX c gray97",
"ZX c #E5E8E9",
"AX c #DFC0E0",
"SX c #BDC0C1",
/* pixels */
"                            Z G v       v M / _ $.y.9.| I M ^ ( w.H.H.j.` ` %.9.9.#.( ^ n b     Z v F D                         ",
"                            v v v J     v D >.%.Z.H.H.Z.%.=.B.B.j.H.H.V.%.u.V.H.H.e.#.^ n Z     Q v v m                         ",
"                            A v M n J { G :._.$XK.H.H.P.$X_.'.'.$X!.U.H.H.H.H.H.H.P.v.) n m J Q v v v Z                         ",
"                            A M ^ N b m { :X- `.T.U.P.T.3X7 O & ^.,X*XU.H.H.H.H.P.*X.X@.S M m b v v v Z                         ",
"                            n ~ ( C b U >.<X# * `.2X*XU.eX:X* ].z - l 1XU.J.H.H.eX^.y 7XO.) S b b n v Z                         ",
"                    Q J     M ^ ( C U #.~.<X* (.x * g.iXcX<X* oXlXjX/.u yX0XK.H.eXf.t 2XG.j.o.P P Y v Z     D                   ",
"                  J F !     S ^ ( ^ | Z.T.<X- jXjX).*.7 7 - o k.bXVXZX(.g yXU.eXd.f *.g 1XP.Z.[ ^ T v Z     Q F J               ",
"                  ! v Q     S ^ ( ( y.H.T.<X- jXVXbX.Xg./.^.*.l.m.5XVXlX*.h *Xd.*.b.s.* 2XU.H.e.#.T v G   { Q v J               ",
"                  Q v v Q   D I / _ y.U.uX<X- jXVXVXvX-XvXMX7XXXM.M.5XBX.X& g j h.=Xs.* xXeXP.H.y.T v D   J v v F               ",
"                m v v v ! ! Z b Y / l.$X'.<X* oXBXVXhX=X4XvXNXVXvX;X;XbXlX0 > s.N.b.w # ^.`.$XG.#.T v D Q Q v v v Z             ",
"                Z v v v v v v v v T x.^.* ^.; b.bXVXvX4XbX4XbXNXVXVXvX-X6Xl.l.n.n.*.- & O - %X<.( T v v b M M n v D             ",
"                D v v v v v v n n T x.^.O & o b.bXVXvX4XNXBX4XbXNXVXbX=XR.l.R.vXMXMXlX(.& `.$X%.( ~ M n M ~ / I v D             ",
"      ! !       J v v v n n M ) ) U z.^.- ].< b.vXNXhX4XNXVXBX4XvXNXNXvXR.c.kXNXVXMX].* X * _.<.` ` ) ^ / ( ( I v F       J     ",
"      { {     G m v v P ^ ^ ) w.j.o.x.^.< ZX<Xn.=X-X=X=X4XNXNX-X=XvXVXbX-XkXBXVXvXh.y h.b.h.9 f.~.j.0.` ( ( ( I v Z F     ! }   ",
"    ! ! Q {   G v v v I ( X.w.D.H.j.;X^.< MXBX=Xc.c.N.R.-XNXNX-X=X-X4X-X-XBXVXhXM.w X f 5XhX'.l f.eXS.0.X.( Y M v v D   } F J   ",
"    D v v }   F v v v M T O.S.H.H.H.eX^., 5XBXvX7Xn.l.c.M.6XBXXX-XhX4X=X=X;XXXM.l.=.*.*.d.cXuX`.'.sXH.A.X.Y M v v v F   Q v v J ",
"    J v v ! ! Z v v v v C O.S.H.H.T.fX:Xh s.6XNXVX5Xm.c.l.=X7XXXkXVXbX-XM.XXXXXXn.c.=Xm.f f.$XsXfXeXH.A...M v v v v F ! J v v J ",
"    J v v v v v v v v v N +.e.F.T.%X'.'.d.# s.kXNXVX6XM.M.;Xc.kXVXBXbX6Xn.bXVXVX;Xl.s.s.s.# d.yX8XK.H.C.[ M v v v v v v v v v J ",
"    J v v v v v n M M M n M ..G.uXl # o $ # , b.6XbXXXm.BXbXn.kXVXhX=XM.n.vXVXVX6X*.o * * & * `.aXW.F.r.L n M M n v v n M b v J ",
"    D v v v n M ~ ) ) ) E N ..A.P.3Xl 0 b.m.m.c.c.c.l.m.NXbXn.5XNX6XXX}.}.;XlXMXNX^.7 :XAX2X2XsXqXQ.Z...S ~ ) ) E n M ^ ^ N v J ",
"    b b v M ^ ^ ` 0.Z.Z.9.) X.C.H.8XyXd.q M.R.N.N.N.c.m.bX-XN.n.5X6X7X@X@X@Xx '.VX5Xa.y cXaXtXqXW.J.j.X.) ` 9.Z.8.^ ^ ( ( N b K ",
"      D v N ( ` 0.S.H.H.S.e.e.D.H.K.0XyX^.q l.c.N.=Xs.h bX=X}.x.x.7XbXzXzXzX|.x ].BX_.- xXtX9X9XQ.H.D.e.e.e.S.H.V.y._ ( ( N S   ",
"      D v n I ..Z.H.H.H.H.J.Q.Q.Q.Q.8XaXcXd.q q.c.*.a a -.5X}.{.B.n.XXOXzXzXzX;.a ].].- xXtX9XW.P.H.H.H.H.H.H.H.H.e.` / I n     ",
"      A v v M ..Z.H.H.H.K.W.aXqX9X9XpX*Xd.d.f l.c.0 2 ,.a 2.{.{.,.s.z.}.zXzXzX;.a z k * xXtX9XI.L.E.E.I.J.H.H.H.H.e.` Y n v     ",
"        m v n E 0.S.H.H.I.tXgXrX9X9XaX_.t y a.s.s., 2 4.,.1 ,.4.;.(.:XXXOXOXzXt d._.- * xXtXpX8XW.9X9X0XI.H.H.H.V.y.) n v b     ",
"          v v n ) e.H.H.I.9XqX9X9XqX9XsXnX1Xt * * o 2 4.3.:.3.4.;.|.MXcXn.n.OX4 d.mX_.u cXpXgXpX9X9X9X9X0XL.H.H.0._ T n m       ",
"          v v n ~ w.D.H.I.0X9X9X9X9XqXqXrXtXiXxXcXg 4 6.5.&.,.4.4.{.OXMX<X@X[.1 ^.gXsXcXnXtXqXqX9X9X9X9X0XL.H.S.8.T n b V       ",
"  J         m v M ) w.H.H.I.0X9X9X9XqXqXqXqXtXpXcXg c 1.1.& &.,.{.{.+XzXzX#Xi (.uXtXqXtXtXqX9X9X9X9XqXqX0XL.H.9.E n v Z         ",
"  J D       m v b ~ 0.H.H.L.0X9X9X9X9XpXgXtXnXnXh o O : : O p :.|.@X@XzX#Xi `.cXmXdX9X9X9X9X9X9X9X9XtXnXqXL.H.u.T v v m       A ",
"  J v F     m v v N [ w.H.J.I.0X9X9X9XtXdXyXg u l g.g.h 5 @ , 6 -.(.-.i i 8 y u u ^.dXqX9X9X9X9X9X9XqXpXE.H.0.[ M v v Z   ! D v ",
"  F v v F H b b I I ^ o.w.H.J.E.0X9X9X9XpX<Xo X d *.k. Xp.q 6 6 0 0 6 $ % a.8 @ . g nXqX9X9X9X9X9X9X0XE.F.0.X.~ I P v Z Q H v v ",
"  F v v v n C U #.$.X.( #.H.H.H.E.W.8X9XpX<X# % 5 % s ). Xh.j s 8 5 5 6 9 ).p.e X g nXqXqXpXaXaXaXwXE.H.S.O.( ( ( ^ P N n v v v ",
"  F v v n I ` #.V.H.y.o.u.H.H.H.H.K.W.9XpX<X& 9 s 5 5 g.>X Xp.*.f s 8 > h _.h.5 X g nXqXwX:X:X:X:X*XU.H.D.%.o.o.o.X._ / P M n v ",
"  D v v P / X.C.H.H.F.S.D.H.K.K.K.W.9XqXsX_.# 9 s 5 = h  X X&X&Xg.f 8 > h  X&X< . g nXaXiX- + o o x 3XU.K.F.S.S.S.e.X._ / ^ N v ",
"  m m v P / X.S.H.H.H.H.J.P.8X8X8X9X9XaX:X; $ 9 y # . = a.p. X>X&Xf.9 > f  X X- . g cXxX<X* &.1 2 &.t iX9XP.H.H.H.F.e.X./ C b A ",
"    m v n P X.V.H.H.H.I.8X8X9X9X9X9XqXaX'.X $ % # . . - ).).p. X>X Xg.% 8 ).p.$ X $ * * - q , 1 :.&.* cXtX8XI.H.H.H.Z...N b v J ",
"      G v n U $.V.H.H.E.9X9X9X9X9XqXaX_.t 7 6 # -.;.;.-.< 7 w p.).>X_.f.k.).5 @ @ $ @ $ &.&.:.;.&.+ * cXtX9XI.H.H.Z.#.P b v D   ",
"      Z v v M ..Z.H.H.L.W.9X9X9X9X9XgX^.o p y o 2.|.[.-.i z 6 [ s.).>X>X_.h -.= X @ % > :.;.;.;.2 & ^.sXqX9XI.H.H.e.) n v v     ",
"      m v v n E 8.V.H.H.I.qXaXqX9X9XgX^.. , 9 o ;.oX(.;.[.(.+ B K *.=.=.*.# ,X^.g 7 X $ &.,.,.a i f.dXqX9XW.K.H.Z.| I n v v     ",
"        m v v n R 8.V.H.P.0XgXrX9X9XaX_.t 7 , X -.+X+X+X#Xa $ 3 S C C C n + ^.cXmX`.7 7 q :.:.a ^.dX9X9XW.K.H.Z.| Y v v v v     ",
"          v v v n ~ 0.H.H.K.8X9X9X9XqXpXnX1X7 & * &.[.|.(.= j a.@.] ] ] ' @ # ^.yXdXnX,X7 * * `.aXqX9XW.K.H.H.u.R v v v m       ",
"G         v v v b ~ 0.H.H.H.P.8X9X9X9XqXrXtXiXxXiXl # o = j ).&X.X.X.X.X.Xa.*.= d.1XeXpXiXxXxXsXqX9X8XK.H.H.H.u.T v v v m       ",
"Q D       v v v n ~ 0.H.H.H.K.8X9X9X9X9X9XqXtXtXtXyXl @ w a. X>X>X>X>X>X Xp.k.< o ; d iXpXtXtXqX9X9X8XJ.H.H.H.y.R v v v m       ",
"Q v J F F v v n R 9.S.H.H.K.W.9X9X9X9X9X9X9X9X9XqXgXd.@ t.a. X>X>X>X>X>X Xp.).h % % 7 g iXtX9X9X9X9X0XW.J.H.H.V.| Y v v v D H D ",
"Q v v v v v n E 8.S.H.H.K.W.9X9X9X9X9X9X9X9X9X9XqXgXd.X e q p. X>X>X>X Xk.k.g.h 9 6 % * xXtXdXpX9X9X9X0XW.J.H.H.Z.| R Y n v v v ",
"Q D v N I I Y X.Z.H.H.H.K.W.9X9X9X9X9X9X9X9X9XqXqXgXd.X 5 6 j g.g.h l g.j *.f s s 9 % * xXtXaXtX9X9X9X9X0XL.H.H.H.e.` / Y n v v ",
"  F v C ^ ( ( ` 9.w.V.H.H.K.W.W.0X9X9X9X9X9XqXqXpX&Xg # d s s s 5 X o 8 8 5 8 p s s 7 * xXtX9X9X9X9X9X9XW.K.H.Z.w.u._ ( ~ M v v ",
"  m G v N ^ ^ ^ / _ u.V.H.H.H.J.8X9X9XrXtX9XqXtX1Xg @ 5 d s d 9 5 + X % % 8 % 8 s s 7 * xXtX9X9X9X0X8XW.J.H.C.$.~ ^ ^ ~ n v v D ",
"    A G v n n M ^ ( _ y.H.H.H.K.8X9X9XpXgXqXrXnXy = 6 5 d d 9 5 8 = X $ % % % 6 9 9 7 t iXtX9X9X0XQ.J.H.H.H.%.R M n n b v v A J ",
"      D v v v n ^ ` ` y.H.H.K.8X9X9X9XqXrX9XrXnX7 = 8 5 p 9 5 8 p 5 X o 8 % % % # # y 1XtXqX9X9XW.K.J.J.J.H.%.` R b v v v v H   ",
"      Q v v v n ) 0.j.V.H.K.8X9X9X9X9X9X9X9XrXnXt = p 8 > % % % > % @ X p 9 9 # l ,X1XtXqX9X9X9X0X8X8X8XW.K.A.j.8.Y b v v v     ",
"! ! ! ! v M T E 9.S.H.H.P.W.9X9X9X9X9X9X9X9XqXpX%Xy , p 6 % % % 5 8 = & z * # l 3XaXpXqX9X9X9X9X9X9X9XrXdX0XL.H.V.8.R n v v Q Q ",
"Q F v v M T ( X.Z.H.H.H.I.9X9X9X9X9X9X9X9X9X9XqXaX_.u = 6 6 6 6 9 7 < z /.& k 3XpX9X9X9X9X9X9X9X9X9X9XqXaXrXI.H.H.e.` Y I n v v ",
"    Z v N Y T ` y.S.H.H.K.Q.W.0X9XpXtX9X9X9X9X9X9XaX_.t # 9 ^.^.d * u /.k l 1XtXpXpX9X9X9X9X9X9X9X9X9X9X9X9XI.H.Z.%._ / T M v Q ",
"      Z v v n T ` 9.V.H.H.H.J.W.W.dXaX9X9X9X9X9X9X9XaX%X7 7 jXCXu r 7.u u uXtX9XdXdX9X9X9X9X9X9X9X9X9X9X9X8XP.A.%./ ~ T n v A   ",
"        b D v n ~ _ 0.H.H.H.H.H.K.8XqX9X9X9X9X9X9XqXqXsX:X- jXZXu u z - iXtX9X9XqXqX9X9X9X9X9X9X9X9X9X9X8XL.H.y./ T n m Z v     ",
"          ! m v n ~ 9.D.H.H.H.K.W.9X9X9X9X9X9X9X9X9X9XaX,X& /.].r t k 7 2XtXqX9X9X9X9X9X9X9X9X9X9X9X9X8XP.H.S.%.Y n v D         ",
"        J Q v v n ~ X.9.H.H.J.W.9X9X9X9X9X9X9X9X9X9X9XaX,X& /.].r o t z y iXtX9X9X9X9X9X9X9X9X9X9X9X9X8XK.H.u.E n v v b J D     ",
"        D v v n T / ( u.H.H.H.I.8X9X9X9X9X9X9X9X9X9X9XaX,X* SXZXu u d.& & 2XtX9X9X9X9X9X9X9X9X9X9X9X8XI.H.H.#.I v v v v m D     ",
"          b b b C P P [ %.y.D.H.I.8X9X9X9X9XqXdXtX9X9XtXyX^.z jXu l 2X^.`.uXqX9X9X9X9X9XqXdXtX9X9X8XI.S.y.%.E M v v v b m       ",
"              m M S Z N Y E 8.0.S.I.Q.W.9X9XqXdXtX9X9X9XtX2X- '.u l mXgXdXqX9X9X9X9X9X9XqXdX0XQ.Q.G.9.8.E Y M Z m b v           ",
"                      n n S R R 8.w.Z.P.W.W.W.W.0X9X9X9XtXuXk /.- l nXqXqXqX9X9X8XW.W.W.W.W.K.j.w.| T E W S n                   ",
"                            M S +.O.l.U.Y.Y.Y.T.wXpXpXpXpXaXcXg - ^.nXpXpXpXpXpXeXY.Y.Y.Y.Y.U.i.@.+.S N                         ",
"                                                                                                                                "
};
