/* XPM */
static char *black2[] = {
/* columns rows colors chars-per-pixel */
"64 64 217 2 ",
"   c None",
".  c #020202",
"X  c #0B0303",
"o  c #0B0B0D",
"O  c #080609",
"+  c #130D0D",
"@  c #0E0E11",
"#  c #110F12",
"$  c #131215",
"%  c #16151B",
"&  c #18171B",
"*  c #1B1B1C",
"=  c #1B1717",
"-  c #0D150A",
";  c #270E12",
":  c #231C1B",
">  c #2A1C1B",
",  c #251814",
"<  c #321E1F",
"1  c #2A150A",
"2  c #182411",
"3  c #2E221D",
"4  c #1E1C23",
"5  c #291D22",
"6  c #341F23",
"7  c #242324",
"8  c #26242C",
"9  c #2C2C2C",
"0  c #2A2629",
"q  c #332323",
"w  c #342C2C",
"e  c #3B2728",
"r  c #2D2B34",
"t  c #2C2A34",
"y  c #312E39",
"u  c #312E35",
"i  c #333233",
"p  c #34323D",
"a  c #3C3B3B",
"s  c #3B3536",
"d  c #67092A",
"f  c #422A2C",
"g  c #432B23",
"h  c #423B3B",
"j  c #483535",
"k  c #573838",
"l  c #4D3430",
"z  c #653B3A",
"x  c #4A0E23",
"c  c #264F19",
"v  c #49403E",
"b  c #64463A",
"n  c #595A1A",
"m  c #373440",
"M  c #3A3643",
"N  c #3E3947",
"B  c #3F3B49",
"V  c #423D4C",
"C  c #453346",
"Z  c #523F40",
"A  c #673E45",
"S  c #783E63",
"D  c #3E4141",
"F  c #434243",
"G  c #4B4343",
"H  c #46474C",
"J  c #534949",
"K  c #564749",
"L  c #4A4454",
"P  c #4D4758",
"I  c #4E495B",
"U  c #474451",
"Y  c #524B5E",
"T  c #574A55",
"R  c #5B5959",
"E  c #674646",
"W  c #78474D",
"Q  c #794A52",
"!  c #754E54",
"~  c #655A58",
"^  c #7D545A",
"/  c #6D5149",
"(  c #6E6159",
")  c #544D60",
"_  c #5A5465",
"`  c #5C596B",
"'  c #565363",
"]  c #5D5A71",
"[  c #635A67",
"{  c #665F74",
"}  c #6D4B68",
"|  c #5D6567",
" . c #676A6B",
".. c #6B667B",
"X. c #6A657A",
"o. c #726B7B",
"O. c #7D6078",
"+. c #77727B",
"@. c #756868",
"#. c #940D38",
"$. c #930E38",
"%. c #843E6B",
"&. c #BC1F5D",
"*. c #D50A56",
"=. c #CB1159",
"-. c #8A5957",
";. c #855651",
":. c #916353",
">. c #A97058",
",. c #9A5C66",
"<. c #8A5472",
"1. c #A25F69",
"2. c #846766",
"3. c #9B656B",
"4. c #8A7676",
"5. c #987975",
"6. c #A3646D",
"7. c #AC7966",
"8. c #B47767",
"9. c #A96771",
"0. c #AB6D76",
"q. c #A76A74",
"w. c #B66D79",
"e. c #B76C77",
"r. c #AA7679",
"t. c #B8737B",
"y. c #C27979",
"u. c #4EA131",
"i. c #5FC53E",
"p. c #A08710",
"a. c #D6D036",
"s. c #B28979",
"d. c #9A8475",
"f. c #DFA35D",
"g. c #D48F74",
"h. c #CB8A74",
"j. c #7A7383",
"k. c #7A758A",
"l. c #777287",
"z. c #706C82",
"x. c #837A8D",
"c. c #85788D",
"v. c #857E91",
"b. c #907086",
"n. c #AB688C",
"m. c #BB7983",
"M. c #C97A86",
"N. c #D47C8A",
"B. c #7A8384",
"V. c #768282",
"C. c #9F8686",
"Z. c #8A8396",
"A. c #8D8699",
"S. c #948B9D",
"D. c #98989A",
"F. c #858D8E",
"G. c #A48989",
"H. c #B58687",
"J. c #AC9494",
"K. c #B49999",
"L. c #AF948E",
"P. c #A2A2A2",
"I. c #AAB9BA",
"U. c #C7868E",
"Y. c #D9818A",
"T. c #DC9E85",
"R. c #D79A82",
"E. c #D98894",
"W. c #C5979B",
"Q. c #CD8C94",
"!. c #EA8A9A",
"~. c #E48897",
"^. c #E7929E",
"/. c #E1908B",
"(. c #DBA188",
"). c #C8A597",
"_. c #D8A593",
"`. c #E1A994",
"'. c #E3B29A",
"]. c #E0A58B",
"[. c #CE9CA0",
"{. c #ED9AA5",
"}. c #ED9DA8",
"|. c #C6A7A7",
" X c #D6A5A9",
".X c #C8B4A6",
"XX c #D9B7B7",
"oX c #CFBAB7",
"OX c #EEA4AD",
"+X c #E5A6AD",
"@X c #EABAA4",
"#X c #E6AAB0",
"$X c #F0AEB5",
"%X c #E3B9B9",
"&X c #F2B9BD",
"*X c #F1B3B8",
"=X c #DFC0BE",
"-X c #F1C4AD",
";X c #EBC6B6",
":X c #F6CDB6",
">X c #F9D3BD",
",X c #F5D3BE",
"<X c #F3BEC1",
"1X c #B9C3C3",
"2X c #D3C9CA",
"3X c #ECC5C5",
"4X c #EAC8C7",
"5X c #F3C3C5",
"6X c #F5CCCB",
"7X c #F4C8C9",
"8X c #FAD6C0",
"9X c #FDDAC4",
"0X c #F6D0CF",
"qX c #F7D3D1",
"wX c #EADBD6",
"eX c #DAE0E0",
"rX c #EDEFEF",
/* pixels */
"                                                                                                                                ",
"                                                T R           = h                                                               ",
"                              G w             + o w w R       + j                                                               ",
"                              s $ h             w K.XX~ 0 G J > 0.l                                                             ",
"                              h h K.h i : J     ~ v |.XXXX4.0 q M.M.f K K 0 i 0 0                                               ",
"                              G J 4X|.|.m./ 9 0 9 o w |.qX=XG.;.9.N.e 7 @.|.C.0 P.R 9 G                                         ",
"                              G J qXqXqX5XW.G.G.G.,.,.E.OX&X4X XM.e.Q 2.|.|.~ D. .-.,.^ K                                       ",
"                              G J qXqXqXqXqXqXqX6X*X$X$X$X$X$X$X+Xq.w.#XqXJ.* @.^  X7X|.4.                                      ",
"                              G Z &XqXqX<X&X&X&X&X&X&X&X7X<X}.^.#X0.E.<XqXJ.+ f 0.J.P.P.D.                                      ",
"                                k M.7X0XOX!.^.{.{.{.{.{.*X5X*X!.~.t.%XqX6XL.f ,.6.k + & F                                       ",
"                                  j %X7X5X}.OX7X6X6X6X6X$X^.E.~.!.~.%X3X+XM.3.Y.~.y.k q                                         ",
"                                J 6 M.^.^.~.!.OX6X6XqXqX7XW.0.w.E.~.m.r.0.3.,.N.N.z E                                           ",
"                          w 7 0 7 O e ,.9.9.M.!.{.}.7XqXW.W.%X X0.0. X%X X1.> < q                                               ",
"                            : G C.C.G.|.U.9.6.M.!.!.}.OXm.W.qX3XM.6.XXqX7X XC.-.,                                               ",
"                              K G.qXqXqX&X XW.U.M.OX$X^.w.W.qX5X~.9.[.$X<XqX6X#X4.K                                             ",
"                                ~ J.&X0XqXqXqX Xr.4X0X{.w.U.5X7X+Xt.Y./.{.&X<X0X6X4.~                                           ",
"                                  j 0.W.XX%X4X|.3.4X0X{.w.w.{.5X6X`.T.T./.Y.m.|.|.4X~ h                                         ",
"                                    6 : ^ 3.W.G.s %X6XOXt.6.w.^.;X8X8X8X@X7.q = i J.K h                                         ",
"                                      > Q 3.q.! q U.5X7X_.h.y.0.H.;X9X9X>X;XL.0 J G $ 9                                         ",
"                                    j 6.M.N.N.e.A l Q.5X`.g._.2X2XH.;X@X@X9X.Xw     = +                                         ",
"                                e K ,.Y.!.!.!.M.Q > 8.s.3.8.R.;XwXJ.H.h.'.:Xs.q                                                 ",
"                                  j Q W W W W ;.Q , 7.8.-.>.g.(.wXoX)._.-X@X-.,                                                 ",
"                                    e 6 e e 7 e -., >.f.:.-.g.T.>X-X-X>X9X).k e                                                 ",
"                                            G A e.1 p.a.n b g.T.:X`.(.-X>Xs.w                                                   ",
"                                          w A t.1.2 u.i.c b g.].>X8X>X9X'.:.e                                                   ",
"                                          . X ; ; . - 2 - b T.:X8X8X,X,Xd.b                                                     ",
"                                                      * 8 T 5.(.(.T.r.E (                                                       ",
"                                                : 9 a = y ) [ 2.2.2.j + 7 a i                                                   ",
"                                            9 F F F V y m V V V V B 5 u m 8 $ .                                                 ",
"                                          $ O r o.+.A.l.I M m p t t p _ ..` p *                                                 ",
"                                          * & p p m j.S.l.` ) P p p U B ` x.) t .                                               ",
"                                          0 8 Y L p ) x.S.l.] _ Y I m V ..v._ 8 .                                               ",
"                                          i 8 ) L y P x.S.A.Z.k._ Y p V o.S.o.$ .         X = = +                               ",
"                                        a r m ) V $ & ) X.k.S.S.x._ p V o.S.j.@ .         : / , b k                             ",
"                                      a = o y V 4 . O ` k.l.k.S.S.j.V p [ Z.` @ & 0 i i h j l l >.k e                           ",
"                                    v ( b / J 4 $ H = _ Z.l.X.k.S.S.X._ o.j.y * 8 * $ q z W b :.;.3 >                           ",
"                                    : )._.).2.q ~ +.i M ' } %.<.c.S.S.S.A._ o * 4 8 t E >.:.8.8.q +                             ",
"                                    , s..X5.-.s.L.w   9 $ d *.&.} b.b.b.O.C o o + 7 8 j :.h.-.E <                               ",
"                                    > ).;X(._.).E >     w x $.$.#.#.#.#.#.d 5     O . q ;.8.>.g                                 ",
"                                      v 7.'.;XL.j     h _ { } S =.*.*.*.*.&.X.5         X 1 1                                   ",
"                                        g g l /     s [ X.{ X.c.n.n.n.n.<.<.+.*                                                 ",
"                                                    # ' l.k.v.S.S.S.S.S.k...+.*                                                 ",
"                                                    O V k.S.S.S.S.S.S.S.k...j.8 7                                               ",
"                                                    O N ..x.v.S.S.S.S.Z.l.z.o.r .                                               ",
"                                                    % V ) ) { v.x.j.x.....j.Y y @                                               ",
"                                                  $ t L ) ) ) Y y 4 V ) ' _ Y P y O                                             ",
"                                                o t U Y ) ) ) V $ 4 r U Y ) ) Y L % *                                           ",
"                                                o t P ) ) ) ) V o 8 V N V ) ) ) Y t %                                           ",
"                                                o t P ) ) ) ) V o $ V L B V Y ) Y p $ o                                         ",
"                                                @ m V I ) ) I m % O y V m m Y ) Y p $ o                                         ",
"                                                $ U p V L L B r r o 8 y t p U L L M % @                                         ",
"                                                o V p r t y p m B # M M t t r y t M &                                           ",
"                                                  & V p r N P V t o m N r r p V % .                                             ",
"                                                    8 M L I N $ o O 8 V L L V &                                                 ",
"                                                    $ t m m 8 4 F 7 | ' m r 4                                                   ",
"                                                    @ o.D.D. .0   i B.F.H 9                                                     ",
"                                                    s F.2XrXP.9   i B.I.| 0                                                     ",
"                                                      a F.eXD.9   i B.D. .a                                                     ",
"                                                      9  .I.B.9   9 B.H R                                                       ",
"                                                      7  .1XD.9   9 B.H F                                                       ",
"                                                        R B.P.9   4 V.H i                                                       ",
"                                                        D  .P.9   O * D                                                         ",
"                                                          R H 7                                                                 ",
"                                                            F 9                                                                 "
};
