/* XPM */
static char *black1[] = {
/* columns rows colors chars-per-pixel */
"64 64 223 2 ",
"   c None",
".  c #020203",
"X  c #0B0B0D",
"o  c #080607",
"O  c #180F0D",
"+  c #0E0E11",
"@  c #110F12",
"#  c #141314",
"$  c #16151A",
"%  c #19171A",
"&  c #1B1A1C",
"*  c #1A1617",
"=  c #12140E",
"-  c #2A1C1C",
";  c #251717",
":  c #2B060F",
">  c #34231C",
",  c #2A2D09",
"<  c #1D1C22",
"1  c #221D23",
"2  c #321D20",
"3  c #1C2020",
"4  c #242324",
"5  c #2A2524",
"6  c #25242B",
"7  c #2C2B2C",
"8  c #2A2829",
"9  c #332425",
"0  c #332B2B",
"q  c #3B292B",
"w  c #2B2A33",
"e  c #322E36",
"r  c #332F38",
"t  c #333132",
"y  c #3B3434",
"u  c #33313C",
"i  c #3C353B",
"p  c #3A393A",
"a  c #2E3032",
"s  c #1E341E",
"d  c #630122",
"f  c #462A2E",
"g  c #45352E",
"h  c #4A2E32",
"j  c #483737",
"k  c #573936",
"l  c #502E34",
"z  c #61383F",
"x  c #2A6421",
"c  c #475031",
"v  c #664538",
"b  c #3A3642",
"n  c #3C3945",
"m  c #3E3A49",
"M  c #373642",
"N  c #413C4B",
"B  c #553D47",
"V  c #643B44",
"C  c #712B4C",
"Z  c #3A4344",
"A  c #44404D",
"S  c #484649",
"D  c #574847",
"F  c #5C514B",
"G  c #464050",
"H  c #4B4556",
"J  c #4D4759",
"K  c #4E485A",
"L  c #524B5C",
"P  c #504D54",
"I  c #4E5151",
"U  c #55585A",
"Y  c #66484A",
"T  c #785348",
"R  c #664D51",
"E  c #774E54",
"W  c #6A5957",
"Q  c #765659",
"!  c #6F4E4A",
"~  c #75655E",
"^  c #544D60",
"/  c #5A5464",
"(  c #5D5769",
")  c #5B5971",
"_  c #4F4D61",
"`  c #635D6C",
"'  c #645B71",
"]  c #755375",
"[  c #5A6364",
"{  c #686369",
"}  c #786766",
"|  c #696374",
" . c #6B657B",
".. c #666377",
"X. c #766B7D",
"o. c #7A7A7A",
"O. c #647374",
"+. c #940B39",
"@. c #A70439",
"#. c #9F1243",
"$. c #891845",
"%. c #B90442",
"&. c #8B2A4B",
"*. c #953C6C",
"=. c #D22C70",
"-. c #D02C6F",
";. c #CB175F",
":. c #895657",
">. c #895555",
",. c #8D6153",
"<. c #996659",
"1. c #9E7552",
"2. c #A06A5E",
"3. c #8C5C62",
"4. c #995C66",
"5. c #864670",
"6. c #BE4379",
"7. c #856864",
"8. c #986769",
"9. c #887569",
"0. c #967973",
"q. c #927272",
"w. c #A56868",
"e. c #B97B68",
"r. c #AA6C75",
"t. c #A76B74",
"y. c #B56B77",
"u. c #AB757C",
"i. c #AA747A",
"p. c #B8757C",
"a. c #AB7163",
"s. c #C2717E",
"d. c #75C135",
"f. c #C19019",
"g. c #E5C83E",
"h. c #998578",
"j. c #A6867C",
"k. c #C3836D",
"l. c #C9876F",
"z. c #C78874",
"x. c #D38C76",
"c. c #D6956F",
"v. c #C5855A",
"b. c #84DB44",
"n. c #716C83",
"m. c #7A7488",
"M. c #837A8E",
"N. c #857D90",
"B. c #96748E",
"V. c #B87B83",
"C. c #C47481",
"Z. c #C97986",
"A. c #D47C8A",
"S. c #7D8182",
"D. c #818788",
"F. c #898294",
"G. c #898895",
"H. c #938698",
"J. c #948B9D",
"K. c #9A839A",
"L. c #8A999A",
"P. c #969A9B",
"I. c #998387",
"U. c #B7878A",
"Y. c #B99C8D",
"T. c #B0918F",
"R. c #97A5A7",
"E. c #9FB0B1",
"W. c #B4B3B4",
"Q. c #B0ADAE",
"!. c #AE99A0",
"~. c #CC838D",
"^. c #D6818D",
"/. c #D88995",
"(. c #C8969B",
"). c #D8939C",
"_. c #CD958A",
"`. c #E48594",
"'. c #EA8A9A",
"]. c #E78A98",
"[. c #EA929D",
"{. c #E38C8E",
"}. c #C9A295",
"|. c #DAAC98",
" X c #DAB19C",
".X c #E5AE96",
"XX c #E1A98F",
"oX c #D29EA3",
"OX c #EC95A2",
"+X c #E89CA6",
"@X c #C9A7A7",
"#X c #D8A8AA",
"$X c #CEB1AF",
"%X c #CFB6B7",
"&X c #DAB6B6",
"*X c #D8B1AE",
"=X c #EEA4AD",
"-X c #E9A7A7",
";X c #EFABB2",
":X c #F0ADB4",
">X c #E4BDBD",
",X c #E7B5B8",
"<X c #F2BABE",
"1X c #F2B2B6",
"2X c #E9BBA4",
"3X c #EBC1AC",
"4X c #EAC9B8",
"5X c #F4C9B2",
"6X c #F6D2BC",
"7X c #F3BEC1",
"8X c #D7CAC9",
"9X c #EFCAC9",
"0X c #EAC5C4",
"qX c #F3C2C4",
"wX c #F4CCCB",
"eX c #F4C8C6",
"rX c #FDDBC5",
"tX c #F5D1CE",
"yX c #FAD7C1",
"uX c #F7D4D2",
"iX c #F7D3D1",
"pX c #EBD2C9",
"aX c #F2EDEB",
/* pixels */
"                                                                                                                                ",
"                                                                                                                                ",
"                                                                                                                                ",
"                                                                                                                                ",
"                                                                                                                                ",
"                                                                                                                                ",
"                                                                                                                                ",
"                                            *               @ # 0                                                               ",
"                                            # 4             0 0 T.D 8 j               0                                         ",
"                                            4 q.{ p j       S y &X!.T.} D             4 i                                       ",
"                                            8 $XI.Q R F D S t 0 #XwXuX@X} W         F Q Y                                       ",
"                                            4 $XuX<XZ.h j j 0 l Z.#X9XuX$XB R     R l s.V q                                     ",
"                                            5 $XuXiX<X/.,X0X(.8.t.r.@X9XqX~.9 D R f Z.`.V q                                     ",
"                                            5 $XiXuXqX'.OX7X9X>X,X/.V.(.wX&X0 & Y C.`.`.V y                                     ",
"                                            9 ~.qXuXqXOX:X;X<XuXtX7X,X#X:X>XQ V >.y.r.V ; 4 p 8                                 ",
"                                      4 t S - C.<XuXqXOXqX<X:X<XiXuXuX1X[.=Xr.r.V.(.U.7.W j # 4                                 ",
"                                      8 * 8 ; C.<XuXqXOXeXuX<X=XqXtXuX<XOX`.t.~.:XiXuXuX&X} 4                                   ",
"                                      0 W T.g C.1XwX<XOX7XiXiX7X+X7XtXiX7X].u.#XtXiXeX>X} - * 1                                 ",
"                                      t } 0X@Xu.^.OX[.'.OX7XuXqX'.OX<XiXqXOX,X9XiXeX).D E y.p.y.f                               ",
"                                      7 } uXqX~.p.y.C.`.'.<XuXqX'.'.+X=X+XOXqXuXqX+Xr.- 2 q.#X).3.j                             ",
"                                      5 Q 7XwX:X(.u.w.C.Z.+XqX<X~.+X;X+X'.'.oX@X(.p.4.Y z Q 0.                                  ",
"                                      q E ~.qXiXuX#Xi.t.4.Z.+X#XU.0XuX<X[.^.V.u.u.i.8.A.'.w.h                                   ",
"                                        F h ~.qXiXwX,X~.r.~.Z.V.0XiXwXwX,Xu.&X9X9X&Xr.C.A.Z.4.9                                 ",
"                                  O * 4 & o f ~.qXuX,XV.*XqX(.u.9XiX:XOX/.r.>XiXuXqXA.l - - ; o o                               ",
"                                    # z :.:.3.y.U.U.U.t.7XuX@Xu.9XiX=X{.x.z.+XqXuXwX#X0 i j                                     ",
"                                    9 E y.'.`.p.y.y.r.t.>XqX).V.#XeX=X[..X.X-XT.!.iX0XQ R                                       ",
"                                      h E y.s.A.`.].Z.8.,X=X].^.i.*X=X1XrXrXrX9.W $XeX=XY f                                     ",
"                                        R - q 3.Z.^.w.h @X-X{.x.k.r.oXeXrXrXrX4Xh.D $XeXW y                                     ",
"                                    ; - E y.r.4.w.! l ,.j T.-Xl.w.8.t.}.rXrXrXrX X,.D $XW y                                     ",
"                                      g R :.^.Z.C.V > e.,.W 8.k.7.I.q.z.2XyXrXrXY.Y ~ { 8 0                                     ",
"                                        i - :.4.4.l > k.x.v T e.7.W.Q.U.z.#X6XrXh.0   F * *                                     ",
"                                      1 # # & $ & @ > v.c.<.<.k.8.8XaX%X8.u.4X6X0.5                                             ",
"                                    @ n H / X.(  .A , f.g.1.<.l.l._.pX8X!.4XyX|.T -                                             ",
"                                    X b ^ / | m.n.M , d.b.c l <.l.x.3XpX4XrXrX7.; O                                             ",
"                                    + b ^ ^ ( F.N.N = x x s 8 Y a.|.6XrXrX6X0.y $ #                                             ",
"                                    4 n ^ ^ ( F.J.{ e w 4 6 w r Y Y. X}.T.h.y 6 6 +                                             ",
"                                t X w N J H L M.H.H.H.F...A u u i Y E j % 4 K M & o     9 O O                                   ",
"                            * # 8 % m b u 6 % _ M.J.J.H.F.| L K H i G L ^ X.) 6 4     * T <.k -                                 ",
"                          8 # F Y.h.0 b b < o & | J.F.n.G.F. .^ K u A ' m...w X <     # k >.E ,.g                               ",
"                        D ~ T 8.j.W # b u < 1 X ` J.G.m.n.F.N. .L u / n.n. .% X 4 t p & k a.a.2.T k                             ",
"                      F F  X.Xz.! X $ e w 1   # N { X.F...n.F.F.| L m.m.) / < < < X X X ! e.a.<.k.v >                           ",
"                      j 3XXX5XyXY.5 b <         1 @ 8 B.] ' n.J.H.H.B.X.m # < 6 w w w w D >.:.k.x.v >                           ",
"                      g 4X6XyXrX2X2.8 y           1 : ;.;.5.n.H.H.H.6.$.+ X # 1 w w w w >.a.:.l.l.v -                           ",
"                      F W 4XrX3X.X}.-             0 : @.@.+.&.&.&.&.#.d 4 P.Q.I + # 6 w ,.l.e.k.v v                             ",
"                        F 9.*X5X_.9.            y S B C C #.%.%.%.%.$.V U o.D.o.o.{ 4 $ g v v v k                               ",
"                          c h.Y.h.D         p # # G m. .) *.=.=.=.-.5.n.m.4 $ o.W.P.# . @ O O O                                 ",
"                            g -       1 X # < w N L ' m. .M.K.K.K.K.n.n.N.^ K e & $ X X #                                       ",
"                                    * n G G G J L ^ ^ ` M.H.J.J.J.J.n.n.N./ L H G G N w @                                       ",
"                                    # b ^ ^ ^ ^ ^ ^ ^ / F.J.J.J.J.J.F.| K L ^ ^ ^ ^ L H < &                                     ",
"                                  t 8 N ^ ^ ^ ^ ^ H N A ( ` / P P P | ( m N L ^ ^ ^ ^ ^ w 4                                     ",
"                                e 1 w N K ^ ^ L J N u u 6 1 4 1 & X 6 m n b G H J ^ ^ ^ n < .                                   ",
"                                & G u w m K K J b n H N % .       . . o < N M u b K K K b < o                                   ",
"                              & % J J u w u u u w w w #                   4 N b w u u u w < X                                   ",
"                                # b K b w w w w n w 4                     o N H b w w w b w .                                   ",
"                                % 4 n m n n n n N 4 #                     @ w e u n n n u w                                     ",
"                                  & b / / N N N w $                         $ # 6 | | H w                                       ",
"                                  # S   U + + o .                             4 Z E.P.7 i                                       ",
"                                  &     U #                                   3 S E.R.8 a                                       ",
"                                p U D.o.S                                       I U L.8 p                                       ",
"                              8 7 D.S.U                                         I 4 L.[ U S                                     ",
"                              7 4 [ 4                                             4 R.E.[ 4 %                                   ",
"                            & 4     %                                             & D.E.L.O.Z +                                 ",
"                          #         .                                                                                           ",
"                                                                                                                                "
};
