/* XPM */
static char *c109bcbe0aef4f3bad101f899dc8bed8[] = {
/* columns rows colors chars-per-pixel */
"80 80 133 2 ",
"   c #010204",
".  c #080607",
"X  c #040807",
"o  c #090907",
"O  c #040509",
"+  c #08070C",
"@  c #05090C",
"#  c #07080C",
"$  c #070B0C",
"%  c #060A0D",
"&  c #070B0E",
"*  c #06090B",
"=  c gray3",
"-  c #090909",
";  c #0A0809",
":  c #080A09",
">  c #0A0A08",
",  c #0B0A08",
"<  c #0B0B09",
"1  c #08080A",
"2  c #08090B",
"3  c #09090B",
"4  c #0B090A",
"5  c #090B0A",
"6  c gray4",
"7  c #0B0B0B",
"8  c #080D09",
"9  c #080C0B",
"0  c #0A0C0B",
"q  c #09080D",
"w  c #08090D",
"e  c #0A080D",
"r  c #090A0C",
"t  c #0A0A0C",
"y  c #0A0B0D",
"u  c #0B0B0D",
"i  c #09080E",
"p  c #0A090E",
"a  c #0B090E",
"s  c #090A0E",
"d  c #0B0A0F",
"f  c #0A0B0F",
"g  c #0D0B0C",
"h  c #0C0A0F",
"j  c #090D0C",
"k  c #080C0D",
"l  c #080E0C",
"z  c #0A0E0D",
"x  c #090D0E",
"c  c #080C0F",
"v  c #0B0C0E",
"b  c #0B0F0E",
"n  c #0A0E0F",
"m  c #0C0C0C",
"M  c gray5",
"N  c #0C0E0D",
"B  c #0E0E0C",
"V  c #0C0C0E",
"C  c #0D0D0F",
"Z  c #0F0D0E",
"A  c #0D0F0E",
"S  c #0E0E0E",
"D  c gray6",
"F  c #0A0B0D",
"G  c #100E0F",
"H  c #0A100E",
"J  c #0B110F",
"K  c #0C100F",
"L  c #0C100F",
"P  c #080B10",
"I  c #0C0B10",
"U  c #0D0B10",
"Y  c #090D10",
"T  c #0B0C10",
"R  c #0B0C11",
"E  c #0A0E11",
"W  c #0B0F12",
"Q  c #0D0C11",
"!  c #0C0D11",
"~  c #0E0C11",
"^  c #0E0E10",
"/  c #0E0F11",
"(  c #0F0F11",
")  c #0C0D12",
"_  c #0E0D12",
"`  c #0D0E12",
"'  c #0F0E13",
"]  c #0E0F13",
"[  c #0C0F14",
"{  c #0B0D11",
"}  c #100F14",
"|  c #100F14",
" . c #0A1310",
".. c #0B1013",
"X. c #0D1110",
"o. c #0F1110",
"O. c #0C1210",
"+. c #0E1211",
"@. c #0D1112",
"#. c #0C1013",
"$. c #0F1312",
"%. c #0E1213",
"&. c #0B1411",
"*. c #0D1114",
"=. c #0E1215",
"-. c #0F1316",
";. c #0D1114",
":. c #111111",
">. c #101211",
",. c #131112",
"<. c gray7",
"1. c #131313",
"2. c #101511",
"3. c #121413",
"4. c #101115",
"5. c #111214",
"6. c #121315",
"7. c #121116",
"8. c #111216",
"9. c #131217",
"0. c #121317",
"q. c #121615",
"w. c #101417",
"e. c #161415",
"r. c #141615",
"t. c #161616",
"y. c #111314",
"u. c #111518",
"i. c #121619",
"p. c #13171A",
"a. c #151419",
"s. c #15161A",
"d. c #111519",
/* pixels */
"  O # # O       O     w #         O       z               # Y #               O @ =             # #.Y O O O O O   @ z Y # O   @ #   # z z               O # # # ",
"    # #               # #                 w               O w #               O @ =             O z #     O O       @ # O             @ @                 O O O ",
"    # #               # #                 w               O w #             O O @ @               # @               O @ O                                 O O   ",
"  O # w #     O O   O w #   O     #       z O O   O   # O # Y #             O # # # O           @ Y #     O       O # # @             X @               O # # O ",
"O # # # @ O O O # O O Y #   #     #       ` @ O O O   O O # Y #               O # # O O         # Y z     O O     O # c @       O   X 0 0               O # @ O ",
"    O O O             # O                 w               O # O               O O O               # O               O @               = @                 O O   ",
"    O @ O             # @         O       z               O c @       O     O # # # O           O # #               @ @ O             @ @       O O     @ # # O ",
"# # Y Y # @ @ # @ O @ ..Y # + # # w w + = 9.= @ O O O @ # Y -.=.@ @ @ # # # w Y =.=.Y # = = @ # Y =.#.# @ # # @ # z Y Y Y @ @ 0 = = @ H #.z # Y Y # # # Y =.=.Y ",
"O # Y Y # @ # # # @ # #.` w w w + h w = = 9.Y w # # @ # # Y =.Y @ @ @ @ O O @ z =.Y z # @ # # # ` i.6.z @ Y z # P Y =.=.#.c # z 0 = z #.#.z @ w Y # @ # Y =.=.` ",
"  O # # O             w w   #     # O   O C # #       O O # Y #               # # # O       O O z =.#.@ # = w # @ # Y Y z @ O @     = z z     O O O     @ w w # ",
"    # #               # O                 w               O w #                                   = =             O # # O             @ #                 # # # ",
"  O = =               = O                 = O             # w +                 O O               = O               # # O           O # #               # w + # ",
"  O = = O             = =         O       h O           O # ` w     O O O     O = .             O h =     O O     O # c @     O O   O z #       O       # w w + ",
"    O O               = O                 h   O           # h +                 O O               = O             O # c @     O O   O # #               # w w # ",
"    O O               = O                 h O O           # w =                 O O             O = =       O       # # O     O     O # #               # + + # ",
"    O O               = =         O       C # O       O   # h =               O = = O           O = =               c Y #     O O   O z #       O       # w + O ",
". = = = #   O = O O = C C O = O . = = O = 1.w = = # = # w w } w #   # # O   O w C C = O O O O O 7 1.C O O w w # O # #.=.Y O O # # O # =.` w # # w + # # w ` I + ",
"= 7 C C = # = m = = C 1.1.= m = = m m = m t.` C h w w w ` ` a.| = = = = = O = C 1.1.C = = = = = C t.1.= = ` ` w z #.i.i.=.Y Y #.Y # ` a.0.` Y ` ` I w w ` 9.9.I ",
"  O # # O     O       = O                 C             O O h O               O O O               7 =               # w #           O + #               # w + O ",
"    # #               = =   O     O       C O O         O O C =                 = =             O C =               + w #             w #       O       # w w # ",
"    # w #     O       = O                 7 O               = O               O O O             O = .               = + O             + #               O + + O ",
"    # #               = =         O       C O O         O O C =                 O =             O m =             O + h =     O O   # w w     O         # P w # ",
"    # = O             = O                 =               O m O               O O O             O = O               # + O             + #               O + + O ",
"    # #               = =         O       m             O O C O               O O =             O 0 =               + w #     O       w #               O + + O ",
"    # =               = .                 C O O         O O C =                 = = O             = =               # = O             # #               # w w O ",
"  O = = O             = =                 C O O         O   m =                 = =               = =               = w #     O       w w               # w w # ",
"@ z ` #.C @ @ 8 X @ X &.H = 8 X # = @ # @ 6.w = = = = = 0 = 3.K = O = = O O 0 C K K 0 = = 0 0 = C t.1.= = 0 0 = # w 1.1.C @ = ` w w P 9.9.w # w w w # # ` 9.9.` ",
"  @ z C z @ X X X X X ..H @ @   O # @   @ #.8 @ O O O   @ @ #.z       =     @ z K z @ = @ 0 0 @ H 6.#.    0 0 =   = #.3.z = @ z # # Y =.=.z # # # # @ @ Y =.=.Y ",
"    @ 8 =     X       0 @         O       z                 z @             = 8 @ =       =     @ K 0             = 0 H =     @ O O @ Y Y @ O O O O     # Y Y # ",
"    @ @ X             0 =                 z X               z =             = = @ =             = K z     O O       0 0 @     @ O   O Y Y O   O O O     O c c @ ",
"                      = O                 0                 0 X               O = O             O z @               = = O             # #                 @ @ O ",
"                      =                   0 O           O   0 =                 = O               # @               @ = =     O       # #               O # # O ",
"    O O               O O                 0                 z @               O =               O 0 =               = = O             w #               O # @ O ",
"    O =               = =         X       0 X             = z @               = @                 z @               = = #           O w w               O # # O ",
"      O               @ #                 z                 z @               O @                 @ @               # @ O             # #               O @ @ O ",
"# # Y Y c # # w # @ # =.Y # # @ @ c # @ # 6.Y c # w @ # # Y =.Y w @ @ @ # # # w #.Y # @ # # # O z =.Y @ O # @ O # w ` ` w # # w # # w ` ` # # w w # # # Y ..Y Y ",
"# z Y ..Y # # Y # # # =.=.# c # # Y # # P i.Y Y w w # z z Y 6.#.w w w w @ # w w =.Y z # # # # # Y =.=.# # c # @ # w ` =.` w w w w # w =.=.w # w P w # # Y =.=.Y ",
"    @ @ O     O       # #         O     O Y O O           O z @               # # O             O # #               # # #             w #               O # # O ",
"    O @ O             @ #         O       z O             O # O                 O O               # @               # # O             # #               O # @ O ",
"    O @ O             # #   O             z               O z @               # @ O               w #     O         # # O             # #               O # # O ",
"  O @ # O     O       # # O O           O Y O O       O O @ Y w O O           O @ @             @ z #       O     # # # O     O O   O # #               # # # O ",
"    O # O             # #   O             Y               O w #               O @ #             @ # #             O # # O             # #               # # @ O ",
"    O @ O             # #   O             Y               O w #                 # #             # w =               @ @               8 #               O @ #   ",
"    O O               # #   O     O       z                 = O                 # #             O = O               @ @               @ @               O = =   ",
"  O # # O     O O   O Y c O O     O       z               O = =               O # #           O = = = O           O @ 0 =             z 0 O     O       O = = O ",
"# z =.=.Y # # Y z c Y 6.=.z Y # # Y c # c 6.z z = = = 0 0 C 1.G = = = = = = = h ` ` w = + = = C 1.1.G h = = 0 @ = C #.3.z @ @ 0 @ = z 3.3.C = = C = = = C 1.1.C ",
"# Y =.=.Y # c Y Y z Y i.=.z Y # # Y z # Y 6.H z @ 0 @ 0 z C t.1.= = = = = = w ` } } I + w = = C 1.1.1.C = 0 0 0 @ C 3.3.K 8 = 0 @ @ z 6.6.C = = C = = = C 3.1.K ",
"  O # # O     O O   O Y #   O     O       Y               O C =               # + + O         O = = O O           O 0 z =             z 0 O     O       O = @   ",
"    O O               # @                 #                 =                   O O             O O O               = = O             @ @                 O O   ",
"  O @ @ O     O O     # #         O       P             O O C O               O # #             = = O               = 0 O             0 @               O = = O ",
"  O @ # O     O O   O Y #         O       I O O         O O C =               # w w #           = = #               @ w O       O     w @                 # #   ",
"    O @ O     O     O Y #                 w O               I +               # w w #           = + #               = w               w #                 + #   ",
"  O @ # O     O       Y #                 w O               I #               # + + O           = w #               + w #             w #               # w + O ",
"O @ c c # O O @ O O O ` Y # # O   # O   O ' + # #   O   # # ` + O           # w w w # O O O   O h h w # O # # O   O w ` =   O # #   # ` w # O # O O O O + ` I + ",
"# # Y Y z @ @ # # @ # =.#.# + # # w + # # 9.w w = # # # w w } w # # # # #   # C ` ` w # # # # + ` ` ` w # + + # # # ` } w # # w # O w } ` + # w w w + + ` 9.} I ",
"# c ....Y # @ # # O # =.Y # + # # w = # # 9.I w + = = = I h 9.h # # # # O   # C ` C w # # # O # } } ` w + w w # # w } 9.I # + I w # h } ` + # w w # # # w } | h ",
"O @ z Y # O   # O   O z z O O   # # #   # ` + # #   O O w + ` #             O # w w #         O w ` w # O # # #   # I ` w O O + # O + ` ` #   O O O     # w w # ",
"  # # # @             @ O         O     O w # O         O   w O                 @ @             w I # O     #     O w w #     #     O w w               O # #   ",
"    @ @               =                   #         O   O # C =                                 @ = O             O # w #     #     O # #               O # #   ",
"    = @               0 @                 #         O   O   z =                   O             = 0               O # w #     O     O # #     O         O # @   ",
"      =       O       0 8               O # O               = =                   X             @ 0 =             O # Y #             # #     O         O # # O ",
"                      =                 O # O               0 =                 = =             @ 0 =       @     O # Y #             # #     O         O z # O ",
"      =               @ =   O # O O O   # c O               = O               = 8 @             0 z @       @     O Y =.#     O O   O c # O   O O O     @ Y Y # ",
"  O = @ =   O =     = K z   O O # O O O # Y O O O O O O @ O C =               @ 8 0 =         X 0 z @ =     # O   O Y Y #     # # O # Y Y O O O @ O O O @ Y Y # ",
"O = 0 0 @   = = =   = K z   w w # @ O # # ` O # # O # @ # # 1.= # O O O O     @ z 0 =   O O   O z z 0 = = O   @ O @ Y =.# O # Y # # c =.=.# O O O O O O # Y Y c ",
"= @ 0 0 @   O =       0 @   # # # # @ # # =.# # # @ w # w = 1.C = # O = O O @ @ z 0 =   O O O O 0 z 0 O   O     O O Y =.# O @ z c # Y =.=.# O @ O O O O # Y Y # ",
"      X               @ =         O       P O               = O                 @ @             @ z @     O O       # Y O     O O   O c #               O # # O ",
"              O       @ =   O     #       I # O             = O                 # # O           @ Y #     O O     O # Y O     O O   O # #                 @ @   ",
"    = = X     O       0 @   #   O + #   O } + = #           C O     O O O     # # # O   O     O # #.Y     @ @     O c Y #   O O O O O Y Y O   O O O     O # # O ",
"      X               @ =         O       I O O             = O                 @ @             @ Y #     O O     O # Y @     O     O # #               O # @   ",
"    = =               @ O         O       w O O             =                 O # @             O z #               # c O       O   O # # O   O         O @ O   ",
"    X =               @ O                 w   O             =                 O @ O             @ Y #               # c O     O       # # O   O         O # # O ",
"O @ z H = O   @       z z O # O O + #   # ` I # #   O   O   C O O O O = O O # @ z c @ O O O O O z =.#.O   # # O   @ Y =.Y O O # @ O # =.Y # # # # # O O # =.=.Y ",
"# z #.$.C @ @ z @ = = 1.` @ = = + w + # w 9.` w w # + # + = 1.h . . = = = # @ w #.Y # @ # # # # =.i.=.# # Y Y # # w =.6.` # # Y # # # =.=.# w w Y Y z z =.i.i.=.",
"    = =               w +         O     # w + # O           C O               # # # O         O w Y w # O # #     O w Y #     #       w #   O O O       # w w # ",
"    = = O     O       w #               # + # O             h O                 # #           O w w + # O O         w w #             # #       # # O O + I w # ",
"    O O               w w       O       + + # # O         O C =               # w + O         # I h w = # # O     # h I +     O       w +   O O         O + +   ",
"    . . O             w #               O + # O             C O               O = #           O w w = O             + h #             + #       # O     = h w # ",
"                      w +               # + # #             C .               O + + O           + w +       O     O w I #     O       w #               O + + # ",
"    O O               w @               O + + O             C O               O # # O           # w +       O     O w I #     O       w #                 + + # "
};
