/* XPM */
static char *result[] = {
/* columns rows colors chars-per-pixel */
"64 64 240 2 ",
"   c #020102",
".  c #0B0A0C",
"X  c #090508",
"o  c #16070A",
"O  c #0E0D12",
"+  c #120D14",
"@  c #1D0A12",
"#  c #131215",
"$  c #151419",
"%  c #1B1A1D",
"&  c #1A1618",
"*  c #0D1010",
"=  c #231316",
"-  c #261A1B",
";  c #2A1117",
":  c #1D1C22",
">  c #201F25",
",  c #2C1F21",
"<  c #351F23",
"1  c #1F2323",
"2  c #232224",
"3  c #2C2424",
"4  c #24232B",
"5  c #2C2A2C",
"6  c #29272C",
"7  c #332C2C",
"8  c #372729",
"9  c #2C2A34",
"0  c #292730",
"q  c #332E35",
"w  c #35333C",
"e  c #393638",
"r  c #33322F",
"t  c #6B081A",
"y  c #5A1835",
"u  c #750F27",
"i  c #4C2A35",
"p  c #493A39",
"a  c #573838",
"s  c #472E2E",
"d  c #68333D",
"f  c #431B1C",
"g  c #4D423C",
"h  c #69433C",
"j  c #3A3643",
"k  c #3D3A44",
"l  c #3E3B49",
"z  c #373440",
"x  c #423D4C",
"c  c #433B46",
"v  c #543D42",
"b  c #4D3B52",
"n  c #6A3941",
"m  c #384648",
"M  c #46464A",
"N  c #584747",
"B  c #464252",
"V  c #4A4554",
"C  c #4D4957",
"Z  c #524C5D",
"A  c #514B56",
"S  c #555358",
"D  c #66484B",
"F  c #774A4E",
"G  c #7B4B52",
"H  c #695957",
"J  c #7A585A",
"K  c #70524B",
"L  c #71625B",
"P  c #544D60",
"I  c #595563",
"U  c #5B5A74",
"Y  c #665B6D",
"T  c #6C5E73",
"R  c #69626B",
"E  c #6A6578",
"W  c #756C7E",
"Q  c #72787C",
"!  c #707471",
"~  c #576567",
"^  c #96011D",
"/  c #8C031C",
"(  c #970925",
")  c #941537",
"_  c #8F0C2E",
"`  c #A40122",
"'  c #B50329",
"]  c #B90D34",
"[  c #A8153A",
"{  c #B9193B",
"}  c #A30E34",
"|  c #AD233D",
" . c #A9142B",
".. c #C6012A",
"X. c #CC022D",
"o. c #D7012E",
"O. c #C80A35",
"+. c #D60936",
"@. c #C6143B",
"#. c #D6133D",
"$. c #A51B47",
"%. c #AF1342",
"&. c #972C51",
"*. c #AC2457",
"=. c #AD344F",
"-. c #AA3D79",
";. c #AC3169",
":. c #9B285A",
">. c #D3084C",
",. c #CA1C44",
"<. c #DB1946",
"1. c #D60F53",
"2. c #C9264B",
"3. c #D7274E",
"4. c #DA2A53",
"5. c #D23556",
"6. c #C43354",
"7. c #E12A55",
"8. c #DC336B",
"9. c #E23A63",
"0. c #86555A",
"q. c #854E57",
"w. c #9D6A5B",
"e. c #A26D5B",
"r. c #955964",
"t. c #8C4D6E",
"y. c #AE4477",
"u. c #846868",
"i. c #927173",
"p. c #A4636D",
"a. c #A97567",
"s. c #B97A6B",
"d. c #A86972",
"f. c #B86C78",
"g. c #A9757A",
"h. c #B6777B",
"j. c #B4636F",
"k. c #B6405D",
"l. c #E64B75",
"z. c #E65B7C",
"x. c #E44A6C",
"c. c #C5787D",
"v. c #E8627E",
"b. c #988376",
"n. c #BB8671",
"m. c #C98B77",
"M. c #CB8A74",
"N. c #736D81",
"B. c #797487",
"V. c #6F6B82",
"C. c #DB3780",
"Z. c #B75098",
"A. c #827B8C",
"S. c #8A7386",
"D. c #867E90",
"F. c #966F88",
"G. c #B67B83",
"H. c #B06B8E",
"J. c #BB59A6",
"K. c #A75F99",
"L. c #D35092",
"P. c #E55887",
"I. c #E25592",
"U. c #C87985",
"Y. c #D47C8B",
"T. c #C87A9F",
"R. c #EB7094",
"E. c #D255A4",
"W. c #C86BB3",
"Q. c #D277CF",
"!. c #E37CCA",
"~. c #7D8989",
"^. c #8A8295",
"/. c #8E8698",
"(. c #8B8892",
"). c #948B9D",
"_. c #908E96",
"`. c #8C9798",
"'. c #9A898A",
"]. c #A58989",
"[. c #B9878C",
"{. c #B69898",
"}. c #B5958D",
"|. c #97A6A7",
" X c #A9A3A5",
".X c #D8848D",
"XX c #C98C93",
"oX c #D98995",
"OX c #C49498",
"+X c #CF8D8D",
"@X c #EA8999",
"#X c #E48695",
"$X c #E9919E",
"%X c #E48A8E",
"&X c #CBAA9C",
"*X c #D1A695",
"=X c #CC9DA1",
"-X c #DA90A2",
";X c #EC96A2",
":X c #EC9AA5",
">X c #E69CA5",
",X c #D5A8AB",
"<X c #D8B6B6",
"1X c #CFB0AC",
"2X c #EAA7A9",
"3X c #EBBBA4",
"4X c #EDAEB4",
"5X c #F0ACB4",
"6X c #EAB9BB",
"7X c #F1B3B9",
"8X c #F2B9BC",
"9X c #DFC0BE",
"0X c #F5D3BE",
"qX c #F0C9B6",
"wX c #D896D3",
"eX c #E990D2",
"rX c #F3BEC1",
"tX c #EDADCA",
"yX c #DC94E8",
"uX c #D88BE8",
"iX c #E29CEA",
"pX c #E4A6E7",
"aX c #E7A8FD",
"sX c #EDB7FA",
"dX c #ECC7C6",
"fX c #F3C4C6",
"gX c #F4CCCB",
"hX c #F5C7C8",
"jX c #FEDCC6",
"kX c #F8D5C7",
"lX c #F7D3D1",
"zX c #EADFDD",
"xX c #F5C7F9",
"cX c #FDDCFB",
"vX c #F9D4F8",
"bX c #F6C1EE",
"nX c #FFE0FB",
"mX c #EEE9E8",
"MX c #FBE6D9",
"NX c None",
/* pixels */
"NXNXNXNXNXNXNXNXNXNXNXNXNXNXNXNXNXNXNXNXNXNXNXNXNXNXNXNXNXNXNXNXNXNXNXNXNXNXNXNXNXNXNXNXNXNXNXNXNXNXNXNXNXNXNXNXNXNXNXNXNXNXNXNX",
"NXNXNXNXNXNXNXNXNXNXNXNXNXNXNXNXNXNXNXNXNXNXNXNXNXNXNXNXNXNXNXNXNXNXNXNXNXNXNXNXNXNXNXNXNXNXNXNXNXNXNXNXNXNXNXNXNXNXNXNXNXNXNXNX",
"NXNXNXNXNXNXNXNXNXNXNXNXNXNXNXNXNXNXNXNXNXNXNXNXNXNXNXNXNXNXNXNXNXNXNXNXNXNXNXNXNXg % . & NXNXNXNXNXNX% NXNXNXNXNXNXNXNXNXNXNXNX",
"NXNXNXNXNXNXNXNXNXNXNXNXNXNXNXNXNXNXNXNXNXNXNXNXNXNXNXNXNXNX8 NXNXNXNXNXNXNXNX3 e ].H 5 NXNXNXNXNXNXr . NXNXNXNXNXNXNXNXNXNXNXNX",
"NXNXNXNXNXNXNXNXNXNXNXNXNXNXNXNXNXNXNXNXNXNXNXNXNXNXNXNXNXNX> NXNXNXNXNXNXH H {.{.dXL e NXNXNXA 7 M b.2 NXNXNXNXNXNXNXNXNXNXNXNX",
"NXNXNXNXNXNXNXNXNXNXNXNXNXNXNXNXNXNXNXNXNXNXNXNXNXNXNXNXNXa G v NXNXNXNXH R ].gXlX7XD 6 p M A F 0.'.<X7 NXNXNXNXNXNXNXNXNXNXNXNX",
"NXNXNXNXNXNXNXNXNXNXNXNXNXNXNXNXNXNXNXNXNXNXNXNXNXNXNXNXNX= c.q.N NXNXNXa ].lXlX,X+XG s N M i g.7XlX9X7 NXNXNXNXNXNXNXNXNXNXNXNX",
"NXNXNXNXNXNXNXNXNXNXNXNXNXNXNXNXNXNXNXNXNXNXNXNXNXNXNXNXNX- U.Y.q.a H 2 d.6XgX<XH.g.g.[.dXqX$X7XlXlX9X7 NXNXNXNXNXNXNXNXNXNXNXNX",
"NXNXNXNXNXNXNXNXNXNXNXNXNXNXNXNXNXNXNXNXNXNXNXNXNXNXNXNXNX- f.#XY.r.8 & {.gX<XG.oX6XdXdXrX:X$X7XlXlX6X8 NXNXNXNXNXNXNXNXNXNXNXNX",
"NXNXNXNXNXNXNXNXNXNXNXNXNXNXNXNXNXNXNXNXNXNXNXNXNXNXNX2 7 . < 0.d.r.F G 1X7X:X6XrXlXlXrX:XrX;X7XlXdX-X, p NX7 NXNXNXNXNXNXNXNXNX",
"NXNXNXNXNXNXNXNXNXNXNXNXNXNXNXNXNXNXNXNXNXNXNXNXNXNXNXr 3 u.i.{.=XXXG.p.-X;X:XlXlXlXrX4XrXhX:X7XlXdX.X, e e & NXNXNXNXNXNXNXNXNX",
"NXNXNXNXNXNXNXNXNXNXNXNXNXNXNXNXNXNXNXNXNXNXNXNXNXNXNXe 5 ].dXlXlXfX>Xd.Y.:X7XlXlXrX5X7XlXgX:X5XlXhX.X, 7 7 1 NXNXNXNXNXNXNXNXNX",
"NXNXNXNXNXNXNXNXNXNXNXNXNXNXNXNXNXNXNXNXNXNXNXNXNXNX8 , - i {.9XgXlXdXG..X7XlXlXfX;X7XlXlXrX;X5XhX8X.Xp ].b.% NXNXNXNXNXNXNXNXNX",
"NXNXNXNXNXNXNXNXNXNXNXNXNXNXNXNXNXNXNXNXNXNXNXNXNX8 n j.U.p.7 d.4XlXlXdX:X5XgXfX;X@X7XlXhX:X@X@X$X.Xg.,XdX'.@ / _ ( / ( NXNXNXNX",
"NXNXNXNXNXNXNXNXNXNXNXNXNXNXNXNXNXNXNXNXNXNXNXNX8 NXNXNX[.8 . F Y.5XgXgX:X$X:X;X@X#X7XlXhX$X@XU.d.d.Y.fXkXi.@  .....X.O.) _ NXNX",
"NXNXNXNXNXNXNXNXNXNXNXNXNXNXNXNXNXNXNXNXNXNXNXNXNXNXNXNXD 0.q.r.d.G.[.OXoX@X;X7X4XXX,XrX:XG.f.d.g.,X7XgX8Xw.; ) 3.5.5.5.=.' | NX",
"NXNXNXNXNXNXNXNXNXNXNXNXNXNXNXNXNXNXNXNXNXNXNXNXNXNXNXD q.R.@Xj.G.[.[.[.U.-X7XlXgX=XOX>X.Xp.d.G.,XlXlXrXG.J a NXNXNXNXNXNX2.NXNX",
"NXNXNXNXNXNXNXNXNXNXNXNXNXNXNXNXNXNXNXNXNXNXNXNXNXNX3 a f.f.f.d.=XlXlXgX[.oXhXhXlXlX{.f.-XG.U.6XlXgXrXY.i p NXNXNXNXNXNXNXNXNXNX",
"NXNXNXNXNXNXNXNXNXNXNXNXNXNXNXNXNXNXNXNXNXNXNXNXNX; X o ; - - d.4XlXlXhXh.c.;X:XhXlX{.[.hXdXG.OXdXrXXXa = = = O o NXNXNXNX2.NXNX",
"NXNXNXNXNXNXNXNXNXNXNXNXNXNXNXNXNXNXNXNXNXNXNXNXNXNXNXNXNXNX3 ].gXlXgX2Xm.m.M.$XgXlXOX[.gXdXG.d.g.g.p.f.f.f.r.o NXNXNXNXNXNXNXNX",
"NXNXNXNXNXNXNXNXNXNXNXNXNXNXNXNXNXNXNXNXNXNXNXNXNXNXNXNXNXp u.,XlX,XL 2XqX3X3X;XfX=XXXoX4XdXg.f.U.U.U.R.@Xf.n NXNXNXNXNXNXNXNXNX",
"NXNXNXNXNXNXNXNXNXNXNXNXNXNXNXNXNXNXNXNXNXNXNXNXNXNXNXNXNX; XXfX1X! ! qXjXjXqX2X=Xn.c..X$XqXJ d.@XY.U.U.p.G NXNXNXNXNXNXNXNXNXNX",
"NXNXNXNXNXNXNXNXNXNXNXNXNXNXNXNXNXNXNXNXNXNXNXNXNXNXNXNXd 7 1X<XL H 0XjXjXjXhX,Xd.s.M.%X>X{.h h U.U.r.G s NXNXNXNXNXNXNXNXNXNXNX",
"NXNXNXNXNXNXNXNXNXNXNXNXNXNXNXNXNXNXNXNXNXNXNXNXNXNXNX=.( - {.D h m.0XjXjX0X,Xi.p.w.s.*X}.g e.h i p.r.s N NXNXNXNXNXNXNXNXNXNXNX",
"NXNXNXNXNXNXNXNXNXNXNXNXNXNXNXNXNXNXNXNXNXNXNXNXNXNX3.{ t X < _ u K 0XjXjX3Xm.i.).u.s.e.p e.M.g i Y.Y.c.D % = NXNXNXNXNXNXNXNXNX",
"NXNXNXNXNXNXNXNXNXNXNXNXNXNXNXNXNXNXNXNXNXNXNXNXNX5.{ ;.t.@ t =.d g 0X0X*Xn.[.1X|.J e.e.d M.M.h ; i a a - 3 NXNXNXNXNXNXNXNXNXNX",
"NXNXNXNXNXNXNXNXNXNXNXNXNXNXNXNXNXNXNXNXNXNXNXNX5.{ k.L.-._ ) NXh s 3X0X,X{.<XmX).g.s.s.K h q.g e 9 k c & 2 e NXNXNXNXNXNXNXNXNX",
"NXNXNXNXNXNXNXNXNXNXNXNXNXNXNXNXNXNXNXNXNXNXNX5.@.=.oXv.#.,.NXNXNXf b.qXjXMXmXzX{.M.M.e.a # - H B.E A.W 9 X # #   - NXNXNXNXNXNX",
"NXNXNXNXNXNXNXNXNXNXNXNXNXNXNXNXNXNXNXNXNXNX5.@.=.wXl.<.7.NXNXNXNXNXs &X0XjXjX0X*XM.w.N q j W N.B.D.I : & 7 M V w 4 + .   NXNXNX",
"NXNXNXNXNXNXNXNXNXNXNXNXNXNXNXNXNXNXNXNXNX@.] =.tXiX8.x.NXNXNXNXNXNXNXg &X0XkXkXqXa.v q j N.E B./.D.Z O ! u.% M V B x x x X NXNX",
"NXNXNXNXNXNXNXNXNXNXNXNXNXNXNXNXNXNXNXNXNX| ^ =.tXP.>.7.NXNXNXNXNXNX2 * p N L b.i.D c M P ^.A./.).A.4 X b.b.X % : 9 x P V   NXNX",
"NXNXNXNXNXNXNXNXNXNXNXNXNXNXNXNXNXNXNXNXNX| &.T.pX3.7.NXNXNXNXNXNXNX  e M 5 2 a v c V Y N./.).).B.S H L }.n.H a o : l V z + NXNX",
"NXNXNXNXNXNXNXNXNXNXNXNXNXNXNXNXNXNXNXNXO.%.T.sX!.<.9.NXNXNXNXNXNXr 2 Y ^.E k w 9 V P E ).).)./.Z 7 9X&Xn.+X&XM.- * r l : NXNXNX",
"NXNXNXNXNXNXNXNXNXNXNXNXNXNXNXNXNXNXNXX.( L.aXtX<.+.NXNXNXNXNXNXr # 4 $ R ^.N.Z w V P E )././.B.l 4 }.N a K 0.n.- *   * NXNXNXNX",
"NXNXNXNXNXNXNXNXNXNXNXNXNXNXNXNXNXNXNX+.( J.sXtX7.NXNXNXNXNXNX5 % 4 4 . V U V.N.k V Z E ^.E U B.S * 3 L s # 8 *X3 3 NXNXNXNXNXNX",
"NXNXNXNXNXNXNXNXNXNXNXNXNXNXNXNXNXNX@.[ Z.pXsXeX7.NXNXNXNXNX5 > 4 9 9 : 1 P B.V.W B.B.^.^.U U B.~.S   NXNX&   r . NXNXNXNXNXNXNX",
"NXNXNXNXNXNXNXNXNXNXNXNXNXNXNXNXNXNX..) Q.xXeXC.<.NXNXNXNXe % 4 9 4 $ O 1 k M l V.D.D.H.y.-.;.-.t.V NXNXNXNXNXNXNXNXNXNXNXNXNXNX",
"NXNXNXNXNXNXNXNXNXNXNXNXNXNXNXNXNX3.] ;.yXxXR.+.#.NXNXNXj O 4 9 4 : O   NXNX$ 4 b V.K.-.>.>.>.1._ ; NXNXNXNXNXNXNXNXNXNXNXNXNXNX",
"NXNXNXNXNXNXNXNXNXNXNXNXNXNXNXNX,.' $.uXvXvXR.o.<.NXNXv $ 0 9 4 # # NXNXNXNXNXNX: u } ) u ) ) ) y @ NXNXNXNXNXNXNXNXNXNXNXNXNXNX",
"NXNXNXNXNXNXNXNXNXNXNXNXNXNXNXNX3.' &.uXvXsXI.o.+.<.y 0 4 0 0 X O NXNXNXNXNX+ # @ $.1.*.U S.F.D.T b + NXNXNXNXNXNXNXNXNXNXNXNXNX",
"NXNXNXNXNXNXNXNXNXNXNXNXNXNXNX3.{ *.Q.sXvXsXE.o.<.E.y # 1 O X + NXNXNXNX7 c Y R R F.Z.i.E /.).)./.E # NXNXNXNXNXNXNXNXNXNXNXNXNX",
"NXNXNXNXNXNXNXNXNXNXNXNXNXNXNXo.` -.aXcXnXpX!.L.L.pXb X @ f @ NXNXNXNXq + C ^.N.N.N.D.D.B.B./.).).N.% NXNXNXNXNXNXNXNXNXNXNXNXNX",
"NXNXNXNXNXNXNXNXNXNXNXNXNXNXNX+.` Z.aXcXnXsXaXaXaXvXS.x y u NXNXNXNXe # $ C V.P P P Y S./.N./.).).A.e e NXNXNXNXNXNXNXNXNXNXNXNX",
"NXNXNXNXNXNXNXNXNXNXNXNXNXNXNX#.} U.vXcXnXvXvXvXcXnXvXwXJ.) NXNX8 X : q x P P P P P l C A./.)./.^.B.E # NXNXNXNXNXNXNXNXNXNXNXNX",
"NXNXNXNXNXNXNXNXNXNXNXNXNXNX+.( Z.pXnXnXnXnXnXnXnXcXsXZ.} @.NXs 0 b V V P P P P Z Z l q B D./.V.M % #   NXNXNXNXNXNXNXNXNXNXNXNX",
"NXNXNXNXNXNXNXNXNXNXNXNXNXNXX.^ J.sXnXnXnXnXnXnXnXcXaXZ.( X.NXr 0 Z P P P P P Z j z q 9 9 B V 9 0 NXNXNXNXNXNXNXNXNXNXNXNXNXNXNX",
"NXNXNXNXNXNXNXNXNXNXNXNXNXNXX.^ W.xXnXnXnXnXnXnXcXsXW.*.2.6.&.r w P P P P P V l x l 0 $ $ $ . # NXNXNXNXNXNXNXNXNXNXNXNXNXNXNXNX",
"NXNXNXNXNXNXNXNXNXNXNXNXNXNX#.=.wXnXnXnXnXnXcXcXsXW.*.%.6.q.9 4 l P P P P V l q x j > X * .   NXNXNXNXNXNXNXNXNXNXNXNXNXNXNXNXNX",
"NXNXNXNXNXNXNXNXNXNXNXNXNXP.8.eXxXcXnXnXnXnXvXsXW.$.] 2.NX@ x z l Z P P C l 9 z 1 * % % . NXNXNXNXNXNXNXNXNXNXNXNXNXNXNXNXNXNXNX",
"NXNXNXNXNXNXNXNXNXNXNXNXP.8.eXsXcXnXnXnXnXcXsXQ.$.] NXNXNX  x j l Z Z V j 9 z l # : 0 :   NXNXNXNXNXNXNXNXNXNXNXNXNXNXNXNXNXNXNX",
"NXNXNXNXNXNXNXNXNXNXNXP.I.!.sXcXnXnXcXcXcXsXW.$.@.NXNXNXNX  B V l z z z 9 l l 9 . 1 5 1 . NXNXNXNXNXNXNXNXNXNXNXNXNXNXNXNXNXNXNX",
"NXNX9.x.z.z.v.v.v.z.P.R.!.xXcXcXnXnXvXsXsXW.*.{ 2.NXNXNXNX- w x l 9 9 9 j l j 4 . : 9 4 % 1 NXNXNXNXNXNXNXNXNXNXNXNXNXNXNXNXNXNX",
"NXNX<.o...8.l.l.l.x.l.eXsXnXnXnXvXxXpXW.J.*.%.,.NXNXNXNXNXNX. w l j j j V l 9 4 . 4 9 j ~ 9 m NXNXNXNXNXNXNXNXNXNXNXNXNXNXNXNXNX",
"NXNXNXO.} J.pXxXvXvXvXcXcXcXvXvXyXQ.J.) ( ] ,.NXNXNXNXNXNXNX  4 z P T U C w 1 : O : 9 I |.|.m $ 6 NXNXNXNXNXNXNXNXNXNXNXNXNXNXNX",
"NXNXNXNX@.} J.uXiXvXvXvXcXxXyXuX-.) } O...NXNXNXNXNXNXNXNXNXNX. % C ^._.k . . * 1 0 0 S |.|.~.`.! 1 #   NXNXNXNXNXNXNXNXNXNXNXNX",
"NXNXNXNXNX@.[ &.-.iXaXaXaXuX:.:.] ..] NXNXNXNXNXNXNXNXNXNXNXNXNX1 e _.NXw O 1 1 9 0 % $ 5 5 r Q |.~.Q * NXNXNXNXNXNXNXNXNXNXNXNX",
"NXNXNXNXNXNX{ ' ] ;.-.-.Z.;.' ' 2.2.NXNXNXNXNXNXNXNXNXNXNXNXNXNX1 6 Q ~ g $ . $ $ X $ NXNXNXr S Q |.|.1 NXNXNXNXNXNXNXNXNXNXNXNX",
"NXNXNXNXNXNXNX#.2.` ^ ` ^ ' 2.X.NXNXNXNXNXNXNXNXNXNXNXNXNXNXNXNX% 1 ~ 1 NXNXNX  X NXNXNXNXNXNXNXS Q `.1 NXNXNXNXNXNXNXNXNXNXNXNX",
"NXNXNXNXNXNXNXNXNX+.+.+.X.X.NXNXNXNXNXNXNXNXNXNXNXNXNXNXNXNXNXNX1 $ m # NXNXNXNXNXNXNXNXNXNXNXNXNXr Q % NXNXNXNXNXNXNXNXNXNXNXNX",
"NXNXNXNXNXNXNXNXNXNXNXNXNXNXNXNXNXNXNXNXNXNXNXNXNXNXNXNXNXNXNXX 1 NXNX. NXNXNXNXNXNXNXNXNXNXNXNXNXNX%   NXNXNXNXNXNXNXNXNXNXNXNX",
"NXNXNXNXNXNXNXNXNXNXNXNXNXNXNXNXNXNXNXNXNXNXNXNXNXNXNXNXNXNXNX. . NXNX  NXNXNXNXNXNXNXNXNXNXNXNXNXNXNXNXNXNXNXNXNXNXNXNXNXNXNXNX",
"NXNXNXNXNXNXNXNXNXNXNXNXNXNXNXNXNXNXNXNXNXNXNXNXNXNXNXNXNXNXNXNXNXNXNXNXNXNXNXNXNXNXNXNXNXNXNXNXNXNXNXNXNXNXNXNXNXNXNXNXNXNXNXNX",
"NXNXNXNXNXNXNXNXNXNXNXNXNXNXNXNXNXNXNXNXNXNXNXNXNXNXNXNXNXNXNXNXNXNXNXNXNXNXNXNXNXNXNXNXNXNXNXNXNXNXNXNXNXNXNXNXNXNXNXNXNXNXNXNX",
"NXNXNXNXNXNXNXNXNXNXNXNXNXNXNXNXNXNXNXNXNXNXNXNXNXNXNXNXNXNXNXNXNXNXNXNXNXNXNXNXNXNXNXNXNXNXNXNXNXNXNXNXNXNXNXNXNXNXNXNXNXNXNXNX"
};
