/* XPM */
static char *_6df505414c94ca4a89cf0b7aa21cf43[] = {
/* columns rows colors chars-per-pixel */
"70 51 248 2 ",
"   c None",
".  c #0C0404",
"X  c #08080B",
"o  c #140302",
"O  c #1B0402",
"+  c #170A08",
"@  c #030D14",
"#  c #060E15",
"$  c #04121D",
"%  c #0D131A",
"&  c #091114",
"*  c #141517",
"=  c #18100F",
"-  c #260806",
";  c #29110C",
":  c #3A1409",
">  c #2A171A",
",  c #391817",
"<  c #350D11",
"1  c #38221C",
"2  c #021424",
"3  c #091B29",
"4  c #051D34",
"5  c #1B162A",
"6  c #391D26",
"7  c #29173B",
"8  c #2F1730",
"9  c #19252D",
"0  c #0C2538",
"q  c #152836",
"w  c #282429",
"e  c #382727",
"r  c #382636",
"t  c #393637",
"y  c #282B39",
"u  c #480904",
"i  c #43150B",
"p  c #481A19",
"a  c #54140E",
"s  c #731C00",
"d  c #6F1E04",
"f  c #48251B",
"g  c #592319",
"h  c #50311A",
"j  c #672618",
"k  c #732D10",
"l  c #4B1838",
"z  c #4D182E",
"x  c #472824",
"c  c #572925",
"v  c #49342B",
"b  c #58372A",
"n  c #453738",
"m  c #573838",
"M  c #4B2936",
"N  c #632B27",
"B  c #69372A",
"V  c #773829",
"C  c #793C35",
"Z  c #673434",
"A  c #3E493B",
"S  c #6C4B1A",
"D  c #474736",
"F  c #56463A",
"G  c #554F2E",
"H  c #664926",
"J  c #684639",
"K  c #79443A",
"L  c #6C563A",
"P  c #755826",
"I  c #756339",
"U  c #5A4D1E",
"Y  c #0F194F",
"T  c #39154D",
"R  c #2E164D",
"E  c #052A47",
"W  c #132E44",
"Q  c #1A364A",
"!  c #192657",
"~  c #0A3758",
"^  c #183A56",
"/  c #042E51",
"(  c #253B49",
")  c #342D4E",
"_  c #361E64",
"`  c #142E6E",
"'  c #2F2E70",
"]  c #1F1E62",
"[  c #471746",
"{  c #473A56",
"}  c #51354C",
"|  c #68384B",
" . c #38474B",
".. c #2A475B",
"X. c #364A59",
"o. c #3C525A",
"O. c #1C4566",
"+. c #144B72",
"@. c #284A66",
"#. c #364869",
"$. c #375667",
"%. c #27557A",
"&. c #375975",
"*. c #2F4B79",
"=. c #39627E",
"-. c #1E415A",
";. c #484547",
":. c #584945",
">. c #575A4A",
",. c #484B58",
"<. c #574B57",
"1. c #4A5658",
"2. c #5A5657",
"3. c #4B594D",
"4. c #674846",
"5. c #764946",
"6. c #675447",
"7. c #7C584A",
"8. c #684452",
"9. c #675754",
"0. c #765956",
"q. c #7D4B57",
"w. c #5C675C",
"e. c #556257",
"r. c #666557",
"t. c #767356",
"y. c #6F6852",
"u. c #465967",
"i. c #575867",
"p. c #4D4F6E",
"a. c #645365",
"s. c #57676A",
"d. c #4A6775",
"f. c #576775",
"g. c #4C7279",
"h. c #587172",
"j. c #676767",
"k. c #796A68",
"l. c #74786B",
"z. c #696B74",
"x. c #6A7778",
"c. c #757576",
"v. c #6B726E",
"b. c #882A02",
"n. c #923401",
"m. c #893714",
"M. c #833C2B",
"N. c #9C440D",
"B. c #A65308",
"V. c #AA5310",
"C. c #BC641D",
"Z. c #88452C",
"A. c #964A24",
"S. c #894937",
"D. c #924937",
"F. c #8D5437",
"G. c #AA582F",
"H. c #906932",
"J. c #AC6B32",
"K. c #C57537",
"L. c #C97130",
"P. c #865848",
"I. c #935948",
"U. c #885855",
"Y. c #8D4F47",
"T. c #A65947",
"R. c #B25D46",
"E. c #986749",
"W. c #956856",
"Q. c #98755C",
"!. c #8C6F4B",
"~. c #B86949",
"^. c #AA7B4E",
"/. c #A46858",
"(. c #BB6A57",
"). c #A87757",
"_. c #B4754B",
"`. c #886967",
"'. c #887879",
"]. c #967976",
"[. c #937169",
"{. c #AB7766",
"}. c #C77450",
"|. c #C67862",
" X c #76827F",
".X c #BA813E",
"XX c #D5823E",
"oX c #E38C3F",
"OX c #B7854C",
"+X c #A98659",
"@X c #B28C55",
"#X c #808579",
"$X c #B68467",
"%X c #B08B6D",
"&X c #948256",
"*X c #D78747",
"=X c #C88955",
"-X c #D48857",
";X c #CC955B",
":X c #D29053",
">X c #E69655",
",X c #F59958",
"<X c #E38B4D",
"1X c #F7A459",
"2X c #C19565",
"3X c #D29371",
"4X c #E29461",
"5X c #DEAC67",
"6X c #EBAC6C",
"7X c #183B87",
"8X c #284786",
"9X c #345190",
"0X c #386393",
"qX c #3463A5",
"wX c #486A88",
"eX c #597689",
"rX c #557897",
"tX c #50738F",
"yX c #646D85",
"uX c #697886",
"iX c #777A86",
"pX c #737896",
"aX c #4773AC",
"sX c #6A5F80",
"dX c #887E85",
"fX c #5C829C",
"gX c #7B8588",
"hX c #6E8896",
"jX c #5982A3",
"kX c #6B8EA6",
"lX c #4A84C2",
"zX c #858689",
"xX c #898A98",
"cX c #9A9699",
"vX c #8F928E",
"bX c #A99191",
"nX c #AEA79E",
"mX c #9A99A9",
"MX c #8F94AF",
"NX c #9BA4A5",
"BX c #A3A8A9",
"VX c #B5A6A7",
"CX c #ADB5B6",
"ZX c #9AA292",
"AX c #C4B7BB",
"SX c #B4B3C9",
"DX c #C6BDC0",
"FX c #C5C0C9",
/* pixels */
"                                                                                                            &.@.O.O.*.                      ",
"                                                                                              kXkX          =.@.O.^ O.&.                    ",
"                                                                                            rXwX&.#.....&.  &.@.^ E E ^ @.&.                ",
"                                                                                            tX=.-.E 4 4 ^ &.$.^ W 4 4 4 0 W @.              ",
"                                                                                              rX&.Q 4 2 0 Q Q W q 0 3 2 $ 2 W               ",
"                                                                                                rX$.Q 3 2 3 3 3 9 9 9 % @ $ 3 (             ",
"                                                                                                eX$.( 3 2 $ $ $ % * 5 % & @ $ q ..          ",
"                                                                                              wXd.X.( 3 $ $ # X X . = * * & @ 2 0 @.        ",
"                                                                                          fXd.X.( ( q 3 & @ X X . . . + = * & @ 3 Q *.      ",
"                                                                                      hXeXu.( q 3 3 3 % X . . o o o o + = * * @ $ 4 W       ",
"                                                                                kXeXd.u.o.( 9 $ @ # & X X . o + O O O O + = * & $ 2 4 @.    ",
"                                                                          jXtXwXd.X.y 9 9 9 % % & & X . . + + O - - O o o o X & $ 2 4 @.    ",
"                                                            kXkXjXjXrXjXrXwX&.d.u. .w * * % % % * X X . . o O - - - - ; ; + . X @ 2 0       ",
"                                                  rXeXeXeXeXeXeXrXtXwX9X&.#.p.yXiXc.<.n w * = X X X . o o O O - - ; , v v > . X @ 3 Q       ",
"                                              kXeXd.u.u.u.u.f.uXpXpXyX#.^ #.p.iXcXbX].0.v > + o o o o O O - - ; : : x 4.:.e X X $ q $.      ",
"                                            eXg.h.h.u.1.s.x.zXxXmXmXMXyXp.u.,.a.k.].%X`.b , ; - O O O - ; , f x c c b :.;.w % $ 0 ..        ",
"                                          g.$.u.h.x.s.s.c.vXmXmXSXSXSXxXyXi.;.n m U.%XQ.J p : - - - ; , x m J 4.5.6.4.:.n y 9 q (           ",
"                                        eXg.h.x.gXzXl.w.j.c.zXdXxXmXMXpXz.<.M f c I.3X$XI.B p i : , , x m 0.`.[.].].k.2.;. . .....          ",
"                                        g.h.vXBXBXvXl.>.;.D 3.<.i.i.i.i.{ r , p C /.3X3X{.Y.N g g c c m 0.`.bXbXVXVXvXz.1.u.d.&.&.          ",
"                                        d.gXNXCXZX#Xt.>.D t ;.i.i.i.,.{ r > < N Y.(.3X3X|.T.M.V K Y.5.5.5.0.].VXAXAXBXzXx.eXeXtX            ",
"                                        d.x.vXvXl.e.>.>.D D j.zXxXiX<.r > , c M.T.(.}.}.(.T.D.D./.{.W.7.Z m 0.bXAXFXSXNXkXhXfX              ",
"                                        g.uX Xv.3.A D >.>.w.zXBXBXiX<.8 - < N Y./.(.R.~.R.G.D.D././.U.K c p 4.dXVXSXCXMXkXkXkX              ",
"                                          g.u.1. . .3.w.v. XNXCXmXc.;.> - < c C I.T.R.R.T.D.M.V S.K Z x , , m `.cXmXMXuXeXfX                ",
"                                            $. .o.e.s.x.vXNXBXBXzX2.n , < u a N M.D.T.T.D.Z.k j N N c f p x m 9.z.iXuXd.wX                  ",
"                                                            vXc.2.v x f a u u a j V S.F.S.V j g B K 5.0.5.4.m n ;.i.yXeX                    ",
"                                                          cXk.F v f b B j a u u u g B K B N g N 5.U.[.].`.4.v > w X.yX                      ",
"                                                          '.9.v h H S.F.Z.k a u u i c c c c Z J U.[.`.0.9.m 6 = w ,.                        ",
"                                                        '.0.F b H E._.J.G.m.d a u i p x x m 4.0.`.`.4.v x e > = t f.                        ",
"                                                      c.0.J B B F.}.-XK.G.A.k g : , e n :.<.2.9.9.:.v e e e > > )                           ",
"                                                    j.9.J B B S.~.-X<XK.L.G.A.j : 1 n 2.z.z.i.;.r w 1 x m F v e ;.                          ",
"                                              zX'.k.0.6.J B V D.~.4X>X*XK.K.J.S f v 9.c.    x.<.t > e m 6.9.:.n 2.                          ",
"                          hXx.s.1.w.v.v.w.2.2.r.y.`.].{.W.S.V M.G.-X,X>X<X*X_.P b 6. X          i.;.;.:.0.k.0.2.j.gX                        ",
"                      xXiXv.9.D D G y.y.G D F 6.7.Q.$X$X/.D.k k A.}.,X,X,X>XOXH.L t.              i.2.j.'.zX'.k.j.j.z.                      ",
"          aXaXrXrXyXz.j.r.6.y.I I !.&X!.L L 7.W.Q./.E.F.m.k s s m.L.<X,X1X6X;X!.I t.              s.s.v.cXVXbXk.2.;.,.j.      &.%.%.        ",
"      lXqX9X8X*.#.{ ;.F L I !.^.+X%X%XQ.P.P.W././.E.Z.k d s s s b.V.L.oX1X6X5X+XI y.gX              s.z.cXDXVXc.:.n ;.j.gXuXd.@.^ ~ %.      ",
"    aXqX9X8X' ! 7 r v L !.!.^.@X%X$X).E.P.5.5.K K Z.Z.A.A.m.b.b.b.n.B.L.oX6X6X@X!.t.x.              u.u.x.cXzXj.2.r.c.zXxXiXf.u.$.O.~       ",
"    qX7X` ' ] R 5 > b !.+X+X^.2X2X).E.K C N N g a j D._.~.J.G.N.b.b.n.B.L.>X5X2X&Xt.s.                X.u.f.i.,.j.zXcXcXzXiXx.eXeX@.~ %.    ",
"    9X` ` ] ! 7 5 > b E.+X^.^.$X$XI.C Z Z z z i u g F.(.=X=X}.G.N.n.n.N.V.K.=X@X+Xt.w.                    u.u. .1.v.zXgXx.z.f.eXeX&.O.%.    ",
"    8X` Y Y Y 7 8 6 b P.E.E.E./.W.K c z M [ l z p N F.).=X;X-X}.C.V.N.B.B.B.J.OX+X!.r.x.                      X. . .1.u.s.s.d.g.wX=.0X      ",
"    ` Y Y Y Y 7 8 r m 5.P.P.U.W.U.| z z l [ [ l z c P.).=X;X4X:X*XL.C.V.B.B.V.OX%XQ.9.v.                            o.$.u.d.eX              ",
"0X%.~ Y Y ! ) ) r r m 4.5.5.5.U.q.| l l T [ [ l z c 7.).OX=X;X4X>X>X*XL.C.C.J.;X3XQ.6.j.                                                    ",
"+.~ / E ! ^ #.,.{ { } 8.8.8.8.8.| } [ T T T [ r 6 x J P.H.J.OX;X4X>X<XXXL.XX:X3X3XQ.6.2.                                                    ",
"~ / E E ^ #.          a.a.a.8.} T T _ _ _ _ R 7 8 e f b H P H.H.J..X*X*X:X4X6X6X3XW.:.2.                                                    ",
"E / / ^ @.                sXa.{ R R _ ' ' ' _ R ) t e x U H P P H.H.J._.=X;X3X3X$X7.;.1.                                                    ",
"/ ~ O.                        ' Y Y ] ' ' ' ' p.p.i.2.>.L G G U U S S F.H.E.E.W.7.F t ,.                                                    ",
"+.+.                          *.! ! ` ' ' 9X            l.y.>.G G U H H H J J J :.n ( u.                                                    ",
"                              9X` ` 8X9X0X                      r.y.y.6.L 6.:.>.2.1.$.                                                      ",
"                              0X+.8XqX                                                                                                      ",
"                                qXaX                                                                                                        ",
"                                                                                                                                            ",
"                                                                                                                                            "
};
