/* XPM */
static char *result[] = {
/* columns rows colors chars-per-pixel */
"64 64 67 1 ",
"  c #FF070F",
". c #FF0B0F",
"X c #FF140F",
"o c #FF1C0F",
"O c #F72B07",
"+ c #FF230F",
"@ c #FF2C0F",
"# c #F73207",
"$ c #FE330E",
"% c #FE3D0E",
"& c #FE440E",
"* c #FE4B0E",
"= c #FE530E",
"- c #FE5B0E",
"; c #FE630E",
": c #FE6B0E",
"> c #FE740E",
", c #FF7B0F",
"< c #FE850E",
"1 c #FF8B0E",
"2 c #FF960F",
"3 c #FF9B0F",
"4 c #FE8E10",
"5 c #FE9312",
"6 c #FE9C12",
"7 c #FFA60F",
"8 c #FFA90E",
"9 c #FEB30D",
"0 c #FFBD0D",
"q c #FFA014",
"w c #FEAF13",
"e c #FFB717",
"r c #FFB915",
"t c #FFC30F",
"y c #FFCB0F",
"u c #FFC212",
"i c #FFCC14",
"p c #FFC31A",
"a c #FFCC1D",
"s c #FED114",
"d c #FFD31C",
"f c #FFD91D",
"g c #FFC523",
"h c #FFD323",
"j c #FFDC23",
"k c #FFD42B",
"l c #FFDB2D",
"z c #FFCE30",
"x c #FFD531",
"c c #FFDC33",
"v c #FFDB3B",
"b c #FFE23B",
"n c #FFDE52",
"m c #FFE343",
"M c #FFE349",
"N c #FEE94F",
"B c #FFE254",
"V c #FFE459",
"C c #FFED6F",
"Z c #FFE772",
"A c #FFF397",
"S c #FFEFA6",
"D c #FEF4BA",
"F c #FEF8CC",
"G c #FFFAD2",
"H c #FFF6E1",
"J c None",
/* pixels */
"JJJJJJJJJJJJJJJJJJJJJJJJJJJJJJJJJJJJJJJJJJJJJJJJJJJJJJJJJJJJJJJJ",
"JJJJJJJJJJJJJJJJJJJJJJJJJJJJJJJJJJJJJJJJJJJJJJJJJJJJJJJJJJJJJJJJ",
"JJJJJJJJJJJJJJJJJJJJJJJJJJJJJJJJJJJJJJJJJJJJJJJJJJJJJJJJJJJJJJJJ",
"JJJJJJJJJJJJJJJJJJJJJJJJJJJJJJJJJJJJJJJJJJJJJJJJJJJJJJJJJJJJJJJJ",
"JJJJJJJJJJJJJJJJJJJJJJJJJJJJJJJJJJJJJJJJJJJJJJJJJJJJJJJJJJJJJJJJ",
"JJJJJJJJJJJJJJJJJJJJJJJJJJJJJJJJJJJJJJJJJJJJJJJJJJJJJJJJJJJJJJJJ",
"JJJJJJJJJJJJJJJJJJJJJJJJJJJJJJJJJJJJJJJJJJJJJJJJJJJJJJJJJJJJJJJJ",
"JJJJJJJJJJJJJJJJJJJJJJJJJJJJJJJJJJJJJJJJJJJJJJJJJJJJJJJJJJJJJJJJ",
"JJJJJJJJJJJJJJJJJJJJJJJJJJJJJJJJJJJJJJJJJJJJJJJJJJJJJJJJJJJJJJJJ",
"JJJJJJJJJJJJJJJJJJJJJJJJJJJJJJJJJJJJJJJJJJJJJJJJJJJJJJJJJJJJJJJJ",
"JJJJJJJJJJJJJJJJJJJJJJJJJJJJJJJJJJJJJJJJJJJJJJJJJJJJJJJJJJJJJJJJ",
"JJJJJJJJJJJJJJJJJJJJJJJJJJJJJJJJJJJJJJJJJJJJJJJJJJJJJJJJJJJJJJJJ",
"JJJJJJJJJJJJJJJJJJJJJJJJJJJJJJJJJJJJJJJJJJJJJJJJJJJJJJJJJJJJJJJJ",
"JJJJJJJJJJJJJJJJJJJJJJJJJJJJJJJJJJJJJJJJJJJJJJJJJJJJJJJJJJJJJJJJ",
"JJJJJJJJJJJJJJJJJJJJJJJJJJJJJJJJJJJJJJJJJJJJJJJJJJJJJJJJJJJJJJJJ",
"JJJJJJJJJJJJJJJJJJJJJJJJJJJJJJJJJJJJJJJJJJJJJJJJJJJJJJJJJJJJJJJJ",
"JJJJJJJJJJJJJJJJJJJJJJJJJJJJJJJJJJJJJJJJJJJJJJJJJJJJJJJJJJJJJJJJ",
"JJJJJJJJJJJJJJJJJJJJJJJJJJJJJJJJJJJJJJJJJJJJJJJJJJJJJJJJJJJJJJJJ",
"JJJJJJJJJJJJJJJJJJJJJJJJJJJJJJBVVVJJJJJJJJJJJJJJJJJJJJJJJJJJJJJJ",
"JJJJJJJJJJJJJJJJJJJJJJJJJJJchhiiiihkbJJJJJJJJJJJJJJJJJJJJJJJJJJJ",
"JJJJJJJJJJJJJJJJJJJJJJJJJlit0989pvhuiicJJJJJJJJJJJJJJJJJJJJJJJJJ",
"JJJJJJJJJJJJJJJJJJJJJJJJdt9w7788MGCsjbdjNJJJJJJJJJJJJJJJJJJJJJJJ",
"JJJJJJJJJJJJJJJJJJJJJJjt88787788gMkrBFAcybJJJJJJJJJJJJJJJJJJJJJJ",
"JJJJJJJJJJJJJJJJJJJJJf07787787788888zSGDlsbJJJJJJJJJJJJJJJJJJJJJ",
"JJJJJJJJJJJJJJJJJJJJJr323787878878778uZDvtymJJJJJJJJJJJJJJJJJJJJ",
"JJJJJJJJJJJJJJJJJJJJu2<223777777878878rzr80dJJJJJJJJJJJJJJJJJJJJ",
"JJJJJJJJJJJJJJJJJJJj7<,42233787778877878878ycJJJJJJJJJJJJJJJJJJJ",
"JJJJJJJJJJJJJJJJJJJr4,>,<22333777q87777777w9iJJJJJJJJJJJJJJJJJJJ",
"JJJJJJJJJJJJJJJJJJc7>>>,<42532232777877787780vJJJJJJJJJJJJJJJJJJ",
"JJJJJJJJJJJJJJJJJJa<;-;><<2222232227778777879hJJJJJJJJJJJJJJJJJJ",
"JJJJJJJJJJJJJJJJJJp>==;>><45323,1322333788737iJJJJJJJJJJJJJJJJJJ",
"JJJJJJJJJJJJJJJJJJ8-**=;>,<4221=>322232563333tJJJJJJJJJJJJJJJJJJ",
"JJJJJJJJJJJJJJJJJJ5*&**-:,<<4>*##-12222222253yJJJJJJJJJJJJJJJJJJ",
"JJJJJJJJJJJJJJJJJJ4%$%*=;>>,1<*##:22222323323tJJJJJJJJJJJJJJJJJJ",
"JJJJJJJJJJJJJJJJJJ4++@%*=:>,,>#OO;22212225223rJJJJJJJJJJJJJJJJJJ",
"JJJJJJJJJJJJJJJJJJ6@X@%&*-;:,-#-*&,<<<,<23227iJJJJJJJJJJJJJJJJJJ",
"JJJJJJJJJJJJJJJJJJe%Xo+$&*-;;::>>>>>>>>,<5228aJJJJJJJJJJJJJJJJJJ",
"JJJJJJJJJJJJJJJJJJg=.Xo@$&*=--;;::>>:;;>,<139cJJJJJJJJJJJJJJJJJJ",
"JJJJJJJJJJJJJJJJJJJ>o.X+@$%&&=*-=--;--=;><<3ymJJJJJJJJJJJJJJJJJJ",
"JJJJJJJJJJJJJJJJJJJe&X..o@@$%%%%&*=**%#=:,<8hJJJJJJJJJJJJJJJJJJJ",
"JJJJJJJJJJJJJJJJJJJJ5$X  XX++$@$@$%%$@$*;>4uJJJJJJJJJJJJJJJJJJJJ",
"JJJJJJJJJJJJJJJJJJJJs<$X     Xo++@@@@$$&->8hJJJJJJJJJJJJJJJJJJJJ",
"JJJJJJJJJJJJJJJJJJJJJi4$X.       XXoo@$&-3sJJJJJJJJJJJJJJJJJJJJJ",
"JJJJJJJJJJJJJJJJJJJJJJi4%+X.X..    Xoo@&2hJJJJJJJJJJJJJJJJJJJJJJ",
"JJJJJJJJJJJJJJJJJJJJJJJs5-$+oooXXXo+@@-6hJJJJJJJJJJJJJJJJJJJJJJJ",
"JJJJJJJJJJJJJJJJJJJJJJJJJp2-&$@$@$%=>1pbJJJJJJJJJJJJJJJJJJJJJJJJ",
"JJJJJJJJJJJJJJJJJJJJJJJJJJbg85>>>>5rkmJJJJJJJJJJJJJJJJJJJJJJJJJJ",
"JJJJJJJJJJJJJJJJJJJJJJJJJJJJJMkxxxNJJJJJJJJJJJJJJJJJJJJJJJJJJJJJ",
"JJJJJJJJJJJJJJJJJJJJJJJJJJJJJJJJJJJJJJJJJJJJJJJJJJJJJJJJJJJJJJJJ",
"JJJJJJJJJJJJJJJJJJJJJJJJJJJJJJJJJJJJJJJJJJJJJJJJJJJJJJJJJJJJJJJJ",
"JJJJJJJJJJJJJJJJJJJJJJJJJJJJJJJJJJJJJJJJJJJJJJJJJJJJJJJJJJJJJJJJ",
"JJJJJJJJJJJJJJJJJJJJJJJJJJJJJJJJJJJJJJJJJJJJJJJJJJJJJJJJJJJJJJJJ",
"JJJJJJJJJJJJJJJJJJJJJJJJJJJJJJJJJJJJJJJJJJJJJJJJJJJJJJJJJJJJJJJJ",
"JJJJJJJJJJJJJJJJJJJJJJJJJJJJJJJJJJJJJJJJJJJJJJJJJJJJJJJJJJJJJJJJ",
"JJJJJJJJJJJJJJJJJJJJJJJJJJJJJJJJJJJJJJJJJJJJJJJJJJJJJJJJJJJJJJJJ",
"JJJJJJJJJJJJJJJJJJJJJJJJJJJJJJJJJJJJJJJJJJJJJJJJJJJJJJJJJJJJJJJJ",
"JJJJJJJJJJJJJJJJJJJJJJJJJJJJJJJJJJJJJJJJJJJJJJJJJJJJJJJJJJJJJJJJ",
"JJJJJJJJJJJJJJJJJJJJJJJJJJJJJJJJJJJJJJJJJJJJJJJJJJJJJJJJJJJJJJJJ",
"JJJJJJJJJJJJJJJJJJJJJJJJJJJJJJJJJJJJJJJJJJJJJJJJJJJJJJJJJJJJJJJJ",
"JJJJJJJJJJJJJJJJJJJJJJJJJJJJJJJJJJJJJJJJJJJJJJJJJJJJJJJJJJJJJJJJ",
"JJJJJJJJJJJJJJJJJJJJJJJJJJJJJJJJJJJJJJJJJJJJJJJJJJJJJJJJJJJJJJJJ",
"JJJJJJJJJJJJJJJJJJJJJJJJJJJJJJJJJJJJJJJJJJJJJJJJJJJJJJJJJJJJJJJJ",
"JJJJJJJJJJJJJJJJJJJJJJJJJJJJJJJJJJJJJJJJJJJJJJJJJJJJJJJJJJJJJJJJ",
"JJJJJJJJJJJJJJJJJJJJJJJJJJJJJJJJJJJJJJJJJJJJJJJJJJJJJJJJJJJJJJJJ"
};
