/* XPM */
static char *result[] = {
/* columns rows colors chars-per-pixel */
"64 64 221 2 ",
"   c #2D1A2C",
".  c #2C172F",
"X  c #321B2D",
"o  c #3D1C2C",
"O  c #2E1C30",
"+  c #321E31",
"@  c #3C1F30",
"#  c #33232F",
"$  c #3B232E",
"%  c #352432",
"&  c #3C2632",
"*  c #3B2A35",
"=  c #392639",
"-  c #3D2C3B",
";  c #372834",
":  c #3E323E",
">  c #481C2A",
",  c #5B1D2B",
"<  c #6E1E32",
"1  c #43232F",
"2  c #49202D",
"3  c #54222E",
"4  c #442432",
"5  c #4B2633",
"6  c #432D3B",
"7  c #482B38",
"8  c #532B37",
"9  c #522E3A",
"0  c #5C2D3D",
"q  c #562535",
"w  c #43313D",
"e  c #4E333D",
"r  c #4D383F",
"t  c #5D313D",
"y  c #58393E",
"u  c #6C2435",
"i  c #6D2B33",
"p  c #642B38",
"a  c #732A34",
"s  c #7C2A33",
"d  c #762D38",
"f  c #762737",
"g  c #64333D",
"h  c #6A3A3F",
"j  c #68383E",
"k  c #7C333A",
"l  c #7A373C",
"z  c #70242D",
"x  c #3E2C40",
"c  c #3F3241",
"v  c #423442",
"b  c #4C3442",
"n  c #433B45",
"m  c #4B3C45",
"M  c #473A4A",
"N  c #523A45",
"B  c #533C4A",
"V  c #5A3844",
"C  c #503346",
"Z  c #653B43",
"A  c #6C3C42",
"S  c #653545",
"D  c #743C44",
"F  c #793B42",
"G  c #682B40",
"H  c #454246",
"J  c #464349",
"K  c #49454C",
"L  c #4B494E",
"P  c #53424D",
"I  c #5B444D",
"U  c #4C4750",
"Y  c #4E4B52",
"T  c #5B4453",
"R  c #514D54",
"E  c #584A56",
"W  c #67434B",
"Q  c #77464A",
"!  c #644C5C",
"~  c #674957",
"^  c #774A51",
"/  c #68505E",
"(  c #5A4E62",
")  c #6B4D61",
"_  c #6C5363",
"`  c #6C5868",
"'  c #745B6E",
"]  c #795B6D",
"[  c #725768",
"{  c #795E71",
"}  c #765C70",
"|  c #76616E",
" . c #7C6274",
".. c #776675",
"X. c #9E1A1F",
"o. c #881C2B",
"O. c #9C1523",
"+. c #991729",
"@. c #971A30",
"#. c #811E31",
"$. c #A60F26",
"%. c #A51226",
"&. c #AA1427",
"*. c #A51C25",
"=. c #A91C26",
"-. c #AB152A",
";. c #A31C29",
":. c #AB1B2A",
">. c #A6142A",
",. c #B31E2B",
"<. c #B0162B",
"1. c #A91F32",
"2. c #8B242B",
"3. c #86262B",
"4. c #94242A",
"5. c #9C2529",
"6. c #962A2C",
"7. c #9C2B2C",
"8. c #982327",
"9. c #8A2932",
"0. c #9A2937",
"q. c #843B3D",
"w. c #8A3C3C",
"e. c #883237",
"r. c #993436",
"t. c #A4242B",
"y. c #AD222B",
"u. c #A42B2B",
"i. c #AB2B2D",
"p. c #A82224",
"a. c #B4222D",
"s. c #BA252E",
"d. c #B52D2C",
"f. c #BB2B2E",
"g. c #A5302D",
"h. c #BD322E",
"j. c #A22534",
"k. c #AC2E34",
"l. c #A92830",
"z. c #BA2530",
"x. c #B32C33",
"c. c #BC2A31",
"v. c #B52630",
"b. c #A43233",
"n. c #AC3335",
"m. c #A53A38",
"M. c #B43233",
"N. c #BD3333",
"B. c #BE3934",
"V. c #B43239",
"C. c #B8383A",
"Z. c #C1342E",
"A. c #C43433",
"S. c #C93735",
"D. c #C53A33",
"F. c #CB3C35",
"G. c #CC3E38",
"H. c #C43B38",
"J. c #D13F37",
"K. c #C12A30",
"L. c #8A403E",
"P. c #9D433E",
"I. c #B8473E",
"U. c #CC433A",
"Y. c #C8453A",
"T. c #D14137",
"R. c #D24239",
"E. c #D54A3B",
"W. c #D94B3B",
"Q. c #D54937",
"!. c #8A3C41",
"~. c #943A42",
"^. c #8A4447",
"/. c #874C51",
"(. c #9D4C4A",
"). c #B74A45",
"_. c #A44744",
"`. c #826476",
"'. c #84667A",
"]. c #866B7D",
"[. c #8A6B7D",
"{. c #88677C",
"}. c #8F707F",
"|. c #CB4B42",
" X c #C34A43",
".X c #8E6E83",
"XX c #8A6980",
"oX c #906F83",
"OX c #8D7184",
"+X c #8E7588",
"@X c #917286",
"#X c #947589",
"$X c #98768B",
"%X c #957A8C",
"&X c #9A7A8D",
"*X c #967787",
"=X c #9D7D92",
"-X c #A07F93",
";X c #9D8193",
":X c #9D8A96",
">X c #A28296",
",X c #A58599",
"<X c #A9869C",
"1X c #A68A9C",
"2X c #AB899E",
"3X c #AE8BA1",
"4X c #B08CA3",
"5X c #B292A5",
"6X c #B594AA",
"7X c #BB9AAD",
"8X c #BA97AD",
"9X c #BE9CB1",
"0X c #BEA0AF",
"qX c #C19FB4",
"wX c #C3A3B6",
"eX c #C9A8BC",
"rX c #CEAEC2",
"tX c #D2B1C4",
"yX c #D0AEC3",
"uX c #D4C3CF",
"iX c None",
/* pixels */
"iXiXiXiXiXiXiXiXiXiXiXiXiXiXiXiXiXiXiXiXiXiXiXiXiXiXiXiXiXiXiXiXiXiXiXiXiXiXiXiXiXiXiXiXiXiXiXiXiXiXiXiXiXiXiXiXiXiXiXiXiXiXiXiX",
"iXiXiXiXiXiXiXiXiXiXiXiXiXiXiXiXiXiXiXiXiXiXiXiXiXiXiXiXiXiXqXiXiXtXiXiXiXiXiXiXiXiXiXiXiXiXiXiXiXiXiXiXiXiXiXiXiXiXiXiXiXiXiXiX",
"iXiXiXiXiXiXiXiXiXiXiXiXiXiXiXiXiXiXiXiXiXiXiXiXiXiXiX6X7XwXwXwXeX9X7X0XiXiXiXiXiXiXiXiXiXiXiXiXiXiXiXiXiXiXiXiXiXiXiXiXiXiXiXiX",
"iXiXiXiXiXiXiXiXiXiXiXiXiXiXiXiXiXiXiXiXiXiXiXiXiXiX.X.X+X&X;X9X6X3X3X3X6XtXiXiXiXiXiXiXiXiXiXiXiXiXiXiXiXiXiXiXiXiXiXiXiXiXiXiX",
"iXiXiXiXiXiXiXiXiXiXiXiXiXiXiXiXiXiXiXiXiXiXiXiX[..X.XOXoX.X.X<X4X3X3X3X3X9XtXtXiXiXiXiXiXiXiXiXiXiXiXiXiXiXiXiXiXiXiXiXiXiXiXiX",
"iXiXiXiXiXiXiXiXiXiXiXiXiXiXiXiXiXiXiXiXiXiXiX.X.X@X.X.X.X.X.X=X4X4X3X3X3X3X8XrXtXiXiXiXiXiXiXiXiXiXiXiXiXiXiXiXiXiXiXiXiXiXiXiX",
"iXiXiXiXiXiXiXiXiXiXiXiXiXiXiXiXiXiXiXiXiX'..X.X.X.X.XOX.XoX.X$X3X3X3X3X3X3X3X3X5X8X6XiXiXiXiXiXiXiXiXiXiXiXiXiXiXiXiXiXiXiXiXiX",
"iXiXiXiXiXiXiXiXiXiXiXiXiXiXiXiXiXiXiXiX`.`.OX.X.X.X.X.XOX.X.X@X<X3X3X3X3X3X3X3X3X3X3X6XiXiXiXiXiXiXiXiXiXiXiXiXiXiXiXiXiXiXiXiX",
"iXiXiXiXiXiXiXiXiXiXiXiXiXiXiXiXiXiX{ XX=X .[..X.XOXOXOXoXoX@X{ ].<X3X3X3X3X3X3X3X3X3X;X3XiXiXiXiXiXiXiXiXiXiXiXiXiXiXiXiXiXiXiX",
"iXiXiXiXiXiXiXiXiXiXiXiXiXiXiXiXiX) } } XX%X] [..X] T ` '  .B * 6 ~ [...` ) ;X4X3X3X+XOX.X&XiXiXiXiXiXiXiXiXiXiXiXiXiXiXiXiXiXiX",
"iXiXiXiXiXiXiXiXiXiXiXiXiXiXiXiX' ' ' } } =XOX] [ p C R R w * & & * m R R q S &X3X@X.X.X.X.X=XiXiXiXiXiXiXiXiXiXiXiXiXiXiXiXiXiX",
"iXiXiXiXiXiXiXiXiXiXiXiXiXiXiXiX' ' ' ' } OX;X/ , +.0 E R * iXiXiX$ w R R < +.G { .X.X.X.XOX.X-XiXiXiXiXiXiXiXiXiXiXiXiXiXiXiXiX",
"iXiXiXiXiXiXiXiXiXiXiXiXiXiXiX' ' ' ' ' } } ' < $.$.C E R iXiXiXiXiXiXR R u %.o.C `..X.X.X.X.X$X<XiXiXiXiXiXiXiXiXiXiXiXiXiXiXiX",
"iXiXiXiXiXiXiXiXiXiXiXiXiXiX[ ' ' ' ' ' } ) , +.$.$.G R R iXiXiXiXiXiXR R u $.O.+.G XXOX.X.X.X.X&X3XiXiXiXiXiXiXiXiXiXiXiXiXiXiX",
"iXiXiXiXiXiXiXiXiXiXiXiXiX' ' } ' ' ' [ ' q +.$.$.$.9 R Y iXiXiXiXiXiXR Y u &.O.$.@.S XX.X.X.X.X.X=X<XiXiXiXiXiXiXiXiXiXiXiXiXiX",
"iXiXiXiXiXiXiXiXiXiXiXiXiX} ' ' ' ' ' ' S s >.>.$.+.G R R iXiXiXiXiXiXR R u >.O.$.$.< ) .X.X.X.X.X.X1XiXiXiXiXiXiXiXiXiXiXiXiXiX",
"iXiXiXiXiXiXiXiXiXiXiXiX[ } } } } ' { ~ f ;.%.>.&.>.G R R iXiXiXiXiXiXY Y u %.>.&.*.+.f { .X.X.X.X.X>X9XiXiXiXiXiXiXiXiXiXiXiXiX",
"iXiXiXiXiXiXiXiXiXiXiX8X9X'.` ' ' } _ u >.-.&.&.-.>.C R R w : w n c M R Y u &.-.&.-.O.+.G .X.XoX.X#X6X9XeXiXiXiXiXiXiXiXiXiXiXiX",
"iXiXiXiXiXiXiXiXiXiX3X3X9X9XXX) ` } V @.-.y.&.&.-.-.V R R % # # # # - R Y a -.,.&.-.O.:.o.) .X.XOX,X3X3X4XrXiXiXiXiXiXiXiXiXiXiX",
"iXiXiXiXiXiXiXiXiX-X3X3X6XwXeX#X) E #.-.-.:.=.&.:.>.G Y Y iXiXiXiXiXiXY R a -.<.&.-.O.-.-.< `.].=X3X3X3X3XeXiXiXiXiXiXiXiXiXiXiX",
"iXiXiXiXiXiXiXiXiX3X3X3X3X4X5X9X.Xq 1.-.,.-.-.<.:.:.S Y Y iXiXiXiXiXiXR Y u -.-.-.;.+.-.<.@.G XX3X3X3X3X3X8XtXiXiXiXiXiXiXiXiXiX",
"iXiXiXiXiXiXiXiX3X3X3X3X3X3X3X3X{.f j.0.0.9.r.0.-.:.0 Y R iXiXiXiXiXiXY Y f :.<.r.0.9.0.0.@.u '.3X3X3X3X3X4XyXiXiXiXiXiXiXiXiXiX",
"iXiXiXiXiXiXiXiX3X3X3X3X3X3X3X3XB b b b m M M ~ j.;.g Y Y iXiXiXiXiXiXR P a ,.~.Y M n b b b b B >X3X3X3X3X3X8XtXiXiXiXiXiXiXiXiX",
"iXiXiXiXiXiXiX,X3X3X3X3X3X3X3XXX= x x M v n n H W 1.0 Y R iXiXiXiXiXiXY R f j.I n n n v v x x v `.3X3X3X3X3X4X9XiXiXiXiXiXiXiXiX",
"iXiXiXiXiXiXiX2X4X3X3X3X3X3X-XB = v x x v n n H s y.S Y Y v M M n v M Y Y f :.g H n c v : - - - B -X3X3X3X3X3X3XqXiXiXiXiXiXiXiX",
"iXiXiXiXiXiXiX4X4X4X3X4X3X4X[ 4 5 5 5 q 8 8 t d y.:.g Y Y : : - : c n Y Y a a.1.p 0 9 9 8 8 5 4 5 [ 3X3X3X3X3X3X3XiXiXiXiXiXiXiX",
"iXiXiXiXiXiX&X2X3X3X3X3X3X%Xg j.t.+.1.:.:.;.:.,.,.a.g Y Y iXiXiXiXiXiXY Y a :.a.:.y.O.y.;.:.i.p.0.C *X4X3X3X3X3X3X,XiXiXiXiXiXiX",
"iXiXiXiXiXiX*X>X3X3X3X3X2X~ s s.:.,.z.z.a.=.a.a.a.:.S Y Y iXiXiXiXiXiXY Y d ,.a.a.a.=.,.a.a.x.y.,.u / ,X3X4X3X3X3X3XiXiXiXiXiXiX",
"iXiXiXiXiXiX7X1X-X3X3X3X[.9 j.s.a.y.s.s.a.*.a.a.a.a.g Y L iXiXiXiXiXiXL U d a.a.s.,.=.a.a.,.d.y.,.9.b oX4X4X3X3X3X3XiXiXiXiXiXiX",
"iXiXiXiXiX[.$X7X8X<X&X&XT p a.s.a.y.s.s.z.*.a.v.z.a.S Y L iXiXiXiXiXiXR Y f z.s.s.a.=.z.a.,.d.y.z.y.q _ &X>X&X$X+X=X1XiXiXiXiXiX",
"iXiXiXiXiX.X.X@X-X4X8X! * 9.a.c.y.y.s.z.s.*.a.z.z.z.g Y Y iXiXiXiXiXiXR U d s.s.s.z.=.z.a.s.y.y.s.a.u - ! {..X.X.X@X2XiXiXiXiXiX",
"iXiXiXiXiX.X.X.XoXoX,XE & j.s.z.y.y.s.s.s.p.a.c.z.a.g Y Y iXiXiXiXiXiXL U d s.K.s.a.*.z.a.a.a.a.s.a.9.# P .X.X.X.XOX3XiXiXiXiXiX",
"iXiXiXiXiX.X.X.X.X.X=X! > l.z.z.d.a.z.c.c.p.c.a.z.z.j Y U v : v w c n L Y d s.z.K.z.*.z.a.z.y.y.s.f.5.1 N {.}..X.X.X>XiXiXiXiXiX",
"iXiXiXiX.X.X.XoXoX.X%Xb , a.c.c.c.y.c.c.s.*.c.s.z.d.g L R * ; * * * c Y Y k z.c.f.s.X.f.s.s.t.a.s.s.+.> w `.}.oX.X.X$XiXiXiXiXiX",
"iXiXiXiX.XXX.X.X.X.X].6 , p.c.c.N.i.K.c.f.y.c.s.K.s.g Y U iXiXiXiXiXiXL U k K.K.s.c.X.s.c.s.p.v.f.s.t.4 6 [ .X.X.X.X.X$XiXiXiXiX",
"iXiXiXiX.X.X.XoX.X.X] 6 3 0.V.V.C.b.x.V.V.u.V.d.K.f.g Y K iXiXiXiXiXiXL U k c.K.c.V.5.V.V.V.7.k.n.k.2.4 6 _ [.oX.X.X.X[.iXiXiXiX",
"iXiXiXiX.X.X.XoX.X.X_ e + + 6 6 v m N B P I I /.x.f.j L L iXiXiXiXiXiXL U k K.V.^ I I B B N b b 6 6   % 6 ! ].}..X.XOX[.iXiXiXiX",
"iXiXiXiX[.@X.X.X.XOX! 6 X X v v - : v v n n H H ^.V.j L L iXiXiXiXiXiXL U k C.Q H n n n v : : : v -   X 7 ! [.@X.X.XoX}.iXiXiXiX",
"iXiXiXiX .].].].].'.T 6 +   = - - x v 6 v n n H Z k.g L Y iXiXiXiXiXiXY U k V.N n n n v : v : - 6 = . % & T ] `.[.[.].@XiXiXiXiX",
"iXiX&X1X%X#X#X%X$X$XP ; o > q q 9 8 9 e e m m V b.h.g Y K iXiXiXiXiXn K U k Z.r.N m r e e 9 8 q q 3 > X % ! ].[.OX%X$X:X3X=XiXiX",
"iX].{ { }  . .'. .XX .6 3 8.x.B.M.i.M.u.k.5.b.n.A.N.A Y U : : : : w n L K k A.A.k.0.4.k.l.x.i.i.N.i.2.> - _ ' '  .XXOX+XXX].%XiX",
" .' ' } ' ' } ' ' } | w 3 8.d.Z.A.d.D.d.S.d.C.e.~.V.S K K iXiXiXiXiXiXL U e.V.!.w.c.p.A.A.h.d.f.A.y.2.1 - ) ' ' ' ' ' ' ' '  .iX",
"[ } ' ' ' ' ' ' ' ' ` 6 3 4.i.D.A.d.S.x.H.l.D ( - !.Z L K iXiXiXiXiXiXK K l D x ( l t.A.A.f.f.h.A.p.2.1 * ) ' ' ' ' ' ' ' ' ' iX",
"_ } ' } } } ' ' ' ' / e 5 8.i.A.A.d.S.c.S.e.R ..B y S L K iXiXiXiXiXiXK K A C P ..P 2.S.S.A.h.B.A.t.2.$ - ) ' ' ' ' ' ' ' ' ' iX",
"iX' ' ' ' ' ' ' ' ' ! w 3 4.u.A.D.f.F.Z.A.D c n E D A K K iXiXiXiXiXiXK K h Z U J c e.Z.S.Z.h.Z.A.5.2.4 4 ! ' ' ' ' ' } ' | ' iX",
"iX[ ' ' ' ' ' ' ' ' T w 5 4.u.S.N.f.F.S.V.D u % N ^.Z U K iXiXiXiXiXiXK K l ^ e 1 p Q A.S.S.D.D.A.8.2.$ * E ' ' ' ' ' ' ' ' ' iX",
"iXiX! ! _ [ ' ` [ _ r * 5 8.t.D.A.h.S.F.n.D n.r.F ~.j L K iXiXiXiXiXiXK K q.!.!.b.m.l B.D.S.T.Z.D.5.2.$ & B ' ' }  .{ ) T W iXiX",
"iXiXiXiX;X$X&X>X>X,X/ * 5 6.u.D.H.h.F.F.H.i h !.j m.h L K v v v n c n U K q.r.Z !.j f A.S.S.F.Z.B.5.2.$ ; ].8XqXqX9X9XwXiXiXiXiX",
"iXiXiXiX.X.X.X.X+XoX`.6 5 6.5.H.F.h.G.F.G.u.i a r.D.A L K * * - - - : U H q.H.r.i s t.G.S.F.F.Z.N.8.2.& 7 $X3X3X3X3X3X8XiXiXiXiX",
"iXiXiXiXXX.X.X.X.X.X' e 5 6.5.A.F.h.J.G.T.A.h.D.F.F.j L K iXiXiXiXiXiXJ K q.G.G.B.A.h.G.F.S.U.D.M.8.2.& 6 $X3X3X3X3X3X5XiXiXiXiX",
"iXiXiXiX.X.X.X.X.X.X' 6 7 6.5.N.F.Z.J.R.U.D.T.T.D.D.Z J K iXiXiXiXiXiXU K q.R.G.T.T.Z.J.F.F.S.D.n.7.2.& 6 #X3X3X3X3X3X<XiXiXiXiX",
"iXiXiXiX.X.X.X.X.XXX) e 5 6.8.M.F.S.J.J.F.D.D.T.T.Y.A J K iXiXiXiXiXiXJ J q.T.J.T.T.Z.T.J.F.D.D.i.7.3.4 6 OX3X3X3X3X3X2XiXiXiXiX",
"iXiXiXiX,X&X&X%X@XOX~ ; 4 6.7.M.U.D.J.J.T.D.S.R.T.D.A J J iXiXiXiXiXiXK K q.T.U.T.F.Z.T.T.F.A.S.g.8.3.% % ] >X>X,X,X>X>XiXiXiXiX",
"iXiX4X4X6X9XwX9XwXwX5Xw 6 s 9.r.U.H.E.J.R.Y.T.U.Q.Y.A J J iXiXiXiXiXiXJ J q.R.R.T.U.Z.T.R.R.B.I.r.9.i & m ,X;X&X%X%X=X>X,X>XiXiX",
"iX3X3X3X3X3X3X3X2X5X6XC *   o 1 y A Q ^.(._.).Y.U.U.A J K iXiXiXiXiXP K K w.R.W.).)._.(.^.Q A e $ X X * N .X.X.X.X.X.X.X.X.XXXiX",
"4X3X3X3X3X3X3X3X3X2X3Xb *   O # : : w w n P K ^  XR.A K K : : : : : v K K L.R.).W P n n v c - - # X   - b .X.X.X.X.X.X.X.XoX.XiX",
"3X3X3X3X3X3X3X3X3X3X,Xb * X . + * : w w n H H H /.Y.A J K iXiXiXiXiXiXK K L.Y.^ H H n v w w 6 ; O     - b [..X.X.X.X.X.X.X.X.XXX",
",X3X3X3X3X3X3X3X<X3X$X6 * > > o 7 6 w : : n H H W Y.Q J H iXiXiXiXiXiXH H L.I.N H H n v : : w 1 o > > % *  .XX.X.X.X.X.X.X.X[.,X",
"uX1X3X3X+X=X1X3X3X3XOX* & 9.7.7.m.g.r.w.l g y j Y.Q.A K n iXiXiXiXiXiXH J L.W.I.y y j l w.b.m.7.6.g.s & - '..X+X.X+X{ {.#X@X*XuX",
"%X@X@X#X6X+X .'.+X+X;Xm 6 e.b.g.B.U.W.Q.E.Y.Y.Y.E.Y.h K H iXiXiXiXiXiXH J L.W.E.Y.Y.Z.W.W.T.U.u.7.g.s * m  .}  . . .=X=X@XOX%X&X",
".X.X.X.X=X .} } ' '  .b 6 9.g.g.M.Y.Q.Q.Q.U.Q.Q.W.Y.h K H iXiXiXiXiXiXH H L.E.E.E.Q.D.E.Q.Q.D.u.g.g.a 6 b [ } ' } ' '..X.X.X.X.X",
".X.X.X.X#X{ } ' ' ' ' b w t p i k m.E.E.E.Y.E.Q.W.Y.h J H ;XiXiXiXiX}.J J L.Q.W.E.Q.A.E.Y.Y.m.s i q 8 6 e ' } } ' } | .X.X.X.X.X",
".X.X.X.X.X' ' ' ' ' ` ~ {.}.`.] ~ ^ W W F L.P.I.E.I.h J J ,X3X3X3X3X%XJ H ^.|. XI.P.q.F W ~ ^ ) `.`.}.`.B ` ' ' ' ' [ XX.X.X.XoX",
"@X#X@XOX].{ { } } [ ] }.}.}.@X@X*X&X&X*X}.`.| [ W W H R | ,X1X1X2X<X,X` Y y W / [  .[.oX$X&X&X&X*X&X$X&X$X'. .].XX .' [.OX+X#XOX"
};
