/* XPM */
static char *result[] = {
/* columns rows colors chars-per-pixel */
"64 64 221 2 ",
"   c #2E1C2B",
".  c #291624",
"X  c #311D2D",
"o  c #3D1E2D",
"O  c #391F30",
"+  c #34242F",
"@  c #352532",
"#  c #3A2634",
"$  c #362A34",
"%  c #3C2A35",
"&  c #3C263A",
"*  c #3C2C3B",
"=  c #362A38",
"-  c #3D333E",
";  c #3F383F",
":  c #541C32",
">  c #6C1D28",
",  c #741829",
"<  c #422636",
"1  c #4C2234",
"2  c #422A36",
"3  c #422C3A",
"4  c #4B2D3C",
"5  c #442839",
"6  c #5A2C3B",
"7  c #542736",
"8  c #44313D",
"9  c #4A333E",
"0  c #4E3539",
"q  c #5C333B",
"w  c #59383E",
"e  c #612C3D",
"r  c #6E2D3B",
"t  c #652C36",
"y  c #7C2C35",
"u  c #742A37",
"i  c #64383B",
"p  c #75373C",
"a  c #712126",
"s  c #3E3341",
"d  c #3E2E40",
"f  c #412E40",
"g  c #402640",
"h  c #423442",
"j  c #4B3341",
"k  c #443B44",
"l  c #493D46",
"z  c #4B3649",
"x  c #453B49",
"c  c #4A3D4B",
"v  c #453749",
"b  c #5D3B45",
"n  c #553D4C",
"m  c #573946",
"M  c #5A3F51",
"N  c #623E43",
"B  c #683441",
"V  c #793942",
"C  c #47444B",
"Z  c #4A454C",
"A  c #4B494F",
"S  c #494247",
"D  c #524245",
"F  c #53434B",
"G  c #5A404C",
"H  c #56464B",
"J  c #4D4A51",
"K  c #4E4451",
"L  c #544451",
"P  c #5C4452",
"I  c #524D55",
"U  c #5E4952",
"Y  c #544B59",
"T  c #584F59",
"R  c #5C515B",
"E  c #535058",
"W  c #614041",
"Q  c #6D434B",
"!  c #61434A",
"~  c #7C4649",
"^  c #644B5C",
"/  c #66495A",
"(  c #7B4450",
")  c #754853",
"_  c #61545E",
"`  c #685459",
"'  c #615260",
"]  c #6C5362",
"[  c #695C66",
"{  c #6E5B68",
"}  c #645A62",
"|  c #735565",
" . c #705769",
".. c #745B6E",
"X. c #7C5C6C",
"o. c #785E71",
"O. c #674E61",
"+. c #6E626B",
"@. c #676169",
"#. c #7C6274",
"$. c #7E6D7A",
"%. c #786974",
"&. c #7E727F",
"*. c #8B182A",
"=. c #9D1426",
"-. c #9C132A",
";. c #941A2B",
":. c #96192B",
">. c #991D31",
",. c #801730",
"<. c #A41426",
"1. c #AC1D26",
"2. c #A41429",
"3. c #AA152A",
"4. c #A5192B",
"5. c #AA1C2B",
"6. c #AA1527",
"7. c #B21E2B",
"8. c #B2162C",
"9. c #A91B30",
"0. c #8A242D",
"q. c #96202D",
"w. c #9C262E",
"e. c #8A2534",
"r. c #922232",
"t. c #972935",
"y. c #87353B",
"u. c #9B3236",
"i. c #9B323A",
"p. c #93383A",
"a. c #A7252C",
"s. c #B4232C",
"d. c #B9252F",
"f. c #B62A2E",
"g. c #BA2A2D",
"h. c #A32531",
"j. c #A52A31",
"k. c #AD2933",
"l. c #BB2631",
"z. c #B52C33",
"x. c #BC2C31",
"c. c #B42A36",
"v. c #AD3335",
"b. c #A53738",
"n. c #B43435",
"m. c #BD3232",
"M. c #BC3A35",
"N. c #B23D3B",
"B. c #B63739",
"V. c #C33433",
"C. c #C63B33",
"Z. c #CB3C35",
"A. c #CC3D39",
"S. c #C63B38",
"D. c #D03F38",
"F. c #C23132",
"G. c #A2443D",
"H. c #B5443A",
"J. c #BA423B",
"K. c #CD4135",
"L. c #CD433A",
"P. c #C7463C",
"I. c #D24239",
"U. c #D44A3D",
"Y. c #D94B3B",
"T. c #833645",
"R. c #8D3C43",
"E. c #863B4A",
"W. c #933E45",
"Q. c #993A41",
"!. c #884447",
"~. c #944548",
"^. c #8D5153",
"/. c #A34744",
"(. c #B54441",
"). c #A95356",
"_. c #8B5569",
"`. c #836576",
"'. c #826679",
"]. c #846A7B",
"[. c #8B6C7E",
"{. c #92697A",
"}. c #C64941",
"|. c #D64C42",
" X c #8E6E83",
".X c #946E82",
"XX c #986F83",
"oX c #8E7184",
"OX c #887A85",
"+X c #937285",
"@X c #9A7185",
"#X c #947489",
"$X c #9B778A",
"%X c #96798C",
"&X c #9B798C",
"*X c #9D7D92",
"=X c #A27F94",
"-X c #A07A8C",
";X c #9E8292",
":X c #A38295",
">X c #A6869B",
",X c #A5899A",
"<X c #AA899D",
"1X c #A9869A",
"2X c #AE8BA1",
"3X c #B18CA2",
"4X c #AE91A4",
"5X c #B292A6",
"6X c #B999AD",
"7X c #B597AA",
"8X c #BD9DB1",
"9X c #BFA1B1",
"0X c #C2A2B5",
"qX c #C7A8BB",
"wX c #C4B4BD",
"eX c #D1AFC2",
"rX c #D1B2C3",
"tX c #CEB0C2",
"yX c #D6C7D1",
"uX c #E6D7E2",
"iX c None",
/* pixels */
"iXiXiXiXiXiXiXiXiXiXiXiXiXiXiXiXiXiXiXiXiXiXiXiXiXiXiXiXiXiXiXiXiXiXiXiXiXiXiXiXiXiXiXiXiXiXiXiXiXiXiXiXiXiXiXiXiXiXiXiXiXiXiXiX",
"iXiXiXiXiXiXiXiXiXiXiXiXiXiXiXiXiXiXiXiXiXiXiXiXiXiXiXiXiXiX9XiXiXrXiXiXiXiXiXiXiXiXiXiXiXiXiXiXiXiXiXiXiXiXiXiXiXiXiXiXiXiXiXiX",
"iXiXiXiXiXiXiXiXiXiXiXiXiXiXiXiXiXiXiXiXiXiXiXiXiXiXiXiX6X0X0X0XeX8X6X9XqXiXiXiXiXiXiXiXiXiXiXiXiXiXiXiXiXiXiXiXiXiXiXiXiXiXiXiX",
"iXiXiXiXiXiXiXiXiXiXiXiXiXiXiXiXiXiXiXiXiXiXiXiXiXiX XoXoX%X*X7X6X2X2X2X5XtXqXiXiXiXiXiXiXiXiXiXiXiXiXiXiXiXiXiXiXiXiXiXiXiXiXiX",
"iXiXiXiXiXiXiXiXiXiXiXiXiXiXiXiXiXiXiXiXiXiXiXiX[. X XoX X X X;X5X2X2X2X3X7XrXrXiXiXiXiXiXiXiXiXiXiXiXiXiXiXiXiXiXiXiXiXiXiXiXiX",
"iXiXiXiXiXiXiXiXiXiXiXiXiXiXiXiXiXiXiXiXiXiXiX[..X X X X X X X#X3X2X3X2X2X2X5XqXeXrXiXiXiXiXiXiXiXiXiXiXiXiXiXiXiXiXiXiXiXiXiXiX",
"iXiXiXiXiXiXiXiXiXiXiXiXiXiXiXiXiXiXiXiXiXX. X X XoX X XoX X X+X2X2X2X2X2X2X3X2X3X6X6XiXiXiXiXiXiXiXiXiXiXiXiXiXiXiXiXiXiXiXiXiX",
"iXiXiXiXiXiXiXiXiXiXiXiXiXiXiXiXiXiXiXiXiXX. X X X X X X X X XoX=X2X2X3X2X2X2X2X2X2X2X7XiXiXiXiXiXiXiXiXiXiXiXiXiXiXiXiXiXiXiXiX",
"iXiXiXiXiXiXiXiXiXiXiXiXiXiXiXiXiXiXiX X%X$.`..X X X X X X XoX].o.:X3X2X2X2X2X2X2X2X2X:X1X2XiXiXiXiXiXiXiXiXiXiXiXiXiXiXiXiXiXiX",
"iXiXiXiXiXiXiXiXiXiXiXiXiXiXiXiXiXiX....o.%X#.'. X X X X X'.R 2 * M `.:X2X3X2X2X2X<X#X.X X%X,XiXiXiXiXiXiXiXiXiXiXiXK iXiXiXiXiX",
"iXiXiXiXiXI L : iXiXiXiXiXiXiXiXiX......o.#X#X..[. X.X].^ j 2 # + 2 4 P [.<X<X3X2X$X+X X X X#XiXiXiXiXiXiXiXiXiXiXc T I iXiXiXiX",
"iXiXiXiXiXI L ,.iXiXiXiXiXiXiXiX....o..... X*X XX.`.] z 2 # 2 iXiXiX% 2 9 | :X<X#X[. X X X X X*XiXiXiXiXiXiXiXiX*.m I J iXiXiXiX",
"iXiXiXiXiXI F *., iXiXiXiXiXiX......+.......].%XP c 2 2 3 v iXiXiXiXiX3 2 2 n ^ | [. X.X X X X.X<XiXiXiXiXiXiXiX-.b T J iXiXiXiX",
"iXiXiXiXiXI L ;.-.iXiXiXiXiX| ......o.......'.#X2 # 2 * h f h h h h k s h * 2 $ ^ [. X X X X X X+X2XiXiXiXiXiX*.-.m I J iXiXiXiX",
"iXiXiXiXiXI n :.2., iXiXiXiX................ X/ 3 # iX# = * iXiXiXiX@ $ - iXiX# 3 ]  X X X X X X X%X4XiXiXiXiX-.-.b I J iXiXiXiX",
"iXiXiXiXiXI L :.<.*.iXiXiX................o.P 8 8 iXiXiXh iXiXiXiXiXiX& k iXiXiX2 9 ]  X X X X X X X;X7XiXiX, 6.=.b I J iXiXiXiX",
"iXiXiXiXiXJ L ;.3.<.> iXiX ............. .n f < iXiXiXiXh iXiXiXiXiXiX= S iXiXiXiX2 j ]  XoX X X X X*X9XuXiX:.<.=.b J J iXiXiXiX",
"iXiXiXiXiXI L ;.3.5.0.:X8X#X ...........n j % iXiXiXiXiXh iXiXiXiXiXiX# k iXiXiXiXiX& j ..[. X.X XoX4X9X0XT.<.6.<.b I K iXiXiXiX",
"iXiXiXiXiXI L >.3.3.4._.6X0X%X^ .... .n 8 8 iXiXiXiXiXiXh iXiXiXiXiXiX* k iXiXiXiXiXiX2 j `. X X X*X2X2X+X*.<.6.6.b I A iXiXiXiX",
"iXiXiXiXiXI L ;.3.3.9.E.2X0XtX>XO.O.n h 8 v iXiXiXiXiXiXk iXiXiXiXiXiX* l iXiXiXiXiXiX2 * G ].].%X2X2X3X_.4.<.6.2.b Y Z iXiXiXiX",
"iXiXiXiXiXI L ;.3.5.8.r.-X3X5X8X1Xl 3 8 8 c d * d h f h x v h h k 8 k k c v k 9 k k v S 3 2 n ..2X2X2X2XT.6.2.5.4.b J A iXiXiXiX",
"iXiXiXiXiXJ L >.9.2.9.>.{.3X2X2X<X- % # @ & # & # & & = d d * * * - - * - - - - - - s - k # $ { 2X2X3X&Xe.9.2.9.4.b I J iXiXiXiX",
"iXiXiXiXiXI F r.( b B e M 3X2X2XoX8 # iX@ s iXiXiXiXiX  - iXiXiXiXiXiX$ - iXiXiXiXiXX - iXiX# P =X3X3Xo.6 B j Q t.b J J iXiXiXiX",
"iXiXiXiXiXJ L T.L k f g z 2X3X=Xn 2 iXiX$ c iXiXiXiXiXiXh iXiXiXiXiXiX= c iXiXiXiXiX@ s iXiXiX2  .1X3X^ d f f c E.M I A iXiXiXiX",
"iXiXiXiXiXI L r c k 8 h f %X3XO.3 iXiXiX$ c iXiXiXiXiXiXh iXiXiXiXiXiX* S iXiXiXiXiXX x iXiXiX< j #X2Xz * h s S r b J J iXiXiXiX",
"iXiXiXiXiXY F e.6 h 8 2 5 #. Xj % iXiXiX$ c iXiXiXiXiXiXh iXiXiXiXiXiX$ k iXiXiXiXiX  h iXiXiXiX< P #X5 2 8 k 9 r.N J J iXiXiXiX",
"iXiXiXiXiXJ L w.w.;.q.>.;.V P 5 iXiXiXiX@ c iXiXiXiXiXiXs iXiXiXiXiXiX& l iXiXiXiXiX  v iXiXiXiXiX2 V e.w.;.;.r.9.b J J iXiXiXiX",
"iXiXiXiXiXJ L w.7.1.s.s.7.y 4 # iXiXiXiXh c iXiXiXiXiX* x L iXiXiXiXiXh Z iXiXiXiXiXs x iXiXiXiXiX* t a.s.s.1.7.9.N I Z iXiXiXiX",
"iXiXiXiXiXJ H w.s.1.7.s.7.w.5 & & & & * d f * * d d d d v h s h h s k h v k k h k k k x k C C S S s u s.s.s.1.7.s.b I J iXiXiXiX",
"iXiXiXiXiXJ F h.7.1.d.s.7.h.o . . . .   @ &   # h @ X X = @   + @ + @ = * @ $ $ $ @ $ * = $ $ $ $ @ >.s.s.s.1.l.s.N J J iXiXiXiX",
"iXiXiXiXiXJ F h.d.6.d.7.s.k.iXiXiXiXiXiX# c iXiXiXiXiXiXs iXiXiXiXiXiX& Z iXiXiXiXiXiXk iXiXiXiXiXiXh.s.s.s.1.d.s.b J A iXiXiXiX",
"iXiXiXiXiXJ F j.F.6.F.7.s.s.> iXiXiXiXiXiXiXiXiXiXiXiXiXh iXiXiXiXiXiX5 iXiXiXiXiXiXiXh iXiXiXiXiXiXa.s.s.d.1.d.c.b J J iXiXiXiX",
"iXiXiXiXiXA D j.l.1.g.s.s.d.0.iXiXiXiXiXiXiXiXiXiXiXiXiXh iXiXiXiXiXiXiXiXiXiXiXiXiXiXz iXiXiXiXiXiXl.s.s.d.a.d.d.b J J iXiXiXiX",
"iXiXiXiXiXA F k.d.7.g.f.f.l.q.iXiXiXiXiXiXiXiXiXiXiXiXiXiXiXiXiXiXiXiXiXiXiXiXiXiXiXiXiXiXiXiXiXiXiXl.s.s.l.1.d.f.N A I iXiXiXiX",
"iXiXiXiX_ A F j.g.s.l.g.f.l.t.iXiXiXiXiXiXiXiXiXiXiXiXiXiXiXiXiXiXiXiXiXiXiXiXiXiXiXiXiXiXiXiXiXiXiXg.l.s.l.1.l.z.N A R iXiXiXiX",
"iXiXiXiX] J D b.f.s.l.g.m.z.t.iXiXiXiXiXiXiXiXiXiXiXiXiXiXiXiXiXiXiXiXiXiXiXiXiXiXiXiXiXiXiXiXiXiXiXc.d.s.l.5.F.z.N A R iXiXiXiX",
"iXiXiXiX[ F F k.c.u.R.V B m 1 iXiXiXiXiXiXiXiXiXiXiXiXiXiXiXiXiXiXiXiXiXiXiXiXiXiXiXiXiXiXiXiXiXiXiX4 i p R.p.v.g.W J R iXiXiXiX",
"iXiXiXiX[ J F i.) S h s * 3 O iXiXiXiXiXiXiXiXiXiXiXiXiXiXiXiXiXiXiXiXiXiXiXiXiXiXiXiXiXiXiXiXiXiXiXg 3 d h k U N.G J R iXiXiXiX",
"iXiXiXiX+.J F R.J x h s * * @ iXiXiXiXiXiXiXiXiXiXiXiXiXiXiXiXiXiXiXiXiXiXiXiXiXiXiXiXiXiXiXiXiXiXiX* * h h k S ~.b A R yXiXiXiX",
"iXiX&X;X%.A F y.l k h 3 5 7 1 iXiXiXiXiXiXiXiXiXiXiXiXiXiXiXiXiXiXiXiXiXiXiXiXiXiXiXiXiXiXiXiXiXiXiX7 5 3 s k S p b A @.4X,XiXiX",
"iX'.#..._ J S b.r q u 0.u.v.t.iXiXiXiXiXiXiXiXiXiXiXiXiXiXiXiXiXiXiXiXiXiXiXiXiXiXiXiXiXiXiXiXiXiXiXz.h.0.y t b v.N J R OX].#XiX",
"iX......' J F v.B.j.m.m.m.m.u.iXiXiXiXiXiXiXiXiXiXiXiXiXiXiXiXiXiXiXiXiXiXiXiXiXiXiXiXiXiXiXiXiXiXiXF.F.g.m.a.B.M.i A I ....o.#X",
"iX......' A n W.6 q b.x.m.V.u.iXiXiXiXiXiXiXiXiXiXiXiXiXiXiXiXiXiXiXiXiXiXiXiXiXiXiXiXiXiXiXiXiXiXiXV.g.g.M.r 5 W.G A U ..o...'.",
"iX......' J D Q v OXN z.m.V.u.iXiXiXiXiXiXiXiXiXiXiXiXiXiXiXiXiXiXiXiXiXiXiXiXiXiXiXiXiXiXiXiXiXiXiXV.m.z.V &.Y b G A T ........",
"iX......' A Z ! I Y j b.m.V.u.iXiXiXiXiXiXiXiXiXiXiXiXiXiXiXiXiXiXiXiXiXiXiXiXiXiXiXiXiXiXiXiXiXiXiXV.F.v.9 T Y G F A T X.o... .",
"iXiX....' Z F ~ Z $ 6 T.m.C.u.iXiXiXiXiXiXiXiXiXiXiXiXiXiXiXiXiXiXiXiXiXiXiXiXiXiXiXiXiXiXiXiXiXiXiXV.C.b.i 2 h ( b A I .. . .iX",
"iXiXiX^ I A D R.b a i.T.m.Z.u.iXiXiXiXiXiXiXiXiXiXiXiXiXiXiXiXiXiXiXiXiXiXiXiXiXiXiXiXiXiXiXiXiXiXiXC.C.p.y.a e !.N Z A / P iXiX",
"iXiXiXiX%.Z D Q.p v.T.p.V.A.u.iXiXiXiXiXiXiXiXiXiXiXiXiXiXiXiXiXiXiXiXiXiXiXiXiXiXiXiXiXiXiXiXiXiXiXZ.V.N.V v.V p.N A T iXiXiXiX",
"iXiXiXiX+.A F n.y.q t M.C.A.iXiXiXiXiXiXiXiXiXiXiXiXiXiXiXiXiXiXiXiXiXiXiXiXiXiXiXiXiXiXiXiXiXiXiXiXA.Z.C.y 0 r M.N A _ iXiXiXiX",
"iXiXiXiX+.Z D N.M.w.B.Z.V.Z.iXiXiXiXiXiXiXiXiXiXiXiXiXiXiXiXiXiXiXiXiXiXiXiXiXiXiXiXiXiXiXiXiXiXiXiXZ.C.C.m.j.M.S.N A } iXiXiXiX",
"iXiXiXiX+.Z F N.C.C.C.Z.C.A.iXiXiXiXiXiXiXiXiXiXiXiXiXiXiXiXiXiXiXiXiXiXiXiXiXiXiXiXiXiXiXiXiXiXiXiXD.Z.Z.Z.V.D.K.i A _ iXiXiXiX",
"iXiXiXiX@.Z D N.Z.C.K.Z.C.A.iXiXiXiXiXiXiXiXiXiXiXiXiXiXiXiXiXiXiXiXiXiXiXiXiXiXiXiXiXiXiXiXiXiXiXiXZ.C.Z.Z.V.D.S.G Z _ iXiXiXiX",
"iXiXiXiXOXA S N.I.C.K.A.C.Z.iXiXiXiXiXiXiXiXiXiXiXiXiXiXiXiXiXiXiXiXiXiXiXiXiXiXiXiXiXiXiXiXiXiXiXiXS.C.C.I.C.D.K.W Z @.iXiXiXiX",
"iXiX3X3X].Z D N.K.C.K.A.Z.P.iXiXiXiXiXiXiXiXiXiXiXiXiXiXiXiXiXiXiXiXiXiXiXiXiXiXiXiXiXiXiXiXiXiXiXiXP.K.C.I.C.D.K.W Z _ ,X,XiXiX",
"iXiX2X3X$.Z D N.I.Z.P.(.R.q o iXiXiXiXiXiXiXiXiXiXiXiXiXiXiXiXiXiXiXiXiXiXiXiXiXiXiXiXiXiXiXiXiXiXiX6 T.(.L.C.I.K.G Z R oX XoXiX",
"iX3X2X2X$.Z D H.U./.!.l 8 5 + iXiXiXiXiXiXiXiXiXiXiXiXiXiXiXiXiXiXiXiXiXiXiXiXiXiXiXiXiXiXiXiXiXiXiX5 5 h Q ~.}.I.W Z R  X X X X",
"iX3X3X3X$.Z H (.^.D h - * 2 # iXiXiXiXiXiXiXiXiXiXiXiXiXiXiXiXiXiXiXiXiXiXiXiXiXiXiXiXiXiXiXiXiXiXiXg * - ; l ` }.W C R oX X X X",
"<X<X<X3X$.Z D /.U k h 8 - 5 iXiXiXiXiXiXiXiXiXiXiXiXiXiXiXiXiXiXiXiXiXiXiXiXiXiXiXiXiXiXiXiXiXiXiXiX7 & 8 8 k C ).N Z R oXoX[.oX",
"yX5X,X<X$.Z D !.S 9 ; 0 y N.iXiXiXiXiXiXiXiXiXiXiXiXiXiXiXiXiXiXiXiXiXiXiXiXiXiXiXiXiXiXiXiXiXiXiXiXP.p.7 8 9 C ~ G Z R #X#X#XwX",
"*X%X+X#X%.C D G.w w p.J.K.U.iXiXiXiXiXiXiXiXiXiXiXiXiXiXiXiXiXiXiXiXiXiXiXiXiXiXiXiXiXiXiXiXiXiXiXiXU.K.M.G.i 0 /.N Z R #X+X%X%X",
" X X X X{ Z D H.J.M.Y.K.K.U.iXiXiXiXiXiXiXiXiXiXiXiXiXiXiXiXiXiXiXiXiXiXiXiXiXiXiXiXiXiXiXiXiXiXiXiX|.I.L.U.M.H.U.W C T oX X X X",
" X X X X{ Z D H.Y.C.Y.U.P.G.) @X.X.X@X@X@X@XXXXX=X<X,X<X<X<X<X<X<X<X<XiXiXiXiXiXiX@X@XXX@X@X@XXX{.X.W.P.L.U.K.U.U.G C R oX X X X",
" X X X X` Z D H.Y.K.U.G.V | [.@X@X@X@X@X@X@X@X*X<X2X2X2X2X2X2X2X2X2X2X2X2X2X3X$X.X@X@X@X@X@X@X@X@X@XX.Q p.P.K.Y.P.W C R oXoX X X",
"+X#X+X+X+.C S H.U.b.W ] oX+X[.@X@X@X$X$X&X$X%X>X2X2X<X1X>X>X>X<X1X<X<X2X<X1X1X5X&X&X-X&X$X$X$X$X&X&X$X$X$.Q y.U.|.N C T oXoX+X+X"
};
