/* XPM */
static char *_d4d9b2397804420ad8370f58b9c40c3[] = {
/* columns rows colors chars-per-pixel */
"32 61 215 2 ",
"   c None",
".  c #1C1C1C",
"X  c #171615",
"o  c #201F1B",
"O  c #22201C",
"+  c #29261E",
"@  c #332C1D",
"#  c #242424",
"$  c #2C2C2C",
"%  c #272728",
"&  c #312E2B",
"*  c #312D24",
"=  c #33312E",
"-  c #3D3628",
";  c #2F2F31",
":  c #2F3033",
">  c #2B323D",
",  c #333333",
"<  c #3C3932",
"1  c #3B3B3A",
"2  c #343537",
"3  c #47381B",
"4  c #563E1A",
"5  c #513307",
"6  c #433B2E",
"7  c #483C29",
"8  c #403C30",
"9  c #403F3B",
"0  c #5F4216",
"q  c #68440B",
"w  c #67491A",
"e  c #78551F",
"r  c #6C511A",
"t  c #79641D",
"y  c #4E452C",
"u  c #53432B",
"i  c #5B4A2A",
"p  c #584827",
"a  c #45433B",
"s  c #4D483F",
"d  c #574A36",
"f  c #6B4F24",
"g  c #6A532C",
"h  c #665826",
"j  c #735423",
"k  c #7E5920",
"l  c #796521",
"z  c #1F3454",
"x  c #2B3748",
"c  c #2A3546",
"v  c #333A43",
"b  c #2A3B55",
"n  c #1C3D6F",
"m  c #243D64",
"M  c #3B4249",
"N  c #1B417A",
"B  c #2A4267",
"V  c #2D4872",
"C  c #4A4A43",
"Z  c #4A4946",
"A  c #514D45",
"S  c #55544A",
"D  c #5A554C",
"F  c #5A574A",
"G  c #484D53",
"H  c #5E5D50",
"J  c #635C52",
"K  c #665E57",
"L  c #675840",
"P  c #636254",
"I  c #6B6457",
"U  c #6C655A",
"Y  c #6D6B5A",
"T  c #696857",
"R  c #726A5C",
"E  c #74725E",
"W  c #4F5761",
"Q  c #6B6865",
"!  c #786D61",
"~  c #777560",
"^  c #7C7162",
"/  c #7C7A64",
"(  c #6F6F76",
")  c #955D07",
"_  c #835B1D",
"`  c #8C5F18",
"'  c #8B5704",
"]  c #89681D",
"[  c #94651A",
"{  c #9A6819",
"}  c #9A6715",
"|  c #8A711C",
" . c #9B7E19",
".. c #9B6004",
"X. c #AB6D0C",
"o. c #BD7A0F",
"O. c #B4730C",
"+. c #A46D15",
"@. c #A86F14",
"#. c #A46F1C",
"$. c #A97017",
"%. c #B77711",
"&. c #815B20",
"*. c #966D2B",
"=. c #C47D0C",
"-. c #C97D05",
";. c #847666",
":. c #847A68",
">. c #8D7D6A",
",. c #62957E",
"<. c #BD9611",
"1. c #A28317",
"2. c #CD820B",
"3. c #CE8003",
"4. c #DE8B07",
"5. c #D2840A",
"6. c #D38203",
"7. c #C39B0F",
"8. c #E48E05",
"9. c #EA9103",
"0. c #F49601",
"q. c #F69801",
"w. c #FA9900",
"e. c #85836A",
"r. c #8A856C",
"t. c #8A886E",
"y. c #8E8C70",
"u. c #8D8272",
"i. c #928C72",
"p. c #9A8876",
"a. c #959274",
"s. c #999677",
"d. c #9D9A7A",
"f. c #9A9877",
"g. c #978066",
"h. c #A28E7B",
"j. c #A6927E",
"k. c #A29E7D",
"l. c #A4A17F",
"z. c #174281",
"x. c #184486",
"c. c #0E4494",
"v. c #0D469C",
"b. c #114592",
"n. c #144A9D",
"m. c #265297",
"M. c #0747A9",
"N. c #094FBB",
"B. c #3466B7",
"V. c #6B768D",
"C. c #024DC4",
"Z. c #1257C8",
"A. c #4375C4",
"S. c #8D8982",
"D. c #AE9B88",
"F. c #B39C86",
"G. c #A19C9E",
"H. c #80A187",
"J. c #A7A481",
"K. c #A9A682",
"L. c #ACAA85",
"P. c #B1AD87",
"I. c #BBA48C",
"U. c #B2AE89",
"Y. c #B7A18A",
"T. c #BAB78E",
"R. c #BAB68D",
"E. c #BEBB91",
"W. c #BAAA98",
"Q. c #8F9BB7",
"!. c #9CBBAD",
"~. c #ACACB1",
"^. c #C8AE95",
"/. c #C6B995",
"(. c #D3B69B",
"). c #D9BD9F",
"_. c #C0A78E",
"`. c #CDB9A9",
"'. c #B6E7BD",
"]. c #C5C295",
"[. c #CDCA9B",
"{. c #C9C598",
"}. c #D2CF9E",
"|. c #D3D09F",
" X c #DBC3A4",
".X c #D4D2A1",
"XX c #DAD6A3",
"oX c #DDD9A6",
"OX c #DFDDA8",
"+X c #E2C4A5",
"@X c #EDCCAC",
"#X c #F1CFAD",
"$X c #E2DEA9",
"%X c #F5D4B2",
"&X c #F9D6B4",
"*X c #F6DBB9",
"=X c #E9D3B2",
"-X c #E5E2AC",
";X c #E9E6AE",
":X c #ECEAB1",
">X c #ECE4B6",
",X c #F1EFB5",
"<X c #F5F1B6",
"1X c #F6F3B9",
"2X c #F9F7BA",
"3X c #F8F6BC",
"4X c #FFFABD",
"5X c #FDFABD",
"6X c #FFFDBE",
"7X c #FFFCBD",
"8X c #FCFABD",
"9X c #FADDC1",
"0X c #F4EDCE",
"qX c #E9EAE5",
"wX c #CAE9CC",
/* pixels */
"          2 2                 2                                 ",
"          2 2 1 1             2 1                               ",
"          2 S :.e.T 1         C Y T               , $           ",
"          2 / oX$Xd.T H     2 P R.k.P             H F           ",
"          C a.,X4X-X.XR.Y C 1 P }.-Xl.H         P l.f.C         ",
"        C t.[.<X4X7X7X:X/.L./ T [.4X$Xl.P     P J.oXL.C         ",
"        C L.XX].:X7X4X4X4X2X[.s.J.oX4X-Xk.T T k.-X2XL.C         ",
"        C L.P.R L.:X7X7X7X7X2X|.s.].3X7XOXe.e.OX4X2XL.C         ",
"        C L.K.C T R.-X:X2X7X7X<X$X:X4X7X:Xa.a.:X0X3XL.C         ",
"        C J.J.J y.s.e.d.$X4X4X4X7X7X4X4X<X}.}.1X7X1XL.C         ",
"        1 E E T {.E.i.i.J.XX4X4X4X4X4X4X4X4X4X7X1X{.r.          ",
"        D Z Z ~ T.$XXXL.t.J.oX2X4X4X4X7X7X7X;X[.T.~ a           ",
"      R D.;.! p.:.R./.i.l.a.K.,X7X4X<X;X;X<X]./ T a $           ",
"    R Y.+X^.p.I A K.oXP.i.d.{.,X4X3X[.t.t.{.XXT.J.T 1           ",
"  1 ;.`.~.Q.V.1 a L.3X-XK.s.d.R.;X4X}.s.y.f.{.<X<XR.~           ",
"  , ;.~.A.Z.n.b M L.3X<X].y.E i.$X7X2X,X-XK.s.[.<X<XE.E         ",
"  & ^ G.B.C.N.m.W l.-X[.a.L..X$X<X,X,X7X4X-XL.i.[.<X,X/.E       ",
"    F K V v.A.Q.D.i./ e.L.$X3X3X:XP.P.:X7X4X-XL.a.{.2X,XE.~     ",
"      = > m V.=X#XF.K P }.3XXXK.d.i.i.U.;X7X7X-XK.f.].2X;Xr.1   ",
"      , 2 S u.^.@X@Xp.Y }.3XU.D U I.Y.r.R.;X7X7X-Xr.~ T.].:.    ",
"    $ 2 S l.k.;.(.%Xj.R .X3XK.J D.@X@X_.r.U.:X7X:Xe.9 A H       ",
"    $ C k.$XL.U ^.%Xj.Y [.1XL.U ^.&X&X@XI.i.L.:X:Xe.,           ",
"      S f.XXL.U ^.%Xj.D y..XK.U ^.&X%X%X@XI.i.U.XXe.2           ",
"        S s.r.I ^.%XD.A U k.e.D h.+X&X&X&X@Xh.T s.Y 2           ",
"          A a D I.@Xj.K j.:.A G Q D.).+X%X%Xj.A D C ,           ",
"            $ 1 U I.p.R I.>.Q ~.~.S.! u. X%Xj.J :.J &           ",
"              > B ( U K _.I.W.0XqX!.,.H. X%Xj.D ! I             ",
"              z v.x.b Z j. X%X9X0XwX'.'.=X(.:.1 ,               ",
"              c c.M.B a D j.).+X%X*X>X=X).g.d & .               ",
"              2 b B L [ i S U >.(.#X#X(.>.*._ -                 ",
"              7 e { o.4.+.p b V ( p.p.^ d +.X.3                 ",
"              i =.0.0.w.9.+.G z.N B B b a +.X.3                 ",
"              p 2.w.9.8.0.9.#.G x.M.N.v.M @.O.w                 ",
"              4 -.0.=.[ 5.w.8.#.G v.C.M.M @.8.O.4               ",
"              3 ) 6.+.p _ 5.w.9.#.G N n 1 @.q.3.w               ",
"                5 ) _ < 6 _ %.2.4.@.j j &.=.8.+.4               ",
"                  3 - , , 6 7 f o.5.=.=.=.2.+.u *               ",
"                  # % , 2 > > 1 i g g g g g y , %               ",
"                  X # c N z.z.z.z.z.z.z.z.z.z.n > %             ",
"                    O c N b.c.c.c.b.b.b.b.b.b.N x 4 0           ",
"                    % , v Z s s C v x x x x x v i @.X.w         ",
"                    % : < ` =.=.%.j < , , , , u @.8.8.O.w       ",
"                  % $ : 6 @.q.w.0.=.j < , , , i 5.w.w.8.X.r     ",
"                % $ , < j =.0.w.0.2.k < , , , y +.8.w.w.9.X.r   ",
"              % $ , < j =.0.w.0.5._ 6 , , , , , u } 8.w.w.9.} 6 ",
"              $ , < j =.0.w.0.5._ 7 , , , , , , , u { 8.w.q.@.6 ",
"            $ , < j =.0.w.0.2.{ [ p , , , , , , , , u { 8.0.@.6 ",
"          % $ : 6 +.0.w.w.0.=.[ } r = ; , , , , , , u [ 4.6.} 7 ",
"          , , , 8 [ 8.w.w.w.0.=.r 7 * % & , , , , , f o.3...q   ",
"          2 , , , u { 4.9.9.9.-.q     % $ , , , , , 6 w q       ",
"          2 , , , , p _ ] ` ` '       $ , , , , , , $ O         ",
"          , , , , , , , , & @         $ , , , , , : %           ",
"          , , , , , , , : #           # % , , < y 6 $           ",
"          , , , < < , , $ %             . % ; i 1.l ,           ",
"          $ , y | h , $ %                 . % h 7.| ,           ",
"        $ = y |  .h = % .                   . 3 | r *           ",
"        : , l <.h = % .                       O - @             ",
"        , 8 | <.i # .                                           ",
"        8 l  .t 3 O                                             ",
"        8 l l 6 +                                               ",
"        , < < ,                                                 "
};
