/* XPM */
static char *result[] = {
/* columns rows colors chars-per-pixel */
"64 64 208 2 ",
"   c #362F39",
".  c #343334",
"X  c #3E3A31",
"o  c #3A3A3A",
"O  c #3A353B",
"+  c #423D2F",
"@  c #423C39",
"#  c #524A2B",
"$  c #5D522C",
"%  c #474236",
"&  c #554C34",
"*  c #655729",
"=  c #725C28",
"-  c #645534",
";  c #675A35",
":  c #755A37",
">  c #73632C",
",  c #3F254B",
"<  c #40224E",
"1  c #453A49",
"2  c #4A3554",
"3  c #4E345A",
"4  c #473551",
"5  c #523E51",
"6  c #442254",
"7  c #4F0F6E",
"8  c #4C1368",
"9  c #51146D",
"0  c #510D72",
"q  c #59336A",
"w  c #563466",
"e  c #4C4C4C",
"r  c #494547",
"t  c #53494D",
"y  c #5A4D49",
"u  c #584857",
"i  c #525252",
"p  c #5D5D5D",
"a  c #5C5856",
"s  c #574F4D",
"d  c #625C4A",
"f  c #64565A",
"g  c #756A46",
"h  c #676356",
"j  c #786A55",
"k  c #664968",
"l  c #655C60",
"z  c #6D5A63",
"x  c #775E69",
"c  c #6C4B73",
"v  c #626261",
"b  c #6D6D6D",
"n  c #727272",
"m  c #7D7D7D",
"M  c #76696F",
"N  c #8E7325",
"B  c #827851",
"V  c #886A78",
"C  c #90717F",
"Z  c #8C737E",
"A  c #B28F13",
"S  c #BB9616",
"D  c #C69D0E",
"F  c #C29A10",
"G  c #CDA20C",
"H  c #D6A90B",
"J  c #DCAD09",
"K  c #D3A70D",
"L  c #CBA111",
"P  c #E9B605",
"I  c #F3BD03",
"U  c #E0AF08",
"Y  c #FCC400",
"T  c #590382",
"R  c #753494",
"E  c #7A3899",
"W  c #6F328D",
"Q  c #7F33A5",
"!  c #8333AB",
"~  c #8A33B5",
"^  c #9033BE",
"/  c #B03BA3",
"(  c #A8339C",
")  c #CA3FBB",
"_  c #9A7687",
"`  c #9D7B8B",
"'  c #947281",
"]  c #A17B8D",
"[  c #A77F92",
"{  c #B04AAE",
"}  c #AC72AC",
"|  c #9533C6",
" . c #EB1CD1",
".. c #ED23D6",
"X. c #ED2AD6",
"o. c #EE26D8",
"O. c #EE2BDA",
"+. c #F02EDE",
"@. c #EF33DA",
"#. c #EF3ADB",
"$. c #F132DE",
"%. c #F03BDC",
"&. c #F235E2",
"*. c #F43CE6",
"=. c #F53EE8",
"-. c #D23CC2",
";. c #F144DE",
":. c #E75CDA",
">. c #F342E4",
",. c #F34BE3",
"<. c #F643EB",
"1. c #F847EE",
"2. c #F649EC",
"3. c #F849EF",
"4. c #F454E5",
"5. c #F45BE6",
"6. c #F657EA",
"7. c #F94DF2",
"8. c #FB52F5",
"9. c #FC57F9",
"0. c #FD5CFC",
"q. c #F95BF3",
"w. c #F664EA",
"e. c #F66CEC",
"r. c #F773EE",
"t. c #F874EE",
"y. c #F879EF",
"u. c #FF61FF",
"i. c #FF6CFF",
"p. c #FA69F3",
"a. c #F97CF1",
"s. c #FF73FE",
"d. c #FF7CFE",
"f. c #FA73F4",
"g. c #EE69EA",
"h. c #D378CE",
"j. c #898989",
"k. c #99858F",
"l. c #959293",
"z. c #978E92",
"x. c #AD8296",
"c. c #B1859A",
"v. c #B68991",
"b. c #A19A9E",
"n. c #A0808F",
"m. c #BC8CA2",
"M. c #A59DA6",
"N. c #B88CB8",
"B. c #ACAAAB",
"V. c #A6A5A5",
"C. c #BBBBBB",
"Z. c #BAB6B7",
"A. c #B2AEB0",
"S. c #C28FA8",
"D. c #C593AA",
"F. c #C592AA",
"G. c #CD98B1",
"H. c #D099B3",
"J. c #D89EB9",
"K. c #DCA1BD",
"L. c #C3C2BF",
"P. c #D490D3",
"I. c #C0BDC1",
"U. c #E4A6C3",
"Y. c #E7A8C5",
"T. c #E9A9C7",
"R. c #EDACCB",
"E. c #F1AFCD",
"W. c #F3B0CF",
"Q. c #FAB5D5",
"!. c #FFB8D9",
"~. c #F6B2D2",
"^. c #F787EC",
"/. c #F985F3",
"(. c #FA8CF4",
"). c #FF84FF",
"_. c #FF8CFF",
"`. c #FB9BF6",
"'. c #FE93FD",
"]. c #FE9CFE",
"[. c #F997F5",
"{. c #FEA4FE",
"}. c #FEACFE",
"|. c #F9A7F4",
" X c #FFB4FE",
".X c #FFBBFF",
"XX c #FAB2F5",
"oX c #EDA6E9",
"OX c #C3C3C3",
"+X c #CDCDCD",
"@X c #C9C8C4",
"#X c #D9C8D9",
"$X c #D3D3D3",
"%X c #DCDCDC",
"&X c #FFC4FF",
"*X c #FFCBFF",
"=X c #FFD3FF",
"-X c #FFDCFF",
";X c #E9D6E9",
":X c gray89",
">X c #EDEDED",
",X c #FFE3FF",
"<X c #FFEBFF",
"1X c #F2E5F2",
"2X c #F4F3F4",
"3X c #FFF4FF",
"4X c #FFFFFF",
"5X c None",
/* pixels */
"5X5X5X5X5X5X5X5X5X5X5X5X5X5X5X5X5X5X5X5X5X5X5X5X5X5X5X5X5X5X5X5X5X5X5X5X5X5X5X5X5X5X5X5X5X5X5X5X5X5X5X5X5X5X5X5X5X5X5X5X5X5X5X5X",
"5X5X5X5X5X5X5X5X5X5X5X5X5X5X5X5X5X5X5X5X5X5X5X5X5X5X5X5X5X5X5X5X5X5X5X5X5X5X5X5X5X5X5X5X5X5X5X5X5X5X5X5X5X5X5X5X5X5X5X5X5X5X5X5X",
"5X5X5X5X5X5X5X5X5X5X5X5X5X5X5X5X5X5X5X5X5X5X5X5X5X5X5X5X5X5X5X5X5X5X5X5X5X5X5X5X5X5X5X5X5X5X5X5X5X5X5X5X5X5X5X5X5X5X5X5X5X5X5X5X",
"5X5X5X5X5X5X5X5X5X5X5X5X5X5X5X5X5X5X5X5X5X5X5X5X5X5X5X5X5X5X5X5X5X5X5X5X5X5X5X5X5X5X5X5X5X5X5X5X5X5X5X5X5X5X5X5X5X5X5X5X5X5X5X5X",
"5X4X4X4X4X4X4X4X4X4X4X4X4X4X4X4X4X4X4X4X4X4X4X4X4X4X4X4X4X4X4X4X4X4X4X4X4X4X4X4X4X4X4X4X4X4X4X4X4X4X4X4X4X4X4X4X4X4X4X4X4X4X4X4X",
"5X4X4X4X4X4X4X4X4X4X4X4X-X=X4X4X4X4X4X,X*X4X4X4X4X4X3X4X4X4X4X3X3X4X4X4X4X4X4X4X4X4X4X&X3X4X4X4X4X4X&X<X4X4X4X4X4X4X4X4X4X4X4X4X",
"5X4X4X4X4X4X4X4X4X4X4X4X.X}.4X4X4X4X4X*X].4X4X4X4X<X*X4X4X4X,X_.'.3X4X4X3X&X3X4X4X4X<X_.-X4X4X4X4X4X_.-X4X4X4X4X4X4X4X4X4X4X4X4X",
"5X4X4X4X4X4X4X4X4X4X4X4X X_.=X4X4X4X,X].d.*X4X4X4X-X'.4X4X3X}.u.s..X4X4X<X'.<X4X4X4X.Xd.}.3X4X4X4X&Xd.=X4X4X4X4X4X4X4X4X4X4X4X4X",
"5X4X4X4X4X4X4X4X4X4X4X4X Xi.}.4X4X4X*Xi.i.'.4X4X4X-Xd.&X4X,Xd.u.u.).3X3X X).<X4X4X3X).i.s.-X4X4X4X_.u.-X4X4X4X4X4X4X4X4X4X4X4X4X",
"5X4X4X4X4X=X,X4X4X.X&X4X X0.).=X4X,X'.u.0.d.*X4X<X{.u._.,X}.u.0.0.s..X,Xd.i. X3X3X.Xi.0.i.{.3X4X&Xd.u.=X4X{.-X4X4X=X,X4X4X4X4X4X",
"5X4X4X4X4X}.&X4X4X}._.-X X0.i._.=X*Xi.0.u.i.'.4X-Xi.0.d.}.s.9.+.&.0.d.{.i.u.).<X<X).u.u.u.d.,X&X).u.u.-X*Xd.*X4X4X{.&X4X4X4X4X4X",
"5X4X4X4X4X{.'.-X4X&X).].'.u.0.i.'.].u.7.=.u.i.'.{.u.0.i.i.0.8...o.0.u.i.u.0.i.}._.i.0.*.8.i.{.d.i.0.u.{.)._.-X4X=X).&X4X4X4X4X4X",
"5X4X4X4X4X{.i.&X4X<X{.i.i.u.u.u.i.i.0.1. .=.0.i.s.0.u.u.u.9.>.t.r.*.0.0.u.u.u.i.i.0.&...9.u.i.i.0.u.u.i.i..X3X4X{.i.&X4X4X4X4X4X",
"5X4X4X4X4X.Xs.d.*X4X}.0.0.u.u.u.u.0.u.7.%.w.*.u.0.9.=.0.0.8.%.].(.@.0.0.0.*.0.0.0.*.w.@.9.0.u.u.0.u.u.u.u.=X4X Xi.d.=X4X4X4X4X4X",
"5X4X4X4X4X*Xd.u.d.*X&Xd.u.u.u.0.u.u.u.3.,.'.w.=.u.7...*.9.>.(.-X=Xy.*.9.&...0.0.=.r.(.#.8.u.u.u.u.0.u.u.).-X Xi.u._.-X4X4X4X4X4X",
"5X4X4X4X4X<X'.u.u.d..X{.u.u.u.7.<.u.u.3.;..X&Xw.=.8.O.w.>.a.XX3X<X{.r.>.w.O.7.>.r.*X{.#.8.u.0.=.9.u.u.u..X}.s.u.u. X3X4X4X4X4X4X",
"5X4X4X4X4X4X{.u.u.u.d.d.u.u.0.1...1.u.3.;.&X3X&Xw.>.(.&X^.}.,X4X4X-X{.^.&Xr.>.r.=X<X}.$.8.0.*...8.u.u.u._.i.u.u.u.&X4X4X4X4X4X4X",
"5X<X4X4X4X4X.Xs.u.u.u.u.u.u.u.<.%.6.<.3.,.&X4X3X&Xa..X3X=X.X4X4X4X<X X-X3X}./.=X4X4X|.%.8.=.w.O.7.u.u.u.u.0.u.u.d.=X4X4X4X4X,X,X",
"5X}.<X4X4X4X<X'.u.0.7.3.0.u.0.<.4.[.6.$.;.&X4X4X3X=X.X4X3X,X4X4X4X3X,X4X3X X=X4X4X3X|.#.&.w.[.%.8.u.0.u.=.9.u.u. X3X4X4X4X,X].&X",
"5Xd.=X4X4X4X4X{.u.u.7.=.7.u.u.9.p.{.'.;.;.&X4X4X4X3X,X4X4X4X4X4X4X4X4X4X4X,X4X4X4X3X{.#.w.].{.q.0.u.0.<.<.9.u.u.&X4X4X4X4X Xi. X",
"5Xu._.-X4X,X<X.Xs.u.u.8.*.7.u.u.q.t..XXXa..X4X4X4X4X4X4X4X4X4X4X4X4X4X4X4X4X4X4X4X3X}.a.&X}.w.q.0.0.<.=.0.0.0.d.=X-X<X4X*Xd.u. X",
"5Xi.u._..X=X.X&X'.u.u.u.=.o.7.0.3.,.&X3X*X&X4X4X4X4X:Xl.l.j.V.2X4X4X4X4X4X4X4X4X4X4X X=X3X}.#.8.u.<...7.u.u.u.}..X&X=X.Xd.u.d.&X",
"5X).u.u.d.].}. X).u.u.u.8.+.,.p.=.p.&X4X3X,X4X4X:Xl.z.` ` ` ` l.V.2X4X4X4X4X4X4X4X4X,X3X4X}.4.=.f.@.*.0.0.u.u.'. X}.'.i.u.u.].<X",
"5X'.u.0.0.u._.'.i.u.u.u.0.<.4.(.t.f.^.-X4X4X4X:Xz._ c.Q.!.!.R.] ` V.2X4X4X4X4X4X4X4X4X4X=Xr.d.e.'.%.7.0.u.u.u.d.].d.0.u.u.u. X4X",
"5X}.i.u.u.u.u.d.i.u.8.7.0.8.2.a. X|.a.&X4X4X:Xz._ _ _ _ x.Q.!.!.E.n.V.2X4X4X4X4X4X4X4X3X Xr..X}.r.<.9.u.1.9.0.d.i.u.u.0.u.s.&X4X",
"5X,X).0.u.u.0.u.0.u.7.=.>.8.8.e. X=X*X=X,X:Xl.c.G.e l.Z t [ Q.!.!.R.` B.2X4X4X4X4X4X4X-X=X*X=X}.4.9.1.=.*.9.u.u.u.u.u.u.u.{.<X4X",
"5X4X].u.u.u.7.8.u.u.0.=.%.2.=.4.a.*X4X<X-X%Xz.] k.B.:Xb.' ' ] c.Q.!.R.k.B.2X4X4X4X4X4X-X3X4X Xt.3.<.4.X.7.0.u.u.7.8.0.u.u..X4X4X",
"5X4X}.i.0.u.3.=.8.u.u.7.,.w.4.4.f..X,X4X4X4X%Xj.V.>Xb.n.Q.Y.' ] ~.!.!.R.` B.2X4X4X4X4X4X4X-X}.w.4.4.w.>.9.u.u.7.*.8.u.u.s.&X4X4X",
"5X4X-X).u.u.u.*.$.8.0.u.<.5..X*X.X}.&X4X4X4X4X4X4X+Xt m.~.!.!.!.!.!.!.!.U.f :X4X4X4X4X4X4X.X{.&X*X}.%.7.u.u.7.o.7.u.u.u.].<X4X4X",
"5X4X4X}.i.u.0.7.o.+.8.u.7.,.`.<X<X*X=X,X4X4X4X4X>XV.V ] Y.S.Q.!.!.!.!.!.R.` A.2X4X4X4X4X-X*X*X<X,X^.>.9.0.7.o.+.8.0.u.i.&X4X4X4X",
"5X4X4X-X).u.u.0.*. .+.<.8.<.4.*X4X4X<X-X4X4X4X4X+Xf Q.!.U.` Q.!.!.!.!.!.!.U.l :X4X4X4X4X=X3X4X4X.X#.7.7.<.o. .7.0.u.0.{.<X4X4X4X",
"5X4X4X4X}.i.u.u.7.o. .@.2.=.4.`.<X4X4X4X4X4X4X4X+Xr c.F.Q.!.!.E.m.m.Q.!.!.Y.l :X4X4X4X4X4X4X4X,X(.>.<.2.X. .o.8.u.u.i.*X4X4X4X4X",
"5X-X<X4X-X).u.u.u.1.X.w.a.2.>.w.*X4X4X4X4X4X4X4X+Xr x ' Q.!.!.Y.V M S.~.!.Y.f :X4X4X4X4X4X4X4X X,.<.,.(.;.o.8.0.u.u.].<X4X-X,X4X",
"5X X.X<X4X}.i.u.u.0.*.,.(.a.6.d.|.<X4X4X4X4X4X4X+Xt D.!.!.!.!.!.!.T.V S.~.U.l :X4X4X4X4X4X4X,X(.d.4.(./.@.7.u.u.u.i.*X4X,X}.*X4X",
"5X4X'.{.<X-X).0.0.u.1...5. X&X^.e.&X4X4X4X4X4X4X+X1 C Q.!.!.!.W.H.Q.T.' R.R.' C.2X4X4X4X4X4X X5.{.&X}.%.+.8.u.u.u.].<X,X_..X4X4X",
"5X4X Xs.{.<X}.i.u.u.u.1.4.}.<X,X.X*X<X4X4X4X>XOXb.t F.H.Q.!.!.U.V m.F.G.Q.!.Y.l :X4X4X4X4X,X&X&X<X<X[.>.8.u.0.u.i.*X,X_.d.*X4X4X",
"5X4X4X{.i.{.&X_.u.9.9.u.<.5.*X4X4X,X=X4X4X>XM.3 3 3 2 f ~.!.!.!.U.x z M R.!.Y.f :X4X4X4X4X*X3X4X4X.X%.7.u.8.0.0.].*X_.i.&X4X4X4X",
"5X4X4X=X).u.{.'.u.<.=.9.1.4.}.3X4X4X4X4X>XM.q ! Q ! ! c H.!.!.!.!.!.!.!.!.Q.S.p :X4X4X4X4X4X4X4X<X[.>.8.8.&.8.u. X_.u.'.,X4X4X4X",
"5X4X4X4X Xi.u.u.u.0.=.&.9.1.4.XX3X4X4X4XI.3 R f f c ! ~ c D.J.Q.!.!.!.!.Q.D.u e :X4X4X4X4X4X4X<X[.>.8.8.+.7.0.u.0.u.d.*X4X4X4X4X",
"5X4X4X4X4X{.i.u.u.u.<...&.7.*.4.*X4X4X4XC.@ C Q.R.[ 2 Q R 3 t F.H.H.H.H.m.3 Q u %X$X$X+X$X2X4X X%.<.8.X...8.u.u.u.i.&X4X4X4X4X4X",
"5X4X4X4X4X=X).u.0.u.u.=. .X.X.,.}.3X4X4XC.z Q.~.x.. . . 4 W 2 3 3 , 1 o 5 w R u B.g @ $ ; L.1X`.@.@... .7.u.u.u.0.].,X4X4X4X4X4X",
"5X4X4X4X4X4X Xi.u.u.u.<...,.w.#.5.XX<X2XB.C W.x.. . . . . 2 ^ | ! 4 W 2 ~ ~ 1 t & F * K P - h.,.#.e.#...8.u.0.0.d.*X4X4X4X4X4X<X",
"5X<X4X<X3X4X4X}.i.0.u.0.<.o.,.(.f.w.&XZ.z H.v.* # X # . . 4 ^ ! ! u f k ! ~ 5 G.x A $ J I - ) /.(.#.o.8.0.u.u.i.&X4X4X<X<X3X,X X",
"5X'.&X{..X<X3X=X).u.u.9.9.<.X.4.}.XX.XN.+ - N I D * D X t k E k x Y.E.J.c E 5 S.U.j % J I - P.{.#...7.9.0.u.u.'.,X3X,X}..X.X'.&X",
"5X].i.}.'.).*X,X].i.0.7.=.7.*.4.XX<X>Xb.= I I Y K = A y D.c.a N.H.K.K.J.m.t i b D.S.y S G $ #X`.>.<.9.&.8.u.i. X<X.Xd.}.].i. X4X",
"5X&Xd.i.u.i.).).).d.0.0.1.o.&.*.5.*XC.1 : J P Y Y G % . @ o o % - - - - & r C.OXn f a d h f P.;.<.O.o.7.u.0.).d._.d.u.i.i._.-X4X",
"5X4X{.i.u.u.i.0.u.u.u.u.0.<...X.w.&XA.w R + = J J S e o e o e d L P I P F d v b OX:X>X>X>X1X|.,...o.8.0.u.u.i.u.u.u.u.u.s..X4X4X",
"5X4X3X{.i.u.0.0.0.u.u.u.0.0.1.,.(.}.N.w E < 9 % & n V.n C.b OXOXB H J G j L.%X$Xj.+X4X4X3X*X}./.%.7.0.u.u.0.0.0.0.u.u.i..X3X4X4X",
"5X4X4X3X].u.u.<.<.9.0.0.u.0.0.1.6.|.M.q W 6 8 . p C.b %X>XI.b :X@Xh d d C.m @X>X$Xj.+X3X*X-X`.,.8.0.u.u.u.0.9.*.7.u.i. X4X4X4X4X",
"5X4X4X4X*X).u.0.=.o.=.9.0.0.u.0.7./ k R 6 7   o b Z.n >X>X+Xv >X>X%XL.v %X+Xb %X>X$Xb :X<X|.,.8.0.u.9.0.9.+.o.1.0.i._.-X4X4X4X4X",
"5X4X4X4X4X&Xd.0.0.=...o.O.*.9.9.9.{ q R < 7 . p C.b %X2X2X+Xv >X2X2X$Xn %X%Xn %X>X+Xf #X|.,.8.9.9.0.$.O.X...7.0.0._.=X4X4X4X4X4X",
"5X4X4X4X4X3X}.i.0.0.=.4.5.@.@.O.&.{ q E < 0 . v I.v >X2X2X+Xv :X>X%X%X+X>X>X:X>X$Xv 1 P.>.3.8.+.@.$.O.e.*.1.0.0.i.&X4X4X4X4X4X4X",
"5X4X4X4X4X4X3X{.i.u.0.<.5./.'.e.+.( q R , 7 . v C.b >X2X>XC.v :X@Xa e v +X%X:X+Xv o 5 -.X.$.@.+.y.(./.,.7.0.0.i.&X3X4X4X4X4X4X4X",
"5X4X4X4X4X4X4X3X].u.u.0.<.w.'.[.'.} q R , 7 . o b +X%X:XOXi i C.i o . o e e e e o e P.[.'.[.[.(.`.].,.7.0.u.i..X3X4X4X4X4X4X4X4X",
"5X4X4X4X4X4X4X4X*X).i.0.0.<.#.5.].} q R , T 8 . o e i e e . o e     . . . . . . r OX2X<X,X.X{.].,.%.1.0.u.i._.,X4X4X4X4X4X4X4X4X",
"5X4X4X4X4X=X-X3X3X&Xd.0.<.*.8.1.5.} q Q , T 9 o . . . . . . o 1 7 0 8   . X + X r %X4X4X*X-X}.,.7.7.&.8.0._.=X3X4X*X,X4X4X4X4X4X",
"5X4X4X4X4X3X X&X=X=X^.2.q.<.=.0.2.( q R O 4 M A.. . . . . i $XI.u 4 1 o # G H G g $X4X4X<X.X4.7.9.*.<.9.*.XX&X,X}.&X4X4X4X4X4X4X",
"5X4X4X4X4X4X<X}..X X|.y.@.=.=.=.0.g.} 4 v %X:XL.X + X X . p 2X2X%X%XOXd S I Y Y H j %X2X&X].p.q.&.<.&.#.|.].*X{.&X3X4X4X4X4X4X4X",
"5X4X4X4X4X4X4X<X*X*X X}.[.<.*.=.4.f.:.} m 4X+Xg H H H A X v 2X4X4X4X2X@Xg > U Y I L j oX{.4.a.>.1.&.2.XX].&X&X=X3X4X4X4X4X4X4X4X",
"5X4X4X4X4X4X4X4X3X4X<X X}.{.<.*.,.4.XX1X;X*XOX* Y Y Y K a $X4X4X4X4X4X2X%XOXg $ * - i #X,X[.,.7.&.8..X].&X3X3X4X4X4X4X4X4X4X4X4X",
"5X4X4X4X4X4X4X4X4X4X4X<X*X*X{.f.d.(.=X=X3X3XOX* Y Y Y L h 2X4X4X4X4X4X4X4X2X%X$X$X$X$X2X*X=Xf.).p..X&X=X3X4X4X4X4X4X4X4X4X4X4X4X",
"5X4X4X4X4X4X4X4X4X4X4X4X3X3X<X,X*X'.}.-X=X4XOX% * * * $ h 2X4X4X4X4X4X4X4X4X4X4X4X4X4X*X-X].].-X-X3X3X4X4X4X4X4X4X4X4X4X4X4X4X4X",
"5X4X4X4X4X4X4X4X4X4X4X4X4X4X4X4X3X,X,X4X3X4X2X+X$X$X+X+X%X4X4X4X4X4X4X4X4X4X4X4X4X4X4X<X4X-X,X4X4X4X4X4X4X4X4X4X4X4X4X4X4X4X4X4X",
"5X5X5X5X5X5X5X5X5X5X5X5X5X5X5X5X5X5X5X5X5X5X5X5X5X5X5X5X5X5X5X5X5X5X5X5X5X5X5X5X5X5X5X5X5X5X5X5X5X5X5X5X5X5X5X5X5X5X5X5X5X5X5X5X"
};
