/* XPM */
static char *result[] = {
/* columns rows colors chars-per-pixel */
"64 64 214 2 ",
"   c #352F39",
".  c #382B3F",
"X  c #343434",
"o  c #3D3C3C",
"O  c #393635",
"+  c #4B3E37",
"@  c #4B452D",
"#  c #554C2A",
"$  c #524A37",
"%  c #6D5C25",
"&  c #655726",
"*  c #645A37",
"=  c #766424",
"-  c #3B2A43",
";  c #3D3442",
":  c #40294B",
">  c #4E2F4A",
",  c #453948",
"<  c #4F3459",
"1  c #4A3455",
"2  c #50365C",
"3  c #4D2956",
"4  c #510C74",
"5  c #50156D",
"6  c #59346C",
"7  c #5E3373",
"8  c #64367B",
"9  c #623168",
"0  c #494748",
"q  c #52474D",
"w  c #544C53",
"e  c #535152",
"r  c #5C5C5B",
"t  c #595359",
"y  c #54534D",
"u  c #645D46",
"i  c #65565D",
"p  c #65595F",
"a  c #65474E",
"s  c #726B53",
"d  c #765C6B",
"f  c #71546D",
"g  c #636363",
"h  c #6D6D6D",
"j  c #7B626D",
"k  c #766B74",
"l  c #797778",
"z  c #7B786C",
"x  c #8D741C",
"c  c #86722F",
"v  c #8C7D4B",
"b  c #856877",
"n  c #827E70",
"m  c #BA9518",
"M  c #B18E13",
"N  c #A88628",
"B  c #C69D0E",
"V  c #C69E14",
"C  c #CDA20D",
"Z  c #D8AA0A",
"A  c #E2B207",
"S  c #ECB804",
"D  c #F4BE02",
"F  c #FEC500",
"G  c #6B3685",
"H  c #753594",
"J  c #763D8C",
"K  c #6C1B94",
"L  c #8033A6",
"P  c #8533AD",
"I  c #8B33B7",
"U  c #9033BF",
"Y  c #B733AA",
"T  c #C327B1",
"R  c #9D798A",
"E  c #987585",
"W  c #8D7783",
"Q  c #A37C8E",
"!  c #A67D92",
"~  c #B44BAB",
"^  c #C24BB3",
"/  c #CA5BBD",
"(  c #9733C9",
")  c #EC1ED2",
"_  c #ED22D5",
"`  c #ED2CD5",
"'  c #EE26D8",
"]  c #EF2ADA",
"[  c #F02EDE",
"{  c #EE37D8",
"}  c #F132DE",
"|  c #F03DDD",
" . c #F235E2",
".. c #F33BE4",
"X. c #F53FE9",
"o. c #D04FCC",
"O. c #EE42D9",
"+. c #EF4BDB",
"@. c #F04CDC",
"#. c #EE51DB",
"$. c #F055DD",
"%. c #F15FDE",
"&. c #D171D1",
"*. c #F163DF",
"=. c #F343E4",
"-. c #F34BE4",
";. c #F644EC",
":. c #F64DEC",
">. c #F848EE",
",. c #F35DE4",
"<. c #F552EA",
"1. c #F655EA",
"2. c #F94DF2",
"3. c #FA54F5",
"4. c #FA5AF4",
"5. c #FD5AFA",
"6. c #FC55F8",
"7. c #F364E4",
"8. c #F36CE3",
"9. c #F565EA",
"0. c #F66CEA",
"q. c #F86AEF",
"w. c #F374E4",
"e. c #F37BE5",
"r. c #F773EC",
"t. c #F875EE",
"y. c #F77CED",
"u. c #FB63F6",
"i. c #FE62FD",
"p. c #FE6CFD",
"a. c #FB6DF6",
"s. c #F97DF1",
"d. c #FE74FE",
"f. c #FF7BFE",
"g. c #FA75F4",
"h. c #838383",
"j. c #8B8487",
"k. c #948E91",
"l. c #AC8295",
"z. c #AE8698",
"x. c #B1859A",
"c. c #B88A9F",
"v. c #A78F85",
"b. c #9D94A1",
"n. c #BD8EA4",
"m. c #B78AA0",
"M. c #ACACAC",
"N. c #A6A5A5",
"B. c #B8B7B6",
"V. c #B2AAB2",
"C. c #C593AA",
"Z. c #D39CB5",
"A. c #C2A1BE",
"S. c #CF92CB",
"D. c #D2ACCD",
"F. c #ECABC9",
"G. c #E8A9C6",
"H. c #F1AFCE",
"J. c #F3B0CF",
"K. c #F6B2D1",
"L. c #FAB4D5",
"P. c #FFB8D9",
"I. c #F484E6",
"U. c #F58AE7",
"Y. c #F58CE9",
"T. c #F785ED",
"R. c #F693EA",
"E. c #F69BEB",
"W. c #F894EF",
"Q. c #F983F2",
"!. c #FB8CF5",
"~. c #FF84FF",
"^. c #FF8BFF",
"/. c #FA93F4",
"(. c #FE94FE",
"). c #FE9BFE",
"_. c #FA9CF4",
"`. c #F7A3EC",
"'. c #F8ACEF",
"]. c #F7A7EE",
"[. c #F8B2EF",
"{. c #FAA4F4",
"}. c #FAACF3",
"|. c #FFA5FF",
" X c #FEACFD",
".X c #F9B4F1",
"XX c #F9BBF2",
"oX c #FEB3FD",
"OX c #FEBCFC",
"+X c #C3C3C3",
"@X c #CDCDCD",
"#X c #C8C7C2",
"$X c LightGray",
"%X c #DDDDDD",
"&X c #D7CED5",
"*X c #FAC3F4",
"=X c #FACBF5",
"-X c #FEC2FC",
";X c #FECBFD",
":X c #F6C8F0",
">X c #FBD4F6",
",X c #FED4FE",
"<X c #FEDBFC",
"1X c #FADAF6",
"2X c #EBD6E8",
"3X c #E4E4E4",
"4X c #ECECEC",
"5X c #FEE4FC",
"6X c #FEECFC",
"7X c #F3EAF1",
"8X c #F1F1F1",
"9X c #FEF4FD",
"0X c #FFFFFF",
"qX c None",
/* pixels */
"qXqXqXqXqXqXqXqXqXqXqXqXqXqXqXqXqXqXqXqXqXqXqXqXqXqXqXqXqXqXqXqXqXqXqXqXqXqXqXqXqXqXqXqXqXqXqXqXqXqXqXqXqXqXqXqXqXqXqXqXqXqXqXqX",
"qXqXqXqXqXqXqXqXqXqXqXqXqXqXqXqXqXqXqXqXqXqXqXqXqXqXqXqXqXqXqXqXqXqXqXqXqXqXqXqXqXqXqXqXqXqXqXqXqXqXqXqXqXqXqXqXqXqXqXqXqXqXqXqX",
"qXqXqXqXqXqXqXqXqXqXqXqXqXqXqXqXqXqXqXqXqXqXqXqXqXqXqXqXqXqXqXqXqXqXqXqXqXqXqXqXqXqXqXqXqXqXqXqXqXqXqXqXqXqXqXqXqXqXqXqXqXqXqXqX",
"qXqXqXqXqXqXqXqXqXqXqXqXqXqXqXqXqXqXqXqXqXqXqXqXqXqXqXqXqXqXqXqXqXqXqXqXqXqXqXqXqXqXqXqXqXqXqXqXqXqXqXqXqXqXqXqXqXqXqXqXqXqXqXqX",
"0X0X0X0X0X0X0X0X0X0X0X0X9X5X0X0X0X0X0X9X5X0X0X0X0X0X0X0X0X0X0X0X0X0X0X0X0X0X0X0X0X0X0X5X9X0X0X0X0X0X6X6X0X0X0X0X0X0X0X0X0X0X0X0X",
"0X0X0X0X0X0X0X0X0X0X0X0X=Xe.0X0X0X0X0X1Xw.9X0X0X0X0X6X9X0X0X0X9X9X0X0X0X0X5X9X0X0X0X0Xe.*X0X0X0X0X0XR.}.0X0X0X0X0X0X0X0X0X0X0X0X",
"0X0X0X0X0X0X0X0X0X0X0X0X5X}.5X0X0X0X9X>X{.5X0X0X0X5Xw.6X0X0X1XoXoX<X0X0X9Xw.1X0X0X0X6X}.;X9X0X0X0X6XoX,X0X0X0X0X0X0X0X0X0X0X0X0X",
"0X0X0X0X0X0X0X0X0X0X0X0X5X!.w.0X0X0X>X7./.8.6X0X0X6X X<X0X6X8./.).7.1X0X5X{.6X0X0X0Xw.!.7.*X0X0X0XY.T.<X0X0X0X0X0X0X0X0X0X0X0X0X",
"0X0X0X0X0X9X6X0X0X0X0X0X5X|.{.6X0X0X>X_.).{.5X0X0X<X).8.5X5X).|.|._.,X6Xw.(.<X9X0X6X X{._.;X9X0X6XoX).<X0X0X0X0X0X9X9X0X0X0X0X0X",
"0X0X0X0X0X[.R.0X0X5X-X6X5X|.!.8.6X>X,.|.|.(.w.6X<X0._.).=X7._.|.).|.7.*X{.).7.>X0Xw.!.|.|.7.*X6XI.Q.|.<X6X;X,X0X0X'.E.0X0X0X0X0X",
"0X0X0X0X0X>XoX9X0X<Xs.e.<X|.|.s.w.;X_.|.|.|.|.6X1X).)._.,.!.).d.p.)./.,./.|._.,X9X X).|.|.(.=XI.r.|.|.;XR.r.;X0X9X-X-X0X0X0X0X0X",
"0X0X0X0X0X,XQ.Y.0XXX,.s.7.|.|.).s.,.|.(.d.).|.{.7.{.|.|./.|.).i.i.(.|./.).|.|.7._.|.|.d.(.|.0.y.).{.|.r.r.9.`.0X`.r.;X0X0X0X0X0X",
"0X0X0X0X0X,X/.OX0X6X=X|.(.|.|.|.).(.{.).i.p.).|./.|.).|.|.).a.} ] u.).|.|.|.|./.).|.d.i.(.|.(.).|.|.|._._.-X6X0X-X(.;X0X0X0X0X0X",
"0X0X0X0X0X].9. X;X0X<X).|.|.|.|.|.|.|.).5. .a.).|.).f.).|.).5.} { 6.(.|.|.d.).|.|.d...2.^.|.|.|.|.|.|.|.).,X0X,XoX0.Y.0X0X0X0X0X",
"0X0X0X0X0X`.,.|.|.,XXX7.|.|.|.|.|.|.|.(.6._ ..a.).).p.p.(.a.=.XX*X-.u.(.d.i.).).d.=._ 2.(.|.|.|.|.|.|.|.r.`.<X X|.0.U.0X0X0X0X0X",
"0X0X0X0X0X6X-X|.|.|.-X-X|.|.|.).f.|.|.).6.O.}.-.a.(.u...4.} { 1X6X+.] 4...6.(.d...'.+.:.(.|.|.f.(.|.|.|.OX-X X|.|.OX5X0X0X0X0X0X",
"0X0X0X0X0X0X,X|.|.|. XoX|.|.|.(.i.f.|.(.6.+.5XXX@.6.@.].O.{ XX0X0X=X{ } ].@.4.=.'.9X$.2.(.|.f.i.^.|.|.|.oX X|.|.|.;X0X0X0X0X0X9X",
"`.E.0X0X0X0X[.9.|.|.|.|.|.|.|.(.3...d.(.6.+.6X9XXX| | 1XXX#.1X0X0X6X%.[.6X+.[ '.9X0X$.2.^.f.=.2.^.|.|.|.|.|.|.|.r.E.0X0X0X0XXXY.",
"-X0.`.0X0X0X6XXX|.|.(.f.|.|.|.(.3.) ..p.3.+.9X0X9XXX#.5X0X>X0X0X0X9X1X9X9X#.].9X0X0X$.2.p.=.) >.^.|.|.|.~.^.|.|.OX5X0X0X0XXX7..X",
",X/.-X0X0X0X0X<X|.|.|.^.~.|.|.|.g.) )  .2.+.6X0X0X9X1X9X0X0X0X0X0X0X0X0X0X1X9X0X0X0X$.2.X.) ) q.|.|.|.^.~.|.|.|.;X0X0X0X0X;X(.-X",
";X|. X<X0X.XR..X7.|.|.|.^.~.|.|.(.;.O.`.[ +.6X0X0X0X0X0X0X0X0X0X0X0X0X0X0X0X0X0X0X0X$.] E.#.X.^.|.|.~.~.).|.|.r.E.'.E.0X5XoX|.-X",
"E.r.|.oXW.I.*XOXOX|.|.|.(.i.~.|.(.3.+.6X`.#.6X0X0X0X4Xl g g l 3X0X0X0X0X0X0X0X0X0X0X$.R.6X*.>.^.|.~.p.^.|.|.|.oX-X*XR.T.oX|.s.T.",
"5XoX|.|.(._.;X,XoX|.|.|.).~.6.-.d.s.#.9X9X=X0X0X3Xl l n.C.C.n.l l 3X0X0X0X0X0X0X0X0X>X6X0X*.q.~.1.3.f.).|.|.|.oX,X,X|.!.|.|. X>X",
"0X,X|.|.|.|.oX/.0.|.|.|.|.(.2.) } =.:.I.9X0X0X3Xj.n.C.L.P.P.K.Z.n.h.3X0X0X0X0X0X0X0X0X0XY.<.=.} _ ;.^.|.|.|.|.s.y.oX|.|.|.|.;X0X",
"0X`.r.|.|.|.|.(.!.|.).~.|.|.d.X.O.E.} +.9X0X3XW l.j d d b G.P.P.L.C.h.3X0X0X0X0X0X0X0X0X%.' Y.@...d.).|.^.(.|.!.!.|.|.|.|.Q.Y.0X",
"0X1X}.|.|.|.|.|.|.|.|.~.f.~.|.t.` w.[.`.I.3Xj.C.Z.r M.N.y j G.P.P.L.C.j.3X0X0X0X0X0X0XR.E.[.I.{ 9.).^.d.~.).|.|.|.|.|.|.|.oX=X0X",
"0X0X,X|.|.|.(.^.|.|.|.^.3.;.f.a.=.#.9X6X:X7XV.j n B.3Xk.x.x.b b G.P.L.C.j.3X0X0X0X0X0X*X6X0X*...i.f.:.2.~.|.|.|.(.^.|.|.|.;X0X0X",
"0X0X}.t.|.|.).~.^.|.|.).d.;. .} [ ` Y.9X0X0X8XB.D.3Xk.c.J.J.n.c.J.P.P.L.C.j.3X0X0X0X0X0X0XE.{ `  . .;.a.).|.|.(.~.(.|.|.Q.R.0X0X",
"0X0X>X{.|.|.|.^.p.^.|.|.(.2.{ ].I.) +.9X0X0X0X0X0X%Xe b H.P.P.P.P.P.P.P.H.i $X0X0X0X0X0X0X*.) w.`.$.;.~.|.|.(.p.~.|.|.|.{.=X0X0X",
"0X0X0X}.s.|.|.).f.p.^.|.|.d.<.E.6X`.E.E.9X0X0X0X4Xk.l.c.G.Q H.P.P.P.P.P.L.c.j.3X0X0X0X0X`.R.`.1X'.,.a.).|.(.p.d.(.|.|.Q./.0X0X0X",
"0X0X0X>X{.|.|.|.^.5.p.f.~.(.2.#.0X0X6X[.0X0X0X0X%Xg G.P.J.m.J.P.P.P.P.P.P.J.p $X0X0X0X0XXX1X0X0Xw.;.~.^.f.p.i.~.|.|.|.{.*X0X0X0X",
"0X0X0X0X.Xs.|.|.).f.5.6.:.~.d.<.E.9X0X0X0X0X0X0X%Xe b E H.P.P.J.R E G.P.P.L.i $X0X0X0X0X0X0X0X'.1.a.~.4.2.i.d.(.|.|.Q.{.0X0X0X0X",
"0X5X5X0X>X_.|.|.|.).f.2.' <.~.q.+.0X0X0X0X0X0X0X%Xt E ! H.P.P.K.z.R R G.P.L.i @X0X0X0X0X0X0X0X8.,.f.4.' ;.d.(.|.|.|._.*X0X6X5X0X",
"0X6X,X5X0XXXs.|.|.|.^.6. ._ ;.1.<.E.0X0X0X0X0X0X%Xw R J.P.P.P.P.P.L.l.R G.L.i $X0X0X0X0X0X0X}.,.<.:.' } 3.~.|.|.|.Q.{.0X6X,X5X0X",
"0X0X,XOX5X=X/.|.|.|.).d.2.{ Y.e. .+.0X0X0X0X0X0X%Xw E H.P.P.P.K.x.F.L.x.G.P.z.k.4X0X0X0X0X0X8.[ w.Y.+.;.d.).|.|.|._.*X6XOX;X0X0X",
"0X0X6XOXOX5X*Xs.|.|.|.).a.<.].5XU.U.`.0X0X0X4XN.k.q E ! H.P.P.K.! E R Q G.P.P.i @X0X0X0X0X[.U.U.>XXX,.u.(.|.|.|.Q.}.6XOXoX5X0X0X",
"0X0X0XOXQ.OX.X!.|.).(.|.(.2.$.0X0X5X`.0X0X4Xb.G 7 8 6 q G.P.P.P.K.! b E G.P.L.i @X0X0X0X0X].>X0X0Xw.;.~.|.(.).|./.}.-X!.{.0X0X0X",
"0X0X0X*X/.|.oX;X|.).~.^.).a.<.[.0X0X0X0X8Xb.8 G G H U G ! J.P.P.P.P.P.P.P.P.x.q @X0X0X0X0X0X0X0XXX,.u.(.(.~.(.|.OX-X|./..X0X0X0X",
"0X0X0X0X5XOX|.|.|.|.^.p.^.).a.:.'.0X0X0X%X, G b b b H I G Q x.J.P.P.P.P.'.m.f - @X0X0X0X0X0X0X*X,.u.(.(.d.~.|.|.|.|.oX5X0X0X0X0X",
"0X0X0X0X0X=XQ.|.|.|.).d.p.^.f.2.+.0X0X0X$Xq E K.J.Q , G G 6 , E l.l.l.l.! w H < @X+XM.M.M.3X0X8.>.f.^.d.p.(.|.|.|.!.}.0X0X0X0X0X",
"0X0X0X0X0X*XT.|.|.|.|.(.5.5.2.6.$..X9X0X$Xp J.J.R o X X   G 7 6 6 . 2 ; 2 7 G , k.v @ % = v.D.7.2.2.6.5.^.|.|.|.|.!.[.0X0X0X0X0X",
"6X0X0X0X0X0X6XOX|.|.|.).d.6.X.>.;.-.XX4XM.E G.Q o X X X X ; ( ( U 1 8 , P ( 3 p , C % B F = Y :.>.X.3.p.(.|.|.|.oX5X0X0X0X0X0X9X",
",X=X>X6X6X0X0X;X!.|.|.|.(.d.6.] ' X.{ S.w ! v.c % @ % O X ; I H H f d j H I 1 Z.E N # B F = ~ ] ] 2.p.(.|.|.|./.OX0X0X9X6X5X*X,X",
"5XQ.W.,X;X=X>X*Xy.|.|.).(.).d.2.` *.8./ + = x S A & C $ p d J f b G.P.L.W J , R F.E + B F = ~ { >.p.(.).).|.|.Q.'.1X=X,X;X{.y.,X",
"0XOX!.-X;Xs.w.;XOX!.|.).f.(.^.a.<.*X8XN.* S D F A x M $ l.l.w k.C.n.C.n.c.q g h z.n.w x B v S.7.6.~.(.f.(.|.(.}.=XT.r.-X;X(.}.0X",
"0X'.s.|.|.|.s.0.Q.9.|.|.(.p.p.~.3.@.@X; a B C D F A O X X X X X & % % % % + N.+Xh.h h h h $X8.;.~.d.p.(.|.|.r.r.s.r.|.|.|.!.E.0X",
"0X0X5XoX|.|.|.|.|.|.|.|.|.).p.5.;.{ S.< H + + V B m s o r , g h m F F F C s h h M.8X0X0X0X>X#...6.p.(.|.|.|.|.|.|.|.|.|.oX,X0X0X",
"0X0X0X5XoX|.|.).).|.|.|.|.|.).u.' ` o.3 P : 4 . o h N.h.@Xh.B.%Xn m V V s B.3X8Xj.B.8X0X1Xe.` ' 6.(.|.|.|.|.|.).).|.|. X,X0X0X0X",
"0X0X0X0X;X/.|.^.f.(.).|.|.|.|.).u.#.V.8 H 3 5 X e +Xg %X8X%Xg $X3Xl r 0 #Xh.M.3X8Xh.V.8XI.`.,.4.(.|.|.|.|.).(.~.^.|./.OX0X0X0X0X",
"0X0X0X0X.X7./.|.(.p.d.).(.).|.|.).o.2 H - 4     g M.h.%X8X%Xr $X8X8X3Xg @X4Xg #X8X8Xg +X1X,.4.(.|.|.).(.(.f.p.^.|._.0.E.0X0X0X0X",
"0X0X0X0X0X[.r.|.|.(.p.5.6.p.(.(.).S.6 H - 4   w +Xg %X8X8X%Xg $X8X8X3Xh.$X4Xh.$X8X$Xr A.,.4.(.).(.(.f.5.5.p.^.|.|.s.E.0X0X0X0X0X",
"0X0X0X0X0X0X<X X|.|.(.6...3.3.5.d.&.< P - K   0 +Xg %X8X8X%Xg $X4X$X@X+X4X8X4X8X$Xr X Y 3.~.(.d.5.3.3...2.^.|.|. X,X0X0X0X0X0X0X",
"0X0X0X0X0X0X0X5XoX|.|.(.3.' _ ] 2.o.< P - 4   e M.l 3X8X4X+Xr $X+Xe o 0 M.@X@X#Xr X > o.3.3.3.3. .) ' 2.^.|.|. X<X0X0X0X0X0X0X0X",
"0X0X0X0X0X0X0X0X,X/.|.|.(.3.] _ ) T < H - 4 - X e B.@X@XB.0 0 N.e X X X O o o o X e ~ O.@.{ ) ) _ ' :.^.|.|._.-X0X0X0X0X0X0X0X0X",
"0X0X0X0X0X6X5X0XXX7.(.|.|.~.a.4.' T 5 H : K 4   X o o o o X X o . - - X X X X X X +X9X9X>X*.` _ 3.a.~.|.|.(.8.`.0X6X6X0X0X0X0X0X",
"0X0X0X0X0X.XR.9X6XE.9.).(.f.).(.5.T 6 H - 4 5 q X X X X X o e t 5 4 5 - X # # # O @X0X0XI.E.,.3.^.(.f.^.).r.Y.5X9X`.E.0X0X0X0X0X",
"0X0X0X0X0X9X<X,X.XI.OX~.).^.f.).(.o.9 H , t k +Xo X X X X 0 $X%Xh t e o # C D S = B.8X0X1X%.2.!.).~.~.(.^.oXR.`.,X,X9X0X0X0X0X0X",
"0X0X0X0X0X0X0X<XOX*X;XOXf.f.^.f./.r.T 2 t 3X4X#X* # # @ X 0 3X0X8X4X3Xh M Z F F D c +X2X*.` q._.f.~.~.f.OX;X-X-X,X0X0X0X0X0X0X0X",
"0X0X0X0X0X0X0X0XXXU.5X;X,X).f.^.u...=.^ k 2X3Xs Z S S Z @ g 3X0X0X0X0X3Xn u V A A Z * ~ O.:...4.^.f.(.;X;X<XE.`.0X0X0X0X0X0X0X0X",
"0X0X0X0X0X0X0X0X9X9X0X5X-X;X).d.~.4.,.:X2Xw.&X* S F F A u $X0X0X0X0X0X0X8X3Xz u u u r D.=X8.1.f.f.(.OX;X<X0X9X9X0X0X0X0X0X0X0X0X",
"0X0X0X0X0X0X0X0X0X0X0X0X*XI.<X/.,._..Xw.1X6X$X* Z A A C u 3X0X0X0X0X0X0X0X0X4X3X3X4X3X7Xe.}.{.7.Q.,XR..X0X0X0X0X0X0X0X0X0X0X0X0X",
"0X0X0X0X0X0X0X0X0X0X0X0X0X5X0X6X*X7.-X*Xe.9X%Xr u u u u g 3X0X0X0X0X0X0X0X0X0X0X0X0X0XI.XX;X0.'.6X0X6X9X0X0X0X0X0X0X0X0X0X0X0X0X",
"0X0X0X0X0X0X0X0X0X0X0X0X0X0X0X0X9X5X9X0X6X0X0X3X3X3X3X3X3X0X0X0X0X0X0X0X0X0X0X0X0X0X0X6X9X9X5X9X0X0X0X0X0X0X0X0X0X0X0X0X0X0X0X0X",
"qXqXqXqXqXqXqXqXqXqXqXqXqXqXqXqXqXqXqXqXqXqXqXqXqXqXqXqXqXqXqXqXqXqXqXqXqXqXqXqXqXqXqXqXqXqXqXqXqXqXqXqXqXqXqXqXqXqXqXqXqXqXqXqX"
};
