/* XPM */
static char *result[] = {
/* columns rows colors chars-per-pixel */
"64 64 216 2 ",
"   c #372D3B",
".  c #343334",
"X  c #3B353D",
"o  c #3A3A3A",
"O  c #3E3B30",
"+  c #423D2F",
"@  c #423C3D",
"#  c #453D34",
"$  c #48443A",
"%  c #544B2C",
"&  c #65582A",
"*  c #645931",
"=  c #645536",
"-  c #674F37",
";  c #746328",
":  c #3E2749",
">  c #3D2948",
",  c #433848",
"<  c #4A3554",
"1  c #4D3459",
"2  c #4A3852",
"3  c #50395B",
"4  c #432652",
"5  c #4E116C",
"6  c #520B75",
"7  c #51116F",
"8  c #563764",
"9  c #4D4C4C",
"0  c #484347",
"q  c #564B4C",
"w  c #5A5645",
"e  c #594B55",
"r  c #535353",
"t  c #5C5C5C",
"y  c #5A5354",
"u  c #625C49",
"i  c #64545C",
"p  c #65585E",
"a  c #655A59",
"s  c #60485F",
"d  c #786D4A",
"f  c #736B52",
"g  c #5B4964",
"h  c #654966",
"j  c #735B68",
"k  c #6A526E",
"l  c #626262",
"z  c #6C6C6C",
"x  c #6A6468",
"c  c #767576",
"v  c #7F6471",
"b  c #826B28",
"n  c #827751",
"m  c #876A78",
"M  c #866971",
"N  c #BB9514",
"B  c #B48F13",
"V  c #C79E0E",
"C  c #C39C15",
"Z  c #CFA30D",
"A  c #D6A90B",
"S  c #DBAC09",
"D  c #D4A70A",
"F  c #CCA211",
"G  c #EDB904",
"H  c #E6B406",
"J  c #F4BE03",
"K  c #E0AF08",
"L  c #FDC400",
"P  c #F7C002",
"I  c #793599",
"U  c #6F338D",
"Y  c #7E34A2",
"T  c #580382",
"R  c #8034A6",
"E  c #8433AD",
"W  c #8B33B7",
"Q  c #BD2DAC",
"!  c #937382",
"~  c #9A7687",
"^  c #9D7B8B",
"/  c #A17C8D",
"(  c #A57F91",
")  c #B655B7",
"_  c #BE61BE",
"`  c #9533C6",
"'  c #EB1BD1",
"]  c #EC23D4",
"[  c #ED2CD6",
"{  c #EE27D9",
"}  c #EF2ADA",
"|  c #F02FDE",
" . c #ED34D6",
".. c #ED3AD7",
"X. c #EE33D9",
"o. c #EF3BDB",
"O. c #F03DDD",
"+. c #F033DE",
"@. c #F234E1",
"#. c #F23CE3",
"$. c #F53FE9",
"%. c #CA58CA",
"&. c #EE4BDB",
"*. c #F143DE",
"=. c #F148DF",
"-. c #EF51DC",
";. c #F059DD",
":. c #CA69CA",
">. c #CB76CA",
",. c #D67ED6",
"<. c #F345E4",
"1. c #F24CE2",
"2. c #F543E9",
"3. c #F54BEA",
"4. c #F353E4",
"5. c #F45CE6",
"6. c #F653EA",
"7. c #F65AEA",
"8. c #F851EE",
"9. c #F26DE2",
"0. c #F664EA",
"q. c #F66BEB",
"w. c #F666EB",
"e. c #F373E4",
"r. c #F37BE4",
"t. c #F673EB",
"y. c #F875EF",
"u. c #F77AEB",
"i. c #FA6CF3",
"p. c #FF65FE",
"a. c #FF6CFF",
"s. c #FA74F3",
"d. c #FA7CF4",
"f. c #FE74FE",
"g. c #FE7AFE",
"h. c #F160DF",
"j. c #888888",
"k. c #958F92",
"l. c #9C9B9C",
"z. c #979496",
"x. c #AB8295",
"c. c #A58192",
"v. c #B88A9E",
"b. c #A19B9E",
"n. c #BC8CA2",
"m. c #A49FA1",
"M. c #A5A1A3",
"N. c #AAA7A8",
"B. c #B4ACB5",
"V. c #B4B4B4",
"C. c #BAB9BA",
"Z. c #BBB9B8",
"A. c #B5B3AB",
"S. c #C693AB",
"D. c #CE98B1",
"F. c #D19AB4",
"G. c #D99FBA",
"H. c #C18FA7",
"J. c #DCA1BD",
"K. c #D1B6D1",
"L. c #CEBCCE",
"P. c #EEADCB",
"I. c #E7A8C5",
"U. c #F1AFCE",
"Y. c #F3B0CF",
"T. c #F5B1D1",
"R. c #F9B4D4",
"E. c #FFB8D9",
"W. c #F685EA",
"Q. c #F58DEA",
"!. c #F586E9",
"~. c #F693EA",
"^. c #F69BEC",
"/. c #F899EF",
"(. c #FA83F4",
"). c #FA8BF5",
"_. c #FE84FD",
"`. c #FE8CFE",
"'. c #F686F6",
"]. c #F993F2",
"[. c #F99CF2",
"{. c #FE93FD",
"}. c #FE9BFD",
"|. c #F7A4ED",
" X c #F7AAEE",
".X c #F8AFEF",
"XX c #F8A0EF",
"oX c #F9A5F3",
"OX c #FEA5FE",
"+X c #FEABFE",
"@X c #FAABF4",
"#X c #FEB3FD",
"$X c #FEBBFD",
"%X c #F8B5F1",
"&X c #C4C4C4",
"*X c #CCCCCC",
"=X c #CAC9C8",
"-X c #D4D3D4",
";X c #DBDBDB",
":X c #D7CDD4",
">X c #FFC3FE",
",X c #FFCCFF",
"<X c #FBC5F5",
"1X c #FBD3F7",
"2X c #FED4FD",
"3X c #FEDCFC",
"4X c #F8D9F5",
"5X c #E5E5E5",
"6X c #EDECED",
"7X c #FFE4FE",
"8X c #FEECFD",
"9X c #F6EAF6",
"0X c #F2F2F2",
"qX c #FEF4FE",
"wX c #FFFFFF",
"eX c None",
/* pixels */
"eXeXeXeXeXeXeXeXeXeXeXeXeXeXeXeXeXeXeXeXeXeXeXeXeXeXeXeXeXeXeXeXeXeXeXeXeXeXeXeXeXeXeXeXeXeXeXeXeXeXeXeXeXeXeXeXeXeXeXeXeXeXeXeX",
"eXeXeXeXeXeXeXeXeXeXeXeXeXeXeXeXeXeXeXeXeXeXeXeXeXeXeXeXeXeXeXeXeXeXeXeXeXeXeXeXeXeXeXeXeXeXeXeXeXeXeXeXeXeXeXeXeXeXeXeXeXeXeXeX",
"eXeXeXeXeXeXeXeXeXeXeXeXeXeXeXeXeXeXeXeXeXeXeXeXeXeXeXeXeXeXeXeXeXeXeXeXeXeXeXeXeXeXeXeXeXeXeXeXeXeXeXeXeXeXeXeXeXeXeXeXeXeXeXeX",
"eXeXeXeXeXeXeXeXeXeXeXeXeXeXeXeXeXeXeXeXeXeXeXeXeXeXeXeXeXeXeXeXeXeXeXeXeXeXeXeXeXeXeXeXeXeXeXeXeXeXeXeXeXeXeXeXeXeXeXeXeXeXeXeX",
"wXwXwXwXwXwXwXwXwXwXwXwXwXwXwXwXwXwXwXwXqXwXwXwXwXwXwXwXwXwXwXwXwXwXwXwXwXwXwXwXwXwXwXqXwXwXwXwXwXwXwXwXwXwXwXwXwXwXwXwXwXwXwXwX",
"wXwXwXwXwXwXwXwXwXwXwXwX,X+XwXwXwXwXwX7XOXqXwXwXwXwXqXwXwXwXwXqXqXwXwXwXwXwXwXwXwXwXwX}.3XwXwXwXwXwX+X,XwXwXwXwXwXwXwXwXwXwXwXwX",
"wXwXwXwXwXwXwXwXwXwXwXwX%X9.wXwXwXwXwX<X;.qXwXwXwX7X}.qXwXwX7Xh.;.7XwXwXwX}.7XwXwXwXqX5.<XwXwXwXwXwXe..XwXwXwXwXwXwXwXwXwXwXwXwX",
"wXwXwXwXwXwXwXwXwXwXwXwX.X#.OXwXwXwX7Xi.X.}.qXwXwX3X5.8XwX8X(.] ] d.8XwX8X5.1XwXwXwX}.X.i.3XwXwXwX+X#. XwXwXwXwXwXwXwXwXwXwXwXwX",
"wXwXwXwXwXwXwXwXwXwXwXwX.X] 9.wXwXwX<X} ] 4.qXwXwX1XO.).qX3X*.' ' o.3XqX{.o.1XwXwXqX4.] ] <XwXwXwXt.'  XwXwXwXwXwXwXwXwXwXwXwXwX",
"wXwXwXwXwX>X$XwXwX%X~.wX.X' O.OXwX3Xi.' ' X.}.qX7Xd.{ 1.3X(.] ' ' [ d.3X1.} s.8XwX}.X.' ' i.3XwX+XO.' .XwX~.%XwXwX$X>XwXwXwXwXwX",
"wXwXwXwXwX/.Q.wXwX|.<.#X.X' ' 2.+X<X} ' ' ] 4.qX3XX.' [ i.+.[ y.d.} +.s.[ ' @.1XqX5.' ' ' { <X+X<.] '  X#X<.^.wXwX~.~.wXwXwXwXwX",
"wXwXwXwXwX~.3.$XwX#X2.3.w.' ' ] <.i.' X.w.' [ 5.s.] ' ' } ' [ {.{.[ ' { ' ' ] s.5.[ ' w.X.' i.3.' ' ' 7.6.2.#XwX>X3.Q.wXwXwXwXwX",
"wXwXwXwXwX~.] Q.wX8XQ.] { ' ' ' ' } ' o.}.w.' ] } ' ' ' ' [ t.g.f.t.[ ' ' ' ' } ' ' w.}.o.' { ' ' ' ' { ] !.8XwXQ.{ Q.wXwXwXwXwX",
"wXwXwXwXwXOX@...|.wX|.' ' ' ' ' ' ' ' o.{.d.q.' ' [ 0.] ' [ `.p.a.).[ ' ] 0.[ ' ' q.g.}.O.' ' ' ' ' ' ' ' |.wX|.o.@.oXwXwXwXwXwX",
"wXwXwXwXwX#X$.' ..|.$X@.' ' ' ' ' ' ' o.{.a.f.w.]  .{.q.X.i._.$X>X_.i. .q.].X.' q.g.p.{.O.' ' ' ' ' ' ' #.#X|...' $.+XwXwXwXwXwX",
"wXwXwXwXwX7Xu.' ' ..Q.(.' ' ' X.5.' ' o.{.g.#Xg.0...{.g.s.f.g.8X8Xg.g.s.g.{.o.w.d.#Xg.{.O.' ' 5.o.' ' ' (.Q...' ' u.7XwXwXwXwXwX",
"wXwXwXwXwXwX~.' ' ' ..&.' ' ' *.}.5.' o.{._.qX$Xg.s._.#Xg.f.>XwXwX>Xf.g.#X`.s.g.#X8X`.{.o.' 5.{.<.' ' ' &...' ' ' ~.wXwXwXwXwXwX",
">X2XwXwXwXwX@X+.' ' ' ' ' ' ' *.{.d.5.o.{._.qXqX$Xg.g.8X#X_.8XwXwX8Xg.$X7Xg.g.#XqXwX_.{.O.5.g.}.*.' ' ' ' ' ' ' @.oXwXwXwXwX2X>X",
").s.2XwXwXwX7Xu.' ' o.1.' ' ' *.{.p.f.d.{._.wXwXqX#X_.8XqX2XqXwXwXqX,XqXqX_.#XqXwXwX_.{.u.g.p.`.*.' ' ' 1.o.' ' t.7XwXwXwX2Xs.W.",
"r.[ oXwXwXwXwX~.' ' X.5.1.' ' [ 7.p.p._.{._.qXwXwXqX,XwXwXwXwXwXwXwXwXwXwX,XqXwXwXwX_.{.`.p.p.6.[ ' ' 1.5.X.' ' ~.wXwXwXwXoX| r.",
"r.' &.<XwX2X,X@X| ' ' [ 7.4.' ' O.g.g.+Xg._.wXwXwXwXwXwXwXwXwXwXwXwXwXwXwXwXwXwXwXwX_.g.+Xg.g.O.' ' 4.5. .' ' +.oX2X2XwX<X-.' e.",
"].} ' &.].#X[.[.u.' ' ' 1.).-.' *.{._.8XOX_.qXwXwXwX6Xz.k.k.l.0XwXwXwXwXwXwXwXwXwXqX_.}.8X`.{.<.' 1.).4.' ' ' q.[.[.+X].-.' [ ).",
"2X5.' ' } 0.Q.Q.;.' ' '  .y._.3.0.7._.wX8X>XwXwX6Xz.k.^ ^ ^ ^ k.l.0XwXwXwXwXwXwXwXwX>X8XwX_.5.0.3.(.y.X.' ' ' ;.Q.Q.0.} ' ' 5.2X",
"wX!.' ' ' ' &.w.| ' ' ' ' <.`.a.a.8.`.>XwXwXwX6Xl.~ x.T.E.E.U.( ^ m.6XwXwXwXwXwXwXwXwXwX>X`.8.a.a.`.1.' ' ' ' } 0.-.' ' ' ' r.wX",
"wX~.} ' ' ' ' } | ' X.*.' X.i.g.g.OXg._.wXwX5Xb.~ ~ ~ ~ ( T.E.E.Y.c.b.6XwXwXwXwXwXwXwXwX_.g.OXg.g.i.X.' *.o.' } [ ' ' ' ' } ).wX",
"wX,X5.' ' ' ' ' ' ' X.0.5.<. .w.g.+X+X+X>X6Xb.x.F.9 j.j.9 ( T.E.E.Y.c.M.6XwXwXwXwXwXwX>X+X+X+Xg.w.X.<.5.0.o.' ' ' ' ' ' ' 5.,XwX",
"wXwX!.' ' ' o.O.' ' ' 1.}.s.5.w.g._.wX8X$X5Xz.^ / M.5XN.! m / x.Y.E.T.c.M.6XwXwXwXwXwX$X8XwX`.g.w.5.s.}.1.' ' ' o.o.' ' ' r.wXwX",
"wXwX~.} ' ' O.5.o.' ' o.i._._._.g.g.,XwXwXwX5Xk.M.5XN./ T.P.~ ~ P.E.E.T./ N.6XwXwXwXwXwXwX,Xg.g.`._.g.s.o.' ' o.0.O.' ' | ~.wXwX",
"wXwX,X5.' ' ' 5.(.O.' ' =.{.f.OX`.p._.wXwXwXwXwXwX;Xr x.R.E.E.E.E.E.E.E.U.p -XwXwXwXwXwXwX`.p.`.OXg.`.1.' ' o.(.5.' ' ' 5.,XwXwX",
"wXwXwX].} ' ' O.(.(.o.' X.s.{.2X7X}.+X,XwXwXwXwX6XN.m ~ I.H.T.E.E.E.E.E.T.^ N.0XwXwXwXwX,XOX}.7X2X`.s.O.' o.(.(.O.' ' { ].wXwXwX",
"wXwXwX,X5.' ' ' 5.OX(.4.O.=.{.`.wXwX7X#XwXwXwXwX;Xi P.E.P.^ P.E.E.E.E.E.E.U.i -XwXwXwXwX#X7XwXwX{.`.<.o.4.(.OX5.' ' ' 5.,XwXwXwX",
"wXwXwXwX[.{ ' ' *.(.+X}.s.5.s.{.2XwXwXwXwXwXwXwX;Xe x.n.R.E.E.T.H.n.Y.E.E.U.p ;XwXwXwXwXwXwXwX3X{.s.5.s.}.OX(.*.' ' ] ].wXwXwXwX",
"wX1X4XwX,X5.' ' ' O.).`.f.s.5.s.`.wXwXwXwXwXwXwX;X9 j m U.E.E.P.m M n.T.E.U.p ;XwXwXwXwXwXwXwX`.i.5.s.f.`.).*.' ' ' 5.>XwX4X1XwX",
"wX XQ.4XwX[.{ ' ' ' 4.{.a.a.s.2.`.3XwXwXwXwXwXwX;Xy n.R.E.E.E.E.E.P.m v.T.U.i -XwXwXwXwXwXwX3X`.3.i.f.a.{.-.' ' ' { /.wX3X~.|.wX",
"wXwX!.9.3X>X5.' ' ' O.).`.f.{.`._.`.wXwXwXwXwXwX;X0 M U.E.E.E.T.F.T.U.! I.T.! V.0XwXwXwXwXwX`._.{.`.a.`.).*.' ' ' 6.>X4X9.!.wXwX",
"wXwX X..9.3X[.{ ' ' ' #.d.{.3X3X`.}.3XwXwXwX0X=XN.e v.F.R.E.E.P.m n.S.S.T.E.Y.i -XwXwXwXwX3XOX`.3X7X{.d.*.' ' ' { ~.7X9...|.wXwX",
"wXwXwX~.] 9.oX6.' [ [ ' <.{.{.wXwX7XOXwXwX0XB.8 1 1 1 e P..XR.E.P.v p j I.E.U.i -XwXwXwXwX+X3XwXwX{.`.1.' X.[ ' 5.oXe.] Q.wXwXwX",
"wXwXwX>X6.' 9.r.' *.w.X.<.d.{.7XwXwXwXwX0XB.8 Y Y E W h S.R.R.E.E.E.E.E.E.R.D.y -XwXwXwXwXwXwXwX7X{.d.O. .w.*.' e.9.' 3.$XwXwXwX",
"wXwXwXwX|...' ' ' ' 6.u.[ O.d.{.7XwXwXwX-X2 I i s h Y W k H.G.R.E.E.E.E.E.D.h , -XwXwXwXwXwXwX7X{.d.*. .d.4.' ' ' '  .|.wXwXwXwX",
"wXwXwXwXwX~.] ' ' ' *.{.d.O.0.{.`.wXwXwX*X0 v T.U.n.< Y I 1 0 n.F.F.F.F.H.e Y 3 -X;X-X*X-X0XwX{.{.7.o.d.{.*.' ' ' ] ~.wXwXwXwXwX",
"wXwXwXwXwX>X3.' ' ' ' 4.OX}.}.{.`.7XwXwX-Xi T.T.v.o . . > U 1 3 < > 2 o 1 1 I 2 N.d $ % & A.4X{.{.}.}.OX4.' ' ' ' 6.$XwXwXwXwXwX",
"8XwXwXwXwXwX X .' ' ' o.{.{.g.{.`.{.7XqXV.M P.n.o . . . . , W ` W < U 2 E W < 9 0 F & F P ; _ `.{._.{.{.*.' ' '  .|.wXwXwXwXwX8X",
"^.1XqX7X8XwXqX^.] ' ' ' *.{.{.a.a.`._.K.i D.v.* % O % . . > W W R s e s Y W 3 S.v B % D L & >.a.a.{.{.&.' ' ' ] ~.wXwX8X7XqX4X^.",
"~.5.[.~.~.3X8X,X6.' ' ]  .*.].`.a._.g.>.# * b G Z & C + r s I p j J.Y.I.v I 2 n.I.M # Z L & :.a.`.{.<.[ ] ' ' 3.>X8X3X~.Q.[.5.~.",
"qX!.[ r.e.*.}.3X!.] ' <.q.X.4._.`.3X9XA.& G J L K ; B = n.v.r n.D.G.I.F.H.e r l H.D.q B S d K.`._.5.X.w.*.' ] W.2X[.*.e.r.[ u.qX",
"wX#X<.' ' ' <.<.#.$.' ' *.).d.5.{.`.-X, - Z K L L Z % . @ > o @ = = = = = 0 A.=Xc a t a u =X`.{.5.u.).<.' ' #.#.3.<.' ] ] <.#XwX",
"wXqX~.[ ' ' ' ' ' ' ' ' ] &.].}.`._.K.< I $ - A S C w o 9 o 9 u C G G G V u l x C.5X6X6X0X9X_.`.}.{.1.] ' ' ' ' ' ' ' ' [ Q.qXwX",
"wXwXqX~.[ ' ' ] ] ' ' ' ' ' =._.a.a.>.< R 4 5 # % z N.z &Xz C.*Xn F K A d A.;X;Xj.&X0XwXqX}.a.a.'.&.' ' ' ' ' [ ] ' ' [ Q.qXwXwX",
"wXwXwXqX!.] ' =.5. .[ ' ' ' ] <._.'.B.8 I 4 5 . r C.z -X0X*Xz ;X-Xf w w C.c &X5X;Xj.=X0XOX>X_._.<.' ' ' ' ]  .5.<.' ] !.8XwXwXwX",
"wXwXwXwX#X3.' ] 1.).q.[ [ ] ' ' <.>.g Y : 6 > . l V.z 5X0X-Xl ;X0X5X*Xt -X-Xz -X0X;Xz -X7X{.(.=.] ' [ [ [ q.).4.] ] <.#XwXwXwXwX",
"wXwXwXwXqX#X*.' ] 5.{.].`.t.[ [ [ Q 1 Y : 6 . r V.z -X0X0X-Xl ;X0X0X;Xc -X6Xc -X0X;Xl *X{.`.<.[ [ [ t.).].{.4.] ' <.+XqXwXwXwXwX",
"wXwXwXwXwXqX~.[ ' ] 4._._.}.).{.i.Q 1 Y : 6   r &Xl 5X0X0X-Xl ;X0X;X;X=X6X0X;X6X;Xx > :.{.4.X.y.{.).{._.`.4.] ' [ ~.qXwXwXwXwXwX",
"wXwXwXwXwXwX8X~.[ ' ] 4._.a.a.g.}.>.< Y : 7 . r V.z 5X0X6X=Xl -X-Xl 9 t &X;X;X-Xz o , F.}.).`.{.g.a.a._.4.] ' [ Q.8XwXwXwXwXwXwX",
"wXwXwXwXwXwXwXqXQ.' ' ] 1._.p.p.p.%.1 Y : 7 > o l &X;X;X=Xt 9 V.t o . . 9 9 r r o 0 _ a.g.a.a.a.p.p._.4.] ' ' Q.qXwXwXwXwXwXwXwX",
"wXwXwXwXwXwXqXwX$X<.' ' ] 5.{._.p.%.1 Y : T 5 . o 9 r r 9 . o 9     . . . . . . o C.4X7X3X`.p.p._.`.5.] ' ' 2.$XwXqXwXwXwXwXwXwX",
"wXwXwXwXwX>X#XqX8X+X3.] o.q.o.1._.%.1 Y > T 7 @ . . . . . . @ 0 5 6 5   . O + + o -XwXwXOX>X_._.1.o.q.*.] <.OX8XqX$X>XwXwXwXwXwX",
"wXwXwXwXwXqX|.~.>XOX#Xq.[ 4.0.[ -.>.8 I > , k V.o . . . . 9 =X*Xg , 2 . $ N S D * =XwXwX7X{.`.1.[ 0.5.[ 0.$XOX>X^.^.qXwXwXwXwXwX",
"wXwXwXwXwXwX8X^.Q.|.Q.<X).q.-.q.] *.) < t -X;X-X$ + O O . 9 6X0X;X;X*Xu N G L L S n -XqX{.a.<.] 0.4.q.).<XQ.^.Q.~.8XwXwXwXwXwXwX",
"wXwXwXwXwXwXwX8X#XOX|.!.@X4.q.4.s.p.'.) z qX;Xf Z A A N + y 5XwXwXwXwX*Xf ; S J J Z d ,.f.`.a.s.-.q.5.|.Q.^.OX#X9XwXwXwXwXwXwXwX",
"wXwXwXwXwXwXwXwX8X8X8X|.r.^.5.q.4.).`.4X:X}.:X* P L L K w *XwXwXwXwXwXwX;X*Xd * * * $ K.1X`.`.4.q.4.~.!.^.8X8XqXwXwXwXwXwXwXwXwX",
"wXwXwXwXwXwXwXwXwXwXwX8X#X}.|.<.8.0.>XOX8X7X;X* G P P S u 6XwXwXwXwXwXwXwXwX;X-X-X-X-X9XOX>Xq.3.3.^.OX%X8XwXwXwXwXwXwXwXwXwXwXwX",
"wXwXwXwXwXwXwXwXwXwXwXwXqX8X8X1X$X6.e.>XOXwX-X$ & & & * r 6XwXwXwXwXwXwXwXwXwXwXwXwXwXOX>Xe.6.#X1X8X7X8XwXwXwXwXwXwXwXwXwXwXwXwX",
"wXwXwXwXwXwXwXwXwXwXwXwXwXwXwXwXqX2X1XqX7XwX0X-X-X-X*X*X-XwXwXwXwXwXwXwXwXwXwXwXwXwXwX7XqX4X2XqXwXwXwXwXwXwXwXwXwXwXwXwXwXwXwXwX",
"eXeXeXeXeXeXeXeXeXeXeXeXeXeXeXeXeXeXeXeXeXeXeXeXeXeXeXeXeXeXeXeXeXeXeXeXeXeXeXeXeXeXeXeXeXeXeXeXeXeXeXeXeXeXeXeXeXeXeXeXeXeXeXeX"
};
