/* XPM */
static char *result[] = {
/* columns rows colors chars-per-pixel */
"64 64 215 2 ",
"   c #191616",
".  c #281D1D",
"X  c #252423",
"o  c #2A2A29",
"O  c #2A2727",
"+  c #342B27",
"@  c #322F2E",
"#  c #3B2A26",
"$  c #262B34",
"%  c #282C38",
"&  c #25313A",
"*  c #2B343A",
"=  c #353433",
"-  c #3C3B3B",
";  c #393736",
":  c #352F31",
">  c #511F16",
",  c #671919",
"<  c #5C331F",
"1  c #57311F",
"2  c #4E2615",
"3  c #64341D",
"4  c #6B351C",
"5  c #73371A",
"6  c #7D3918",
"7  c #77381B",
"8  c #442D23",
"9  c #4B2F22",
"0  c #442424",
"q  c #4E3122",
"w  c #43322D",
"e  c #5A3524",
"r  c #473B35",
"t  c #542E29",
"y  c #693A28",
"u  c #45413C",
"i  c #4A443C",
"p  c #4D493F",
"a  c #574A3C",
"s  c #724730",
"d  c #1D2F5D",
"f  c #1F2E54",
"g  c #242C43",
"h  c #272E48",
"j  c #223A4C",
"k  c #2A3947",
"l  c #363D46",
"z  c #213D52",
"x  c #2D325B",
"c  c #1B3066",
"v  c #183277",
"b  c #31366E",
"n  c #433657",
"m  c #1F425C",
"M  c #2D404E",
"N  c #39424A",
"B  c #204057",
"V  c #2D4B5F",
"C  c #384B5B",
"Z  c #38505F",
"A  c #1D4663",
"S  c #1C4A6B",
"D  c #1A4E73",
"F  c #18527B",
"G  c #385468",
"H  c #365B77",
"J  c #294D71",
"K  c #39607E",
"L  c #434344",
"P  c #4E4A42",
"I  c #43464A",
"U  c #45494E",
"Y  c #4B4947",
"T  c #534D44",
"R  c #5A534A",
"E  c #464C55",
"W  c #4A555B",
"Q  c #555352",
"!  c #595858",
"~  c #655C4D",
"^  c #645C52",
"/  c #5E605B",
"(  c #6B6459",
")  c #746A5A",
"_  c #7F725E",
"`  c #495868",
"'  c #585D64",
"]  c #4A5A78",
"[  c #4C6379",
"{  c #546777",
"}  c #666766",
"|  c #746C67",
" . c #6B6D72",
".. c #78746F",
"X. c #8F1515",
"o. c #AC0F0F",
"O. c #B30D0D",
"+. c #843A16",
"@. c #8B3B15",
"#. c #983E15",
"$. c #A13F11",
"%. c #893D22",
"&. c #AC420F",
"*. c #A7400F",
"=. c #B9440C",
"-. c #A44011",
";. c #A94B1E",
":. c #BB4811",
">. c #854626",
",. c #835139",
"<. c #96431C",
"1. c #C3460A",
"2. c #CB4809",
"3. c #D44907",
"4. c #DC4A05",
"5. c #E34C04",
"6. c #EC4E02",
"7. c #F34F00",
"8. c #F75000",
"9. c #F85000",
"0. c #837662",
"q. c #8C7D66",
"w. c #877A68",
"e. c #8A7F72",
"r. c #80725E",
"t. c #96846B",
"y. c #978A75",
"u. c #81817F",
"i. c #A89579",
"p. c #B19B7B",
"a. c #A28F73",
"s. c #153485",
"d. c #13358C",
"f. c #123696",
"g. c #0D38A9",
"h. c #0C3AB3",
"j. c #093BBD",
"k. c #20378C",
"l. c #175683",
"z. c #155A8D",
"x. c #185886",
"c. c #145E93",
"v. c #2D4E87",
"b. c #12619B",
"n. c #136097",
"m. c #256898",
"M. c #32668A",
"N. c #0F6AAC",
"B. c #0F68A7",
"V. c #1165A3",
"C. c #116AA9",
"Z. c #0D6DB3",
"A. c #0C72BC",
"S. c #0D70B7",
"D. c #1373B8",
"F. c #106DB1",
"G. c #226DA3",
"H. c #1341BA",
"J. c #495F9F",
"K. c #436B88",
"L. c #556E88",
"P. c #6977AB",
"I. c #073CC4",
"U. c #093CC4",
"Y. c #033ED6",
"T. c #013FE1",
"R. c #0B75C2",
"E. c #097ACC",
"W. c #0F79C6",
"Q. c #067ED4",
"!. c #087CD0",
"~. c #1078C3",
"^. c #0443E7",
"/. c #2854CD",
"(. c #4F70D3",
"). c #7D86B3",
"_. c #0482DC",
"`. c #0680D7",
"'. c #0486E4",
"]. c #0289EB",
"[. c #008EF4",
"{. c #0090F8",
"}. c #0090F7",
"|. c #798CC8",
" X c #7897EC",
".X c #888787",
"XX c #83859D",
"oX c #AD9D81",
"OX c #BCA583",
"+X c #B8A483",
"@X c #9DA0BF",
"#X c #878AA3",
"$X c #C5AE8A",
"%X c #C2AA87",
"&X c #CEB58E",
"*X c #D1B790",
"=X c #D9BD95",
"-X c #D5BB95",
";X c #D0B68F",
":X c #CCBBAB",
">X c #DEC298",
",X c #DDC197",
"<X c #E2C59A",
"1X c #E6C99D",
"2X c #E9CB9E",
"3X c #EDCEA1",
"4X c #ECD0A6",
"5X c #F3D4A5",
"6X c #F8D8A8",
"7X c #F7D7A8",
"8X c #F7DEBA",
"9X c #D2C5BC",
"0X c #DBDBDA",
"qX c #E9E6E3",
"wX c None",
/* pixels */
"wXwXwXwXwXwXwXwXwXwXwXwXwXwXwXwXwXwXwXwXwXwXwXwXwXwXwXwXwXwXwXwXwXwXwXwXwXwXwXwXwXwXwXwXwXwXwXwXwXwXwXwXwXwXwXwXwXwXwXwXwXwXwXwX",
"wXwXwXwXwXwXwXwXwXwXwXwXwXwXwXwXwXwXwXwXwXwXwXwXwXwXwXwXwXwXwXwXwXwXwXwXwXwXwXwXwXwXwXwXwXwXwXwXwXwXwXwXwXwXwXwXwXwXwXwXwXwXwXwX",
"wXwXwXwXwXwXwXwXwXwXwXwXwXwXwXwXwXwXwXwXwXwXU C wXwXwXwXwXwXwXwXwXwXwXwXwXwXwXwXwXwXwXwXwXwXwXwXwXwXwXwXwXwXwXwXwXwXwXwXwXwXwXwX",
"wXwXwXwXwXwXwXwXwXwXwXwXwXwXwXwXwXwXwXwXwX' - I wXwXwXwXwXwXwXwXwXwXwXwXwXwXwXwXwXwXwXwXwXwXwXwXwXwXwXwXwXwXwXwXwXwXwXwXwXwXwXwX",
"wXwXwXwXwXwXwXwXwXwXwXwXwXwXwXwXwXwXwXwXL.J * N wXwXwXwXwXwX{  . . . . .wXwXwXwXwXwXwXwXwXwXwXwXwXwXwXwXwXwXwXwXwXwXwXwXwXwXwXwX",
"wXwXwXwXwXwXwXwXwXwXwXwXwXwXwXwXwXwXwX` x.Q.B l wXwXwXwXwX` M M M M M = = wXwXwXwXwXwXwXwXwXwXwXwXwXwXwXwXwXwXwXwXwXwXwXwXwXwXwX",
"wXwXwXwXwXwXwXwXwXwXwXwXwXwXwXwXwXwXW G.`._.m C wXwX` U ` G.E.E.W.E.C.l I wXwXwXwXwXwXwXwXwXwXwXwXwXwXwXwXwXwXwXwXwXwXwXwXwXwXwX",
"wXwXwXwXwXwXwXwXwXwXwXwXwXwXwXwXwXwXU N.}.'.B Z wX{ K.c.n.`.{.{.}.R.F * E ! ' } ' wXwXwXwXwXwXwXwXwXwXwXwXwXwXwXwXwXwXwXwXwXwXwX",
"wXwXwXwXwXwXwXwXwXwXwXwXwXwXwXwXwXwXG A.{.'.F ] L.G Z.{.}.}.}.[.`.z.B j z z z z z V wXwXwXwXwXwXwXwXwXwXwXwXwXwXwXwXwXwXwXwXwXwX",
"wXwXwXwXwXwXwXwXwXwXwXwXwXwXwXwXH G E.[.{.[.Q.m.G W.].{.{.}.[._.S n._._._._._._._.~.G U U U I Y Y * wXwXwXwXwXwXwXwXwXwXwXwXwXwX",
"wXwXwXwXwXwXwXwXwXwXwXwXwXwXwXwX` z _.{.{.].c.c.F.].{.{.{.{.W.l.V.!.{.{.{.{.}.}.{.].F.V.B.n.z U W wXwXwXwXwXwXwXwXwXwXwXwXwXwXwX",
"wXwXwXwXwXwXwXwXwXwXwXwXwXwXwXwXE z '.{.{.'.B z.[.}.{.{.{.{.A.l._.{.{.{.{.}.}.}.{.{.{.{.'.D.H wXwXwXwXwXwXwXwXwXwXwXwXwXwXwXwXwX",
"wXwXwXwXwXwXwXwXwXwXwXwXwXwXwXwXwXV !.[.[.!.B x.[.{.{.[.'.'.'.].}.}.{.{.].'.'.'.].{.{.].D.J wXwXwXwXwXwXwXwXwXwXwXwXwXwXwXwXwXwX",
"wXwXwXwXwXwXwXwXwXwXwXwXwXwXwXwXwXH H R.R.A & x.}.{.{.E.D A b.[.}.}.{.].n.A A A B.{.[.V.H wXwXwXwXwXwXwXwXwXwXwXwXwXwXwXwXwXwXwX",
"wXwXwXwXwXwXwXwXwXwXwXwXwXwXwXwXwX[ x.c.c.l.l.z.N.].{.Q.z.F z.N.'.{.{.[.N.l.l.l.c.V.n.B E wXwXwXwXwXwXwXwXwXwXwXwXwXwXwXwXwXwXwX",
"wXwXwXwXwXwXwXwXwXwXwXwXwXwXwXwX{ S D.l.x.'._.n.A R.Q.'.[.[.Z.A A.].{.{.[.[.[.[.V.j j & = ; wXwXwXwXwXwXwXwXwXwXwXwXwXwXwXwXwXwX",
"wXwXwXwXwXwXwXwXwXwXwXwXwXwXwXW m.Z.A V.'.'.F x.A.m j F '.}.].R.S B.}.}.{.{.{.{.].Q.E.D N wXwXwXwXwXwXwXwXwXwXwXwXwXwXwXwXwXwXwX",
"wXwXwXwXwXwXwXwXwXwXwXwXwXwXwXI c.E.z N.{.].Z.c.F & S n.c.`.}.].N.c.b.].{.{.{.{.}.'.n.M.wXwXwXwXwXwXwXwXwXwXwXwXwXwXwXwXwXwXwXwX",
"wXwXwXwXwXwXwXwXwXwXwXwXwXwXwXI c.R.j N.{.{.[.c.= T M.G.W G.`.[.}.x.j Z.R.`.}.{._.N.k G wXwXwXwXwXwXwXwXwXwXwXwXwXwXwXwXwXwXwXwX",
"wXwXwXwXwXwXwXwXwXwXwXwXwXwXwXL c.E.j V.[.{.{.b.p OX..( $X/ x.[.{.z.o j j l._.].V.j * W wXwXwXwXwXwXwXwXwXwXwXwXwXwXwXwXwXwXwXwX",
"wXwXwXwXwXwXwXwXwXwXwXwXwXwXwX- n.E.k B c.[.{.n.i -X;X$X1X~ F [.{.x.j V.Z.b.D S x.Z.F.K.' N wXwXwXwXwXwXwXwXwXwXwXwXwXwXwXwXwXwX",
"wXwXwXwXwXwXwXwXwXwXwXwXwXwXwXM M.z.& T { F.'.n.p ,X6X6X2X~ F ].A.S j n.N.n.F D Z.].A.L.' U wXwXwXwXwXwXwXwXwXwXwXwXwXwXwXwXwXwX",
"wXwXwXwXwXwXwXwXwXwXwXwXwXwXwXwXZ * = i.p.W D.z.i %X,X,X;X~ S A.G = o j j l.'.[.'.A.B [ wXwXwXwXwXwXwXwXwXwXwXwXwXwXwXwXwXwXwXwX",
"wXwXwXwXwXwXwXwXwXwXwXwXwXwXwXwXwXwXY i.2XOX` k @ p T R p @ & Z i.) j Z.E._.[.{.N.z @ L U wXwXwXwXwXwXwXwXwXwXwXwXwXwXwXwXwXwXwX",
"wXwXwXwXwXwXwXwXwXwXwXwXwXwXwXwXwXwXi p.7X3Xi.R ; ..! r _ u p t.1Xq.m `.}.}.].N.A X o ~ _ ! wXwXwXwXwXwXwXwXwXwXwXwXwXwXwXwXwXwX",
"wXwXwXwXwXwXwXwXwXwXwXwXwXwXwXwXwXwXL a.<X5X=Xy.| 0X.X! =X0.t.5X6Xq.m `._.!.R.S j j * a.OXu wXwXwXwXwXwXwXwXwXwXwXwXwXwXwXwXwXwX",
"wXwXwXwXwXwXwXwXwXwXwXwXwXwXwXwXwXwXwX| 0.=X) .X0XqXu.~ <X<X1X5X4Xw.m `.z.j m S.Q.A.l a.OXY wXwXwXwXwXwXwXwXwXwXwXwXwXwXwXwXwXwX",
"wXwXwXwXwXwXwXwXwXwXwXwXwXwXwXwXwXwXwXQ ^ -XJ.|.qX.Xy.OX5X6X6X1Xt.K.S.].R.B.V.l.F K y.-X>Xp.) wXwXwXwXwXwXwXwXwXwXwXwXwXwXwXwXwX",
"wXwXwXwXwXwXwXwXwXwXwXwXwXwXwXwXwXwXwXQ ) :X/. X0X..OX6X6X6X<Xi.H Z.].R.S.S.B.j O - a.+X+Xp.T T wXwXwXwXwXwXwXwXwXwXwXwXwXwXwXwX",
"wXwXwXwXwXwXwXwXwXwXwXwXwXwXwXwXwXwXwX} _ -X(. XqX4X5X6X6X6Xp.W D._.A.l * & & % g % = r i L = r wXwXwXwXwXwXwXwXwXwXwXwXwXwXwXwX",
"wXwXwXwXwXwXwXwXwXwXwXwXwXwXwXwXwXwX( y.*X4X:X0X8X8X6X6X6X6X<Xi.G B I -.e o $ f.h.f.g _ OXp.T i wXwXwXwXwXwXwXwXwXwXwXwXwXwXwXwX",
"wXwXwXwXwXwXwXwXwXwXwXwXwXwXwXwXwXwX} y.OX5X7X7X6X6X6X<Xi.a.a.t.>.+.#.6.$.3 & h.I.v.| $X6X2X~ T wXwXwXwXwXwXwXwXwXwXwXwXwXwXwXwX",
"wXwXwXwXwXwXwXwXwXwXwXwXwXwXwXwXwXwXwX) ) &X=X1X7X7X3Xp.e 9 9 y 3.8.8.7.5.#.: g.s.i +X-X=X&X) wXwXwXwXwXwXwXwXwXwXwXwXwXwXwXwXwX",
"wXwXwXwXwXwXwXwXwXwXwXwXwXwXwXwXwXwXwXwXwXa P y.7X5Xq.y 2.3.4.4.8.8.9.6.@.# o & % @ u i i a wXwXwXwXwXwXwXwXwXwXwXwXwXwXwXwXwXwX",
"wXwXwXwXwXwXwXwXwXwXwXwXwX( ( R wXwXwXwXwXwXwX0.w.0.] b %.3.7.7.8.:.+.+.9 1 +.8 o $ = wXwXwXwXwXwXwXwXwXwXwXwXwXwXwXwXwXwXwXwXwX",
"wXwXwXwXwXwXwXwXwXwXwXwXY ; R R ^ wXwXwXwXwXwX^ $ f g.j.b >.4.7.8.-.e < e +.$.q o o wXwXwXwXwXwXwXwXwXwXwXwXwXwXwXwXwXwXwXwXwXwX",
"wXwXwXwXwXwXwXwXwXwXwXwXQ ( &X>Xq.T wXwXwXwXwXQ l h.Y.T.U.x @.7.7.6.5.5.4.$.8 + o X wXwXwXwXwXwXwXwXwXwXwXwXwXwXwXwXwXwXwXwXwXwX",
"wXwXwXwXwXwXwXwXwXwXQ ! u r r.>Xq.Y wXwXwX! ! e.y.b j.^.Y.c 6 7.9.8.8.7.$.1 o O o X wXwXwXwXwXwXwXwXwXwXwXwXwXwXwXwXwXwXwXwXwXwX",
"wXwXwXwXwXwXwXwXwXR ; ) ) ) 0.>Xq.L Q wX| ) ) p.<X0.v.h.Y.d 6 6.9.9.5.&.1 O O o o X wXwXwXwXwXwXwXwXwXwXwXwXwXwXwXwXwXwXwXwXwXwX",
"wXwXwXwXwXwXwXwXwXp ~ %X1X2X5X7Xe.g l I 0.<X3X5X5X-X) d h.x @.6.5.5.=.9 O $ g g $ O wXwXwXwXwXwXwXwXwXwXwXwXwXwXwXwXwXwXwXwXwXwX",
"wXwXwXwXwXwXwXwXwXwX) ) $X6X6X6X).j.H.XX=X6X6X6X=X( - $ h #.4.5.5 q 9 + O d h.j.v $ wXwXwXwXwXwXwXwXwXwXwXwXwXwXwXwXwXwXwXwXwXwX",
"wXwXwXwXwXwXwXwXwXwXwXY +X6X7X7X|.T.^.@X6X2Xp.t.t.w.^ Q ; 7 @.%.b s.s.s.s.s.d.d.d % wXwXwXwXwXwXwXwXwXwXwXwXwXwXwXwXwXwXwXwXwXwX",
"wXwXwXwXwXwXwXwXwXwXwXP i.;X*X;XP.U.H.#X*X$X( r - | wX..l g h d h.I.U.I.U.k.w + o $ wXwXwXwXwXwXwXwXwXwXwXwXwXwXwXwXwXwXwXwXwXwX",
"wXwXwXwXwXwXwXwXwXwXwXwX^ P P P l h x l i a wX! : ; r u : f.I.h.d g g g h y =.1 O = o wXwXwXwXwXwXwXwXwXwXwXwXwXwXwXwXwXwXwXwXwX",
"wXwXwXwXwXwXwXwXwXwXwXwXwXwXwXwXwXwXwXwXwXwXa ,.-.-.-.-.#.n v c $ o o O 7 1.6.=.4 o o N wXwXwXwXwXwXwXwXwXwXwXwXwXwXwXwXwXwXwXwX",
"wXwXwXwXwXwXwXwXwXwXwXwXwXwXwXwXwXwXwXwXwXwXy &.8.9.9.9.6.@.q o o o + 3 $.2.7.9.=.< + o - wXwXwXwXwXwXwXwXwXwXwXwXwXwXwXwXwXwXwX",
"wXwXwXwXwXwXwXwXwXwXwXwXwXwXwXwXwXwXwXwXwXq 1.8.9.9.9.8.5.4.@.+ o o 9 =.6 +.6.9.7.2.q + @ = wXwXwXwXwXwXwXwXwXwXwXwXwXwXwXwXwXwX",
"wXwXwXwXwXwXwXwXwXwXwXwXwXwXwXwXwXwXwXwXwXr 1.8.9.9.9.2.5 3 q O O o + 3 #.3.7.9.9.6.1.4 o o - wXwXwXwXwXwXwXwXwXwXwXwXwXwXwXwXwX",
"wXwXwXwXwXwXwXwXwXwXwXwXwXwXwXwXwXwXwXwXwXr 1.9.9.9.9.3.@.6 +.5 + o o + &.9.9.9.9.9.9.&.+.7 8 u wXwXwXwXwXwXwXwXwXwXwXwXwXwXwXwX",
"wXwXwXwXwXwXwXwXwXwXwXwXwXwXwXwXwXwXwXwXwXr 1.9.8.4.4.4.3.2.3.=.9 O o + #.5.7.9.9.9.9.7.8.5.7 8 @ wXwXwXwXwXwXwXwXwXwXwXwXwXwXwX",
"wXwXwXwXwXwXwXwXwXwXwXwXwXwXwXwXwXwXwXwXwX0 1.9.4.3 q q q q q 8 O o O o 8 +.6.7.9.9.8.8.8.8.4.@.@ @ wXwXwXwXwXwXwXwXwXwXwXwXwXwX",
"wXwXwXwXwXwXwXwXwXwXwXwXwXwXwXwXwXwXwXwXwXy >.=.5.$.1 o O o o o o o o o o 9 #.5.9.9.8.8.8.8.9.-.+ o wXwXwXwXwXwXwXwXwXwXwXwXwXwX",
"wXwXwXwXwXwXwXwXwXwXwXwXwXwXwXwXwXwXwXwXwXwXe >.1.1.4 O o o o o o O o o O - r ;.4.9.9.9.8.8.3.+.O o - wXwXwXwXwXwXwXwXwXwXwXwXwX",
"wXwXwXwXwXwXwXwXwXwXwXwXwXwXwXwXwXwXwXwXwXwXwXwX2 9 @ o o O O O o o o o O L wXe <.6.8.9.8.4.5 + O o ; o wXwXwXwXwXwXwXwXwXwXwXwX",
"wXwXwXwXwXwXwXwXwXwXwXwXwXwXwXwXwXwXwXwXwXwXwXwXwXwX# o o O o O o o O o o L w wX5 @.5.9.3.7 # o o o o - wXwXwXwXwXwXwXwXwXwXwXwX",
"wXwXwXwXwXwXwXwXwXwXwXwXwXwXwXwXwXwXwXwXwXwXwXwXwXwXwXX X X X X X @ o o o o o wXwX< ;.&.@.+ o o o o o - wXwXwXwXwXwXwXwXwXwXwXwX",
"wXwXwXwXwXwXwXwXwXwXwXwXwXwXwXwXwXwXwXwXwXwXwXwXwXwXwXwXwXwXwXwXwXwXo o o o @ wXwXwX> 0 # @ o # 0 o O @ o wXwXwXwXwXwXwXwXwXwXwX",
"wXwXwXwXwXwXwXwXwXwXwXwXwXwXwXwXwXwXwXwXwXwXwXwXwXwXwXwXwXwXwXwXwXwXwXo o o @ wXwXwXwXwXwXO $ , o.0 o o = wXwXwXwXwXwXwXwXwXwXwX",
"wXwXwXwXwXwXwXwXwXwXwXwXwXwXwXwXwXwXwXwXwXwXwXwXwXwXwXwXwXwXwXwXwXwXwXwX- o o wXwXwXwXwXwXwX@ > X.X.> o @ N wXwXwXwXwXwXwXwXwXwX",
"wXwXwXwXwXwXwXwXwXwXwXwXwXwXwXwXwXwXwXwXwXwXwXwXwXwXwXwXwXwXwXwXwXwXwXwXwXo X wXwXwXwXwXwXwX. + 0 O.X.0 O O @ wXwXwXwXwXwXwXwXwX",
"wXwXwXwXwXwXwXwXwXwXwXwXwXwXwXwXwXwXwXwXwXwXwXwXwXwXwXwXwXwXwXwXwXwXwXwXwXwXwXwXwXwXwXwXwXwXwXwX. 0 X.o.0 o o wXwXwXwXwXwXwXwXwX",
"wXwXwXwXwXwXwXwXwXwXwXwXwXwXwXwXwXwXwXwXwXwXwXwXwXwXwXwXwXwXwXwXwXwXwXwXwXwXwXwXwXwXwXwXwXwXwXwXwXwX, , X     wXwXwXwXwXwXwXwXwX",
"wXwXwXwXwXwXwXwXwXwXwXwXwXwXwXwXwXwXwXwXwXwXwXwXwXwXwXwXwXwXwXwXwXwXwXwXwXwXwXwXwXwXwXwXwXwXwXwXwXwXwXwXwXwXwXwXwXwXwXwXwXwXwXwX",
"wXwXwXwXwXwXwXwXwXwXwXwXwXwXwXwXwXwXwXwXwXwXwXwXwXwXwXwXwXwXwXwXwXwXwXwXwXwXwXwXwXwXwXwXwXwXwXwXwXwXwXwXwXwXwXwXwXwXwXwXwXwXwXwX"
};
