/* XPM */
static char *b852ef6e70714bd6b9eb6285e5a9653c[] = {
/* columns rows colors chars-per-pixel */
"44 61 207 2 ",
"   c None",
".  c #161514",
"X  c #1C1C1C",
"o  c #171717",
"O  c #2F291E",
"+  c #1D1E20",
"@  c #1A212B",
"#  c #242425",
"$  c #282726",
"%  c #2A2926",
"&  c #27272A",
"*  c #27282A",
"=  c #2C2B2C",
"-  c #322E27",
";  c #3A352E",
":  c #37322A",
">  c #2C2E32",
",  c #252C38",
"<  c #2E3034",
"1  c #333333",
"2  c #3A3732",
"3  c #3B3934",
"4  c #32353A",
"5  c #3B3B39",
"6  c #373836",
"7  c #4F3308",
"8  c #603D05",
"9  c #453C2E",
"0  c #4A3E2D",
"q  c #433D33",
"w  c #413E3B",
"e  c #6B4C19",
"r  c #78541C",
"t  c #6D470B",
"y  c #4D422D",
"u  c #584729",
"i  c #44423E",
"p  c #4C453D",
"a  c #52483F",
"s  c #644C25",
"d  c #6A4E24",
"f  c #604A29",
"g  c #665626",
"h  c #745523",
"j  c #715B38",
"k  c #1E2F49",
"l  c #1D3457",
"z  c #2B3544",
"x  c #343A43",
"c  c #3C3E42",
"v  c #253957",
"b  c #153C77",
"n  c #1F3B65",
"m  c #223D66",
"M  c #3C424A",
"N  c #3F4A5B",
"B  c #1D447F",
"V  c #23467A",
"C  c #474440",
"Z  c #4A4642",
"A  c #4C4B44",
"S  c #4F4F4D",
"D  c #524D46",
"F  c #564F4A",
"G  c #54534A",
"H  c #5B554D",
"J  c #5B594E",
"K  c #5A5953",
"L  c #474D54",
"P  c #63594E",
"I  c #625B52",
"U  c #695F54",
"Y  c #646453",
"T  c #6A6356",
"R  c #6D6359",
"E  c #6B6A59",
"W  c #726559",
"Q  c #75695D",
"!  c #736759",
"~  c #74735F",
"^  c #4B5C78",
"/  c #576174",
"(  c #7C6F61",
")  c #736A63",
"_  c #7C7464",
"`  c #7D7B65",
"'  c #767461",
"]  c #696F6F",
"[  c #875E1D",
"{  c #8C611C",
"}  c #9F6A17",
"|  c #986719",
" . c #976617",
".. c #957014",
"X. c #BD790D",
"o. c #A36C14",
"O. c #AA6F12",
"+. c #AD7113",
"@. c #AD7419",
"#. c #B57612",
"$. c #BB7910",
"%. c #B87711",
"&. c #B16D03",
"*. c #886C36",
"=. c #C27C0E",
"-. c #C97E07",
";. c #857768",
":. c #8B7C6C",
">. c #817966",
",. c #9E8018",
"<. c #BA9412",
"1. c #AE8C15",
"2. c #CC810A",
"3. c #DD8A07",
"4. c #D28509",
"5. c #D98808",
"6. c #C79D0E",
"7. c #E58E05",
"8. c #EC9103",
"9. c #F39501",
"0. c #F79800",
"q. c #FB9A00",
"w. c #FFA100",
"e. c #84826A",
"r. c #89876D",
"t. c #948372",
"y. c #978B76",
"u. c #9C9A7A",
"i. c #979576",
"p. c #90866F",
"a. c #A28E7B",
"s. c #A4997D",
"d. c #0C3E89",
"f. c #113E82",
"g. c #0E418D",
"h. c #15448A",
"j. c #0B459A",
"k. c #0E489F",
"l. c #0D4392",
"z. c #144898",
"x. c #204D93",
"c. c #0A47A2",
"v. c #0B48A2",
"b. c #024BBA",
"n. c #104AA1",
"m. c #3B6BB7",
"M. c #475F87",
"N. c #446499",
"B. c #657799",
"V. c #5675AA",
"C. c #014EC4",
"Z. c #0051CB",
"A. c #0954C6",
"S. c #0050D1",
"D. c #5B80BC",
"F. c #5C85C8",
"G. c #AD9983",
"H. c #AD9985",
"J. c #B39C83",
"K. c #B59E88",
"L. c #ADAA85",
"P. c #A8A582",
"I. c #BDA48C",
"U. c #B2AB88",
"Y. c #B4B088",
"T. c #AEACB4",
"R. c #C3A98E",
"E. c #C5AB92",
"W. c #CAAF94",
"Q. c #CCB196",
"!. c #CEB398",
"~. c #C1BD93",
"^. c #D6BA9D",
"/. c #D5B89B",
"(. c #DABDA1",
"). c #CBC798",
"_. c #D0CC9D",
"`. c #D7D3A2",
"'. c #DEDAA6",
"]. c #D9D5A3",
"[. c #DFC1A3",
"{. c #E4C5A6",
"}. c #ECCCAC",
"|. c #E6C7A8",
" X c #F1CFAD",
".X c #E1DCA8",
"XX c #F1D0AF",
"oX c #F5D4B2",
"OX c #F9D6B4",
"+X c #FDDAB6",
"@X c #FFDCB8",
"#X c #EECFB3",
"$X c #EBE6AE",
"%X c #E5E1AB",
"&X c #EEE9B1",
"*X c #F1EDB3",
"=X c #FFE2BA",
"-X c #F6F1B6",
";X c #F5F0B5",
":X c #FAF5B9",
">X c #FFFABC",
",X c #FFFBBD",
"<X c #F8F3B7",
"1X c #96A5C6",
"2X c #FFFFC1",
"3X c #FFFFC3",
"4X c #FFFFC9",
/* pixels */
"                                        i 1 1 1                                         ",
"                                        ' r.i >                                         ",
"                          = =         J U..XG *                                         ",
"                        6 1 1       A ).,X'.G &                                         ",
"                      E u.G *     1 C `.4X'.G *                                         ",
"                    = ' *Xu.J     K ` %X3X.XG &                                         ",
"                    = ~ -X>XL.6 = r.*X-X>X`.G = 1                                       ",
"                    = ~ -X3XU.1 * y.-Xp.E Y 6 Q a.C # *                                 ",
"                    = ~ -X2X_.' 5 Y P._ R R Q E.{.;.R U i                               ",
"                    > ~ -X,X:X].E 5 J !.oX}.}.oXoX XoXE.D i                             ",
"                  1 & ~ -X2X).' G.E.Q.}.OXOXOXoXoXOX@XoXW.R =                           ",
"                H e.e.L.:X3XL.i !.{.I.|.OXoXoXoXOXOXE.a.a.t.! C                         ",
"              C ` *X,X>X>X*Xu.C K.t.A !.@XoXoXoXoX[.:.C D I.R.3                         ",
"            5 u.%X>X,X2X*Xr.i 1 A w C !.@XoXoX@X^.R t.!.!.}.I.w                         ",
"          G p.].2X,X,X,X>XU.p.i.i.Y C Q.@XOX@XE.:.:.Q.@X@X@XI.w                         ",
"        A ` *X2X,X,X,X*X'.-X2X,X$Xu.R ^.@XoX^.:.! {.@XoXoX@XI.w                         ",
"      5 i.$X>X,X,X,X2X~.Y ).3X&X' ;.(.XX@X(.T t.{.oXoXoXoX@XI.q                         ",
"    J i.].2X,XY.P.-X2X'.s.p.p.` 5 Z y.{.E.;.t.!.@XoXoXOXoXK.( p                         ",
"  * J $X3X-X_.>.r.*X,X2X-XE 6 H I i C !.G.Q {.@XoXoXoXOXXXQ =                           ",
"  5 K .X2X_.I P.-X>X,X,X*XE R (.{.t.D !.oX{.oXoXoXoXoXOXXX( =                           ",
"5 r.L.e.` r.P.%X2X,X,X,X*XY i _ _ :.K.}.@XOXoXoXoXoXoXOXXX( =                           ",
"1 e.Y.Z # Y *X2X,X,X,X,X:Xu.A 1 F G.oXQ.^.OXOXOXoXoXoXOXXX( =                           ",
"1 1 3   1 Y $X2X,X,X,X:X-X:XP.D K. X^.J :.}.}.XXoXoXoXOXXX( =                           ",
"+ X     > K $X2X,X,X2X_.` `.-X~.;.R I 5 Z R W I.@X@X@X@XoX>.% #                         ",
".       E s.<X2X2X,X_.i.>.].&XY.*.r d 2 > , l ] J.J.J.J.G./ l $ %                       ",
"      1 i.&X&X&X*X%X' ` *X2XY.p #.9.3.d 9 c n.B x x x x x z.v.z $ X                     ",
"      # Z E Y Y Y E P..X,X3XY.2 u +.0.4.2.@.M f.c.c.c.c.c.b.C.v.l %                     ",
"        # & & = & 1 ~.4X,X).] V b S +.8.q.8.} L j.Z.S.Z.Z.Z.Z.C.n =                     ",
"                  6 P.&X`.E b C.Z.g.y 4.q.q.q.o.M n.C.Z.Z.Z.Z.C.m % +                   ",
"                $ * Z J K h.b.Z.Z.g.0 4.q.q.q.8.#.M j.Z.Z.Z.Z.C.m = $                   ",
"                $ = * = 1 B.V.h.b.l.y 4.q.8.o.2.8.o.L f.f.b.b.B j r -                   ",
"                        5 R.R.K z.b 0 4.9.%.0  .q.q.} u u V g.5 =.X.:                   ",
"                        w I.OX!.K , y 4.+.9 1 | q.q.8.7.5.j z 3 X.X.;                   ",
"                        5 I.=X XP $ : h f < 1 f [ [ 4.w.q.2.O.+.8.$.; %                 ",
"                      D W !.}.I.P % $ * > 1 1 1 > 1 [ 2.-.2.2.2.2. .2 k k               ",
"                    $ T (.oXH.C       o # 1 4 4 4 4 6 q q q q q q 3 4 j.g.<             ",
"                    - N D.F.M.<         = z h.k.z.z.k.j.j.j.j.j.j.b z c.m.y.H # +       ",
"                    v f.C.S.l.,         : z g.v.k.c.k.k.k.k.k.k.c.b x N.1X}.t.T U i     ",
"                  c x.A.A.A.d.@       # = 1 6 6 4 5 6 4 4 4 4 4 5 1 5 H.#XoX{.{.Q.P 6   ",
"              1 H K.T.T.T.^ l         < > 9 +.r 0 O.h > 1 1 1 ;  . .6 G s.{.t.U ( K.:.1 ",
"              T a.oX@X=X XT =       1 1 u { O. .| 8.$.d 2 1 < 3 =.3.r : _ {.I # 5 t.Q 1 ",
"            C a.}.oX}.}.}.T $     1 = < { =.s } 9.q.q.=.9 < < 2 #.q.7.s ) !.I = 1 C w 1 ",
"          I I.;.:.}.t.t.{.W $   = = 1 1 9 h %.7.q.q.q.2.9 < < 2 #.q.8.d c H 5 = C G.;.1 ",
"        $ i y.t.t.t.i R {.! %   = = 1 1 , 0 3.q.q.q.q.2.9 , 9 [ 4.q.8.d * = $ * C t.>.6 ",
"          # 1 y.K.w # W W.U =   1 1 1 1 2 d 3.q.q.q.8.#.9 2 [ 8.q.q.8.e =   o     =     ",
"            X ; a       p 6 1 1 1 1 1 < r 3.9.q.q.q.} 9 2  .7.0.q.q.8.e %               ",
"                          1 1 1 > u | | 2.q.q.q.8.} u > 1 d #.0.q.q.8.e $               ",
"                          1 1 1 y o.q.q.q.q.q.8.+.9 < 1 1 9 h 2.8.q.8.e *               ",
"                          1 < 9 #.9.q.q.q.q.q.} 9 1 1 1 2 o.#.u $.q.8.d >               ",
"                        % 1 < 9 2.q.q.q.q.q.0.4.{ q 1 1 1 d  .+.3.q.9.e $               ",
"                        = < < 9 2.q.q.q.0.0.q.7.O.9 > 1 1 > u =.9.9.-.t                 ",
"                        1 1 < 9 =.q.q.q.0.9.9. .: % = 1 1 1 1 0 $.-.8                   ",
"                      1 1 1 1 2 s #.q.q.q.8. .e     1 1 1 1 1 1 u e                     ",
"                    1 > < 1 1 1 > d #.%.X.&.8       1 1 1 1 1 1 > =                     ",
"                  1 1 2 3 1 1 1 1 1 ; ; : 7         = = 1 1 1 1 1 = X                   ",
"              6 1 1 > g <.g < 1 = # X o .           X # 1 1 1 1 4 = $                   ",
"              1 < 1 g ,.1.u > = $ X .                 X $ > 1 1 1 1 =                   ",
"            1 1 1 y <.1.3 < $ o                         . $ 1 1 1 = =                   ",
"            1 > g 6...y 1 # X                             X X # $ # .                   ",
"            1 < u ..u > = #                                                             ",
"            1 1 1 1 1 1 =                                                               "
};
