/* XPM */
static char *result[] = {
/* columns rows colors chars-per-pixel */
"64 64 187 2 ",
"   c #292929",
".  c #2A292C",
"X  c #342B27",
"o  c #3D2D25",
"O  c #342C29",
"+  c #3A2726",
"@  c #33312F",
"#  c #3C342E",
"$  c #262D34",
"%  c #252B3E",
"&  c #2E2D38",
"*  c #322E3B",
"=  c #24333D",
"-  c #263037",
";  c #353331",
":  c #393733",
">  c #3D3A36",
",  c #3E303B",
"<  c #751A1A",
"1  c #5C331E",
"2  c #63341D",
"3  c #6C361B",
"4  c #7B3818",
"5  c #76371A",
"6  c #442E23",
"7  c #4B2F22",
"8  c #442727",
"9  c #433F39",
"0  c #453B34",
"q  c #512B21",
"w  c #65372C",
"e  c #723A32",
"r  c #7B3B2D",
"t  c #46413A",
"y  c #4B453D",
"u  c #504338",
"i  c #1F2F5A",
"p  c #232D46",
"a  c #2B2E44",
"s  c #243543",
"d  c #233847",
"f  c #223A4C",
"g  c #2B334B",
"h  c #393A49",
"j  c #202D51",
"k  c #213D52",
"l  c #2C385C",
"z  c #1B316B",
"x  c #17327B",
"c  c #183276",
"v  c #1D2F60",
"b  c #223677",
"n  c #1E425B",
"m  c #35424A",
"M  c #334356",
"N  c #1D4664",
"B  c #1B4A6C",
"V  c #1C4867",
"C  c #1A4E73",
"Z  c #18527B",
"A  c #17547F",
"S  c #314D6F",
"D  c #4B4846",
"F  c #524C42",
"G  c #5A5349",
"H  c #5E5A57",
"J  c #494C59",
"K  c #635A4D",
"L  c #685E4F",
"P  c #625B53",
"I  c #6F6454",
"U  c #766A59",
"Y  c #7B6E5B",
"T  c #726756",
"R  c #7F715D",
"E  c #555768",
"W  c #4D6B7A",
"Q  c #746D69",
"!  c #727471",
"~  c #6D7775",
"^  c #961313",
"/  c #A91010",
"(  c #883B16",
")  c #923D14",
"_  c #9E3F11",
"`  c #A03F11",
"'  c #CA0909",
"]  c #AB420F",
"[  c #B3430D",
"{  c #BC450B",
"}  c #A54010",
"|  c #B04314",
" . c #C74709",
".. c #D54907",
"X. c #DA4A06",
"o. c #D74A08",
"O. c #E54C03",
"+. c #ED4E02",
"@. c #F34F00",
"#. c #F85000",
"$. c #F75000",
"%. c #82745F",
"&. c #8B7C66",
"*. c #857761",
"=. c #827C74",
"-. c #94846B",
";. c #9B896E",
":. c #9E8C71",
">. c #9D8E7E",
",. c #9C907B",
"<. c #838173",
"1. c #A18F73",
"2. c #A49174",
"3. c #AD997B",
"4. c #AB9779",
"5. c #B19C7D",
"6. c #B5A07F",
"7. c #153383",
"8. c #17358A",
"9. c #163796",
"0. c #213A86",
"q. c #0E38A7",
"w. c #123CAD",
"e. c #175684",
"r. c #15598A",
"t. c #1C5B89",
"y. c #135E94",
"u. c #1F409A",
"i. c #234194",
"p. c #12629C",
"a. c #136097",
"s. c #23618B",
"d. c #0F6AAD",
"f. c #0F68A7",
"g. c #1165A2",
"h. c #1068A7",
"j. c #0D6EB3",
"k. c #0C71BB",
"l. c #083BC3",
"z. c #063CC9",
"x. c #033ED8",
"c. c #003FE4",
"v. c #1041C4",
"b. c #2150CB",
"n. c #0A75C3",
"m. c #087ACC",
"M. c #087ACB",
"N. c #077ED4",
"B. c #0040E8",
"V. c #0582DC",
"C. c #0781D8",
"Z. c #0486E3",
"A. c #028AEC",
"S. c #0388E7",
"D. c #008EF4",
"F. c #0090F8",
"G. c #0090F7",
"H. c #A6988C",
"J. c #BCA583",
"K. c #BFA888",
"L. c #B9A382",
"P. c #8F93B4",
"I. c #9EA1BF",
"U. c #B1B1BE",
"Y. c #C1AA86",
"T. c #C6AD89",
"R. c #CCB38D",
"E. c #D0B78F",
"W. c #D4BA92",
"Q. c #D6BB93",
"!. c #D0BFB2",
"~. c #DDC197",
"^. c #DFC398",
"/. c #E2C69B",
"(. c #E6C99D",
"). c #E8CB9E",
"_. c #C2C1BF",
"`. c #EDCEA1",
"'. c #F4D5A6",
"]. c #F8D8A8",
"[. c #E9D0AA",
"{. c #BBBDC3",
"}. c #B9C6E8",
"|. c #E0D1C3",
" X c #F7E3C4",
".X c #F3F3F2",
"XX c None",
/* pixels */
"XXXXXXXXXXXXXXXXXXXXXXXXXXXXXXXXXXXXXXXXXXXXXXXXXXXXXXXXXXXXXXXXXXXXXXXXXXXXXXXXXXXXXXXXXXXXXXXXXXXXXXXXXXXXXXXXXXXXXXXXXXXXXXXX",
"XXXXXXXXXXXXXXXXXXXXXXXXXXXXXXXXXXXXXXXXXXXXXXXXXXXXXXXXXXXXXXXXXXXXXXXXXXXXXXXXXXXXXXXXXXXXXXXXXXXXXXXXXXXXXXXXXXXXXXXXXXXXXXXX",
"XXXXXXXXXXXXXXXXXXXXXXXXXXXXXXXXXXXXXXXXXXXXXXXXXXXXXX  XXXXXXXXXX  XXXXXXXXXXXXXXXXXXXXXXXXXXXXXXXXXXXXXXXXXXXXXXXXXXXXXXXXXXXX",
"XXXXXXXXXXXXXXXXXXXXXXXXXXXXXXXXXXXXXXXXXXXXXXXXXXXX    XXXXXXXX    XXXXXXXXXXXXXXXXXXXXXXXXXXXXXXXXXXXXXXXXXXXXXXXXXXXXXXXXXXXX",
"XXXXXXXXXXXXXXXXXXXXXXXXXXXXXXXXXXXXXXXXXXXXXXXXXXn f   XXXXXXXXn $ XXXXXX  XXXXXXXXXXXXXXXXXXXXXXXXXXXXXXXXXXXXXXXXXXXXXXXXXXXX",
"XXXXXXXXXXXXXXXXXXXXXXXXXXXXXXXXXXXXXXXXXXXXXXXXf k.y.  XXs s C M.k   XX= . XXXXXXXXXXXXXXXXXXXXXXXXXXXXXXXXXXXXXXXXXXXXXXXXXXXX",
"XXXXXXXXXXXXXXXXXXXXXXXXXXXXXXXXXXXXXXXXXXXXXXf k.A.p.  = d.N.V.V.k . B j.d XXXXXXXXXXXXXXXXXXXXXXXXXXXXXXXXXXXXXXXXXXXXXXXXXXXX",
"XXXXXXXXXXXXXXXXXXXXXXXXXXXXXXXXXXXXXXXXXXXXV j.A.F.p.s p.Z.D.F.Z.n B k.C.f             XXXXXXXXXXXXXXXXXXXXXXXXXXXXXXXXXXXXXXXX",
"XXXXXXXXXXXXXXXXXXXXXXXXXXXXXXXXXXXXXXXXXXN h.D.F.F.a.n V.G.G.Z.d.e.k.D.V.f k C C C s     XXXXXXXXXXXXXXXXXXXXXXXXXXXXXXXXXXXXXX",
"XXXXXXXXXXXXXXXXXXXXXXXXXXXXXXXXXXXXXXXX. f.D.D.G.V.a.V M.D.S.j.B m.D.F.V.f h.D.S.m.N XXXXXXXXXXXXXXXXXXXXXXXXXXXXXXXXXXXXXXXXXX",
"XXXXXXXXXXXXXXXXXXXXXXXXXXXXXXXXXXXXXXXX- d.F.D.S.e.r.k.V M.g.C N.D.D.D.V.k h.D.N.N XXXXXXXXXXXXXXXXXXXXXXXXXXXXXXXXXXXXXXXXXXXX",
"XXXXXXXXXXXXXXXXXXXXXXXXXXXXXXXX  XXXXs g.V.F.Z.t.p.M.M.n k.C.n.D.F.d.p.N.k h.n.B XXXXXXXXXXXXXXXXXXXXXXXXXXXXXXXXXXXXXXXXXXXXXX",
"XXXXXXXXXXXXXXXXXXXXXXXXXXXXXXXX      d C.F.C.p.r.N.D.M.n k.G.G.D.D.e.B N.f C C . XXXXXXXXXXXXXXXXXXXXXXXXXXXXXXXXXXXXXXXXXXXXXX",
"XXXXXXXXXXXXXXXXXXXXXXXXXXXXXXXX  = s d C.D.h.k V.D.D.C.B M.G.G.D.V.r.C k.N k f k f XXXXXXXXXXXXXXXXXXXXXXXXXXXXXXXXXXXXXXXXXXXX",
"XXXXXXXXXXXXXXXXXXXXXXXXXXXXXXXX  y.g.n M.S.g.n V.F.F.D.Z.D.G.G.Z.V y.g.n k.C.Z.V.V.C = $ XXXXXXXXXXXXXXXXXXXXXXXXXXXXXXXXXXXXXX",
"XXXXXXXXXXXXXXXXXXXXXXXXXXXXXXXX  p.Z.j.C V r.n.D.F.F.D.G.G.G.G.Z.k f k $ n k.F.F.D.m.k.h.= XXXXXXXXXXXXXXXXXXXXXXXXXXXXXXXXXXXX",
"XXXXXXXXXXXXXXXXXXXXXXXXXXXXXXXX  p.F.S.p.f Z D.D.j.k.G.D.d.M.G.A.g.r.r.r.r.y.y.p.y.a.y.e.$   XXXXXXXXXXXXXXXXXXXXXXXXXXXXXXXXXX",
"XXXXXXXXXXXXXXXXXXXXXXXXXXXXXXXX  r.N.D.D.C Z S.M.A g.G.S.n y.G.F.F.D.F.F.D.a.d               XXXXXXXXXXXXXXXXXXXXXXXXXXXXXXXXXX",
"XXXXXXXXXXXXXXXXXXXXXXXXXXXXXXXXXX= Z D.D.e.A n.n d.S.D.C.S s.V.Z.Z.Z.S.D.F.A.f.= XXXXXXXXXXXXXXXXXXXXXXXXXXXXXXXXXXXXXXXXXXXXXX",
"XXXXXXXXXXXXXXXXXXXXXXXXXXXXXXXXXX  B A.D.V.p.k = j.G.C.S ,.~ n n n n r.D.F.D.Z.j.s XXXXXXXXXXXXXXXXXXXXXXXXXXXXXXXXXXXXXXXXXXXX",
"XXXXXXXXXXXXXXXXXXXXXXXXXXXXXXXXXX  B V.p.N.N.e.s j.G.n.m Y.T.;.-.;.-.~ t.r.r.j.N.s XXXXXXXXXXXXXXXXXXXXXXXXXXXXXXXXXXXXXXXXXXXX",
"XXXXXXXXXXXXXXXXXXXXXXXXXXXXXXXXXXXXN d.C p.N.V.A g.C.C.m Y.].].].].].T.K ;   B g.= XXXXXXXXXXXXXXXXXXXXXXXXXXXXXXXXXXXXXXXXXXXX",
"XXXXXXXXXXXXXXXXXXXXXXXXXXXXXXXXXXXXXXf j.A e.V.M.S s.k.h 3.).].].].].'.E.y XXXX$ . XXXXXXXXXXXXXXXXXXXXXXXXXXXXXXXXXXXXXXXXXXXX",
"XXXXXXXXXXXXXXXXXXXXXXXXXXXXXXXX      . f g.p.k M ,.<.d @ t 2.].].].].].~.y XXXXXX  XXXXXXXXXXXXXXXXXXXXXXXXXXXXXXXXXXXXXXXXXXXX",
"XXXXXXXXXXXXXXXXXXXXXXXXXXXXXXXXXX  k p.g.r.W &.t 6.R.2.-.y F 2.`.].].Q.%.0 XXXXXXXXXXXXXXXXXXXXXXXXXXXXXXXXXXXXXXXXXXXXXXXXXXXX",
"XXXXXXXXXXXXXXXXXXXXXXXXXXXXXXXXXXXXN j.S.C U ~.&.R.].).6.<.! ! 4.5.Q.5.@ XXXXXXXXXXXXXXXXXXXXXXXXXXXXXXXXXXXXXXXXXXXXXXXXXXXXXX",
"XXXXXXXXXXXXXXXXXXXXXXXXXXXXXXXXXXXXXXf k.B U '.'.].].R.G U..X{.M g H.5.; XXXXXXXXXXXXXXXXXXXXXXXXXXXXXXXXXXXXXXXXXXXXXXXXXXXXXX",
"XXXXXXXXXXXXXXXXXXXXXXXXXXXXXXXXXXXXXXXXd - U `.'.].].R.G _..X}.b.v.P.5.; XXXXXXXXXXXXXXXXXXXXXXXXXXXXXXXXXXXXXXXXXXXXXXXXXXXXXX",
"XXXXXXXXXXXXXXXXXXXXXXXXXXXXXXXXXXXXXXXXXX  t &.(.].].`.L.[. X|.I.I._.6.; XXXXXXXXXXXXXXXXXXXXXXXXXXXXXXXXXXXXXXXXXXXXXXXXXXXXXX",
"XXXXXXXXXXXXXXXXXXXXXXXXXXXXXXXXXXXXXXXXXXXX. > -.2.T.].].].R.2.5.(.R.*.O XXXXXXXXXXXXXXXXXXXXXXXXXXXXXXXXXXXXXXXXXXXXXXXXXXXXXX",
"XXXXXXXXXXXXXXXXXXXXXXXXXXXXXXXXXXXXXXXXXXXX  O 6 o U W.Q.`.2.F K 5.Q g XXXXXXXXXXXXXXXXXXXXXXXXXXXXXXXXXXXXXXXXXXXXXXXXXXXXXXXX",
"XXXXXXXXXXXXXXXXXXXXXXXXXXXXXXXXXXXXXXXXXX$ $ 8 [ 2 # t J K.~.E.Y.K 8.9.p XXXXXXXXXXXXXXXX; ; XXXXXXXXXXXXXXXXXXXXXXXXXXXXXXXXXX",
"XXXXXXXXXXXXXXXXXXXXXXXXXXXXXXXXXXXXXXXX. 7.w.9.w ` 5 p 9.E L L P 9.7.x 9.p XXXXXXXXXXXXy 3.L.Y   XXXXXXXXXXXXXXXXXXXXXXXXXXXXXX",
"XXXXXXXXXXXXXXXXXXXXXXXXXXXXXXXXXXXXXX. . q.c.z.* `  .e 0.7.x 7.9.v.x z z.p XXXXXXXXXXG &.1.~.-.  XXXXXXXXXXXXXXXXXXXXXXXXXXXXXX",
"XXXXXXXXXXXXXXXXXXXXXXXXXXXXXXXXXXXXXX@ D 0.z.z.a { #.X.w 9.x.c.B.B.x i w.J t XXXXXXF ;.R.y :.Y   XXXXXXXXXXXXXXXXXXXXXXXXXXXXXX",
"XXXXXXXXXXXXXXXXXXXXXXXXXXXXXXXXXXXXXX9 T.Q 0.w.,  .@.@.X.w 8.x.B.x.b O D K.R : XX0 1./.W.F > > :   XXXXXXXXXXXXXXXXXXXXXXXXXXXX",
"XXXXXXXXXXXXXXXXXXXXXXXXXXXXXXXXXXXXXXy E.Q.=.h ` +.#.#.@...e 7.z.c r ) t E.Q.-.D 3.R :.`.J.F T ;.: XXXXXXXXXXXXXXXXXXXXXXXXXXXX",
"XXXXXXXXXXXXXXXXXXXXXXXXXXXXXXXXXXXXG 1.`.].2.# ( X. .` +.#. .e b % _ [ u W.].4.F E.I %.].`.K &.T.: XXXXXXXXXXXXXXXXXXXXXXXXXXXX",
"XXXXXXXXXXXXXXXXXXXXXXXXXXXXXXXXXXj E K.`.W.*.  O ) 4 7 ] {  .) X   4 ) 0 2./.H.M 4.G *.`.L.F T :.: XXXXXXXXXXXXXXXXXXXXXXXXXXXX",
"XXXXXXXXXXXXXXXXXXXXXXXXXXXXXXXX  7.9.P T.T O     O . a * * * * % % & &   : 1.P.v.l & T Y.y > > ; XXXXXXXXXXXXXXXXXXXXXXXXXXXXXX",
"XXXXXXXXXXXXXXXXXXXXXXXXXXXXXXXX  a E 6.K :   XX    z l.l.l.l.l.l.l.l.9.$ XXt S c.l.j , y : 1.R   XXXXXXXXXXXXXXXXXXXXXXXXXXXXXX",
"XXXXXXXXXXXXXXXXXXXXXXXXXXXXXX> &.:.;.T :   XXXX. c 8.x x x x x x x x i .     p x x j XXXXXXT K XXXXXXXXXXXXXXXXXXXXXXXXXXXXXXXX",
"XXXXXXXXXXXXXXXXXXXXXXXXXXXXt U ~.E.;.L ; XXXXXX$ x z       7 3 2 +     X 2 3 3 3 3 7 XXXXXXXXXXXXXXXXXXXXXXXXXXXXXXXXXXXXXXXXXX",
"XXXXXXXXXXXXXXXXXXXXXXXXXXXXK /.].;.*.R.K XXXXXX  .     o 6 ( X.X.2 X   o [ O.+.@.O.4 6 XXXXXXXXXXXXXXXXXXXXXXXXXXXXXXXXXXXXXXXX",
"XXXXXXXXXXXXXXXXXXXXXXXXXXXXK /.'././.'.W.T   XX      6  .o.) 4 O.X.5     7 [ @.#.$.O.) . XXXXXXXXXXXXXXXXXXXXXXXXXXXXXXXXXXXXXX",
"XXXXXXXXXXXXXXXXXXXXXXXXXXXXy %./.].].].'.T   XX      1 X.#...{ @.#.(       1 } @.$.#._   XXXXXXXXXXXXXXXXXXXXXXXXXXXXXXXXXXXXXX",
"XXXXXXXXXXXXXXXXXXXXXXXXXXXXXX> -.W.].`.5.K XXXX      6 } O.$.$.#.#.[ 1       5 @.@.@._   XXXXXXXXXXXXXXXXXXXXXXXXXXXXXXXXXXXXXX",
"XXXXXXXXXXXXXXXXXXXXXXXXXXXXXXXX  -.W.J.y XXXXXXXX      o } O.$.#.#.@.[ +     2 ....o.)   XXXXXXXXXXXXXXXXXXXXXXXXXXXXXXXXXXXXXX",
"XXXXXXXXXXXXXXXXXXXXXXXXXXXXXXXXXX0 t 9 XXXXXXXXXX        o _ $.$.$.$.{ o     + 6 6 6 6 XXXXXXXXXXXXXXXXXXXXXXXXXXXXXXXXXXXXXXXX",
"XXXXXXXXXXXXXXXXXXXXXXXXXXXXXXXXXXXXXXXXXXXXXXXXXXXX        ) $.#.$.$.O.} o           XXXXXXXXXXXXXXXXXXXXXXXXXXXXXXXXXXXXXXXXXX",
"XXXXXXXXXXXXXXXXXXXXXXXXXXXXXXXXXXXXXXXXXXXXXXXXXXXXXX      2 [ @.$.#.#.X.7         XXXXXXXXXXXXXXXXXXXXXXXXXXXXXXXXXXXXXXXXXXXX",
"XXXXXXXXXXXXXXXXXXXXXXXXXXXXXXXXXXXXXXXXXXXXXXXXXXXXXXXX      1 O.$.$.+.{ 6   XXXXXXXXXXXXXXXXXXXXXXXXXXXXXXXXXXXXXXXXXXXXXXXXXX",
"XXXXXXXXXXXXXXXXXXXXXXXXXXXXXXXXXXXXXXXXXXXXXXXXXXXXXXXX      1 X.O.O.[ 8     XXXXXXXXXXXXXXXXXXXXXXXXXXXXXXXXXXXXXXXXXXXXXXXXXX",
"XXXXXXXXXXXXXXXXXXXXXXXXXXXXXXXXXXXXXXXXXXXXXXXXXXXXXXXX      + 1 1 2 7       XXXXXXXXXXXXXXXXXXXXXXXXXXXXXXXXXXXXXXXXXXXXXXXXXX",
"XXXXXXXXXXXXXXXXXXXXXXXXXXXXXXXXXXXXXXXXXXXXXXXXXXXXXXXXXX                      XXXXXXXXXXXXXXXXXXXXXXXXXXXXXXXXXXXXXXXXXXXXXXXX",
"XXXXXXXXXXXXXXXXXXXXXXXXXXXXXXXXXXXXXXXXXXXXXXXXXXXXXXXXXX              + q +   XXXXXXXXXXXXXXXXXXXXXXXXXXXXXXXXXXXXXXXXXXXXXXXX",
"XXXXXXXXXXXXXXXXXXXXXXXXXXXXXXXXXXXXXXXXXXXXXXXXXXXXXXXXXX              8 ' <   XXXXXXXXXXXXXXXXXXXXXXXXXXXXXXXXXXXXXXXXXXXXXXXX",
"XXXXXXXXXXXXXXXXXXXXXXXXXXXXXXXXXXXXXXXXXXXXXXXXXXXXXXXXXXXXXXXX        8 ' <     XXXXXXXXXXXXXXXXXXXXXXXXXXXXXXXXXXXXXXXXXXXXXX",
"XXXXXXXXXXXXXXXXXXXXXXXXXXXXXXXXXXXXXXXXXXXXXXXXXXXXXXXXXXXXXXXXXX      + < ^ <   XXXXXXXXXXXXXXXXXXXXXXXXXXXXXXXXXXXXXXXXXXXXXX",
"XXXXXXXXXXXXXXXXXXXXXXXXXXXXXXXXXXXXXXXXXXXXXXXXXXXXXXXXXXXXXXXXXX          / / X XXXXXXXXXXXXXXXXXXXXXXXXXXXXXXXXXXXXXXXXXXXXXX",
"XXXXXXXXXXXXXXXXXXXXXXXXXXXXXXXXXXXXXXXXXXXXXXXXXXXXXXXXXXXXXXXXXXXX        ^ ^     XXXXXXXXXXXXXXXXXXXXXXXXXXXXXXXXXXXXXXXXXXXX",
"XXXXXXXXXXXXXXXXXXXXXXXXXXXXXXXXXXXXXXXXXXXXXXXXXXXXXXXXXXXXXXXXXXXXXXXX    + +     XXXXXXXXXXXXXXXXXXXXXXXXXXXXXXXXXXXXXXXXXXXX",
"XXXXXXXXXXXXXXXXXXXXXXXXXXXXXXXXXXXXXXXXXXXXXXXXXXXXXXXXXXXXXXXXXXXXXXXXXXXXXXXXXXXXXXXXXXXXXXXXXXXXXXXXXXXXXXXXXXXXXXXXXXXXXXXX",
"XXXXXXXXXXXXXXXXXXXXXXXXXXXXXXXXXXXXXXXXXXXXXXXXXXXXXXXXXXXXXXXXXXXXXXXXXXXXXXXXXXXXXXXXXXXXXXXXXXXXXXXXXXXXXXXXXXXXXXXXXXXXXXXX"
};
