/* XPM */
static char *result[] = {
/* columns rows colors chars-per-pixel */
"64 64 186 2 ",
"   c #2F2A27",
".  c #292929",
"X  c #27292F",
"o  c #332727",
"O  c #322A27",
"+  c #3C2C25",
"@  c #302F2F",
"#  c #33322F",
"$  c #3A312C",
"%  c #272E33",
"&  c #252B3B",
"*  c #2C2C39",
"=  c #3D2F33",
"-  c #25323B",
";  c #2A3338",
":  c #333232",
">  c #393633",
",  c #3D3A35",
"<  c #3A3A3A",
"1  c #363837",
"2  c #661D1D",
"3  c #7B1818",
"4  c #741A1A",
"5  c #5B321F",
"6  c #57321F",
"7  c #64341D",
"8  c #6B351C",
"9  c #73371B",
"0  c #7C3818",
"q  c #783719",
"w  c #432323",
"e  c #432E23",
"r  c #4A2F22",
"t  c #4F2121",
"y  c #542020",
"u  c #4D3022",
"i  c #543120",
"p  c #433F39",
"a  c #403D37",
"s  c #7E3B26",
"d  c #693728",
"f  c #45413B",
"g  c #4A453D",
"h  c #1E2F5B",
"j  c #212D4B",
"k  c #233644",
"l  c #22394A",
"z  c #273545",
"x  c #213D52",
"c  c #243051",
"v  c #303256",
"b  c #1A316D",
"n  c #1B3067",
"m  c #173278",
"M  c #27367A",
"N  c #33376E",
"B  c #1F415B",
"V  c #1D4562",
"C  c #1B4A6C",
"Z  c #1C4867",
"A  c #1A4E73",
"S  c #18527B",
"D  c #32556D",
"F  c #4C4945",
"G  c #4C4C4A",
"H  c #434547",
"J  c #544D43",
"K  c #514F4C",
"L  c #595146",
"P  c #555555",
"I  c #5A5E5B",
"U  c #4C514F",
"Y  c #635A4D",
"T  c #625546",
"R  c #685E50",
"E  c #7D5F47",
"W  c #6B6152",
"Q  c #666257",
"!  c #766A58",
"~  c #7E715D",
"^  c #455073",
"/  c #496676",
"(  c #646A67",
")  c #6F7470",
"_  c #851717",
"`  c #891515",
"'  c #971313",
"]  c #8A3B15",
"[  c #843B19",
"{  c #923D14",
"}  c #9A3E12",
"|  c #943E19",
" . c #CC0808",
".. c #9E4418",
"X. c #A9410F",
"o. c #B2430D",
"O. c #BC450B",
"+. c #814324",
"@. c #C54609",
"#. c #CE4808",
"$. c #CB4709",
"%. c #DA4A06",
"&. c #D14808",
"*. c #D44907",
"=. c #E34C04",
"-. c #EB4E02",
";. c #F24F01",
":. c #F85000",
">. c #F75000",
",. c #8A6F55",
"<. c #877963",
"1. c #8C7C66",
"2. c #837664",
"3. c #94836A",
"4. c #9A896E",
"5. c #9D8264",
"6. c #9D8C73",
"7. c #9C907A",
"8. c #A28F73",
"9. c #A89579",
"0. c #163382",
"q. c #133695",
"w. c #0D38A8",
"e. c #173EA7",
"r. c #0C3AB2",
"t. c #0A3AB8",
"y. c #165684",
"u. c #155A8D",
"i. c #165887",
"p. c #145E93",
"a. c #154086",
"s. c #12629C",
"d. c #126097",
"f. c #286894",
"g. c #0F6BAD",
"h. c #1066A4",
"j. c #1B6DA7",
"k. c #0E6DB2",
"l. c #0C6FB8",
"z. c #0C72BC",
"x. c #0C70B7",
"c. c #106EB2",
"v. c #4F639F",
"b. c #6D7494",
"n. c #063CC9",
"m. c #033EDA",
"M. c #013FE3",
"N. c #1247D4",
"B. c #087ACD",
"V. c #0A75C3",
"C. c #077DD3",
"Z. c #087DD1",
"A. c #0040E7",
"S. c #0582DD",
"D. c #0486E3",
"F. c #0289EB",
"G. c #008EF4",
"H. c #0090F8",
"J. c #6B82CD",
"K. c #AF9D80",
"L. c #BBA583",
"P. c #BCA684",
"I. c #A49FA7",
"U. c #A4A1A7",
"Y. c #B7B4B9",
"T. c #C2AA87",
"R. c #C5AD8A",
"E. c #CCB38D",
"W. c #D0B68F",
"Q. c #D4BA92",
"!. c #D9BE95",
"~. c #C4B8B5",
"^. c #DFC399",
"/. c #DDC197",
"(. c #E2C59B",
"). c #E9CB9E",
"_. c #ECCEA0",
"`. c #F5D5A6",
"'. c #F8D8A8",
"]. c #F7D7A8",
"[. c #EBD6B8",
"{. c #A2B1D9",
"}. c #CDCDD5",
"|. c #F7E3C4",
" X c #F7EFE2",
".X c None",
/* pixels */
".X.X.X.X.X.X.X.X.X.X.X.X.X.X.X.X.X.X.X.X.X.X.X.X.X.X.X.X.X.X.X.X.X.X.X.X.X.X.X.X.X.X.X.X.X.X.X.X.X.X.X.X.X.X.X.X.X.X.X.X.X.X.X.X",
".X.X.X.X.X.X.X.X.X.X.X.X.X.X.X.X.X.X.X.X.X.X.X.X.X.X.X.X.X.X.X.X.X.X.X.X.X.X.X.X.X.X.X.X.X.X.X.X.X.X.X.X.X.X.X.X.X.X.X.X.X.X.X.X",
".X.X.X.X.X.X.X.X.X.X.X.X.X.X.X.X.X.X.X.X.X.X.X.X.X.X.X.X.X.X.X.X.X.X.X.X.X.X.X.X.X.X.X.X.X.X.X.X.X.X.X.X.X.X.X.X.X.X.X.X.X.X.X.X",
".X.X.X.X.X.X.X.X.X.X.X.X.X.X.X.X.X.X.X.X.X. .X.X.X.X.X.X.X.X.X.X.X.X.X.X.X.X.X.X.X.X.X.X.X.X.X.X.X.X.X.X.X.X.X.X.X.X.X.X.X.X.X.X",
".X.X.X.X.X.X.X.X.X.X.X.X.X.X.X.X.X.X.X.X.X. . .X.X.X.X.X.X.X.X. .X.X.X.X.X.X.X.X.X.X.X.X.X.X.X.X.X.X.X.X.X.X.X.X.X.X.X.X.X.X.X.X",
".X.X.X.X.X.X.X.X.X.X.X.X.X.X.X.X.X.X.X.X.X- C l .X.X.X.X.X.X.X. . .X.X.X.X.X.X.X.X.X.X.X.X.X.X.X.X.X.X.X.X.X.X.X.X.X.X.X.X.X.X.X",
".X.X.X.X.X.X.X.X.X.X.X.X.X.X.X.X.X.X.X.X.XB B.A l l .X.X.X.X.X. - k .X.X.X.X.X.X.X.X.X.X.X.X.X.X.X.X.X.X.X.X.X.X.X.X.X.X.X.X.X.X",
".X.X.X.X.X.X.X.X.X.X.X.X.X.X.X.X.X.X.X.X.XB D.D.S.g.k % % % .X. p.h.- .X.X.X.X.X. .X.X.X.X.X.X.X.X.X.X.X.X.X.X.X.X.X.X.X.X.X.X.X",
".X.X.X.X.X.X.X.X.X.X.X.X.X.X.X.X.X.X.X.X.XB D.H.H.D.l.k.k.p.% . h.D.h.k .X.X.X.X. . .X.X.X.X.X.X.X.X.X.X.X.X.X.X.X.X.X.X.X.X.X.X",
".X.X.X.X.X.X.X.X.X.X.X.X.X.X.X.X.X.X.X.X.XB D.H.H.H.F.k.s.p.A - h.H.D.p.B .X.X.X. . .X.X.X.X.X.X.X.X.X.X.X.X.X.X.X.X.X.X.X.X.X.X",
".X.X.X.X.X.X.X.X.X.X.X.X.X.X.X.X.X.X.X.X.XB S.S.D.H.D.A x S k.l h.H.H.F.A . .X.Xl k .X.X.X.X.X.X.X.X.X.X.X.X.X.X.X.X.X.X.X.X.X.X",
".X.X.X.X.X.X.X.X.X.X.X.X.X.X.X.X.X. .X.X.XB C.C s.F.G.D.S.k.x % h.H.H.G.S % .Xk g.p.. .X: > > .X.X.X.X.X.X.X.X.X.X.X.X.X.X.X.X.X",
".X.X.X.X.X.X.X.X.X.X.X.X.X.X.X.X.X. . .X.XV Z.B l p.F.H.H.D.g.z h.H.H.H.C.u.l k.D.s.. > 4.L.4., .X.X.X.X.X.X.X.X.X.X.X.X.X.X.X.X",
".X.X.X.X.X.X.X.X.X.X.X.X.X.X.X.X.X- S x . x Z.B x p.p.p.Z.H.F.h.B.H.H.H.H.h.l S.H.s., <.!.'./.1.g .X.X.X.X.X.X.X.X.X.X.X.X.X.X.X",
".X.X.X.X.X.X.X.X.X.X.X.X.X.X.X.X.Xx C.y.z B Z.B p.B.Z x p.C.G.H.H.H.H.H.H.h.l S.H.s.J /.Q.(.'.).~ g .X.X.X.X.X.X.X.X.X.X.X.X.X.X",
".X.X.X.X.X.X.X.X.X.X.X.X.X.X.X.X.Xx S.F.p.V V.x p.G.D.F.p.y.G.H.H.H.H.H.H.g.B D.F.s.U R.! 8.'.`.).2.. .X.X.X.X.X.X.X.X.X.X.X.X.X",
".X.X.X.X.X.X.X.X.X.X.X.X.X.X.X.X.Xx S.H.S.g.V % p.H.H.G.S.C.G.H.H.G.H.H.H.D.B.F.u.u.j.I 9.!.'.'.`.1.. .X.X.X.X.X.X.X.X.X.X.X.X.X",
".X.X.X.X.X.X.X.X.X.X.X.X.X.X.X.X.Xk u.S.H.D.p.k p.S.h.D.H.H.H.H.H.Z.p.p.C.B.u.i.l x S ; ! R.'._.8.Y .X.X.X.X.X.X.X.X.X.X.X.X.X.X",
".X.X.X.X.X.X.X.X.X.X.X.X.X.X.X.X.X.X; z.H.H.F.y.p.h.A g.z.Z.G.H.H.V.V V s.s.V V V l . X j b.Y.I.G .X.X.X.X.X.X.X.X.X.X.X.X.X.X.X",
".X.X.X.X.X.X.X.X.X.X.X.X.X.X.X.X.X.X% k.F.H.G.F.d.A l.C x i.F.D.F.G.F.D.y.y.C.D.F.s.- & w.m.N.N.c .X.X.X.X.X.X.X.X.X.X.X.X.X.X.X",
".X.X.X.X.X.X.X.X.X.X.X.X.X.X.X.X.X.X.Xl h.G.H.H.D.g.Z l.Z.C.S.A x.H.H.G.S.s.A D.G.D.g.c t.A.n.c .X.X.X.X.X.X.X.X.X.X.X.X.X.X.X.X",
".X.X.X.X.X.X.X.X.X.X.X.X.X.X.X.X.X.X. . x h.F.H.z.i.h.D.H.Z.y.; V g.G.H.H.Z.s.u.C.H.D.h.a.v.b.1 .X.X.X.X.X.X.X.X.X.X.X.X.X.X.X.X",
".X.X.X.X.X.X.X.X.X.X.X.X.X.X.X.X.X.X. . k u.D.V.C V F.H.C.f.Q W Q / c.x.D.G.S.y.h.C.H.F.V W 4.> .X.X.X.X.X.X.X.X.X.X.X.X.X.X.X.X",
".X.X.X.X.X.X.X.X.X.X.X.X.X.X.X.X.X.X.X. S S.D.Z > D Z.G.u.Q (.)._.K.G H j.D.G.D.y.u.S.D.V   # .X.X.X.X.X.X.X.X.X.X.X.X.X.X.X.X.X",
".X.X.X.X.X.X.X.X.X.X.X.X.X.X.X.X.X.X.X.Xk A C.B 2.9.D C.y.R ).'.'._.Q.E.( d.G.G.S.s.C C.B . . .X.X.X.X.X.X.X.X.X.X.X.X.X.X.X.X.X",
".X.X.X.X.X.X.X.X.X.X.X.X.X.X.X.X.X.X.X.X.Xk C - 3.(.7.D l p <.(.'.'.].`.R.) p.F.H.s.- C k . .X.X.X.X.X.X.X.X.X.X.X.X.X.X.X.X.X.X",
".X.X.X.X.X.X.X.X.X.X.X.X.X.X.X.X.X.X.X.X.X.X. . 3.'._.3.g . , 3.9.E.`.].'.T.( j.S.s.. . . .X.X.X.X.X.X.X.X.X.X.X.X.X.X.X.X.X.X.X",
".X.X.X.X.X.X.X.X.X.X.X.X.X.X.X.X.X.X.X.X.X.X.X. 1.Q.Q._.3.a @ F K 2.Q.!.).`.E.H h.f.f   .X.X.X.X.X.X.X.X.X.X.X.X.X.X.X.X.X.X.X.X",
".X.X.X.X.X.X.X.X.X.X.X.X.X.X.X.X.X.X.X.X.X.X.X.X, F T W.(.8.K Y.}.U.F G L.'.Q.f - ) 9., .X.X.X.X.X.X.X.X.X.X.X.X.X.X.X.X.X.X.X.X",
".X.X.X.X.X.X.X.X.X.X.X.X.X.X.X.X.X.X. . .X.X.X.X. u ..E L.(.T.[. X{.e.e.U.'.Q.f . g R .X.X.X.X.X.X.X.X.X.X.X.X.X.X.X.X.X.X.X.X.X",
".X.X.X.X.X.X.X.X.X.X.X.X.X.X.X.X.Xp ! 2.Y .X.Xb m v ..[ ,.T._.'.|.}.J.J.~.Q.1.> . . .X.X.X.X.X.X.X.X.X.X.X.X.X.X.X.X.X.X.X.X.X.X",
".X.X.X.X.X.X.X.X.X.X.X.X.X.Xg F , F P._.3.. & t.M.r.= #.] T E.W.).`.].].^.5.u   . .X.X.X.X.X.X.X.X.X.X.X.X.X.X.X.X.X.X.X.X.X.X.X",
".X.X.X.X.X.X.X.X.X.X.X.X.Xg P.E.<.  g L.1.  ; r.M.r.= #.] $ p H 9._._.).~ +.O.e .X.X.X.X.X.X.X.X.X.X.X.X.X.X.X.X.X.X.X.X.X.X.X.X",
".X.X.X.X.X.X.X.X.X.X.X.X.X.XY W g . @ J F g 6.^ w.r.= &.*.] * q.^ R R R a 0 &.e .X.X.X.X.X.X.X.X.X.X.X.X.X.X.X.X.X.X.X.X.X.X.X.X",
".X.X.X.X.X.X.X.X.X.X.X.X.X.X  W 1.! # . . L !.8.^ N 0 | #.*.s M 0.0.0.m j 0 &.e .X.X.X.X.X.X.X.X.X.X.X.X.X.X.X.X.X.X.X.X.X.X.X.X",
".X.X.X.X.X.X.X.X.X.X.X.X.X.X# 6.E.9., . . L ^.Q.~ i o.8 o.:.=.9 0.n.A.A.n 0 &.e .X.X.X.X.X.X.X.X.X.X.X.X.X.X.X.X.X.X.X.X.X.X.X.X",
".X.X.X.X.X.X.X.X.X.X.X.X.X.X.X, f g ,   . J R.W :   r o.=.;.=.*.d m m.m.b 0 &.e .X.X.X.X.X.X.X.X.X.X.X.X.X.X.X.X.X.X.X.X.X.X.X.X",
".X.X.X.X.X.X.X.X.X.X.X.X.X.X.X. W T.L.J . > J .X. .   6 o.$.8 5 + & n n.b 0 &.e .X.X.X.X.X.X.X.X.X.X.X.X.X.X.X.X.X.X.X.X.X.X.X.X",
".X.X.X.X.X.X.X.X.X.X.X.X.X.X.X.XL 3.1.J .X.X.X.X. . . . 7 ] { { { ] s M j i 0 + .X.X.X.X.X.X.X.X.X.X.X.X.X.X.X.X.X.X.X.X.X.X.X.X",
".X.X.X.X.X.X.X.X.X.X.X.X.X.X.X.X.X. . .X.X.X.X.X.X. . . . 8 -.:.:.:.=.9 + j j X .X.X.X.X.X.X.X.X.X.X.X.X.X.X.X.X.X.X.X.X.X.X.X.X",
".X.X.X.X.X.X.X.X.X.X.X.X.X.X.X.X.X.X.X.X.X.X.X.X.X.X. . . 8 -.:.:.:.;.=.8 n w.& .X.X.X.X.X.X.X.X.X.X.X.X.X.X.X.X.X.X.X.X.X.X.X.X",
".X.X.X.X.X.X.X.X.X.X.X.X.X.X.X.X.X.X.X.X.X.X.X.X.X.X. . . 8 -.:.:.:.:.;.9 & j . . . . . . .X.X.X.X.X.X.X.X.X.X.X.X.X.X.X.X.X.X.X",
".X.X.X.X.X.X.X.X.X.X.X.X.X.X.X.X.X.X.X.X.X.X.X.X.X.X. . 7 } [ ] #.:.:.;.9 . + ] } } } } } 8 . .X.X.X.X.X.X.X.X.X.X.X.X.X.X.X.X.X",
".X.X.X.X.X.X.X.X.X.X.X.X.X.X.X.X.X.X.X.X.X.X.X.X.X.X. . q ] + 5 O.:.-.O.5 . e X.=.:.:.:.>.o.8 7 .X.X.X.X.X.X.X.X.X.X.X.X.X.X.X.X",
".X.X.X.X.X.X.X.X.X.X.X.X.X.X.X.X.X.X.X.X.X.X.X.X.X.X. .   o e o.%.%.@.r   . . + X.-.:.:.:.;.-.%.i .X.X.X.X.X.X.X.X.X.X.X.X.X.X.X",
".X.X.X.X.X.X.X.X.X.X.X.X.X.X.X.X.X.X.X.X.X.X.X.X.X.X. . . .   e u u r . . . . . r } ;.>.:.:.:.=.5 .X.X.X.X.X.X.X.X.X.X.X.X.X.X.X",
".X.X.X.X.X.X.X.X.X.X.X.X.X.X.X.X.X.X.X.X.X.X.X.X.X.X. . . . . . . . . . . . .   q { } -.:.:.:.=.6 . .X.X.X.X.X.X.X.X.X.X.X.X.X.X",
".X.X.X.X.X.X.X.X.X.X.X.X.X.X.X.X.X.X.X.X.X.X.X.X.X.X. . . . . 2 t . . . . . .   [ { ] -.:.:.:.=.6 . . .X.X.X.X.X.X.X.X.X.X.X.X.X",
".X.X.X.X.X.X.X.X.X.X.X.X.X.X.X.X.X.X.X.X.X.X.X.X.X.X.X. . . w  .3 . . . . . . .   0 %.>.:.;.-.$.i . . .X.X.X.X.X.X.X.X.X.X.X.X.X",
".X.X.X.X.X.X.X.X.X.X.X.X.X.X.X.X.X.X.X.X.X.X.X.X.X.X.X. . . w  .3 . . .X.X.X. . . O 8 %.;.;.$.i   . . .X.X.X.X.X.X.X.X.X.X.X.X.X",
".X.X.X.X.X.X.X.X.X.X.X.X.X.X.X.X.X.X.X.X.X.X.X.X.X.X.X. . . o 2 ' 3   . .X.X. . . . O 8 q q 7   . . .X.X.X.X.X.X.X.X.X.X.X.X.X.X",
".X.X.X.X.X.X.X.X.X.X.X.X.X.X.X.X.X.X.X.X.X.X.X.X.X.X.X. . . . . 4 3 . . .X.X. . . . . . . . . . . .X.X.X.X.X.X.X.X.X.X.X.X.X.X.X",
".X.X.X.X.X.X.X.X.X.X.X.X.X.X.X.X.X.X.X.X.X.X.X.X.X.X.X.   : : : : : @ . .X.X. . . . . . . . . . .X.X.X.X.X.X.X.X.X.X.X.X.X.X.X.X",
".X.X.X.X.X.X.X.X.X.X.X.X.X.X.X.X.X.X.X.X.X.X.X.X.X.X.X. H P P P P P K : .X.X. . . . . o . . . .X.X.X.X.X.X.X.X.X.X.X.X.X.X.X.X.X",
".X.X.X.X.X.X.X.X.X.X.X.X.X.X.X.X.X.X.X.X.X.X.X.X.X.X.X. : < < < < < < .X.X.X. . . . w ' t . .X.X.X.X.X.X.X.X.X.X.X.X.X.X.X.X.X.X",
".X.X.X.X.X.X.X.X.X.X.X.X.X.X.X.X.X.X.X.X.X.X.X.X.X.X.X.X. . . . . . .X.X.X.X. . . y ` ' y .X.X.X.X.X.X.X.X.X.X.X.X.X.X.X.X.X.X.X",
".X.X.X.X.X.X.X.X.X.X.X.X.X.X.X.X.X.X.X.X.X.X.X.X.X.X.X.X.X.X.X.X.X.X.X.X.X.X. . . _  .w .X.X.X.X.X.X.X.X.X.X.X.X.X.X.X.X.X.X.X.X",
".X.X.X.X.X.X.X.X.X.X.X.X.X.X.X.X.X.X.X.X.X.X.X.X.X.X.X.X.X.X.X.X.X.X.X.X.X.X. . . _  .w .X.X.X.X.X.X.X.X.X.X.X.X.X.X.X.X.X.X.X.X",
".X.X.X.X.X.X.X.X.X.X.X.X.X.X.X.X.X.X.X.X.X.X.X.X.X.X.X.X.X.X.X.X.X.X.X.X.X.X.X. . `  .w .X.X.X.X.X.X.X.X.X.X.X.X.X.X.X.X.X.X.X.X",
".X.X.X.X.X.X.X.X.X.X.X.X.X.X.X.X.X.X.X.X.X.X.X.X.X.X.X.X.X.X.X.X.X.X.X.X.X.X.X.X. y 3 o .X.X.X.X.X.X.X.X.X.X.X.X.X.X.X.X.X.X.X.X",
".X.X.X.X.X.X.X.X.X.X.X.X.X.X.X.X.X.X.X.X.X.X.X.X.X.X.X.X.X.X.X.X.X.X.X.X.X.X.X.X. . . . .X.X.X.X.X.X.X.X.X.X.X.X.X.X.X.X.X.X.X.X",
".X.X.X.X.X.X.X.X.X.X.X.X.X.X.X.X.X.X.X.X.X.X.X.X.X.X.X.X.X.X.X.X.X.X.X.X.X.X.X.X.X.X.X.X.X.X.X.X.X.X.X.X.X.X.X.X.X.X.X.X.X.X.X.X",
".X.X.X.X.X.X.X.X.X.X.X.X.X.X.X.X.X.X.X.X.X.X.X.X.X.X.X.X.X.X.X.X.X.X.X.X.X.X.X.X.X.X.X.X.X.X.X.X.X.X.X.X.X.X.X.X.X.X.X.X.X.X.X.X",
".X.X.X.X.X.X.X.X.X.X.X.X.X.X.X.X.X.X.X.X.X.X.X.X.X.X.X.X.X.X.X.X.X.X.X.X.X.X.X.X.X.X.X.X.X.X.X.X.X.X.X.X.X.X.X.X.X.X.X.X.X.X.X.X"
};
