/* XPM */
static char *result[] = {
/* columns rows colors chars-per-pixel */
"64 64 186 2 ",
"   c #292929",
".  c #272C2F",
"X  c #332727",
"o  c #332B27",
"O  c #3C2C25",
"+  c #332C29",
"@  c #3B2525",
"#  c #262E34",
"$  c #2A2C36",
"%  c #2A2C39",
"&  c #382E35",
"*  c #25323C",
"=  c #263037",
"-  c #343331",
";  c #393633",
":  c #3A3B3C",
">  c #393736",
",  c #5F1E1E",
"<  c #661C1C",
"1  c #5D331E",
"2  c #64341D",
"3  c #6D361B",
"4  c #71361B",
"5  c #7B3818",
"6  c #462E23",
"7  c #4A2F22",
"8  c #462323",
"9  c #483328",
"0  c #523020",
"q  c #513A2D",
"w  c #453E37",
"e  c #563F31",
"r  c #4A453D",
"t  c #46423B",
"y  c #55423F",
"u  c #7A4D32",
"i  c #1F305B",
"p  c #243643",
"a  c #233847",
"s  c #223A4C",
"d  c #2B3841",
"f  c #203E53",
"g  c #222D4D",
"h  c #17337D",
"j  c #1C3064",
"k  c #2A3966",
"l  c #44375A",
"z  c #1E425C",
"x  c #1F4057",
"c  c #334754",
"v  c #1D4664",
"b  c #1C4867",
"n  c #1B4A6C",
"m  c #1A4D72",
"M  c #18527B",
"N  c #18527B",
"B  c #274F6B",
"V  c #2D5B7A",
"C  c #454441",
"Z  c #554C44",
"A  c #525151",
"S  c #645B4D",
"D  c #645D54",
"F  c #6D6254",
"G  c #726756",
"H  c #746957",
"J  c #796D5A",
"K  c #776E5E",
"L  c #595E75",
"P  c #586669",
"I  c #5B6F76",
"U  c #7E7769",
"Y  c #7D7870",
"T  c #8E1515",
"R  c #9D1212",
"E  c #B00E0E",
"W  c #8D3B15",
"Q  c #8D3D1C",
"!  c #933D14",
"~  c #9A3F13",
"^  c #903D1A",
"/  c #A23F11",
"(  c #AB420F",
")  c #B3430E",
"_  c #BB440C",
"`  c #B54510",
"'  c #A54010",
"]  c #8D5433",
"[  c #814C2E",
"{  c #CA4709",
"}  c #C4460A",
"|  c #D94A06",
" . c #D14808",
".. c #E64D03",
"X. c #EB4D02",
"o. c #F34F00",
"O. c #F85000",
"+. c #F75000",
"@. c #8C7D66",
"#. c #897A64",
"$. c #93836A",
"%. c #9B896F",
"&. c #99846A",
"*. c #8A8678",
"=. c #9B8A71",
"-. c #958875",
";. c #A48C6D",
":. c #A08E72",
">. c #A69376",
",. c #AA967A",
"<. c #AD997A",
"1. c #AE9474",
"2. c #B29D7D",
"3. c #113699",
"4. c #0E38A5",
"5. c #0D39AC",
"6. c #0F37A0",
"7. c #0C3BB8",
"8. c #1138A0",
"9. c #175582",
"0. c #155A8B",
"q. c #1A5987",
"w. c #135E94",
"e. c #26469D",
"r. c #11639E",
"t. c #17639A",
"y. c #33688B",
"u. c #304EA3",
"i. c #0E6AAC",
"p. c #1066A4",
"a. c #1068A8",
"s. c #176BA7",
"d. c #0D6EB4",
"f. c #0D70B7",
"g. c #0C72BC",
"h. c #57638F",
"j. c #75788F",
"k. c #033ED9",
"l. c #013FE3",
"z. c #0C44D8",
"x. c #2354DA",
"c. c #335DD2",
"v. c #0A76C4",
"b. c #0979CB",
"n. c #0978C7",
"m. c #077ED4",
"M. c #097FD5",
"N. c #0040E8",
"B. c #7D88B5",
"V. c #0582DB",
"C. c #0386E4",
"Z. c #028AEC",
"A. c #0388E7",
"S. c #018DF3",
"D. c #0090F8",
"F. c #7285C7",
"G. c #8D8784",
"H. c #9C9A99",
"J. c #9E9286",
"K. c #AC9D82",
"L. c #BBA584",
"P. c #B8AEAD",
"I. c #C6AE89",
"U. c #C1AA87",
"Y. c #CBB28D",
"T. c #D6BC94",
"R. c #D0B68F",
"E. c #C3B8B5",
"W. c #C3B3A4",
"Q. c #DCC096",
"!. c #DEC298",
"~. c #E2C69B",
"^. c #E9CB9F",
"/. c #E6C99D",
"(. c #D5C4B1",
"). c #CDC4B7",
"_. c #ECCEA2",
"`. c #EFD0A2",
"'. c #F4D5A6",
"]. c #F8D8A8",
"[. c #F2D4A9",
"{. c #F3D9B3",
"}. c #8792C5",
"|. c #E1DBD1",
" X c #F6E0C0",
".X c None",
/* pixels */
".X.X.X.X.X.X.X.X.X.X.X.X.X.X.X.X.X.X.X.X.X.X.X.X.X.X.X.X.X.X.X.X.X.X.X.X.X.X.X.X.X.X.X.X.X.X.X.X.X.X.X.X.X.X.X.X.X.X.X.X.X.X.X.X",
".X.X.X.X.X.X.X.X.X.X.X.X.X.X.X.X.X.X.X.X.X.X.X.X.X.X.X.X.X.X.X.X.X.X.X.X.X.X.X.X.X.X.X.X.X.X.X.X.X.X.X.X.X.X.X.X.X.X.X.X.X.X.X.X",
".X.X.X.X.X.X.X.X.X.X.X.X.X.X.X.X.X.X.X.X.X.X.X.X.X.X.X.X.X.X.X.X.X.X.X.X.X.X.X.X.X.X.X.X.X.X.X.X.X.X.X.X.X.X.X.X.X.X.X.X.X.X.X.X",
".X.X.X.X.X.X.X.X.X.X.X.X.X.X.X.X.X.X.X.X.X.X.X.X.X.X.X.X.X.X.X.X.X.X.X.X.X.X.X.X.X.X.X.X.X.X.X.X.X.X.X.X.X.X.X.X.X.X.X.X.X.X.X.X",
".X.X.X.X.X.X.X.X.X.X.X.X.X.X.X.X.X.X.X.X.X.X.X.X.X.X.X.X.X.X.X.X.X.X.X.X.X.X.X.X.X.X.X.X.X.X.X.X.X.X.X.X.X.X.X.X.X.X.X.X.X.X.X.X",
".X.X.X.X.X.X.X.X.X.X.X.X.X.X.X.X.X.X.X.X.X.X.X.X.X.X.X.X.X.X.X.X.X.X.X.X.X.X.X.X.X.X.X.X.X.X.X.X.X.X.X.X.X.X.X.X.X.X.X.X.X.X.X.X",
".X.X.X.X.X.X.X.X.X.X.X.X.X.X.X.X.X.X.X.X.X.X.X.X.X.X.X.X.X.X.X.X.X.X.X.X.X.X.X.X.X.X.X.X.X.X.X.X.X.X.X.X.X.X.X.X.X.X.X.X.X.X.X.X",
".X.X.X.X.X.X.X.X.X.X.X.X.X.X.X.X.X.X.X.X.X.X.X.X.X.X.X.X.X.X.X.X.X.X.X.X.X.X.X.X.X.X.X.X.X.X.X.X.X.X.X.X.X.X.X.X.X.X.X.X.X.X.X.X",
".X.X.X.X.X.X.X.X.X.X.X.X.X.X.X.X.X.X.X.X.X.X.X.X.X.X.X.X.X.X.X.X.X.X.X.X.X.X.X.X.X.X.X.X.X.X.X.X.X.X.X.X.X.X.X.X.X.X.X.X.X.X.X.X",
".X.X.X.X.X.X.X.X.X.X.X.X.X.X.X.X.X.X.X.X.X.X.X.X.X.X.X.X.X.X.X.X.X.X.X.X.X.X.X.X.X.X.X.X.X.X.X.X.X.X.X.X.X.X.X.X.X.X.X.X.X.X.X.X",
".X.X.X.X.X.X.X.X.X.X.X.X.X.X.X.X.X.X.X.X.X.X.X.X.X.X.X.X.X.X.X.X.X.X.X.X.X.X.X.X.X.X.X.X.X.X.X.X.X.X.X.X.X.X.X.X.X.X.X.X.X.X.X.X",
".X.X.X.X.X.X.X.X.X.X.X.X.X.X.X.X.X.X.X.X.X.X.X.X.X.X.X.X.X.X.X.X.X.X.X.X.X.X.X.X.X.X.X.X.X.X.X.X.X.X.X.X.X.X.X.X.X.X.X.X.X.X.X.X",
".X.X.X.X.X.X.X.X.X.X.X.X.X.X.X.X.X.X.X.X.X.X.X.X.X.X.X.X.X.X.X.X.X.X.X.X.X.X.X.X.X.X.X.X.X.X.X.X.X.X.X.X.X.X.X.X.X.X.X.X.X.X.X.X",
".X.X.X.X.X.X.X.X.X.X.X.X.X.X.X.X.X.X.X.X.X.X.X.X.X.X.X.X.X.X.X.X.X.X.X.X.X.X.X.X.X.X.X.X.X.X.X.X.X.X.X.X.X.X.X.X.X.X.X.X.X.X.X.X",
".X.X.X.X.X.X.X.X.X.X.X.X.X.X.X.X.X.X.X.X.X.X.X.X.X.X.X.X.X.X.X.X.X.X.X.X.X.X.X.X.X.X.X.X.X.X.X.X.X.X.X.X.X.X.X.X.X.X.X.X.X.X.X.X",
".X.X.X.X.X.X.X.X.X.X.X.X.X.X.X.X.X.X.X.X.X.X.X.X.X.X.X.X.X.X.X.X.X.X.X.X.X.X.X.X.X.X.X.X.X.X.X.X.X.X.X.X.X.X.X.X.X.X.X.X.X.X.X.X",
".X.X.X.X.X.X.X.X.X.X.X.X.X.X.X.X.X.X.X.X.X.X.X.X.X.X.X.X.X.X.X.X.X.X.X.X.X.X.X.X.X.X.X.X.X.X.X.X.X.X.X.X.X.X.X.X.X.X.X.X.X.X.X.X",
".X.X.X.X.X.X.X.X.X.X.X.X.X.X.X.X.X.X.X.X.X.X.X.X.X.X.X.X.X.X.X.X.X.X.X.X.X.X.X.X.X.X.X.X.X.X.X.X.X.X.X.X.X.X.X.X.X.X.X.X.X.X.X.X",
".X.X.X.X.X.X.X.X.X.X.X.X.X.X.X.X.X.X.X.X.X.X.X.X.X.X.X.X.X.X.X.X.X.X.X.X.X.X.X.X.X.X.X.X.X.X.X.X.X.X.X.X.X.X.X.X.X.X.X.X.X.X.X.X",
".X.X.X.X.X.X.X.X.X.X.X.X.X.X.X.X.X.X.X.X.X.X.X.X.X.X.X.X.X    .X.X.X.X.X.X.X.X.X.X.X.X.X.X.X.X.X.X.X.X.X.X.X.X.X.X.X.X.X.X.X.X.X",
".X.X.X.X.X.X.X.X.X.X.X.X.X.X.X.X.X.X.X.X.X.X.X.X.X.X.X.X.X        .X.X.X.X.X.X.X.X.X.X  .X.X.X.X.X.X.X.X.X.X.X.X.X.X.X.X.X.X.X.X",
".X.X.X.X.X.X.X.X.X.X.X.X.X.X.X.X.X.X.X.X.X.X.X.X.X.X.X.X.Xn 9.N 9.n .X.X.X.X.X.X.X.X.X    .X.X.X.X.X.X.X.X.X.X.X.X.X.X.X.X.X.X.X",
".X.X.X.X.X.X.X.X.X.X.X.X.X.X.X.X.X.X.X.X.X.X.X.X.X.X.X.X* d.Z.S.Z.d.s p p p .X.X.X.X.X  * * .X.X.X.X.X.X.X.X.X.X.X.X.X.X.X.X.X.X",
".X.X.X.X.X.X.X.X.X.X.X.X.X.X.X.X.X.X.X.X.X.X.X.X.X.X.X.X* f.D.D.D.A.b.v.v.f.z     .X.X* t.w.# .X.X.X.X.X.X.X.X.X.X.X.X.X.X.X.X.X",
".X.X.X.X.X.X.X.X.X.X.X.X.X.X.X.X.X.X.X.X.X.X.X.X.X.X.X.X* f.V.i.V.D.D.D.D.Z.a.9.M f   * g.b.9.f .X.X.X.X.X.X.X.X.X.X.X.X.X.X.X.X",
".X.X.X.X.X.X.X.X.X.X.X.X.X.X.X.X.X.X.X.X.X.X.X.X.X.X.X.X* f.d.f f.D.D.D.D.D.S.S.V.N = * g.S.V.N * .X.X.X.X.X.X.X.X.X.X.X.X.X.X.X",
".X.X.X.X.X.X.X.X.X.X.X.X.X.X.X.X.X.X.X.X.X.X.X.X.X.X    * f.i.s f.D.D.D.D.D.S.D.S.m.0.a g.D.S.m.w.# .X.X.X.X.X  .X.X.X.X.X.X.X.X",
".X.X.X.X.X.X.X.X.X.X.X.X.X.X.X.X.X.X.X.X.X.X.X.X.X.X  a N t.m p f.D.D.D.D.D.D.D.D.D.i.s g.D.D.D.i.= .X.X.X.X    .X.X.X.X.X.X.X.X",
".X.X.X.X.X.X.X.X.X.X.X.X.X.X.X.X.X.X.X.X.X.X.X    .X  n m.M p * a.C.S.D.D.D.D.D.D.D.d.z v.D.D.D.i.# .X.X.Xp =   .X.X.X.X.X.X.X.X",
".X.X.X.X.X.X.X.X.X.X.X.X.X.X.X.X.X.X.X.X.X.X.X        m C.m.0.* s w.S.S.D.D.D.D.D.D.A.m.A.D.D.D.a.# .X.X* p.0.# .X.X.X.X.X.X.X.X",
".X.X.X.X.X.X.X.X.X.X.X.X.X.X.X.X.X.X.X.X.X.X.X  a m p m A.D.b.0.M 0.r.p.g.S.D.D.D.D.D.D.D.D.D.D.b.9.s z 0.m.a.# .X.X.X.X.X.X.X.X",
".X.X.X.X.X.X.X.X.X.X.X.X.X.X.X.X.X.X.X.X.X.X.X  n m.b m A.D.S.S.S.d.f s 9.m.S.D.D.D.D.D.D.D.S.C.C.V.b m A.D.a.# .X.X.X.X.X.X.X.X",
".X.X.X.X.X.X.X.X.X.X.X.X.X.X.X.X.X.X.X.X.X.X.X  m m.n m A.D.D.D.D.A.n.v.p.m n.D.D.D.D.D.D.D.A.0.t.V.v m A.D.a.# .X.X.X.X.X.X.X.X",
".X.X.X.X.X.X.X.X.X.X.X.X.X.X.X.X.X.X.X.X.X.X.X  m V.a.0.a.V.D.Z.g.g.S.D.b.w.m.D.D.D.D.D.D.D.V.v m m.v M A.f.M # .X.X.X.X.X.X.X.X",
".X.X.X.X.X.X.X.X.X.X.X.X.X.X.X.X.X.X.X.X.X.X.X  n m.A.d.b i.C.C.9.N m.S.Z.m.m.A.D.D.D.D.D.D.C.v n g.z m m.b . .X.X.X.X.X.X.X.X.X",
".X.X.X.X.X.X.X.X.X.X.X.X.X.X.X.X.X.X.X.X.X.X.X.X.Xb v.A.v.M w.A.m.p.m v.g.b z w.Z.D.D.D.D.D.C.v * s * N m.v   .X.X.X.X.X.X.X.X.X",
".X.X.X.X.X.X.X.X.X.X.X.X.X.X.X.X.X.X.X.X.X.X.X.X  # m g.A.p.i.S.S.m.0.w.w.9.9.i.S.D.D.Z.f.g.A.a.9.9.9.0.w.f .X.X.X.X.X.X.X.X.X.X",
".X.X.X.X.X.X.X.X.X.X.X.X.X.X.X.X.X.X.X.X.X.X        # n m.A.S.S.D.Z.b.m 0.A.S.S.D.D.D.A.M 9.m.A.S.S.S.d.f .X.X.X.X.X.X.X.X.X.X.X",
".X.X.X.X.X.X.X.X.X.X.X.X.X.X.X.X.X.X.X.X              = B v.D.D.D.v.m a.V.S.S.D.D.D.D.S.V.r.n n.D.D.D.A.g.z .X.X.X.X.X.X.X.X.X.X",
".X.X.X.X.X.X.X.X.X.X.X.X.X.X.X.X.X.X.X.X          # b 9.0.V.V.s.V.a.s f.D.D.D.m.p.r.g.S.D.b.0.t.g.S.D.D.Z.a.n .X.X.X.X.X.X.X.X.X",
".X.X.X.X.X.X.X.X.X.X.X.X.X.X.X.X.X.X.X        O 6 w w.V.Z.V.s.c s.t.s d.D.S.C.s.C C V V.Z.D.V.N 9.m.S.D.D.S.a.# .X.X.X.X.X.X.X.X",
".X.X.X.X.X.X.X.X.X.X.X.X.X.X.X.X.X.X.X      O ! { ` l q.C.q.P <.P s p g.D.A.q.P L.Y.*.B n.D.S.V.r.n b.D.D.D.p.# .X.X.X.X.X.X.X.X",
".X.X.X.X.X.X.X.X.X.X.X.X.X.X.X.X.X.X        O ) O.o./ Z q.s H ~.,.S * f.D.C.v H _.].Y.#.y.g.S.D.b.0.t.g.S.D.a.# .X.X.X.X.X.X.X.X",
".X.X.X.X.X.X.X.X.X.X.X.X.X.X.X.X.X          O / ..O.O.) q o H /.'.K.A s.C.C.b H _.].].!.J V V.S.D.V.v n m.V.w.# .X.X.X.X.X.X.X.X",
".X.X.X.X.X.X.X.X.X.X.X.X.X.X.X.X.X            7 W X.O..._ 1 G _.]./.L.P w.V.v H _.'.].[.T.*.B b.D.C.v * f z p . .X.X.X.X.X.X.X.X",
".X.X.X.X.X.X.X.X.X.X.X.X.X.X.X.X.X      2 2 o   4 ..O.| ~ 7 Z =.Q.].^.>.I q.s H _.].].].].Y.U y.v.V.v           .X.X.X.X.X.X.X.X",
".X.X.X.X.X.X.X.X.X.X.X.X.X.X.X.X    o 0 _ ) 7 o 3 ..../ @   + e 1.~.'.'.,.: : U R.`.].].].].Q.D m g.z   .X.X.X  .X.X.X.X.X.X.X.X",
".X.X.X.X.X.X.X.X.X.X.X.X.X.X        1 } X...} 1 3 | W 7     2 ` u $._.].<.C H.H.F I.].].].].~.S * s #   .X.X.X.X.X.X.X.X.X.X.X.X",
".X.X.X.X.X.X.X.X.X.X.X.X.X.X        3 ..O.O.X.( ! Q l 3.3.h l ! W ] ;.Q.R.=.(.).G.-.%.,.T.T.$.r         .X.X.X.X.X.X.X.X.X.X.X.X",
".X.X.X.X.X.X.X.X.X.X.X.X.X          3 ..O.O.o.o.( & 8.k.l.l.3.& ' ~ t >.T.T.[. X|.Y r Z 2.;.q +   .X    .X.X.X.X.X.X.X.X.X.X.X.X",
".X.X.X.X.X.X.X.X.X.X.X              4 ..O.O.O.o.` & 4.l.l.l.6.$ 7 6 + t Z D I.].{.!.Y.L.J [ ` 1   .X.X.X.X.X.X.X.X.X.X.X.X.X.X.X",
".X.X.X.X.X.X.X.X.X.X.X          + 3 ( X.O.O.o._ 4 % 5.l.l.l.4.$           - J %.%.=.&.&.] ) | 2   .X.X.X.X.X.X.X.X.X.X.X.X.X.X.X",
".X.X.X.X.X.X.X.X.X.X          o 0 _ o.O.O.X. .5 O % 3.z.x.x.e.$ .X.X.X        ; r r t 9 _ X.{ 2   .X.X.X.X.X.X.X.X.X.X.X.X.X.X.X",
".X.X.X.X.X.X.X.X              1 } ..o.O.O._ 3 / ! + g L P.E.G.- .X.X.X.X.X    S L.Y.$.9 _ _ 1 .X.X.X.X.X.X.X.X.X.X.X.X.X.X.X.X.X",
".X.X.X.X.X.X.X.X              3 X.+.O.O.O. .! ! 5 O . H ^.].<.w .X.X.X.X.X    H ^.].,.; 5 5 + .X.X.X.X.X.X.X.X.X.X.X.X.X.X.X.X.X",
".X.X.X.X.X.X.X    o 8 X       3 X.O.O.O.O.X.{ 3   .X  D R.`.2.Z .X.X.X.X.X.Xt #.^.~.%.-     .X.X.X.X.X.X.X.X.X.X.X.X.X.X.X.X.X.X",
".X.X.X.X.X.X.X    , E <       4 ..+.O.+.+._ 1 .X.X.X.X.XS I.^.I.S   .X.X.X> :.!.~.#.C .X.X.X.X.X.X.X.X.X.X.X.X.X.X.X.X.X.X.X.X.X",
".X.X.X.X.X.X.XX < T T 8       7 ~ | O.o._ 5 O .X.X.X.X.Xw 2.]./.D   .X.X.X- j.}.B.A . .X.X.X.X.X.X.X.X.X.X.X.X.X.X.X.X.X.X.X.X.X",
".X.X.X.X.X.X.X@ R R X           O ' |  .3   .X.X.X.X.X.X- J.E.W.S   .X.X.Xi 7.N.7.i   .X.X.X.X.X.X.X.X.X.X.X.X.X.X.X.X.X.X.X.X.X",
".X.X.X.X.X.X.X  8 8   .X.X.X      6 0 0 .X.X.X.X.X.X.X.X$ u.c.c.k       j 7.k.5.i .X.X.X.X.X.X.X.X.X.X.X.X.X.X.X.X.X.X.X.X.X.X.X",
".X.X.X.X.X.X.X.X    .X.X.X.X.X        .X.X.X.X.X.X.X.X.X% h 5.k.8.i - F j.F.F.h.- .X.X.X.X.X.X.X.X.X.X.X.X.X.X.X.X.X.X.X.X.X.X.X",
".X.X.X.X.X.X.X.X.X.X.X.X.X.X.X.X.X.X.X.X.X.X.X.X.X.X.X.X.X  k x.x.e.d =.~.'.'.,.- .X.X.X.X.X.X.X.X.X.X.X.X.X.X.X.X.X.X.X.X.X.X.X",
".X.X.X.X.X.X.X.X.X.X.X.X.X.X.X.X.X.X.X.X.X.X.X.X.X.X.X.X.X. D P.E.G.> t @._.].<.- .X.X.X.X.X.X.X.X.X.X.X.X.X.X.X.X.X.X.X.X.X.X.X",
".X.X.X.X.X.X.X.X.X.X.X.X.X.X.X.X.X.X.X.X.X.X.X.X.X.X.X.X.X  G _.].R.$.#.@.%.&.J - .X.X.X.X.X.X.X.X.X.X.X.X.X.X.X.X.X.X.X.X.X.X.X"
};
