/* XPM */
static char *result[] = {
/* columns rows colors chars-per-pixel */
"64 64 183 2 ",
"   c #292929",
".  c #2E2A27",
"X  c #322727",
"o  c #332A27",
"O  c #3B2D25",
"+  c #322D2E",
"@  c #3C2929",
"#  c #33312F",
"$  c #272C32",
"%  c #2C2C32",
"&  c #242B3C",
"*  c #25323C",
"=  c #2E373C",
"-  c #363432",
";  c #393633",
":  c #3C3935",
">  c #363B3E",
",  c #332C30",
"<  c #591F1F",
"1  c #681C1C",
"2  c #721A1A",
"3  c #5B321E",
"4  c #62331D",
"5  c #6C361B",
"6  c #74371A",
"7  c #7B3818",
"8  c #783719",
"9  c #432E24",
"0  c #4A2F22",
"q  c #432424",
"w  c #4B3024",
"e  c #543120",
"r  c #5B3325",
"t  c #4E3337",
"y  c #403D37",
"u  c #423E38",
"i  c #433135",
"p  c #582C30",
"a  c #793B24",
"s  c #61362A",
"d  c #45413C",
"f  c #4B463D",
"g  c #4D483F",
"h  c #1E2F5C",
"j  c #222D49",
"k  c #243542",
"l  c #233847",
"z  c #26304B",
"x  c #233B4B",
"c  c #2A3746",
"v  c #203E52",
"b  c #313C42",
"n  c #1A316A",
"m  c #193274",
"M  c #19357E",
"N  c #263876",
"B  c #233669",
"V  c #5E3943",
"C  c #1F425A",
"Z  c #394042",
"A  c #3E455C",
"S  c #1B4A6C",
"D  c #1D4460",
"F  c #1A4E73",
"G  c #18527C",
"H  c #195077",
"J  c #394F6D",
"K  c #35617E",
"L  c #554D44",
"P  c #5D5549",
"I  c #585045",
"U  c #62594C",
"Y  c #60574B",
"T  c #665E51",
"R  c #6D6253",
"E  c #6B655A",
"W  c #7A6D5A",
"Q  c #736756",
"!  c #7F715E",
"~  c #414B6C",
"^  c #52666E",
"/  c #6F6D70",
"(  c #841717",
")  c #981313",
"_  c #AE0F0F",
"`  c #843A17",
"'  c #8D3C15",
"]  c #933D13",
"[  c #9D3F11",
"{  c #A03F11",
"}  c #AD420E",
"|  c #B3430D",
" . c #BB440C",
".. c #A54010",
"X. c #C5460A",
"o. c #CC4809",
"O. c #D24907",
"+. c #DB4A05",
"@. c #D14908",
"#. c #E54C03",
"$. c #EC4E02",
"%. c #F44F00",
"&. c #F85000",
"*. c #81735F",
"=. c #8B7C65",
"-. c #887A63",
";. c #807875",
":. c #94836B",
">. c #9B896F",
",. c #9E8C71",
"<. c #968B77",
"1. c #A18E72",
"2. c #A59275",
"3. c #AA9678",
"4. c #AF9A7B",
"5. c #A2917B",
"6. c #B39E7E",
"7. c #143489",
"8. c #173585",
"9. c #123695",
"0. c #10369A",
"q. c #193896",
"w. c #213F90",
"e. c #0E38A6",
"r. c #0F37A2",
"t. c #1539A4",
"y. c #0B39B4",
"u. c #175581",
"i. c #155A8B",
"p. c #165887",
"a. c #135F95",
"s. c #13418F",
"d. c #304C9B",
"f. c #12619B",
"g. c #18659C",
"h. c #286996",
"j. c #0E6AAB",
"k. c #1165A2",
"l. c #0E6CB0",
"z. c #0C71BA",
"x. c #495FA4",
"c. c #4D66B1",
"v. c #063CCC",
"b. c #083BC4",
"n. c #043DD3",
"m. c #033EDA",
"M. c #013FE4",
"N. c #1449D5",
"B. c #2353D9",
"V. c #0A76C4",
"C. c #0979CB",
"Z. c #0978C7",
"A. c #077ED3",
"S. c #0040E8",
"D. c #627BC9",
"F. c #0582DD",
"G. c #0680D7",
"H. c #0485E3",
"J. c #028AED",
"K. c #008EF4",
"L. c #0090F8",
"P. c #BBA483",
"I. c #B8A382",
"U. c #AAA6B1",
"Y. c #C2AA86",
"T. c #C5AD88",
"R. c #CBB28D",
"E. c #D5BA92",
"W. c #DABE95",
"Q. c #D1B790",
"!. c #CFB693",
"~. c #CDBCAD",
"^. c #DFC298",
"/. c #E2C69A",
"(. c #E6C99D",
"). c #E9CC9F",
"_. c #ECCEA1",
"`. c #E2C7A0",
"'. c #EFD1A3",
"]. c #F2D3A5",
"[. c #F8D8A8",
"{. c #F7D8A8",
"}. c None",
/* pixels */
"}.}.}.}.}.}.}.}.}.}.}.}.}.}.}.}.}.}.}.}.}.}.}.}.}.}.}.}.}.}.}.}.}.}.}.}.}.}.}.}.}.}.}.}.}.}.}.}.}.}.}.}.}.}.}.}.}.}.}.}.}.}.}.}.",
"}.}.}.}.}.}.}.}.}.}.}.}.}.}.}.}.}.}.}.}.}.}.}.}.}.}.}.}.}.}.}.}.}.}.}.}.}.}.}.}.}.}.}.}.}.}.}.}.}.}.}.}.}.}.}.}.}.}.}.}.}.}.}.}.",
"}.}.}.}.}.}.}.}.}.}.}.}.}.}.}.}.}.}.}.}.}.}.}.}.}.}.}.}.}.}.}.}.}.}.}.}.}.}.}.}.}.}.}.}.}.}.}.}.}.}.}.}.}.}.}.}.}.}.}.}.}.}.}.}.",
"}.}.}.}.}.}.}.}.}.}.}.}.}.}.}.}.}.}.}.}.}.}.}.}.}.}.}.}.}.}.}.}.  }.}.}.}.}.}.}.}.}.}.}.}.}.}.}.}.}.}.}.}.}.}.}.}.}.}.}.}.}.}.}.",
"}.}.}.}.}.}.}.}.}.}.}.}.}.}.}.}.}.}.}.}.}.}.}.}.}.}.}.}.}.}.}.*   }.}.}.}.}.}.}.}.}.}.}.}.}.}.}.}.}.}.}.}.}.}.}.}.}.}.}.}.}.}.}.",
"}.}.}.}.}.}.}.}.}.}.}.}.}.}.}.}.}.}.}.}.}.}.}.}.  }.}.}.}.}.D j.l }.}.}.}.}.}.}.}.}.}.}.}.}.}.}.}.}.}.}.}.}.}.}.}.}.}.}.}.}.}.}.",
"}.}.}.}.}.}.}.}.}.}.}.}.}.}.}.}.}.}.}.}.}.}.}.    }.}.}.}.F l.G.v }.}.}.}.}.}.}.}.}.}.}.}.}.}.}.}.}.}.}.}.}.}.}.}.}.}.}.}.}.}.}.",
"}.}.}.}.}.}.}.}.}.}.}.}.}.}.}.}.}.}.}.}.}.}.l v $ }.}.}.  f.L.F.v }.}.}.}.}.}.}.}.}.}.}.}.}.}.}.}.}.}.}.}.}.}.}.}.}.}.}.}.}.}.}.",
"}.}.}.}.}.}.}.}.}.}.}.}.}.}.}.}.}.}.}.}.}.  S V.C }.}.}.$ j.L.F.v   }.}.}.}.}.}.}.}.}.}.}.}.}.}.}.}.}.}.}.}.}.}.}.}.}.}.}.}.}.}.",
"}.}.}.}.}.}.}.}.}.}.}.}.}.}.}.}.}.}.}.}.}.  H H.Z.F   k j.H.L.F.v     }.}.}.}.}.}.}.}.}.}.}.}.}.}.}.}.}.}.}.}.}.}.}.}.}.}.}.}.}.",
"}.}.}.}.}.}.}.}.}.}.}.}.}.}.}.}.}.}.}.}.}.  F K.K.G   k G.z.f.p.* P W ; }.}.}.}.}.}.}.}.}.}.}.}.}.}.}.}.}.}.}.}.}.}.}.}.}.}.}.}.",
"}.}.}.}.}.}.}.}.}.}.}.}.}.}.}.}.}.}.}.}.}.  F J.K.f.x * j.K I I L 4.R.U I d }.}.}.}.}.}.}.}.}.}.}.}.}.}.}.}.}.}.}.}.}.}.}.}.}.}.",
"}.}.}.}.}.}.}.}.}.}.}.}.}.}.}.}.}.}.}.}.}.  F J.L.H.g.> Z <.^././._.]././.=.- }.}.}.}.}.}.}.}.}.}.}.}.}.}.}.}.}.}.}.}.}.}.}.}.}.",
"}.}.}.}.}.}.}.}.}.}.}.}.}.}.}.}.}.}.}.}.    F J.K.f.^ I.P.^.{.{.{.{.[.[.[.W.>.; }.}.}.}.}.}.}.}.}.}.}.}.}.}.}.}.}.}.}.}.}.}.}.}.",
"}.}.}.}.}.}.}.}.}.}.}.}.}.}.}.}.}.}.}.* G i.j.K.L.G R ^.3.R.[.[.[.[.[._.4.,.:.-.f }.}.}.}.}.}.}.}.}.}.}.}.}.}.}.}.}.}.}.}.}.}.}.",
"}.}.}.}.}.}.}.}.}.}.}.}.}.}.}.}.}.}.k S F.L.L.K.A.S Y 4.f ,.[.[.[.[._.T.R L ! E.P   }.}.}.}.}.}.}.}.}.}.}.}.}.}.}.}.}.}.}.}.}.}.",
"}.}.}.}.}.}.}.}.}.}.}.}.}.}.}.}.}.$ G F.L.L.L.F.S k = > # ,.[.[.[.].P.T P.^.(./.P   }.}.}.}.}.}.}.}.}.}.}.}.}.}.}.}.}.}.}.}.}.}.",
"}.}.}.}.}.}.}.}.}.}.}.}.}.}.}.}.$ i.C.L.L.L.L.J.V.z.z.k.k ,.[.{.[.3.*.I.).{.{.(.P   }.}.}.}.}.}.}.}.}.}.}.}.}.}.}.}.}.}.}.}.}.}.",
"}.}.}.}.}.}.}.}.}.}.}.}.}.}.}.* u.C.L.L.L.L.G.j.J.K.G.h./ T.[._.6.=.2.].[.[.[./.P   }.}.}.}.}.}.}.}.}.}.}.}.}.}.}.}.}.}.}.}.}.}.",
"}.}.}.}.}.}.}.}.}.}.}.}.}.}.k S H.L.J.G.K.L.z.S z.A.f.Z 6.(._.T.T 3.[.[.[.[.'.T.L }.}.}.}.}.}.}.}.}.}.}.}.}.}.}.}.}.}.}.}.}.}.}.",
"}.}.}.}.}.}.}.}.}.}.}.}.}.  H F.K.K.l.S F.L.J.C.D c b ; y 3.T.T Y.).[.[.[.[.R.L }.}.}.}.}.}.}.}.}.}.}.}.}.}.}.}.}.}.}.}.}.}.}.}.",
"}.}.}.}.}.}.}.}.}.}.}.}.}.  G L.K.f.i.z.J.L.L.F.x W 6.2.u 1./.Y.).[.[.[.[.[.P.: }.}.}.}.}.}.}.}.}.}.}.}.}.}.}.}.}.}.}.}.}.}.}.}.",
"}.}.}.}.}.}.}.}.}.}.}.}.}.S i.f.f.i.j.L.L.L.L.G.x Q 1.1.-.T.[.[.[.[.[.[.[.[.Y.: }.}.}.}.}.}.}.}.}.}.}.}.}.}.}.}.}.}.}.}.}.}.}.}.",
"}.}.}.}.}.}.}.}.}.}.}.}.$ f.a.$ $ j.L.L.L.L.L.F.S $ - U E./.^.[.[.[.[.[.[.{.Y.: }.}.}.}.}.}.}.}.}.}.}.}.}.}.}.}.}.}.}.}.}.}.}.}.",
"}.}.}.}.}.}.}.}.}.}.}.}.  * k }.$ j.L.L.L.L.K.J.F.G R R.).=.W (.'.].[.[.[.[.Y.; }.}.}.}.}.}.}.}.}.}.}.}.}.}.}.}.}.}.}.}.}.}.}.}.",
"}.}.}.}.}.}.}.}.}.}.}.}.    }.}.$ j.L.L.L.L.Z.p.F.C.h.E Q d y T Q 6.[.{.[.[.Y.:   }.}.}.}.}.}.}.}.}.}.}.}.}.}.}.}.}.}.}.}.}.}.}.",
"}.}.}.}.}.}.}.}.}.}.}.}.}.}.}.}.G Z.L.L.K.V.f.a.H.Z.J a 7 0   & B / 1.2.2.2.;.N M h }.}.}.}.}.}.}.}.}.}.}.}.}.}.}.}.}.}.}.}.}.}.",
"}.}.}.}.}.}.}.}.}.}.}.}.}.}.}.l z.G.G.G.G.G p.J.K.G r o.$.] 0 i t.8.z z z z m n.M.7.  }.}.}.}.}.}.}.}.}.}.}.}.}.}.}.}.}.}.}.}.}.",
"}.}.}.}.}.}.}.}.}.}.}.}.}.}.}.  * x l l x k.H.L.J.G . r @.#.+.X.t 8.v.v.v.v.n.S.M.7.  }.}.}.}.}.}.}.}.}.}.}.}.}.}.}.}.}.}.}.}.}.",
"}.}.}.}.}.}.}.}.}.}.}.}.}.}.}.}.}.}.}.}.  j.L.H.i.s.r.q.s  .%.%. .V 9.m.S.S.S.S.M.7.    }.}.}.}.}.}.}.}.}.}.}.}.}.}.}.}.}.}.}.}.",
"}.}.}.}.}.}.}.}.}.}.}.}.}.}.}.}.}.}.}.}.  G j.f.k 0.S.v.z [ %.&.&.| V 0.n.S.S.S.M.7.    }.}.}.}.}.}.}.}.}.}.}.}.}.}.}.}.}.}.}.}.",
"}.}.}.}.}.}.}.}.}.}.}.}.}.}.}.}.}.}.}.        % d s.N.v.z [ %.%.+.#.X.t t.m.S.M.n.N 9 . }.}.}.}.}.}.}.}.}.}.}.}.}.}.}.}.}.}.}.}.",
"}.}.}.}.}.}.}.}.}.}.}.}.}.}.}.}.}.}.}.}.}.}.}.: 6./ M b.j [ &.+.5 } $.X.t 9.S.n.n a { O }.}.}.}.}.}.}.}.}.}.}.}.}.}.}.}.}.}.}.}.",
"}.}.}.}.}.}.}.}.}.}.}.}.}.}.}.}.}.}.}.}.}.}.}.u E.R./ B $ [ @.6 O ] &.%. .V m n & ] o.9 }.}.}.}.}.}.}.}.}.}.}.}.}.}.}.}.}.}.}.}.",
"}.}.}.}.}.}.}.}.}.}.}.}.}.}.}.}.}.}.}.}.}.}.}.L W.[.I.%   6 ` X   5 } | #.| 6 6 6 | X.O   }.}.}.}.}.}.}.}.}.}.}.}.}.}.}.}.}.}.}.",
"}.}.}.}.}.}.}.}.}.}.}.}.}.}.}.}.}.}.}.}.}.}.}.P W.(.1.-   . .     . X 9 | O.O.O.O.O.| O & j }.}.}.}.}.}.}.}.}.}.}.}.}.}.}.}.}.}.",
"}.}.}.}.}.}.}.}.}.}.}.}.}.}.}.}.}.}.}.}.}.  R !.).:.d }.}.          $ . 9 w w w 9 0 9 $ 0.8.  }.}.}.}.}.}.}.}.}.}.}.}.}.}.}.}.}.",
"}.}.}.}.}.}.}.}.}.}.}.}.}.}.}.}.}.}.}.}.}.  A D.D.~ . }.}.}.  $ 8.0.0.0.0.0.0.0.0.0.8.j y.c.:.:   }.}.}.}.}.}.}.}.}.}.}.}.}.}.}.",
"}.}.}.}.}.}.}.}.}.}.}.}.}.}.}.}.}.}.}.}.}.h 0.M.M.m   }.}.}.  & 7.e.e.e.e.e.e.e.e.e.7.j x.U.^.! Q P }.}.}.}.}.}.}.}.}.}.}.}.}.}.",
"}.}.}.}.}.}.}.}.}.}.}.}.}.}.}.}.}.}.}.}.d d.B.B.v.m   }.}.    . @ , % @ % $ $ $ $ , @ $ I.`.].E.Q.:.u }.}.}.}.}.}.}.}.}.}.}.}.}.",
"}.}.}.}.}.}.}.}.}.}.}.}.}.}.}.}.}.}.}.d P.~.~.U.A & }.}.}.    O } 8 r | w         7 } O d ,.E.P f -.6.y }.}.}.}.}.}.}.}.}.}.}.}.",
"}.}.}.}.}.}.}.}.}.}.}.}.}.}.}.}.}.}.U 3._.[.[.^.f }.}.}.}.  w ] ` ]  .$.| 4       ] #.{ w =.R.:   L R - }.}.}.}.}.}.}.}.}.}.}.}.",
"}.}.}.}.}.}.}.}.}.}.}.}.}.}.}.}.}.P -.P._.R.R.W.g }.}.}.    e ..8  .&.&.&.'       ' &.#.4 R :.;   d P # }.}.}.}.}.}.}.}.}.}.}.}.",
"}.}.}.}.}.}.}.}.}.}.}.}.}.}.}.}.% >.1.T Y.W W Q.g }.}.      . 0 X.$.&.&.&.'     O [ &.#.4 . #     W 6.y }.}.}.}.}.}.}.}.}.}.}.}.",
"}.}.}.}.}.}.}.}.}.}.}.}.}.}.}.}.  u *.I.U ; Q Q.g }.}.        9 @.&.&.&.&.'   O ..#.&.#.4   }.  }.u f }.}.}.}.}.}.}.}.}.}.}.}.}.",
"}.}.}.}.}.}.}.}.}.}.}.}.}.}.}.}.}.  f W y }.g W ;           0 { #.&.&.$.{ e 9 [ #.&.&.#.4   }.}.}.}.}.}.}.}.}.}.}.}.}.}.}.}.}.}.",
"}.}.}.}.}.}.}.}.}.}.}.}.}.}.}.}.}.}..   }.}.}..       X 3 4 ] $.&.&.#.} w   w | #.&.&.#.4   }.}.}.}.}.}.}.}.}.}.}.}.}.}.}.}.}.}.",
"}.}.}.}.}.}.}.}.}.}.}.}.}.}.}.}.}.}.}.}.}.}.}.}.    X 3 X.$.%.%.&.$.} 9     o 3  .$.&.#.4   }.}.}.}.}.}.}.}.}.}.}.}.}.}.}.}.}.}.",
"}.}.}.}.}.}.}.}.}.}.}.}.}.}.}.}.}.}.}.}.}.}.}.}.    3 o.%.%.&.&.%.{ 9 .     e | 6 ..&.#.4   }.}.}.}.}.}.}.}.}.}.}.}.}.}.}.}.}.}.",
"}.}.}.}.}.}.}.}.}.}.}.}.}.}.}.}.}.}.}.}.}.}.}.      6 $.&.&.&.&.&.X.8 X     9 7 ] X.&.#.4   }.}.}.}.}.}.}.}.}.}.}.}.}.}.}.}.}.}.",
"}.}.}.}.}.}.}.}.}.}.}.}.}.}.}.}.}.}.}.}.}.}.}.      5 $.&.&.&.&.&.+.] o       o [ O.$. .3 }.}.}.}.}.}.}.}.}.}.}.}.}.}.}.}.}.}.}.",
"}.}.}.}.}.}.}.}.}.}.}.}.}.}.}.}.}.}.}.}.}.}.}.      4 +.%.&.&.%.#.' o           o '  .0 }.}.}.}.}.}.}.}.}.}.}.}.}.}.}.}.}.}.}.}.",
"}.}.}.}.}.}.}.}.}.}.}.}.}.}.}.}.}.}.}.}.}.}.        o 5 +.&.&.#.6 0 }.}.          9 3 }.}.}.}.}.}.}.}.}.}.}.}.}.}.}.}.}.}.}.}.}.",
"}.}.}.}.}.}.}.}.}.}.}.}.}.}.}.}.}.}.}.}.}.            O 8 ' ' ` 9 }.}.}.                }.}.}.}.}.}.}.}.}.}.}.}.}.}.}.}.}.}.}.}.",
"}.}.}.}.}.}.}.}.}.}.}.}.}.}.}.}.}.}.}.}.    q < X               }.}.}.}.                }.}.}.}.}.}.}.}.}.}.}.}.}.}.}.}.}.}.}.}.",
"}.}.}.}.}.}.}.}.}.}.}.}.}.}.}.}.}.}.}.    X 2 _ q             }.}.}.}.}.                }.}.}.}.}.}.}.}.}.}.}.}.}.}.}.}.}.}.}.}.",
"}.}.}.}.}.}.}.}.}.}.}.}.}.}.}.}.}.}.      ( ) < X     }.}.}.}.}.}.}.}.}.}.              }.}.}.}.}.}.}.}.}.}.}.}.}.}.}.}.}.}.}.}.",
"}.}.}.}.}.}.}.}.}.}.}.}.}.}.}.}.}.    @ 2 ) 1 X     }.}.}.}.}.}.}.}.}.}.}.}.            }.}.}.}.}.}.}.}.}.}.}.}.}.}.}.}.}.}.}.}.",
"}.}.}.}.}.}.}.}.}.}.}.}.}.}.}.}.}.    q _ 1       }.}.}.}.}.}.}.}.}.}.}.}.}.}.          }.}.}.}.}.}.}.}.}.}.}.}.}.}.}.}.}.}.}.}.",
"}.}.}.}.}.}.}.}.}.}.}.}.}.}.}.}.}.    . @ X     }.}.}.}.}.}.}.}.}.}.}.}.}.}.}.}.}.}.}.}.}.}.}.}.}.}.}.}.}.}.}.}.}.}.}.}.}.}.}.}.",
"}.}.}.}.}.}.}.}.}.}.}.}.}.}.}.}.}.}.}.}.}.}.}.}.}.}.}.}.}.}.}.}.}.}.}.}.}.}.}.}.}.}.}.}.}.}.}.}.}.}.}.}.}.}.}.}.}.}.}.}.}.}.}.}.",
"}.}.}.}.}.}.}.}.}.}.}.}.}.}.}.}.}.}.}.}.}.}.}.}.}.}.}.}.}.}.}.}.}.}.}.}.}.}.}.}.}.}.}.}.}.}.}.}.}.}.}.}.}.}.}.}.}.}.}.}.}.}.}.}.",
"}.}.}.}.}.}.}.}.}.}.}.}.}.}.}.}.}.}.}.}.}.}.}.}.}.}.}.}.}.}.}.}.}.}.}.}.}.}.}.}.}.}.}.}.}.}.}.}.}.}.}.}.}.}.}.}.}.}.}.}.}.}.}.}.",
"}.}.}.}.}.}.}.}.}.}.}.}.}.}.}.}.}.}.}.}.}.}.}.}.}.}.}.}.}.}.}.}.}.}.}.}.}.}.}.}.}.}.}.}.}.}.}.}.}.}.}.}.}.}.}.}.}.}.}.}.}.}.}.}."
};
