/* XPM */
static char *result[] = {
/* columns rows colors chars-per-pixel */
"64 64 189 2 ",
"   c #292929",
".  c #2A2A2C",
"X  c #332626",
"o  c #322A27",
"O  c #3B2C25",
"+  c #392626",
"@  c #32312F",
"#  c #262C33",
"$  c #242B3C",
"%  c #25333C",
"&  c #2C3034",
"*  c #363432",
"=  c #393633",
"-  c #3D3A35",
";  c #39373B",
":  c #5C1F1F",
">  c #671C1C",
",  c #791919",
"<  c #5C321F",
"1  c #62341D",
"2  c #6C351B",
"3  c #75371A",
"4  c #7B3818",
"5  c #7F3917",
"6  c #442E24",
"7  c #4A2F22",
"8  c #4F3021",
"9  c #523021",
"0  c #58342D",
"q  c #443F39",
"w  c #443337",
"e  c #5C3531",
"r  c #66393A",
"t  c #4A453D",
"y  c #49463F",
"u  c #1E2F5C",
"i  c #1F3F56",
"p  c #242C43",
"a  c #272D47",
"s  c #243642",
"d  c #213B4D",
"f  c #233847",
"g  c #363A47",
"h  c #213D52",
"j  c #2F335C",
"k  c #373752",
"l  c #1B3068",
"z  c #16337D",
"x  c #193276",
"c  c #1D2F60",
"v  c #333F64",
"b  c #1F4159",
"n  c #3F4241",
"m  c #3A4D58",
"M  c #2F495B",
"N  c #1D4663",
"B  c #1B4A6C",
"V  c #1D4867",
"C  c #1A4E73",
"Z  c #18527C",
"A  c #18517A",
"S  c #444544",
"D  c #4F4940",
"F  c gray30",
"G  c #544E44",
"H  c #595146",
"J  c #5D5549",
"K  c #575045",
"L  c #555759",
"P  c #465059",
"I  c #655C4E",
"U  c #685F4F",
"Y  c #635D59",
"T  c #6C6152",
"R  c #7A6E5B",
"E  c #736857",
"W  c #525964",
"Q  c #5C6667",
"!  c #4D6A7A",
"~  c #696867",
"^  c #726E6C",
"/  c #76756C",
"(  c #801717",
")  c #AD0E0E",
"_  c #8B3B15",
"`  c #853A16",
"'  c #933D14",
"]  c #9B3E12",
"[  c #973F1E",
"{  c #AB410F",
"}  c #B4430D",
"|  c #BD450C",
" . c #A54213",
".. c #854D2D",
"X. c #C2460A",
"o. c #CA4709",
"O. c #CF4809",
"+. c #D44907",
"@. c #DC4B05",
"#. c #E54C04",
"$. c #EB4D02",
"%. c #F34F00",
"&. c #F85000",
"*. c #F75000",
"=. c #80725E",
"-. c #906142",
";. c #857762",
":. c #8C7D65",
">. c #867862",
",. c #94836A",
"<. c #9C8A6F",
"1. c #928676",
"2. c #A99578",
"3. c #B39F7E",
"4. c #153485",
"5. c #143694",
"6. c #203E8E",
"7. c #0D39AE",
"8. c #133BAB",
"9. c #0C3BB6",
"0. c #165684",
"q. c #155A8B",
"w. c #185480",
"e. c #145E94",
"r. c #204199",
"t. c #12629C",
"y. c #176399",
"u. c #246592",
"i. c #1E45AE",
"p. c #0F6AAB",
"a. c #1066A4",
"s. c #176BA8",
"d. c #0E6DB2",
"f. c #0C72BC",
"g. c #0E70B7",
"h. c #1473B7",
"j. c #656F98",
"k. c #4765BC",
"l. c #6F7BA9",
"z. c #073BC4",
"x. c #073BC6",
"c. c #043DD3",
"v. c #1745C0",
"b. c #0A76C3",
"n. c #087ACB",
"m. c #0F78C4",
"M. c #077ED4",
"N. c #0040E8",
"B. c #134CE3",
"V. c #4268D7",
"C. c #0582DC",
"Z. c #0486E3",
"A. c #028AEC",
"S. c #0388E7",
"D. c #008EF4",
"F. c #0090F8",
"G. c #7B8BC8",
"H. c #7994DB",
"J. c #7597EF",
"K. c #8D8D92",
"L. c #AC9B82",
"P. c #BAA483",
"I. c #B7A385",
"U. c #B3ABB2",
"Y. c #C2AA86",
"T. c #C4AD89",
"R. c #C9B18C",
"E. c #D1B790",
"W. c #D4BA92",
"Q. c #DABF96",
"!. c #CEB99E",
"~. c #CEB9A1",
"^. c #DCC196",
"/. c #E1C49A",
"(. c #E7CA9E",
"). c #DAC2A3",
"_. c #ECCEA1",
"`. c #EACFAB",
"'. c #EFD1A3",
"]. c #EED3AD",
"[. c #F2D3A4",
"{. c #F8D8A8",
"}. c #F7D8A8",
"|. c #9BA9DA",
" X c #D5D5D5",
".X c #E3DFD9",
"XX c #E7E7E7",
"oX c #F7E9D4",
"OX c None",
/* pixels */
"OXOXOXOXOXOXOXOXOXOXOXOXOXOXOXOXOXOXOXOXOXOXOXOXOXOXOXOXOXOXOXOXOXOXOXOXOXOXOXOXOXOXOXOXOXOXOXOXOXOXOXOXOXOXOXOXOXOXOXOXOXOXOXOX",
"OXOXOXOXOXOXOXOXOXOXOXOXOXOXOXOXOXOXOXOXOXOXOXOXOXOXOXOXOXOXOXOXOXOXOXOXOXOXOXOXOXOXOXOXOXOXOXOXOXOXOXOXOXOXOXOXOXOXOXOXOXOXOXOX",
"OXOXOXOXOXOXOXOXOXOXOXOXOXOXOXOXOXOXOXOXOXOXOXOXOXOXOXOXOXOXOXOXOXOXOXOXOXOXOXOXOXOXOXOXOXOXOXOXOXOXOXOXOXOXOXOXOXOXOXOXOXOXOXOX",
"OXOXOXOXOXOXOXOXOXOXOXOXOXOXOXOXOXOXOXOXOXOXOXOXOXOXOXOXOXOXOXOXOXOXOXOXOXOXOXOXOX  OXOXOXOXOXOXOXOXOXOXOXOXOXOXOXOXOXOXOXOXOXOX",
"OXOXOXOXOXOXOXOXOXOXOXOXOXOXOXOXOXOXOXOXOXOXOXOXOXOXOXOXOXOXOXOXOXOXOXOXOXOXOXOX      OXOXOXOXOXOXOXOXOXOXOXOXOXOXOXOXOXOXOXOXOX",
"OXOXOXOXOXOXOXOXOXOXOXOXOXOXOXOXOXOXOXOXOXOXOXOXOXOXOXOXOXOXOXOXOXOXOXOXOXOXOXOX  f Z d OXOXOXOXOXOXOXOXOXOXOXOXOXOXOXOXOXOXOXOX",
"OXOXOXOXOXOXOXOXOXOXOXOXOXOXOXOXOXOXOXOXOXOXOXOXOXOXOX    % b b b b b OXOXOXOXOX  N M.w.d OXOXOXOXOXOXOXOXOXOXOXOXOXOXOXOXOXOXOX",
"OXOXOXOXOXOXOXOXOXOXOXOXOXOXOXOXOXOXOXOXOXOXOXOXOXOXOXOX  V n.Z.Z.S.n.b % % OXOX  N Z.S.q.  OXOXOXOXOXOXOXOXOXOXOXOXOXOXOXOXOXOX",
"OXOXOXOXOXOXOXOXOXOXOXOXOXOXOXOXOXOXOXOXOXOXOX            % A C.F.F.D.b.b.t.# OX  N Z.F.e.  OXOXOXOXOXOXOXOXOXOXOXOXOXOXOXOXOXOX",
"OXOXOXOXOXOXOXOXOXOXOXOXOXOXOXOXOXOXOXOXOXOXs w.q.0.q.q.q.q.q.y.M.D.F.F.D.C.q.s V s.A.F.b.A OXOXOXOXOXOXOXOXOXOXOXOXOXOXOXOXOXOX",
"OXOXOXOXOXOXOXOXOXOXOXOXOXOXOX      # d b b B Z.F.F.F.F.D.F.C.C t.C.D.F.F.F.Z.C e.M.D.F.F.n.s OXOXOXOXOXOXOXOXOXOXOXOXOXOXOXOXOX",
"OXOXOXOXOXOXOXOXOXOXOXOXOXOXOXOXOX  d b.C.C.Z.D.F.F.F.F.F.F.D.Z.q.0.D.F.F.F.D.S.q.C S.F.D.n.% OXOXOXOXOXOXOXOXOXOXOXOXOXOXOXOXOX",
"OXOXOXOXOXOXOXOXOXOXOXOXOXOXOXOXOXOXOXC n.F.F.D.F.F.F.F.D.F.F.D.M.n.D.F.F.F.F.F.q.N S.F.F.n.% OXOXOXOXOXOXOXOXOXOXOXOXOXOXOXOXOX",
"OXOXOXOXOXOXOXOXOXOXOXOXOXOXOXOXOXOXOX# 0.b.F.D.f.t.t.a.C.F.F.F.D.C.a.t.M.F.F.D.q.f t.Z.n.q.% OXOXOXOXOXOXOXOXOXOXOXOXOXOXOXOXOX",
"OXOXOXOXOXOXOXOXOXOXOXOXOXOXOXOXOXOXOXOX. A M.n.A d h b f.F.F.D.Z.p.b d p.F.D.C.q.h b d.e.f OXOXOXOXOXOXOXOXOXOXOXOXOXOXOXOXOXOX",
"OXOXOXOXOXOXOXOXOXOXOXOXOXOXOXOXOXOXOX    % h b p.C.C.C.A.F.D.A.q.Z M.C.S.A.C.C e.M.n.C q.d.f OXOXOXOXOXOXOXOXOXOXOXOXOXOXOXOXOX",
"OXOXOXOXOXOXOXOXOXOXOXOXOXOXOXOXOXOXOXOX  V d.d.Z.D.F.F.F.F.Z.0.t.n.F.F.p.C A a.q.y.S.b.q.A t.b OXOXOXOXOXOXOXOXOXOXOXOXOXOXOXOX",
"OXOXOXOXOXOXOXOXOXOXOXOXOXOXOXOXOXOXOXOXOXB d.A.F.F.F.F.F.C.a.w.b.F.A.f.q.N % q.q.t.A.F.y.b C.N   OXOXOXOXOXOXOXOXOXOXOXOXOXOXOX",
"OXOXOXOXOXOXOXOXOXOXOXOXOXOXOXOXOXOXOXOXOXOXh b.A.D.D.C.C.t.d M.D.A.n.m u.s.S @ t.D.D.F.q.b M.N   OXOXOXOXOXOXOXOXOXOXOXOXOXOXOX",
"OXOXOXOXOXOXOXOXOXOXOXOXOXOXOXOXOXOXOXOXOXOX# h f.A.C.V d % f C.F.f.m I./ T P.t e.D.F.D.q.b M.N   OXOXOXOXOXOXOXOXOXOXOXOXOXOXOX",
"OXOXOXOXOXOXOXOXOXOXOXOXOXOXOXOXOXOXOX    B p.a.0.A w.t.p.A f M.F.d.S E.R.Y.^.G t.D.S.t.h b M.N   OXOXOXOXOXOXOXOXOXOXOXOXOXOXOX",
"OXOXOXOXOXOXOXOXOXOXOXOXOXOXOXOXOXOXOX    C f.S.a.C Z p.p.A s t.C.d.S E.{.{./.G e.Z.s.Q D f t.i OXOXOXOXOXOXOXOXOXOXOXOXOXOXOXOX",
"OXOXOXOXOXOXOXOXOXOXOXOXOXOXOXOXOXOXOXOXOX# h b.A.A.M.V d s # n s.t.n 3.^.^.R.y q.h.L T.:.  # OXOXOXOXOXOXOXOXOXOXOXOXOXOXOXOXOX",
"OXOXOXOXOXOXOXOXOXOXOXOXOXOXOXOXOXOXOXOX    # h f.D.A.C.M.e.y 3.^ % @ t y t t @ % W R.'.,.  OXOXOXOXOXOXOXOXOXOXOXOXOXOXOXOXOXOX",
"OXOXOXOXOXOXOXOXOXOXOXOXOXOXOXOXOXOXOX= =.E   . N d.D.D.D.p.D W.T.R t =.I G K.n I I.'.}.,.  OXOXOXOXOXOXOXOXOXOXOXOXOXOXOXOXOXOX",
"OXOXOXOXOXOXOXOXOXOXOXOXOXOXOXOXOXOXOX= P.<.# N B q.d.f.C.p.S Q.}.R.=.^.=.~  XK.1.Y._.T.R   OXOXOXOXOXOXOXOXOXOXOXOXOXOXOXOXOXOX",
"OXOXOXOXOXOXOXOXOXOXOXOXOXOXOXOXOXOXOXG T.2.m f.M.t.h b f.g.P P._.[.'.}.,.^  XXXK.~ W.I @ OXOXOXOXOXOXOXOXOXOXOXOXOXOXOXOXOXOXOX",
"OXOXOXOXOXOXOXOXOXOXOXOXOXOXOXOXOXOXG Y.(.(.L.M d 0.n.M.A.A.f.P 3.}.}.}.^.2.E  XH.k.~.J   OXOXOXOXOXOXOXOXOXOXOXOXOXOXOXOXOXOXOX",
"OXOXOXOXOXOXOXOXOXOXOXOXOXOXOXOXOXOX- R >.>.E *   d 0.0.q.d.Z.s.! 2.}.{.}.^.L..XJ.V.~.J   OXOXOXOXOXOXOXOXOXOXOXOXOXOXOXOXOXOXOX",
"OXOXOXOXOXOXOXOXOXOXOXOXOXOXOXOXOXOX* J I t $ u c a     7 P g.g.! ,.'.{.}.}.}.oX|.G.).>.G OXOXOXOXOXOXOXOXOXOXOXOXOXOXOXOXOXOXOX",
"OXOXOXOXOXOXOXOXOXOXOXOXOXOXOXOXOXOXG W.(.<.k i.c.5.. 6 {  .w - ,.^.^./.].}.}.}.].`.}.^.>.  OXOXOXOXOXOXOXOXOXOXOXOXOXOXOXOXOXOX",
"OXOXOXOXOXOXOXOXOXOXOXOXOXOXOXOXOXOXK /.{./.2.v 9.5.O } #.#.o.o...H K H 3.}.}.}.{.{.(.R t OXOXOXOXOXOXOXOXOXOXOXOXOXOXOXOXOXOXOX",
"OXOXOXOXOXOXOXOXOXOXOXOXOXOXOXOXOXOXt >.:.:.R * l u o ` +.&.&.%.| ' ' ' -.2.[.{.Y.:.>.t OXOXOXOXOXOXOXOXOXOXOXOXOXOXOXOXOXOXOXOX",
"OXOXOXOXOXOXOXOXOXOXOXOXOXOXOXOXOXOXOX  .         6 9 o _ X.o.$.*.*.%.O.r W I.Y.R     OXOXOXOXOXOXOXOXOXOXOXOXOXOXOXOXOXOXOXOXOX",
"OXOXOXOXOXOXOXOXOXOXOXOXOXOXOXOXOXOXOXOXOXOXOX    2 } < 6 9 2 @.*.%.O.e 5.7.k - = OXOXOXOXOXOX= - *   OXOXOXOXOXOXOXOXOXOXOXOXOX",
"OXOXOXOXOXOXOXOXOXOXOXOXOXOXOXOXOXOXOXOXOXOXOX    O 2 } X.X.o.%.&.X.e 5.v.c.7.a OXOXOXOXOXOX= <.Y.2.- OXOXOXOXOXOXOXOXOXOXOXOXOX",
"OXOXOXOXOXOXOXOXOXOXOXOXOXOXOXOXOXOXOXOXOXOXOX      O _ +.&.&.&.&.} a x.N.c.5.^ I OXOXOXOXOX= P.R.=.=   OXOXOXOXOXOXOXOXOXOXOXOX",
"OXOXOXOXOXOXOXOXOXOXOXOXOXOXOXOXOXOXOXOXOXOXOX        o _ @.*.&.&.} a x.c.r.Y Q.2.G G OXOXOX= Y.3.G G K q   OXOXOXOXOXOXOXOXOXOX",
"OXOXOXOXOXOXOXOXOXOXOXOXOXOXOXOXOXOXOXOXOXOXOX  # # #   o 5 #.$.%.| w 9.4.L R.[._.^.E.I * $ g Y.(././.W.:.  OXOXOXOXOXOXOXOXOXOX",
"OXOXOXOXOXOXOXOXOXOXOXOXOXOXOXOXOXOXOXOXOXOXOX# 4.9.5.$   6 1 2 | #. .k $ = E Q.{.{.[.R.j.7.i.U.{.{.[.,.H OXOXOXOXOXOXOXOXOXOXOX",
"OXOXOXOXOXOXOXOXOXOXOXOXOXOXOXOXOXOXOXOXOXOXOX# x 5.5.z z z x z r ' _ O     - :.<.3.[.}.G.N.B.U.{.{.(.T   OXOXOXOXOXOXOXOXOXOXOX",
"OXOXOXOXOXOXOXOXOXOXOXOXOXOXOXOXOXOXOXOXOXOXOX    + w 7.z.z.z.z.z a a .   OXOX    J T.E.l.z.v.K.E.E.R.I OXOXOXOXOXOXOXOXOXOXOXOX",
"OXOXOXOXOXOXOXOXOXOXOXOXOXOXOXOXOXOXOXOXOXOX    X 4 | w $ p p a 5.z.9.a o o o o o OXq q ; p s ; q q t OXOXOXOXOXOXOXOXOXOXOXOXOX",
"OXOXOXOXOXOXOXOXOXOXOXOXOXOXOXOXOXOXOXOXOX    o ` O.$.| 9       a l j [ } } } } 3   OXOXOXOXOXOXOXOXOXOXOXOXOXOXOXOXOXOXOXOXOXOX",
"OXOXOXOXOXOXOXOXOXOXOXOXOXOXOXOXOXOXOXOX    O 4 O.&.$.{ _ <       6 _ #.%.&.&.&.} 3 OXOXOXOXOXOXOXOXOXOXOXOXOXOXOXOXOXOXOXOXOXOX",
"OXOXOXOXOXOXOXOXOXOXOXOXOXOXOXOXOXOXOX    + 2 @.%.&.@.2 ] ' o     < o.+.$.&.&.&.%.| O OXOXOXOXOXOXOXOXOXOXOXOXOXOXOXOXOXOXOXOXOX",
"OXOXOXOXOXOXOXOXOXOXOXOXOXOXOXOXOXOXo o o 4 @.*.&.&.%.+.5 O     X + 7 9 { &.&.&.&.X.+ OXOXOXOXOXOXOXOXOXOXOXOXOXOXOXOXOXOXOXOXOX",
"OXOXOXOXOXOXOXOXOXOXOXOXOXOXOXOXOX  6 ] { O.*.*.&.&.&.%.3       3 { { { @.%.&.&.&.X.O OXOXOXOXOXOXOXOXOXOXOXOXOXOXOXOXOXOXOXOXOX",
"OXOXOXOXOXOXOXOXOXOXOXOXOXOXOXOX  7 ' $.%.&.&.&.&.&.$.} <       3  .{ { { { } $.*.X.O OXOXOXOXOXOXOXOXOXOXOXOXOXOXOXOXOXOXOXOXOX",
"OXOXOXOXOXOXOXOXOXOXOXOXOXOXOX    _ %.&.&.&.&.&.&.$.| 6           o o o o O < +.#.{ O OXOXOXOXOXOXOXOXOXOXOXOXOXOXOXOXOXOXOXOXOX",
"OXOXOXOXOXOXOXOXOXOXOXOXOXOXOX    _ %.%.&.&.&.*.%.{ 7 o                   < o.$.] 7 OXOXOXOXOXOXOXOXOXOXOXOXOXOXOXOXOXOXOXOXOXOX",
"OXOXOXOXOXOXOXOXOXOXOXOXOXOX      9 ] #.&.&.&.%.{ 1                       O 3 4 < OXOXOXOXOXOXOXOXOXOXOXOXOXOXOXOXOXOXOXOXOXOXOX",
"OXOXOXOXOXOXOXOXOXOXOXOXOX          7 { #.&.$.} <   OX                          OXOXOXOXOXOXOXOXOXOXOXOXOXOXOXOXOXOXOXOXOXOXOXOX",
"OXOXOXOXOXOXOXOXOXOXOXOXOX          o O { @.X.7 OXOX                        OXOXOXOXOXOXOXOXOXOXOXOXOXOXOXOXOXOXOXOXOXOXOXOXOXOX",
"OXOXOXOXOXOXOXOXOXOXOXOX                6 8 7 OXOXOX          OXOXOXOXOXOXOXOXOXOXOXOXOXOXOXOXOXOXOXOXOXOXOXOXOXOXOXOXOXOXOXOXOX",
"OXOXOXOXOXOXOXOXOXOXOXOX      X , >       OXOXOXOXOX        OXOXOXOXOXOXOXOXOXOXOXOXOXOXOXOXOXOXOXOXOXOXOXOXOXOXOXOXOXOXOXOXOXOX",
"OXOXOXOXOXOXOXOXOXOXOXOX    + > ) >     OXOXOXOXOXOX      OXOXOXOXOXOXOXOXOXOXOXOXOXOXOXOXOXOXOXOXOXOXOXOXOXOXOXOXOXOXOXOXOXOXOX",
"OXOXOXOXOXOXOXOXOXOXOX    X > ) : X   OXOXOXOXOXOXOX    OXOXOXOXOXOXOXOXOXOXOXOXOXOXOXOXOXOXOXOXOXOXOXOXOXOXOXOXOXOXOXOXOXOXOXOX",
"OXOXOXOXOXOXOXOXOXOXOX    , ) > X   OXOXOXOXOXOXOXOXOXOXOXOXOXOXOXOXOXOXOXOXOXOXOXOXOXOXOXOXOXOXOXOXOXOXOXOXOXOXOXOXOXOXOXOXOXOX",
"OXOXOXOXOXOXOXOXOXOXOX    : , + OXOXOXOXOXOXOXOXOXOXOXOXOXOXOXOXOXOXOXOXOXOXOXOXOXOXOXOXOXOXOXOXOXOXOXOXOXOXOXOXOXOXOXOXOXOXOXOX",
"OXOXOXOXOXOXOXOXOXOXOX        OXOXOXOXOXOXOXOXOXOXOXOXOXOXOXOXOXOXOXOXOXOXOXOXOXOXOXOXOXOXOXOXOXOXOXOXOXOXOXOXOXOXOXOXOXOXOXOXOX",
"OXOXOXOXOXOXOXOXOXOXOXOXOXOXOXOXOXOXOXOXOXOXOXOXOXOXOXOXOXOXOXOXOXOXOXOXOXOXOXOXOXOXOXOXOXOXOXOXOXOXOXOXOXOXOXOXOXOXOXOXOXOXOXOX",
"OXOXOXOXOXOXOXOXOXOXOXOXOXOXOXOXOXOXOXOXOXOXOXOXOXOXOXOXOXOXOXOXOXOXOXOXOXOXOXOXOXOXOXOXOXOXOXOXOXOXOXOXOXOXOXOXOXOXOXOXOXOXOXOX",
"OXOXOXOXOXOXOXOXOXOXOXOXOXOXOXOXOXOXOXOXOXOXOXOXOXOXOXOXOXOXOXOXOXOXOXOXOXOXOXOXOXOXOXOXOXOXOXOXOXOXOXOXOXOXOXOXOXOXOXOXOXOXOXOX"
};
