/* XPM */
static char *dd940b1938f740d7844ed19d196b79a5edp9N7RJxQvrqddF[] = {
/* columns rows colors chars-per-pixel */
"61 87 20 1 ",
"  c None",
". c #060608",
"X c black",
"o c #F9A31B",
"O c #73172D",
"+ c #FA6A0A",
"@ c #B9BFFB",
"# c #7D3833",
"$ c #3B2027",
"% c #E9B5A3",
"& c #8F4D57",
"* c #F5FFE8",
"= c #477D85",
"- c #3A3F5E",
"; c #71413B",
": c #14121D",
"> c #1B2447",
", c #DAE0EA",
"< c #3B1725",
"1 c white",
/* pixels */
"                                                             ",
"                                                             ",
"                                                             ",
"                                                             ",
"                                                             ",
"                                 .                           ",
"                           XX   XoX                          ",
"                       XX  XoXXXOoX                          ",
"                       XoXXXOoooXOoX X                       ",
"                       XOooo++++oO+oXoX                      ",
"                       XXOO++++++++oX+oX                     ",
"                     XXoo++O++++++++++oX                     ",
"                    Xoo++++++++++++++++oX                    ",
"                   XXXo+OO+++++++++++++oX                    ",
"                   XooOO+++++++++++++++oX                    ",
"                    XXo+++++++++++++++++oX                   ",
"                  XXoo++O+++++o+++++++++oX                   ",
"                   XOOOO++XO++oo+++o++++oX                   ",
"                    XXO+++XO++oOo+oX+oOoX                    ",
"                      Xo+XO++oXXXo.XoXOoX                    ",
"                     Xo+XO++oX@#$X%&X$XOX                    ",
"                    Xo++OXXoX&*#$%%%#$XX                     ",
"                     XXOOX&X&%%%%%%%%%X                      ",
"                       XOX&%%%%%%%%%%%X                      ",
"                        XOX%&%%%%%%%%%X                      ",
"                        XOOXX&%%%%%%%X                       ",
"                        XXX&&X&%%%%%%X                       ",
"                          X&%&X&&%%%X                        ",
"                          X&%&&XX&&&X                        ",
"                         X&&%%&X XXX                         ",
"                       .XOX&%%&X                             ",
"                     ..=.OX&%%%%XXX                          ",
"                   ..====.OX&%%%XOOXX                        ",
"                  .======.OX&%%%.OX==X                       ",
"                  .=======.O.%%.OOX==X                       ",
"                  .=======.OO.%XOOX==X                       ",
"                 .=====-===XOO.OOX===X                       ",
"                 .=====-===.OO.OOX===X                       ",
"                 .====-.====XOOOX=====.                      ",
"                 .====-.-===.OOOX=====X                      ",
"                .=====-.-====XOX======X                      ",
"                .=====-.-=====X=======.                      ",
"                .====-.---====.========.                     ",
"               .=====-.---=====.======-.                     ",
"               .=====-.----====X======-.                     ",
"               .=====-.----=====.=====-.                     ",
"              .======-.-----====.====---.                    ",
"              .=====--.------===X===----.                    ",
"              .=====--.--------==.=-----.                    ",
"             .======--.----------.------.                    ",
"             .======--.XXXX------X---XXX                     ",
"             .======--.;;;;XXXXXX....;;X                     ",
"             .=====---.XXX;;;;;;;;;;;XXX                     ",
"            .======---.---XXXXXXXXX..===X                    ",
"            .=====---.------====X-======X                    ",
"            .====----.----======X-======X                    ",
"            .===-----.---=======X-======X                    ",
"             ..------.---========X-=====X                    ",
"               .......--=========X-======X                   ",
"                 .%&&.--=========X-======X                   ",
"                .%%%&.--========X:X-=====X                   ",
"                .%%%&.----======X:X---==-X                   ",
"               .%%%%&.-------==X::X-----XX                   ",
"               .&&%&.:.XX------X::X---XX>.                   ",
"                ..&&.::::XXXXXXX:::XXX:>>.                   ",
"                 ...:::::::::::.:::::::>>.                   ",
"                 .>>:::::::::::.:::::::>>.                   ",
"                 .>>::::::::::.:::::::::>.                   ",
"                .>>>::::::::::.:::::::::>.                   ",
"                .>>>::::::::::.:::::::::>.                   ",
"                .>>:::::::::::.:::::::::>.                   ",
"               .>>>:::::::::::.:::::::::>>.                  ",
"               .>>>::::::::::.::::::::::>>.                  ",
"               .>>>::::::::::.::::::::::>>.                  ",
"              .>>>>::::::::::.::::::::::>>.                  ",
"              .>>>>>:::::::::.::::::::::>>.                  ",
"              .>>>>>::::::::.::::::::::>>>.                  ",
"               .>>>>>:::::::.::::::::::>>>.                  ",
"                .>>>>>>:::::..::::::::>>>>.                  ",
"                ...>>>>>>:::. ..:::>>>>>..                   ",
"                .,,..>>>>>>.    ..>>>...                     ",
"               .,,,. ...>>.     .,...                        ",
"               .,,,.    ..      .,,,.                        ",
"               X,<<.            X,,<<X                       ",
"               X<,,<X           X<<,,<X                      ",
"               X,,,<,X          X,,,,,<XX                    ",
"               X,,,<,X          X,,,,,,,,X                   "
};
