/* XPM */
static char *result[] = {
/* columns rows colors chars-per-pixel */
"31 82 13 1 ",
"  c #000001",
". c #100A17",
"X c #0F1F47",
"o c #353D5F",
"O c #87102A",
"+ c #823D36",
"@ c #FF6A00",
"# c #A24C57",
"$ c #FFA400",
"% c #037E86",
"& c #FAB6A4",
"* c #D9E1EC",
"= c None",
/* pixels */
"===================== =========",
"===============  === $ ========",
"===========  == $   O$ ========",
"=========== $   O$$$ O$ = =====",
"=========== O$$$@@@@$O@$ $ ====",
"===========  OO@@@@@@@@$ @$ ===",
"=========  $$@@O@@@@@@@@@@$ ===",
"======== $$@@@@@@@@@@@@@@@@$ ==",
"=======   $@OO@@@@@@@@@@@@@$ ==",
"======= $$OO@@@@@@@@@@@@@@@$ ==",
"========  $@@@@@@@@@@@@@@@@@$ =",
"======  $$@@O@@@@@$@@@@@@@@@$ =",
"======= OOOO@@ O@@$$@@@$@@@@$ =",
"========  O@@@ O@@$O$@$ @$O$ ==",
"========== $@ O@@$   $  $ O$ ==",
"========= $@ O@@$ *+. &# . O ==",
"======== $@@O  $ #*+.&&&+.  ===",
"=========  OO # #&&&&&&&&& ====",
"=========== O #&&&&&&&&&&& ====",
"============ O &#&&&&&&&&& ====",
"============ OO  #&&&&&&& =====",
"============   ## #&&&&&& =====",
"============== #&# ##&&& ======",
"============== #&##  ### ======",
"============= ##&&# =   =======",
"===========  O #&&# ===========",
"=========  % O #&&&&   ========",
"=======  %%%% O #&&& OO  ======",
"====== %%%%%% O #&&& O %% =====",
"====== %%%%%%% O && OO %% =====",
"====== %%%%%%% OO & OO %% =====",
"===== %%%%%o%%% OO OO %%% =====",
"===== %%%%%o%%% OO OO %%% =====",
"===== %%%%o %%%% OOO %%%%% ====",
"===== %%%%o o%%% OOO %%%%% ====",
"==== %%%%%o o%%%% O %%%%%% ====",
"==== %%%%%o o%%%%% %%%%%%% ====",
"==== %%%%o ooo%%%% %%%%%%%% ===",
"=== %%%%%o ooo%%%%% %%%%%%o ===",
"=== %%%%%o oooo%%%% %%%%%%o ===",
"=== %%%%%o oooo%%%%% %%%%%o ===",
"== %%%%%%o ooooo%%%% %%%%ooo ==",
"== %%%%%oo oooooo%%% %%%oooo ==",
"== %%%%%oo oooooooo%% %ooooo ==",
"= %%%%%%oo oooooooooo oooooo ==",
"= %%%%%%oo     oooooo ooo   ===",
"= %%%%%%oo ++++          ++ ===",
"= %%%%%ooo    +++++++++++   ===",
" %%%%%%ooo ooo           %%% ==",
" %%%%%ooo oooooo%%%% o%%%%%% ==",
" %%%%oooo oooo%%%%%% o%%%%%% ==",
" %%%ooooo ooo%%%%%%% o%%%%%% ==",
"=  oooooo ooo%%%%%%%% o%%%%% ==",
"===       oo%%%%%%%%% o%%%%%% =",
"===== &## oo%%%%%%%%% o%%%%%% =",
"==== &&&# oo%%%%%%%% . o%%%%% =",
"==== &&&# oooo%%%%%% . ooo%%o =",
"=== &&&&# ooooooo%% .. ooooo  =",
"=== ##&# .   oooooo .. ooo  X =",
"====  ## ....       ...   .XX =",
"=====   ........... .......XX =",
"===== XX........... .......XX =",
"===== XX.......... .........X =",
"==== XXX.......... .........X =",
"==== XXX.......... .........X =",
"==== XX........... .........X =",
"=== XXX........... .........XX ",
"=== XXX.......... ..........XX ",
"=== XXX.......... ..........XX ",
"== XXXX.......... ..........XX ",
"== XXXXX......... ..........XX ",
"== XXXXX........ ..........XXX ",
"=== XXXXX....... ..........XXX ",
"==== XXXXXX.....  ........XXXX ",
"====   XXXXXX... =  ...XXXXX  =",
"==== **  XXXXXX ====  XXX   ===",
"=== *** =   XX ===== *   ======",
"=== *** ====  ====== *** ======",
"=== *.. ============ **.. =====",
"=== .**. =========== ..**. ====",
"=== ***.* ========== *****.  ==",
"=== ***.* ========== ******** ="
};
