/* XPM */
static char *move2[] = {
/* columns rows colors chars-per-pixel */
"64 64 206 2 ",
"   c None",
".  c #1D1C1B",
"X  c #111010",
"o  c #0A0808",
"O  c #251616",
"+  c #311811",
"@  c #2E221B",
"#  c #242322",
"$  c #2E2A27",
"%  c #2A2929",
"&  c #282425",
"*  c #332B27",
"=  c #3B2C25",
"-  c #392928",
";  c #37322D",
":  c #272C36",
">  c #29343C",
",  c #343332",
"<  c #3C3935",
"1  c #32363A",
"2  c #3C3C3D",
"3  c #3A3533",
"4  c #352D32",
"5  c #461010",
"6  c #7F1818",
"7  c #731A1A",
"8  c #671C1C",
"9  c #512F1F",
"0  c #5C321F",
"q  c #57311F",
"w  c #64341D",
"e  c #6E361B",
"r  c #73361A",
"t  c #7C3919",
"y  c #723314",
"u  c #642D12",
"i  c #422424",
"p  c #442E24",
"a  c #492F23",
"s  c #442F2D",
"d  c #542D21",
"f  c #4A3329",
"g  c #533120",
"h  c #503628",
"j  c #423939",
"k  c #543D32",
"l  c #653927",
"z  c #74362D",
"x  c #4A443D",
"c  c #45413C",
"v  c #574438",
"b  c #6F4C39",
"n  c #1F2E58",
"m  c #193D59",
"M  c #242D47",
"N  c #223A4B",
"B  c #293748",
"V  c #343C46",
"C  c #213E53",
"Z  c #363D54",
"A  c #1B3067",
"S  c #1B3374",
"D  c #2A3668",
"F  c #283878",
"G  c #483752",
"H  c #1F425C",
"J  c #1F4057",
"K  c #39434A",
"L  c #2A4256",
"P  c #334451",
"I  c #3D4A59",
"U  c #1B4A6C",
"Y  c #1D4664",
"T  c #1A4D73",
"R  c #18527C",
"E  c #2B4D67",
"W  c #3F4F61",
"Q  c #295473",
"!  c #395D79",
"~  c #3C607A",
"^  c #434444",
"/  c #494A4A",
"(  c #494845",
")  c #524C43",
"_  c #565148",
"`  c #434B54",
"'  c #4B5459",
"]  c #535357",
"[  c #635A4D",
"{  c #65564B",
"}  c #6B6152",
"|  c #64625B",
" . c #756A59",
".. c #7C715F",
"X. c #495668",
"o. c #565964",
"O. c #435C73",
"+. c #4A5167",
"@. c #5A6877",
"#. c #516473",
"$. c #676767",
"%. c #797166",
"&. c #8C1515",
"*. c #BA0C0C",
"=. c #AD1010",
"-. c #853A16",
";. c #8C3B15",
":. c #843B1B",
">. c #9E3F11",
",. c #933D17",
"<. c #A23F11",
"1. c #D00808",
"2. c #AC420F",
"3. c #B5430D",
"4. c #B9440C",
"5. c #A64212",
"6. c #B84611",
"7. c #864627",
"8. c #9B4015",
"9. c #C3460A",
"0. c #CB4809",
"q. c #D44906",
"w. c #DC4A05",
"e. c #D34908",
"r. c #E44C03",
"t. c #ED4E02",
"y. c #F34F01",
"u. c #F75000",
"i. c #F85000",
"p. c #847660",
"a. c #8C7C65",
"s. c #8B7D69",
"d. c #857C77",
"f. c #81735F",
"g. c #8F816B",
"h. c #94846B",
"j. c #9F8C72",
"k. c #9C8E7C",
"l. c #A79377",
"z. c #B39D7D",
"x. c #A38E71",
"c. c #B5A07F",
"v. c #163588",
"b. c #123796",
"n. c #0F379E",
"m. c #0D38A7",
"M. c #0E3BB5",
"N. c #253F86",
"B. c #165785",
"V. c #155A8C",
"C. c #185A89",
"Z. c #135E93",
"A. c #274A8E",
"S. c #12629C",
"D. c #166298",
"F. c #2E658D",
"G. c #0F69AA",
"H. c #1066A4",
"J. c #166BA8",
"K. c #0D6DB3",
"L. c #0C71BB",
"P. c #1473B7",
"I. c #206DA5",
"U. c #406880",
"Y. c #073CC7",
"T. c #033ED6",
"R. c #0A76C4",
"E. c #097ACC",
"W. c #0C78C5",
"Q. c #077ED4",
"!. c #087CD0",
"~. c #0040E8",
"^. c #1748CA",
"/. c #496DD8",
"(. c #0582DC",
"). c #0680D7",
"_. c #0385E4",
"`. c #028AEB",
"'. c #018DF2",
"]. c #008FF6",
"[. c #018DF2",
"{. c #0090F8",
"}. c #0090F8",
"|. c #0090F7",
" X c #8A8988",
".X c #958C8A",
"XX c #BBA583",
"oX c #BDA989",
"OX c #A2A09C",
"+X c #B3B0B2",
"@X c #C3AC88",
"#X c #CAB18C",
"$X c #CEB89C",
"%X c #DABF96",
"&X c #D3B991",
"*X c #D0B68F",
"=X c #DCC197",
"-X c #E6C99D",
";X c #D3C2AB",
":X c #EACDA1",
">X c #F3D4A5",
",X c #F8D8A8",
"<X c #F3D5A9",
"1X c #EED1A5",
"2X c #F7F3ED",
"3X c #C6CBDE",
/* pixels */
"                                                                                                                                ",
"                                                                                                                                ",
"                                                                                                                                ",
"                      K           > 1 V P P O.                                                                                  ",
"                    ` , (           > U E.W.~ / `                 L                                                             ",
"                    ' N D.@.$.o.W     ~ D._.L.S.F.O.              ^                                                             ",
"                    ' H ).C.U U Q O.  @.C (.{.|.Q.F.O.          #.~ X.                                                          ",
"                    +.H _.'.`.`.).E P B Y E.`.{.]._.Q O.      O.C.E.L                                                           ",
"                    +.H _.'.].{.'.(.Q.Q.L.U R.].{.].(.F.X.  W I._.Q.P                                                           ",
"                    I H ).Z.L.{.{.{.{.{.`.K.B.K.{.{.].B.^ X.I.(.{.Q.P                                                           ",
"                    I H !.L U L.'.{.{.{.{.'.H.V.L.'.{.K.Y N Q.{.{.Q.P                                                           ",
"                    I H !.C > R E.Q.`.{.{.{.].G.R `.{.].K.C Q.{.{.Q.B                                                           ",
"                V   o.H !.C V.K.J C K.`.|.{.{._.).].{.{.L.H Q.{.'.E.m                                                           ",
"                ( ] ( H !.C S._.R.L.B.S.].{.{.K.B.`.{.{._.E.`.{.L.!                                                             ",
"                ^ T V.V.C.M S.{.{.].K.L.].{.{.W.V.S._.{.{.{.{.{.H.P                                                             ",
"                K L.{.Q.Y : S.{.{.{.{.{.{.{.{.{.W.N H.R.Q.].].Q.B.V                                                             ",
"                B P.`.`.W.H S.`.'._._.`.'._.'.{.E.C N C R (.'.V.N P                                                             ",
"                  O.H.E.U K.C.C.).U C Z.).T W.{.`.Q.E.E.H.T ).(.E.P.E                                                           ",
"                  I V._.H.C.Z.Z.C.S.S.R._.G.C.L.{.{.{.{.).S.C.E.{.`.J.!                                                         ",
"                    F.R._.V.Z.S.B._.{.(.K.J.#.U.K.L.`.{.{._.B.S.E.].`.S.F.                                                      ",
"                      Q E.`.B.U _.]._.D.^ _ oXj.^ I P.`.{.].`.V.B.(.'.'.D.L                                                     ",
"                      ! E E.B.U `.'.C.$.&X%X1X-X%X#X' J.'.].]._.S.U ).].D.P                                                     ",
"                    ' ] > Y N U `.'.T ..>X,X,X,X,X>XXX@.S.'.{.{.H.> T !.D.P                                                     ",
"                    / > T R R C.G._.T _ x.l.=X,X,X,X,Xz.@.J.`.{.H.2 ' F.U K                                                     ",
"                      E E.`._.J.' P.Y 3 ) _ l.*X=X>X,X>X@X' P.`.H.K   I 1 1                                                     ",
"                        E E.V.| oX] >  .%X#X .)  .=X-X>X>X#X` G.S.V       &                                                     ",
"                          E M } -X@X[ ..=X..OX+XOX} [ z.,X%X( N N >         K K                                                 ",
"                            2 } :X>XXXXX&X) +X2X3XA.v..X,X%X) $.$.1       | g.a. .                                              ",
"                              [ XX@X-X,X=X..;X2X3X/./.+X,X%X)  X X2     | f.-X,Xl. .                                            ",
"                                c k l.-X>X:X<X1X=X$X$X:X>X#Xv 3 1 V   ( s.-X-X>X1XXX[                                           ",
"                                f 2.b h.>X,X,Xl.) ) ) z.@Xb 6.w A m.Z , a.*X .&X,X:X@X{                                         ",
"                              b 5.r.r x p.a.&X#Xj.j.j.a.[ f e.r S Y.B ..h.a.l.-X,X,X=X) ( ) v                                   ",
"                            v g 3.r.r M A D d.z.z.z.z.@.n p e.5.G A.$.j. .x l.z.z.z.x.b e e e e l                               ",
"                            o.M j 6.t D Y.T.S B B B B n.m.s q.y.2.v z.[ % * h h h h l q.t.t.r.0.l , , % . &                     ",
"                          ] A.Y.M.j 5.,.D Y.T.Y.Y.Y.Y.T.m.s e.y.r.6.v ; * q 9.q.q.q.w.y.i.y.e.0 * % % % % 2 , #                 ",
"                        $.l.@.b.Y.M 2.w.,.D Y.~.~.~.~.m.n * w r r w = -.2.9.y.i.i.i.i.u.i.9.w * % % % % % % % , #               ",
"                      $.g.=Xp.M v.: 2.i.r.:.F M.~.T.m.v.A % % 0 t t -.q.i.i.i.i.0.<.2.r.9.r - 7 6 6 6 6 6 6 6 7 O               ",
"                    #.+.+X$X ., x ; ,.r.u.t.:.D Y.M.A v.v.f g 4.y.y.i.u.i.t.q.e.r * w 4.-.p i *.1.1.1.1.1.1.1.*.5               ",
"                  ` N.T.^.+.3 [ XXx s 7.r.r.q.t M n m.S l q.r.t.i.i.y.t.r.9.g p = w 3.0 >.,.= i i i i i i i i - O               ",
"                  / v.Y.D k.} } *X)  X.Xl w w a M n.S z e.y.i.i.i.i.t.;.w g $ % t <.0 * a -.5.= % % % % % % % % o               ",
"                  / n S 2 #Xp.x a.g..X X{ k 3 n v.S z 0.i.i.i.i.0.,.;.a % % * t ,.r % % % g ,.;.a &                             ",
"                  / j ) < x.} % < l.p.%.      F b.4 >.w.i.y.0.9.-.% % % % % = >.e % % % % % p 5.u                               ",
"                  / p.XX< , 2 $ % < h.h.x     Z : % p >.r.0.g = * % % % , # . + @ # . . . . O +                                 ",
"                  j a.@X< & ;     # ; ; @       % = 2.;.g a $ % % % % X .                                                       ",
"                     .} < ;                   2 p >.r.9.t $ % % % #                                                             ",
"                      j                     ; % 0 r.i.i.3.* % % %                                                               ",
"                                            3 % 0 r.i.i.3.* % % %                                                               ",
"                                            3 % 0 r.i.i.3.* $ % &                                                               ",
"                                            j % 0 r.i.i.3.p ,.0 @                                                               ",
"                                            ^ % 0 r.i.i.e.;.8.t                                                                 ",
"                                          % % % 0 r.i.i.i.w.g                                                                   ",
"                                          ^ % * w r.i.i.i.w.9                                                                   ",
"                                        , , % r 0.y.i.i.i.w.9                                                                   ",
"                                        % % % 0 2.t.i.i.i.w.g                                                                   ",
"                                        % % % % a 4.t.i.i.w.g                                                                   ",
"                                        # % % % % a 4.t.y.0.u                                                                   ",
"                                          2 % % % % a 2.9.y                                                                     ",
"                                          ; 6 8 % % % 0 7.                                                                      ",
"                                          - *.&.% % % % s                                                                       ",
"                                          l =.&.% % % % %                                                                       ",
"                                        d *.7 - % % % % .                                                                       ",
"                                      z =.7 - % % % % %                                                                         ",
"                                    5 5 &.+ O . . . o                                                                           ",
"                                                                                                                                "
};
