/* XPM */
static char *move[] = {
/* columns rows colors chars-per-pixel */
"64 64 211 2 ",
"   c None",
".  c #1E1C1B",
"X  c #2C1B1B",
"o  c #242322",
"O  c #2A2929",
"+  c #2C2626",
"@  c #352626",
"#  c #332B27",
"$  c #3B2C25",
"%  c #332D2D",
"&  c #3C2A29",
"*  c #36322F",
"=  c #282C36",
"-  c #29333A",
";  c #333333",
":  c #3A3634",
">  c #3B3B3B",
",  c #3C3A37",
"<  c #3A2E33",
"1  c #471F1F",
"2  c #761919",
"3  c #7B1818",
"4  c #6B1C1C",
"5  c #59321F",
"6  c #502F1F",
"7  c #69351C",
"8  c #74371A",
"9  c #7C391A",
"0  c #7B3918",
"q  c #442424",
"w  c #432E24",
"e  c #4A2923",
"r  c #532222",
"t  c #4A3329",
"y  c #513021",
"u  c #5A3627",
"i  c #413E3C",
"p  c #433D39",
"a  c #583E38",
"s  c #6A392F",
"d  c #4D453D",
"f  c #45423C",
"g  c #51463D",
"h  c #6C4339",
"j  c #1F2F5A",
"k  c #243D4E",
"l  c #273846",
"z  c #33384A",
"x  c #373A44",
"c  c #233E52",
"v  c #293452",
"b  c #222D49",
"n  c #16337E",
"m  c #1D2F60",
"M  c #2B386B",
"N  c #1E435D",
"B  c #274458",
"V  c #374956",
"C  c #3D515E",
"Z  c #3B454C",
"A  c #1E4562",
"S  c #1C4A6B",
"D  c #1B4D72",
"F  c #19527B",
"G  c #195077",
"H  c #355369",
"J  c #2C526D",
"K  c #444445",
"L  c #4B4A49",
"P  c #534E49",
"I  c #5C554A",
"U  c #54514D",
"Y  c #444B51",
"T  c #4B535A",
"R  c #595A5A",
"E  c #555659",
"W  c #655C4E",
"Q  c #685E4F",
"!  c #635C55",
"~  c #6E6353",
"^  c #746958",
"/  c #7D705C",
"(  c #455564",
")  c #585C67",
"_  c #47546C",
"`  c #605E63",
"'  c #5B6268",
"]  c #556779",
"[  c #4D687E",
"{  c #656769",
"}  c #7C7569",
"|  c #687678",
" . c #747576",
".. c #736B65",
"X. c #8B1515",
"o. c #961313",
"O. c #B60D0D",
"+. c #873A16",
"@. c #933D14",
"#. c #9B3F12",
"$. c #D00808",
"%. c #C50A0A",
"&. c #AA410F",
"*. c #BC440C",
"=. c #A64010",
"-. c #AE4310",
";. c #B14A1A",
":. c #8F502E",
">. c #CB4709",
",. c #C64609",
"<. c #DD4B05",
"1. c #D34907",
"2. c #E44C03",
"3. c #EC4E02",
"4. c #F34F00",
"5. c #F85000",
"6. c #81735E",
"7. c #90745A",
"8. c #8C7D65",
"9. c #857763",
"0. c #867D70",
"q. c #885943",
"w. c #96856C",
"e. c #86837B",
"r. c #9F8D72",
"t. c #A59275",
"y. c #AB9778",
"u. c #A99577",
"i. c #B29D7D",
"p. c #A08E72",
"a. c #B6A07F",
"s. c #173588",
"d. c #163997",
"f. c #0F379F",
"g. c #213C84",
"h. c #0E38A7",
"j. c #0A3ABA",
"k. c #175582",
"l. c #155A8C",
"z. c #1C5781",
"x. c #145E93",
"c. c #295E85",
"v. c #254496",
"b. c #324785",
"n. c #12629B",
"m. c #176195",
"M. c #286997",
"N. c #35678E",
"B. c #294CAB",
"V. c #0F68A9",
"C. c #1165A2",
"Z. c #196CA8",
"A. c #0D6EB4",
"S. c #0B72BC",
"D. c #1573B7",
"F. c #546E8C",
"G. c #627382",
"H. c #6777AC",
"J. c #42558B",
"K. c #083BC2",
"L. c #063DCB",
"P. c #033ED8",
"I. c #1D4BC7",
"U. c #2454D5",
"Y. c #0A76C5",
"T. c #097ACB",
"R. c #0F78C4",
"E. c #077ED4",
"W. c #087ED3",
"Q. c #0040E8",
"!. c #1C51E0",
"~. c #5677D8",
"^. c #0582DB",
"/. c #0485E3",
"(. c #0389E9",
"). c #028AED",
"_. c #0388E7",
"`. c #008EF5",
"'. c #018CF1",
"]. c #0090F8",
"[. c #0090F8",
"{. c #7688CA",
"}. c #888A8B",
"|. c #A89F8F",
" X c #BAA483",
".X c #B9A485",
"XX c #ADA199",
"oX c #B8B3B8",
"OX c #ACAAB4",
"+X c #C5AD8A",
"@X c #C2AB87",
"#X c #CEB48D",
"$X c #C7B08C",
"%X c #D5BB93",
"&X c #D4B992",
"*X c #C2B09D",
"=X c #CABCB3",
"-X c #CEBBA7",
";X c #DDC198",
":X c #E6C99D",
">X c #DBC7AE",
",X c #ECCEA1",
"<X c #E5CBA8",
"1X c #F3D4A5",
"2X c #F8D8A8",
"3X c #EED0A2",
"4X c #F8E0BD",
"5X c #9FB1E2",
"6X c #CFD0D5",
"7X c #F7F6F4",
"8X c #CAD0E5",
/* pixels */
"                                                                                                                                ",
"                                                C             Y                                                                 ",
"                                                R {           : E                                                               ",
"                                              ] N.F. . .)   { - z.]                                                             ",
"                                              V T.C.A A A G. .c W.l.[     L '                                                   ",
"                                      Z       V T.)._._./.c.z N T._.m.T   E - '                                                 ",
"                                      K K {   V T.].].].`.^.T.S.S Y.x.E   R k.Z.(                                               ",
"                                      Y F F.{ l T.].].].].].].(.V.l.l.M.G.M.T.A.Y                                               ",
"                                      Y S.A.N l T.].].].].].].].).n.l.C.k.^.].T.c.[                                             ",
"                                      Y C./.S.k T._./.`.].].].].`.'.x.N ^.^.(.`.E.B                                             ",
"                                      K - n.S.k T.n.k.).].].].].].].n.A E.D V.].^.c                                             ",
"                                      > O k N l T.k.S ).].].].].].].E.Y.^.B n.].^.c                                             ",
"                                T L E R K c k.k.n.N S ).].].].].].].]./.n.l n.].^.c                                             ",
"                                R - ( }.R l.]._.D c F T.'.].].].].].].W.A c x.^.^.c                                             ",
"                                ) D R.C ; l.`.(././.A.D ^.].].`.(.(.(._././.x.k.T.B                                             ",
"                                ( F (.S.c l.W.F E.]._.T.).].].^.D A A k.(.].^.C.H N.                                            ",
"                                  F.C.^.A l.^.n.x.T.E.x.x.W.]._.n.x.x.x.n./.].E.M.[                                             ",
"                                  ] c E.l.l.T./.k.x.C.A A S./.T.'.].].E.F V.^.]./.F F.                                          ",
"                                    V T._.C.D W.W.l.k./.(./.Z.H T./.(.`.^.D n.^././.F , K                                       ",
"                                      H Y._.A.N c x.^.`.`.l.{ .XV c n.].`.^.l.c S E.G O ; K                                     ",
"                                    ) ; A S./.n.l n.]._.m.| @X:Xy.r.| n.).].T.F - D | ^ O O U                                   ",
"                                    T ; N A.]./.c n.].^.k y.2X2X2X2X X' Z.(.].A.= O / w.^ ~ , K                                 ",
"                                      Z Z./.'.T.C M./.^.k y.2X2X2X2X1X$XE D.(.A.= O p 8.,X:XW P                                 ",
"                                        H n.Y.C .X} z.T.k t.1X2X2X2X2X,X+XE V.A.= * w.:X1X,XQ W                                 ",
"                                          J N > $X#Xe.S = P t.1X2X2X2X%X9.XXG.N , r.;X2X2X,XQ W                                 ",
"                                            Z f $X2Xa.>  .}.e.r.t.;X2X*XJ.8X}.O f %X2X2X:Xt.d P                                 ",
"                                              f .X:Xa.U 6X7XOXv v .X2X=X~.8Xe.: !  X-X=XXXi ,                                   ",
"                                                I t.y.P 6X7X5XI.U.oX1X<X>X<X} ' oXE B.!.I.z                                     ",
"                                                  ^ L d ;X4X>XoXoX<Xi.9.%X6.b.v.E ; f.Q.K.v                                     ",
"                                              E ! q.@.:.7.8. X1X2X2X+Xw.9., d.h.= O F.{.H.x                                     ",
"                                            _ M j s 1.<.e b )  X X X@Xr.: y M v.U : u.2X&XL                                     ",
"                                          ( v L.P.n 8 1.u s.d.z z z z x $ *.9 ! +XW i.3X+XI                                     ",
"                                          ' j P.Q.n 7 2.1.s n K.K.K.K.f.< >.+.Q :X%X:Xa.~                                       ",
"                                        { 0. .g.L.n 7 3.4.8 b s.P.Q.Q.j.= 7 y f / 6.6.9.                                        ",
"                                        U 8.%X..v.m y &.-.:.^ ` d.h.h.s.= 7 8 8 8 7 w g                                         ",
"                                        U 8.,X@XL O O % d i.1X&XI ; % w $ ,.4.4.4.3.8 t                                         ",
"                                        U 8.#XI : O = i  X,X2X1X#XI 0 &.y ,.4.5.5.4.0 a                                         ",
"                                        L 8.:X.Xi.F.h.B.-X2X2X2X,XW e 9 =.0 *.5.5.4.>.:.h                                       ",
"                                          } i.1X2X{.Q.!.=X2X2X2X,XW O w @.+.,.5.5.5.5.=.t                                       ",
"                                            W +X#XH.K.B.XX#X#X#X+XI O O $ >.5.5.5.5.5.=.t                                       ",
"                                              d d x = - , p p p , % O O $ >.5.5.5.5.5.-.u                                       ",
"                                                  K O O O O O O O O O O $ >.5.5.5.5.5.2.;.s                                     ",
"                                                  K O # 0 y O O O O O O $ >.5.5.5.5.5.5.1.6                                     ",
"                                                : O $ 8 <.8 O O O O O O $ #.<.5.5.5.5.2.=.t                                     ",
"                                              : O # 8 2.4.8 O O O O O O O # @.<.<.<.<.#.$ %                                     ",
"                                            , O O +.<.4.4.8 O O O O o O O O $ y y y y w O .                                     ",
"                                          U O O O #.5.2.@.@.8 O O O   O : O O O O O O O O                                       ",
"                                          R O # 7 *.5.2.+.#.0 : O       : O O O O O O %                                         ",
"                                        > O # 5 >.4.5.4.3.0 O :         O O O O O q @ %                                         ",
"                                        U O y >.4.5.5.4.3.8 O o         : O O O q O.4 &                                         ",
"                                      L > O 5 2.5.5.5.2.+.w p           : O O O q $.2 r                                         ",
"                                      : O O w #.2.5.<.@.$ O *           O O O O q $.2 r                                         ",
"                                      O : O O $ &.>.#.# O O             O ; O O q $.2 r                                         ",
"                                        > @ @ O $ w $ O o                 ; ; O q $.2 r                                         ",
"                                        K 2 o.@ O O O o                     ; O q $.2 r                                         ",
"                                      a K X.%.& O O ,                         % & 3 r 1                                         ",
"                                      % r X.o.@ O O ;                           X X X                                           ",
"                                      p O.o.@ O O O o                                                                           ",
"                                    : & O.o.O O O ;                                                                             ",
"                                    q X.X.r O O O                                                                               ",
"                                    q o.r O O ; o                                                                               ",
"                                    + & & % O .                                                                                 ",
"                                                                                                                                ",
"                                                                                                                                "
};
