/* XPM */
static char *_80531fe489e49d0ad59b1a14b25a9dd[] = {
/* columns rows colors chars-per-pixel */
"50 50 50 1 ",
"  c #47704C",
". c #FFEC00",
"X c #FFEC00",
"o c #FFEC00",
"O c #FFEC00",
"+ c #FFEC00",
"@ c None",
"# c #FFEC00",
"$ c #FFEC00",
"% c #FFEC00",
"& c #FFEC00",
"* c #FFEC00",
"= c #FFEC00",
"- c #FFEC00",
"; c #FFEC00",
": c #FFEC00",
"> c #FFEC00",
", c #FFEC00",
"< c #FFEC00",
"1 c #FFEC00",
"2 c #FFEC00",
"3 c #FFEC00",
"4 c #FFEC00",
"5 c #FFEC00",
"6 c #FFEC00",
"7 c #FFEC00",
"8 c #FFEC00",
"9 c #FFEC00",
"0 c #FFEC00",
"q c #FFEC00",
"w c #FFEC00",
"e c #FFEC00",
"r c #FFEC00",
"t c #FFEF00",
"y c #FFF400",
"u c #FBE900",
"i c #010000",
"p c #716900",
"a c #C9BA00",
"s c #D7C700",
"d c #F1DF00",
"f c #302C00",
"g c #E1D000",
"h c #171500",
"j c #847A00",
"k c #575000",
"l c #A29600",
"z c #C0B200",
"x c #B3A500",
"c c #928700",
/* pixels */
"              41+<rrrrrrrrrrrrrr<+14              ",
"        oOXXOX56+<rrrrrrrrrrrrrr<+65XOXXOo        ",
"        Xq$###03;@rrrrrrrrrrrrrr@;30###$qX        ",
"        4>&%%%2+.@rrrrrrrrrrrrrr@.+2%%%&>4        ",
"       X-&+.=..=<rrrrrrrrrrrrrrrr<=..=.+&-X       ",
"     X4$12.rrrrtttttttrrrrrrrrrrrrrrrr@.21$4X     ",
"     4>&7;*rrrrtyyyyyttrrrrrrrrrrrrrrrr*;7&>4     ",
"    X$&+.*@rrrrruuuuuu@rrrrrrrrrrrrrrrr@*.+&$X    ",
" oX4-17.rrrrtrugsaaaagdutrrrrrrrrrrrrrrrrr.71-4Xo ",
" Oq>&2;*rrrrtrdzcpppjlsuttrrrrrrrrrrrrrrrr*;2&>qO ",
" X$&+.*@rrrtytglkfhhfpzdytrrrrrrrrrrrrrrrr@*.+&$X ",
" X#%.rrrrrrtytsjfiiihkxdyyrrrrrrrrrrrrrrrrrrr.%#X ",
" O#%=rrrrrrtytsjfiiiikxdyyrrrrrrrrrrrrrrrrrrr*w>X ",
" X#%.rrrrrrtytsjfiiihkxdyyrrrrrrrrrrrrrrrrrrr.%#X ",
"4502.rrrrrrtytglkfhhfpzdytrrrrrrrrrr*.:;;;;::+&$X ",
"163+=rrrrrrrtrdzcpppjlsuttrrrrrrrrrr=+%8&88886>qO ",
"++;.<rrrrrrrtrugsaaaagdutrrrrrrrrrrr:%0-5----5qXo ",
"<<@@rrrrrrrrrrrruuuuuu@rrr@*.:::::.:e15o  ooooo   ",
"rrrrrrrrrrrrrrrtyyyyyttrrrr:e%9999396#,           ",
"rrrrrrrrrrrrrrrtttttttrrrr@+8>$$$##$-4X           ",
"rrrrrrrrrrrrrrrrrrrr@*=..=:w04o OOXOOo            ",
"rrrrrrrrrrrrrrrrrrrr*;ew%w31-O                    ",
"rrrrrrrrrrrrrrrrrrrr=e6>###-,o                    ",
"rrrrrrrrrrrrrrrrrrrr.w>,oOXXo                     ",
"rrrrrrrrrrrrrrrrrrrr.3$                           ",
"rrrrrrrrrrrrrrrrrrr<.3$                           ",
"rrrrrrrrrrrrrrrrrrrr.w>,oOXXo                     ",
"rrrrrrrrrrrrrrrrrrrr=e6>###-,o                    ",
"rrrrrrrrrrrrrrrrrrrr*;ew%w31-O                    ",
"rrrrrrrrrrrrrrrrrrrr@*=..=:w04o OOXOOo            ",
"rrrrrrrrrrrrrrrrrrrrrrrrrr<+8>$$$##$-4X           ",
"rrrrrrrrrrrrrrrrrrrrrrrrrrr.e%9999396#,           ",
"<<@@rrrrrrrrrrrrrrrrrrrrrr@*.:::::.:e15o  ooooo   ",
"++;.<rrrrrrrrrrrrrrrrrrrrrrrrrrrrrr@:%0-5----5qXo ",
"163+=rrrrrrrrrrrrrrrrrrrrrrrrrrrrrrr=+%8&88886>qO ",
"4502.rrrrrrrrrrrrrrrrrrrrrrrrrrrrrrr*.:;;;;::+&$X ",
" X#%.rrrrrrrrrrrrrrrrrrrrrrrrrrrrrrrrrrrrrrrr.%#X ",
" O#%=rrrrrrrrrrrrrrrrrrrrrrrrrrrrrrrrrrrrrrrr*w>X ",
" X#%.rrrrrrrrrrrrrrrrrrrrrrrrrrrrrrrrrrrrrrrr.%#X ",
" X$&+.*@rrrrrrrrrrrrrrrrrrrrrrrrrrrrrrrrrr@*.+&$X ",
" Oq>&2;*rrrrrrrrrrrrrrrrrrrrrrrrrrrrrrrrrr*;2&>qO ",
" oX4-17.rrrrrrrrrrrrrrrrrrrrrrrrrrrrrrrrrr.71-4Xo ",
"    X$&+.*@rrrrrrrrrrrrrrrrrrrrrrrrrrrr@*.+&$X    ",
"     4>&7;*rrrrrrrrrrrrrrrrrrrrrrrrrrrr*;7&>4     ",
"     X4$12.rrrrrrrrrrrrrrrrrrrrrrrrrrrr.21$4X     ",
"       X-&+.=..=<rrrrrrrrrrrrrrrr<=..=.+&-X       ",
"        4>&%%%2+.@rrrrrrrrrrrrrr@.+2%%%&>4        ",
"        Xq$###03;@rrrrrrrrrrrrrr@;30###$qX        ",
"        oOXXOX56+<rrrrrrrrrrrrrr<+65XOXXOo        ",
"              41+<rrrrrrrrrrrrrr<+14              "
};
