/* XPM */
static char *result[] = {
/* columns rows colors chars-per-pixel */
"28 32 11 1 ",
"  c black",
". c #38002C",
"X c #683C34",
"o c #222A5C",
"O c #2C5B6D",
"+ c #A36D3E",
"@ c #AB1F65",
"# c #E6336A",
"$ c #158968",
"% c #663B93",
"& c None",
/* pixels */
"&&&&&&&&&&&&&&&&&&&&&&&&&&&&",
"&&&&&&&&&&&&&&&&&&&&&&&   &&",
"&&&&&&&&&&&&&&&&&&&&   ... &",
"&&&&&&&&&&&&&&&&&&  ...... &",
"&&&&&&&&&&&&&&&&& ....... &&",
"&&&&&&&&&&&&&&&&& ..++.. &&&",
"&&&&&&&&&&&&&&&    + %++ &&&",
"&&&&&&&&&&&     ## +%%%  &&&",
"&&&&&&&&   ++++ ####+%    &&",
"&&&&&&& ++++++++@###+++## &&",
"&&&&&& +++++++++####+++## &&",
"&&&&& ++++++++++####XXX#@ &&",
"&&&& +++++  +++#@@@XXXX@# &&",
"&&&& +++  && @@@@@@%%%%## &&",
"&&&& ++ &&&&& @@@@@%%%@# &&&",
"&&&&&  &&&&&& @@@@%%%%@ &&&&",
"&&&&&&&&&&&&& @@@@%%%@@ &&&&",
"&&&&&&&&&&&& o@@@%%%%@ &&&&&",
"&&&&&&&&&&&& oooo%%%@@ &&&&&",
"&&&&&&&&&&&& ooO$$$o  &&&&&&",
"&&&&&&&&&&& ooO$$$$$$  &&&&&",
"&&&&&&&&&& oooOOO$$$$$$ &&&&",
"&&&&&&&&&& oooOOOOOO$$$ &&&&",
"&&&&&&&&& oooooOOOOOOOO &&&&",
"&&&&&&&& ooooo    OOOOO &&&&",
"&&&&&&& ooooo &&& OOOO &&&&&",
"&&&&&& ooooo &&& OOOO &&&&&&",
"&&&&&& oooo &&& %%OO &&&&&&&",
"&&&&& oooo &&& %%%O &&&&&&&&",
"&&&& oooo &&&& %%  &&&&&&&&&",
"&&& .... &&&&& %% &&&&&&&&&&",
"&&& .... &&&&&   &&&&&&&&&&&"
};
