/* XPM */
static char *_1d8de8e8e5849a293d6a3f8b8113439[] = {
/* columns rows colors chars-per-pixel */
"45 61 228 2 ",
"   c None",
".  c #2C2C2E",
"X  c #25282E",
"o  c #34322D",
"O  c #3A362D",
"+  c #3E392D",
"@  c #2C2E32",
"#  c #2E3034",
"$  c #28303E",
"%  c #323233",
"&  c #383632",
"*  c #36393D",
"=  c #3E3D3B",
"-  c #383836",
";  c #302F30",
":  c #443B2C",
">  c #493E2C",
",  c #413D38",
"<  c #6D4E1C",
"1  c #7F681F",
"2  c #4C422D",
"3  c #46402D",
"4  c #544329",
"5  c #594629",
"6  c #5D492A",
"7  c #574527",
"8  c #5D5026",
"9  c #594C34",
"0  c #4C463B",
"q  c #614C27",
"w  c #6B5327",
"e  c #775824",
"r  c #6A5535",
"t  c #69593A",
"y  c #746327",
"u  c #273245",
"i  c #363C44",
"p  c #293A55",
"a  c #303F57",
"s  c #173D78",
"d  c #1C3965",
"f  c #223D66",
"g  c #364357",
"h  c #1E4178",
"j  c #28426C",
"k  c #314970",
"l  c #444343",
"z  c #494643",
"x  c #4C4B45",
"c  c #4D4C4B",
"v  c #474749",
"b  c #514D46",
"n  c #514F4A",
"m  c #54524C",
"M  c #5A554C",
"N  c #5D594E",
"B  c #595245",
"V  c #545352",
"C  c #5A5955",
"Z  c #5B5A59",
"A  c #595757",
"S  c #4A515F",
"D  c #685C4B",
"F  c #635C54",
"G  c #645F59",
"H  c #64625C",
"J  c #6A655B",
"K  c #6D6A5B",
"L  c #686456",
"P  c #736B5D",
"I  c #71675D",
"U  c #75715E",
"Y  c #74654E",
"T  c #595E65",
"R  c #6C6B63",
"E  c #6C6B6B",
"W  c #676665",
"Q  c #746C63",
"!  c #786D60",
"~  c #757362",
"^  c #7B7364",
"/  c #7D7B65",
"(  c #75736C",
")  c #7C756A",
"_  c #7E7C6C",
"`  c #7A7774",
"'  c #676B71",
"]  c #596377",
"[  c #845C1C",
"{  c #885F1B",
"}  c #8C611C",
"|  c #866A1C",
" . c #966619",
".. c #9C6A1A",
"X. c #9B6917",
"o. c #91751A",
"O. c #B9780E",
"+. c #A36D15",
"@. c #A56F17",
"#. c #AB7316",
"$. c #B87912",
"%. c #855F20",
"&. c #876B23",
"*. c #986B24",
"=. c #8B7423",
"-. c #8F6F37",
";. c #A57527",
":. c #C37D0C",
">. c #8A775A",
",. c #837C6B",
"<. c #847969",
"1. c #847D72",
"2. c #A98817",
"3. c #C6800E",
"4. c #CB820C",
"5. c #DD8B06",
"6. c #D38609",
"7. c #DB8B08",
"8. c #D58607",
"9. c #E48F03",
"0. c #EC9302",
"q. c #E59005",
"w. c #F29601",
"e. c #F69800",
"r. c #FB9B00",
"t. c #85836C",
"y. c #89866E",
"u. c #8B896F",
"i. c #8C8172",
"p. c #8C8A72",
"a. c #88867A",
"s. c #948674",
"d. c #928D75",
"f. c #9E8D7A",
"g. c #998A77",
"h. c #949276",
"j. c #94937A",
"k. c #9A957B",
"l. c #9C9B7D",
"z. c #9A9270",
"x. c #9F946B",
"c. c #A5937E",
"v. c #A4997F",
"b. c #A08E7A",
"n. c #A3A17E",
"m. c #133F83",
"M. c #0F418E",
"N. c #144289",
"B. c #124591",
"V. c #0D459A",
"C. c #224986",
"Z. c #265099",
"A. c #0845A6",
"S. c #054AB7",
"D. c #1449AC",
"F. c #285BB8",
"G. c #5979B9",
"H. c #5C6C8F",
"J. c #064DC5",
"K. c #898A89",
"L. c #94938E",
"P. c #A79681",
"I. c #AB9983",
"U. c #A99A86",
"Y. c #B19D86",
"T. c #A4A282",
"R. c #ABA986",
"E. c #AAA886",
"W. c #B5A18A",
"Q. c #BAA68C",
"!. c #B4B28D",
"~. c #B8B68D",
"^. c #BEAA91",
"/. c #BCBB93",
"(. c #B7B690",
"). c #A6AEAD",
"_. c #97A19C",
"`. c #C3AC92",
"'. c #CAB296",
"]. c #C0BE95",
"[. c #C8B599",
"{. c #D4BA9C",
"}. c #D3B89C",
"|. c #C5AB8F",
" X c #D9BFA1",
".X c #D6BFA1",
"XX c #CBBBA8",
"oX c #C2C197",
"OX c #C5C49A",
"+X c #CCCB9E",
"@X c #C9C79B",
"#X c #D0CF9F",
"$X c #CDCBA2",
"%X c #DBC2A3",
"&X c #D2CCA4",
"*X c #D4D3A4",
"=X c #D8D7A6",
"-X c #DCDBAA",
";X c #D9D8A7",
":X c #D8C8B6",
">X c #E3C5A6",
",X c #E3C9A9",
"<X c #EBCDAB",
"1X c #E7D8AD",
"2X c #F2D2AF",
"3X c #EDD2B1",
"4X c #E4D4B0",
"5X c #F4D5B3",
"6X c #FADAB6",
"7X c #F6DAB5",
"8X c #EDCFB0",
"9X c #E3E1AD",
"0X c #E5E4B2",
"qX c #ECEBB5",
"wX c #EBEAB5",
"eX c #F3EDB7",
"rX c #F4F3BB",
"tX c #F8F7BD",
"yX c #F9F9BE",
"uX c #FCFBBD",
"iX c #F2F0B5",
"pX c #B8EACE",
"aX c #CED4D0",
"sX c #DCECCA",
"dX c #FEFEC1",
"fX c #FCFCC1",
"gX c #EEE0C9",
"hX c #C9F6E0",
/* pixels */
"                                                              % x E                       ",
"                                  A V A A V c A               m t.a.a.                    ",
"                                E V n K ^ ~ ~ ) _             P /.E.a.K.                  ",
"                                L.Z N n.@X=X*X+XE.K H Q       ~ *X-X!.~                   ",
"                        H Z Z H W c x ,.oXqXtXrX=X!.E.d.(     ,.-XqX].K `                 ",
"          `       ` K.a.t._ _ ,._ ^ ~ _ T.$XrXfXyXqX9X(.p.a.t.P.9XrX*Xp.a.                ",
"      R Z V n F J H R l.+X=X=X=X=X=X=XOXh.h.+XqXuXfXfXwXoXy.k.+XiXuXiX+Xp.H               ",
"          A m t.E.!.(.&XrXyXyXyXyXyXyXqXOXl.h.&XyXfXfXyXwX/.j.l.9XfXfX1Xt.m               ",
"            H h./.9XqXtXfXyXtXtXyXuXfXfXqX@XT.+XiXtXuXuXyX1Xh.~ +XtXfX-Xt.m               ",
"              ( P.*XrXfXtX-X*X*X=XwXuXuXuXrX9X=X*X-XiXuXuXwXh.L !.0XrX+Xp.G               ",
"                1.p.OX0X*Xh.~ U t.].rXuXfXyX-Xl.^ p.=XfXfX9Xd.m ~ !.OXj.a.                ",
"                Z n ,.l.l.p.t.y.h.@XtXfXyX-XR.d.y.l.=XrX0X~.h.t.p.k.l.j.a.                ",
"                x - m J t.oX-X9X9XiXuXyX-XR.y.~.-X9X=X$X/.u.k./.+XT.u.T.d._               ",
"                  m h./.&XqXyXyXyXfXyX-XT.d./.0XrX=Xh.K U l.k.l.;X*XE.t.v.T.(             ",
"                    d./.0XfXdXfXyXrX=XT.h.!.0XrX=XT.p.L b / h.!.wXeX/.P T.R.W             ",
"                    G t.oXqXfXiX*X/.l.J T.0XtX=XT.,.l.y.N m h.1XfXtX/.K T.R.H             ",
"                    A C / OX-X@Xp.J m n R.rX0Xk.,.c.p.g.f.F l.wXfX0XR.K T.R.H             ",
"                E ( j.l.l.h.p.p.k.d.~ m E.wX-X,.<.'.`.'.`.K l.wXwX!.U M n.R.R             ",
"                Z R E.$X$Xh.~ / T.E.y.m p.OX*X/ <. X3X3X'.P l.=XOXd.F x y.l.E             ",
"                    R k.=X-X*X(.t.J m = M p.~.~ ^ `.,X%XW.L u.!.d.c.s.b m W               ",
"                  A l m p.*XrX0XoXE.t.m ! s./ b b ! <.<.I z N y.U.}.W.M x                 ",
"                ` ! , % x l.;XtXeX0X!.L f.W.^ x z F v v m = m s.%X8X`.F                   ",
"              H 1.I.F = 0 L v.*X-X0X/.L I.>X`.<.<.c.G Z   H 1.`.8X,XW.H                   ",
"              H i.|.^ I g.P.g.,.d.oX].K c.>X<X}.'.'.Q E   ).L.k.}.Y.,.                    ",
"              ,.I.{.c.s.f.b.s.t.h.oX&Xk.k.^.<X5X5X>Xc.a._.aX)._.[.i.m                     ",
"            C s.`.}.`.1.m b ,.~.oX#X=X*Xl.s.`.<X6X5X%XI.a.aXpXpX$Xi.z                     ",
"            , N I P L c * % x J J U z.*XoXl.y.'.5X6X2X{.XXsXhXpX&Xs.F                     ",
"            , K ,.<.m p d u % - , w -.x.l.j.g.[.8X5X6X5X5XgXsXsX4XQ.s.a.                  ",
"            b I..X[.) k m.p @ o 6 +.O.e t >.I.`.'.}.<X6X6X6X7X7X5X{.I._                   ",
"            N W.%X,X^.` a $ @ 2 +.5.0.6.:.;.Y D D >.|.8X6X6X2X,X XP.)                     ",
"              s.P.I.f.J * # % > { 3.0.0.0.6.@. . .*.>.^.<X<X'.c.f.,.                      ",
"                b b b = o % > 7 7 { $.4.q.w.0.9.8.@.M ` W.^.s.M m                         ",
"                        . + e  .q 4 q e O.w.r.0.#.B C.C.S A F               H V c v       ",
"                        . o 7 { X.X...@.8.e.0.#.D C.S.A.s a               1.k.s.I l       ",
"                        . . O 6 +.6.q.0.e.r.5.e j S.J.S.C.T R           n <.'.W.^ l A     ",
"                        @ u u * 7 +.q.r.r.r.7.w s J.S.Z.] Y.f.F m       n <.'.s.F x V m v ",
"                        u s N.s i 6 ..9.e.e.5.e j A.N.] I.>X{.W.I.1.Z v l ^ {.`.Y.P.f.I l ",
"                        u s M.N.s f c *.$.4.5.@.m h p J W.<X5X<X,XY.E k j H.%X5X3X>XW.<.V ",
"                        @ u u f B.A.N.g z e 3.3.&.i * c ) `. X,X5X,X_.F.D.G.:XeX7X X,.E   ",
"                        % @ % * a f s M.B.k t w 7 = '   K.( ^ f.%X,X).F.J.G.XX3X<X'.^     ",
"                      i % o 7 e e 9 p s M.N.h f p * W   E v v ( Y.Q.K.Z.D.H.U.Q.W.I.Q     ",
"                    c * % 4 X.7.8. .4 i u d V.V.j 0 q w w 9 Y                             ",
"                  c * % 4 +.7.r.r.8. .> # u p g t $.:.:.:.$.*.                            ",
"                c * % 7  .7.r.r.w.:.[ : @ @ & w #.q.0.w.w.0.4...                          ",
"              V = o 4  .5.r.r.w.4.[ > % @ % : } :.8.w.r.r.r.0.$.r                         ",
"            V * % 4 X.7.r.r.0.4.%.2 % % % & > q e } 8.e.r.r.w.:.r                         ",
"          V = % 7 X.7.r.r.w.4...} 6 % @ % 4 {  .X.@.7.w.r.r.w.:.r Z                       ",
"        V = o 7  .5.r.r.r.0.O.} X.w & @ % q +.O.O.O.:.5.w.r.w.:.r                         ",
"      c * @ : X.5.r.r.r.r.r.7.@.w : % % % : 4 6 7 4 q +.0.r.0.$.r                         ",
"      l # . > #.w.r.r.r.r.0.:.[ > % # # % % & & % % + } 5.q.3.*.                          ",
"    W i # @ : } 4.w.r.r.0.4.+.4 o @ % % % % @ @ @ @ % w O.:...                            ",
"    c % % % % > [ 4.9.5.4. .    . @ & 2 + % % % % # % : <                                 ",
"  Z , ; @ # % % 2 e e [ }       @ O 8 o.w + . . . . .                                     ",
"E c % @ % % % # % o o O       . o 8 o.2.&.                                                ",
"l = % % > 2 & % @ X           . + | 2.=.                                                  ",
"% @ % 2 | | > %               . o 8 =.                                                    ",
". % 2 1 o.| 3 %               . . O                                                       ",
"% 2 y 2.1 2 -                                                                             ",
": y 2.&.9 *                                                                               ",
"+ w =.t                                                                                   ",
"% , 9                                                                                     "
};
