/* XPM */
static char *stop[] = {
/* columns rows colors chars-per-pixel */
"64 64 210 2 ",
"   c None",
".  c #2A292A",
"X  c #2A2625",
"o  c #3A2424",
"O  c #332B27",
"+  c #312C2C",
"@  c #372825",
"#  c #38302C",
"$  c #262C37",
"%  c #2A3239",
"&  c #343333",
"*  c #3B3B3B",
"=  c #383636",
"-  c #221413",
";  c #591F1F",
":  c #7A1919",
">  c #5A321F",
",  c #4F2715",
"<  c #62331D",
"1  c #6B351B",
"2  c #73371A",
"3  c #7C391A",
"4  c #733415",
"5  c #452A25",
"6  c #582727",
"7  c #4C3125",
"8  c #48342B",
"9  c #563324",
"0  c #443C36",
"q  c #573538",
"w  c #782626",
"e  c #4B463E",
"r  c #66473A",
"t  c #1E2E5A",
"y  c #1F3F56",
"u  c #212D4C",
"i  c #292D43",
"p  c #263749",
"a  c #353A45",
"s  c #213D52",
"d  c #2A3755",
"f  c #333956",
"g  c #1A316C",
"h  c #173279",
"j  c #273976",
"k  c #343765",
"l  c #1F4058",
"z  c #3D4145",
"x  c #3C444B",
"c  c #37414A",
"v  c #264359",
"b  c #314451",
"n  c #3A4455",
"m  c #2F414E",
"M  c #1D4664",
"N  c #1B4A6C",
"B  c #1A4D73",
"V  c #19527B",
"C  c #17537F",
"Z  c #2B4C64",
"A  c #395366",
"S  c #325576",
"D  c #444445",
"F  c #4B4B4C",
"G  c #484847",
"H  c #514B42",
"J  c #544F48",
"K  c #53514F",
"L  c #464B55",
"P  c #49535E",
"I  c #565656",
"U  c #635A4D",
"Y  c #655D52",
"T  c #695F50",
"R  c #644F48",
"E  c #6B6355",
"W  c #716655",
"Q  c #756A5B",
"!  c #7D705C",
"~  c #4A5663",
"^  c #585B64",
"/  c #4C5979",
"(  c #444B62",
")  c #476077",
"_  c #586979",
"`  c #5D6666",
"'  c #646667",
"]  c #737677",
"[  c #70706C",
"{  c #871616",
"}  c #981313",
"|  c #B10F0F",
" . c #813A18",
".. c #893B15",
"X. c #923C14",
"o. c #9C3F14",
"O. c #A03F11",
"+. c #853C2B",
"@. c #D00808",
"#. c #984015",
"$. c #B1420E",
"%. c #BB440C",
"&. c #A54010",
"*. c #AD4617",
"=. c #A9410F",
"-. c #A44B21",
";. c #974E27",
":. c #C84709",
">. c #D54907",
",. c #DB4A05",
"<. c #D04808",
"1. c #ED4E02",
"2. c #E44C03",
"3. c #F24F01",
"4. c #F85000",
"5. c #F75000",
"6. c #80735E",
"7. c #936C4E",
"8. c #887A65",
"9. c #917C62",
"0. c #95846C",
"q. c #98876D",
"w. c #998B79",
"e. c #8E806A",
"r. c #A59275",
"t. c #AC987A",
"y. c #B29C7D",
"u. c #A18F74",
"i. c #14358A",
"p. c #0F379F",
"a. c #10379E",
"s. c #1D3791",
"d. c #0D38A9",
"f. c #0F37A3",
"g. c #0A3AB9",
"h. c #113BAA",
"j. c #165684",
"k. c #185B8B",
"l. c #145D93",
"z. c #1A5F90",
"x. c #2D4994",
"c. c #136097",
"v. c #12629B",
"b. c #1E689D",
"n. c #396789",
"m. c #2A6894",
"M. c #2147AB",
"N. c #0F6AAC",
"B. c #0F68A7",
"V. c #1066A3",
"C. c #196BA6",
"Z. c #1C71AE",
"A. c #0D6EB4",
"S. c #0B72BC",
"D. c #0C70B7",
"F. c #1276BE",
"G. c #1371B4",
"H. c #156FB1",
"J. c #4C6982",
"K. c #6E728A",
"L. c #073CC6",
"P. c #033ED7",
"I. c #033EDA",
"U. c #013FE2",
"Y. c #2A58D6",
"T. c #0A76C3",
"R. c #097ACB",
"E. c #067ED4",
"W. c #087CD0",
"Q. c #0040E8",
"!. c #0040E7",
"~. c #5C75C3",
"^. c #637DCE",
"/. c #0582DC",
"(. c #0880D7",
"). c #0485E3",
"_. c #0289E9",
"`. c #028AED",
"'. c #028BEE",
"]. c #018DF2",
"[. c #008EF5",
"{. c #008DF2",
"}. c #0090F8",
"|. c #0090F8",
" X c #0090F7",
".X c #7287CE",
"XX c #BCA583",
"oX c #B8B5B7",
"OX c #B0AEAC",
"+X c #9191A6",
"@X c #C5AD89",
"#X c #C2AA87",
"$X c #CCB38D",
"%X c #CDB491",
"&X c #D0B691",
"*X c #D5BB93",
"=X c #D9BE95",
"-X c #D0B68F",
";X c #CAB8A8",
":X c #DDC198",
">X c #E9CC9F",
",X c #E4C79B",
"<X c #D5C6B3",
"1X c #EBCDA1",
"2X c #F4D4A5",
"3X c #F8D8A8",
"4X c #F7D7A8",
"5X c #BAC5E1",
"6X c #D4D3D6",
"7X c #F7F1E7",
/* pixels */
"                                                                                                                                ",
"                                                      _ ] ] '                                                                   ",
"                                      P F           c * % l Z _                                                                 ",
"                                      I % P           x S E.(.S n A                 a                                           ",
"                                      ^ v H./ I F L     J.B ).E.R.Z.A             ~ F                                           ",
"                                      ^ M /.N.v.v.m._ ' ' s ).}.}./.b.)           J.m.)                                         ",
"                                      ^ M _.}.}.}.).C N N V A.).}.}._.j.J.      ) V.W.b                                         ",
"                                      ^ M ).).`.}.[.`.`.`.W.N A._.}.[.`.j.P   A G.{.W.b                                         ",
"                                      ~ M W.N N.[. X}.}.}.{.R.B V.[.[.}.j.= ( F._.}.W.b                                         ",
"                                      P M R.s l V.{.}.}.}.}.{.S.l.v.`.}.R.C s E.}.}.W.b                                         ",
"                                      ~ M W.s v k.B.N./.}.}.}.}.D.v.`.}.}.A.s E.}.}.W.b                                         ",
"                                  = ~ ^ M W.s v.D.y s B.).}.}.}.)./.[.}.}.S.N /.}._.F.Z                                         ",
"                                  * z a N R.s V.`./.E.j.c.}.}.}.V.V ).[.}.`.).{.}.A.A                                           ",
"                                  x l.A.V.N $ V.}.}.[.R.W.}.}.}.E.V.j./.}.}.}.}.}.V.x                                           ",
"                                  a T.}.E.j.% V.}.}.}.}.}.}.}.}.}.T.p j.v.D.{.[.S.N c                                           ",
"                                  d Z.)._.T.N v./.`.W.R./.`.E.`.}.R.M s s C R.`.l.s A                                           ",
"                                    ~ v.R.N D.j.j.R.M s c./.N S.`.{.).).).A.N R.).).R.Z                                         ",
"                                    x l._.D.B v.v.B A.T./.`.T.V N.}.}.}.}.).A.B S.}.`.T.S /                                     ",
"                                      n.N.).V.l.l.V._.}.R.k.z.] _ k.v.).}.}._.V.l.D.[.{.A.n.                                    ",
"                                        S F._.C B {.[.W.m.U E $Xt.U I C./.}.}.[.v.j.T.{.}.c.n                                   ",
"                                        ) b S.B B {.{.V ! >X>X2X2X>X*XE b.).[.[.`.V.l R.{.c.n                                   ",
"                                    m D G $ p % B {.'.B 6.4X4X3X3X3X2X=X[ j.'.}.}.V.$ s T.l.L                                   ",
"                                      F p v.V.V.l.l./.B e 6.8.*X3X3X3X3X@X] z.).}.V.z P n.l L                                   ",
"                                        S G._.R.m.` b.l e W Q q.y.#X2X3X3X$X' C./.V.x   ~ D z                                   ",
"                                          Z F.B W %XI & ! >X$XQ K Q $X=X>X4X&XG v.l.x       %                                   ",
"                                            v % W 1X*XT 8.*XE OX6XOXK D t.3X=Xe p p G                                           ",
"                                              a W 2X4X@X$X-XJ oX7X5XM.f.+X3X=XH I I *                                           ",
"                                                U u.r.=X3X,Xq.<X7X6X.X^.oX3X=XJ                                                 ",
"                                                  0 = q.,X4X4X4X,X&X&X&X,X1X#XU                                                 ",
"                                                    0 0 9.>X1X4Xr.H H H r.y.Y                                                   ",
"                                                G R *.%.;.U W $X=XXXXXXX8.H 0                                                   ",
"                                              S i.j +.>.O.$ j [ 0.0.0.0./ g * G                                                 ",
"                                            k d.Q.L.i $.O.u L.h t t t t d.d.$ d (                                               ",
"                                          p h.I.U.L.i $.=.a L.P.I.P.P.P.U.d.u g.j f                                             ",
"                                          * u d.Q.L.i $.2.*.f g.Q.Q.U.Q.Q.d.u L.g d                                             ",
"                                          D 8./ i.j +.,.4.2.o.k g.Q.Q.Q.Q.d.u L.g d                                             ",
"                                          H &Xr.H 5 &.2.4.4.1.X.k g.U.Q.L.j q s.t d                                             ",
"                                          Y *X2Xr.& 0 *.,.,.,.<.3 t L.L.h 9 $.8 . %                                             ",
"                                        Y %X1X2Xt.0   r 7 7 7 7 # $ u u $ + 5 . . =                                             ",
"                                      K n ~.^.K.8.    F t a.a.a.a.a.a.a.a.a.i.$ g x.n                                           ",
"                                      n t I.U.h L     G t p.p.p.p.p.p.p.p.p.i.i f.a.i                                           ",
"                                      L d Y.Y.j f   . . O 7 7 + . . . . . + 5 . x.x.a                                           ",
"                                    a * Y ;X<XQ K   = O 3 ,.<.< . . . . . < %.7 w.w.G                                           ",
"                                    G W $X2X4X&Xw.K =  .<.4.3.:.2 . . . . 1 <.7 t.:Xt.Y                                         ",
"                                    F 0.3X3X3X3Xt.+ O $.4.4.4.4.X.. . . . 1 ,.#.7.#X&Xe                                         ",
"                                    G 0.3X2X*X,Xt.# 9 :.4.4.4.4.X.. . . . 1 1.3.2 ! &Xe                                         ",
"                                    e q.1X,XW r.r.7 :.3.4.4.4.4.X.. . . O 3 3.3.2 W @XJ                                         ",
"                                      W 8.,X$X8.e 7 ,.4.4.4.4.4.X.. . . 3 >.3.3.2 * Y                                           ",
"                                        E e.9.H 7 o.1.4.4.4.4.4.X.. . . < $.3.3.%.1 =                                           ",
"                                          + . . 2 3.4.4.4.4.3.<.2 . . . . > %.1.4.&.8                                           ",
"                                          = . . 2 3.4.4.4.3.>.< O . . . O 5 1 ,.4.&.8                                           ",
"                                        * . . . 2 3.4.4.4.,.< O . . . .  .<.>.3.5.&.,                                           ",
"                                      . . . . . 7 X.2.4.4.<.8 8 # . . . >  . . . ...                                            ",
"                                        . . . . . @ o.$.$.-.4     X . . . . . . o                                               ",
"                                          = . . . . O O # ,         * . . . . 5 5                                               ",
"                                          & . . . . . . =           = . . . 5 | w                                               ",
"                                          = . : : . . . .           = . . . 5 @.: 6                                             ",
"                                        * & . } | O . . .           . . . . o { { +.                                            ",
"                                      + . . 5 } } X . .             . & . . . . } } 6                                           ",
"                                      * . o | { o . &                 . . . . . o : | 6                                         ",
"                                      D . 5 @.: . . &                   . . . . . 5 ; -                                         ",
"                                      = . @ { ; . . X                                                                           ",
"                                        X + o o O X -                                                                           ",
"                                                                                                                                "
};
