/* XPM */
static char *result[] = {
/* columns rows colors chars-per-pixel */
"64 64 193 2 ",
"   c #1A2437",
".  c #252524",
"X  c #2A2929",
"o  c #2F2826",
"O  c #342B26",
"+  c #3D2D25",
"@  c #362B2B",
"#  c #36312D",
"$  c #2A2D31",
"%  c #272B37",
"&  c #26333C",
"*  c #343333",
"=  c #393633",
"-  c #3D3C3B",
";  c #363839",
":  c #5E1E1E",
">  c #691C1C",
",  c #5A321F",
"<  c #6B351C",
"1  c #64331D",
"2  c #74371A",
"3  c #79391A",
"4  c #77381B",
"5  c #432E24",
"6  c #4C2824",
"7  c #522424",
"8  c #4D3527",
"9  c #523021",
"0  c #423E3B",
"q  c #433A35",
"w  c #563A35",
"e  c #723B26",
"r  c #4A453E",
"t  c #45423D",
"y  c #51403E",
"u  c #764533",
"i  c #1D2E5A",
"p  c #232D4B",
"a  c #222C47",
"s  c #223A4C",
"d  c #283947",
"f  c #3C3D43",
"g  c #202E52",
"h  c #253E51",
"j  c #283350",
"k  c #1D2F60",
"l  c #1C3064",
"z  c #183277",
"x  c #243674",
"c  c #483441",
"v  c #1F425C",
"b  c #33414C",
"n  c #3D4145",
"m  c #2B4558",
"M  c #384956",
"N  c #2E414F",
"B  c #1B4A6C",
"V  c #1D4765",
"C  c #1B4D72",
"Z  c #19527C",
"A  c #3D4B63",
"S  c #3C566E",
"D  c #265678",
"F  c #355A75",
"G  c #294F6B",
"H  c #3E607A",
"J  c #434345",
"K  c #4B4A4B",
"L  c #484848",
"P  c #534C46",
"I  c #5A5246",
"U  c #454C52",
"Y  c #4D4E55",
"T  c #48525A",
"R  c #565756",
"E  c #6A4D42",
"W  c #724F44",
"Q  c #645A4D",
"!  c #725045",
"~  c #5F635E",
"^  c #6B6151",
"/  c #69645C",
"(  c #776A58",
")  c #7D705D",
"_  c #454D68",
"`  c #475565",
"'  c #515B6C",
"]  c #5A6165",
"[  c #5B697D",
"{  c #476377",
"}  c #696665",
"|  c #686C74",
" . c #697478",
".. c #7E7467",
"X. c #961313",
"o. c #821717",
"O. c #B20D0D",
"+. c #A81B1B",
"@. c #843A17",
"#. c #8A3B15",
"$. c #9A3E12",
"%. c #943D13",
"&. c #A23F11",
"*. c #853D27",
"=. c #CB0909",
"-. c #AB410F",
";. c #B5430D",
":. c #A44010",
">. c #AA4111",
",. c #864628",
"<. c #824931",
"1. c #C4460A",
"2. c #CB4709",
"3. c #CD4909",
"4. c #DB4A05",
"5. c #D24907",
"6. c #E34C04",
"7. c #ED4E02",
"8. c #F34F01",
"9. c #F85000",
"0. c #81745F",
"q. c #8C7D66",
"w. c #847764",
"e. c #96856C",
"r. c #9B8C75",
"t. c #958A76",
"y. c #A18F73",
"u. c #A59275",
"i. c #AC987B",
"p. c #A99678",
"a. c #B29D7D",
"s. c #16368C",
"d. c #163994",
"f. c #273781",
"g. c #0D38AB",
"h. c #0A3AB9",
"j. c #193BA0",
"k. c #175785",
"l. c #155A8C",
"z. c #195A89",
"x. c #135E95",
"c. c #375886",
"v. c #295390",
"b. c #12629C",
"n. c #1B679C",
"m. c #21699D",
"M. c #336489",
"N. c #1D42A1",
"B. c #0F69AB",
"V. c #1166A3",
"C. c #1A6CA7",
"Z. c #0D6EB4",
"A. c #0C72BC",
"S. c #1274BA",
"D. c #1C71AE",
"F. c #296EA0",
"G. c #466A86",
"H. c #083BC3",
"J. c #053CCC",
"K. c #083DCB",
"L. c #043DD6",
"P. c #0A76C5",
"I. c #097ACB",
"U. c #077ED4",
"Y. c #097DD1",
"T. c #1077C1",
"R. c #0342E6",
"E. c #1144CC",
"W. c #0582DC",
"Q. c #0386E4",
"!. c #028AEC",
"~. c #008EF4",
"^. c #0090F8",
"/. c #8D9193",
"(. c #AA9A82",
"). c #B19D80",
"_. c #BAA484",
"`. c #9697AE",
"'. c #ABA9BC",
"]. c #C5AD89",
"[. c #C2AA86",
"{. c #CDB48E",
"}. c #D4BA92",
"|. c #D0B68F",
" X c #DCC097",
".X c #DFC398",
"XX c #E3C69B",
"oX c #E6C99D",
"OX c #ECCEA1",
"+X c #EFD1A2",
"@X c #F4D5A6",
"#X c #F8D8A8",
"$X c None",
/* pixels */
"$X$X$X$X$X$X$X$X$X$X$X$X$X$X$X$X$X$X$X$X$X$X$X$X$X$X$X$X$X$X$X$X$X$X$X$X$X$X$X$X$X$X$X$X$X$X$X$X$X$X$X$X$X$X$X$X$X$X$X$X$X$X$X$X",
"$X$X$X$X$X$X$X$X$X$X$X$X$X$X$X$X$X$X$X$X$X$X$X$X$X$X$X$X$X$X$X$X$X$X$X$X$X$X$X$X$X$X$X$X$X$X$X$X$X$X$X$X$X$X$X$X$X$X$X$X$X$X$X$X",
"$X$X$X$X$X$X$X$X$X$X$X$X$X$X$X$X$X$X$X$X$X$X$X$X$X$X$X$X$X$X$X$X$X$X$X$X$X$X$X$X$X$X$X$X$X$X$X$X$X$X$X$X$X$X$X$X$X$X$X$X$X$X$X$X",
"$X$X$X$X$X$X$X$X$X$X$X$X$X$X$X$X$X$X$X$X$X$X$X$X$X$X$X$X$X$X$X$X$X$X$X$X$X$X$X$X$X$X$X$X$X$X$X$X$X$X$X$X$X$X$X$X$X$X$X$X$X$X$X$X",
"$X$X$X$X$X$X$X$X$X$X$X$X$X$X$X$X$X$X$X$X$X$X$X$X$X$X$X$X$X$X$X$X$X$X$X$X$X$X$X$X$X$X$X$X$X$X$X$X$X$X$X$X$X$X$X$X$X$X$X$X$X$X$X$X",
"$X$X$X$X$X$X$X$X$X$X$X$X$X$X$X$X$X$X$X$X$X$X$X$X$X$X$X$X$X$X$X$X$X$X$X$X$X$X$X$X$X$X$X$X$X$X$X$X$X$X$X$X$X$X$X$X$X$X$X$X$X$X$X$X",
"$X$X$X$X$X$X$X$X$X$X$X$X$X$X$X$X$X$X$X$X$X$X$X$X$X$X$X$X$X$X$X$X$X$X$X$X$X$X$X$X$X$X$X$X$X$X$X$X$X$X$X$X$X$X$X$X$X$X$X$X$X$X$X$X",
"$X$X$X$X$X$X$X$X$X$X$X$X$X$X$X$X$X$X$X$X$X$X$X$X$X$X$X$X$X$X$X$X$X$X$X$X$X$X$X$X$X$X$X$X$X$X$X$X$X$X$X$X$X$X$X$X$X$X$X$X$X$X$X$X",
"$X$X$X$X$X$X$X$X$X$X$X$X$X$X$X$X$X$X$X$X$X$X$X$X$X$X$X$X$X$X$X$X$X$X$X$X$X$X$X$X$X$X$X$X$X$X$X$X$X$X$X$X$X$X$X$X$X$X$X$X$X$X$X$X",
"$X$X$X$X$X$X$X$X$X$X$X$X$X$X$X$X$X$X$X$X$X$X$X$X$X$X$X$X$X$X$X$X$X$X$X$X$X$X$X$X$X$X$X$X$X$X$X$X$X$X$X$X$X$X$X$X$X$X$X$X$X$X$X$X",
"$X$X$X$X$X$X$X$X$X$X$X$X$X$X$X$X$X$X$X$X$X$X$X$X$X$X$X$X$X$X$X$X$X$X$X$X$X$X$X$X$X$X$X$X$X$X$X$X$X$X$X$X$X$X$X$X$X$X$X$X$X$X$X$X",
"$X$X$X$X$X$X$X$X$X$X$X$X$X$X$X$X$X$X$X$X$X$X$X$X$X$X$X$X$X$X$X$X$X$X$X$X$X$X$X$X$X$X$X$X$X$X$X$X$X$X$X$X$X$X$X$X$X$X$X$X$X$X$X$X",
"$X$X$X$X$X$X$X$X$X$X$X$X$X$X$X$X$X$X$X$X$X$X$X$X$X$X$X$X$X$X$X$X$X$X$X$X$X$X$X$X$X$X$X$X$X$X$X$X$X$X$X$X$X$X$X$X$X$X$X$X$X$X$X$X",
"$X$X$X$X$X$X$X$X$X$X$X$X$X$X$X$X$X$X$X$X$X$X$X$X$X$X$X$X$X$X$X$X$X$X$X$X$X$X$X$X$X$X$X$X$X$X$X$X$X$X$X$X$X$X$X$X$X$X$X$X$X$X$X$X",
"$X$X$X$X$X$X$X$X$X$X$X$X$X$X$X$X$X$X$X$X$X$X$X$X$X$X$X$X$X$X$X$X$X$X$X$X$X$X$X$X$X$X$X$X$X$X$X$X$X$X$X$X$X$X$X$X$X$X$X$X$X$X$X$X",
"$X$X$X$X$X$X$X$X$X$X$X$X$X$X$X$X$X$X$X$X$X$X$X$X$X$X$X$X$X$X$X$X$X$X$X$X$X$X$X$X$X$X$X$X$X$X$X$X$X$X$X$X$X$X$X$X$X$X$X$X$X$X$X$X",
"$X$X$X$X$X$X$X$X$X$X$X$X$X$X$X$X$X$X$X$X$X$X$X$X$X$X$X$X$X$X$X$X$X$X$X$X$X$X$X$X$X$X$X$X$X$X$X$X$X$X$X$X$X$X$X$X$X$X$X$X$X$X$X$X",
"$X$X$X$X$X$X$X$X$X$X$X$X$X$X$X$X$X$X$X$X$X$X$X$X$X$X$X$X$X$X$X$X$X$X$X$X$X$X$X$X$X$X$X$X$X$X$X$X$X$X$X$X$X$X$X$X$X$X$X$X$X$X$X$X",
"$X$X$X$X$X$X$X$X$X$X$X$X$X$X$X$X$X$X$X$X$X$X$X$X$X$X$X$X$X$X$X$X$X$X$X$X$X$X$X$X$X$X$X$X$X$X$X$X$X$X$X$X$X$X$X$X$X$X$X$X$X$X$X$X",
"$X$X$X$X$X$X$X$X$X$X$X$X$X$X$X$X$X$X$X$X$X$X$X$X$X$X$X$X$X$X$X$X$X$X$X$X$X$X$X$X$X$X$X$X$X$X$X$X$X$X$X$X$X$X$X$X$X$X$X$X$X$X$X$X",
"$X$X$X$X$X$X$X$X$X$X$X$X$X$X$X$X$X$X$X$X$X$X$X$X$X$X$X$X$X$X$X$X$X$X$X$X$X$X$X$X$X$X$X$X$X$X$X$X$X$X$X$X$X$X$X$X$X$X$X$X$X$X$X$X",
"$X$X$X$X$X$X$X$X$X$X$X$X$X$X$X$X$X$X$X$X$X$X$X$X$X$X$X$X$X$X$X$X$X$X$X$X$X$X$X$X$X$X$X$X$X$X$X$X$X$X$X$X$X$X$X$X$X$X$X$X$X$X$X$X",
"$X$X$X$X$X$X$X$X$X$X$X$X$X$X$X$X$X$X$X$X$X$X$X$X$X$X$X$X$X$X$X$X$X$X$X$X$X$X$X$X$X$X$X$X$X$X$X$X$X$X$X$X$X$X$X$X$X$X$X$X$X$X$X$X",
"$X$X$X$X$X$X$X$X$X$X$X$X$X$X$X$X$X$X$X$X$X$X$X$X$X$X$X$X$X$X$X$X$X$X$X$X$X$X$X$X$X$X$X$X$X$X$X$X$X$X$X$X$X$X$X$X$X$X$X$X$X$X$X$X",
"$X$X$X$X$X$X$X$X$X$X$X$X$X$X$X$X$X$X$X$X$X$X$X$X$X$X$X$X$X$X$X$X$X$X$X$X$X$X$X$X$X$X$X$X$X$X$X$X$X$X$X$X$X$X$X$X$X$X$X$X$X$X$X$X",
"$X$X$X$X$X$X$X$X$X$X$X$X$X$X$X$X$X$X$X$X$X$X$X$X$X$X$X$X$X$X$X$X$X$X$X$X$X$X$X$X$X$X$X$X$X$X$X$X$X$X$X$X$X$X$X$X$X$X$X$X$X$X$X$X",
"$X$X$X$X$X$X$X$X$X$X$X$X$X$X$X$X$X$X$X$X$X$X$X$X$X$X$X$X$X$X$X$X$X$X$X$X$X$X$X$X$X$X$X$X$X$X$X$X$X$X$X$X$X$X$X$X$X$X$X$X$X$X$X$X",
"$X$X$X$X$X$X$X$X$X$X$X$X$X$X$X$X$X$X$X$X$X$X$X$X$X$X$X$X$X$X$X$X$X$X$X$X$X$X$X$X$X$X$X$X$X$X$X$X$X$X$X$X$X$X$X$X$X$X$X$X$X$X$X$X",
"$X$X$X$X$X$X$X$X$X$X$X$X$X$X$X$X$X$X$X$X$X$X$X$X$X$X$X$X$X$X$X$X$X$X$X$X$X$X$X$X$X$X$X$X$X$X$X$X$X$X$X$X$X$X$X$X$X$X$X$X$X$X$X$X",
"$X$X$X$X$X$X$X$X$X$X$X$X$X$X$X$X$X$X$X$X$X$X$X$X$X$X$X$X$X$X$X$X$X$X$X$X$X$X$X$X$X$X$X$X$X$X$X$X$X$X$X$X$X$X$X$X$X$X$X$X$X$X$X$X",
"$X$X$X$X$X$X$X$X$X$X$X$X$X$X$X$X$X$X$X$X$X$X$X$X$X$X$X$X$X$X$X$X$X$X$X$X$X$X$X$X$X$X$X$X$X$X$X$X$X$X$X$X$X$X$X$X$X$X$X$X$X$X$X$X",
"$X$X$X$X$X$X$X$X$X$X$X$X$X$X$X$X$X$X$X$X$X$X$X$X$X$X$X$X$X$X$X$X$X$X$X$X$X$X$X$X$X$X$X$X$XJ Y J $X$X$X$X$X$X$X$X$X$X$X$X$X$X$X$X",
"$X$X$X$X$X$X$X$X$X$X$X$X$X$X$X$X$X$X$X$X$X$X$X$X$X$X$X$X$X$X$X$X$X$X$X$X$X$X$X$X$X$X$X$X$XR d z.G.[ $X$X$X$X$X$X$X$X$X$X$X$X$X$X",
"$X$X$X$X$X$X$X$X$X$X$X$X$X$X$X$X$X$X$X$X$X$X$X$X$X$X$X$X$X$X$X$X$X$X$X$X$X$X$X$X$X$X$X$X$X$XN Y.V.G.$X$X$X$X$X$X$X$X$X$X$X$X$X$X",
"$X$X$X$X$X$X$X$X$X$X$X$X$X$X$X$X$X$X$X$X$X$X$X$X$X$X$X$X$X$X$X$X$X$X$X$X$X$X$X$X$X$X$X$X$X` b U.^.B.M $X$X$X$X$X$X$X$X$X$X$X$X$X",
"$X$X$X$X$X$X$X$X$X$X$X$X$X$X$X$X$X$X$X$X$X$X$X$X$X$X$X$X$X$X$X$X$X$X$X$X$X$X$XM n L U U U n d U.^.B.U $X$X$X$X$X$X$X$X$X$X$X$X$X",
"$X$X$X$X$X$X$X$X$X$X$X$X$X$X$X$Xw P K $X$X$X$X$X$X$X$X$X$X$X$X$X$X$X$X$X$X$X$X$XU N B.Z.Z.Z d W.^.W.D.S $X$X$X$X$X$X$X$X$X$X$X$X",
"$X$X$X$X$X$X$X$X$X$X$X$X$X$X$X! ,.@.@.<.! $X$X$X$X$X$X$X$X$X$X$X$X$X$X$X$X$X$X$X$X` n.Q.^.W.l.b.W.^.U.N $X$X$X$X$X$X$X$X$X$X$X$X",
"$X$X$X$X$X$X$X$X$X$X$X$X$X$XW < 1.2.6.2.e $X$X$X$X$X$X$X$X$X$X$X$X$X$X$X$X$X$X$X$X$Xb V.Q.^.W.Z b.I.B.b ` $X$X$X$X$X$X$X$X$X$X$X",
"$X$X$X$X$X$X$X$X$X$X$X$X$X8 ,.-.6 + $.6.3.e ! $X$X$X$X$X$X$X$X$X$X$X$X$X} R $X$XR t - n n.Q.^.W.Z d s & b M T $X$X$X$X$X$X$X$X$X",
"$X$X$X$X$X$X$X$X$X$X$X$X$XK 5 9 X X 5 %.6.3.u u $X$X$X$X$X$X$X$X$X$X$X} ..a.} Y e.].].]. .k.!.^.Z V P.P.P.P.D.] Y $X$X$X$X$X$X$X",
"$X$X$X$X$X$X$X$X$X$X$X$XJ L X X O 3 , 5 %.6.;.<.E P R ~ } } Y $X$X$X} e._.oXu.e._.@X#X#Xe.v Q.^.A.x.b.!.^.^.Q.b.x.G.[ $X$X$X$X$X",
"$X$X$X$X$X$X$X$X$X$X$X$X# X X X O $.#.9 5 :.1.@.% g % X % i k _ $X$X- u.#X#X@X{.}.#X#X#Xp.{ S.Q.~.B.h W.^.W.I.~.^.B.{ $X$X$X$X$X",
"$X$X$X$X$X$X$X$X$X$X$X$XJ X X X X O #.&.O O O O a h.l X i H.L.d._ $XR y.oX@XOX( w.XX@X#X@Xa.m W.~.Z.V W.^.B.B U.W.W.V.U $X$X$X$X",
"$X$X$X$X$X$X$X$X$X$X$X; X X X X X X 5 5 o X X X p H.l . i L.R.L.d.] _.w.q.@XOX^ = ( oX#X#X_.m W.~.!.W.~.^.!.Z.v s h d * f $X$X$X",
"$X$X$X$X$X$X$X$X$X$X$XX X X X X O #.:.:.:.:., X p H.l 1 *.x J.R.g.c |.( ( @XOX^ X I XX#X#XXXt.F P.^.^.^.^.^.Q.V.s Y ` $X$X$X$X$X",
"$X$X$X$X$X$X$X$X$X$XE 4 4 4 2 2 @.4.9.9.9.8.:., p H.l #.4.2 f.J.g.n |.p.p.@XOX^ r 0.a.XX#XXXy.F P.^.^.^.^.^.^.!.x.{ $X$X$X$X$X$X",
"$X$XO 6 7 7 w $X$XP 3 7.8.8.8.8.8.8.9.7.4.8.8.:.a H.l 2 4.6.e x j.n }.@X@X@XOX0.0.a.^ |.#X].R S.Q.^.^.^.^.^.^.^.~.l.M $X$X$X$X$X",
"$X$X7 =.=.=.+.w q = 3 8.7.9.9.9.9.9.9.1.< 2.8.&.p H.k 5 3 6.6.*.$ t {.#X#X#X@XoXe.Q ].oXOXXX_.T Z.^.^.^.^.^.^.^.^.x.` $X$X$X$X$X",
"$X$Xo > > > o.O.O.: 4 4.@.2.9.9.9.9.9.;.+ 1 1.&.p H.l < 1.8.9.5.#.# Q _.#X#X#X#Xe.= Q ^ ^ ^ ~ C.W.^.^.^.^.^.^.^.~.U.F.` $X$X$X$X",
"$X$X@ * X X 6 X.X.: 7 %.#.%.1.9.9.9.1.4 O X < 2 p H.l 1 &.8.&.$.3 o X u.}.i.OX#Xr.& Z l.k.k.x.Q.^.U.Z.!.^.^.^.^.^.^.A.N $X$X$X$X",
"$X$X$X- X X X X X X + < ;., 2 2.2.2.2 X X X X X p H.l X 9 &.w i g p $ 0.e.P  X#Xi.T T.!.^.^.~.Y.Q.A.B A.!.^.^.^.^.^.A.b $X$X$X$X",
"$X$X$XX $ X X X X X 1 ;.9 O O + 5 8 q = = X X X a h.g * q c d.L.L.H.a = ; L {.oX.Xi.m A.Q.!.U.B B.Q.P.C Z.!.^.^.^.^.S.b $X$X$X$X",
"$X$X$X$X* X X X X X + 9 X X X X = y.].].a.q X X % a $ ^ ]._.T g.R.J.a X V D.T I I P $ N v v V Z.k.x.!.P.Z V.^.^.^.^.A.M $X$X$X$X",
"$X$X$X$X$X= X X X X X X X X X 0 q.q.q.a.XXu.P g s.s.| [.#XXXI s.J.z % b { l.l.x.b.b.x.x.x.x.V.Q.A.x.x.W.B k.^.^.^.^.W.m.F $X$X$X",
"$X$X$X$X$X$X. X X . . . . X * r y.r r q.+X@Xr.c.R.R.'.XX_.i.r z v.x   $X$XN W.~.W.I.~.^.^.Q.P.!.^.P.k.W.x.l.P.~.^.^.^.W.h $X$X$X",
"$X$X$X$X$X$X$X$X$X$X$X$X$X$X$X# = - q. X@X#X+X`.K.E.`.r.P r * % i $X$X$X$Xh W.Q.n.F Y.~.~.P.B P.!.~.!.~.!.x.v W.~.~.^.Q.V { $X$X",
"$X$X$X$X$X$X$X$X$X$X$X$X$X$X$X$X0 i.q.0.OX@X@X(.j j f } $X$X$X$X$X$X$X$X' h Y.z.M.$XG I.^.!.P.B Z.~.^.^.^.b.X m I.~.~.~.U.D $X$X",
"$X$X$X$X$X$X$X$X$X$X$X$X$X$X$X$X$Xq.e.e.) ( ) w.$X$X$X$X$X$X$X$X$X$X$X$XK & G M.$X$X$XM.A.^.~.Z.l.Z x.Q.^.b.J /.M.Z Z k.Z s $X$X",
"$X$X$X$X$X$X$X$X$X$X$X$X$X$X$X$X$X/ t.0.- P P $X$X$X$X$X$X$X$X$X$X$X$X$XU K h $X$X$X$XF M.B.Z.Q.Z L  .C.B.C J /.| M M M T d $X$X",
"$X$X$X$X$X$X$X$X$X$X$X$X$X$X$X$X$X$X$XJ = $X$X$X$X$X$X$X$X$X$X$X$X$X$X$X$X$X$X$X$X$X$X$X$XN A S.B } /.` b b c J $X$X$X$X$X$X$X$X",
"$X$X$X$X$X$X$X$X$X$X$X$X$X$X$X$X$X$X$X$X$X$X$X$X$X$X$X$X$X$X$X$X$X$X$X$X$X$X$X$X$X$X$X$X$X$X$XM ; - Y $X$X$X$X$X$X$X$X$X$X$X$X$X",
"$X$X$X$X$X$X$X$X$X$X$X$X$X$X$X$X$X$X$X$X$X$X$X$X$X$X$X$X$X$X$X$X$X$X$X$X$X$X$X$X$X$X$X$X$X$X$X$X$X$X$X$X$X$X$X$X$X$X$X$X$X$X$X$X",
"$X$X$X$X$X$X$X$X$X$X$X$X$X$X$X$X$X$X$X$X$X$X$X$X$X$X$X$X$X$X$X$X$X$X$X$X$X$X$X$X$X$X$X$X$X$X$X$X$X$X$X$X$X$X$X$X$X$X$X$X$X$X$X$X"
};
