/* XPM */
static char *result[] = {
/* columns rows colors chars-per-pixel */
"64 64 198 2 ",
"   c #1A1817",
".  c #231E1E",
"X  c #3B1E1E",
"o  c #30241E",
"O  c #17212A",
"+  c #252424",
"@  c #2C2927",
"#  c #2A2929",
"$  c #292626",
"%  c #332A27",
"&  c #3B2D25",
"*  c #322D2C",
"=  c #392928",
"-  c #262A33",
";  c #2C2D32",
":  c #252B3B",
">  c #2C3338",
",  c #343333",
"<  c #3A3634",
"1  c #3D3C3B",
"2  c #36383B",
"3  c #332C30",
"4  c #591F1F",
"5  c #6B1B1B",
"6  c #492919",
"7  c #562F1E",
"8  c #5C321E",
"9  c #62331D",
"0  c #6C361B",
"q  c #74371A",
"w  c #7B3818",
"e  c #773415",
"r  c #432E24",
"t  c #4B2F22",
"y  c #432424",
"u  c #4B3024",
"i  c #543120",
"p  c #5A3324",
"a  c #423F3A",
"s  c #483735",
"d  c #553B38",
"f  c #552020",
"g  c #6D3927",
"h  c #46423C",
"j  c #4C463E",
"k  c #4E493F",
"l  c #50483C",
"z  c #69412D",
"x  c #1A374B",
"c  c #222C4A",
"v  c #243542",
"b  c #26304B",
"n  c #233A4B",
"m  c #2A3746",
"M  c #323B43",
"N  c #383B44",
"B  c #203E52",
"V  c #1A316A",
"C  c #193378",
"Z  c #253772",
"A  c #5E3943",
"S  c #1E435D",
"D  c #3B4247",
"F  c #384956",
"G  c #254459",
"H  c #1C4A6C",
"J  c #1A4E73",
"K  c #18527C",
"L  c #195077",
"P  c #365A77",
"I  c #324D70",
"U  c #35617E",
"Y  c #434343",
"T  c #494847",
"R  c #554E44",
"E  c #5B5449",
"W  c #5A5246",
"Q  c #474B55",
"!  c #4D5158",
"~  c #5D5958",
"^  c #504E50",
"/  c #635A4D",
"(  c #60574A",
")  c #665E53",
"_  c #6D6253",
"`  c #686258",
"'  c #716656",
"]  c #776C5A",
"[  c #7F715E",
"{  c #455774",
"}  c #495569",
"|  c #506472",
" . c #736C65",
".. c #6E6C6C",
"X. c #981313",
"o. c #841717",
"O. c #AE0F0F",
"+. c #8D3C15",
"@. c #863B18",
"#. c #933D13",
"$. c #9D3F11",
"%. c #A03F11",
"&. c #AD420E",
"*. c #B3430D",
"=. c #BB440B",
"-. c #A54010",
";. c #BD4912",
":. c #934723",
">. c #C5460A",
",. c #CC4808",
"<. c #D24907",
"1. c #DB4A05",
"2. c #D14908",
"3. c #E54C03",
"4. c #EC4E02",
"5. c #F44F00",
"6. c #F85000",
"7. c #81735F",
"8. c #8A7B65",
"9. c #877A66",
"0. c #807875",
"q. c #95846C",
"w. c #99886F",
"e. c #9E8C72",
"r. c #968974",
"t. c #A18E72",
"y. c #A59275",
"u. c #AA9679",
"i. c #AE9A7B",
"p. c #A4937B",
"a. c #B39D7D",
"s. c #14358A",
"d. c #173585",
"f. c #10369A",
"g. c #153795",
"h. c #213F90",
"j. c #0E38A6",
"k. c #0F37A2",
"l. c #1239A9",
"z. c #155A8B",
"x. c #175683",
"c. c #135F96",
"v. c #13418F",
"b. c #2A5F85",
"n. c #2F4B97",
"m. c #12629B",
"M. c #18659C",
"N. c #2B628A",
"B. c #296A99",
"V. c #3E6989",
"C. c #0E6AAC",
"Z. c #1165A2",
"A. c #136BAB",
"S. c #0E6CB0",
"D. c #0C71BA",
"F. c #1A71AF",
"G. c #456685",
"H. c #495FA4",
"J. c #4D66B1",
"K. c #053CCC",
"L. c #083BC4",
"P. c #043DD3",
"I. c #033EDA",
"U. c #003FE4",
"Y. c #1449D5",
"T. c #2353D9",
"R. c #0A76C4",
"E. c #0979CB",
"W. c #0978C7",
"Q. c #077ED3",
"!. c #0040E8",
"~. c #627BC9",
"^. c #0582DD",
"/. c #0680D7",
"(. c #0485E3",
"). c #018AED",
"_. c #008EF4",
"`. c #0090F8",
"'. c #BAA483",
"]. c #B9A483",
"[. c #AAA6B1",
"{. c #C2AA86",
"}. c #C4AC88",
"|. c #CBB28C",
" X c #D5BA92",
".X c #DABE95",
"XX c #D1B791",
"oX c #CDBCAD",
"OX c #DFC298",
"+X c #E2C69A",
"@X c #E9CC9F",
"#X c #E6C99D",
"$X c #ECCEA1",
"%X c #E2C7A0",
"&X c #EFD1A3",
"*X c #F8D8A8",
"=X c #F3D4A5",
"-X c None",
/* pixels */
"-X-X-X-X-X-X-X-X-X-X-X-X-X-X-X-X-X-X-X-X-X-X-X-X-X-X-X-X-X-X-X-X-X-X-X-X-X-X-X-X-X-X-X-X-X-X-X-X-X-X-X-X-X-X-X-X-X-X-X-X-X-X-X-X",
"-X-X-X-X-X-X-X-X-X-X-X-X-X-X-X-X-X-X-X-X-X-X-X-X-X-X-X-X-X-X-X-X-X-X-X-X-X-X-X-X-X-X-X-X-X-X-X-X-X-X-X-X-X-X-X-X-X-X-X-X-X-X-X-X",
"-X-X-X-X-X-X-X-X-X-X-X-X-X-X-X-X-X-X-X-X-X-X-X-X-X-X-X-X-X-X-X-X-X-X-X-X-X-X-X-X-X-X-X-X-X-X-X-X-X-X-X-X-X-X-X-X-X-X-X-X-X-X-X-X",
"-X-X-X-X-X-X-X-X-X-X-X-X-X-X-X-X-X-X-X-X-X-X-X-X-X-X-X-X-X-X-X-X, -X-X-X-X-X-X-X-X-X-X-X-X-X-X-X-X-X-X-X-X-X-X-X-X-X-X-X-X-X-X-X",
"-X-X-X-X-X-X-X-X-X-X-X-X-X-X-X-X-X-X-X-X-X-X-X-X-X-X-X-X-X-X-XD ; 2 -X-X-X-X-X-X-X-X-X-X-X-X-X-X-X-X-X-X-X-X-X-X-X-X-X-X-X-X-X-X",
"-X-X-X-X-X-X-X-X-X-X-X-X-X-X-X-X-X-X-X-X-X-X-X-XD -X-X-X-X| P S.n N -X-X-X-X-X-X-X-X-X-X-X-X-X-X-X-X-X-X-X-X-X-X-X-X-X-X-X-X-X-X",
"-X-X-X-X-X-X-X-X-X-X-X-X-X-X-X-X-X-X-X-X-X-X-X~ N -X-X-X-XG.D./.G -X-X-X-X-X-X-X-X-X-X-X-X-X-X-X-X-X-X-X-X-X-X-X-X-X-X-X-X-X-X-X",
"-X-X-X-X-X-X-X-X-X-X-X-X-X-X-X-X-X-X-X-X-X-X| S > -X-X-X2 m.`.^.B -X-X-X-X-X-X-X-X-X-X-X-X-X-X-X-X-X-X-X-X-X-X-X-X-X-X-X-X-X-X-X",
"-X-X-X-X-X-X-X-X-X-X-X-X-X-X-X-X-X-X-X-X-XF P W.S ! -X-XF Z.`.^.B F -X-X-X-X-X-X-X-X-X-X-X-X-X-X-X-X-X-X-X-X-X-X-X-X-X-X-X-X-X-X",
"-X-X-X-X-X-X-X-X-X-X-X-X-X-X-X-X-X-X-X-X-XQ J (./.V.! } F.(.`.^.B Y T -X-X-X-X-X-X-X-X-X-X-X-X-X-X-X-X-X-X-X-X-X-X-X-X-X-X-X-X-X",
"-X-X-X-X-X-X-X-X-X-X-X-X-X-X-X-X-X-X-X-X-XQ J ).).K + > /.D.m.z.v E 9...` -X-X-X-X-X-X-X-X-X-X-X-X-X-X-X-X-X-X-X-X-X-X-X-X-X-X-X",
"-X-X-X-X-X-X-X-X-X-X-X-X-X-X-X-X-X-X-X-X-XQ J )._.m.G > A.U W R R i.|./ R ` -X-X-X-X-X-X-X-X-X-X-X-X-X-X-X-X-X-X-X-X-X-X-X-X-X-X",
"-X-X-X-X-X-X-X-X-X-X-X-X-X-X-X-X-X-X-X-X-X! J )._.^.M.M D r.OXOX+X$X&X+X+Xr.` -X-X-X-X-X-X-X-X-X-X-X-X-X-X-X-X-X-X-X-X-X-X-X-X-X",
"-X-X-X-X-X-X-X-X-X-X-X-X-X-X-X-X-X-X-X-X! h J )._.M.| a.a.OX*X*X*X*X*X*X*X.Xp.` -X-X-X-X-X-X-X-X-X-X-X-X-X-X-X-X-X-X-X-X-X-X-X-X",
"-X-X-X-X-X-X-X-X-X-X-X-X-X-X-X-X-X-X-X| N.z.S._._.K ' OXu.OX*X*X*X*X*X$Xi.w.q.8. .-X-X-X-X-X-X-X-X-X-X-X-X-X-X-X-X-X-X-X-X-X-X-X",
"-X-X-X-X-X-X-X-X-X-X-X-X-X-X-X-X-X-XG.J ^.`._._./.H E a.h t.*X*X*X*X$X}._ R [  XW E -X-X-X-X-X-X-X-X-X-X-X-X-X-X-X-X-X-X-X-X-X-X",
"-X-X-X-X-X-X-X-X-X-X-X-X-X-X-X-X-X{ N./._.`.`.^.H > M M , e.*X*X*X&X'.' '.+X#X+X( W -X-X-X-X-X-X-X-X-X-X-X-X-X-X-X-X-X-X-X-X-X-X",
"-X-X-X-X-X-X-X-X-X-X-X-X-X-X-X-X{ B./.`.`.`.`.).R.D.D.Z.> e.*X*X*Xu.7.a.@X*X*X+XE E -X-X-X-X-X-X-X-X-X-X-X-X-X-X-X-X-X-X-X-X-X-X",
"-X-X-X-X-X-X-X-X-X-X-X-X-X-X-XG.N./._.`.`.`./.S.(.`./.M...'.*X=Xi.q.y.&X*X*X*X#XE W -X-X-X-X-X-X-X-X-X-X-X-X-X-X-X-X-X-X-X-X-X-X",
"-X-X-X-X-X-X-X-X-X-X-X-X-X-XG.H (.`.(./._.`.D.H S./.M.D a.#X=X'.) u.*X*X*X*X&X}._ -X-X-X-X-X-X-X-X-X-X-X-X-X-X-X-X-X-X-X-X-X-X-X",
"-X-X-X-X-X-X-X-X-X-X-X-X-XI b.(._._.S.H ^.`.).W.G > M , h u.}._ {.@X*X*X*X*X}.) -X-X-X-X-X-X-X-X-X-X-X-X-X-X-X-X-X-X-X-X-X-X-X-X",
"-X-X-X-X-X-X-X-X-X-X-X-X-XQ K _._.m.z.D.).`.`./.G ] a.t.h e.#X'.@X*X*X*X*X*X{.k -X-X-X-X-X-X-X-X-X-X-X-X-X-X-X-X-X-X-X-X-X-X-X-X",
"-X-X-X-X-X-X-X-X-X-X-X-X-XG.c.m.m.z.A._.`.`.`./.x ' t.e.7.}.*X*X*X*X*X*X*X*X{.k -X-X-X-X-X-X-X-X-X-X-X-X-X-X-X-X-X-X-X-X-X-X-X-X",
"-X-X-X-X-X-X-X-X-X-X-X-XD M.B.D > C.`.`.`.`.`.(.H > < /  X+XOX=X*X*X*X*X*X*X{.k -X-X-X-X-X-X-X-X-X-X-X-X-X-X-X-X-X-X-X-X-X-X-X-X",
"-X-X-X-X-X-X-X-X-X-X-X-X2 m P -XM C.`.`.`.`._.)./.K ) |.#Xq.' OX$X*X*X*X*X*X{.T -X-X-X-X-X-X-X-X-X-X-X-X-X-X-X-X-X-X-X-X-X-X-X-X",
"-X-X-X-X-X-X-X-X-X-X-X-X; M -X-XM C.`.`.`.`.W.z.^.E.B.` ` A 1 _ ' a.*X*X*X*X{.a a -X-X-X-X-X-X-X-X-X-X-X-X-X-X-X-X-X-X-X-X-X-X-X",
"-X-X-X-X-X-X-X-X-X-X-X-X-X-X-XP N.E.`.`._.R.m.z.(.W.P w w t + - V ..y.y.y.y.0.Z C I -X-X-X-X-X-X-X-X-X-X-X-X-X-X-X-X-X-X-X-X-X-X",
"-X-X-X-X-X-X-X-X-X-X-X-X-X-X-Xn D.Q./.Q./.K z.)._.K p ,.4.#.t s g.d.b b b b C I.U.s.m -X-X-X-X-X-X-X-X-X-X-X-X-X-X-X-X-X-X-X-X-X",
"-X-X-X-X-X-X-X-X-X-X-X-X-X-X-XO x x B G n Z.(._.).K 3 p <.3.1.>.s s.L.K.L.K.P.U.U.g.M -X-X-X-X-X-X-X-X-X-X-X-X-X-X-X-X-X-X-X-X-X",
"-X-X-X-X-X-X-X-X-X-X-X-X-X-X-X-X-X-X-XF N C.`.(.z.v.k.h.d >.6.5.=.A g.I.!.!.!.!.U.s.N N -X-X-X-X-X-X-X-X-X-X-X-X-X-X-X-X-X-X-X-X",
"-X-X-X-X-X-X-X-X-X-X-X-X-X-X-X-X-X-X-XF D L C.m.v g.!.K.c %.6.6.6.%.d f.I.!.!.!.U.s.# $ -X-X-X-X-X-X-X-X-X-X-X-X-X-X-X-X-X-X-X-X",
"-X-X-X-X-X-X-X-X-X-X-X-X-X-X-X-X-X-X-X- , > 2 > h v.P.P.c %.6.5.3.5.>.d l.I.!.U.P.Z r $ -X-X-X-X-X-X-X-X-X-X-X-X-X-X-X-X-X-X-X-X",
"-X-X-X-X-X-X-X-X-X-X-X-X-X-X-X-X-X-X-X-X-X-XD D ]...d.l.c %.5.1.0 %.4.>.d g.U.P.V g *.X -X-X-X-X-X-X-X-X-X-X-X-X-X-X-X-X-X-X-X-X",
"-X-X-X-X-X-X-X-X-X-X-X-X-X-X-X-X-X-X-X-X-X-X-XA XXXX..Z - $.<.w = %.6.5.%.A V Z : #.,.t -X-X-X-X-X-X-X-X-X-X-X-X-X-X-X-X-X-X-X-X",
"-X-X-X-X-X-X-X-X-X-X-X-X-X-X-X-X-X-X-X-X-X-X-XT XX*Xa., # q @.@ $ q %.*.5.%.e w q *.,.s l -X-X-X-X-X-X-X-X-X-X-X-X-X-X-X-X-X-X-X",
"-X-X-X-X-X-X-X-X-X-X-X-X-X-X-X-X-X-X-X-X-X-X) ) .X#Xu.Y # < @ # $ % = r %.<.2.2.<.<.&.& m T -X-X-X-X-X-X-X-X-X-X-X-X-X-X-X-X-X-X",
"-X-X-X-X-X-X-X-X-X-X-X-X-X-X-X-X-X-X-X-X-X)  .XX$X9. .-X-X# # # # # - # i u u u u u r - f.n.Q -X-X-X-X-X-X-X-X-X-X-X-X-X-X-X-X-X",
"-X-X-X-X-X-X-X-X-X-X-X-X-X-X-X-X-X-X-X-X-X^ F ~.~.} ^ -X-X-X; M s.f.f.f.f.f.f.f.f.f.d.c l.J.e. .~ -X-X-X-X-X-X-X-X-X-X-X-X-X-X-X",
"-X-X-X-X-X-X-X-X-X-X-X-X-X-X-X-X-X-X-X-X-X{ f.U.U.C N -X-X-XN M s.j.j.j.j.j.l.l.j.j.s.c H.[.OX[ _  .-X-X-X-X-X-X-X-X-X-X-X-X-X-X",
"-X-X-X-X-X-X-X-X-X-X-X-X-X-X-X-X-X-X-X-X! n.T.T.K.d.c -X-X> * # = 3 3 = 3 - - - - * = ; ].oX&X XXXr./ -X-X-X-X-X-X-X-X-X-X-X-X-X",
"-X-X-X-X-X-X-X-X-X-X-X-X-X-X-X-X-X-X-XE '.oXoX[.Q I -X-X-XQ # & %.w p %.u # # # # w &.& h e. X( j 9.].E -X-X-X-X-X-X-X-X-X-X-X-X",
"-X-X-X-X-X-X-X-X-X-X-X-X-X-X-X-X-X-X .i.&X*X*XOXk -X-X-X^ Y i #.#.#.=.5.*.9 # # # +.3.%.6 8.|.1 $ R ' 1 -X-X-X-X-X-X-X-X-X-X-X-X",
"-X-X-X-X-X-X-X-X-X-X-X-X-X-X-X-X-X[ 9.'.@X|.|..Xk -X-X-X2 # i %.w =.6.6.6.+.# # # +.6.3.8 _ q.< $ h E < -X-X-X-X-X-X-X-X-X-X-X-X",
"-X-X-X-X-X-X-X-X-X-X-X-X-X-X-X-XY w.e._ }.] ]  Xk -X-X* # # @ t >.5.6.6.6.+.$ @ & $.6.3.9 1 T * 2 9.].k -X-X-X-X-X-X-X-X-X-X-X-X",
"-X-X-X-X-X-X-X-X-X-X-X-X-X-X-X-X@ h 7.a./ < '  Xl -X-X, # # # r ,.6.6.6.6.+.# = &.3.6.3.9 d -X@ Y ) ( -X-X-X-X-X-X-X-X-X-X-X-X-X",
"-X-X-X-X-X-X-X-X-X-X-X-X-X-X-X-X-X1 j [ ' -XW ' < Y T # # # t $.3.6.6.4.$.i r $.3.5.6.3.8 8 -X-X-X-X-X-X-X-X-X-X-X-X-X-X-X-X-X-X",
"-X-X-X-X-X-X-X-X-X-X-X-X-X-X-X-X-X-X* a -X-X-Xs , # $ % 8 9 #.5.6.6.3.*.t # t *.3.6.6.3.9 -X-X-X-X-X-X-X-X-X-X-X-X-X-X-X-X-X-X-X",
"-X-X-X-X-X-X-X-X-X-X-X-X-X-X-X-X-X-X-X-X-X-X-X-X, # # 7 ,.4.4.6.6.4.%.t @ # % 8 =.4.6.3.9 7 -X-X-X-X-X-X-X-X-X-X-X-X-X-X-X-X-X-X",
"-X-X-X-X-X-X-X-X-X-X-X-X-X-X-X-X-X-X-X-X-X-X-X-X2 # 8 ,.5.5.6.6.6.$.t @ # # 7 *.q %.5.3.9 i -X-X-X-X-X-X-X-X-X-X-X-X-X-X-X-X-X-X",
"-X-X-X-X-X-X-X-X-X-X-X-X-X-X-X-X-X-X-X-X-X-X-X< 1 # 0 4.6.6.6.6.6.>.w @ # # r w #.>.6.3.9 -X-X-X-X-X-X-X-X-X-X-X-X-X-X-X-X-X-X-X",
"-X-X-X-X-X-X-X-X-X-X-X-X-X-X-X-X-X-X-X-X-X-X-X; # # 0 4.6.6.6.6.6.<.#.% # # # % $.1.4.;.w -X-X-X-X-X-X-X-X-X-X-X-X-X-X-X-X-X-X-X",
"-X-X-X-X-X-X-X-X-X-X-X-X-X-X-X-X-X-X-X-X-X-X-X, # # 0 1.5.6.6.5.3.:.t * # # # # % +.;.e -X-X-X-X-X-X-X-X-X-X-X-X-X-X-X-X-X-X-X-X",
"-X-X-X-X-X-X-X-X-X-X-X-X-X-X-X-X-X-X-X-X-XA N * # # & 0 1.5.6.3.w @.-X-X< # $ # # r z -X-X-X-X-X-X-X-X-X-X-X-X-X-X-X-X-X-X-X-X-X",
"-X-X-X-X-X-X-X-X-X-X-X-X-X-X-X-X-X-X-X-XY Y @ @ $ # # % w +.+.+.e -X-X-X, # # # # $ 1 s -X-X-X-X-X-X-X-X-X-X-X-X-X-X-X-X-X-X-X-X",
"-X-X-X-X-X-X-X-X-X-X-X-X-X-X-X-X-X-X-X-X2 # y 4 @ # $ # # # % 6 -X-X-X-X; # # # # # # $ -X-X-X-X-X-X-X-X-X-X-X-X-X-X-X-X-X-X-X-X",
"-X-X-X-X-X-X-X-X-X-X-X-X-X-X-X-X-X-X-X< # % 5 O.y # ; #       -X-X-X-X-X. , # $ # # # # -X-X-X-X-X-X-X-X-X-X-X-X-X-X-X-X-X-X-X-X",
"-X-X-X-X-X-X-X-X-X-X-X-X-X-X-X-X-X1 Y # @ o.X.4 % # # -X-X-X-X-X-X-X-X-X-X* # # # # # # -X-X-X-X-X-X-X-X-X-X-X-X-X-X-X-X-X-X-X-X",
"-X-X-X-X-X-X-X-X-X-X-X-X-X-X-X-X-XY # = 5 X.5 @ # * -X-X-X-X-X-X-X-X-X-X-X-X# , # # $ + -X-X-X-X-X-X-X-X-X-X-X-X-X-X-X-X-X-X-X-X",
"-X-X-X-X-X-X-X-X-X-X-X-X-X-X-X-X-XT # y O.5 + * + -X-X-X-X-X-X-X-X-X-X-X-X-X-X  $ # #   -X-X-X-X-X-X-X-X-X-X-X-X-X-X-X-X-X-X-X-X",
"-X-X-X-X-X-X-X-X-X-X-X-X-X-X-X-X-X# + $ y X .   -X-X-X-X-X-X-X-X-X-X-X-X-X-X-X-X-X-X-X-X-X-X-X-X-X-X-X-X-X-X-X-X-X-X-X-X-X-X-X-X",
"-X-X-X-X-X-X-X-X-X-X-X-X-X-X-X-X-X-X-X-X-X-X-X-X-X-X-X-X-X-X-X-X-X-X-X-X-X-X-X-X-X-X-X-X-X-X-X-X-X-X-X-X-X-X-X-X-X-X-X-X-X-X-X-X",
"-X-X-X-X-X-X-X-X-X-X-X-X-X-X-X-X-X-X-X-X-X-X-X-X-X-X-X-X-X-X-X-X-X-X-X-X-X-X-X-X-X-X-X-X-X-X-X-X-X-X-X-X-X-X-X-X-X-X-X-X-X-X-X-X",
"-X-X-X-X-X-X-X-X-X-X-X-X-X-X-X-X-X-X-X-X-X-X-X-X-X-X-X-X-X-X-X-X-X-X-X-X-X-X-X-X-X-X-X-X-X-X-X-X-X-X-X-X-X-X-X-X-X-X-X-X-X-X-X-X",
"-X-X-X-X-X-X-X-X-X-X-X-X-X-X-X-X-X-X-X-X-X-X-X-X-X-X-X-X-X-X-X-X-X-X-X-X-X-X-X-X-X-X-X-X-X-X-X-X-X-X-X-X-X-X-X-X-X-X-X-X-X-X-X-X"
};
