/* XPM */
static char *result[] = {
/* columns rows colors chars-per-pixel */
"64 64 201 2 ",
"   c #371D1D",
".  c #3F291F",
"X  c #252323",
"o  c #2F2A27",
"O  c #2A2A29",
"+  c #27262C",
"@  c #322727",
"#  c #312A27",
"$  c #3C2C25",
"%  c #312C2C",
"&  c #3F2929",
"*  c #37322E",
"=  c #242B3C",
"-  c #292D35",
";  c #3D2F33",
":  c #25323C",
">  c #2E3539",
",  c #333333",
"<  c #3D3A35",
"1  c #3A3A3A",
"2  c #393636",
"3  c #7B1818",
"4  c #741A1A",
"5  c #661D1D",
"6  c #512919",
"7  c #5B321F",
"8  c #4E2919",
"9  c #6B351C",
"0  c #64341C",
"q  c #73371B",
"w  c #7C3818",
"e  c #783719",
"r  c #462923",
"t  c #552020",
"y  c #4D3022",
"u  c #473228",
"i  c #543120",
"p  c #5F3B2A",
"a  c #423E39",
"s  c #513535",
"d  c #763426",
"f  c #4A453D",
"g  c #45413B",
"h  c #59483E",
"j  c #714735",
"k  c #212D4B",
"l  c #223949",
"z  c #263543",
"x  c #213E52",
"c  c #2F3B5D",
"v  c #303256",
"b  c #1A316C",
"n  c #173278",
"m  c #27367A",
"M  c #313B6C",
"N  c #1F415B",
"B  c #3C4953",
"V  c #3F4346",
"C  c #1D4562",
"Z  c #1B4A6C",
"A  c #1C4867",
"S  c #1A4E73",
"D  c #1A527A",
"F  c #1C5177",
"G  c #315472",
"H  c #424242",
"J  c #4B4B4A",
"K  c #45474A",
"L  c #544D43",
"P  c #504E4C",
"I  c #58534B",
"U  c #474D53",
"Y  c #48535B",
"T  c #545454",
"R  c #5A5B5C",
"E  c #565858",
"W  c #4C514F",
"Q  c #63584A",
"!  c #685E50",
"~  c #615C53",
"^  c #705649",
"/  c #6B6152",
"(  c #66625A",
")  c #756C5C",
"_  c #746958",
"`  c #7E715D",
"'  c #495865",
"]  c #565B64",
"[  c #475B74",
"{  c #434D70",
"}  c #5C6167",
"|  c #586976",
" . c #496376",
".. c #636463",
"X. c #666767",
"o. c #726D64",
"O. c #787369",
"+. c #6E7474",
"@. c #861717",
"#. c #981616",
"$. c #8A3B15",
"%. c #843B19",
"&. c #923D14",
"*. c #9A3E12",
"=. c #943E19",
"-. c #CC0808",
";. c #9E4418",
":. c #A9410F",
">. c #B2430D",
",. c #BC450B",
"<. c #814324",
"1. c #CE4808",
"2. c #C74609",
"3. c #DA4B06",
"4. c #D14808",
"5. c #D44907",
"6. c #E34C04",
"7. c #EB4E02",
"8. c #F24F01",
"9. c #F85000",
"0. c #F75000",
"q. c #8A6F55",
"w. c #8C7D66",
"e. c #857966",
"r. c #8B5942",
"t. c #93836A",
"y. c #9D8264",
"u. c #978872",
"i. c #948976",
"p. c #A28F73",
"a. c #A5957C",
"s. c #A99578",
"d. c #163382",
"f. c #133695",
"g. c #0D38A8",
"h. c #0C3AB2",
"j. c #093AB8",
"k. c #173EA7",
"l. c #165684",
"z. c #155A8D",
"x. c #165887",
"c. c #145E93",
"v. c #154086",
"b. c #255C84",
"n. c #12629C",
"m. c #166096",
"M. c #266897",
"N. c #316D99",
"B. c #0F6AAC",
"V. c #1066A4",
"C. c #1C6EA8",
"Z. c #0E6DB3",
"A. c #0C6FB8",
"S. c #0C71BB",
"D. c #1772B3",
"F. c #106EB2",
"G. c #4F6891",
"H. c #6B7691",
"J. c #063CC9",
"K. c #033EDA",
"L. c #003FE3",
"P. c #1348D4",
"I. c #087ACD",
"U. c #0A75C3",
"Y. c #077DD3",
"T. c #087DD1",
"R. c #0040E7",
"E. c #778188",
"W. c #0582DD",
"Q. c #0486E3",
"!. c #0289EB",
"~. c #008EF4",
"^. c #0090F8",
"/. c #6B82CD",
"(. c #AF9D80",
"). c #BBA583",
"_. c #BCA685",
"`. c #A49FA7",
"'. c #A4A1A7",
"]. c #B7B4B9",
"[. c #C2AA86",
"{. c #C6AE8A",
"}. c #CCB38D",
"|. c #D0B68F",
" X c #D4BA92",
".X c #D9BE95",
"XX c #C4B8B5",
"oX c #DFC399",
"OX c #DDC197",
"+X c #E2C59B",
"@X c #E9CB9E",
"#X c #ECCEA0",
"$X c #F5D5A6",
"%X c #F8D8A8",
"&X c #F7D7A8",
"*X c #EBD6B8",
"=X c #A2B1D9",
"-X c #CDCDD5",
";X c #F7E3C4",
":X c #F7EFE2",
">X c None",
/* pixels */
">X>X>X>X>X>X>X>X>X>X>X>X>X>X>X>X>X>X>X>X>X>X>X>X>X>X>X>X>X>X>X>X>X>X>X>X>X>X>X>X>X>X>X>X>X>X>X>X>X>X>X>X>X>X>X>X>X>X>X>X>X>X>X>X",
">X>X>X>X>X>X>X>X>X>X>X>X>X>X>X>X>X>X>X>X>X>X>X>X>X>X>X>X>X>X>X>X>X>X>X>X>X>X>X>X>X>X>X>X>X>X>X>X>X>X>X>X>X>X>X>X>X>X>X>X>X>X>X>X",
">X>X>X>X>X>X>X>X>X>X>X>X>X>X>X>X>X>X>X>X>X>X>X>X>X>X>X>X>X>X>X>X>X>X>X>X>X>X>X>X>X>X>X>X>X>X>X>X>X>X>X>X>X>X>X>X>X>X>X>X>X>X>X>X",
">X>X>X>X>X>X>X>X>X>X>X>X>X>X>X>X>X>X>X>X' W >X>X>X>X>X>X>X>X>X>X>X>X>X>X>X>X>X>X>X>X>X>X>X>X>X>X>X>X>X>X>X>X>X>X>X>X>X>X>X>X>X>X",
">X>X>X>X>X>X>X>X>X>X>X>X>X>X>X>X>X>X>X>X] 1 ..>X>X>X>X>X>X>X>XY >X>X>X>X>X>X>X>X>X>X>X>X>X>X>X>X>X>X>X>X>X>X>X>X>X>X>X>X>X>X>X>X",
">X>X>X>X>X>X>X>X>X>X>X>X>X>X>X>X>X>X>X>X..z G E.E.>X>X>X>X>X>XK ..>X>X>X>X>X>X>X>X>X>X>X>X>X>X>X>X>X>X>X>X>X>X>X>X>X>X>X>X>X>X>X",
">X>X>X>X>X>X>X>X>X>X>X>X>X>X>X>X>X>X>X>X..N I.F N ] >X>X>X>X>XJ z } >X>X>X>X>X>X>X>X>X>X>X>X>X>X>X>X>X>X>X>X>X>X>X>X>X>X>X>X>X>X",
">X>X>X>X>X>X>X>X>X>X>X>X>X>X>X>X>X>X>X>X} N Q.Q.W.C.Y U U ] >XJ c.C.' >X>X>X>X>XY Y >X>X>X>X>X>X>X>X>X>X>X>X>X>X>X>X>X>X>X>X>X>X",
">X>X>X>X>X>X>X>X>X>X>X>X>X>X>X>X>X>X>X>X} N Q.^.^.Q.A.Z.A.N.} 2 V.Q.C.[ >X>X>X>XW R >X>X>X>X>X>X>X>X>X>X>X>X>X>X>X>X>X>X>X>X>X>X",
">X>X>X>X>X>X>X>X>X>X>X>X>X>X>X>X>X>X>X>X] N !.^.^.~.!.Z.V.m.D : V.^.Q.m.G.>X>X>XT ..>X>X>X>X>X>X>X>X>X>X>X>X>X>X>X>X>X>X>X>X>X>X",
">X>X>X>X>X>X>X>X>X>X>X>X>X>X>X>X>X>X>X>X] N Y.Y.Q.^.Q.S x S B.l V.^.~.~.S ' >X>X| | >X>X>X>X>X>X>X>X>X>X>X>X>X>X>X>X>X>X>X>X>X>X",
">X>X>X>X>X>X>X>X>X>X>X>X>X>X>X>X>XK >X>X] N Y.S n.!.~.Q.W.Z.N - V.^.~.~.D | >XY D.m.E >X..W ( >X>X>X>X>X>X>X>X>X>X>X>X>X>X>X>X>X",
">X>X>X>X>X>X>X>X>X>X>X>X>X>X>X>X] 2 E >X+.N T.N l c.!.^.~.Q.B.l V.^.^.~.W.N.| D.Q.n.2 ( a.).a.o.>X>X>X>X>X>X>X>X>X>X>X>X>X>X>X>X",
">X>X>X>X>X>X>X>X>X>X>X>X>X>X>X>X..: b.H...N T.N N z.m.m.I.~.!.n.I.^.^.^.~.V.N W.^.n.< e..X%XoXt.e.>X>X>X>X>X>X>X>X>X>X>X>X>X>X>X",
">X>X>X>X>X>X>X>X>X>X>X>X>X>X>X>XX.N Y.x.: N T.N c.I.A N m.W.~.^.^.^.^.^.~.V.N W.^.n.L OX X+X%X@XO.O.>X>X>X>X>X>X>X>X>X>X>X>X>X>X",
">X>X>X>X>X>X>X>X>X>X>X>X>X>X>X>X] x W.Q.c.A S.N c.~.Q.Q.m.x.!.^.^.^.^.^.^.B.N W.!.n.W {.) p.%X$X#Xw.( >X>X>X>X>X>X>X>X>X>X>X>X>X",
">X>X>X>X>X>X>X>X>X>X>X>X>X>X>X>X' x W.^.Q.B.C - z.~.^.^.W.W.~.^.^.^.^.^.^.Q.I.!.z.z.C.R s.oX%X%X%Xe.T >X>X>X>X>X>X>X>X>X>X>X>X>X",
">X>X>X>X>X>X>X>X>X>X>X>X>X>X>X>X>X[ M.W.~.Q.c.z m.W.V.Q.~.~.^.^.^.I.c.c.Y.I.z.x.l x D > _ [.%X$Xs.t.>X>X>X>X>X>X>X>X>X>X>X>X>X>X",
">X>X>X>X>X>X>X>X>X>X>X>X>X>X>X>X>X>XB S.^.^.!.l.c.V.S B.S.I.~.^.^.U.A C n.c.C C C l @ + k H.].`.K o.>X>X>X>X>X>X>X>X>X>X>X>X>X>X",
">X>X>X>X>X>X>X>X>X>X>X>X>X>X>X>X>X>XB D.!.^.~.!.n.S A.Z N l.!.Q.!.~.!.Q.x.x.Y.Q.!.n.= - g.K.P.J.c >X>X>X>X>X>X>X>X>X>X>X>X>X>X>X",
">X>X>X>X>X>X>X>X>X>X>X>X>X>X>X>X>X>X>X| V.^.^.^.Q.B.A A.I.W.W.S A.^.^.~.Y.V.S Q.^.Q.B.k h.R.J.G >X>X>X>X>X>X>X>X>X>X>X>X>X>X>X>X",
">X>X>X>X>X>X>X>X>X>X>X>X>X>X>X>X>X>X| H x n.!.^.S.z.V.Q.~.W.D : C B.~.^.^.Y.c.c.Y.^.!.V.f.G.H.J >X>X>X>X>X>X>X>X>X>X>X>X>X>X>X>X",
">X>X>X>X>X>X>X>X>X>X>X>X>X>X>X>X>X>XT 1 l z.Q.U.S C !.~.T.M./ / /  .F.A.W.^.W.x.V.Y.^.!.C / a.R >X>X>X>X>X>X>X>X>X>X>X>X>X>X>X>X",
">X>X>X>X>X>X>X>X>X>X>X>X>X>X>X>X>X>X>XW b.W.Q.A 1 B W.~.z./ +X#X#X(.K K C.!.~.Q.D z.W.Q.C % T >X>X>X>X>X>X>X>X>X>X>X>X>X>X>X>X>X",
">X>X>X>X>X>X>X>X>X>X>X>X>X>X>X>X>X>X>X>X[ F W.N e.a.G I.l.! @X$X%X#X X}.X.m.~.~.W.n.Z T.N O 1 >X>X>X>X>X>X>X>X>X>X>X>X>X>X>X>X>X",
">X>X>X>X>X>X>X>X>X>X>X>X>X>X>X>X>X>X>X>X>XG G : t.+Xp.G l g e.+X%X%X%X$X[.+.c.!.~.n.: Z : B >X>X>X>X>X>X>X>X>X>X>X>X>X>X>X>X>X>X",
">X>X>X>X>X>X>X>X>X>X>X>X>X>X>X>X>X>X>X>X>X>XB a t.%X@Xt.f O < t.s.{.$X%X%X[.X.C.W.n.O , V >X>X>X>X>X>X>X>X>X>X>X>X>X>X>X>X>X>X>X",
">X>X>X>X>X>X>X>X>X>X>X>X>X>X>X>X>X>X>X>X>X>X>XH u. XOX@Xt.a % J T e.|..X#X$X}.K V.M.g 1 >X>X>X>X>X>X>X>X>X>X>X>X>X>X>X>X>X>X>X>X",
">X>X>X>X>X>X>X>X>X>X>X>X>X>X>X>X>X>X>X>X>X>X>X>Xo.g ^ |.+Xp.L ].-X'.J J ).%X|.g : O.s.g >X>X>X>X>X>X>X>X>X>X>X>X>X>X>X>X>X>X>X>X",
">X>X>X>X>X>X>X>X>X>X>X>X>X>X>X>X>X>XE P >X>X>XR K y ;.^ ).+X[.*X:X=Xk.k.'.%X Xg o H ) >X>X>X>X>X>X>X>X>X>X>X>X>X>X>X>X>X>X>X>X>X",
">X>X>X>X>X>X>X>X>X>X>X>X>X>X>X( X.o.e.` O.o.| G n c ;.%.q.s.%X%X;X-X/./.XX Xt., O 1 >X>X>X>X>X>X>X>X>X>X>X>X>X>X>X>X>X>X>X>X>X>X",
">X>X>X>X>X>X>X>X>X>X>X>X>X>X~ L a f [.@Xy.O = j.R.g.u 2.$.Q |. X@X$X&X$XoXy.y o o >X>X>X>X>X>X>X>X>X>X>X>X>X>X>X>X>X>X>X>X>X>X>X",
">X>X>X>X>X>X>X>X>X>X>X>X>X~ _.|.e.O f ).t.% > h.L.h.; 1.$.* g K s.#X#X@Xq.j 2.r >X>X>X>X>X>X>X>X>X>X>X>X>X>X>X>X>X>X>X>X>X>X>X>X",
">X>X>X>X>X>X>X>X>X>X>X>X>Xo.) ! f o % L f H p.{ g.h.; 1.3.$.- f.{ ! ! ! 1 w 5.8 >X>X>X>X>X>X>X>X>X>X>X>X>X>X>X>X>X>X>X>X>X>X>X>X",
">X>X>X>X>X>X>X>X>X>X>X>X>X>XJ ! t._ * + O I OXu.[ M %.&.1.5.d m d.d.d.n k w 5.8 >X>X>X>X>X>X>X>X>X>X>X>X>X>X>X>X>X>X>X>X>X>X>X>X",
">X>X>X>X>X>X>X>X>X>X>X>X>X>XP a.{.s.< O o L oX X) i >.9 >.9.6.q v.J.L.L.b w 5.6 >X>X>X>X>X>X>X>X>X>X>X>X>X>X>X>X>X>X>X>X>X>X>X>X",
">X>X>X>X>X>X>X>X>X>X>X>X>X>X>Xo.g f < % O I {.) a o r >.6.8.6.5.d n K.L.b w 4.6 >X>X>X>X>X>X>X>X>X>X>X>X>X>X>X>X>X>X>X>X>X>X>X>X",
">X>X>X>X>X>X>X>X>X>X>X>X>X>X>XW / [.s.L O , h ) T @ @ i >.2.9 7 $ = b J.b w 5.8 >X>X>X>X>X>X>X>X>X>X>X>X>X>X>X>X>X>X>X>X>X>X>X>X",
">X>X>X>X>X>X>X>X>X>X>X>X>X>X>X>X) t.u.) a >X>X>XP O O O 0 &.&.$.$.&.d M k i w . >X>X>X>X>X>X>X>X>X>X>X>X>X>X>X>X>X>X>X>X>X>X>X>X",
">X>X>X>X>X>X>X>X>X>X>X>X>X>X>X>X>Xf f >X>X>X>X>X>XO O O O 9 7.0.9.0.3.q $ = k + >X>X>X>X>X>X>X>X>X>X>X>X>X>X>X>X>X>X>X>X>X>X>X>X",
">X>X>X>X>X>X>X>X>X>X>X>X>X>X>X>X>X>X>X>X>X>X>X>X>X>X2 O O 9 7.0.9.9.0.6.9 b g.= >X>X>X>X>X>X>X>X>X>X>X>X>X>X>X>X>X>X>X>X>X>X>X>X",
">X>X>X>X>X>X>X>X>X>X>X>X>X>X>X>X>X>X>X>X>X>X>X>X>X>X, O + 9 7.0.9.9.9.7.q = k O 1 V H H a >X>X>X>X>X>X>X>X>X>X>X>X>X>X>X>X>X>X>X",
">X>X>X>X>X>X>X>X>X>X>X>X>X>X>X>X>X>X>X>X>X>X>X>X>X>X1 O 9 *.$.$.1.9.9.8.q O $ $.*.*.*.*.*.r.! Q >X>X>X>X>X>X>X>X>X>X>X>X>X>X>X>X",
">X>X>X>X>X>X>X>X>X>X>X>X>X>X>X>X>X>X>X>X>X>X>X>X>X>X2 + e <.. 7 ,.9.7.,.7 o r :.6.9.9.9.9.>.9 j j >X>X>X>X>X>X>X>X>X>X>X>X>X>X>X",
">X>X>X>X>X>X>X>X>X>X>X>X>X>X>X>X>X>X>X>X>X>X>X>X>X>X1 O o @ $ >.3.3.2.y O + O $ :.7.9.9.9.8.7.3.p >X>X>X>X>X>X>X>X>X>X>X>X>X>X>X",
">X>X>X>X>X>X>X>X>X>X>X>X>X>X>X>X>X>X>X>X>X>X>X>X>X>X1 O O O o y y y y o O O O o u *.9.8.9.9.9.6.i L >X>X>X>X>X>X>X>X>X>X>X>X>X>X",
">X>X>X>X>X>X>X>X>X>X>X>X>X>X>X>X>X>X>X>X>X>X>X>X>X>X, O O O + X O O O X O O X o w &.*.7.9.9.9.6.i J >X>X>X>X>X>X>X>X>X>X>X>X>X>X",
">X>X>X>X>X>X>X>X>X>X>X>X>X>X>X>X>X>X>X>X>X>X>X>X>X>X, , + O @ 5 r O O O O O + o %.&.$.7.9.9.9.6.i o a >X>X>X>X>X>X>X>X>X>X>X>X>X",
">X>X>X>X>X>X>X>X>X>X>X>X>X>X>X>X>X>X>X>X>X>X>X>X>X>X>XH O O r -.3 + O o X O O O @ q 3.8.9.9.8.2.i O 2 >X>X>X>X>X>X>X>X>X>X>X>X>X",
">X>X>X>X>X>X>X>X>X>X>X>X>X>X>X>X>X>X>X>X>X>X>X>X>X>X>XV O + . -.3 o 2 >X>X>XO O O $ 9 3.8.7.2.7 @ % O >X>X>X>X>X>X>X>X>X>X>X>X>X",
">X>X>X>X>X>X>X>X>X>X>X>X>X>X>X>X>X>X>X>X>X>X>X>X>X>X>Xg O O @ 5 #.3 2 , >X>XO O O X $ 9 q q 7 # O , >X>X>X>X>X>X>X>X>X>X>X>X>X>X",
">X>X>X>X>X>X>X>X>X>X>X>X>X>X>X>X>X>X>X>X>X>X>X>X>X>X>XV O O O O 4 3 o X >X>XO O O O O O O O O , % >X>X>X>X>X>X>X>X>X>X>X>X>X>X>X",
">X>X>X>X>X>X>X>X>X>X>X>X>X>X>X>X>X>X>X>X>X>X>X>X>X>X>XH O , , , , , , X >X>XO O O O + O + + , X >X>X>X>X>X>X>X>X>X>X>X>X>X>X>X>X",
">X>X>X>X>X>X>X>X>X>X>X>X>X>X>X>X>X>X>X>X>X>X>X>X>X>X>XH H E T T T T W X >X>XO O O O O # @ - X >X>X>X>X>X>X>X>X>X>X>X>X>X>X>X>X>X",
">X>X>X>X>X>X>X>X>X>X>X>X>X>X>X>X>X>X>X>X>X>X>X>X>X>X>X, , 1 1 1 1 1 2 >X>X>XO O O O r #.t @ >X>X>X>X>X>X>X>X>X>X>X>X>X>X>X>X>X>X",
">X>X>X>X>X>X>X>X>X>X>X>X>X>X>X>X>X>X>X>X>X>X>X>X>X>X>X>X, , , , , , >X>X>X>XO O O t @.#.d >X>X>X>X>X>X>X>X>X>X>X>X>X>X>X>X>X>X>X",
">X>X>X>X>X>X>X>X>X>X>X>X>X>X>X>X>X>X>X>X>X>X>X>X>X>X>X>X>X>X>X>X>X>X>X>X>X>XO O O @.-.s >X>X>X>X>X>X>X>X>X>X>X>X>X>X>X>X>X>X>X>X",
">X>X>X>X>X>X>X>X>X>X>X>X>X>X>X>X>X>X>X>X>X>X>X>X>X>X>X>X>X>X>X>X>X>X>X>X>X>XO O O @.-.s >X>X>X>X>X>X>X>X>X>X>X>X>X>X>X>X>X>X>X>X",
">X>X>X>X>X>X>X>X>X>X>X>X>X>X>X>X>X>X>X>X>X>X>X>X>X>X>X>X>X>X>X>X>X>X>X>X>X>X>X, O @.-.s >X>X>X>X>X>X>X>X>X>X>X>X>X>X>X>X>X>X>X>X",
">X>X>X>X>X>X>X>X>X>X>X>X>X>X>X>X>X>X>X>X>X>X>X>X>X>X>X>X>X>X>X>X>X>X>X>X>X>X>X>X2 t 3 r >X>X>X>X>X>X>X>X>X>X>X>X>X>X>X>X>X>X>X>X",
">X>X>X>X>X>X>X>X>X>X>X>X>X>X>X>X>X>X>X>X>X>X>X>X>X>X>X>X>X>X>X>X>X>X>X>X>X>X>X>X>X@ &   >X>X>X>X>X>X>X>X>X>X>X>X>X>X>X>X>X>X>X>X",
">X>X>X>X>X>X>X>X>X>X>X>X>X>X>X>X>X>X>X>X>X>X>X>X>X>X>X>X>X>X>X>X>X>X>X>X>X>X>X>X>X>X>X>X>X>X>X>X>X>X>X>X>X>X>X>X>X>X>X>X>X>X>X>X",
">X>X>X>X>X>X>X>X>X>X>X>X>X>X>X>X>X>X>X>X>X>X>X>X>X>X>X>X>X>X>X>X>X>X>X>X>X>X>X>X>X>X>X>X>X>X>X>X>X>X>X>X>X>X>X>X>X>X>X>X>X>X>X>X",
">X>X>X>X>X>X>X>X>X>X>X>X>X>X>X>X>X>X>X>X>X>X>X>X>X>X>X>X>X>X>X>X>X>X>X>X>X>X>X>X>X>X>X>X>X>X>X>X>X>X>X>X>X>X>X>X>X>X>X>X>X>X>X>X"
};
