/* XPM */
static char *result[] = {
/* columns rows colors chars-per-pixel */
"64 64 218 2 ",
"   c #1E1D1B",
".  c #271919",
"X  c #22211F",
"o  c #3F2215",
"O  c #2A2A29",
"+  c #2A2725",
"@  c #342B27",
"#  c #382A27",
"$  c #35302E",
"%  c #272B33",
"&  c #2C2D33",
"*  c #262C3B",
"=  c #25313A",
"-  c #2B343C",
";  c #2A3034",
":  c #343433",
">  c #3C3C3C",
",  c #393736",
"<  c #302D39",
"1  c #511910",
"2  c #6E1818",
"3  c #48291B",
"4  c #5C331F",
"5  c #57311F",
"6  c #522A18",
"7  c #64341D",
"8  c #6B351C",
"9  c #7D3918",
"0  c #743719",
"q  c #7B2F0D",
"w  c #4B2F22",
"e  c #442A23",
"r  c #4E3123",
"t  c #46302C",
"y  c #573625",
"u  c #483330",
"i  c #653929",
"p  c #743F25",
"a  c #45413C",
"s  c #4B453C",
"d  c #4B4337",
"f  c #53493B",
"g  c #724730",
"h  c #1D2F5D",
"j  c #1F2E54",
"k  c #242C43",
"l  c #262E48",
"z  c #223A4C",
"x  c #2A3947",
"c  c #333C46",
"v  c #213D52",
"b  c #2C325B",
"n  c #1B3066",
"m  c #183277",
"M  c #30366F",
"N  c #433657",
"B  c #1F425C",
"V  c #2D404E",
"C  c #3C444A",
"Z  c #204057",
"A  c #25485F",
"S  c #3B4C5B",
"D  c #334554",
"F  c #1D4663",
"G  c #1C4A6B",
"H  c #1A4E73",
"J  c #18527B",
"K  c #2B4B63",
"L  c #375367",
"P  c #335B77",
"I  c #304B6B",
"U  c #3D6079",
"Y  c #454444",
"T  c #4A4641",
"R  c #4D4944",
"E  c #43454C",
"W  c #494A4B",
"Q  c #444A4E",
"!  c #544E43",
"~  c #524E4B",
"^  c #5B5449",
"/  c #444B53",
"(  c #4B555A",
")  c #575657",
"_  c #655C4D",
"`  c #655F56",
"'  c #694D41",
"]  c #5E605B",
"[  c #6E6353",
"{  c #68645D",
"}  c #746A5B",
"|  c #7F725E",
" . c #455766",
".. c #565A65",
"X. c #455877",
"o. c #586877",
"O. c #4F6375",
"+. c #686B6D",
"@. c #746C64",
"#. c #787772",
"$. c #8F1515",
"%. c #AE0E0E",
"&. c #843A16",
"*. c #8B3B15",
"=. c #8C3F1C",
"-. c #983E15",
";. c #A13F11",
":. c #893D22",
">. c #93441D",
",. c #AC420F",
"<. c #A7400F",
"1. c #B9440C",
"2. c #A44011",
"3. c #A94B1E",
"4. c #BB4811",
"5. c #844C2F",
"6. c #C3460A",
"7. c #CB4809",
"8. c #D44907",
"9. c #DC4A05",
"0. c #E34C04",
"q. c #EC4E02",
"w. c #F34F00",
"e. c #F75000",
"r. c #F85000",
"t. c #80725F",
"y. c #877A66",
"u. c #8A7F72",
"i. c #96846B",
"p. c #988A75",
"a. c #888175",
"s. c #A89579",
"d. c #B19B7B",
"f. c #A28F73",
"g. c #153485",
"h. c #13358C",
"j. c #123696",
"k. c #0D38A9",
"l. c #0C3AB3",
"z. c #093BBD",
"x. c #20378C",
"c. c #175683",
"v. c #155A8D",
"b. c #185886",
"n. c #145E93",
"m. c #2D4E87",
"M. c #12619B",
"N. c #136097",
"B. c #346488",
"V. c #256898",
"C. c #2D688F",
"Z. c #0F6AAC",
"A. c #0F68A7",
"S. c #1165A3",
"D. c #116AA9",
"F. c #0D6DB3",
"G. c #0C72BC",
"H. c #0D70B7",
"J. c #1373B8",
"K. c #106DB1",
"L. c #226DA3",
"P. c #1241BA",
"I. c #4C6D88",
"U. c #596BA5",
"Y. c #073CC4",
"T. c #083CC4",
"R. c #033ED6",
"E. c #013FE1",
"W. c #0B75C2",
"Q. c #097ACC",
"!. c #0F79C6",
"~. c #077ED4",
"^. c #087CD0",
"/. c #1078C3",
"(. c #0443E7",
"). c #2754CD",
"_. c #4F70D3",
"`. c #7D86B3",
"'. c #0582DC",
"]. c #0680D7",
"[. c #0486E4",
"{. c #0289EB",
"}. c #008EF4",
"|. c #0090F8",
" X c #0090F7",
".X c #798CC8",
"XX c #7897EC",
"oX c #888787",
"OX c #8A8A94",
"+X c #AD9D81",
"@X c #BCA583",
"#X c #B8A483",
"$X c #9DA0BF",
"%X c #9E9FAC",
"&X c #C5AE8A",
"*X c #C2AA87",
"=X c #CEB58E",
"-X c #D1B790",
";X c #D9BD95",
":X c #D5BB95",
">X c #D0B68F",
",X c #CCBBAB",
"<X c #DEC298",
"1X c #DDC197",
"2X c #E2C59A",
"3X c #E6C99D",
"4X c #E9CB9E",
"5X c #EDCEA1",
"6X c #ECD0A6",
"7X c #F3D4A5",
"8X c #F8D8A8",
"9X c #F7D7A8",
"0X c #F7DEBA",
"qX c #D2C5BC",
"wX c #DBDBDA",
"eX c #CAC8C8",
"rX c #E9E6E3",
"tX c None",
/* pixels */
"tXtXtXtXtXtXtXtXtXtXtXtXtXtXtXtXtXtXtXtXtXtXtXtXtXtXtXtXtXtXtXtXtXtXtXtXtXtXtXtXtXtXtXtXtXtXtXtXtXtXtXtXtXtXtXtXtXtXtXtXtXtXtXtX",
"tXtXtXtXtXtXtXtXtXtXtXtXtXtXtXtXtXtXtXtXtXtXtXtXtXtXtXtXtXtXtXtXtXtXtXtXtXtXtXtXtXtXtXtXtXtXtXtXtXtXtXtXtXtXtXtXtXtXtXtXtXtXtXtX",
"tXtXtXtXtXtXtXtXtXtXtXtXtXtXtXtXtXtXtXtXtXtXtXtXtXtXtXtXtXtXtXtXtXtXtXtXtXtXtXtXS C tXtXtXtXtXtXtXtXtXtXtXtXtXtXtXtXtXtXtXtXtXtX",
"tXtXtXtXtXtXtXtXtXtXtXtXtXtXtXtXtXtXtXtXtXtXtXtXtXtXtXtXtXtXtXtXtXtXtXtXtXtXtXtX/ > ) tXtXtXtXtXtXtXtXtXtXtXtXtXtXtXtXtXtXtXtXtX",
"tXtXtXtXtXtXtXtXtXtXtXtXtXtXtXtXtXtXtXtXtXtXtXtXtXtXtXtX..+.+.+.+.+.tXtXtXtXtXtXW = H o.tXtXtXtXtXtXtXtXtXtXtXtXtXtXtXtXtXtXtXtX",
"tXtXtXtXtXtXtXtXtXtXtXtXtXtXtXtXtXtXtXtXtXtXtXtXtXtX- < : c V V x v  .tXtXtXtXtX/ Z ^.b. .tXtXtXtXtXtXtXtXtXtXtXtXtXtXtXtXtXtXtX",
"tXtXtXtXtXtXtXtXtXtXtXtXtXtXtXtXtXtXtXtXtXtXtXtXtXtXtXE c A.Q.Q.^.^.L...E  .tXtXS B '.'.L.L tXtXtXtXtXtXtXtXtXtXtXtXtXtXtXtXtXtX",
"tXtXtXtXtXtXtXtXtXtXtXtXtXtXtXtXtXtXtXtXtXtXtX......) ) - J W.|.|.}.~.n.n.B.O.tX..B '. XK.C tXtXtXtXtXtXtXtXtXtXtXtXtXtXtXtXtXtX",
"tXtXtXtXtXtXtXtXtXtXtXtXtXtXtXtXtXtXtXtXtXtXL z v v v v v v n.].}.|.|.|.|.F.I I.o.J [.|.G.L tXtXtXtXtXtXtXtXtXtXtXtXtXtXtXtXtXtX",
"tXtXtXtXtXtXtXtXtXtXtXtXtXtX- C W W Q Q Q L /.'.'.'.'.'.'.'.N.G ~.}.|.|.|.{.!.L V.~.|.|.{.Q.I tXtXtXtXtXtXtXtXtXtXtXtXtXtXtXtXtX",
"tXtXtXtXtXtXtXtXtXtXtXtXtXtXtXS W v N.Z.A.F.{.|.|.|.|.|. X|.~.M.c.W.|.|.|.|.{.F.n.n.{.|.|.'.B S tXtXtXtXtXtXtXtXtXtXtXtXtXtXtXtX",
"tXtXtXtXtXtXtXtXtXtXtXtXtXtXtXtXtXI J.[. X X X X|.|.|.|.|.|.|.'.c.W.|.|.|.|.|.|.v.v [.|.|.'.Z D tXtXtXtXtXtXtXtXtXtXtXtXtXtXtXtX",
"tXtXtXtXtXtXtXtXtXtXtXtXtXtXtXtXtXtXK J.{.|.|.{.[.[.[.{.|.|.|. X{.[.[.[.}.|.|.}.b.v ^.}.}.Q.A tXtXtXtXtXtXtXtXtXtXtXtXtXtXtXtXtX",
"tXtXtXtXtXtXtXtXtXtXtXtXtXtXtXtXtXtXtXU S.}.|.A.F B F N.{. X|.|.}.S.F G Q.|.|.|.v.= F W.W.P B.tXtXtXtXtXtXtXtXtXtXtXtXtXtXtXtXtX",
"tXtXtXtXtXtXtXtXtXtXtXtXtXtXtXtXtXtXtXW B N.S.v.c.c.c.Z.}. X|.{.A.v.c.v.~.|.{.Z.n.c.b.n.n.m.U tXtXtXtXtXtXtXtXtXtXtXtXtXtXtXtXtX",
"tXtXtXtXtXtXtXtXtXtXtXtXtXtXtXtXtXtX> : * z z S.}.}.}.}. X X{.G.F F.}.}.[.~.W.F n.~.[.v.J G.G X.tXtXtXtXtXtXtXtXtXtXtXtXtXtXtXtX",
"tXtXtXtXtXtXtXtXtXtXtXtXtXtXtXtXtXtXtXc K ^.].{. X X|.|. X XS.F W.{. X[.J z B H.v.H [.[.S.F F.C.S tXtXtXtXtXtXtXtXtXtXtXtXtXtXtX",
"tXtXtXtXtXtXtXtXtXtXtXtXtXtXtXtXtXtXtXtXP M.[. X X X|.|.{.M.v.Z.{. X].n.N.G = J n.F.{.|.Z.v Q.n.C tXtXtXtXtXtXtXtXtXtXtXtXtXtXtX",
"tXtXtXtXtXtXtXtXtXtXtXtXtXtXtXtXtXtXtXtXtXx D.'. X}.].W.F.z v. X}.].L...D.C.^ : n.|.|.|.Z.z Q.n.C tXtXtXtXtXtXtXtXtXtXtXtXtXtXtX",
"tXtXtXtXtXtXtXtXtXtXtXtXtXtXtXtXtXtXtXtXS - z S.{.[.c.z z % v. X}.b.] @X{ y.@Xs M.|.}.}.S.z Q.n.C tXtXtXtXtXtXtXtXtXtXtXtXtXtXtX",
"tXtXtXtXtXtXtXtXtXtXtXtXtXtXtXtXtXtXV ( I.K.F.v.G H M.K.M.z v. X}.J _ 2X&X-X;XT N.|.}.M.B z W.n.c tXtXtXtXtXtXtXtXtXtXtXtXtXtXtX",
"tXtXtXtXtXtXtXtXtXtXtXtXtXtXtXtXtXtXV ( I.G.{.K.H J M.Z.M.z F F.[.J _ 3X8X8X;XT M.[.K.o.! - v.C.K tXtXtXtXtXtXtXtXtXtXtXtXtXtXtX",
"tXtXtXtXtXtXtXtXtXtXtXtXtXtXtXtXtXtXtXtX+.Z W.[.{.[.c.z z % , L W.G _ >X<X<X*Xs v.J.( d.f., - tXtXtXtXtXtXtXtXtXtXtXtXtXtXtXtXtX",
"tXtXtXtXtXtXtXtXtXtXtXtXtXtXtXtXtXtXtX/ Y % v Z. X}.'.Q.F.z } d.S = : ! ! ! f O x  .#X5Xd.R tXtXtXtXtXtXtXtXtXtXtXtXtXtXtXtXtXtX",
"tXtXtXtXtXtXtXtXtXtXtXtXtXtXtXtXtXtX) y._ O O F Z.{.|.|.'.B y.3Xp.f s | a ( #.> ^ s.4X9Xs.s tXtXtXtXtXtXtXtXtXtXtXtXtXtXtXtXtXtX",
"tXtXtXtXtXtXtXtXtXtXtXtXtXtXtXtXtXtXa @Xf.; z v G W.^.'.'.B y.8X7Xi.| 1X^ a.wX+.p.:X7X1Xf.^ tXtXtXtXtXtXtXtXtXtXtXtXtXtXtXtXtXtX",
"tXtXtXtXtXtXtXtXtXtXtXtXtXtXtXtXtXtX~ *Xf.V F.~.F.B z v.~.B y.7X7X3X3X<X_ `.rXwXoX[ :X| @.tXtXtXtXtXtXtXtXtXtXtXtXtXtXtXtXtXtXtX",
"tXtXtXtXtXtXtXtXtXtXtXtXtXtXtXtXtX} s.2X:Xp.P J c.S.D.W.{.H.I.i.3X8X8X6Xd.p.OXrX.XU.,X[ ^ tXtXtXtXtXtXtXtXtXtXtXtXtXtXtXtXtXtXtX",
"tXtXtXtXtXtXtXtXtXtXtXtXtXtXtXtX~ ! s.#Xd.s.> + z A.F.G.G.{.F.L s.1X8X8X8X@Xi.wXXX_.,X[ ^ tXtXtXtXtXtXtXtXtXtXtXtXtXtXtXtXtXtXtX",
"tXtXtXtXtXtXtXtXtXtXtXtXtXtXtXtXR : s R a , * * * = - ; c G.].J.( d.8X8X8X7X5XrXXX_.,X} ` tXtXtXtXtXtXtXtXtXtXtXtXtXtXtXtXtXtXtX",
"tXtXtXtXtXtXtXtXtXtXtXtXtXtXtXtXR ! d.@X| k j.l.h.* O 4 3.E F L s.2X8X8X8X8X8X8XqX,X6X-Xp.{ tXtXtXtXtXtXtXtXtXtXtXtXtXtXtXtXtXtX",
"tXtXtXtXtXtXtXtXtXtXtXtXtXtXtXtXR _ 3X8X&X@.m.Y.z.* 7 ,.0.-.9 5.i.f.f.s.2X8X8X8X8X8X7X@Xp.@.tXtXtXtXtXtXtXtXtXtXtXtXtXtXtXtXtXtX",
"tXtXtXtXtXtXtXtXtXtXtXtXtXtXtXtXtX_ =X1X;X@XY m k.< -.9.w.w.w.8.7 d r f d.2X8X9X4X;X-Xy.} tXtXtXtXtXtXtXtXtXtXtXtXtXtXtXtXtXtXtX",
"tXtXtXtXtXtXtXtXtXtXtXtXtXtXtXtXtXtXd s s a O = = O e *.q.e.r.w.9.8.7.6.g i.7X7Xi.R f tXtXtXtXtXtXtXtXtXtXtXtXtXtXtXtXtXtXtXtXtX",
"tXtXtXtXtXtXtXtXtXtXtXtXtXtXtXtXtXtXtXtXtXu > O e &.r r &.&.1.r.e.e.8.>.M X.y.t.i.tXtXtXtXtXtXtX` { ) tXtXtXtXtXtXtXtXtXtXtXtXtX",
"tXtXtXtXtXtXtXtXtXtXtXtXtXtXtXtXtXtXtXtXtXtX: O r ,.&.4 4 4 <.r.e.9.>.h T.k.j & ) tXtXtXtXtXtX} ^ ^ > T tXtXtXtXtXtXtXtXtXtXtXtX",
"tXtXtXtXtXtXtXtXtXtXtXtXtXtXtXtXtXtXtXtXtXtX$ O @ e <.8.9.0.q.r.w.*.b T.E.R.l.c E tXtXtXtXtX^ u.2X=X[ R tXtXtXtXtXtXtXtXtXtXtXtX",
"tXtXtXtXtXtXtXtXtXtXtXtXtXtXtXtXtXtXtXtXtXtX& O O O 5 <.w.r.e.r.w.&.h R.E.l.M p.y.) ~ tXtXtXT y.;Xt.a u ) ~ tXtXtXtXtXtXtXtXtXtX",
"tXtXtXtXtXtXtXtXtXtXtXtXtXtXtXtXtXtXtXtXtXtX% O O O O 5 ,.0.e.e.q.9 n R.l.m.y.5Xd.} _ @.tX` W u.2Xt.} } [ > s tXtXtXtXtXtXtXtXtX",
"tXtXtXtXtXtXtXtXtXtXtXtXtXtXtXtXtXtXtXtXtXtX& % * * % O r 1.9.0.q.*.b l.b { -X6X7X5X3Xy.E c l u.7X5X7X3X&X_ tXtXtXtXtXtXtXtXtXtX",
"tXtXtXtXtXtXtXtXtXtXtXtXtXtXtXtXtXtXtXtXtXtX& m z.l.h O O r 5 0 0.9.=.l * : [ 1X8X8X9X1XOXP.T.`.8X8X8X&X} y.tXtXtXtXtXtXtXtXtXtX",
"tXtXtXtXtXtXtXtXtXtXtXtXtXtXtXtXtXtXtXtXtXtX& h h.h.g.g.g.g.g.M :.*.0 u #.OXoXp.i.s.5X9X$X(.(..X8X8X8X#XT tXtXtXtXtXtXtXtXtXtXtX",
"tXtXtXtXtXtXtXtXtXtXtXtXtXtXtXtXtXtXtXtXtXtX, O @ t x.T.T.T.T.l.h l k c oXeX,XR > } *X-XOXT.T.U.-X-X-Xs.^ tXtXtXtXtXtXtXtXtXtXtX",
"tXtXtXtXtXtXtXtXtXtXtXtXtXtXtXtXtXtXtXtXtX, $ O 4 1.i k k k k h l.T.j.< u T N $ ^ tX! d > l x c T f f _ tXtXtXtXtXtXtXtXtXtXtXtX",
"tXtXtXtXtXtXtXtXtXtXtXtXtXtXtXtXtXtXtXW W O O 8 1.q.1.0 @ O O % n m N -.;.;.;.;.g ' tXtXtXtXtXtXtXtXtXtXtXtXtXtXtXtXtXtXtXtXtXtX",
"tXtXtXtXtXtXtXtXtXtXtXtXtXtXtXtXtXtXtXY O @ 4 1.e.e.8.-.4 @ O O O w -.q.r.r.r.r.,.p tXtXtXtXtXtXtXtXtXtXtXtXtXtXtXtXtXtXtXtXtXtX",
"tXtXtXtXtXtXtXtXtXtXtXtXtXtXtXtXtXtX, : @ r 6.w.e.q.*.9 1.r O O @ *.9.0.w.r.r.r.e.4.r tXtXtXtXtXtXtXtXtXtXtXtXtXtXtXtXtXtXtXtXtX",
"tXtXtXtXtXtXtXtXtXtXtXtXtXtXtXtXT Y O O 8 6.q.e.e.w.8.-.7 @ O O O w 7 0 7.r.r.r.e.6.w tXtXtXtXtXtXtXtXtXtXtXtXtXtXtXtXtXtXtXtXtX",
"tXtXtXtXtXtXtXtXtXtXtXtXtXtXtXtXW e 9 9 ,.e.r.r.r.e.r.,.@ O O # 0 9 9 *.8.r.e.e.r.6.w tXtXtXtXtXtXtXtXtXtXtXtXtXtXtXtXtXtXtXtXtX",
"tXtXtXtXtXtXtXtXtXtXtXtXtXtXtX, # 9 0.e.e.e.r.r.r.e.0.-.+ O O 3 1.8.8.8.9.8.9.e.r.6.w tXtXtXtXtXtXtXtXtXtXtXtXtXtXtXtXtXtXtXtXtX",
"tXtXtXtXtXtXtXtXtXtXtXtXtXtX, $ *.0.w.e.e.e.e.r.r.q.*.# + O O O e r r r r r 7 9.r.6.3 tXtXtXtXtXtXtXtXtXtXtXtXtXtXtXtXtXtXtXtXtX",
"tXtXtXtXtXtXtXtXtXtXtXtXtX: + @ 2.r.r.e.e.e.r.r.9.*.r O O O O O O O O O O 5 <.0.1.>.tXtXtXtXtXtXtXtXtXtXtXtXtXtXtXtXtXtXtXtXtXtX",
"tXtXtXtXtXtXtXtXtXtXtXtXtXY O O *.8.e.e.r.r.r.9.3.i , O O O O O O O O O O 8 1.6.=.tXtXtXtXtXtXtXtXtXtXtXtXtXtXtXtXtXtXtXtXtXtXtX",
"tXtXtXtXtXtXtXtXtXtXtXtX: : O O # 0 9.e.r.w.q.>.0 tXW O O O O O O O + + O # 3 1 tXtXtXtXtXtXtXtXtXtXtXtXtXtXtXtXtXtXtXtXtXtXtXtX",
"tXtXtXtXtXtXtXtXtXtXtXtXc O O + O # 0 7.r.0.*.*.tXr Y O O O + O O O O O + + tXtXtXtXtXtXtXtXtXtXtXtXtXtXtXtXtXtXtXtXtXtXtXtXtXtX",
"tXtXtXtXtXtXtXtXtXtXtXtXR O O O O O # *.,.3.q tXtX@ O O O O % +     X X   tXtXtXtXtXtXtXtXtXtXtXtXtXtXtXtXtXtXtXtXtXtXtXtXtXtXtX",
"tXtXtXtXtXtXtXtXtXtXtXO O O O # @ O O $ 3 1 tXtXtXO O O O O tXtXtXtXtXtXtXtXtXtXtXtXtXtXtXtXtXtXtXtXtXtXtXtXtXtXtXtXtXtXtXtXtXtX",
"tXtXtXtXtXtXtXtXtXtXtX, O O e %.2 O X tXtXtXtXtXtX: O O O tXtXtXtXtXtXtXtXtXtXtXtXtXtXtXtXtXtXtXtXtXtXtXtXtXtXtXtXtXtXtXtXtXtXtX",
"tXtXtXtXtXtXtXtXtXtX( $ & 1 $.$.6 # tXtXtXtXtXtXtX& O , tXtXtXtXtXtXtXtXtXtXtXtXtXtXtXtXtXtXtXtXtXtXtXtXtXtXtXtXtXtXtXtXtXtXtXtX",
"tXtXtXtXtXtXtXtXtXu O O e $.%.e + tXtXtXtXtXtXtXtX+ O tXtXtXtXtXtXtXtXtXtXtXtXtXtXtXtXtXtXtXtXtXtXtXtXtXtXtXtXtXtXtXtXtXtXtXtXtX",
"tXtXtXtXtXtXtXtXtXY O # %.$.1 . tXtXtXtXtXtXtXtXtXtXtXtXtXtXtXtXtXtXtXtXtXtXtXtXtXtXtXtXtXtXtXtXtXtXtXtXtXtXtXtXtXtXtXtXtXtXtXtX",
"tXtXtXtXtXtXtXtXtXO . . 2 2 tXtXtXtXtXtXtXtXtXtXtXtXtXtXtXtXtXtXtXtXtXtXtXtXtXtXtXtXtXtXtXtXtXtXtXtXtXtXtXtXtXtXtXtXtXtXtXtXtXtX",
"tXtXtXtXtXtXtXtXtXtXtXtXtXtXtXtXtXtXtXtXtXtXtXtXtXtXtXtXtXtXtXtXtXtXtXtXtXtXtXtXtXtXtXtXtXtXtXtXtXtXtXtXtXtXtXtXtXtXtXtXtXtXtXtX",
"tXtXtXtXtXtXtXtXtXtXtXtXtXtXtXtXtXtXtXtXtXtXtXtXtXtXtXtXtXtXtXtXtXtXtXtXtXtXtXtXtXtXtXtXtXtXtXtXtXtXtXtXtXtXtXtXtXtXtXtXtXtXtXtX"
};
