/* XPM */
static char *result[] = {
/* columns rows colors chars-per-pixel */
"64 64 221 2 ",
"   c #2D1928",
".  c #321E2E",
"X  c #341F31",
"o  c #33212F",
"O  c #39212F",
"+  c #352533",
"@  c #3B2534",
"#  c #362935",
"$  c #3A2A36",
"%  c #3B2639",
"&  c #372C3A",
"*  c #3C2C3B",
"=  c #3D323D",
"-  c #2E202C",
";  c #551B29",
":  c #591F36",
">  c #761729",
",  c #751C2F",
"<  c #4C2334",
"1  c #422936",
"2  c #422C3B",
"3  c #492C3C",
"4  c #482734",
"5  c #522A35",
"6  c #582938",
"7  c #43323E",
"8  c #48303E",
"9  c #493136",
"0  c #5C323B",
"q  c #56373A",
"w  c #632B35",
"e  c #672D38",
"r  c #792A34",
"t  c #6A333E",
"y  c #693A3D",
"u  c #713B3E",
"i  c #77333B",
"p  c #672229",
"a  c #3F2D40",
"s  c #3E3241",
"d  c #3F3942",
"f  c #412C41",
"g  c #423442",
"h  c #4C3443",
"j  c #443B45",
"k  c #4B3C43",
"l  c #463C49",
"z  c #4A3C4B",
"x  c #47364A",
"c  c #553B4B",
"v  c #573746",
"b  c #4C3E50",
"n  c #5E3F52",
"m  c #672F41",
"M  c #682F42",
"N  c #653242",
"B  c #6B3441",
"V  c #6C3A42",
"C  c #643F49",
"Z  c #723D41",
"A  c #7C3B42",
"S  c #7C3848",
"D  c #444046",
"F  c #46434B",
"G  c #4B444C",
"H  c #4B494E",
"J  c #484548",
"K  c #53414C",
"L  c #514A4F",
"P  c #5A444C",
"I  c #4C4551",
"U  c #4E4A51",
"Y  c #534654",
"T  c #5C4453",
"R  c #524C54",
"E  c #574D59",
"W  c #594F59",
"Q  c #5E4A54",
"!  c #525056",
"~  c #595259",
"^  c #6B424A",
"/  c #65434A",
"(  c #7A444C",
")  c #634A54",
"_  c #654C5B",
"`  c #6A4F5F",
"'  c #6F4F58",
"]  c #684F60",
"[  c #6A5364",
"{  c #695667",
"}  c #735565",
"|  c #745B6D",
" . c #7A5C6E",
".. c #715768",
"X. c #765E70",
"o. c #7C5F71",
"O. c #77626F",
"+. c #776472",
"@. c #7B6172",
"#. c #7E6678",
"$. c #7A717F",
"%. c #861A2D",
"&. c #8A1C2D",
"*. c #931D2B",
"=. c #99162A",
"-. c #8A1F32",
";. c #991E30",
":. c #A51426",
">. c #A51429",
",. c #AA152A",
"<. c #A41B2D",
"1. c #AB1B2A",
"2. c #AF1D27",
"3. c #B21F2B",
"4. c #B81F2D",
"5. c #A50F29",
"6. c #86222C",
"7. c #8C242E",
"8. c #98212C",
"9. c #96242C",
"0. c #872836",
"q. c #942532",
"w. c #9A2B34",
"e. c #982C37",
"r. c #88363B",
"t. c #9D3335",
"y. c #92363B",
"u. c #97373A",
"i. c #AE222A",
"p. c #A1232E",
"a. c #B3232C",
"s. c #B9252D",
"d. c #BB2B2D",
"f. c #A32D33",
"g. c #A82833",
"h. c #B52631",
"j. c #BB2531",
"k. c #BB2B32",
"l. c #B42C34",
"z. c #A23436",
"x. c #AC3435",
"c. c #A53B3A",
"v. c #A6363A",
"b. c #B43233",
"n. c #BB3334",
"m. c #BB3B35",
"M. c #B63C39",
"N. c #B0302F",
"B. c #C2362E",
"V. c #C33433",
"C. c #C53B33",
"Z. c #CB3C34",
"A. c #CD3D39",
"S. c #C83937",
"D. c #D13D37",
"F. c #AC423C",
"G. c #A64037",
"H. c #BB453E",
"J. c #B6473C",
"K. c #CD4236",
"L. c #CD433B",
"P. c #C34539",
"I. c #D34439",
"U. c #D34A3B",
"Y. c #D74A39",
"T. c #D7503B",
"R. c #843B42",
"E. c #8D3A41",
"W. c #933944",
"Q. c #972F40",
"!. c #A23B43",
"~. c #864449",
"^. c #824754",
"/. c #995452",
"(. c #954A4E",
"). c #A94542",
"_. c #BC4D46",
"`. c #845768",
"'. c #836679",
"]. c #866A7B",
"[. c #8B6C7E",
"{. c #816474",
"}. c #946B7C",
"|. c #C34940",
" X c #8E6E83",
".X c #946E82",
"XX c #986E83",
"oX c #8E7185",
"OX c #877781",
"+X c #937285",
"@X c #9B7284",
"#X c #957589",
"$X c #9B778A",
"%X c #9B7A8D",
"&X c #95798B",
"*X c #9E7D93",
"=X c #A57E93",
"-X c #8E838B",
";X c #9C8392",
":X c #958892",
">X c #9C9098",
",X c #A28396",
"<X c #A6859A",
"1X c #A9869C",
"2X c #A58C9C",
"3X c #AA899D",
"4X c #B0849E",
"5X c #AE8BA1",
"6X c #B18BA2",
"7X c #BA9AAD",
"8X c #B594A9",
"9X c #BF9CB2",
"0X c #AF92A4",
"qX c #B9A1AF",
"wX c #C29FB4",
"eX c #C3A3B6",
"rX c #C7A7BA",
"tX c #CDB2C1",
"yX c #D3B3C5",
"uX c #D8CBD4",
"iX c None",
/* pixels */
"iXiXiXiXiXiXiXiXiXiXiXiXiXiXiXiXiXiXiXiXiXiXiXiXiXiXiXiXiXiXiXiXiXiXiXiXiXiXiXiXiXiXiXiXiXiXiXiXiXiXiXiXiXiXiXiXiXiXiXiXiXiXiXiX",
"iXiXiXiXiXiXiXiXiXiXiXiXiXiXiXiXiXiXiXiXiXiXiXiXiXiXiXiXiXiXiXiXiXyXiXiXiXiXiXiXiXiXiXiXiXiXiXiXiXiXiXiXiXiXiXiXiXiXiXiXiXiXiXiX",
"iXiXiXiXiXiXiXiXiXiXiXiXiXiXiXiXiXiXiXiXiXiXiXiXiXiXiX7X9XeXeXrXrX7X7XeXiXiXiXiXiXiXiXiXiXiXiXiXiXiXiXiXiXiXiXiXiXiXiXiXiXiXiXiX",
"iXiXiXiXiXiXiXiXiXiXiXiXiXiXiXiXiXiXiXiXiXiXiXiXiX].oXoX.X*X,XwX6X6X6X5X7XtXiXiXiXiXiXiXiXiXiXiXiXiXiXiXiXiXiXiXiXiXiXiXiXiXiXiX",
"iXiXiXiXiXiXiXiXiXiXiXiXiXiXiXiXiXiXiXiXiXiXiXiX[.oX X XoX[..X5X6X5X5X5X6XeXyXtXiXiXiXiXiXiXiXiXiXiXiXiXiXiXiXiXiXiXiXiXiXiXiXiX",
"iXiXiXiXiXiXiXiXiXiXiXiXiXiXiXiXiXiXiXiXiXiXiX[. X X X X X+X X,X5X5X5X5X5X0XwXrXtXiXiXiXiXiXiXiXiXiXiXiXiXiXiXiXiXiXiXiXiXiXiXiX",
"iXiXiXiXiXiXiXiXiXiXiXiXiXiXiXiXiXiXiXiXiX]. X X X X X X X X X*X5X5X5X5X5X6X5X5X8X9XiXiXiXiXiXiXiXiXiXiXiXiXiXiXiXiXiXiXiXiXiXiX",
"iXiXiXiXiXiXiXiXiXiXiXiXiXiXiXiXiXiXiXiX`.'. X X X X X X X X X#X1X5X5X5X5X5X5X5X5X5X5X0XiXiXiXiXiXiXiXiXiXiXiXiXiXiXiXiXiXiXiXiX",
"iXiXiXiXiXiXiXiXiXiXiXiXiXiXiXiXiXiX{. X&Xo.oX X X X X X X XoX .+X3X6X5X5X5X5X5X5X5X3X<X5XiXiXiXiXiXiXiXiXiXiXiXiXiXiXiXiXiXiXiX",
"iXiXiXiXiXR iXiXiXiXiXiXiXiXiXiXiX..| | [.+X .oX XoX X.X X .c # 3 ] +X1X6X6X5X5X5X,XoX XoX*XiXiXiXiXiXiXiXiXiXiXiXR iXiXiXiXiXiX",
"iXiXiXiXR ! h iXiXiXiXiXiXiXiXiX{ | | | @.;X].`. X X X@.c 2 $ O @ 1 8 } %X5X5X3X<X+X X X X X*XiXiXiXiXiXiXiXiXiX: E R iXiXiXiXiX",
"iXiXiXiXR ! m > iXiXiXiXiXiXiX{ | | X.| +.+X;XO.@.o.T 3 1 # iXiXiX@ $ 3 c ].3X<X[. X X.X X X#X=XiXiXiXiXiXiXiXiX, E R iXiXiXiXiX",
"iXiXiXiXU R N =.iXiXiXiXiXiXiX .X.| | X.| +.;X#.c 3 2 2 7 iXiXiXiXiXiX2 * 3 _ ) {. X X X X X X$X3XiXiXiXiXiXiX%.%.R R iXiXiXiXiX",
"iXiXiXiXR ! M 5.%.iXiXiXiXiX| | | X.| X.| ..&X..# $ 1 # j iXiXiXiXiXiXg 2 1 $ 2 o. X X X X X X X=X3XiXiXiXiXiX=.&.R ! iXiXiXiXiX",
"iXiXiXiXU R m 5.=.iXiXiXiX| |  .| | | | | +.].v * O iX@ j iXiXiXiXiXiXg iXiX# $ c {. X X X X X XoX<X,XiXiXiX%.:.%.R U iXiXiXiXiX",
"iXiXiXiXI ! m :.5.> iXiX{ | | | | | | | | ..8 7 1 iXiX+ l iXiXiXiXiXiX7 iXiXiX1 $ c {. X X X X X X+X3XiXiXiX=.5.%.R R iXiXiXiXiX",
"iXiXiXiXI R N >.>.*.iXiX..X.| | | | X.| ] h f 4 iXiXiXa b iXiXiXiXiX+ x iXiXiXiX* 1 c {. X XoX+X X X2XeXiX> >.:.%.R R iXiXiXiXiX",
"iXiXiXiXU R N ,.,.<.S 9X8XX.| | | | X.] h f a a a * * g x s g 7 g g g l j j j j j 7 1 c ]. X X[. X&X7X9X=X*.>.,.%.R U iXiXiXiXiX",
"iXiXiXiXU ! M ,.,.1.-.*XwX7XX.] | | ] h 3 @ . . o . o # & + o + + + + & & # # # + @ $ 3 )  X+XoX+X1X0X5X^.<.>.,.&.R U iXiXiXiXiX",
"iXiXiXiXU R N ,.,.1.=. X7XrXwX X] ] x f g iXiXiXiXiXiX+ l iXiXiXiXiXiXs iXiXiXiXiXiX# 1 2 ..[.].,X5X5X2X0.>.:.,.-.R R iXiXiXiXiX",
"iXiXiXiXI ! N ,.1.1.1.S 5X5X8X9X..h 2 2 g iXiXiXiXiXiX+ l iXiXiXiXiXiXg iXiXiXiXiXiX* 8 @ 8 Q +X6X5X6XXX;.,.:.1.6.R R iXiXiXiXiX",
"iXiXiXiXI U N ,.1.,.1.Q.5X5X5X8XO.# @ + * iXiXiXiXiXiX+ l iXiXiXiXiXiXg iXiXiXiXiXiX$ j iX@ 2 %X6X6X6X`.<.,.;.,.7.U U iXiXiXiXiX",
"iXiXiXiXH ! N Q./ v m 6  X5X5X5XQ $ iXiXs iXiXiXiXiXiX+ l iXiXiXiXiXiXg iXiXiXiXiXiX* j iX. 1 {.1X6X5Xv 6 v N ~.-.R R iXiXiXiXiX",
"iXiXiXiXI ! B ( l s s % ..5X5X{.7 # iXiX= iXiXiXiXiXiXO j iXiXiXiXiXiXd iXiXiXiXiXiX& l iXiX@ h .X5X*Xf f g j ) r.I U iXiXiXiXiX",
"iXiXiXiXH L N 0 j g 2 * c 5X*Xv 2 2 f f z x x z c x x x I x b I b z g I z z Y Y G l l F x iXg 2 _ <X X% * 7 j h r U U iXiXiXiXiX",
"iXiXiXiXH ! N 0.k g 7 3 h =XQ f @ @ % % $ $ $ * % * * & s * 2 = = = 7 = d d g = d j g j j j j 7 3 ]._ 4 7 7 k e 7.I U iXiXiXiXiX",
"iXiXiXiXI U N i.8.*.;.*.7.} h @ iXiXiX  # % iXiXiXiXiX+ * iXiXiXiXiX  * & iXiXiXiXiX+ = iXiXiXiX@ c i 8.8.*.*.8.q.Y U iXiXiXiXiX",
"iXiXiXiXG R N a.i.2.4.2.a.6 2 iXiXiXiXiXs iXiXiXiXiXiX+ l iXiXiXiXiXiXd iXiXiXiXiXiX# l iXiXiXiXiX1 q.i.a.3.3.4.q.I U iXiXiXiXiX",
"iXiXiXiXG U t a.4.2.4.1.a.e iXiXiXiXiXiXs iXiXiXiXiXiX+ j iXiXiXiXiXiXg iXiXiXiXiXiX& l iXiXiXiXiX4 p.i.3.3.3.a.q.U U iXiXiXiXiX",
"iXiXiXiXH ! B a.a.i.s.2.j.6.iXiXiXiXiXiXs iXiXiXiXiXiX+ j iXiXiXiXiXiXg iXiXiXiXiXiX# l iXiXiXiXiX: h.1.a.a.3.a.q.U U iXiXiXiXiX",
"iXiXiXiXH U N h.a.i.s.2.a.q.iXiXiXiXiXiXa iXiXiXiXiXiX+ D iXiXiXiXiXiXg iXiXiXiXiXiX% l iXiXiXiXiXp h.i.a.a.1.s.w.Y U iXiXiXiXiX",
"iXiXiXiXH U B h.a.2.V.2.j.8.iXiXiXiXiXiXg iXiXiXiXiXiX$ F iXiXiXiXiX. l iXiXiXiXiXiX= z iXiXiXiXiX6.j.i.s.a.a.s.w.I U iXiXiXiXiX",
"iXiXiXiXH R B h.a.i.k.a.h.i.< % % $ % * g a a * * * = g l g 7 g g g j l g j j j j j l F D J F j D 0.d.a.h.a.a.d.w.G U iXiXiXiXiX",
"iXiXiXiXG R B h.a.a.k.i.d.l.< X X . X X @ + + # + + + + % + @ # $ # # * * = $ & = = $ = = = d = 7 w.d.1.h.a.a.d.w.H H iXiXiXiXiX",
"iXiXiXiXR R B h.s.a.k.s.k.l.iXiXiXiXiXiX& iXiXiXiXiXiX+ d iXiXiXiXiXiX= iXiXiXiXiXiX@ j iXiXiXiXiXg.j.a.h.a.a.d.w.L R O.iXiXiXiX",
"iXiXiXiX! H V k.l.s.k.s.k.x.iXiXiXiXiXiXg iXiXiXiXiXiXO l iXiXiXiXiXiXg iXiXiXiXiXiX# l iXiXiXiXiXw.k.i.d.a.a.d.w.H H O.iXiXiXiX",
"iXiXiXiX~ U V l.x.y.E.t v 5 iXiXiXiXiXiX2 iXiXiXiXiXiX+ l iXiXiXiXiXiXg iXiXiXiXiXiX# l iXiXiXiXiX< 0 N A Q.z.n.w.H U +.iXiXiXiX",
"iXiXiX .R U B !.P l g f f % iXiXiXiXiXiXs iXiXiXiXiXiX+ l iXiXiXiXiXiXg iXiXiXiXiXiX* j iXiXiXiXiX@ f * s j J ^.e.H U +.iXiXiXiX",
"iXiXiX;X! H V ~.j j g 7 * % iXiXiXiXiXiXf iXiXiXiXiXiX# l iXiXiXiXiXiXg iXiXiXiXiXiX& l iXiXiXiXiX@ * a = d j Q W.K U +.iXiXiXiX",
"iXiX;X2X~ U V t D j = 3 4 5 1 iXiXx iXf z z z z z z l g G k z G z G l z z z F H l l l I iXiXI iXl < < 3 7 j j h r.G U OX;X%XiXiX",
"iX'.| | R U B z.0 e r 9.f.x.5 @ % @ % % * $ * * * * = * s a = = 7 = g g d g j d j j g j j D D D k y.x.9.0.t 0 i t.I H +.OX].&XiX",
"|  .| | R G Z n.x.n.n.d.V.n.; iXiXiXiX  # * iXiXiXiXiX+ & iXiXiXiXiX  & * iXiXiXiXiX+ = iXiXiXiXiXw.V.d.d.k.g.n.t.G H [ | | '.iX",
".. .X.| E H V R.9 i b.d.V.n.iXiXiXiXiXiX= iXiXiXiXiXiX# l iXiXiXiXiXiXd iXiXiXiXiXiX# D iXiXiXiXiXf.V.s.B.z.3 N W.G U { X.| X.iX",
"{  .| | R H / v { +.i k.V.n.iXiXiXiXiXiXg iXiXiXiXiXiX+ j iXiXiXiXiXiXs iXiXiXiXiXiX$ j iXiXiXiXiXf.V.B.z.) $.g ( H H { | X.| iX",
"..| X.| R L P K E I q n.n.m.iXiXiXiXiXiXa iXiXiXiXiXiX+ l iXiXiXiXiXiXg iXiXiXiXiXiX* j iXiXiXiXiXf.V.V.r.l E U / G H { | | | iX",
"iX| | | I H y ' d 4 N x.V.m.iXiXiXiXiXiXs iXiXiXiXiXiX@ l iXiXiXiXiXiXg iXiXiXiXiXiX% l iXiXiXiXiXf.S.n.A 5 # T A J H { | | ..iX",
"iXiX) Q U H u ( w 6.R.z.V.n.iXiXiXiXiXiXg iXiXiXiXiXiX# l iXiXiXiXiX+ l iXiXiXiXiXiX= z iXiXiXiXiXw.Z.C.A e.p C E.G H Y T n iXiX",
"iXiXiXiXU I Z r.r.z.V b.S.m.4 * % a * f x g f g g g g x z g x l l g g z l l F l F l l F F F F I J y.S.C.r.y.z.y c.G H iXiXiXiXiX",
"iXiXiXiXR H u M.e 0 r.B.S.m.< X X X + + + + + + % % + % & # & # $ * * & * = = = = = = = = d = d 7 y.A.C.x.w 0 t.c.J H -XiXiXiXiX",
"iXiXiXiXR H Z S.b.f.C.B.S.C.iXiXiXiXiXiX* iXiXiXiXiXiXo g iXiXiXiXiXiX= iXiXiXiXiXiX# j iXiXiXiXiXt.A.C.Z.N.f.C.c.J H :XiXiXiXiX",
"iXiXiXiXR H Z C.C.Z.K.B.C.m.iXiXiXiXiXiXs iXiXiXiXiXiX+ l iXiXiXiXiXiXg iXiXiXiXiXiX* j iXiXiXiXiXz.A.C.Z.Z.C.D.c.G G :XiXiXiXiX",
"iXiXiXiXR H Z C.Z.C.K.B.A.M.iXiXiXiXiXiXs iXiXiXiXiXiX+ l iXiXiXiXiXiXg iXiXiXiXiXiX$ F iXiXiXiXiXx.D.B.Z.Z.C.D.c.G G -XiXiXiXiX",
"iXiXiXiX~ H Z C.Z.Z.D.Z.K.m.iXiXiXiXiXiXg iXiXiXiXiXiX# j iXiXiXiXiXiXg iXiXiXiXiXiX* j iXiXiXiXiXc.D.S.Z.A.Z.K.c.F H >XiXiXiXiX",
"iX6X6X3X~ H Z K.Z.A.D.D.K.F.iXiXiXiXiXiXa iXiXiXiXiXiX+ j iXiXiXiXiXiXg iXiXiXiXiXiX# l iXiXiXiXiXt.|.C.A.Z.S.K.c.J H ].<X1XiXiX",
"iX5X5X1XW H u K.K.K.|.!.Z 5 c iXiXiXiXf l b iXiXiXiXiXg I iXiXiXiXiXl l Y iXiXiXiXE l I iXiXiXiXiX3 y u.P.K.C.I.F.G F X. X X.XiX",
"6X5X5X1XW H Z L.H.(.V g 2 * % @ % % % % f * $ * * = * a g f 7 s g = 8 g j = j 7 j j g l d D D D D 7 * * v ~.).U.c.J H +. X X.XiX",
"3X5X3X3X~ J Z J.) k 7 = $ #   iXiXiXiX  + + iXiXiXiXiX+ * iXiXiXiXiX. & & iXiXiXiXiX# = iXiXiXiXiX@ * a = 7 K /.J.J I +. X X XiX",
"<X3X0X3X~ H ( /.F j 7 7 1 5 iXiXiXiXiXiX* iXiXiXiXiXiX+ l iXiXiXiXiXiXs iXiXiXiXiXiX# l iXiXiXiXiX< 1 & j 7 j ' ).J F @. X X].qX",
"rX0X1X3X! H ^ / j d = 6 v.F.iXiXiXiXiXiXa iXiXiXiXiXiX@ iXiXiXiXiXiXiX7 iXiXiXiXiXiX% iXiXiXiXiXiXM.J.r 9 j j J ~.J H @.+X+X;XuX",
"&X+X+X#XW G ( y.q u G.P.Y.H.iXiXiXiXiXiX% iXiXiXiXiXiXiXiXiXiXiXiXiXiX= iXiXiXiXiXiXiXiXiXiXiXiXiXiXU.B.J.r.q y ).H F #.#XoX#X*X",
"oXoXoX].R J ^ P.J.K.U.K.U.P.iXiXiXiXiXiXiXiXiXiXiXiXiXiXiXiXiXiXiXiXiXiXiXiXiXiXiXiXiXiXiXiXiXiXiXiXU.S.I.I.m.P.J.F F X. X X X X",
"oX[.oX[.U J u U.I.K.Y.K.J.~.`.}.@X}.@X.X@X@X}.#X<X1X3X1X<X3X3X1X<X1X3X3X3X2XiX`.[.@X}.@XXXXXXX}..X( ).C.U.U.K.Y.F.F I +. X XoX X",
" XoXoX[.R J y U.Y.K.P.r.^ {.$X@X@X@X@X@X@X@X@X,X5X5X5X5X5X5X5X5X5X5X5X5X6X3X5X[.@X@X@X@X@X@X@X@X@X}.' Z F.L.I.Y.).J F @. XoX X X",
"+X#X+X[.! H y U.J.r.C +..X X.X+X#X$X@X$X$X#X,X<X5X3X1X2X<X<X2X1X3X3X3X3X3X1X5X3X@X=X$X%X$X%X%X$X%X%X*X#X..V F.T.J.D F X.+XoX+XoX"
};
