/* XPM */
static char *result[] = {
/* columns rows colors chars-per-pixel */
"64 64 224 2 ",
"   c #2D1A2D",
".  c #331D2D",
"X  c #391A2B",
"o  c #321F31",
"O  c #3B1E30",
"+  c #2F1E31",
"@  c #37212E",
"#  c #342432",
"$  c #3A2534",
"%  c #352932",
"&  c #3C2936",
"*  c #3C2639",
"=  c #3D2C3B",
"-  c #3D313E",
";  c #2F2631",
":  c #6C0B18",
">  c #720C1B",
",  c #7C0C1E",
"<  c #7B061E",
"1  c #72131C",
"2  c #481828",
"3  c #561425",
"4  c #4F1E31",
"5  c #6A0C22",
"6  c #7D0D21",
"7  c #7D1221",
"8  c #761623",
"9  c #6A1B2C",
"0  c #412A37",
"q  c #432C3B",
"w  c #4A2E3E",
"e  c #482634",
"r  c #5D2B35",
"t  c #572634",
"y  c #44313E",
"u  c #4A313E",
"i  c #57333B",
"p  c #4F242C",
"a  c #68242C",
"s  c #79252D",
"d  c #622B36",
"f  c #662736",
"g  c #782B34",
"h  c #64333B",
"j  c #6C383B",
"k  c #72353C",
"l  c #7C3336",
"z  c #4F101A",
"x  c #3F3341",
"c  c #3E3940",
"v  c #433342",
"b  c #4B3442",
"n  c #433B44",
"m  c #4A3A45",
"M  c #4D3C48",
"N  c #443B49",
"B  c #543C4B",
"V  c #573945",
"C  c #4C3F50",
"Z  c #6D3A45",
"A  c #663944",
"S  c #763B45",
"D  c #444046",
"F  c #4E424A",
"G  c #474347",
"H  c #5B424E",
"J  c #53424D",
"K  c #5B4352",
"L  c #564653",
"P  c #6C444D",
"I  c #63424B",
"U  c #624553",
"Y  c #6C4551",
"T  c #654C5C",
"R  c #6A4B5C",
"E  c #664956",
"W  c #734C5A",
"Q  c #774954",
"!  c #6A505F",
"~  c #79474F",
"^  c #6D5564",
"/  c #6A5666",
"(  c #71576A",
")  c #745B6E",
"_  c #7A5C6D",
"`  c #725667",
"'  c #755D70",
"]  c #7A5E71",
"[  c #684F61",
"{  c #79606F",
"}  c #7C6274",
"|  c #7A6777",
" . c #6C636F",
".. c #810C1E",
"X. c #8B0F1F",
"o. c #86101F",
"O. c #9A181E",
"+. c #820C21",
"@. c #8F0C21",
"#. c #821422",
"$. c #8A1523",
"%. c #881B25",
"&. c #9D1524",
"*. c #9E1B22",
"=. c #951A28",
"-. c #9B152C",
";. c #A61226",
":. c #A91327",
">. c #A31B24",
",. c #AB1629",
"<. c #A41D29",
"1. c #AB1B2B",
"2. c #A81828",
"3. c #B31E2C",
"4. c #A40F25",
"5. c #96222A",
"6. c #9A222C",
"7. c #9C2A2A",
"8. c #972327",
"9. c #9D312F",
"0. c #862932",
"q. c #9B2A35",
"w. c #8C3A37",
"e. c #8A353A",
"r. c #8D3C3A",
"t. c #863536",
"y. c #983437",
"u. c #822029",
"i. c #A42225",
"p. c #AC2426",
"a. c #AD232B",
"s. c #A72A2C",
"d. c #B5222D",
"f. c #BA252E",
"g. c #B42B2C",
"h. c #BB2B2E",
"j. c #A8312D",
"k. c #B5322E",
"l. c #BC332D",
"z. c #A52934",
"x. c #BA2730",
"c. c #BC2A31",
"v. c #B62530",
"b. c #AB3234",
"n. c #AD323A",
"m. c #A53637",
"M. c #B43332",
"N. c #BE3233",
"B. c #BD3A34",
"V. c #B2343B",
"C. c #B63B3B",
"Z. c #C12C32",
"A. c #C43433",
"S. c #C93634",
"D. c #C43B34",
"F. c #CB3C35",
"G. c #CE3E38",
"H. c #C63D38",
"J. c #D13F37",
"K. c #D23F39",
"L. c #C1312F",
"P. c #BC473C",
"I. c #C54136",
"U. c #CC4236",
"Y. c #CD4239",
"T. c #C64A3C",
"R. c #CA4B3E",
"E. c #C3453A",
"W. c #D24336",
"Q. c #D34339",
"!. c #D64A3A",
"~. c #DA4B3C",
"^. c #D94838",
"/. c #973D43",
"(. c #853B46",
"). c #86474A",
"_. c #9A4747",
"`. c #A44C4B",
"'. c #A54A48",
"]. c #B34B41",
"[. c #826476",
"{. c #84667A",
"}. c #856A7C",
"|. c #8A6B7E",
" X c #886777",
".X c #906E7E",
"XX c #C74B41",
"oX c #D34D40",
"OX c #8E6E83",
"+X c #926D82",
"@X c #8D7184",
"#X c #8F7588",
"$X c #937286",
"%X c #997284",
"&X c #947589",
"*X c #9A778B",
"=X c #967A8C",
"-X c #9B7A8D",
";X c #937887",
":X c #9D7D92",
">X c #A17F94",
",X c #9D8193",
"<X c #9A818F",
"1X c #A38296",
"2X c #A5849A",
"3X c #AA879C",
"4X c #AB8A9E",
"5X c #A3899A",
"6X c #B08A9F",
"7X c #AE8BA1",
"8X c #B08BA2",
"9X c #B291A5",
"0X c #B594A9",
"qX c #B997AC",
"wX c #BB9BAD",
"eX c #BE9CB1",
"rX c #B9A1AF",
"tX c #C19EB3",
"yX c #C6A5B9",
"uX c #D0AFC3",
"iX c #D1B2C3",
"pX c #CDB2C1",
"aX c #DDCED7",
"sX c None",
/* pixels */
"sXsXsXsXsXsXsXsXsXsXsXsXsXsXsXsXsXsXsXsXsXsXsXsXsXsXsXsXsXsXsXsXsXsXsXsXsXsXsXsXsXsXsXsXsXsXsXsXsXsXsXsXsXsXsXsXsXsXsXsXsXsXsXsX",
"sXsXsXsXsXsXsXsXsXsXsXsXsXsXsXsXsXsXsXsXsXsXsXsXsXsXsXsXsXsXwXsXsXiXsXsXsXsXsXsXsXsXsXsXsXsXsXsXsXsXsXsXsXsXsXsXsXsXsXsXsXsXsXsX",
"sXsXsXsXsXsXsXsXsXsXsXsXsXsXsXsXsXsXsXsXsXsXsXsXsXsXsXsXqXyXyXtXuXwXwXeXsXsXsXsXsXsXsXsXsXsXsXsXsXsXsXsXsXsXsXsXsXsXsXsXsXsXsXsX",
"sXsXsXsXsXsXsXsXsXsXsXsXsXsXsXsXsXsXsXsXsXsXsXsXsXsXOX+X$X=X:XqXqX4X8X7X0XyXsXsXsXsXsXsXsXsXsXsXsXsXsXsXsXsXsXsXsXsXsXsXsXsXsXsX",
"sXsXsXsXsXsXsXsXsXsXsXsXsXsXsXsXsXsXsXsXsXsXsXsX}.@X@XOXOXOXOX>X9X6X4X8X9X0XiXiXsXsXsXsXsXsXsXsXsXsXsXsXsXsXsXsXsXsXsXsXsXsXsXsX",
"sXsXsXsXsXsXsXsXsXsXsXsXsXsXsXsXsXsXsXsXsXsXsX|.OX@XOXOX+X@XOX=X7X8X8X8X7X7XqXyXiXsXsXsXsXsXsXsXsXsXsXsXsXsXsXsXsXsXsXsXsXsXsXsX",
"sXsXsXsXsXsXsXsXsXsXsXsXsXsXsXsXsXsXsXsXsX[.|.+XOXOXOX+XOXOXOX&X4X7X7X4X7X8X7X7X9XqX0XsXsXsXsXsXsXsXsXsXsXsXsXsXsXsXsXsXsXsXsXsX",
"sXsXsXsXsXsXsXsXsXsXsXsXsXsXsXsXsXsXsXsX.X_ @XOXOXOXOXOX@XOXOX$X>X8X7X7X7X7X7X7X7X7X7X7XsXsXsXsXsXsXsXsXsXsXsXsXsXsXsXsXsXsXsXsX",
"sXsXsXsXsXsXsXsXsXsXsXsXsXsXsXsXsXsXsX}.=X X X@XOXOXOX@XOXOXOX} [.2X6X7X8X7X7X8X7X8X4X2X2XsXsXsXsXsXsXsXsXsXsXsXsXsXsXsXsXsXsXsX",
"sXsXsXsXsXsXsXsXsXsXsXsXsXsXsXsXsXsX) ) | =X{ }.OXOX+X+X@X{.U q & K  X1X4X7X8X4X4X4X&XOX+X=X,XsXsXsXsXsXsXsXsXsXsXsXsXsXsXsXsXsX",
"sXsXsXsXsXsXsXsXsXsXsXsXsXsXsXsXsX) ' ) ) =X;X_ OXOXOX{.T b 0 $ $ 0 u U +X3X8X4X7X*X+XOXOXOX=XsXsXsXsXsXsXsXsXsXsXsXsXsXsXsXsXsX",
"sXsXsXsXsXsXsXsXsXsXsXsXsXsXsXsX( ' ) ) ) }.<X}.] } R b 0 0 O 2 X X $ q u ` 1X4X+XOXOXOXOXOXOX:XsXsXsXsXsXsXsXsXsXsXsXsXsXsXsXsX",
"sXsXsXsXsXsXsXsXsXsXsXsXsXsXsX( ) ) ) ) ) ) @X,XB m q 0 $ 2 5 8 : : 2 X & q H T ( OXOXOXOXOXOX@X4XsXsXsXsXsXsXsXsXsXsXsXsXsXsXsX",
"sXsXsXsXsXsXsXsXsXsXsXsXsXsX( ) ) ' ' ) ' ) | =X& $ & X 3 < < > : < 6 z X $ 0 % T OXOXOXOXOXOXOX&X7XsXsXsXsXsXsXsXsXsXsXsXsXsXsX",
"sXsXsXsXsXsXsXsXsXsXsXsXsX( ) ) ) ' ) ) ) ) |.K q $ 4 6 < , < 7 > +.6 : : 2   $ w ` |.OXOXOXOXOXOX=X7XsXsXsXsXsXsXsXsXsXsXsXsXsX",
"sXsXsXsXsXsXsXsXsXsXsXsXsX) ) ) ) ) ) ) ) { K u q 4 =.;.4.@., 7 > .., > < , 2 . = y ` OXOXOXOXOXOXOX1XsXsXsXsXsXsXsXsXsXsXsXsXsX",
"sXsXsXsXsXsXsXsXsXsXsXsX] ( ' ' ) ( ) ' ( B w q f $.;.:.4.4.4.$.> 6 , , +., : 3 X = u ` OXOXOX@XOXOX:X0XsXsXsXsXsXsXsXsXsXsXsXsX",
"sXsXsXsXsXsXsXsXsXsXsX0XeXOX( ' ' ' ) ( B y q f ,.&.;.:.:.:.:.<.X..., .., 1 1 , 3 X & u _ @X+X+XOX$X7XeXyXsXsXsXsXsXsXsXsXsXsXsX",
"sXsXsXsXsXsXsXsXsXsX7X7XeXyX&X[ ( ) ( B b q 9 ,.,.s.4.,.:.,.:.2.&.4.X...6 6 1 , 6 3 X & b {.@XOXOX,X7X7X4XyXsXsXsXsXsXsXsXsXsXsX",
"sXsXsXsXsXsXsXsXsXsX7X7X8XyXyX,X[ ^ B w 0 f ,.,.1.1.2.2.,.,.,.1.-.:.:.=...+.> ..+.+.3 o q K |.{.*X7X7X7X7XyXsXsXsXsXsXsXsXsXsXsX",
"sXsXsXsXsXsXsXsXsX7X7X7X7X8X9XeX:XM v v t -.,.,.,.1.2.2.:.,.1.<.&.,.,.,.-.$.5 , +., +.3 o q B { 7X7X4X8X7X0XiXsXsXsXsXsXsXsXsXsX",
"sXsXsXsXsXsXsXsX>X7X7X7X7X7X8X8X5X# O 4 -.1.1.1.1.<.1.1.1.,.,.i.&.,.3.:.1.-.8 6 +.#.7 8 2 . % ) 7X7X7X7X7X7XyXsXsXsXsXsXsXsXsXsX",
"sXsXsXsXsXsXsXsX3X8X8X7X7X7X7X8XOX= x e A A Z A Z Z Z S q.,.1.2.>.1.,.z.S Z V t t e 4 4 O   $ K >X4X8X7X7X7X0XuXsXsXsXsXsXsXsXsX",
"sXsXsXsXsXsXsXsX7X7X8X7X7X7X7X:XV v O x O x x v c c N N I q.1.<.2.1.z.A G c v x # ; +       # & _ 3X7X7X7X7X7XwXsXsXsXsXsXsXsXsX",
"sXsXsXsXsXsXsX4X7X7X7X7X7X7X4XR v * * * = = = v n n D D m t.1.1.>.3.0.m D n - D v o + +       $ b $X7X7X7X7X7X8XtXsXsXsXsXsXsXsX",
"sXsXsXsXsXsXsX7X7X7X8X7X8X8X}.b 0 e * q w y w y y y y m g a.3.1.-.3.3.0.i m y y u w @   .     . & R 3X7X7X7X7X7X8XsXsXsXsXsXsXsX",
"sXsXsXsXsXsX%X8X7X7X7X7X7X>XB w f 6.-.%.-.6.6.-.6.%.5.6.3.3.3.1.&.3.d.3.=.6.%.7.6.=.=.7 8 1 8 3 @ w }.7X8X7X7X7X7X3XsXsXsXsXsXsX",
"sXsXsXsXsXsX>X-X4X7X8X7X7X_ b t z.3.3.&.3.d.x.3.3.2.3.v.3.3.d.3.<.d.3.3.d.3.*.d.3.d.d.<.u.o.%.7 2 $ K >X8X7X6X8X7X0XsXsXsXsXsXsX",
"sXsXsXsXsXsXwX4X>X3X4X4X-XM = g f.3.d.&.d.d.3.3.d.2.1.d.d.d.3.p.2.d.3.d.f.d.*.d.d.d.3.d.8.o.$.$.9 . w [.4X8X4X4X4X9XsXsXsXsXsXsX",
"sXsXsXsXsX}.$XqXeX7X=X=X! u t a.f.f.f.&.f.d.f.f.d.<.d.v.f.d.d.a.2.f.f.x.f.d.>.v.d.d.d.d.s.$.$.$.$.2 $ U -X2X:X*X$X&X4XsXsXsXsXsX",
"sXsXsXsXsXOXOX@X>X7XeX) q y 0.d.f.f.f.&.x.3.x.x.x.>.d.d.x.Z.3.1.>.h.x.f.f.x.&.f.f.d.d.d.i.a.$.$.o.9 . q L {.OXOXOXOX7XsXsXsXsXsX",
"sXsXsXsXsXOXOX@X+XOX:X{ % e z.d.f.f.f.;.x.d.x.x.x.>.d.d.x.f.Z.3.>.f.f.f.f.x.O.f.h.d.d.f.i.d.i.$.%.%.2 ; b {.@XOXOXOX4XsXsXsXsXsX",
"sXsXsXsXsXOXOXOX+XOX&X_ = g x.x.f.f.h.>.x.x.x.x.h.>.d.d.x.f.f.a.>.h.3.Z.f.f.O.f.c.v.f.v.i.f.g.-.=.$.9 @ u [.OXOX@XOX:XsXsXsXsXsX",
"sXsXsXsXOXOXOXOXOX@X*XH q q.f.x.f.x.c.7.v.c.x.x.h.>.v.f.x.f.Z.a.>.Z.Z.f.Z.f.O.d.c.v.f.v.*.g.f.a.=.$.8 O q ( OXOXOXOX@X3XsXsXsXsX",
"sXsXsXsXOXOXOXOX@XOX.XV q z.x.x.Z.Z.Z.s.x.c.c.x.Z.>.x.c.h.Z.c.d.>.Z.Z.Z.c.c.O.d.c.c.v.v.O.c.c.g.=.=.u.@ 0 ! OXOXOXOXOX+XsXsXsXsX",
"sXsXsXsXOXOXOXOXOXOX[.u q e.n.n.n.V.V.9.n.n.V.V.V.7.V.V.f.c.c.d.p.Z.h.Z.V.V.5.n.V.n.n.n.5.n.n.q.u.%.9 e 0 E |.OXOXOX@X|.sXsXsXsX",
"sXsXsXsXOXOXOXOXOXOX) y q & q = q v v b m m m M M F F H /.v.Z.g.p.Z.Z._.I F F F M M m b b b v q . .   . 0 H }.OX@XOXOX@XsXsXsXsX",
"sXsXsXsXOX@XOXOXOX$X` u q * * = b = x q v v v n N n D D G ).h.d.i.Z.m.J D D D y N v v x x = * v       @ 0 H [.+XOXOXOX@XsXsXsXsX",
"sXsXsXsX{.}.OX}.|.{.T 0 v $ * & * x = x x - - x n n D D M z.c.d.p.A.b.V D D D c x x v x - = = #       . $ B _ [.{.}.}..XsXsXsXsX",
"sXsX=X5X=X&X&X=X&X;X^ % & t f t r d d t d h r h h i A j m.A.A.g.a.A.A.j.k h i h h h h r t r f t 2 2 X ; % J }.|.$X=X=X<X4X:XsXsX",
"sXOX} ) ) } | [.| }.}.y q y.Z.A.c.N.A.s.N.N.s.A.N.s.c.N.A.A.S.v.a.A.A.A.A.c.8.M.N.h.h.N.p.M.A.g.8.=.8 $ = T ) ) ] }.@X@X@X}.#XsX",
"sX) ) ) ) ) ' ' { ) | u w e.S.A.A.A.S.p.A.A.s.A.S.p.A.C.e.r.B.h.p.B./.e.m.c.2.A.A.A.l.A.p.L.A.g.8.6.s $ 0 K ' ' ) ) ) ) ( ) { sX",
"( _ ) ) ) ' ' ) ) ) ) u q e.S.S.c.A.D.p.S.S.k.A.A.g.b.t C M Z V.s.(.v L w m.2.A.A.A.L.A.s.A.N.g.8.=.8 $ 0 K ' ) ) ) ' ) ' ) ' sX",
"sX) ) ' ) ' ) ) ) ) ` u q e.S.S.A.A.S.g.A.S.l.A.S.g.w.y /  .m m.z.b / | n l p.A.S.S.A.A.c.S.A.g.5.5.s # q K ) ) ) ) ) ' ) ) ) sX",
"sX' ) ) ) ) ' ) ) ) [ y q e.F.S.S.L.S.g.A.S.A.D.S.g.Z - n n F m.m.V n N - A s.A.S.S.S.A.l.S.S.g.8.5.a $ 0 J ) ) ) ' ) ) ) ) ) sX",
"sX) ) ) ) ) ) ) ) { T y w t.D.D.D.S.L.g.D.D.F.F.D.m.V h y i A r.9.H i y i I 0.S.H.S.F.S.D.S.H.M.5.8.a # = B ( ) ) ) ) ' ' ) ) sX",
"sXsX! E ^ ` ( ( ` ^ M q = l S.G.F.F.D.g.S.S.F.F.F.z.A P.b.B.~ /.y.Q C.M.C.W 5.H.F.K.F.F.I.S.H.k.6.7.a $ $ b ( ' ' ' ' ' U sXsXsX",
"sXsXsXsX5X*X*X>X1X1X} & = k F.J.F.W.G.g.G.J.S.F.K.M.A W _.).Z C.b.S Q _.).S j.H.F.F.F.K.I.D.K.c.8.7.a $ % ) qXeXtXeXwXyXsXsXsXsX",
"sXsXsXsXOXOXOXOX@X@XOXw q k G.J.J.G.G.h.F.G.F.F.G.D.k.0.Z g b.I.N.M.l k t.j.h.G.J.F.G.G.D.D.Y.N.7.7.a & 0 }.7X8X4X8X7X0XsXsXsXsX",
"sXsXsXsX}.OXOXOXOXOX[.w v k G.F.J.D.F.l.F.U.G.G.F.D.D.I.B.N.F.U.D.J.H.N.D.U.l.G.J.D.G.W.l.F.G.k.7.7.a & 0 {.8X7X7X7X7X7XsXsXsXsX",
"sXsXsXsXOXOXOXOXOXOX] w w j G.G.G.G.F.l.F.G.W.G.F.D.D.W.K.J.F.U.B.J.G.W.U.J.l.G.J.G.F.W.l.U.Y.k.7.7.a * 0 {.7X7X7X7X7X4XsXsXsXsX",
"sXsXsXsXOXOXOXOX@XOX' v y j Y.J.F.W.J.h.U.J.J.W.U.U.D.W.W.U.F.D.D.Q.J.J.Q.Q.L.Y.Q.J.F.G.l.W.Q.k.7.7.t * & ] 7X7X7X7X8X4XsXsXsXsX",
"sXsXsXsX7X:X:X=X&X$X^ $ = h Y.Y.F.K.Q.l.J.W.W.U.W.U.U.W.Q.Q.Q.I.B.Q.Q.Q.Q.Q.l.Q.W.W.W.G.h.U.Q.l.7.7.a % ; R 1X1X1X2X2X2XsXsXsXsX",
"sXsX8X8X9XeXeXeXtXyXwXm y i _.'.'./.'./.'.'.`.`.`.`.`.'.Y.!.!.U.H.Q.Q.Q.].`._.`.`.`.`.'./._._.e.g g e & q <X1X:X=X=X-X>X1X2XsXsX",
"sX7X7X7X7X7X7X7X7X7XqXK b = $ * v q = q q v b n n D D G ~ XX^.U.D.!.oX_.F G n n n b v y x = = *       & y .XOXOXOXOXOXOXOXOX+XsX",
"3X8X8X7X7X7X7X7X7X7X7XK b y * * v * x x x x y n y D D D G ).!.W.H.!._.F D N n n N v x x x = = &       0 q }.OXOXOXOX@XOXOXOXOXsX",
"9X8X7X7X7X7X7X7X7X7X4XJ u y * * $ = q q v - - v y D D D j P.W.!.I.!.T.S m G n y b x v y = = = #     . & 0 {.OXOXOXOXOXOXOXOXOX+X",
"wX7X7X7X7X7X7X7X7X7X,Xb q u l t.t.w.w.g e.w.w.w.w.l w.r.R.!.U.!.I.!.!.!./.r.l r.r.r.t.t.g t.t.s a a @ # O ( OXOXOXOXOXOXOXOXOX&X",
"aX7X2X7X:X=X7X7X4X7X=Xq & i R.!.!.~.~.l.!.~.~.~.~.U.!.!.~.~.U.R.I.^.!.~.!.^.B.~.~.~.!.~.l.!.!.B.s.9.p % & ' OX#X#XOX{.} &X#X+XpX",
":X#X#X&X9X=X] | @X#X,XL u u XX~.!.~.~.k.!.~.~.!.^.I.^.!.~.~.R.R.U.~.!.!.~.^.D.~.^.!.^.!.l.!.!.B.9.9.e q y ] ] ] | } &X,X&X#X&X:X",
"OXOXOXOX:X{.' ) ) ) } J u u P.R.R.T.R.j.R.XXR.T.R.P.P.E.T.R.P.P.E.R.R.R.R.R.j.R.R.Y.R.T.j.T.oXj.9.t.p 0 0 ( ( ) ) ' } OXOXOXOXOX",
"OXOXOXOX&X[.' ) ) ) ) B m K E Y P P Y Y Y Y Y ~ Q W W W W W ! W W W W W W W ! P P P Y Y P Y Y A u w q 0 v ( ' ) ' ) ' OXOXOXOXOX",
"OXOXOXOXOX) ' ) ) ) ` I [.%X%X%X%X%X%X.X;X%X.X<X4X4X4X4X7X7X7X7X4X7X4X7X7X7X4X;X.X%X%X%X$X%X%X%X%X.X[.` V [ ) ' ) ) ( {.OXOXOXOX",
"&X&X@X@XOX' } ' ' ( ) }.%X.X.X$X%X%X*X-X-X-X-X4X7X4X4X5X2X5X5X5X4X4X4X4X4X5X4X9X*X-X-X*X-X-X*X*X*X*X*X*X*X{.| {.OX} ' {.OXOX#X&X"
};
