/* XPM */
static char *a59c49970ce94f51aacdefc41abd2242[] = {
/* columns rows colors chars-per-pixel */
"80 80 71 1 ",
"  c #020202",
". c #090606",
"X c #070808",
"o c #0C0B0B",
"O c #130D0D",
"+ c #180F0F",
"@ c #0F1010",
"# c #151212",
"$ c #1B1414",
"% c #1D1919",
"& c #211616",
"* c #241A1A",
"= c #2B1D1D",
"- c #311F1F",
"; c #272020",
": c #2C2121",
"> c #342323",
", c #3A2626",
"< c #3D2929",
"1 c #432C2C",
"2 c #492F2F",
"3 c #463030",
"4 c #4D3232",
"5 c #4F3939",
"6 c #533535",
"7 c #553A3A",
"8 c #5D3C3C",
"9 c #613E3E",
"0 c #643F3F",
"q c #5E4040",
"w c #654141",
"e c #674242",
"r c #684343",
"t c #6A4444",
"y c #6D4646",
"u c #6E4949",
"i c #704747",
"p c #734949",
"a c #734A4A",
"s c #744A4A",
"d c #774C4C",
"f c #7A4E4E",
"g c #7B4F4F",
"h c #7C5050",
"j c #7E5151",
"k c #815353",
"l c #835454",
"z c #845454",
"x c #885757",
"c c #865858",
"v c #895858",
"b c #8F5B5B",
"n c #8F5C5C",
"m c #925E5E",
"M c #945F5F",
"N c #966060",
"B c #9A6363",
"V c #9C6464",
"C c #A06767",
"Z c #A36969",
"A c #A46969",
"S c #A96C6C",
"D c #AD6F6F",
"F c #AF7070",
"G c #B27272",
"H c #B47373",
"J c #B57474",
"K c #B97777",
"L c #BE7A7A",
"P c #C47E7E",
"I c #C78080",
/* pixels */
"                                                                                ",
",4,>>>>=========*.X->*&&&&&&&$ O>-=*******&&&&$.$1<>->>->-=============#O21,,,=.",
"zzt89888888888884O=hy888877884O1ky8888888888886*2fy89888888888888888888,>pr9996O",
"vkr99888888898896O=ky889988994O2hy9898888898886*2fr99888888898898888898<,sr9998O",
"bzr99988888888996O=xp988898996O2zy8889888889888=2ft98988898898889988899<<dy9998O",
"nkr89988888998996O>vp988888886O4zp9999989988888=4fy9889988988988998888811fr9998O",
"mzt99998988888896O>by998888896O4xy9899989898888=4hr9988899989988999888811fr9996O",
"Mkt88998998888886#>my998888886O4zy9889988889988=6kt9999899998888889988811kt88e8O",
"Bzt98889899998998#>Np988888998#4vy9888998888888=6zr8889998898888889989812zr9998O",
"Bvt98888989099898#>Np988888898#6by8888899999888=8vy9888998888988888889811zt9898+",
"Cbpe99988899899e7$,Zde99899896#7Bp9898888999898=8mpe999999999ee9999999812by99e8O",
"SCksspttrrteerrpe$,Dzpyreeeer8#6Akyttteeetteere>8Azfspsppppytyytrtrrryt24Vfyyp9+",
"hJSVBNnxlhkkhfpff$*AJZNbzkhfkh$<GJAVVVBMBNMzhfk<,ZDVZVBNmmmvxzbzklkhffh6=mBzffeO",
" oOOOOOOOO#######XX$====******oo&======*===****#X####################OOo oOOOOo ",
">>===========*=&o*1>===========>***===**#&<>======**##<>======$O=>===**&&*&&&&$.",
"vhr9888898888884#8fy88899988888888888886>6fr88989886<,fy8898881>py8898888888886$",
"nke9888888888984#9sy99888898988888898998>7pt989898981<se9889882<dt88888988889e9*",
"Mkr8888988888996#eft99888899999888898888>8sr88998898<1hr9888982<hy98888998889e9*",
"Bkt9998998888896#eft9989888999e888899898,8sr8898889811ht8888984<hye888889988898*",
"Vke8899888889996#tft98888898899988899998,eft9888889822kt98888941zt9889889888889=",
"Vke8889888889996#uft89888888888889999998,rfte988889923zy98998821zy9898898888899=",
"Azr8988888898886#ukr88888898888889999998,thr9988999924by98999841vy9998888988899=",
"Akr9989898888886#pky98888899898889988998<tkt9999889824bpe9989841bte888809988899=",
"Azy9989999988986$dxye99898899999989889e9<pxye988988824Nyr8899842Npe999889e98998=",
"JNhpyttytrytrrt8$fVlpytyyttyrrreree9eett<uCfyteeeert24Ahpyrerr42Akprreeeeee99te=",
"VLGACCVVVBMBvkzf$8JJSCVZVVBBBmmmzvzkhhlv47GGZNbzhhkz8<SJZBbhhze>SJDAVNmvzzzhfzl=",
"o$&$&&&&&&&**&*&o#*===::::::::::::::::::%#=:::::::::&#*:::==**&o*:>>:=======***.",
"o#OOOOOOOOOoX$$##$##$$$$$$$$#$:*&&&%&&&%%&$#$=*&%%%%$$#$$#######OoOOOoooooooo   ",
"ef866666666==ye6676666666666>4de88887886666<3y9876666><e866666666466644446444>  ",
"fkr99888898,>fy9889989989888,7pt9989888888847ye98989814sr9889988989988889988e2. ",
"hkt99898898,>fye999999988888,8pre889988889848pr99999814dr9888999999899988888e4. ",
"zzr89899899<,kye999999898888<qdr9889898889848fre9999824ht9989999898898898988e4. ",
"zxy888999891,zy9899899888888<efr988888998886efe99989814hr988899988988889898896. ",
"vvt98898888<,vy9899899888998<eht888899898884ehte9898826zy989989988888888898996. ",
"bvt98888998<,vy9899998888998<eky888888889984elr99898826zr988998988888889898896. ",
"mbr988889981<mpe8988988889981rzt888888898986rzy98889827zr988888989889888899806o ",
"mmy999989881<Nsr9988888899881txp889999888884tvy98899827bye88889988998898888896o ",
"NMse99999ee1<Adt9eeeeeeee998<uNdte9eeeeeee94uNpyeeer917Npte99999e99999ee9999e6o ",
"NPAmxkffdfh6>KDZNmmmbbbzhffh4eKGZVVMMmbxlfh9eGDBblffk74JZNbbnvzxzhfkkhhhfsssfeo ",
"=8866644444>O488e88888888777>*4877q777777543;58774345>&qpurttrete9889888866661  ",
"    . ....XXoXXXXo##########$$##$##%*%%%%%%%%$##########OOoooooXXXXXX.          ",
"8r6444442222421,#6y866444444446241%4p866444444><976444442244221$>9622222222111> ",
"zkr8889888888e84$esr888888989988e6*qft9888888817pe8888888889886=6dy888888889994o",
"zke8888988888996$tpe888989989988e6*est9999988827se8888888888998=6se888998899896o",
"bhe8998888889986$use88898999888896*rft888999e828fr9888888888888=7fr88889e999996o",
"bkr9988889988896&yfr88899988889996*rfr99888e9828fe9888898888998=8fr8988999999e6o",
"Mlr8888888888996$pfy89899989998886*uht999889882qfe9989989889998=8ht899988898898O",
"Nzt9888888898898&dft88988888999886*uky899888882eht9889888889998=8kt988988988898O",
"Bvy8888889998898&dfy99988898899887*uzt889988881ezt8899888888998=9zy999988988898O",
"Vxt8888989998886&hhy99898899889888*uzy999e98882ezt989e988989998=ezy9999e98888e8O",
"Zmieee9ee9999ee6&lvpee9999e99989e8*dmpre9ee9991tMye99eee999eee8=rbpe999ee9999e8O",
"SGBvzvbzkfdspsft&lGCMbbzhffffsspfp=pJVnzfdpsdf4rJBbzxvzlhhfspfp>eGmxkkkfffhspheO",
"6zkfffhddpuyeete$<phdpputttutreqr8%>phduureeee1>hvclllhhhhduryt=>vMbczlkhhkfpp8.",
"             XXXXXXXXooooooo@@@@@@#@oooo@@@@@@@@o@@@@@ooooooooXXXXXXX           ",
"o=*&&&$&&&$&&&&&&&$$#*=**&&**&&&&&&&&%&&&$%$$==**&&&&&&&&&$$$Oo&&#######OOOOOO. ",
"1vy88888888888866861:yr8888888866686666664622ee88666876676664*:sy8666666666446= ",
"4bp88898899889888884>ft9998899988898888888866ye88988898888898=>fye888888888889< ",
"4bye8899899889889994,fte898998988898889888867se98989888988998>>ft989888988899e1 ",
"6mp98888888999888896<hye898999988898998888868fe98888998898898>>hy989888898889e1 ",
"6mp88998899988989986<kte89888899e989889888868fe98888888899999>>ly988898888889e1 ",
"6By88888889989899984<zte988898899899889888868kr98998888888998><vy989898899888e1 ",
"6Bs88888889889889884,by9888898888898888888869zye8889998888898><nye8898888888901 ",
"6Cs98888898889988986<mpe888899988988998899869vy99889e88899898><mi988888889998e2 ",
"6Ase9888998889899984<Msr99998998899889998986emp99988998899998><Npe88999888988e2 ",
"8Sftreeeeeeeeeeeeee6<Zhsreeee9ee99e99e9e9e96tVfteee9eeee90ee9><Adr999eeee99eer2 ",
"2PJSZCVVNBNmbmvhhhzr>SGFCVBVMmmmmbbxlklhzkht8JHSVVBbvzkzzhfkl1>KJABNNNbmmvhfhz6 ",
".-,>>>>>>,,,,,,>>>>:o>24333222222221111<111>#<44223211<111<<1&o287766646644222= ",
"                    X                      XX                                   ",
"66<,,>,,,,>>,>>>>>>,>>=O*2,>>>>>-==>=====O,6<<,,,,,,,>>>>>>>>==21<,,,>>>>>>>---O",
"Nhe88888998898898899886&6fy88889888888886*epe888888898887888846yr98888888888888-",
"Bhe88888899888899899888&8pt98888888888886=eue888888998888888868ye98889899888898>",
"Vfe88888899888888999888*8dr98988888888986=ype899998899e99888868p988889999988999>",
"Vhe89998899988888998898&8sr98988898898898=ppe989e98999998899869pe99999999988999>",
"Afe99899899988888899898*9fr99888889988898=ssr889e99888898888869f998899899998999>",
"Afe98999999888988888888*eft89989988998988=fse88889988889988996efr8899e9889999ee,",
"Fke89889989889998888888*ekt88898988998898=hfr88899998888988986ylye889998898989r,",
"Gzr88888998998888998888*eky98888898999886=fdr88888888888888886yzte9888889889980<",
"Jvy899999e9999899999898*yvpe999e9999e9997=zky9ee99999999999886smy99998899889999<",
"PVkssdsiypppyyyyytrtty9*pChspyyytrreerty9=vVvfssspypyyyyyttyt6ySzdssdytrttreryy<",
"APKGGDDAAZZACVVBMNbbmMx=8IPLJHGAVNBNmmmNx=yPLGGDFSAAZVBMmbbbmp4KLHFDDZVNMNbvbNm1"
};
