/* XPM */
static char *result[] = {
/* columns rows colors chars-per-pixel */
"64 64 66 1 ",
"  c #050005",
". c #060005",
"X c #060105",
"o c #070105",
"O c #070205",
"+ c #060106",
"@ c #070106",
"# c #070107",
"$ c #070206",
"% c #070207",
"& c #070307",
"* c #080205",
"= c #080305",
"- c #0A0305",
"; c #080106",
": c #080107",
"> c #080206",
", c #090206",
"< c #080306",
"1 c #090306",
"2 c #080207",
"3 c #090207",
"4 c #080307",
"5 c #090307",
"6 c #0A0206",
"7 c #0A0307",
"8 c #090407",
"9 c #0A0407",
"0 c #070208",
"q c #080208",
"w c #090208",
"e c #080308",
"r c #090308",
"t c #090209",
"y c #090309",
"u c #0A0308",
"i c #0B0308",
"p c #0A0209",
"a c #0A0309",
"s c #0B0309",
"d c #0A030A",
"f c #0B030A",
"g c #0C030A",
"h c #0D030A",
"j c #0C030B",
"k c #0D030B",
"l c #090408",
"z c #0A0408",
"x c #0B0408",
"c c #0A0409",
"v c #0B0409",
"b c #0A0509",
"n c #0B0509",
"m c #0B040A",
"M c #0B050A",
"N c #0B040B",
"B c #0C0409",
"V c #0C0509",
"C c #0C040A",
"Z c #0D040A",
"A c #0C050A",
"S c #0D050A",
"D c #0C040B",
"F c #0C050B",
"G c #0C060A",
"H c #0D070B",
/* pixels */
"SBSxxVz5znuz535355552$5@>$>44>$X@>$$$$$$$Xo$2o$$#$$>$@$@$52>4>23",
"SSBiMccbvv9775r5555422>>$2442%$$$>>@$X$2$$o$>2$$$o$$4>4>>5555455",
"VCABMzz55czuuuu55554>>>$>%$42$$$$@$$@@$$$@>@XoX2$%2444$$$$44$l42",
"MVVnnnzzz5uzzzr5544q22>$24l44>4$$$$$$$$2$@X%+X$2$@$$$>2$$o>><4$4",
"cmMzvvuzr7cr5zrz54>>$22$22r4%%2$2+$@%2%$$X$>$@$>4$@$@2$X$$4$$>>l",
"nnMvrznzzcuuzu5z5544r22$$$$44>4+4$X$X$2%$XX$$@24$o@X@$0$$$$$$$4$",
"nvccczzzzr35555z554454rq222$@>>o%2$+o%$$X$+o$$@$$$+@$%X2$%e$4>4e",
"vvczzzzvzr95rz55r55554e%>4$$22X@%$$@$$$X$XX$$$$>@$$$$$2$$$$$42e2",
"BVivnz5zu3a7uw255r4r4$4$$%%$%$$%$o$@q$XXo$o$@X$$$%$$4%$%44%4224e",
"xnznnzrzvrzuz5r425442$422%%44>$%$$$$%2$%2Xo$@XX$4$$$X@q5r44%4%4$",
"VVnzczxxzzz55zu5>5r54442$2$4$42>2$$@>2+$$$X$$@@@2$$$@2>>4$242@>2",
"nAnzzxc555cr5755z24>2><$$$@$242@@2%$@@X$$X$$X@$$$%2$$>5$22r:4$>$",
"mmzvvvz5zzzrzr55v4>44442$54$@2%@22@2>$X$XX$4oX$$$$$$$2>$24$>5r2%",
"nvnznznuzu5zz5532r>2452$$$>>$>$>$o$@$$$$$$+$$o>$>$@$>222>4>2$%2@",
"nzzn5zzzzz5555235u5>>44$4>2>$$4$$$$$$$o$@$$@@@X$22$>o4$>>42$>42$",
"nz5vz5zzz555552r555554>$22$2%X%$4$$$$$@$$o@+@$oo@@$2>$$$2@@44r4>",
"nAnVvzzzz5r5rzl54$44224$4$$$$$$$$$$$$$$$$$@@$$@@$$@$@2$$22245254",
"MAvczzxzzzzrl555r244242$4>4$4$>$@$55$o@$$@@@$>$$$$>@%42%422235z5",
"zzxnnczvz5zzz55545>534$$4>44>>4$42$$X$X$$+o@X2@@>$%>2$$>4>>o>>r5",
"iGnzzzzvzzzzzuz554l4e4$$44$$o>>$$$$o$>$>$$@+$>>$+o%$>$>3>>5523z5",
"vHnvzzxzuz5u5rrrr54%44>$>4$22q2$oo$o>$>>>$%$$o+$$o2>$$5r>>>22r>,",
"cVcxzz55zz5zn55555rle44$$$$2$22$>>4>$$>o>o@X@X@r>$2$@$>45>23555>",
"vcznzxxzu5r5zz5zn5>444l%$>>>$>>$44$$$$>$o$$+o$$$@+$>$>$$4>r525rr",
"yznzvvzzzzuzz9>>z554442$44$$2$$>$$$$$$>4$$$$$$$@$$$@$>2$$$422425",
"Mzvuzzuzxxz5555z5$2>$$4444>$$$$$$$>>$$>o$<$>>$2>>$>4$$$$$$4>55z5",
"Gczuzznzz5uz5zzr44>54$>$4$4>$>$$4$$$$$$$XX$$o4>$X$@%$22>$>$454>5",
"MGz5zuvnzuzz5z5lzrrle>2>$>5$o$$>>>$$$$$$@$$@X$$$$>>>>4$>><8*><>1",
"mmnzzzzzzz55z55>r5444$>$4$%2>$44$$$$>$X$$$>o$$$$>$%>>224>>5>>><1",
"vnvucz5zznzz5>555>435$$44$$$o+$44$$$$$oo$oXo$X$$4$$o4$444244<<*9",
"mvnnzzzzz5zzzr55l5>$2$>244$$$X$$XXX$$X$>@$$$oo>$o>$4$>>4l<>>1*=-",
"mAGvzn5cn7zzz55rl54554>$4$$$$$>$$$$$$XX$$$>$>$$$$>>$$$$%$$45><5u",
"Fvznxxznzxu55z55zz54r>>$4$$@>>4$4o$X>@$XX+2@@o$>oX$@o>4$>$$44422",
"mAzzzcz5zznz555555>$$4$$2$$$$42$4$oXX2$@X$oX@>$$%44e$4%3$222>37u",
"Mvcczcczzz5z55525>55$>l>$$$$$2%$%$$>$$XX$@$$$>>4$$$%42%42>o51=16",
"fszzznz555r5zz551552445$$$$$$>$$$o$$$$$$$o$$X$$$o$+%4$%$4@@542l5",
"vMvruz55zzr55u52>l5$4$4$>$$2$$%$$$oo$$@$@$XXXXo$@@%4$%22%$4>$2l5",
"cmacclrz5z5555>53>>>5>$$$$X$@@$$$$$$$$X$$$$$$@$>@$@@$X$$$$44$$4%",
"Nmvnz7uz75r5752534$4>24>$$$2@$4$$o$$XXX$$$$$>O$$+$$$$4@$$$$$2244",
"dnMzuzrvz5>555555442>4>$>$$2$2>X4$o>$$X4$$<>$X$$2>$$>%4$$%$2l444",
"mvnzzzzxzz25>5>5y25>o>5>>4$>$$$$$$o>$$2$X$$@X+o$@XXo$$2o4r4$4$$$",
"vnznzuxzzzrz55z55>>55>>>>$$4$$X$4$%2$@$4$$Xo$$$$XX$4>$%$$$$4>>$2",
"fvzznzzzz555zzz525>25544>>$$24XX$$$$$$X$$oooX@@2$@$2>22>>>2524>2",
"dAnAG7z7753555752>55525>>o>2$oo$@@22@@ $$o$X$$o>$$$@X>2@2$$@>>23",
"MMnnvuz7z34r5555555552$>$$>$>$$@+$$>$$$$$+$o$$o>$$o2$>$$@$$>5333",
"Fvvvzzvzvzzzzzz55555222@$>$$$@$$>$@$$$o$$$@$o@@>$$+%$$2@$>$$4245",
"fMnnzccxz>5vzzuz5z5>>$$>>$$$$>$>$X$o$$o$$$%$XX$$$$$$$>4@$$@42>54",
"dcvczz5vzz5z5z5r5254>>>@$>>$X$$%4$$@@$$$$$o+$%$$$$>4$;$X$>455>4>",
"mvuuzzuu555zzu55555254>>2@$>$$$$$$@@$$@$$o$Xo2%oX@$$>@@$o@454>45",
"zzuvvvu55uruzr5rur5>42$4>44$$X$$$$X@$$X$$+%$$>2$X$2$4$o4o>2>2>2$",
"vnxvcnzuzu55z5u5553544$>22$@X$X@$X+$$$X$X@%%X@o$@@+4e$>$$2>o$$$$",
"uvvazc77z555u>55>24422$$$$$@@+4$4$$$$2+@$$$$Xo@$X$$$$$%$+$X$$%$%",
"rcvauv5rcu53r53>222>$$$@@@X$$%2%$$$$2$$$+@$+$$$$$$@$2$$$$$$44%44",
"Avvczn5z5zz5zz455432$>32+$2%22%@@$@X$$X$$X$>:2$>>$@$2$2@>>224>>2",
"cVVzzzuzuz55zr55>2$4$$4$$$$$4$$+$+o@>@@X$$$$o$%$$@o$$o$4X$$4$4%4",
"uVBxuu5zrzr55zr555554>>2&$$2$>4$@@$@$o$$$$$XXX$$X@o@@$+$+$$$24$4",
"Fnxuunzz55z5555>554rr$2$%$4$>22$42$X$@$@@XX$$$$>@@$$$%$$@$+$4$%2",
"Cxiizznvz5r555r2zr>552>4%%$$$@2X$$2@$$$$$X@@+@+@>>$$42$$$4%2$>0e",
"hSsua5uru55555z5552$%$%4$4O$$$$$$$$$@@X$o$$XXX$$%$$$%$$$$%222%$2",
"hZiavccar55z>555r22l224%%o42@$>>$X$$$%+%+X$$$$@@$$$@$X$$$4$$$$$4",
"gsuzznucczzrr3l5>2r4$4%$424$2$$@2$@+X+X%>@$X@.$$ @+X$$4$2+$$$>4q",
"mDvznz5znnr5zr55525>@$@$@$>4$X$$>$$$$X2$@+@+22oXX$o$$2%44$$>2%4e",
"jhpcczc5nrrzn555>5$4$$$42o$2>24$$$@@@@$XX$$@$$$oXX$$X$4%2$>$@>5r",
"mCvmacnu55zz555z555>$$$$$2$$>%$@o@$@X@+oX$%+$$4$$$$o2@2$$@224>>>",
"kftMrznvz555>>5lz>2$5$44$$$$X2$$$o@@$$@@$%$X$$$$>X@X$$$44$4>O4<*"
};
