/* XPM */
static char *result[] = {
/* columns rows colors chars-per-pixel */
"64 64 139 2 ",
"   c #3F4B47",
".  c #3E4C4D",
"X  c #3E504F",
"o  c #3F4D51",
"O  c #3F5152",
"+  c #414A47",
"@  c #414D4E",
"#  c #41504E",
"$  c #414E51",
"%  c #445355",
"&  c #495354",
"*  c #475857",
"=  c #455559",
"-  c #48575C",
";  c #47585D",
":  c #49585D",
">  c #525A59",
",  c #475A61",
"<  c #4D5E64",
"1  c #4F5F68",
"2  c #505E65",
"3  c #515E69",
"4  c #4E6066",
"5  c #4E636A",
"6  c #4F696F",
"7  c #506067",
"8  c #51656C",
"9  c #5A676A",
"0  c #50686E",
"q  c #5A6B6E",
"w  c #526670",
"e  c #566D74",
"r  c #5A6D74",
"t  c #566F79",
"y  c #596E79",
"u  c #577177",
"i  c #5B7174",
"p  c #567078",
"a  c #5C747B",
"s  c #5D7A7F",
"d  c #646361",
"f  c #696867",
"g  c #6C6D6D",
"h  c #6F716D",
"j  c #70716F",
"k  c #6D6E71",
"l  c #716F71",
"z  c #6E7274",
"x  c #62767C",
"c  c #6F7378",
"v  c #63787E",
"b  c #69797F",
"n  c #717272",
"m  c #737877",
"M  c #72767A",
"N  c #757B7C",
"B  c #797F7F",
"V  c #5C7681",
"C  c #5E7C84",
"Z  c #637D84",
"A  c #697C82",
"S  c #637E89",
"D  c #757A80",
"F  c #7C7F81",
"G  c #628086",
"H  c #66848D",
"J  c #69858D",
"K  c #67888E",
"L  c #6C898E",
"P  c #728186",
"I  c #7E8384",
"U  c #72828A",
"Y  c #7F8589",
"T  c #728A8F",
"R  c #668791",
"E  c #6E8790",
"W  c #678A93",
"Q  c #6D8D95",
"!  c #6E8F98",
"~  c #718792",
"^  c #718E95",
"/  c #718F98",
"(  c #798F9A",
")  c #6F9097",
"_  c #6F9099",
"`  c #719096",
"'  c #74929A",
"]  c #79959D",
"[  c #7696A1",
"{  c #7996A1",
"}  c #7698A4",
"|  c #7C9BA6",
" . c #7E9DAA",
".. c #7EA1AB",
"X. c #7FA2B0",
"o. c #808586",
"O. c #818688",
"+. c #819399",
"@. c #949495",
"#. c #979897",
"$. c #979798",
"%. c #969999",
"&. c #9B9B9C",
"*. c #A0A09F",
"=. c #819DA6",
"-. c #819EA9",
";. c #9E9EA0",
":. c #80A0A7",
">. c #83A1AC",
",. c #89A4AD",
"<. c #89A8AF",
"1. c #92A6AE",
"2. c #90A8AE",
"3. c #85A5B3",
"4. c #89A6B2",
"5. c #86A8B3",
"6. c #8AA9B4",
"7. c #86A9B9",
"8. c #8DAEBA",
"9. c #91A7B1",
"0. c #92A9B4",
"q. c #90AFB9",
"w. c #8EB0BA",
"e. c #92B1BB",
"r. c #9BB5BD",
"t. c #A3A4A2",
"y. c #AAAAA7",
"u. c #A7A7A9",
"i. c #A7A9AA",
"p. c #AAA9AA",
"a. c #ACB1AF",
"s. c #AEB3B3",
"d. c #B2B6B6",
"f. c #B3B8B7",
"g. c #B3B8B8",
"h. c #BBBBBB",
"j. c #96B5C2",
"k. c #9DB6C1",
"l. c #9EB8C1",
/* pixels */
"%.#.@.@.@.@.@.@.@.@.@.@.@.$.$.%.&.&.&.&.#.@.$.&.&.&.&.&.&.%.;.$.$.#.@.&.%.;.;.&.;.;.&.&.%.#.#.&.&.&.&.;.&.;.&.t.*.t.t.t.t.t.*.d ",
"&.o.m N I I I F D I I I I I I Y o.O.I I I I Y o.F I Y O.I F N N B I o.Y o.O.O.O.o.o.o.o.o.O.O.O.o.I I I O.o.O.Y Y Y F F M F h.f ",
"#.z q A 9.9.9.9.0.9.9.0.0.0.9.9.0.0.0.0.0.0.0.0.0.0.0.0./ A 6 w E { k.k.k.k.k.k.r.l.l.k.k.k.k.l.l.k.k.k.r.k.k.k.r.r.] P - & d.f ",
"#.c A ^ 6.q.6.4.3.,.,.,.,.,.-.3.-.4.,.,.4.-.4.,.-.,.6.6.! G 5 5 /  .j.j.j.k.q.0.w.e.e.e.q.q.e.q.q.q.e.q.e.e.q.e.j.r.+.U $ & d.k ",
"*.M 9.6.-. ...) J R J J J J J R J Q H J J K K H J J [  .Q S o = =.3.3.3.5. ./ / ` ` _ ` ` ` ` ` ` ` ` ` ` ` ` ` >.4.( P & * d.l ",
"t.D 2.6.{ [ ] Q H H H H H J H J H H H H H H J H H H _ [ H a $ %  .3.>.>.-.} ! ^ Q ) _ _ _ ) Q Q ! ! Q ) _ _ ) _ | >.~ A $ & d.g ",
"t.N 2.4.H H H G C G J H H H H H H J H J H J J H H H H R 6 , . = | -.` / _ Q _ ) ` ) ) ) Q Q Q Q Q H W Q ) Q ` ) _ ! e 2 @ * d.g ",
"t.N 9.,.J H J G G H H G S H H J H G H H H K H R H R H H 5 - @ %  .-./ / ! _ ) ) Q ) ) ` W Q W Q Q Q Q ) ) ) ) Q ) Q e < @ & d.f ",
"t.M 9.,.J H H H R J H Z C G R H H C S R J H K J H H K J 5 - @ % X. .! ! ) _ ) ` _ ` ) ) Q _ ` ) ) ) ) ) ` ) _ ` ) Q e 2 o & d.g ",
"t.M 9.,.J H H H H H H H G H H H R G G H H J H H H H H H 5 - @ =  .>.! ! ) ) ) Q Q W ) ) ) ) ) _ ) ` Q ) _ ) _ Q ) Q e 2 o % d.g ",
"t.M 9.4.J H H H K H H H H J H H J H H H H H H H H H J J 8 ; @ =  .>._ ) ^ ` ^ Q H Q ` Q ) ) ) ` ` ^ ) ) _ Q / / ) ) e 2 $ % d.g ",
"t.M 9.| w 5 0 a H J H H J R J R H J R H H J H J a 0 w 0 , - . =  .{ t e y Z ` W Q ) ) _ Q ) ) ) _ _ ) ) ) ` Z e e e 5 2 o & d.g ",
"t.M 9.=., , , a J J J J J J H J J J Q J J H J L y - , , : : X = :.| 5 8 1 Z ' ` ` ) ` ` ` ` ` ` ` _ ` _ ` ' v 5 3 1 < 2 o & d.g ",
"u.M ^ A , , , 7 8 6 6 0 6 6 6 w 0 0 6 5 6 6 6 0 < ; , , : - . % i r 5 7 3 8 e e e u e y y y e i e u u t y y 8 7 3 3 2 2 o & d.g ",
"u.M A a , ; ; ; ; ; - - - - - - - - - - - - , - - - , < - * . @ 2 2 2 2 < 2 2 2 < 4 2 < 2 2 < 2 4 4 < 2 < < < 1 1 1 2 2 @ - d.g ",
"u.k - = o . . . . . . @ @ . . . @ @ @ @ @ . @ . @ . . . . @ @ . @ @ @ $ $ @ $ $ . # @ @ @ @ @ @ @ @ @ @ @ o $ $ $ . @ @ . & d.f ",
"u.k - ; * % * * = % ; % * # % + @ @ O = = % = = = % % * % - % % = = = = = % = = = = ; $ $     $ % % * % - % = - = - % - . & d.k ",
"u.M ~ ] ,.,.<.,.,.4.<.>.,.L v @ % i G -... ... . .| -.| |  . . . . ...>.| =.-.>. .-.=.y , . O x L ,.,.,.,.4.,.,.4.,.1.=.$ & d.g ",
"i.M =.>.5.6.5.5.6.5.4.q.e.' H @ . G _ 3.7.3.>.....3. .3.3.>.>.>.3.>...X.......X. .X.7.C e @ % L [ 8.8.8.6.5.6.5.5.4.6.=.% & d.g ",
"i.D r.k.] ] ] ] ] ] ] ,.q.=.^ % * | 7.3.5.3.| _ _ _ _ _ ) ) ) ) ! ! ) ' ) _ _ _ _ X.3.( D & # ,.8.q.e.q.,.] ] ] ] ] { ^ = & d.g ",
"i.N l.r.] ] ] ] ] ] ] >.4.{ T % * | 3...-...} ! _ _ _ _ _ ` _ ) Q Q Q Q _ _ _ Q _ | >.E A $ * >.8.5.5.6.:.] ] ] ] ] ] ^ % & d.g ",
"i.N l.j.] { { ] ] ] ] ] { Q Z $ % -.X.' ' ' ' _ ! _ _ ! ) Q ) Q W Q ) Q ! _ _ _ ) _ / e < @ - ,.6.{ [ ] ] ] ] { ] ] ] ^ O * d.g ",
"i.N l.r.] ] ' ] ] ] ] ] { E Z # = ...._ ` Q ! _ Q W ! _ _ _ ` ) Q Q _ Q W Q Q Q ) ) ! e < @ % ,.4.] ] ] ] ] ] ` ] ] ] ^ % & d.g ",
"i.N r.r.] ' Q ' { ] ] ] ] Q G % * -...) _ _ _ ! Q R Q ` ` Q Q _ ) ` Q Q R H K W ) ) ^ e < + - ,.4.] ] ] ] { ` Q / ] ] ^ % & d.g ",
"i.N r.r.] ' ' ' ] ] { ] ] W G # % >. .) ) ) ) _ Q Q Q Q _ ) ) ) ) ) ) Q W Q Q Q ) ) Q e 4 @ - >.<.] ] ] ] ] ] / ] ] ( ^ % & d.f ",
"i.N l.j.{ ] ] ] ] { ] ] ] W G # % -...` ^ ` ^ _ ) ) _ _ ` ) ) ) ) ) ) _ ` _ ` ^ ` ` ^ e 4 @ % ,.<.] ( ] ] ] ] ] ] ] ] ^ % & d.g ",
"p.N l.r.] ] ] ] ] ^ Q K E K G $ = -.} p y u G ^ _ ) ) Q Q ) Q ^ _ ) ) ) ) ) _ S y u y 8 < @ - ,.:.b b Z E ] ] ' ] ] ] ^ % & d.g ",
"i.b l.r.] ] ] ' ] Q H H H H Z $ = -.} 5 7 , Z ^ / / / Q ^ / / / ^ Q ^ Q ) ` ` V , 5 4 5 < @ * >.=.i r y A ] ] ( ] { ] ^ % & d.g ",
"y.m =.=.J E Q Q E K H H H H Z . . y y 3 3 3 8 y e y y e y e e e e e e e e e y w 5 7 7 8 < @ % v A r r g a v Z Z Z v x x X & f.g ",
"i.m ^ E G Z Z G Z G Z Z Z G Z @ . < 2 2 < < < < < < < 2 < 2 2 < 3 2 1 < < 3 < < < 4 4 < < @ @ 8 r r q e q q q q q q q 9 @ & d.g ",
"y.k - ; % $ $ o % % % $ % $ $ @ + @ $ @ @ @ $ $ $ $ $ $ $ @ @ @ $ @ $ $ $ $ $ $ O . . o @ + . o o o o $ $ $ $ $ @ @ @ .   & d.g ",
"y.n - - = - = - % % % * * % - = = = % - - % - % = % % = $ @ + + $ $ % = $ % % = O = % % % - % % = % % = % = % % % * % o   % d.g ",
"p.M J Q -.-. . . .-.-. .=. .-.-.=...|  .=.| >.| =. . . .G u $ $ w V / [ [ ( [ [ [ [ [ { ] [ [ ' [ ] [ [ [ { ' } [ ( V w O & d.f ",
"p.M ]  .7.3.3.3.-.>.-.....>...-...>.>.>.>.>....... .,.3.Q V $ % s H  .|  .} [ [ { [ [ [ [ [ [ [ [ [ [ [ [ { { [ } | G u O * d.g ",
"p.N r.r.6.3.5. ./ ! _ ! ! _ _ _ ) _ ! _ _ _ _ _ ! !  .7.[ J $ % '  . .|  ./ H H R H H H R H R R H R H R R H R R {  .E Z % & d.g ",
"p.F r.j.>.>.>.[ ! ! ! Q ! _ ! _ _ _ _ _ ! Q _ Q ! /  .3.Q Z $ = [ } } } } Q H R J H K J H H H H R H R H R H H H / [ H i . & d.g ",
"p.B r.q.' _ ! _ Q W H Q ) ) ) ) ) ) ` _ Q H H H Q ` ! / t 5 @ % [ [ R R R H H H J H H H H G G H H H H H R J R H J H 0 , . & f.g ",
"p.N r.q.` ` _ Q ) Q Q Q ) ) ) ) ) ) ) ) Q Q W Q W Q Q / y < @ % [ [ R H J H H H H H J H H G G H H J H J H S G H H J 9 : . & f.g ",
"p.N r.q.` ) ) _ ) _ _ ) ) ` _ ) ` _ ) Q ) _ _ ` _ ` ) ^ y 2 @ = ' [ R H H J H J H H H H H H H H H H H R S C G H H J 7 - @ & f.g ",
"p.N r.q.` Q ) ) Q ) ` ) ` Q W ) ) ) _ ` _ ` Q ) ) Q Q / y < @ % [ [ H R H H H H H H G H H H H H H Z G H H Z H H H A 0 - + * s.g ",
"p.B r.q.' ^ ' ` ! _ _ _ ! W H _ _ _ ) ! _ _ ! ) _ ` / ^ y < . * ' [ R R J J J K H G C H H J H H H C G H H H H J J J 8 - @ & f.g ",
"p.m r.<.i y e G ) Q ) ) ) W ) ) _ _ ) ) Q W Q _ Z e y y 8 2 X % [ _ w 0 0 a J H H H C R H H H K H G H H H J a 0 8 8 < : . & f.g ",
"t.m r.,.5 7 4 v Q ^ ! Q ) Q ^ Q Q ` ^ ) Q K Q E v < 7 5 4 7 . % ( ^ , < - y J H J H R H H H H H H H H H H J y - - - : : . & f.g ",
"t.M ] ^ 5 3 7 0 e e e e e e e e e e e e e e w e 0 3 3 4 4 < . X w 8 , , , 4 7 6 7 5 5 6 5 8 5 5 5 5 5 5 5 8 < , , < : - . & d.g ",
"t.n J Z 1 < 1 < < 1 1 1 < < < 4 7 2 7 < < 4 < < , 7 7 7 4 , . . - - ; ; ; ; - - - - ; - - ; - - ; ; ; ; ; ; ; - - - - - @ & f.g ",
"*.g * * $ @ @ $ @ $ .   @ @ @ . @ @ @ $ . @ + @ @ @ # @ % . . . @ @ @ . @ . . . o $ $ . $ + @ @ o . o o . . . @ @ @ @ @ . & d.g ",
";.k : * % % * % * % = % * . # .   X $ % % % * * * % * % % % % = - * * % - = % % * % = O O   + X O % % % * % % * * % % % . & d.g ",
";.k J ^ =.-. . .|  . .-.-.G i . % v R ,.4.3.,.,.4.,.,.,.<.,.,.,.,.>.,.,.,.,.,.3.,.,.,.K a % $ u H =.-. .-.=.=.=.=.=.=.] % & f.g ",
"&.M ]  . ...>.....-...,.5.W C X O L } 8.8.w.6.5.5.3.6.5.5.3.5.5.5.5.5.5.3.5.5.5.5.6.8./ S $ $ S ! 3.7.7.3....... .....] % & f.h ",
"&.M r.q.` _ _ _ ) ` ! >.7.} E O * ,.8.q.q.8.>.} [ { [ { ] [ ] ] ] ] ' ] ] [ ] ] ] 5.q.| ( = % =.7.5.3.3.| Q ` ` Q ^ ` L % % f.h ",
"#.M r.q.` Q Q ! Q ) ) | ..Q Z o - ,.8.5.4.3.=.' ' ] ] ] ] ] ] ' ] ] ] ] ] ] ] ] ] ,.4.( S & % -.........] ) ) ) ` Q Q J % & g.g ",
"&.M r.q._ ! ! Q H W ^ ` ` e < . * ,.3.] ] [ / E Q E ' { [ ] ] ] ] ] ] ] ] ` L ` ] ] / Z r $ = -...) ) Q ) ) ) ) ) ) K G O * f.k ",
"&.M r.q.^ ^ Q W W Q ` Q ` y 2 @ % ,.,.] ] ] ' ' / ` ] ] ] ] ] ] ' ' ] ] ] ] ` ] ] ] ] v q $ = -...` ) ) Q Q Q ` ) ) Q H O & f.h ",
"&.M r.e._ Q R W ` Q ) ` ` y 2 . & ,.4.] ] ] ] ] { ] ] ] { ] ] ] Q ` ] ] ] ] ] ] ] ' ] v 9 @ % -...` ) ` W H W ` Q ` Q L % & g.k ",
"*.M r.q.` Q Q Q _ ` Q ` ^ r < . % ,.4.] ] ] ] ] ] ] ' ' ] ] ] ] ' ' ] ] ] ] ] ] ] ] ( v q @ = -...! Q Q Q Q W ) ) ) Q L % & g.h ",
"*.M r.e.' ! ! ! ) ` ^ ^ ^ y < @ * ,.4.] ] ] ] ] ] ] ^ E ' ] ] ] ] ] ] ] ] ] ] ] ] ( ( v q $ = -...` ^ ` ) _ ) ) ` Q / J % * g.k ",
"*.m r.w./ ! ` Q Q G e y y 0 2 $ & ,.-.x x Z L ] ] ] ' ' ] ] ] ] ] ] ] ] ] ' ] L v v Z x 9 @ % -.[ t e e Z / Q ! _ _ ^ L % & f.g ",
"*.m r.q.^ ^ ^ ^ ^ v < 5 4 7 3 @ - -.=.x r r A ] ` ] ] ] ] ] ] ( ( ] ] ( ] ] ] P r x r r r @ % =.' 6 7 4 V ^ Q Q _ Q ^ L % % g.g ",
"*.m ] ) y e e e e 9 4 7 3 2 2 o $ b Z f f i a v m v v v x x v v v v v v v v v x r q r r q @ $ y y 7 7 7 8 y r e e e y r . & g.g ",
"*.z P Z 4 < < < < 2 < < 2 < < . @ 9 e q q q q q q q q q q q q q q q q q q q 9 9 q q q q 9 @ @ < < 2 < < < < < 2 < < < : . & d.n ",
"*.j * % $ $ o $ @ @ $ @ $ $ $ .   $ $ @ # # # # X # # # # % @ @ # @ % @ X # # # @ @ $ @ $ + . $ $ . $ $ @ $ o $ $ $ @ @ . & d.l ",
"y.m # & & & % & $ & % % $ & & $ & # % % & % & % # & & & % & % & % & % % & # % & & @ & & & $ & & % & & % & & & $ & & & & $ > d.l ",
"y.h.h.f.d.a.s.s.d.s.d.s.s.d.s.s.s.s.d.s.s.s.s.s.s.s.a.f.s.s.s.s.s.s.s.s.s.s.d.a.d.d.s.s.s.s.s.s.s.s.s.s.s.a.s.s.s.s.d.a.a.p.h.l ",
"j m m n m n n n n n n n n n n l n g l n j n n z h z h h g n n n j j j j n j n j l l l l l l l l l l l l l l l l l l n j j h h d "
};
