/* XPM */
static char *_0[] = {
/* columns rows colors chars-per-pixel */
"41 53 194 2 ",
"   c #000000",
".  c #0C0101",
"X  c #0D0A0A",
"o  c #150001",
"O  c #1C0001",
"+  c #190609",
"@  c #161213",
"#  c #250104",
"$  c #2A0004",
"%  c #220408",
"&  c #2A040A",
"*  c #330004",
"=  c #3A0005",
"-  c #35030A",
";  c #3B020A",
":  c #221D1D",
">  c #2F1515",
",  c #3C1716",
"<  c #292526",
"1  c #342A28",
"2  c #373131",
"3  c #450103",
"4  c #4B0004",
"5  c #540002",
"6  c #5B0002",
"7  c #58050C",
"8  c #490A12",
"9  c #471C1D",
"0  c #5B131B",
"q  c #531D1C",
"w  c #581619",
"e  c #630002",
"r  c #6C0002",
"t  c #64050A",
"y  c #6A0009",
"u  c #62090A",
"i  c #6E0B0C",
"p  c #730102",
"a  c #7A0105",
"s  c #75020A",
"d  c #7C010B",
"f  c #760D0E",
"g  c #790A0E",
"h  c #610612",
"j  c #6E0917",
"k  c #770710",
"l  c #7C0311",
"z  c #760A12",
"x  c #7A0A12",
"c  c #7C0D1E",
"v  c #631113",
"b  c #6B1718",
"n  c #751213",
"m  c #7A1113",
"M  c #76121A",
"N  c #7B141B",
"B  c #70191B",
"V  c #7F0E22",
"C  c #6B1422",
"Z  c #7D1225",
"A  c #771F20",
"S  c #791C22",
"D  c #4F2F34",
"F  c #573F3F",
"G  c #732224",
"H  c #792628",
"J  c #653738",
"K  c #633532",
"L  c #7E3B3C",
"P  c #59463E",
"I  c #4B4342",
"U  c #524543",
"Y  c #525B4D",
"T  c #5D5553",
"R  c #5E5D54",
"E  c #664744",
"W  c #714640",
"Q  c #744E56",
"!  c #6C5D54",
"~  c #645F56",
"^  c #7B5754",
"/  c #606054",
"(  c #766158",
")  c #79615A",
"_  c #6F6766",
"`  c #7B6F6A",
"'  c #840005",
"]  c #83010C",
"[  c #89020D",
"{  c #820C0E",
"}  c #850213",
"|  c #8A0515",
" . c #830C15",
".. c #8A0917",
"X. c #860519",
"o. c #8C071B",
"O. c #850A1C",
"+. c #8A0A19",
"@. c #8D091E",
"#. c #8A0C1C",
"$. c #90041A",
"%. c #8B121B",
"&. c #800F22",
"*. c #820E22",
"=. c #850F23",
"-. c #880A21",
";. c #8C252E",
":. c #852628",
">. c #952933",
",. c #863236",
"<. c #8D3D3F",
"1. c #833C3D",
"2. c #91343B",
"3. c #903941",
"4. c #9B3A44",
"5. c #9C3F4A",
"6. c #8B4244",
"7. c #8E4C4D",
"8. c #904147",
"9. c #974F52",
"0. c #9C4A52",
"q. c #8C5558",
"w. c #9E545A",
"e. c #935B5D",
"r. c #9C595D",
"t. c #975456",
"y. c #A05759",
"u. c #A2595D",
"i. c #9D5B62",
"p. c #A15A60",
"a. c #A45660",
"s. c #956466",
"d. c #986568",
"f. c #9A696B",
"g. c #A5686D",
"h. c #A06E71",
"j. c #AF7C7F",
"k. c #A17578",
"l. c #A27D80",
"z. c #8F8B89",
"x. c #938E8A",
"c. c #9D8E85",
"v. c #9E9693",
"b. c #A98A8E",
"n. c #B1848B",
"m. c #B2888E",
"M. c #AC8F92",
"N. c #B58D93",
"B. c #B8999F",
"V. c #BC969D",
"C. c #B99FA3",
"Z. c #ABA2A0",
"A. c #B7A1A5",
"S. c #BCA2A6",
"D. c #BDAFA8",
"F. c #BDA3A9",
"G. c #AEB0A9",
"H. c #B5B1A9",
"J. c #BFADB2",
"K. c #BFB1B6",
"L. c #B4BBB1",
"P. c #C2AFB5",
"I. c #C2B0B5",
"U. c #C3B5BA",
"Y. c #C6B9BE",
"T. c #C9BCB4",
"R. c #CCC1BC",
"E. c #C7BDC2",
"W. c #C9BEC4",
"Q. c #C9C1C6",
"!. c #CBC5CA",
"~. c #CDCACE",
"^. c #D2CFCF",
"/. c #CECBD0",
"(. c #CFCED3",
"). c #CECCD1",
"_. c #CFCFD4",
"`. c #CFCDD2",
"'. c #D0CFD4",
"]. c #D0D1D6",
"[. c #D1D2D6",
"{. c #DED8D7",
"}. c #D2D4D9",
"|. c #D3D9DD",
" X c #D4DADF",
".X c #DED3D5",
"XX c #E0DCD7",
"oX c #D5DCE1",
"OX c #D7E2E8",
"+X c #EAEEEA",
"@X c #E8E3E0",
"#X c #F0EBE8",
"$X c #F2F6EE",
"%X c #FFFFFB",
/* pixels */
"    + w C Z *.*.*.*.*.*.*.*.*.*.*.V V *.*.*.*.*.*.*.*.*.*.*.*.*.=.*.*.Z C &       ",
"  o 0 O.-.@.@.@.@.@.@.o.o.o.o.o.o.o.o.o.o.o.o.o.o.o.o.o.o.o.o.o.o.o.@.O.=.j o     ",
"  % c @.@.@.@.+.+.+.+.+.+.+.+.+.+.+.+.+.+.+.+.+.+.+.+.+.+.+.+.+.+.+.@.X.O.O.&     ",
"  % c @.X.@.+.+.+.+.+...+.+.....................................+.+.+.+.X.#.-     ",
"  # X.$.X.X...............| | | | | | | | | | | | | | | | | | | +.+.+.X.X.@.-     ",
"  $ X.$.X.| | | | | | | | | | | | | X.X.X.| | | | | | | | | | | | | | X.X.X.-     ",
"  # } | X.....| | | | | ........| ] ] ] ] [ [ | | | | | | | | | X.| | | X.@.-     ",
"  # } | | | | | | } } | | } ' ] #.>.4.5.4.>.%.[ ' [ | } X.X.| | | | | } } } *     ",
"  # l | | | } } } } ] } ] ] 5.N.Y.~.(.[.(./.W.V.a.#.' } [ } | | | | } } } } *     ",
"  $ } } | | | } } ] ] a %.N.}.|.[._.(.(.(._.[.|.|.I.4.' } ] | X.| | } } } } *     ",
"  $ } } [ [ | } ] ] a  .S.oX(./.(.(.(.(.(.(.(.(./.}.[.0.a } ] } } } } } } } =     ",
"  $ } ] ] ] ] d d d a n.oX~.(.(.(.(.[. X}.(.(.(.(.(.[.~.;.a } ] } } } } } } =     ",
"  $ l ] ] ] ] d d a 2.[.(.(.(.(.(.[.W.m.F.}.(.(.(.(./. XN.a d d d } } } } } =     ",
"  # d ] ] ] ] d d a m. X/.(.(.(.(._.3.p g B.|.(.(.(.(.'.(.;.a d d ] } ] ] } =     ",
"  # d ] ] ] ] d a  .W.[.(.(.(.(.}.Y.z k p i.oX/.(.(.(./.oXi.p g d d d ] ] } =     ",
"  # d ] ] ] ] d a 2.'.(.(.(.(.(.}.P.x k p i. X/.(.(.(./.oXn.p d d d d d ] } =     ",
"  # s ] ] ] ] g p 0.}.(.(.(.(.(.}.I.z k p i. X/.(.(.(.(.}.C.d a d d d d d } =     ",
"  # s d d d d d p r. X/.(.(.(.(.}.I.x g p i. X/.(.(.(.(.}.J.g a a d d d d ] =     ",
"  $ s d d d d d p p. X/.(.(.(.(.}.I.x g p i. X~.(.(.(.(.}.I.g a a d d d d d =     ",
"  $ d d d d d d p i. X/.(.(.(.(.}.I.x g p i. X~.(.(.(.(.}.I.g a a d d d d d =     ",
"  $ s d d d d d p i. X/.(.(.(.(.}.I.x g p i. X~.(.(.(.(.}.I.g p a a d d d d ;     ",
"  % y d s s d d p r. X/.(.(.(.(.}.I.{ ] a p. X~.(.(.(.(.}.I.g p a a d s s l ;     ",
"  + 8 h t s d d p r. X/.(.(.(.(.}.P.] ] a u. X~.(.(.(.(.}.I.g p a a d y 7 7 &     ",
": U F E w e d d p w. X(.(.(.(.(.[.W.{ a p g.oX~.(.(.(.(.}.I.g p a d s 6 K E U 2 X ",
"T R.G.H.J 6 s s r 8.}.(.(.(.(.(.(.}.g.s :.I.}.(.(.(.(.(.}.I.s p p d s 7 c.L.L.Z.: ",
"` %X+X#X^ h N M z ,.(._.(.(.(.(.(.'.[.E.~.}.(.(.(.(.(.(.}.I.N x N N M q T.$X+X{.< ",
"_ @X^..XQ 0 H G G G K.}.(.(.(.(.(.(.(.[.'.(.(.(.(.(.(.(.}.U.H S A H G q D.XX[.Q.< ",
"I v.z.x.D 3 t t t 6 f.oX~.(.(.(.(.(.(.(.(.}.(.(.(.(.(.(.}.K.t e t e t 3 ` x.x.z.: ",
"1 ~ Y / 9 6 p p p p m E.}.~.(.(.(.(.(.(.(.P._.(.(.(.(.(.}.I.s p p p r 3 P R R T @ ",
"1 ( ! ^ w e p p p p r <._.|.(.(.(.(._.OXj.w.oX(.(.(.(.(.}.I.s p p p r 5 W ) ! U X ",
"X , w v u r p p p p p r ,.S.(.}. X}.~.j.a y.oX/.(.(.(.(.}.I.s r p r r 6 v 0 > X   ",
"  $ t e e r p p p p p p r p ;.9.r.9.:.p p r.oX/.(.(.(.(.}.I.s r r r r r r r $     ",
"  # t r r r r r r r r r p p p r r r p a p r. X/.(.(.(.(.}.I.s r r r r r r r *     ",
"  O e r r r r r r r f f f f f m m m s s r r. X~.(.(.(.(.}.J.p r r r r r r r *     ",
"  O r p r r r r r n Y.!.Q.Q.Q.Q.Q.!.<.p r r. X~.(.(.(.(.}.S.r r r r r r r r *     ",
"  O e r r r r r r n ~.}.[.[.[.[.[.}.6.r r r. X~.(.(.(.(. XN.r r r r r r r r *     ",
"  O e r e r r r r i E.[.(.(.(.(.(.}.6.r r e.oX/.(.(.(./.oXh.e r r r r r r r *     ",
"  O e r e e r r r r C.|.(.(.(.(./. Xt.e e h.oX/.(.(.(.(.}.6.e r r r r r r r *     ",
"  O 6 r e e r r r e f.oX/.(.(.(.(.}.J.1.7.E.[.(.(.(.(.}.Y.i e r r r r r r r *     ",
"  O 6 e e e r r e e B Q.[.(.(.(.(.(.}.[.}.[.(.(.(.(.~.oXd.6 e e e e e e e e $     ",
"  o 6 e e e e e e t 6 q. X(.(.(.(.(.(.(.(.(.(.(.(.~.oXA.t e e e e e e e e t $     ",
"  o 5 e 6 e e t 6 6 6 6 s.}.|.(././.(.(.(././.(.}.oXA.b 6 t e e e e e e e t $     ",
"  o 5 e 6 6 6 6 6 6 6 6 6 1.A.(. XoX X X XoXoX[.U.s.u 6 e 6 6 6 6 e e e e 6 #     ",
"  o 5 6 6 6 6 6 6 6 6 6 e 6 6 H e.k.b.M.b.l.s.L u 5 6 6 6 6 6 6 6 6 6 6 6 6 O     ",
"  O 5 6 6 6 6 6 6 6 6 6 6 6 6 6 5 5 6 6 6 5 5 5 6 6 6 6 6 6 6 6 6 6 6 6 6 5 o     ",
"  O 5 6 5 5 5 6 6 6 6 6 6 6 6 6 6 6 6 6 6 6 6 6 6 6 6 6 6 6 6 6 6 5 5 5 6 4 .     ",
"  O 4 5 5 5 5 5 5 5 5 5 5 5 5 5 5 5 5 5 5 5 5 5 5 5 5 5 5 5 5 5 5 5 5 5 5 4 .     ",
"  O 4 5 5 5 5 5 5 5 5 5 5 5 5 5 5 5 5 5 5 5 5 5 5 5 5 5 5 5 5 5 5 5 5 5 5 3 .     ",
"  o 3 4 4 4 4 4 4 5 5 5 5 5 5 4 5 5 5 5 4 5 5 5 5 5 5 5 5 5 5 4 5 4 4 4 4 = .     ",
"  . = 4 4 4 4 4 4 4 4 4 4 4 4 4 4 4 4 4 4 4 4 4 4 4 4 4 4 4 4 4 4 4 4 4 4 * .     ",
"    $ 4 4 4 4 4 4 4 4 4 4 4 4 4 4 4 4 4 4 4 4 4 4 4 4 4 4 4 4 4 4 4 4 4 4 $ .     ",
"    o = 4 4 4 4 4 4 4 4 4 4 4 4 4 4 4 4 4 4 4 4 4 4 4 4 4 4 4 4 4 3 3 3 = o       ",
"      . O O O O O O O O O O O O O O O O O O O O O O O O O O # O O O o o .         "
};
