/* XPM */
static char *_[] = {
/* columns rows colors chars-per-pixel */
"41 53 199 2 ",
"   c #000000",
".  c #0C0101",
"X  c #0D0A0A",
"o  c #150001",
"O  c #1C0001",
"+  c #190609",
"@  c #161213",
"#  c #250104",
"$  c #2A0004",
"%  c #220408",
"&  c #2A040A",
"*  c #330004",
"=  c #3A0005",
"-  c #35030A",
";  c #3B020A",
":  c #221D1D",
">  c #2F1515",
",  c #3C1716",
"<  c #292526",
"1  c #342A28",
"2  c #373131",
"3  c #450103",
"4  c #4B0004",
"5  c #540002",
"6  c #5B0002",
"7  c #5C0409",
"8  c #58090E",
"9  c #490A12",
"0  c #471C1D",
"q  c #5B131B",
"w  c #531D1C",
"e  c #581619",
"r  c #630002",
"t  c #6B0002",
"y  c #620309",
"u  c #6B0109",
"i  c #610809",
"p  c #690A0B",
"a  c #740103",
"s  c #7A0005",
"d  c #76020B",
"f  c #7C010B",
"g  c #7A0C0D",
"h  c #750D0E",
"j  c #610612",
"k  c #6E0917",
"l  c #7D0211",
"z  c #7C0E16",
"x  c #7C0E1A",
"c  c #750A12",
"v  c #641112",
"b  c #6C1819",
"n  c #681719",
"m  c #7A1116",
"M  c #761219",
"N  c #7B121A",
"B  c #78181F",
"V  c #76191A",
"C  c #7F0E22",
"Z  c #691F20",
"A  c #6B1422",
"S  c #7D1225",
"D  c #4F2F34",
"F  c #573F3F",
"G  c #732224",
"H  c #7B2223",
"J  c #752529",
"K  c #742A2B",
"L  c #643635",
"P  c #59463E",
"I  c #4B4342",
"U  c #524543",
"Y  c #525B4D",
"T  c #5D5553",
"R  c #5E5D54",
"E  c #664744",
"W  c #714640",
"Q  c #744E56",
"!  c #6C5D54",
"~  c #645F56",
"^  c #7B5754",
"/  c #606054",
"(  c #786159",
")  c #6F6766",
"_  c #7B6F6A",
"`  c #830004",
"'  c #83010C",
"]  c #89020D",
"[  c #830C0C",
"{  c #850213",
"}  c #8A0615",
"|  c #830B12",
" . c #8A0917",
".. c #860519",
"X. c #8C071B",
"o. c #850A1C",
"O. c #8A0A1A",
"+. c #90041A",
"@. c #87141B",
"#. c #800F22",
"$. c #820E22",
"%. c #850F23",
"&. c #880A21",
"*. c #8E1722",
"=. c #85272C",
"-. c #92212C",
";. c #8F2A32",
":. c #962932",
">. c #853637",
",. c #8D3237",
"<. c #8F363D",
"1. c #94363D",
"2. c #9D3B45",
"3. c #973C46",
"4. c #864749",
"5. c #864A4C",
"6. c #8D494B",
"7. c #94444B",
"8. c #9A434B",
"9. c #95484D",
"0. c #8D4C51",
"q. c #9B4B52",
"w. c #8F575B",
"e. c #9B535A",
"r. c #9B595E",
"t. c #965558",
"y. c #A0585F",
"u. c #A1525A",
"i. c #A25D62",
"p. c #9B6265",
"a. c #9C6569",
"s. c #976A6C",
"d. c #996A6F",
"f. c #A1676A",
"g. c #A3696E",
"h. c #A8606A",
"j. c #A46E72",
"k. c #A67376",
"l. c #A9747C",
"z. c #AC7A7F",
"x. c #A77579",
"c. c #A37F81",
"v. c #AA7980",
"b. c #8F8B89",
"n. c #938E8A",
"m. c #9D8E85",
"M. c #9E9693",
"N. c #A98A8E",
"B. c #AD8588",
"V. c #B1868D",
"C. c #B4898F",
"Z. c #AC8F92",
"A. c #B38A91",
"S. c #B5959B",
"D. c #BA9CA1",
"F. c #ABA2A0",
"G. c #BCA2A6",
"H. c #BEABAC",
"J. c #BBA7AB",
"K. c #AEB0A9",
"L. c #B5B1A9",
"P. c #B4BBB1",
"I. c #C1ADB2",
"U. c #C1B1B5",
"Y. c #C3B5B9",
"T. c #C5B9BE",
"R. c #C9BCB4",
"E. c #CCC1BC",
"W. c #C9BEC4",
"Q. c #C7BCC0",
"!. c #CAC3C6",
"~. c #CAC4C9",
"^. c #CDCACE",
"/. c #C6C1C6",
"(. c #D2CFCF",
"). c #CECBD0",
"_. c #CFCED3",
"`. c #CECCD1",
"'. c #CFCFD4",
"]. c #CFCDD2",
"[. c #D0CFD4",
"{. c #CFD0D5",
"}. c #D0D1D6",
"|. c #D0D1D6",
" X c #DED8D7",
".X c #D2D7DB",
"XX c #D2D5DA",
"oX c #D4D9DE",
"OX c #DED3D5",
"+X c #E0DCD7",
"@X c #D6DDE2",
"#X c #D7E1E6",
"$X c #D9E6EA",
"%X c #DCEDF3",
"&X c #EAEEEA",
"*X c #E8E3E0",
"=X c #F0EBE8",
"-X c #F2F6EE",
";X c #FFFFFB",
/* pixels */
"    + e A S $.$.$.$.$.$.$.$.$.$.$.C C $.$.$.$.$.$.$.$.$.$.$.$.$.%.$.$.S A &       ",
"  o q o.&.&.X.X.X.X.X.X.X.X.X.X.X.X.X.X.X.X.X.X.X.X.X.X.X.X.X.X.X.X.X.o.%.k o     ",
"  % x X.X.X.X.O.O.O.O.O.O.O.O.O.O.O.O.O.O.O.O.O.O.O.O.O.O.O.O.O.O.O.X.o.o.o.&     ",
"  % x X...X.O.O.O.O.O. .O.O. . . . . . . . . . . . . . . . . . .O.O.X.X...o.-     ",
"  # ..+.....O. . . . . . .} } } } } } } } } } } } } } } } } } } O.O.O.....X.-     ",
"  $ ..+...} } } } } } } } } } } } } ....} } } } } } } } } } } } } } } ....o.-     ",
"  # { } .. . .} } } } } }  . .} { ' ' ' ' ] ] }  .} } } } } } } ..} } } ..X.*     ",
"  # { } } } } } } { { } { ` ' O.-.1.2.2.2.:.@.] ` ] } { ....} } } { { { { ..*     ",
"  # l } } } { { { { ' ' ' 8.C.Y.^.`.}.}.`.^.W.D.h.*.` { { { } } { { { { { { *     ",
"  $ { { } } } { { { ` | A..XoX}.}._.`.`.`._.}..XoXW.q.` { ' } ..{ { { { { { *     ",
"  $ { { ] ] } { ' ' s C.@X).).`.`.`.`.`.`.`.`.`.).}..Xu.s { ' { { { { { { { =     ",
"  $ { ' ' ' ' f f s 8.oX`.`.`.`.`.`..XoX}.`.`.`.`.`.}.).;.s { ' { { { { { { =     ",
"  $ l ' ' ' ' f f s S.oX`.`.`.`.`..XI.V.W.}.`.`.`.`.).oXC.s f f f { { { { { =     ",
"  # f ' ' ' ' f s @.~.}.`.`.`.`..XI.N a 3.{.`.`.`.`.`.}.!.@.s f f ' { ' ' { =     ",
"  # f ' ' ' ' f s <.{.`.`.`.`.).@Xz.a d z ~.}.`.`.`._.[.}.<.a f f f f ' ' { =     ",
"  # f ' ' ' ' l a q..X`.`.`.`.).@Xl.a d x ~.}.`.`.`.`.`..X9.a f f f f f ' { =     ",
"  # d ' ' f ' f a e.oX`.`.`.`.).@Xl.a d N ~.}.`.`.`.`.`..X9.a f f f f f f { =     ",
"  # d f f f f f a y.oX^.`.`.`.^.oXx.a d m ~.}.`.`.`.`.`..X9.a f s f f f f ' =     ",
"  $ d f f f f f a i.$X.X.X.X.X}.$Xv.a f x ~.}.`.`.`.`.`.}.7.a f s f f f f f =     ",
"  $ f f f f f f a =.r.e.e.e.e.e.r.,.a d N ~.}.`.`.`.`._.).=.a s s f f f f f =     ",
"  $ d f f f f f f a a a a a a a a a f a ,.[.`.`.`.`.`..XH.d a s a s f f f f ;     ",
"  % u f d d f f f f f f f f f f | | | ;.G..X`.`.`.`.{.@X9.a f a s s f d d l ;     ",
"  + 9 j y d f s f f f f s f a q.Q.I.T.`..X`.`.`.`.`.^.g.a f d a s s f u 7 8 &     ",
": U F E e r f f f f f f f f a i.#X}.}._.`.`.`.`._.I.q.a a f a a s f d 6 L E U 2 X ",
"T E.K.L.L 6 d d a a a a a d t r.oX^.`._.`.`.`.`.`.^.~.V.m a d a a f d 8 m.P.P.F.: ",
"_ ;X&X=X^ j N M M M M M M N u a.@X[.}.`.`.`.`.`.`._._.#XS.c N x m N V w R.-X&X X< ",
") *X(.OXQ q J G G G G G G J B g.`./.~..X}.`.`.`.`.`.`.`.}.0.V H B H G w H.+X|.!.< ",
"I M.b.n.D 3 y y y y y y y y 7 8 n n Z 5.T..X`.`.`.`._.).@Xd.6 y r r y 3 _ n.n.b.: ",
"1 ~ Y / 0 6 a a a a t t t t t r r t t r 6..X`.`.`.`.`.^.oXA.t d d d t 3 P R R T @ ",
"1 ( ! ^ e r a a a =.j.a.f.f.f.f.j.<.s s @.~.}.`.`.`.`.`..XG.d a a d t 5 W ( ! U X ",
"X , e v i t a d t p.%X@X@X@X@XoX%Xz.s ` [ ~.}.`.`.`.`.`..XH.d t d t t 6 v q > X   ",
"  $ y r r t a a t e..X^.).).).^.oXk.a s [ ~.}.`.`.`.`.`..XU.d t t t t t t t $     ",
"  # y t t t t d t r.oX^.`.`.`.^.@Xk.t a g ~.}.`.`.`.`.`..XU.d t t t t t t t *     ",
"  O r t t t t d r t.oX^.`.`.`.).@Xk.t a g ~.}.[.`.`.`.`..XU.d t t t t t t t *     ",
"  O t a t t t t r t.oX`.`.`.`.^.@Xk.t a g ~.}.`.`.`.`.`..XI.u t t t t t t t *     ",
"  O r t t t t t r 6..X`.`.`.`.).@Xk.t a h ~.}.`.`.`.`.`..XH.t t t t t t t t *     ",
"  O r t r t t t r >.}.`.`.`.`.).@XB.t t h ~.}.`.`.`._.`.oXS.t t t t t t t t *     ",
"  O r t r r t t t V ^.}.`.`.`.`.}.T.M 6 >.}.`.`.`.`._.`.@Xz.r t t t t t t t *     ",
"  O 6 t r r t t t t J..X`._.`.`.`..XD.a.U.}.`.`.`.`.`.`.oX6.r t t t t t t t *     ",
"  O 6 r r r t t r 6 p.@X)._._.`.`.`..X@X}.`.`.`.`.`.`..XY.p r r r r r r r r $     ",
"  o 6 r r r r r r 6 v Y.oX^.`.`.`.`.`.).`.`.`.`.`.).}.oX4.6 y r r r r r r y $     ",
"  o 6 r 6 r r 6 6 6 6 K T.@X}.`.).`.`.`.`.`.).`.}.oX`.w.6 r 6 6 r r r r r y $     ",
"  o 6 r 6 6 6 6 6 6 6 6 b c.!..X@X@XoXoXoX@X@X.X~.N.K 6 6 6 6 6 6 r r r r 6 #     ",
"  o 6 6 6 6 6 6 6 6 6 6 6 6 b 4.s.c.N.Z.N.c.s.5.b 6 6 6 6 6 6 6 6 6 6 6 6 6 O     ",
"  O 5 6 6 6 6 6 6 6 6 6 6 6 6 6 5 6 6 6 6 6 5 5 6 6 6 6 6 6 6 6 6 6 6 6 6 5 o     ",
"  O 5 6 5 5 6 6 6 6 6 6 6 6 6 6 6 6 6 6 6 6 6 6 6 6 6 6 6 6 6 6 6 6 6 6 6 4 .     ",
"  O 4 5 5 5 5 6 6 6 6 6 6 6 6 6 6 6 6 6 6 6 6 6 6 6 6 6 6 6 6 6 6 5 5 6 6 4 .     ",
"  O 4 5 5 5 5 5 5 5 5 5 6 6 6 6 5 5 5 5 5 5 5 5 5 5 6 6 6 6 6 6 5 5 5 5 5 3 .     ",
"  o 3 4 4 4 4 4 4 5 5 5 5 5 5 4 5 5 5 5 4 5 5 5 5 5 5 5 5 5 5 4 4 4 4 4 4 = .     ",
"  . = 4 4 4 4 4 4 4 4 4 4 4 4 4 4 4 4 4 4 4 4 4 4 4 4 4 4 4 4 4 4 4 4 4 4 * .     ",
"    $ 4 4 4 4 4 4 4 4 4 4 4 4 4 4 4 4 4 4 4 4 4 4 4 4 4 4 4 4 4 4 4 3 4 4 $ .     ",
"    o = 4 4 4 4 4 4 4 4 4 4 4 4 4 4 4 4 4 4 4 4 4 4 4 4 4 4 4 4 4 3 3 3 = o       ",
"      . O O O O O O O O O O O O O O O O O O O O O O O O O O # O O O o o .         "
};
