/* XPM */
static char *_[] = {
/* columns rows colors chars-per-pixel */
"41 53 188 2 ",
"   c #000000",
".  c #0C0101",
"X  c #0D0A0A",
"o  c #150001",
"O  c #1C0001",
"+  c #190609",
"@  c #161213",
"#  c #250104",
"$  c #2A0004",
"%  c #220408",
"&  c #2A040A",
"*  c #330004",
"=  c #3A0005",
"-  c #35030A",
";  c #3B020A",
":  c #221D1D",
">  c #2F1515",
",  c #3C1716",
"<  c #292526",
"1  c #342A28",
"2  c #373131",
"3  c #450103",
"4  c #4B0004",
"5  c #540002",
"6  c #5B0001",
"7  c #58050C",
"8  c #490A12",
"9  c #471C1D",
"0  c #5B131B",
"q  c #531D1C",
"w  c #581619",
"e  c #630002",
"r  c #6B0002",
"t  c #630309",
"y  c #6A030B",
"u  c #650C0D",
"i  c #730003",
"p  c #7B0104",
"a  c #75020A",
"s  c #7C010B",
"d  c #770A0E",
"f  c #610612",
"g  c #6E0917",
"h  c #720710",
"j  c #7D0112",
"k  c #7C0D1C",
"l  c #760F17",
"z  c #631113",
"x  c #6F171B",
"c  c #7B1317",
"v  c #761219",
"b  c #7A131A",
"n  c #7F0E22",
"m  c #6B1722",
"M  c #7D1225",
"N  c #771E20",
"B  c #7C1C22",
"V  c #4F2F34",
"C  c #573F3F",
"Z  c #732224",
"A  c #7B2224",
"S  c #772429",
"D  c #653738",
"F  c #633532",
"G  c #59463E",
"H  c #4B4342",
"J  c #524543",
"K  c #525B4D",
"L  c #5D5553",
"P  c #5E5D54",
"I  c #664744",
"U  c #714640",
"Y  c #744E56",
"T  c #6C5D54",
"R  c #645F56",
"E  c #7B5754",
"W  c #606054",
"Q  c #766158",
"!  c #79615A",
"~  c #6F6766",
"^  c #7B6F6A",
"/  c #840003",
"(  c #83010D",
")  c #850213",
"_  c #8A0515",
"`  c #8A0916",
"'  c #860519",
"]  c #8D071D",
"[  c #8C071B",
"{  c #860919",
"}  c #840B1E",
"|  c #890918",
" . c #8B0918",
".. c #8A0A19",
"X. c #8A0A18",
"o. c #8B0A1A",
"O. c #8A091B",
"+. c #8D091E",
"@. c #890B1D",
"#. c #860815",
"$. c #90041A",
"%. c #851314",
"&. c #800F22",
"*. c #820E22",
"=. c #850F23",
"-. c #880A21",
";. c #831820",
":. c #891C20",
">. c #842628",
",. c #922630",
"<. c #8E343A",
"1. c #893436",
"2. c #93363C",
"3. c #8C3E42",
"4. c #8C4144",
"5. c #9C464C",
"6. c #8B4D50",
"7. c #974C54",
"8. c #8A595C",
"9. c #9A565B",
"0. c #9A585C",
"q. c #A2595E",
"w. c #9D5C64",
"e. c #A25B63",
"r. c #956065",
"t. c #9B6E71",
"y. c #9D7377",
"u. c #A3666B",
"i. c #A8686B",
"p. c #A16C71",
"a. c #A57377",
"s. c #A27679",
"d. c #AF727A",
"f. c #AF7179",
"g. c #AA757B",
"h. c #AA7A7E",
"j. c #B1747C",
"k. c #AC7D84",
"l. c #B27D85",
"z. c #8F8B89",
"x. c #938E8A",
"c. c #9D8E85",
"v. c #9E9693",
"b. c #AB8387",
"n. c #AC8A8E",
"m. c #B0898F",
"M. c #AF8C90",
"N. c #B18D91",
"B. c #B29296",
"V. c #B29599",
"C. c #B99FA3",
"Z. c #ABA2A0",
"A. c #BBA1A5",
"S. c #BDACAB",
"D. c #BBA4A9",
"F. c #AEB0A9",
"G. c #B5B1A9",
"H. c #BEACB0",
"J. c #B4BBB1",
"K. c #C2AFB4",
"L. c #C2B1B6",
"P. c #C9BCB4",
"I. c #CCC1BC",
"U. c #C7BDC2",
"Y. c #C9C2C6",
"T. c #CBC6CB",
"R. c #CDCACE",
"E. c #D2CFCF",
"W. c #CECBD0",
"Q. c #CFCDD2",
"!. c #D0CFD4",
"~. c #D1D1D6",
"^. c #DED8D7",
"/. c #D2D5DA",
"(. c #D3D9DE",
"). c #D4D9DE",
"_. c #DED3D5",
"`. c #E0DCD7",
"'. c #D4DDE1",
"]. c #D5DDE1",
"[. c #D9E1E6",
"{. c #D9EBEE",
"}. c #DAEBF0",
"|. c #EAEEEA",
" X c #E8E3E0",
".X c #F0EBE8",
"XX c #F2F6EE",
"oX c #FFFFFB",
/* pixels */
"    + w m M *.*.*.*.*.*.*.*.*.*.*.n n *.*.*.*.*.*.*.*.*.*.*.*.*.=.*.*.M m &       ",
"  o 0 } -.+.] ] ] ] ] [ [ [ [ [ [ [ [ [ [ [ [ [ [ [ [ [ [ [ [ [ [ [ ] @.=.g o     ",
"  % k ] ] +.O.O.O.O.O.O.O.O.O.O.O.O.O.O.O.O.O.O.O.O.O.O.O.O.O.O.O.O.+.{ @.} &     ",
"  % k +.O.O.O.O.O.O.O.` O.O.` ` ` ` ` ` ` ` ` ` ` ` ` ` ` ` ` ` O.O.O.O.{ @.-     ",
"  # { $.{ { ` ` ` ` ` ` ` ` _ _ _ _ _ _ _ _ _ _ _ _ _ _ _ _ _ _ O.O.O.{ { O.-     ",
"  $ ' $.#.#._ _ _ _ _ _ _ _ _ _ _ _ _ _ _ _ _ _ _ _ _ _ _ _ _ _ _ _ _ { #.{ -     ",
"  # ) _ #.` ` _ _ _ _ _ ` ` _ _ ` O.O.O._ _ ` ` ` ` ` ` _ _ _ _ O._ _ _ { ] -     ",
"  # ) _ _ _ _ _ _ ) ) _ _ ) _ _ ( / / / / / / / / / / ( #.#._ _ _ _ _ ) ) ) *     ",
"  # j _ _ _ ) ) ) ) ( ( ( ( ) / ,.j.d.d.j.d.d.d.d.d.l.5.( ) _ _ _ _ ) ) ) ) *     ",
"  $ ) ) _ _ _ ) ) ( ( ( ( ( ) p g.{.(.'.'.'.'.'.'.(.}.l.p ) _ O._ _ ) ) ) ) *     ",
"  $ ) ) ( ( _ ) ( / s s s ( ( ) K.~.R.W.W.W.W.W.W.R.(.g.p ) ( ) ) ) ) ) ) ) =     ",
"  $ ) ( ( ( ( s s p s s s ( p 2.~.Q.Q.Q.Q.Q.Q.Q.Q.W.'.g.p ) ( ( ) ) ) ) ) ) =     ",
"  $ j ( ( ( ( s s s s s s ( p g.'.W.Q.~.Q.Q.Q.Q.Q.Q.'.g.p s s s s ) ) ) ) ) =     ",
"  # s ( ( ( ( s s s s s s s ( K./.Q.Q.U.Q.Q.Q.Q.Q.Q.'.g.i s s s s ( ) ( ( ) =     ",
"  # s ( ( ( ( s s s s s s p 2.~.Q.~.Y.N.~.Q.Q.Q.Q.W.'.g.i s s s s s s ( ( ) =     ",
"  # s ( ( ( ( s s s s s s p g.'.R./.L.u./.Q.Q.Q.Q.W.'.g.i s s s s s s s ( ) =     ",
"  # a ( ( s ( s s s s s p s K./.R.].m.9.).Q.Q.Q.Q.W.'.g.i s s p s s s s s ) =     ",
"  # a s s s s s s s s s i <.~.Q.R.].w.7.'.Q.Q.Q.Q.W.'.g.i d s p i s s s s ( =     ",
"  $ a s s s s s s s s s i g.'.W.Q./.<.7.'.Q.Q.Q.Q.W.'.g.i d a p p s s s s s =     ",
"  $ s s s s s s s s s a s K./.Q.~.T.d 9.).Q.Q.Q.Q.W.'.g.r d a p p s s s s s =     ",
"  $ a s s s s s s s s i <.~.Q.Q.(.A.i 0.).Q.Q.Q.Q.W.'.g.r s p i p p s s s s ;     ",
"  % y s a a s s s s s i g.'.W.W.'.g.i e.).W.Q.Q.Q.W.'.g.i s s i p p s a a j ;     ",
"  + 8 f t a s p p s p s K./.Q.Q./.5.i q.(.R.Q.Q.Q.W.'.g.i s i i p p s y 7 7 &     ",
": J C I w e s s s s i <.~.Q.Q.~.T.:.p q.(.W.Q.Q.Q.W.'.g.i s i i p s a 6 F I J 2 X ",
"L I.F.G.D 6 a a i a r a.'.W.Q./.D.d r 9.).W.Q.Q.Q.W.'.g.r a i i i s a 7 c.J.J.Z.: ",
"^ oX|..XE f b v v l v K./.Q.W.'.k.h y r.).Q.Q.Q.Q.W.'.k.a b b k b b v q P.XX|.^.< ",
"~  XE._.Y 0 S Z Z x 6.~.Q.Q.Q./.e.;.B p.(.Q.Q.Q.Q.W.].b.x S A B N A Z q S.`.~.Y.< ",
"H v.z.x.V 3 e e e 6 t.].W.Q.~.R.m 5 5 8.).Q.Q.Q.Q.W.'.y.6 t e e e e 6 3 ^ x.x.z.: ",
"1 R K W 9 6 i i i d K./.Q.Q./.S.y i r 0.).Q.Q.Q.Q.W.'.g.r a i i i i r 3 G P P L @ ",
"1 Q T E w e i i r 1.~.Q.Q.W.'.h.i p i 9.).Q.Q.Q.Q.W.'.a.r i i i i i r 5 U ! T J X ",
"X , w z t r i i r a.].W.Q.Q.(.u.%.>.%.i.(.Q.Q.Q.Q.W.].b.c >.d r i r r 6 z 0 > X   ",
"  $ t e e r i i i C.(.Q.Q.Q.Q.R.R.R.T.R.Q.Q.Q.Q.Q.Q.Q.W.T.Q.3.r i r r r r r $     ",
"  # e r r r r r r A./.Q.Q.Q.Q.!.~.~.~.!.Q.Q.Q.Q.Q.Q.Q.Q.!./.4.r i r r r r r *     ",
"  O e r r r r r r A./.Q.Q.Q.Q.Q.Q.Q.Q.Q.Q.Q.Q.Q.Q.Q.Q.Q.Q./.4.r r r r r r r *     ",
"  O r i r r r r r C./.R.Q.Q.Q.Q.Q.Q.Q.Q.Q.Q.Q.Q.Q.Q.Q.Q.W.~.4.e r r r r r r *     ",
"  O e r r r r r r S.[./.).).).).).).).~.Q.Q.Q.Q.Q.Q.Q.~.).'.4.e r r r r r r *     ",
"  O e r e r r r r p.B.M.N.N.N.N.N.N.N.U.~.Q.Q.Q.Q.Q./.L.n.B.>.e r r r r r r *     ",
"  O e r e e r r r r e r r r r r r r r B.).Q.Q.Q.Q.W.'.s.e r e r r r r r r r *     ",
"  O 6 r e e r r r r e e r r r r r r r V.).Q.Q.Q.Q.W.'.s.e t e e r r r r r r *     ",
"  O 6 e e e r r e e e e e e r e e e e V.).Q.Q.Q.Q.W.'.s.6 e e e e e e e e e $     ",
"  o 6 e e e e e e e e e e e e e e e e V.).Q.Q.Q.Q.W.'.s.6 e e e e e e e e e $     ",
"  o 5 e 6 e e e 6 6 6 6 e e e e e e e V.].!.~.~.~.Q.[.s.6 e e e e e e e e e $     ",
"  o 5 e 6 6 6 6 6 6 6 6 e e e e 6 e 6 n.W.U.Y.Y.Y.U.Q.t.6 e 6 6 6 e e e e 6 #     ",
"  O 5 6 6 6 6 6 6 6 6 6 6 6 e e 6 6 6 t u u u u u u u t 6 6 6 6 6 6 6 6 6 6 O     ",
"  O 5 6 6 6 6 6 6 6 6 6 6 6 6 6 6 6 6 6 6 6 6 6 6 6 6 6 6 6 6 6 6 6 6 6 6 5 o     ",
"  O 5 6 5 5 5 6 6 6 6 6 6 6 6 6 6 6 6 6 6 6 6 6 6 6 6 6 6 6 6 6 6 5 5 5 6 4 .     ",
"  O 4 5 5 5 5 5 5 5 5 5 5 5 5 5 5 5 5 5 5 5 5 5 5 5 5 5 5 5 5 5 5 5 5 5 5 4 .     ",
"  O 4 5 5 5 5 5 5 5 5 5 5 5 5 5 5 5 5 5 5 5 5 5 5 5 5 5 5 5 5 5 5 5 5 5 5 3 .     ",
"  o 3 4 4 4 4 4 4 5 5 5 5 5 5 4 5 5 5 5 4 5 5 5 5 5 5 5 5 5 5 4 5 4 4 4 4 = .     ",
"  . = 4 4 4 4 4 4 4 4 4 4 4 4 4 4 4 4 4 4 4 4 4 4 4 4 4 4 4 4 4 4 4 4 4 4 = .     ",
"    $ 4 4 4 4 4 4 4 4 4 4 4 4 4 4 4 4 4 4 4 4 4 4 4 4 4 4 4 4 4 4 4 4 4 4 $       ",
"    o = 4 4 4 4 4 4 4 4 4 4 4 4 4 4 4 4 4 4 4 4 4 4 4 4 4 4 4 4 4 3 3 3 = o       ",
"      . O O O O O O O O O O O O O O O O O O O O O O O O O O # O O O o o .         "
};
