/* XPM */
static char *_[] = {
/* columns rows colors chars-per-pixel */
"41 53 200 2 ",
"   c #000000",
".  c #0C0101",
"X  c #0D0A0A",
"o  c #150001",
"O  c #1C0001",
"+  c #190609",
"@  c #161213",
"#  c #250104",
"$  c #2A0004",
"%  c #220408",
"&  c #2A040A",
"*  c #330004",
"=  c #3A0005",
"-  c #35030A",
";  c #3B020A",
":  c #221D1D",
">  c #2F1515",
",  c #3C1716",
"<  c #292526",
"1  c #342A28",
"2  c #373131",
"3  c #450103",
"4  c #4C0004",
"5  c #540002",
"6  c #5B0002",
"7  c #59060C",
"8  c #490A12",
"9  c #471C1D",
"0  c #5B131B",
"q  c #531D1C",
"w  c #581619",
"e  c #630002",
"r  c #6C0002",
"t  c #64040A",
"y  c #630C0C",
"u  c #6B0A0D",
"i  c #6A0009",
"p  c #730104",
"a  c #7A0105",
"s  c #700807",
"d  c #75030B",
"f  c #7B010B",
"g  c #700D0E",
"h  c #610612",
"j  c #6E0917",
"k  c #7D0112",
"l  c #770A12",
"z  c #7C0C15",
"x  c #7C0E1B",
"c  c #720710",
"v  c #641112",
"b  c #691011",
"n  c #6E191C",
"m  c #6C1718",
"M  c #7B1117",
"N  c #76131A",
"B  c #7B141B",
"V  c #7D191D",
"C  c #7F0E22",
"Z  c #6B1422",
"A  c #7D1225",
"S  c #751E21",
"D  c #791C22",
"F  c #4F2F34",
"G  c #573F3F",
"H  c #6F2223",
"J  c #732224",
"K  c #7A2529",
"L  c #643635",
"P  c #7E3C3E",
"I  c #59463E",
"U  c #4B4342",
"Y  c #524543",
"T  c #525B4D",
"R  c #5D5553",
"E  c #5E5D54",
"W  c #664744",
"Q  c #714640",
"!  c #744E56",
"~  c #6C5D54",
"^  c #645F56",
"/  c #7B5754",
"(  c #606054",
")  c #786159",
"_  c #6F6766",
"`  c #7B6F6A",
"'  c #840003",
"]  c #82010C",
"[  c #84090F",
"{  c #850213",
"}  c #8A0515",
"|  c #840A15",
" . c #8A0916",
".. c #860519",
"X. c #8C071B",
"o. c #850A1C",
"O. c #890918",
"+. c #8A0A19",
"@. c #8A0A18",
"#. c #8B0A1A",
"$. c #8A091A",
"%. c #8D091E",
"&. c #890B1D",
"*. c #90041A",
"=. c #83151E",
"-. c #800F22",
";. c #820E22",
":. c #850F23",
">. c #880A21",
",. c #871520",
"<. c #831C23",
"1. c #82242B",
"2. c #8B232B",
"3. c #80292D",
"4. c #8C2B33",
"5. c #822F30",
"6. c #853338",
"7. c #90343C",
"8. c #923C43",
"9. c #894247",
"0. c #93444A",
"q. c #93474B",
"w. c #994C53",
"e. c #8C5B5E",
"r. c #965459",
"t. c #965A5C",
"y. c #9A595C",
"u. c #96555A",
"i. c #A1595B",
"p. c #9B5D60",
"a. c #986669",
"s. c #9C6E71",
"d. c #9D7173",
"f. c #A5646B",
"g. c #A9666E",
"h. c #A36B72",
"j. c #A2757A",
"k. c #AE727A",
"l. c #AF757E",
"z. c #A27C7F",
"x. c #B0737B",
"c. c #A67F84",
"v. c #8F8B89",
"b. c #938E8A",
"n. c #9D8E85",
"m. c #9E9693",
"M. c #AA8286",
"N. c #AF868B",
"B. c #AC8A8E",
"V. c #A78387",
"C. c #B5878F",
"Z. c #B2898F",
"A. c #B28286",
"S. c #AC8F93",
"D. c #B18B91",
"F. c #B9999D",
"G. c #B6969A",
"H. c #BA9DA1",
"J. c #ABA2A0",
"K. c #BDA4AA",
"L. c #BEADAC",
"P. c #BBA1A5",
"I. c #AEB0A9",
"U. c #B5B1A9",
"Y. c #BEAFB3",
"T. c #BFB1B5",
"R. c #B4BBB1",
"E. c #C1AFB4",
"W. c #C1B0B5",
"Q. c #C3B6BB",
"!. c #C6B9BD",
"~. c #C9BCB4",
"^. c #CCC1BC",
"/. c #C7BCC1",
"(. c #C8BEC3",
"). c #CAC2C6",
"_. c #CBC5CA",
"`. c #CDCACF",
"'. c #D2CFCF",
"]. c #CECBD0",
"[. c #CFCED3",
"{. c #CFCDD2",
"}. c #CFCDD2",
"|. c #D0CFD4",
" X c #D1D1D6",
".X c #DED8D7",
"XX c #D2D5DA",
"oX c #D4D9DE",
"OX c #DED3D5",
"+X c #E0DCD7",
"@X c #D4DDE1",
"#X c #D4DCE1",
"$X c #D5DBE1",
"%X c #D6E1E6",
"&X c #D9E4E9",
"*X c #EAEEEA",
"=X c #E8E3E0",
"-X c #F0EBE8",
";X c #F2F6EE",
":X c #FFFFFB",
/* pixels */
"    + w Z A ;.;.;.;.;.;.;.;.;.;.;.C C ;.;.;.;.;.;.;.;.;.;.;.;.;.:.;.;.A Z &       ",
"  o 0 o.>.%.%.%.%.%.%.X.X.X.X.X.X.X.X.X.X.X.X.X.X.X.X.X.X.X.X.X.X.X.%.&.:.j o     ",
"  % x %.%.%.%.$.$.$.$.$.$.$.$.$.$.$.$.$.$.$.$.$.$.$.$.$.$.$.$.$.$.$.%...&.o.&     ",
"  % x %...%.$.$.$.$. . .$.$. . . . . . . . . . . . . . . . . . .$.$.$.$...&.-     ",
"  # ..*..... . . . . . . .} } } } } } } } } } } } } } } } } } } $.$.$.....%.-     ",
"  $ ..*...| } } } } } } } } } } } } } } } } } } } } } } } } } } } } } ......-     ",
"  # { } .. . .} } }  .$.$. . .$.$.$.$.$.} }  . . .}  . . .} } } ..} } } ..%.-     ",
"  # { } } } } } } { ] ' ' ' ' ' ' ' ' ' ' ' ' ' ' ' ' ' ] ..} } } } } { { { *     ",
"  # k } } } { { { ..f.l.k.k.k.k.k.k.k.x.x.k.k.k.k.x.k.x.g.| } } } } { { { { *     ",
"  $ { { } } } { ] | ).%X#X@X@X@X@X@X@X@X@X@X@X@X@X@X#X%X_.| { X.} } { { { { *     ",
"  $ { { [ [ } { ] [ !.|.`.].].].].].].].].].].].].].`. XQ.| ] { { { { { { { =     ",
"  $ { ] ] ] ] f a | ). X{.{.{.{.{.{.{.{.{.{.{.{.{.{.{.XX!.| ] { { { { { { { =     ",
"  $ k ] ] ] ] f a | _. X{.{.{.{.{.{. X X X X X X X X XoX!.| f f f { { { { { =     ",
"  # f ] ] ] ] f a =._. X{.{.{.{.{.{.(././././././././.).K.z f f f ] { ] ] { =     ",
"  # f ] ] ] ] f a <._. X{.{.{.{. X_.<.z x x M M z z z z z f f f f f f ] ] { =     ",
"  # f ] ] ] ] f a 2.`. X{.{.{.{. X/.l d d d d d d f f f f f f f f f f f ] { =     ",
"  # d ] ] ] ] f a 2.].|.{.{.{.{.XXE.l d d p r r r p f f f f f a f f f f f { =     ",
"  # d f f f f f a 4.{.[.{.{.{.{.XXK.d p l 6.r.y.q.<.p p f d f a a f f f f ] =     ",
"  $ d f f f f f a 7.{.{.{.{.{.{.oXF.p w.E.{.XXoX X_.N.V p d d a a f f f f f =     ",
"  $ f f f f f f p 7. X{.{.{.{.{.#XN.a.#XXX{.{.{.{.|.@XW.V p d a a f f f f f =     ",
"  $ d f f f f f p 8. X{.{.{.{.{.XXK._. X{.{.{.{.{.{.`.@XD.p f p a a f f f f ;     ",
"  % c f d d f f p 0.XX{.{.{.{.{.{.|.{.{.{.{.{.{.{.{.{.{.{.4.p p a a f d d k ;     ",
"  + 8 h t d f f p q.XX{.{.{.{.{.{.{.{. X[.{.{.{.{.{.{.].@Xf.p d a a f i 7 7 &     ",
": Y G W w e f f p w.XX`.{.{.{.{.{.{.XX_.`. X{.{.{.{.{.].oXD.p a a f d 6 L W Y 2 X ",
"R ^.I.U.L 6 d d r y.&XoXoXoXoXoXoX%Xc.l 3.Q. X{.{.{.{.{.XXK.p p p f d 7 n.R.R.J.: ",
"` :X*X-X/ h B N c 0.G.B.D.D.Z.Z.C.Z.K u e j.@X`.{.{.{.{.XXW.B z M B N q ~.;X*X.X< ",
"_ =X'.OX! 0 K J J S n n n n D <.,.=.1.3.B h.oX{.{.{.{.{.XXQ.K D S K J q L.+X X).< ",
"U m.v.b.F 3 e e e e e e e e 7 5 6 7 7 7 4 e.oX].{.{.{.{.XXT.t e e e e 3 ` b.b.v.: ",
"1 ^ T ( 9 6 p p p p p p p p r r r p r s r y.#X].{.{.{.{.XXW.d p p p r 3 I E E R @ ",
"1 ) ~ / w e p p p p p r p p p p a a a a a i.#X].{.{.{.{.XXW.d p p p r 5 Q ) ~ Y X ",
"X , w v y r p p r 0.P.G.G.F.F.F.H.A.' ' a i.#X].{.{.{.{.XXW.d r p r r 6 v 0 > X   ",
"  $ t e e r p p r p.&XXXoXoXoXXX@X!.a a p y.#X].{.{.{.{.XXW.d r r r r r r r $     ",
"  # e r r r r p r y.oX`.{.{.{.{.XXE.d a p y.#X`.{.{.{.{.XXW.d r r r r r r r *     ",
"  O e r r r r p e y.#X].{.{.{.{.XXW.d p r y.oX`.{.{.{.{.XXW.s r r r r r r r *     ",
"  O r p r r r r e t.#X].{.{.{.{.XXW.d p r y.oX`.{.{.{.{.XXL.r r r r r r r r *     ",
"  O e r r r r r e u.oX].{.{.{.{.XXW.s p r y.oX`.{.{.{.{.oXH.r r r r r r r r *     ",
"  O e r e r r r e q.XX{.{.{.{.{.XXE.s r r t.#X].{.{.{.].#XM.e r r r r r r r *     ",
"  O e r e e r r e 5.|.{.{.{.{.{. X(.g e e j.@X].{.{.{.].#Xt.e r r r r r r r *     ",
"  O 6 r e e r r r u Q.XX{.{.{.{.{.XXM.5.r._. X{.{.{.{. X`.S e r r r r r r r *     ",
"  O 6 e e e r r e 6 s.@X`.{.{.{.{.{.oX XXX X{.{.{.{.`.@XV.6 e e e e e e e e $     ",
"  o 6 e e e e e e 6 b W.oX`.{.{.{.{.{.{.{.{.{.{.{.`.oXQ.m 6 e e e e e e e e $     ",
"  o 5 e 6 e e e 6 6 6 H W.$X X{.].].{.{.{.].].{.XX@XY.J 6 e e e e e e e e e $     ",
"  o 5 e 6 6 6 6 6 6 6 6 b d./.XX@X#XoXoXoX@X#X XQ.s.y 6 e 6 6 6 6 e e e e 6 #     ",
"  o 5 6 6 6 6 6 6 6 6 6 6 6 b 9.a.c.B.S.B.z.a.P y 6 6 6 6 6 6 6 6 6 6 6 6 6 O     ",
"  O 5 6 6 6 6 6 6 6 6 6 6 6 6 5 5 5 6 6 6 5 5 5 6 6 6 6 6 6 6 6 6 6 6 6 6 5 o     ",
"  O 5 6 5 5 5 6 6 6 6 6 6 6 6 6 6 6 6 6 6 6 6 6 6 6 6 6 6 6 6 6 6 5 5 5 6 4 .     ",
"  O 4 5 5 5 5 5 5 5 5 5 5 5 5 5 5 5 5 5 5 5 5 5 5 5 5 5 5 5 5 5 5 5 5 5 5 4 .     ",
"  O 4 5 5 5 5 5 5 5 5 5 5 5 5 5 5 5 5 5 5 5 5 5 5 5 5 5 5 5 5 5 5 5 5 5 5 3 .     ",
"  o 3 4 4 4 4 4 4 5 5 5 5 5 5 4 5 5 5 5 4 5 5 5 5 5 5 5 5 5 5 4 5 4 4 4 4 = .     ",
"  . = 4 4 4 4 4 4 4 4 4 4 4 4 4 4 4 4 4 4 4 4 4 4 4 4 4 4 4 4 4 4 4 4 4 4 * .     ",
"    $ 4 4 4 4 4 4 4 4 4 4 4 4 4 4 4 4 4 4 4 4 4 4 4 4 4 4 4 4 4 4 4 4 4 4 $ .     ",
"    o = 4 4 4 4 4 4 4 4 4 4 4 4 4 4 4 4 4 4 4 4 4 4 4 4 4 4 4 4 4 3 3 3 = o       ",
"      . O O O O O O O O O O O O O O O O O O O O O O O O O O # O O O o o .         "
};
