/* XPM */
static char *_[] = {
/* columns rows colors chars-per-pixel */
"41 53 200 2 ",
"   c #000000",
".  c #0C0101",
"X  c #0D0A0A",
"o  c #150001",
"O  c #1C0001",
"+  c #190609",
"@  c #161213",
"#  c #250104",
"$  c #2A0004",
"%  c #220408",
"&  c #2A040A",
"*  c #330004",
"=  c #3A0005",
"-  c #35030A",
";  c #3B020A",
":  c #221D1D",
">  c #2F1515",
",  c #3C1716",
"<  c #292526",
"1  c #342A28",
"2  c #373131",
"3  c #450103",
"4  c #4B0004",
"5  c #540002",
"6  c #5B0002",
"7  c #58050C",
"8  c #490A12",
"9  c #471C1D",
"0  c #5B131B",
"q  c #531D1C",
"w  c #581619",
"e  c #630002",
"r  c #6C0002",
"t  c #630309",
"y  c #6A0409",
"u  c #630B0C",
"i  c #690C0E",
"p  c #730103",
"a  c #7A0105",
"s  c #75030B",
"d  c #7C010B",
"f  c #73080C",
"g  c #7B080C",
"h  c #610612",
"j  c #6E0917",
"k  c #7D0112",
"l  c #770A12",
"z  c #790A12",
"x  c #7C0D1E",
"c  c #631113",
"v  c #6D1819",
"b  c #7A1117",
"n  c #76131A",
"m  c #7C131B",
"M  c #76191A",
"N  c #7F0E22",
"B  c #6B1422",
"V  c #7D1225",
"C  c #771D21",
"Z  c #7A1F24",
"A  c #4F2F34",
"S  c #573F3F",
"D  c #6E2628",
"F  c #732021",
"G  c #752529",
"H  c #7C2321",
"J  c #653738",
"K  c #633532",
"L  c #7F393B",
"P  c #59463E",
"I  c #4B4342",
"U  c #524543",
"Y  c #525B4D",
"T  c #5D5553",
"R  c #5E5D54",
"E  c #664744",
"W  c #714640",
"Q  c #744E56",
"!  c #6C5D54",
"~  c #645F56",
"^  c #7E5157",
"/  c #785C51",
"(  c #606054",
")  c #766158",
"_  c #79615A",
"`  c #6F6766",
"'  c #796F6E",
"]  c #7D6E66",
"[  c #830105",
"{  c #83010C",
"}  c #890008",
"|  c #850213",
" . c #8A0615",
".. c #840B15",
"X. c #8A0917",
"o. c #860519",
"O. c #8C071B",
"+. c #850A1C",
"@. c #8D091E",
"#. c #8A0A1A",
"$. c #90041A",
"%. c #841216",
"&. c #800F22",
"*. c #820E22",
"=. c #850F23",
"-. c #880A21",
";. c #861920",
":. c #8A1921",
">. c #911C27",
",. c #802126",
"<. c #93232E",
"1. c #8B2B32",
"2. c #872F34",
"3. c #942532",
"4. c #8C343B",
"5. c #843637",
"6. c #99323C",
"7. c #803F41",
"8. c #9B3E47",
"9. c #9D3F49",
"0. c #9B3641",
"q. c #874648",
"w. c #94434A",
"e. c #98444D",
"r. c #934E53",
"t. c #8E5356",
"y. c #945A5D",
"u. c #9B595D",
"i. c #985459",
"p. c #A0595D",
"a. c #9F5B62",
"s. c #915D60",
"d. c #A15F66",
"f. c #9F6067",
"g. c #9D626A",
"h. c #98686C",
"j. c #9A6F72",
"k. c #A4666D",
"l. c #A9636C",
"z. c #A86F76",
"x. c #A67377",
"c. c #A47678",
"v. c #AF737C",
"b. c #8E8987",
"n. c #8F8C8A",
"m. c #938E8A",
"M. c #9D8E85",
"N. c #9E9693",
"B. c #A48286",
"V. c #A78488",
"C. c #B3858D",
"Z. c #B5898E",
"A. c #AC8E91",
"S. c #B48B92",
"D. c #AF9396",
"F. c #B9959B",
"G. c #B4979C",
"H. c #BA9CA2",
"J. c #ABA2A0",
"K. c #B7A2A7",
"L. c #BDA4AA",
"P. c #BDACAB",
"I. c #B9A3A7",
"U. c #AEB0A9",
"Y. c #B5B1A9",
"T. c #BBABB1",
"R. c #B3B7B0",
"E. c #B5BEB2",
"W. c #C1ADB2",
"Q. c #C2B0B5",
"!. c #C3B4B9",
"~. c #C7BBB9",
"^. c #CCC1BC",
"/. c #C8BDC2",
"(. c #C6BBC0",
"). c #CBC5CA",
"_. c #CDCACE",
"`. c #CBC5C5",
"'. c #D2CFCF",
"]. c #CFCED3",
"[. c #CECDD2",
"{. c #CFCFD5",
"}. c #CFCDD2",
"|. c #D0CFD4",
" X c #CFD0D5",
".X c #D0D0D5",
"XX c #D1D1D6",
"oX c #DED8D7",
"OX c #D2D4D9",
"+X c #D4DADE",
"@X c #DED3D5",
"#X c #E0DCD7",
"$X c #D5DCE1",
"%X c #DDECF1",
"&X c #D9E4E9",
"*X c #EAEEEA",
"=X c #E8E3E0",
"-X c #F0EBE8",
";X c #F2F6EE",
":X c #FFFFFB",
/* pixels */
"    + w B V *.*.*.*.*.*.*.*.*.*.*.N N *.*.*.*.*.*.*.*.*.*.*.*.*.=.*.*.V B &       ",
"  o 0 +.-.@.@.@.@.@.@.O.O.O.O.O.O.O.O.O.O.O.O.O.O.O.O.O.O.O.O.O.O.O.@.+.=.j o     ",
"  % x @.@.@.@.#.#.#.#.#.#.#.#.#.#.#.#.#.#.#.#.#.#.#.#.#.#.#.#.#.#.#.@.o.+.+.&     ",
"  % x @.o.@.#.#.#.#.#.X.#.#.X.X.X.X.X.X.X.X.X.X.X.X.X.X.X.X.X.X.#.#.#.#.o.+.-     ",
"  # o.$.o.o.X.X.X.X.X.X.X. . . . . . . . . . . . . . . . . . . .#.#.#.o.o.@.-     ",
"  $ o.$.o... . . . . . . . . . . . . .o.o.o. . . . . . . . . . . . . .o.o.o.-     ",
"  # |  .o.X.X. . . . . .X.X.X.X. .| { { { } {  . . . . . . . . .o. . . .o.@.-     ",
"  # |  . . . . . .| |  . .| [ { #.<.0.9.9.6.>. .[ }  .| o.o. . . . . .| | | *     ",
"  # k  . . .| | | | { | [ { 9.C.!._.].XXXX].).W.v.3.[ | | |  . . . .| | | | *     ",
"  $ | |  . . .| | { { a :.F.OX+XOX X].].].{.XXOX$X_.l.{ { {  .o. . .| | | | *     ",
"  $ | | { {  .| { { a %.Q.$X].[.].].].].].].].].[.{.$Xz.[ | { | | | | | | | =     ",
"  $ | { { { { d d a a F.$X_.].].].].XX+XOX].].].].].].OXw.a | { | | | | | | =     ",
"  $ k { { { { d d a w.OX].].].].].XX/.C.!.OX].].].].].OXL.d d d d | | | | | =     ",
"  # d { { { { d d a S.+X[.].].].{.].4.p 1._.XX].].].].].].1.a d d { | { { | =     ",
"  # d { { { { d a ../.XX].].].].OX!.l s g L.OX].].].].].+Xi.p g d d d { { | =     ",
"  # d { { { { d a 1.].{.].].].].OXQ.z s f H.OX_.[.[.[._.$Xk.p d d d d d { | =     ",
"  # s { { { { g p e.OX].].].].].OXQ.l s f W.&X+X$X$X$XOX%Xx.p g d d d d d | =     ",
"  # s d d d d d p i.+X].].].].].OXQ.z s f r.g.a.f.f.f.a.k.4.p d s d d d d { =     ",
"  $ s d d d d d p p.+X[.].].].].OXQ.z d g p r r r r p p p p d a a d d d d d =     ",
"  $ d d d d d d p a.+X[.].].].].OXQ.z s p f m b f r p f f f s a a d d d d d =     ",
"  $ s d d d d d p a.+X[.].].].].OXQ.g g d.L.(.~.I.x.,.p f s a s a a d d d d ;     ",
"  % y d s s d d p u.+X[.].].].].OXW.%.F.$XOXXXXXOX+X).w.p d d s a a d s s k ;     ",
"  + 8 h t s d d p u.+X_.].].].].OXW.Z.$X_.].].].].[.XX].1.p d s a a d y 7 7 &     ",
": U S E w e d d p u.+X_.].].].].].].XX].].].].].].]._.+XF.p s a a d s 6 K E U 2 X ",
"T ^.U.Y.J 6 s s r u.+X[.].].].].].].].].].].].].].].].].XX2.r s s d s 7 M.E.R.J.: ",
"' :X*X-X^ h m n s f.+X[.].].].].].].OX+X+X|.].].].].].[.$Xz.s m b m n q ~.;X*XoX< ",
"` =X'.@XQ 0 G G v j.+X].].].].].].OXT.h.B.].].].].].].].+XG.C Z C H F q P.#XXX`.< ",
"I N.n.m.A 3 e e 6 y.+X[.].].].].|._.D 5 5 V.+X_.].].].].OXK.e e e e e 3 ] m.m.b.: ",
"1 ~ Y ( 9 6 s s r u.+X[.].].].].OX!.f f e u.$X_.].].].].OXW.s p p p r 3 P R R T @ ",
"1 ) ! / q e s s r u.$X[.].].].].OXQ.g a a p.+X[.].].].].OXQ.f p p p r 5 W _ ! U X ",
"X , w c u r p s r u.$X[.].].].].OXQ.[ [ a p.$X[.].].].].OXQ.s r p r r 6 c 0 > X   ",
"  $ t e e r p s r u.$X[.].].].].OXQ.a a p u.$X[.].].].].OXQ.s r r r r r r r $     ",
"  # e r r r r p r u.$X[.].|.].].OXQ.s p p u.+X_.].].].].OXQ.s r r r r r r r *     ",
"  O e r r r r p e i.+X[.].].].].OXQ.s p r u.+X_.].].].].OXW.f r r r r r r r *     ",
"  O r p r r r r e r.OX].].].].].OXQ.s s r u.+X_.].].].].OXP.r r r r r r r r *     ",
"  O e r r r r r e 5.XX].].].].].OXQ.f p r u.+X_.].].].].+XG.r r r r r r r r *     ",
"  O e r e r r r r M _.XX].].].].OXQ.f y r y.$X[.].].].[.$Xc.e r r r r r r r *     ",
"  O e r e e r r r r I.OX].].].].XX).M e e c.$X[.].].].].OXq.e r r r r r r r *     ",
"  O 6 r e e r r r e y.$X[.].].].].OXA.2.t.).XX].].].].OXQ.y e e r r r r r r *     ",
"  O 6 e e e r r e e i !.OX[.].].].].OXXXOXXX].].].].[.$Xt.6 e e e e e e e e $     ",
"  o 6 e e e e e e e 6 L XXOX_.].].].].].].].].].]._.$XA.6 e e e e e e e e e $     ",
"  o 5 e 6 e e e 6 6 6 6 q.).$XXX].[.].].].].[.].OX$XD.u 6 e e e e e e e e e $     ",
"  o 5 e 6 6 6 6 6 6 6 6 6 F V.).OX$X+X+X+X$X$XOX!.s.6 6 e 6 6 6 6 e e e e 6 #     ",
"  o 5 6 6 6 6 6 6 6 6 6 6 6 6 v q.j.V.A.A.B.h.7.u 6 6 6 6 6 6 6 6 6 6 6 6 6 O     ",
"  O 5 6 6 6 6 6 6 6 6 6 6 6 6 6 5 5 6 6 6 5 5 5 6 6 6 6 6 6 6 6 6 6 6 6 6 5 o     ",
"  O 5 6 5 5 5 6 6 6 6 6 6 6 6 6 6 6 6 6 6 6 6 6 6 6 6 6 6 6 6 6 6 5 5 5 6 4 .     ",
"  O 4 5 5 5 5 5 5 5 5 5 5 5 5 5 5 5 5 5 5 5 5 5 5 5 5 5 5 5 5 5 5 5 5 5 5 4 .     ",
"  O 4 5 5 5 5 5 5 5 5 5 5 5 5 5 5 5 5 5 5 5 5 5 5 5 5 5 5 5 5 5 5 5 5 5 5 3 .     ",
"  o 3 4 4 4 4 4 4 5 5 5 5 5 5 4 5 5 5 5 4 5 5 5 5 5 5 5 5 5 5 4 5 4 4 4 4 = .     ",
"  . = 4 4 4 4 4 4 4 4 4 4 4 4 4 4 4 4 4 4 4 4 4 4 4 4 4 4 4 4 4 4 4 4 4 4 * .     ",
"    $ 4 4 4 4 4 4 4 4 4 4 4 4 4 4 4 4 4 4 4 4 4 4 4 4 4 4 4 4 4 4 4 4 4 4 $ .     ",
"    o = 4 4 4 4 4 4 4 4 4 4 4 4 4 4 4 4 4 4 4 4 4 4 4 4 4 4 4 4 4 3 3 3 = o       ",
"      . O O O O O O O O O O O O O O O O O O O O O O O O O O # O O O o o .         "
};
